<?xml version="1.0" encoding="UTF-8"?>
<svg id="arrosoir" xmlns="http://www.w3.org/2000/svg" viewBox="0 0 550.83 500">
  <defs>
    <style>
      .cls-1 {
        opacity: .41;
      }

      .cls-1, .cls-2, .cls-3, .cls-4, .cls-5, .cls-6, .cls-7 {
        stroke-width: 0px;
      }

      .cls-1, .cls-4, .cls-5 {
        fill: #124923;
      }

      .cls-8, .cls-9, .cls-10, .cls-11, .cls-12 {
        stroke-miterlimit: 10;
      }

      .cls-8, .cls-9, .cls-11 {
        fill: none;
      }

      .cls-8, .cls-9, .cls-12 {
        stroke-width: 2px;
      }

      .cls-8, .cls-12 {
        stroke: #134e25;
      }

      .cls-9 {
        stroke: #0f441f;
      }

      .cls-13 {
        opacity: .63;
      }

      .cls-2 {
        fill: #114922;
      }

      .cls-3 {
        opacity: .17;
      }

      .cls-3, .cls-7 {
        fill: #fff;
      }

      .cls-10 {
        fill: #248235;
      }

      .cls-10, .cls-11 {
        stroke: #207733;
        stroke-width: 3px;
      }

      .cls-4 {
        opacity: .24;
      }

      .cls-5 {
        opacity: .35;
      }

      .cls-12 {
        fill: #1a5f28;
      }

      .cls-6 {
        fill: #0d411d;
      }

      .cls-7 {
        opacity: .16;
      }
    </style>
  </defs>
  <path class="cls-10" d="M470.09,155.91c-20.21-20.21-45.15-28.04-55.69-17.5-8.57,8.57-5,26.64,7.49,43.96.31.43.25,1.02-.14,1.37l-61.16,55.08c-.19.17-.44.27-.69.27h-63.18c-.57,0-1.03-.46-1.03-1.03v-73.55c0-6.96-3.89-13.36-10.11-16.49-19.1-9.62-51.94-22.37-94.06-21.95-40.08.4-71.34,12.55-89.99,21.95-6.21,3.13-10.1,9.53-10.1,16.48h0c0,.84-.96,1.33-1.64.83-10.58-7.86-24.6-12.69-36.66-8.89-18.44,5.8-25.27,29.53-27.06,35.74-15.76,54.72,34.93,124.63,64.94,146.12.27.19.42.5.42.83v22.09c0,4.82,1.77,9.18,4.64,12.34,4.53,5,57.62,29.4,100.04,28.76,39.55-.6,99.57-21.33,99.57-30.96v-24.15c0-.27.11-.54.3-.73,48.17-47.87,96.33-95.73,144.5-143.6.36-.36.94-.39,1.35-.08,17.85,13.55,36.89,17.68,45.76,8.81,10.55-10.55,2.71-35.48-17.5-55.69ZM51.09,228.96c-2.67-8.05-6.02-20.07-1.02-31.91,1.04-2.46,5.42-12.85,14.04-14.55,10.12-1.99,21.72,8.84,23.73,10.71,0,0,.01.01.01.01h0s0,0,0,0c.32,9.68.65,19.37.97,29.05.9,26.82,1.8,53.63,2.7,80.45.03,1.04-1.31,1.48-1.88.62-10.18-15.2-28.74-44.81-38.55-74.37ZM296.71,262.4h35c.95,0,1.39,1.17.69,1.8l-35,31.52c-.66.6-1.72.13-1.72-.77v-31.52c0-.57.46-1.03,1.03-1.03Z"/>
  <g class="cls-13">
    <path class="cls-4" d="M59.68,252.02c-10.53-23.7-16.12-36.77-12.13-50.88.97-3.44,3.67-12.96,11.79-16.7.75-.34,4.08-1.81,8.68-1.53,11.19.67,18.05,10.87,19.4,9.7.73-.63-.96-4.16-3.06-6.98-.6-.81-9.83-12.79-22.64-10.81-7.81,1.21-12.57,6.93-14.81,9.7-9.3,11.53-8.27,26.2-7.66,33.45,1.49,17.58,8.79,29.59,20.94,49.02,13.5,21.6,28.4,38.33,29.07,37.84.39-.29-4.14-6.42-11.12-17.76-1.67-2.72-10.5-17.16-18.45-35.05Z"/>
    <path class="cls-4" d="M419.17,213.38c-8.05-5.31-35.31,25.63-65.87,54.89-17.64,16.89-34.82,31.72-47.47,43.98-4.41,4.28-11.75,1.15-11.8-4.99,0-.06,0-.12,0-.18-.03-2.82-.06-6.88-.07-12.42-.03-12.49.02-24.26.07-32.84,4.57,1.82,11.35,1.45,18.42,1.09,3.26-.17,4.22-.44,8.17-.51,8.72-.15,12.09,1.04,12.43.17.64-1.69-11.15-8.31-24.17-12.43-5.66-1.79-10.9-3.38-14.73-3.28.48-45.57.87-84.36-1.72-84.55-2.72-.2-9.28,41.61-13.83,92.77-7.36,82.58.5,94-13.16,110.47-34.03,41.02-133.88,31.7-160.28-7.32-3.71-5.48-12.42-20.23-14.85-19.11-1.15.53.54,4,.36,12.98-.12,6.21-1.02,9.05.29,14.11,0,0,.79,3.07,2.38,5.98,5.55,10.16,17.35,12.81,40.22,18.95,31.14,8.36,27.89,8.44,35.7,9.65,17.04,2.62,30.15,1.86,39.23,1.28,22.23-1.43,35.74-5.97,62.76-15.06,6.8-2.29,18.78-6.55,21.56-15.78.46-1.53.63-3.5.97-7.45.47-5.49.53-10.25.48-13.56-.03-2.03.84-3.94,2.34-5.3,2.2-2,4.62-4.85,7.42-7.95,5.32-5.9,11.62-10.87,16.85-16.85,12.51-14.32,17.3-15.93,43.55-42.75,15.62-15.95,32.49-30.69,47.6-47.13,3.07-3.34,5.31-6.61,9.45-7.66.73-.18,1.8-.37,2.25-1.21,1.17-2.19-2.91-6.9-4.55-7.98Z"/>
  </g>
  <path class="cls-11" d="M468.99,155.91c-20.21-20.21-45.15-28.04-55.69-17.5-8.57,8.57-5,26.64,7.49,43.96.31.43.25,1.02-.14,1.37l-61.16,55.08c-.19.17-.44.27-.69.27h-63.18c-.57,0-1.03-.46-1.03-1.03v-73.55c0-6.96-3.89-13.36-10.11-16.49-19.1-9.62-51.94-22.37-94.06-21.95-40.08.4-71.34,12.55-89.99,21.95-6.21,3.13-10.1,9.53-10.1,16.48h0c0,.84-.96,1.33-1.64.83-10.58-7.86-24.6-12.69-36.66-8.89-18.44,5.8-25.27,29.53-27.06,35.74-15.76,54.72,34.93,124.63,64.94,146.12.27.19.42.5.42.83v22.09c0,4.82,1.77,9.18,4.64,12.34,4.53,5,57.62,29.4,100.04,28.76,39.55-.6,99.57-21.33,99.57-30.96v-24.15c0-.27.11-.54.3-.73,48.17-47.87,96.33-95.73,144.5-143.6.36-.36.94-.39,1.35-.08,17.85,13.55,36.89,17.68,45.76,8.81,10.55-10.55,2.71-35.48-17.5-55.69ZM49.98,228.96c-2.67-8.05-6.02-20.07-1.02-31.91,1.04-2.46,5.42-12.85,14.04-14.55,10.12-1.99,21.72,8.84,23.73,10.71,0,0,.01.01.01.01h0s0,0,0,0c.32,9.68.65,19.37.97,29.05.9,26.82,1.8,53.63,2.7,80.45.03,1.04-1.31,1.48-1.88.62-10.18-15.2-28.74-44.81-38.55-74.37ZM295.61,262.4h35c.95,0,1.39,1.17.69,1.8l-35,31.52c-.66.6-1.72.13-1.72-.77v-31.52c0-.57.46-1.03,1.03-1.03Z"/>
  <g id="bouchon">
    <rect class="cls-12" x="408.19" y="181.11" width="28.65" height="37.12" rx="3.53" ry="3.53" transform="translate(-22.7 341.69) rotate(-42.99)"/>
    <path class="cls-1" d="M415.85,179.94c-1.3.35-1.83,2.19-1.86,2.31-2.04,7.5,19.3,15.39,17.95,23.99-.94,5.93-12,7.79-11.23,12.09.32,1.81,2.59,3.17,4.43,3.4,2.22.28,3.83-.9,14.13-12.26,1.34-1.48,2.02-2.24,2.13-3.06.52-3.84-6.17-5.57-13.2-12.58-7.22-7.2-9.49-14.66-12.33-13.88Z"/>
    <rect class="cls-8" x="408.19" y="181.11" width="28.65" height="37.12" rx="3.53" ry="3.53" transform="translate(-22.7 341.69) rotate(-42.99)"/>
    <ellipse class="cls-12" cx="450.05" cy="174.01" rx="29.48" ry="53.62" transform="translate(8.78 369.2) rotate(-45)"/>
    <path class="cls-2" d="M492.36,197.85c-5.84,7.56-33.48,1.95-50.34-14.93-16.15-16.16-23.24-43.49-14.93-50.34,8.38-6.91,33.11,8.29,46.12,21.56,1.83,1.87,7.51,7.87,12.4,17.21,4.21,8.05,10.98,21.01,6.76,26.49Z"/>
    <path class="cls-9" d="M491.54,198.39c-5.84,7.56-33.48,1.95-50.34-14.93-16.15-16.16-23.24-43.49-14.93-50.34,8.38-6.91,33.11,8.29,46.12,21.56,1.83,1.87,7.51,7.87,12.4,17.21,4.21,8.05,10.98,21.01,6.76,26.49Z"/>
    <g id="Calque_9" data-name="Calque 9">
      <path class="cls-6" d="M433.81,155.12c3.22,0,3.22-5,0-5s-3.22,5,0,5h0Z"/>
      <path class="cls-6" d="M438.23,146.27c3.22,0,3.22-5,0-5s-3.22,5,0,5h0Z"/>
      <path class="cls-6" d="M448.45,145.93c3.22,0,3.22-5,0-5s-3.22,5,0,5h0Z"/>
      <path class="cls-6" d="M456.96,167.71c3.22,0,3.22-5,0-5s-3.22,5,0,5h0Z"/>
      <path class="cls-6" d="M461.04,175.54c3.22,0,3.22-5,0-5s-3.22,5,0,5h0Z"/>
      <path class="cls-6" d="M469.21,177.59c3.22,0,3.22-5,0-5s-3.22,5,0,5h0Z"/>
      <path class="cls-6" d="M470.57,170.1c3.22,0,3.22-5,0-5s-3.22,5,0,5h0Z"/>
      <path class="cls-6" d="M445.38,154.44c3.22,0,3.22-5,0-5s-3.22,5,0,5h0Z"/>
      <path class="cls-6" d="M439.94,163.97c3.22,0,3.22-5,0-5s-3.22,5,0,5h0Z"/>
      <path class="cls-6" d="M458.32,152.73c3.22,0,3.22-5,0-5s-3.22,5,0,5h0Z"/>
      <path class="cls-6" d="M451.17,160.56c3.22,0,3.22-5,0-5s-3.22,5,0,5h0Z"/>
      <path class="cls-6" d="M448.11,170.78c3.22,0,3.22-5,0-5s-3.22,5,0,5h0Z"/>
      <path class="cls-6" d="M452.19,177.24c3.22,0,3.22-5,0-5s-3.22,5,0,5h0Z"/>
      <path class="cls-6" d="M464.11,161.24c3.22,0,3.22-5,0-5s-3.22,5,0,5h0Z"/>
      <path class="cls-6" d="M477.04,175.54c3.22,0,3.22-5,0-5s-3.22,5,0,5h0Z"/>
      <path class="cls-6" d="M481.47,182.35c3.22,0,3.22-5,0-5s-3.22,5,0,5h0Z"/>
      <path class="cls-6" d="M481.47,192.22c3.22,0,3.22-5,0-5s-3.22,5,0,5h0Z"/>
      <path class="cls-6" d="M472.96,190.86c3.22,0,3.22-5,0-5s-3.22,5,0,5h0Z"/>
      <path class="cls-6" d="M462.74,186.1c3.22,0,3.22-5,0-5s-3.22,5,0,5h0Z"/>
      <path class="cls-6" d="M473.64,183.71c3.22,0,3.22-5,0-5s-3.22,5,0,5h0Z"/>
      <path class="cls-6" d="M444.02,178.61c3.22,0,3.22-5,0-5s-3.22,5,0,5h0Z"/>
      <path class="cls-6" d="M435.51,168.39c3.22,0,3.22-5,0-5s-3.22,5,0,5h0Z"/>
      <path class="cls-6" d="M454.57,187.12c3.22,0,3.22-5,0-5s-3.22,5,0,5h0Z"/>
    </g>
  </g>
  <path class="cls-10" d="M294.23,162.32c.26-3.46-1.02-6.81-1.02-6.81-1.72-4.51-5.71-8.62-23.83-15.49-6.73-2.55-15.76-5.62-28.13-8.69-6.11-1.52-12.12-3.01-20.22-4.25-8.78-1.34-18.09-2.09-28.94-2.04,0,0-46.03.2-88.68,20.26-3.98,1.87-10.29,5.28-12.43,11.74,0,0-.99,3-.65,6.3,1.1,10.57,44.05,35.57,102.11,35.23,52.05-.3,100.63-20.88,101.77-36.26Z"/>
  <path class="cls-5" d="M110.74,163.94c-.5-14.52,46.48-32.41,89.41-30.89,37.83,1.34,80.26,18.03,79.61,31.91-.68,14.37-47.49,25.12-83.77,25.02-37.04-.1-84.74-11.57-85.24-26.04Z"/>
  <path class="cls-7" d="M102.79,293.8c-7.62-2.23-7.51-17.71-7.37-56.74.13-34.31.11-38.44,4.6-41.98,13.05-10.31,39.17,2.76,60.77,8.3,49.48,12.7,94.84-11.88,97.02-4.8.38,1.25-.71,3.06-5.11,6.47-26.22,20.31-68.21,18.58-93.96,15.4-28.97-3.58-34.45-8.27-41.36-3.23-19.65,14.33,7.06,68.95-9.19,76.12-.38.17-2.83,1.21-5.4.46Z"/>
  <path class="cls-7" d="M112.19,345.19c5.52-3.88,20.73,13.25,46.15,20.65,25.85,7.53,47.81.79,50.62,7.06,1.09,2.43-1.48,5.1-2.21,5.87-15.69,16.31-88.4-3.21-95.38-26.24-.26-.86-1.69-5.57.81-7.33Z"/>
  <path class="cls-7" d="M54.32,160.53c-11.77,2.9-17.54,13.74-20.43,19.15-3.95,7.42-8.04,20.15-3.57,24.13.41.36,1.09.98,1.95.9,3.53-.33,2.55-11.78,8.01-22.73,1.66-3.33,7.5-15.05,17.11-16.6,9.37-1.51,18.45,7.29,21.45,3.96.03-.03.73-.83.65-1.9-.34-4.49-13.96-9.66-25.16-6.91Z"/>
  <path class="cls-3" d="M403.85,196.36c.09.9.8,1.85,1.7,2.13,1.39.42,2.3-1.03,6.47-4.17,2.77-2.08,3.9-2.6,3.86-3.68-.04-1.04-1.19-2.06-2.33-2.28-1.02-.19-1.76.33-5.36,3.23-3.83,3.09-4.43,3.84-4.34,4.77Z"/>
  <path class="cls-3" d="M414.14,138.65c-2.7.32-4.19,7.97-3.65,14.04.23,2.57.64,7.27,3.05,8.67,1.75,1.02,4.17.06,4.91-1.98.77-2.13-.92-3.63-1.34-8.34-.47-5.33,1.34-7.55-.04-10.21-.63-1.22-1.83-2.32-2.93-2.19Z"/>
  <path class="cls-3" d="M402.22,208.3c1.02.5,1.36,1.57,1.46,1.88,1.77,5.48-11.58,10.18-24.77,23.5-10.04,10.14-14.22,19.45-18.49,18.26-1.44-.4-2.33-1.84-2.65-2.93-1.38-4.75,6.33-9.42,16.91-18.38,16.29-13.8,23.5-24.32,27.53-22.33Z"/>
  <path class="cls-5" d="M126.57,147.89c-2.51,1.61-11.69,7.84-10.98,14.94.49,4.85,5.51,9.23,20.43,14.43,52.78,18.37,93.85-.35,101.53-5.57,1.41-.96,5.01-3.41,5.96-7.57,1.05-4.63-1.74-8.88-2.89-10.64-8.51-12.96-57.07-19.39-59.83-19.74,6.89-.79,16.23-1.35,27.23-.51,17.65,1.35,30.34,5.63,33.02,6.55,3.9,1.35,40.09,13.87,38.89,26.13-.84,8.57-19.49,14.36-32.65,18.03-2.61.73-9.28,2.53-18.15,3.92-10.33,1.62-20.41,2.12-32.72,2.14-6.8.01-12.93-.28-18.73-.83-10.82-1.02-23.98-2.04-39.21-7.15-12.4-4.16-27.53-9.53-27.9-17.99-.34-7.84,12.24-14.31,16-16.13Z"/>
</svg>