<svg width="50" height="57" viewBox="0 0 50 57" fill="none" xmlns="http://www.w3.org/2000/svg">
<path d="M5.17241 0C2.31576 0 0 2.31576 0 5.17241V46.5517C0 49.4083 2.31576 51.7241 5.17241 51.7241H18.5844C16.6446 48.749 15.5172 45.1959 15.5172 41.3793C15.5172 30.9048 24.0083 22.4138 34.4828 22.4138C35.6603 22.4138 36.8128 22.5211 37.931 22.7265V5.17241C37.931 2.31576 35.6152 0 32.7586 0H5.17241ZM12.069 25.8621C12.069 27.7666 10.5251 29.3103 8.62069 29.3103C6.71628 29.3103 5.17241 27.7666 5.17241 25.8621C5.17241 23.9577 6.71628 22.4138 8.62069 22.4138C10.5251 22.4138 12.069 23.9577 12.069 25.8621ZM50 41.3793C50 49.9493 43.0528 56.8966 34.4828 56.8966C25.9128 56.8966 18.9655 49.9493 18.9655 41.3793C18.9655 32.8093 25.9128 25.8621 34.4828 25.8621C43.0528 25.8621 50 32.8093 50 41.3793ZM26.3683 40.1586L26.3597 40.1676C26.1979 40.331 26.0759 40.519 25.9928 40.7193C25.91 40.9197 25.8634 41.139 25.8621 41.369V41.3793V41.3897C25.8634 41.6197 25.91 41.839 25.9928 42.0393C26.0769 42.2428 26.2017 42.4331 26.3669 42.5986L33.2635 49.4952C33.9369 50.1683 35.0286 50.1683 35.7021 49.4952C36.3752 48.8217 36.3752 47.73 35.7021 47.0566L31.7486 43.1035H41.3793C42.3314 43.1035 43.1034 42.3314 43.1034 41.3793C43.1034 40.4272 42.3314 39.6552 41.3793 39.6552H31.7486L35.7021 35.7021C36.3752 35.0286 36.3752 33.9369 35.7021 33.2635C35.0286 32.5903 33.9369 32.5903 33.2635 33.2635L26.3683 40.1586Z" fill="#F7FAF7"/>
</svg>
