<svg width="46" height="49" viewBox="0 0 46 49" fill="none" xmlns="http://www.w3.org/2000/svg">
<path d="M19.373 1.32563C21.468 -0.441875 24.532 -0.441875 26.627 1.32563L43.502 15.562C44.769 16.6308 45.5 18.2039 45.5 19.8614V44.3687C45.5 46.785 43.5412 48.7437 41.125 48.7437H33.625C31.2087 48.7437 29.25 46.785 29.25 44.3687V31.8687C29.25 30.8332 28.4105 29.9937 27.375 29.9937H18.625C17.5895 29.9937 16.75 30.8332 16.75 31.8687V44.3687C16.75 46.785 14.7913 48.7437 12.375 48.7437H4.875C2.45875 48.7437 0.5 46.785 0.5 44.3687V19.8614C0.5 18.2039 1.23103 16.6308 2.4979 15.562L19.373 1.32563Z" fill="#F7FAF7"/>
</svg>
