<svg width="47" height="46" viewBox="0 0 47 46" fill="none" xmlns="http://www.w3.org/2000/svg">
<path d="M25.7102 33.4667L40.0858 16.216C40.5709 15.6296 40.8038 14.8748 40.7336 14.117C40.6633 13.3592 40.2956 12.6601 39.711 12.1728C39.1264 11.6855 38.3726 11.4497 37.6145 11.5171C36.8564 11.5845 36.1559 11.9495 35.6664 12.5323L23.5004 27.1325L11.3344 12.5323C10.8455 11.9473 10.1445 11.5802 9.38524 11.5118C8.62597 11.4433 7.87058 11.679 7.28499 12.1671C6.69939 12.6552 6.3315 13.3558 6.26212 14.115C6.19274 14.8742 6.42754 15.6299 6.91495 16.216L21.2908 33.4667C21.5611 33.7902 21.899 34.0504 22.2808 34.2289C22.6626 34.4075 23.079 34.5 23.5005 34.5C23.922 34.5 24.3383 34.4075 24.7202 34.2289C25.102 34.0504 25.4399 33.7902 25.7102 33.4667Z" fill="#F7FAF7"/>
</svg>
