<svg width="50" height="58" viewBox="0 0 50 58" fill="none" xmlns="http://www.w3.org/2000/svg">
<path d="M8.94516 7.63612C8.9488 3.69433 12.1454 0.5 16.088 0.5H33.9453C37.8878 0.5 41.0843 3.69433 41.0882 7.63612H44.6428C47.6014 7.63612 50 10.0346 50 12.9933V18.367C50 23.7979 45.9532 28.2836 40.7103 28.9729C39.2453 35.6102 33.6775 40.7067 26.8025 41.4667V46.8088H33.9575C37.9021 46.8088 41.1003 50.0067 41.1003 53.9517V55.7374C41.1003 56.7235 40.3007 57.5231 39.3146 57.5231H10.7431C9.75684 57.5231 8.95733 56.7235 8.95733 55.7374V53.9517C8.95733 50.0067 12.1553 46.8088 16.1002 46.8088H23.2309V41.4667C16.3527 40.7063 10.7828 35.6056 9.32087 28.964C4.07711 28.2689 0 23.7849 0 18.3432V12.9933C0 10.0346 2.39847 7.63612 5.35715 7.63612H8.94516ZM41.0882 25.2677C44.1596 24.4752 46.4286 21.6861 46.4286 18.367V12.9933C46.4286 12.0071 45.6293 11.2076 44.6428 11.2076H41.0882V25.2677ZM8.94516 11.2076H5.35715C4.3709 11.2076 3.57143 12.0071 3.57143 12.9933V18.3432C3.57143 21.6624 5.85908 24.4614 8.94516 25.2586V11.2076Z" fill="#F7FAF7"/>
</svg>
