<?xml version="1.0" encoding="UTF-8"?>
<svg id="grenouille1" xmlns="http://www.w3.org/2000/svg" viewBox="0 0 550.83 500">
  <defs>
    <style>
      .cls-1 {
        opacity: .62;
        stroke: #fff;
        stroke-miterlimit: 10;
      }

      .cls-1, .cls-2, .cls-3 {
        fill: #fff;
      }

      .cls-1, .cls-4, .cls-5 {
        stroke-width: 3px;
      }

      .cls-6 {
        opacity: .33;
      }

      .cls-7, .cls-2, .cls-8, .cls-3, .cls-9, .cls-10, .cls-11 {
        stroke-width: 0px;
      }

      .cls-7, .cls-11 {
        fill: #4d8c32;
      }

      .cls-12 {
        stroke: #353535;
        stroke-width: 4px;
      }

      .cls-12, .cls-4 {
        fill: none;
      }

      .cls-12, .cls-4, .cls-5 {
        stroke-linecap: round;
        stroke-linejoin: round;
      }

      .cls-8 {
        fill: #cdda69;
        opacity: .38;
      }

      .cls-3 {
        opacity: .32;
      }

      .cls-9, .cls-5 {
        fill: #5faf31;
      }

      .cls-10 {
        fill: #353535;
      }

      .cls-4, .cls-5 {
        stroke: #559d2b;
      }

      .cls-11 {
        opacity: .21;
      }
    </style>
  </defs>
  <g id="dessin">
    <path id="corps" class="cls-5" d="M134.66,236.23c-1.12,4.53.4,5.72,1.52,15.17,5.3,44.77-22.93,68.03-29.43,101.03-9.01,45.77,21.72,103.03,55.52,111.95,17.43,4.6,22.23-7.2,69.68-7.89,11.65-.17,14.2.5,44.09.81,22.22.23,31.17-.03,43.28,0,68.44.19,71.53,9.42,86.87,2.53,29.91-13.43,46.95-61.3,41.87-97.69-3.95-28.29-20.7-42.65-31.55-98.6-3.2-16.51-1.81-15.6-3.64-20.02-28.19-68.13-265.45-58.82-278.21-7.28Z"/>
    <path class="cls-11" d="M108.57,351.01c-.87-1.23-.07-3.17.2-3.84,2.34-5.75,3.96-11.82,6.88-17.29,5.48-10.29,7.35-16.06,8.19-15.78.44.15.11,1.81-.3,5.36-.04.33-.4,6.93-1.11,20.13-.19,3.47-.67,6.94-.61,10.42.09,4.43.59,7.35-.61,7.89-.41.19-.75-.04-4.65-2.53-4.24-2.71-4.53-2.88-5.26-3.14-1.44-.5-2.21-.47-2.73-1.21Z"/>
    <path class="cls-11" d="M135.12,237.42c-2.24,5.09,5.02,12.28,2.58,28.84-1.14,7.73-3.89,14.13-2.85,14.6,1.64.74,6.6-16.39,18.93-20.37,8.41-2.72,16.76,1.82,19.72,3.34,30.97,15.83,92.63,17.33,103.46,17.6,29.78.73,83.18-7.99,106.19-19.11,2.09-1.01,7.29-3.67,13.35-2.43,15.02,3.09,21.03,27.28,23.36,26.4,1.21-.46-1.27-6.68-2.74-19.73-1.01-8.97-.74-13.86-3.62-21.35,0,0-1.6-4.18-3.54-7.33-8.5-13.83-80.24,12.86-140.29,14.43-67.96,1.77-128.59-28.45-134.55-14.89Z"/>
    <g id="Calque_16" data-name="Calque 16">
      <path class="cls-11" d="M427.24,308.23c-3.27.5.19,15.42-2.63,41.67-.21,1.94-.99,9,1.31,9.91,1.61.64,3.19-2.29,8.19-4.85,5.55-2.84,7.86-1.41,9.56-3.46,2.56-3.07-.31-9.05-5.08-19.67-9.39-20.94-9.93-23.81-11.36-23.59Z"/>
      <path class="cls-7" d="M191.7,323.3c1.27-.04,2.47,6.09,4.85,18.3,3.23,16.58,2.96,26.63,3.84,35.6,1.38,14.06,6.26,32.27,13.96,43.08,22.36,31.41,93.43,35.4,122.05,3.06,14.62-16.52,18.5-42.89,18.72-44.52,1.05-7.62,1.3-17.31,1.82-36.21.47-17.05,0-18.71.1-18.71.76-.03,25.91,94.83-13.05,123.18-13,9.46-32.33,9.7-70.98,10.18-36.65.45-54.98.68-67.37-7.75-40.55-27.62-18.99-126.05-13.96-126.21Z"/>
    </g>
    <path id="corps-2" data-name="corps" class="cls-4" d="M134.66,236.23c-1.12,4.53.4,5.72,1.52,15.17,5.3,44.77-22.93,68.03-29.43,101.03-9.01,45.77,21.72,103.03,55.52,111.95,17.43,4.6,22.23-7.2,69.68-7.89,11.65-.17,14.2.5,44.09.81,22.22.23,31.17-.03,43.28,0,68.44.19,71.53,9.42,86.87,2.53,29.91-13.43,46.95-61.3,41.87-97.69-3.95-28.29-20.7-42.65-31.55-98.6-3.2-16.51-1.81-15.6-3.64-20.02-28.19-68.13-265.45-58.82-278.21-7.28Z"/>
    <path id="patte_g" data-name="patte g" class="cls-5" d="M127.69,365.47c-5.33-4.5-38.04-32.08-67.05-19.72-13.94,5.94-20.36,18.26-21.54,20.63-15.7,31.52,15.18,69,17.9,72.21,3.19,3.77,23.53,27.02,57.65,30.34,11.53,1.12,35.01,3.41,46.12-10.01,17.1-20.67-3.51-68.52-33.07-93.45Z"/>
    <path id="patte_d" data-name="patte d" class="cls-5" d="M415.21,368.31c15.59-13.86,47.1-24.1,63.92-22.65,4.42.38,20.23,1.8,29.53,12.54,16.48,19.04,2.92,56.29-12.14,76.86-3.85,5.27-22.72,31.04-56.23,34.79-7.56.85-33.9,3.79-47.73-12.14-19.6-22.55-1.33-68.08,22.65-89.4Z"/>
    <path id="ventre" class="cls-8" d="M277.84,288.26c52.85.39,93.06,44.47,88.78,89.13-3.75,39.12-41.16,73.9-87.84,74.64-50.24.79-91.94-38.15-91.59-82.49.35-43.52,41.14-81.64,90.64-81.27Z"/>
    <path class="cls-11" d="M399.23,457.71c5.88,1.97,17.18-17.08,18.2-18.81,16.49-27.82,3.83-47.3,19.42-64.32,10.42-11.38,25.46-12.91,29.73-13.35,2.98-.3,26.15-2.39,35.8,10.32,13.22,17.39-5.72,54.82-30.34,72.21-10.51,7.42-32.29,19.04-43.08,10.92-14.23-10.71,2.32-46.91-4.45-49.55-6.97-2.72-35.81,31.22-25.28,52.59,2.87,5.82,7.67,8.95,10.45,10.49,21.36,11.84,47.47-.98,54.48-4.42,24.65-12.1,36.36-33.13,40.55-41.94,4.19-8.82,20.89-43.97,3.95-63.64-14.41-16.73-43.67-11.26-58.45-8.5-4.35.81-13.58,3.66-22.89,10.17-38.44,26.89-38.18,94.45-28.08,97.84Z"/>
    <path id="patte_d-2" data-name="patte d" class="cls-4" d="M415.21,368.31c15.59-13.86,47.1-24.1,63.92-22.65,4.42.38,20.23,1.8,29.53,12.54,16.48,19.04,2.92,56.29-12.14,76.86-3.85,5.27-22.72,31.04-56.23,34.79-7.56.85-33.9,3.79-47.73-12.14-19.6-22.55-1.33-68.08,22.65-89.4Z"/>
    <path class="cls-11" d="M80.66,346.87c-.93,2.2,28.56,9.84,35.19,33.17,2.38,8.36-.92,9.1.3,21.09,2.86,27.99,22.34,39.23,16.44,51.56-2.39,4.99-7.53,7.07-10.37,8.21-12.62,5.04-25.9-2.77-33.83-7.43-6.12-3.6-27.01-17.05-35.04-44.3-2.96-10.04-7.29-23.11-.61-35.19,5.66-10.25,15.88-14.06,17.29-14.56,19.51-6.94,38.7,8.59,40.35,5.87,1.61-2.66-13.57-22.48-34.59-22.67-18-.16-33.55,14.15-38.96,29.25-1.41,3.94-3.02,10.46-1.71,20.85,3.01,23.9,20.01,56.8,53.57,69.4,20.72,7.78,59.36,12.19,75.09-10.47,16.1-23.21-3.56-59.45-20.02-77.06-25.43-27.2-62.1-30.08-63.11-27.71Z"/>
    <path id="patte_g-2" data-name="patte g" class="cls-4" d="M127.69,365.47c-5.33-4.5-38.04-32.08-67.05-19.72-13.94,5.94-20.36,18.26-21.54,20.63-15.7,31.52,15.18,69,17.9,72.21,3.19,3.77,23.53,27.02,57.65,30.34,11.53,1.12,35.01,3.41,46.12-10.01,17.1-20.67-3.51-68.52-33.07-93.45Z"/>
    <path id="patte_av_g" data-name="patte av g" class="cls-5" d="M126.98,303.94c-4.36,29.09-4.22,53.49-3.07,71.11,2.75,42.25,12.01,56.95,15.01,61.11.78,1.09,11.23,15.47,11.23,15.47h0s-2.9,3.23-9.71,10.01c-7.23,7.19-7.75,15.65-7.41,20.05.13,1.68,1.61,2.91,3.28,2.71,4.88-.58,14.7-2.06,18.7-4.86,6.91-4.84,11.7-8.66,11.7-8.66,0,0,3.02,5.87,9.24,11.99,1.42,1.4,6.3,3.61,9.39,4.92,1.69.72,3.62.62,5.22-.28,1.91-1.07,4.4-2.62,5.71-4.03,7.67-8.27,10.32-16.99,10.32-16.99,0,0,6.44,2.38,17.9,6.07,3.85,1.24,9.71,1.64,13.52,1.77,1.88.06,3.24-1.78,2.62-3.56-1.54-4.41-4.59-11.79-8.86-16.11-7.72-7.8-13.43-8.27-19.28-12.67-10.75-8.08-12.58-22.36-14.4-39.21-2.96-27.44-5.03-53.93-6.37-79.49"/>
    <path id="patte_av_d" data-name="patte av d" class="cls-5" d="M426.66,302.11c.29,16.89-1.26,53.67-4.38,88.85-2.06,23.3-4.39,34.93-12.74,45.21-3.25,4-6.71,9.12-8.27,11.46-.5.76-.44,1.74.14,2.44,4.31,5.24,9.41,12.82,12.98,22.8,1.27,3.55,2.18,6.92,2.82,10.03.29,1.38-.89,2.61-2.28,2.43-2.67-.34-5.61-.91-8.73-1.84-8.75-2.61-15.32-6.97-19.73-10.62-1.11-.92-2.79-.44-3.25.93-.99,3.01-2.87,7-6.46,10.6-2.08,2.09-4.22,3.52-6.01,4.5-.44.24-.94.3-1.43.18-2.74-.64-7.32-2.14-11.67-5.9-5.2-4.48-7.47-9.91-8.47-13.38-.37-1.29-1.84-1.89-3-1.2-5.07,3.02-14.7,7.49-26.76,6.39-4.57-.42-8.48-1.54-11.59-2.77-1.13-.45-1.61-1.79-1.03-2.86,1.26-2.32,3.09-5.25,5.64-8.33,9.96-11.98,19.53-12.26,28.26-21.89,3.82-4.21,5.87-9.77,9.97-20.89,3.37-9.14,8.16-22.38,10.15-40.39,2.43-22.02-.48-40.79-3.78-53.97"/>
    <path id="tete" class="cls-5" d="M428.41,140.33c-22.67-27.66-74.82-77.83-154.32-77.03-96.33.96-150.77,75.92-156.25,83.74h0c-8.31,10.64-12.91,22.29-12.91,34.52,0,49.96,76.61,90.47,171.12,90.47s171.12-40.5,171.12-90.47c0-14.85-6.77-28.86-18.76-41.22Z"/>
    <path class="cls-11" d="M197.37,83.11c.02.09.82.33,2.43.81,3.8,1.14,7.52,1.3,7.52,1.3,0,0,33.9-15.3,67.63-15.2,32.89.1,65.65,14.85,65.65,14.85,0,0,2.97.34,4.24.26,1.78-.12,6.88-.46,7.07-1.33.65-3.05-35.48-20.83-76.64-20.92-41.43-.08-78.42,17.79-77.87,20.23Z"/>
    <path id="tete-2" data-name="tete" class="cls-4" d="M428.41,140.33c-22.67-27.66-74.82-77.83-154.32-77.03-96.33.96-150.77,75.92-156.25,83.74h0c-8.31,10.64-12.91,22.29-12.91,34.52,0,49.96,76.61,90.47,171.12,90.47s171.12-40.5,171.12-90.47c0-14.85-6.77-28.86-18.76-41.22Z"/>
    <path id="yeux" class="cls-5" d="M431.99,144.6c.95-6.31,5.26-38.99-14.26-64.41-4.67-6.09-16.42-21.37-35.5-22.36-17.64-.91-29.85,11-32.46,13.68-17.31,17.79-14.88,43.2-14.56,46.05"/>
    <path class="cls-11" d="M424.11,144.5c-2.18-9.98.68-14.63.79-23.68.25-21-14.66-36.17-15.5-37-3.48-3.39-12.98-12.66-27.76-13.35-13.57-.64-23.36,6.34-25.79,8.19-18.22,13.85-18.14,39.24-20.63,38.81-1.97-.34-3.45-16.53,3.54-32.03,2.32-5.14,7.87-16.97,21.44-23.87,4.23-2.15,15.03-6.77,27.91-4.05,15.84,3.34,24.59,15.53,29.63,22.57,10.23,14.27,17.44,35.99,15.32,49.84-.29,1.93-1.4,7.83.76,14.71,1.57,5,4.12,8.16,5.16,9.56,7.73,10.45,11.3,31.31,5.01,47.94-.61,1.62-1.32,3.25-2.19,4.93,0,0-4.41,8.65-12.68,16-32.7,29.09-80.45,41.36-80.45,41.36-16.98,4.36-43.05,9.13-75.64,7.47,10.9-.61,100.42-6.39,139.56-46.71,9.03-9.3,26.2-26.28,23.66-47.94-1.08-9.25-5.16-16.99-5.16-16.99,0,0,0,0,0,0-2.35-3.4-5.44-8.74-6.98-15.78Z"/>
    <path id="yeux-2" data-name="yeux" class="cls-5" d="M214.15,122.33c.41-4.31,2.03-25.41-10.92-43.87-2.32-3.3-14.71-20.97-34.59-21.24-23.06-.32-36.89,23.04-39.74,27.85-14.67,24.76-8.96,52.29-7.89,57.1"/>
    <path id="oeil_g" data-name="oeil g" class="cls-10" d="M162.27,89.38c-18.72,1.07-30.74,21.93-29.73,39.44.87,15.17,11.74,32.15,27.61,33.98,18.67,2.15,36.49-17.59,36.1-37.62-.35-18.04-15.49-36.86-33.98-35.8Z"/>
    <path id="oeil_d" data-name="oeil d" class="cls-10" d="M386.18,89.08c-18.45-.64-32.45,17.23-33.37,34.28-.99,18.32,12.99,38.09,31.86,38.23,18.67.14,32.74-19.02,32.46-37.01-.25-16.62-12.77-34.86-30.95-35.5Z"/>
    <path id="bouche" class="cls-12" d="M127.59,193.95c1.32.53,11.43,4.42,21.04-1.21,5.73-3.36,8.35-8.4,9.3-10.52"/>
    <path id="bouche-2" data-name="bouche" class="cls-12" d="M393.77,181.01c2.03,2.27,6.93,7.13,14.97,9.71,8.02,2.57,14.83,1.47,17.8.81"/>
    <path id="bouche-3" data-name="bouche" class="cls-12" d="M148.62,192.74c12.98,7.92,31.5,17.7,55.02,25.49,14.41,4.77,39.1,12.73,72.41,13.15,9.18.12,42.31-.05,82.12-14.77,21.77-8.05,38.74-17.94,50.57-25.89"/>
    <path id="nez" class="cls-10" d="M287.3,162.8c3.78,1.45,7.23,3.59,10.01,6.52,1.4,1.53-.25,4.01-2.18,3.35-3.8-1.36-7.16-3.65-10.01-6.52-.78-.83-.73-2.14.1-2.91.58-.54,1.38-.68,2.08-.44h0Z"/>
    <path id="nez-2" data-name="nez" class="cls-10" d="M264.89,166.15c-2.86,2.87-6.21,5.16-10.01,6.52-1.09.34-2.26-.27-2.6-1.36-1.15-2.83,8.08-7.77,10.43-8.51,2.01-.71,3.63,1.83,2.18,3.35h0Z"/>
    <ellipse id="ref_rond" data-name="ref rond" class="cls-1" cx="402.56" cy="125.33" rx="6.37" ry="9.71"/>
    <ellipse id="ref_rond-2" data-name="ref rond" class="cls-1" cx="147.22" cy="125.33" rx="6.37" ry="9.71"/>
    <g id="reflet2" class="cls-6">
      <path class="cls-2" d="M144.93,149.77c10.08,9.38,24.58,8.91,35.5,1.21-9.75,9.53-26.83,9.98-35.5-1.21h0Z"/>
    </g>
    <g id="reflet1" class="cls-6">
      <path class="cls-2" d="M402.69,149.77c-8.67,11.2-25.75,10.74-35.5,1.21,10.92,7.69,25.42,8.17,35.5-1.21h0Z"/>
    </g>
    <path class="cls-9" d="M285.35,288.61c.98,1.95-.05,4.51-1.19,5.95-2.61,3.29-7.37,2.67-8.31,2.55-4.69-.61-9.6-4.33-9.09-7.04.59-3.13,8.17-3.8,9.09-3.88,2.26-.2,7.92-.69,9.49,2.43Z"/>
    <path class="cls-9" d="M297.08,301.96c-.36,3.07-4.8,4.87-8.09,4.85-3.31-.02-7.67-1.81-8.09-4.85-.3-2.2,1.58-4.02,2.02-4.45,2.75-2.66,7.5-2.88,10.72-.81.46.29,3.76,2.48,3.44,5.26Z"/>
    <path class="cls-9" d="M273.22,301.56c.15-2.88-5.19-6.51-9.91-5.66-3.06.55-6.68,3.12-6.47,6.07.2,2.79,3.7,4.34,4.08,4.5,3.24,1.38,6.35-.06,7.65-.66,1.38-.64,4.54-2.1,4.65-4.25Z"/>
    <path class="cls-9" d="M275.04,304.79c1.74-.26,3.79.9,4.05,2.43.31,1.85-2.09,3.72-4.25,3.84-.11,0-2.33.1-3.03-1.21-.84-1.58.8-4.7,3.24-5.06Z"/>
    <path class="cls-3" d="M64.58,353.64c-.81,1.23-.25,3.32.91,4.55,1.58,1.68,3.86,1.32,4.55,1.21,1.49-.23,3.82-1.19,3.94-2.73.09-1.11-1.02-2.02-1.52-2.43-2.32-1.9-6.62-2.55-7.89-.61Z"/>
    <path class="cls-3" d="M57.3,380.34c-2.71,1.33-2.95,5.06-3.03,6.37-.31,4.8,2.41,11.1,6.67,11.53,1.69.17,3.48-.6,4.55-1.82,2.17-2.49.95-6.35-.61-11.23-.98-3.08-1.8-3.96-2.64-4.5-1.4-.89-3.38-1.12-4.94-.36Z"/>
    <path class="cls-3" d="M146.19,308.13c-1.43-.33-4.36,7-5.76,11.53-1.25,4.03-5.7,18.34.91,26.09.52.61,2.15,2.52,3.34,2.12,1.91-.64,1.18-6.74.91-13.05-.73-16.94,2.21-26.32.61-26.7Z"/>
    <path class="cls-3" d="M158.33,280.22c-1.89.81-1.71,4.62-1.21,6.67.14.58.93,3.82,2.43,3.94,1.88.16,5.18-4.53,3.64-7.89-.88-1.91-3.33-3.38-4.85-2.73Z"/>
    <path class="cls-3" d="M381.33,288.71c-.59,1.26.29,2.84,1.21,3.64,1.34,1.17,3.77,1.57,4.85.3,1.09-1.27.44-3.81-1.21-4.85-1.62-1.03-4.15-.6-4.85.91Z"/>
    <path class="cls-3" d="M398.01,304.49c-2.05.02-3.34-2.86-2.73-3.94.75-1.32,4.91-.99,5.46.61.4,1.15-.96,3.32-2.73,3.34Z"/>
    <path class="cls-3" d="M398.62,317.54c1.6-.81,3.79-.46,5.16.61,1.29,1.01,1.77,2.58,1.52,11.53-.25,8.89-.8,10.47-2.12,11.23-1.39.8-3.31.51-4.55-.3-1.31-.85-2.15-2.48-2.43-8.19-.38-8-.64-13.31,2.43-14.87Z"/>
    <path class="cls-3" d="M487.21,378.22c1.26-.56,3.77-1.2,5.16,0,2.4,2.08-.03,8.4-2.12,11.83-.72,1.18-4.38,7.2-7.89,6.37-1.57-.37-2.65-2.01-3.03-3.34-.3-1.06-.27-2.29,2.73-7.89,3.09-5.76,4.16-6.54,5.16-6.98Z"/>
    <path class="cls-3" d="M179.77,107.79c-1.23.78-1.21,2.81-.81,4.05.73,2.22,3.37,3.98,4.85,3.24,1.44-.72,1.74-3.79.4-5.66-.98-1.37-3.1-2.47-4.45-1.62Z"/>
    <path class="cls-3" d="M364.8,107.79c1.23.78,1.21,2.81.81,4.05-.73,2.22-3.37,3.98-4.85,3.24-1.44-.72-1.74-3.79-.4-5.66.98-1.37,3.1-2.47,4.45-1.62Z"/>
    <path id="yeux-3" data-name="yeux" class="cls-4" d="M431.99,144.6c.95-6.31,5.26-38.99-14.26-64.41-4.67-6.09-16.42-21.37-35.5-22.36-17.64-.91-29.85,11-32.46,13.68-17.31,17.79-14.88,43.2-14.56,46.05"/>
  </g>
  <path class="cls-3" d="M157.59,72.21c-1.32-2.27-15.27-.13-19.44,9.23-.84,1.88-2.26,6.25-.72,7.35,3.59,2.56,21.95-13.51,20.16-16.58Z"/>
  <path class="cls-3" d="M117.66,168.74c-1.56,1.92-1.95,5.06-.61,7.28,2.12,3.5,8.04,3.84,11.53,1.21,2.18-1.64,3.99-4.88,3.03-7.28-1.58-3.97-10.58-5.37-13.96-1.21Z"/>
  <path class="cls-3" d="M432.93,168.74c1.56,1.92,1.95,5.06.61,7.28-2.12,3.5-8.04,3.84-11.53,1.21-2.18-1.64-3.99-4.88-3.03-7.28,1.58-3.97,10.58-5.37,13.96-1.21Z"/>
</svg>