<?xml version="1.0" encoding="UTF-8"?>
<svg id="gren_doigt_lunettes" data-name="gren doigt lunettes" xmlns="http://www.w3.org/2000/svg" viewBox="0 0 550.83 500">
  <defs>
    <style>
      .cls-1 {
        opacity: .62;
        stroke: #fff;
      }

      .cls-1, .cls-2, .cls-3, .cls-4, .cls-5 {
        fill: #fff;
      }

      .cls-1, .cls-3, .cls-6 {
        stroke-miterlimit: 10;
      }

      .cls-1, .cls-7, .cls-8 {
        stroke-width: 3px;
      }

      .cls-9 {
        opacity: .33;
      }

      .cls-10, .cls-2, .cls-11, .cls-4, .cls-12, .cls-13, .cls-14, .cls-5 {
        stroke-width: 0px;
      }

      .cls-10, .cls-14 {
        fill: #4d8c32;
      }

      .cls-15 {
        stroke-width: 4px;
      }

      .cls-15, .cls-6 {
        stroke: #353535;
      }

      .cls-15, .cls-6, .cls-7 {
        fill: none;
      }

      .cls-15, .cls-7, .cls-8 {
        stroke-linecap: round;
        stroke-linejoin: round;
      }

      .cls-11 {
        fill: #cdda69;
        opacity: .38;
      }

      .cls-3 {
        stroke: #1d1d1b;
      }

      .cls-3, .cls-5 {
        opacity: .56;
      }

      .cls-6 {
        stroke-width: 10px;
      }

      .cls-4 {
        opacity: .32;
      }

      .cls-12, .cls-8 {
        fill: #5faf31;
      }

      .cls-13 {
        fill: #353535;
      }

      .cls-7, .cls-8 {
        stroke: #559d2b;
      }

      .cls-14 {
        opacity: .21;
      }
    </style>
  </defs>
  <path id="corps" class="cls-8" d="M110.21,236.23c-1.12,4.53.4,5.72,1.52,15.17,5.3,44.77-22.93,68.03-29.43,101.03-9.01,45.77,21.72,103.03,55.52,111.95,17.43,4.6,22.23-7.2,69.68-7.89,11.65-.17,14.2.5,44.09.81,22.22.23,31.17-.03,43.28,0,68.44.19,71.53,9.42,86.87,2.53,29.91-13.43,46.95-61.3,41.87-97.69-3.95-28.29-20.7-42.65-31.55-98.6-3.2-16.51-1.81-15.6-3.64-20.02-28.19-68.13-265.45-58.82-278.21-7.28Z"/>
  <path class="cls-14" d="M84.11,351.01c-.87-1.23-.07-3.17.2-3.84,2.34-5.75,3.96-11.82,6.88-17.29,5.48-10.29,7.35-16.06,8.19-15.78.44.15.11,1.81-.3,5.36-.04.33-.4,6.93-1.11,20.13-.19,3.47-.67,6.94-.61,10.42.09,4.43.59,7.35-.61,7.89-.41.19-.75-.04-4.65-2.53-4.24-2.71-4.53-2.88-5.26-3.14-1.44-.5-2.21-.47-2.73-1.21Z"/>
  <path class="cls-14" d="M110.66,237.42c-2.24,5.09,5.02,12.28,2.58,28.84-1.14,7.73-3.89,14.13-2.85,14.6,1.64.74,6.6-16.39,18.93-20.37,8.41-2.72,16.76,1.82,19.72,3.34,30.97,15.83,92.63,17.33,103.46,17.6,29.78.73,83.18-7.99,106.19-19.11,2.09-1.01,7.29-3.67,13.35-2.43,15.02,3.09,21.03,27.28,23.36,26.4,1.21-.46-1.27-6.68-2.74-19.73-1.01-8.97-.74-13.86-3.62-21.35,0,0-1.6-4.18-3.54-7.33-8.5-13.83-80.24,12.86-140.29,14.43-67.96,1.77-128.59-28.45-134.55-14.89Z"/>
  <path class="cls-14" d="M400.1,306.83c-3.74,1.05,8.79,30.14-5.1,48.68-2.7,3.61-6.04,6.33-10.89,13.96-4.8,7.55-10.08,18.32-8.17,19.74,2.58,1.93,12.43-17.59,33.47-22.7,6.47-1.57,10.63-.96,12.94-4.42,2.93-4.39-.19-10.73-6.87-25.12-11.49-24.73-13.71-30.6-15.38-30.14Z"/>
  <path class="cls-10" d="M167.24,323.3c1.27-.04,2.47,6.09,4.85,18.3.98,5.01,1.69,9.63,2.2,13.79,1.36,10.88,1.5,18.67,1.64,21.81.19,4.13,1.57,34.44,21.95,53.88,6.79,6.47,13.46,9.62,17.7,11.57,17.19,7.93,30.99,6.23,55.49,5.11,54.5-2.49,64.95,2.4,73.79-7.91,6.69-7.81,2.49-12.69,11.32-30.89.96-1.98,16.1-32.87,25.53-30.64,13.49,3.2,20.4,66.95-3.4,82.04-8.54,5.42-14.56-.58-46.3-2.38-12.37-.7-29.69-.66-64.34-.58-26.92.06-44.23.41-68.77-3.84-10.08-1.75-15.12-2.62-17.71-4.04-37.61-20.58-19.6-126.03-13.96-126.21Z"/>
  <path id="corps-2" data-name="corps" class="cls-7" d="M110.21,236.23c-1.12,4.53.4,5.72,1.52,15.17,5.3,44.77-22.93,68.03-29.43,101.03-9.01,45.77,21.72,103.03,55.52,111.95,17.43,4.6,22.23-7.2,69.68-7.89,11.65-.17,14.2.5,44.09.81,22.22.23,31.17-.03,43.28,0,68.44.19,71.53,9.42,86.87,2.53,29.91-13.43,46.95-61.3,41.87-97.69-3.95-28.29-20.7-42.65-31.55-98.6-3.2-16.51-1.81-15.6-3.64-20.02-28.19-68.13-265.45-58.82-278.21-7.28Z"/>
  <path id="patte_g" data-name="patte g" class="cls-8" d="M103.23,365.47c-5.33-4.5-38.04-32.08-67.05-19.72-13.94,5.94-20.36,18.26-21.54,20.63-15.7,31.52,15.18,69,17.9,72.21,3.19,3.77,23.53,27.02,57.65,30.34,11.53,1.12,35.01,3.41,46.12-10.01,17.1-20.67-3.51-68.52-33.07-93.45Z"/>
  <path id="patte_d" data-name="patte d" class="cls-8" d="M390.75,368.31c15.59-13.86,47.1-24.1,63.92-22.65,4.42.38,20.23,1.8,29.53,12.54,16.48,19.04,2.92,56.29-12.14,76.86-3.85,5.27-22.72,31.04-56.23,34.79-7.56.85-33.9,3.79-47.73-12.14-19.6-22.55-1.33-68.08,22.65-89.4Z"/>
  <path id="ventre" class="cls-11" d="M253.38,288.26c52.85.39,93.06,44.47,88.78,89.13-3.75,39.12-41.16,73.9-87.84,74.64-50.24.79-91.94-38.15-91.59-82.49.35-43.52,41.14-81.64,90.64-81.27Z"/>
  <path class="cls-14" d="M368.09,457.71c3.96,1.03,10.36-4.51,11.25-10.28.68-4.42-2.08-7.65-3.4-10.21-7.63-14.79,12.78-45.58,36.45-62.64,8.23-5.93,16.81-12.03,29.73-13.35,2.98-.3,26.15-2.39,35.8,10.32,13.22,17.39-5.72,54.82-30.34,72.21-.25.18-.68.48-1.26.88-5.13,3.53-21.74,13.57-41.83,10.04-4.25-.75-12.93-2.27-21.08-8.61-6.05-4.7-7.96-9.07-11.23-8.51-4.52.77-8.46,10.36-6.1,17.58,2.63,8.04,12.5,10.73,19.13,13.07,25.21,8.9,49.04-1.75,54.48-4.42,24.65-12.1,36.36-33.13,40.55-41.94,4.19-8.82,20.89-43.97,3.95-63.64-14.41-16.73-43.67-11.26-58.45-8.5-2.99.56-12.16,3.38-22.89,10.17-3.2,2.03-36.06,23.53-41.21,62.71-1.86,14.12.05,33.47,6.46,35.13Z"/>
  <path id="patte_d-2" data-name="patte d" class="cls-7" d="M390.75,368.31c15.59-13.86,47.1-24.1,63.92-22.65,4.42.38,20.23,1.8,29.53,12.54,16.48,19.04,2.92,56.29-12.14,76.86-3.85,5.27-22.72,31.04-56.23,34.79-7.56.85-33.9,3.79-47.73-12.14-19.6-22.55-1.33-68.08,22.65-89.4Z"/>
  <path class="cls-14" d="M56.2,346.87c-.93,2.2,28.56,9.84,35.19,33.17,2.38,8.36-.92,9.1.3,21.09,2.86,27.99,22.34,39.23,16.44,51.56-2.39,4.99-7.53,7.07-10.37,8.21-12.62,5.04-25.9-2.77-33.83-7.43-6.12-3.6-27.01-17.05-35.04-44.3-2.96-10.04-7.29-23.11-.61-35.19,5.66-10.25,15.88-14.06,17.29-14.56,19.51-6.94,38.7,8.59,40.35,5.87,1.61-2.66-13.57-22.48-34.59-22.67-18-.16-33.55,14.15-38.96,29.25-1.41,3.94-3.02,10.46-1.71,20.85,3.01,23.9,20.01,56.8,53.57,69.4,20.72,7.78,59.36,12.19,75.09-10.47,16.1-23.21-3.56-59.45-20.02-77.06-25.43-27.2-62.1-30.08-63.11-27.71Z"/>
  <path id="patte_g-2" data-name="patte g" class="cls-7" d="M103.23,365.47c-5.33-4.5-38.04-32.08-67.05-19.72-13.94,5.94-20.36,18.26-21.54,20.63-15.7,31.52,15.18,69,17.9,72.21,3.19,3.77,23.53,27.02,57.65,30.34,11.53,1.12,35.01,3.41,46.12-10.01,17.1-20.67-3.51-68.52-33.07-93.45Z"/>
  <path id="patte_av_g" data-name="patte av g" class="cls-8" d="M102.52,303.94c-4.36,29.09-4.22,53.49-3.07,71.11,2.75,42.25,12.01,56.95,15.01,61.11.78,1.09,11.23,15.47,11.23,15.47h0s-2.9,3.23-9.71,10.01c-7.23,7.19-7.75,15.65-7.41,20.05.13,1.68,1.61,2.91,3.28,2.71,4.88-.58,14.7-2.06,18.7-4.86,6.91-4.84,11.7-8.66,11.7-8.66,0,0,3.02,5.87,9.24,11.99,1.42,1.4,6.3,3.61,9.39,4.92,1.69.72,3.62.62,5.22-.28,1.91-1.07,4.4-2.62,5.71-4.03,7.67-8.27,10.32-16.99,10.32-16.99,0,0,6.44,2.38,17.9,6.07,3.85,1.24,9.71,1.64,13.52,1.77,1.88.06,3.24-1.78,2.62-3.56-1.54-4.41-4.59-11.79-8.86-16.11-7.72-7.8-13.43-8.27-19.28-12.67-10.75-8.08-12.58-22.36-14.4-39.21-2.96-27.44-5.03-53.93-6.37-79.49"/>
  <path id="tete" class="cls-8" d="M403.95,140.33c-22.67-27.66-74.82-77.83-154.32-77.03-96.33.96-150.77,75.92-156.25,83.74h0c-8.31,10.64-12.91,22.29-12.91,34.52,0,49.96,76.61,90.47,171.12,90.47s171.12-40.5,171.12-90.47c0-14.85-6.77-28.86-18.76-41.22Z"/>
  <path class="cls-14" d="M172.91,83.11c.02.09.82.33,2.43.81,3.8,1.14,7.52,1.3,7.52,1.3,0,0,33.9-15.3,67.63-15.2,32.89.1,65.65,14.85,65.65,14.85,0,0,2.97.34,4.24.26,1.78-.12,6.88-.46,7.07-1.33.65-3.05-35.48-20.83-76.64-20.92-41.43-.08-78.42,17.79-77.87,20.23Z"/>
  <path id="tete-2" data-name="tete" class="cls-7" d="M403.95,140.33c-22.67-27.66-74.82-77.83-154.32-77.03-96.33.96-150.77,75.92-156.25,83.74h0c-8.31,10.64-12.91,22.29-12.91,34.52,0,49.96,76.61,90.47,171.12,90.47s171.12-40.5,171.12-90.47c0-14.85-6.77-28.86-18.76-41.22Z"/>
  <path id="yeux" class="cls-8" d="M407.54,144.6c.95-6.31,5.26-38.99-14.26-64.41-4.67-6.09-16.42-21.37-35.5-22.36-17.64-.91-29.85,11-32.46,13.68-17.31,17.79-14.88,43.2-14.56,46.05"/>
  <path class="cls-14" d="M399.65,144.5c-2.18-9.98.68-14.63.79-23.68.25-21-14.66-36.17-15.5-37-3.48-3.39-12.98-12.66-27.76-13.35-13.57-.64-23.36,6.34-25.79,8.19-18.22,13.85-18.14,39.24-20.63,38.81-1.97-.34-3.45-16.53,3.54-32.03,2.32-5.14,7.87-16.97,21.44-23.87,4.23-2.15,15.03-6.77,27.91-4.05,15.84,3.34,24.59,15.53,29.63,22.57,10.23,14.27,17.44,35.99,15.32,49.84-.29,1.93-1.4,7.83.76,14.71,1.57,5,4.12,8.16,5.16,9.56,7.73,10.45,11.3,31.31,5.01,47.94-.61,1.62-1.32,3.25-2.19,4.93,0,0-4.41,8.65-12.68,16-32.7,29.09-80.45,41.36-80.45,41.36-16.98,4.36-43.05,9.13-75.64,7.47,10.9-.61,100.42-6.39,139.56-46.71,9.03-9.3,26.2-26.28,23.66-47.94-1.08-9.25-5.16-16.99-5.16-16.99,0,0,0,0,0,0-2.35-3.4-5.44-8.74-6.98-15.78Z"/>
  <path id="yeux-2" data-name="yeux" class="cls-8" d="M189.7,122.33c.41-4.31,2.03-25.41-10.92-43.87-2.32-3.3-14.71-20.97-34.59-21.24-23.06-.32-36.89,23.04-39.74,27.85-14.67,24.76-8.96,52.29-7.89,57.1"/>
  <path id="oeil_g" data-name="oeil g" class="cls-13" d="M137.82,89.38c-18.72,1.07-30.74,21.93-29.73,39.44.87,15.17,11.74,32.15,27.61,33.98,18.67,2.15,36.49-17.59,36.1-37.62-.35-18.04-15.49-36.86-33.98-35.8Z"/>
  <path id="oeil_d" data-name="oeil d" class="cls-13" d="M361.72,89.08c-18.45-.64-32.45,17.23-33.37,34.28-.99,18.32,12.99,38.09,31.86,38.23,18.67.14,32.74-19.02,32.46-37.01-.25-16.62-12.77-34.86-30.95-35.5Z"/>
  <path id="bouche" class="cls-15" d="M103.13,193.95c1.32.53,11.43,4.42,21.04-1.21,5.73-3.36,8.35-8.4,9.3-10.52"/>
  <path id="bouche-2" data-name="bouche" class="cls-15" d="M369.31,181.01c2.03,2.27,6.93,7.13,14.97,9.71,8.02,2.57,14.83,1.47,17.8.81"/>
  <path id="bouche-3" data-name="bouche" class="cls-15" d="M124.16,192.74c12.98,7.92,31.5,17.7,55.02,25.49,14.41,4.77,39.1,12.73,72.41,13.15,9.18.12,42.31-.05,82.12-14.77,21.77-8.05,38.74-17.94,50.57-25.89"/>
  <path id="nez" class="cls-13" d="M262.84,162.8c3.78,1.45,7.23,3.59,10.01,6.52,1.4,1.53-.25,4.01-2.18,3.35-3.8-1.36-7.16-3.65-10.01-6.52-.78-.83-.73-2.14.1-2.91.58-.54,1.38-.68,2.08-.44h0Z"/>
  <path id="nez-2" data-name="nez" class="cls-13" d="M240.43,166.15c-2.86,2.87-6.21,5.16-10.01,6.52-1.09.34-2.26-.27-2.6-1.36-1.15-2.83,8.08-7.77,10.43-8.51,2.01-.71,3.63,1.83,2.18,3.35h0Z"/>
  <ellipse id="ref_rond" data-name="ref rond" class="cls-1" cx="378.11" cy="125.33" rx="6.37" ry="9.71"/>
  <ellipse id="ref_rond-2" data-name="ref rond" class="cls-1" cx="122.76" cy="125.33" rx="6.37" ry="9.71"/>
  <g id="reflet2" class="cls-9">
    <path class="cls-2" d="M120.47,149.77c10.08,9.38,24.58,8.91,35.5,1.21-9.75,9.53-26.83,9.98-35.5-1.21h0Z"/>
  </g>
  <g id="reflet1" class="cls-9">
    <path class="cls-2" d="M378.23,149.77c-8.67,11.2-25.75,10.74-35.5,1.21,10.92,7.69,25.42,8.17,35.5-1.21h0Z"/>
  </g>
  <path class="cls-12" d="M260.89,288.61c.98,1.95-.05,4.51-1.19,5.95-2.61,3.29-7.37,2.67-8.31,2.55-4.69-.61-9.6-4.33-9.09-7.04.59-3.13,8.17-3.8,9.09-3.88,2.26-.2,7.92-.69,9.49,2.43Z"/>
  <path class="cls-12" d="M272.62,301.96c-.36,3.07-4.8,4.87-8.09,4.85-3.31-.02-7.67-1.81-8.09-4.85-.3-2.2,1.58-4.02,2.02-4.45,2.75-2.66,7.5-2.88,10.72-.81.46.29,3.76,2.48,3.44,5.26Z"/>
  <path class="cls-12" d="M248.76,301.56c.15-2.88-5.19-6.51-9.91-5.66-3.06.55-6.68,3.12-6.47,6.07.2,2.79,3.7,4.34,4.08,4.5,3.24,1.38,6.35-.06,7.65-.66,1.38-.64,4.54-2.1,4.65-4.25Z"/>
  <path class="cls-12" d="M250.58,304.79c1.74-.26,3.79.9,4.05,2.43.31,1.85-2.09,3.72-4.25,3.84-.11,0-2.33.1-3.03-1.21-.84-1.58.8-4.7,3.24-5.06Z"/>
  <path class="cls-4" d="M40.12,353.64c-.81,1.23-.25,3.32.91,4.55,1.58,1.68,3.86,1.32,4.55,1.21,1.49-.23,3.82-1.19,3.94-2.73.09-1.11-1.02-2.02-1.52-2.43-2.32-1.9-6.62-2.55-7.89-.61Z"/>
  <path class="cls-4" d="M32.84,380.34c-2.71,1.33-2.95,5.06-3.03,6.37-.31,4.8,2.41,11.1,6.67,11.53,1.69.17,3.48-.6,4.55-1.82,2.17-2.49.95-6.35-.61-11.23-.98-3.08-1.8-3.96-2.64-4.5-1.4-.89-3.38-1.12-4.94-.36Z"/>
  <path class="cls-4" d="M121.74,308.13c-1.43-.33-4.36,7-5.76,11.53-1.25,4.03-5.7,18.34.91,26.09.52.61,2.15,2.52,3.34,2.12,1.91-.64,1.18-6.74.91-13.05-.73-16.94,2.21-26.32.61-26.7Z"/>
  <path class="cls-4" d="M133.87,280.22c-1.89.81-1.71,4.62-1.21,6.67.14.58.93,3.82,2.43,3.94,1.88.16,5.18-4.53,3.64-7.89-.88-1.91-3.33-3.38-4.85-2.73Z"/>
  <path class="cls-4" d="M356.87,288.71c-.59,1.26.29,2.84,1.21,3.64,1.34,1.17,3.77,1.57,4.85.3,1.09-1.27.44-3.81-1.21-4.85-1.62-1.03-4.15-.6-4.85.91Z"/>
  <path class="cls-4" d="M373.55,304.49c-2.05.02-3.34-2.86-2.73-3.94.75-1.32,4.91-.99,5.46.61.4,1.15-.96,3.32-2.73,3.34Z"/>
  <path class="cls-4" d="M462.75,378.22c1.26-.56,3.77-1.2,5.16,0,2.4,2.08-.03,8.4-2.12,11.83-.72,1.18-4.38,7.2-7.89,6.37-1.57-.37-2.65-2.01-3.03-3.34-.3-1.06-.27-2.29,2.73-7.89,3.09-5.76,4.16-6.54,5.16-6.98Z"/>
  <path class="cls-4" d="M155.31,107.79c-1.23.78-1.21,2.81-.81,4.05.73,2.22,3.37,3.98,4.85,3.24,1.44-.72,1.74-3.79.4-5.66-.98-1.37-3.1-2.47-4.45-1.62Z"/>
  <path class="cls-4" d="M340.34,107.79c1.23.78,1.21,2.81.81,4.05-.73,2.22-3.37,3.98-4.85,3.24-1.44-.72-1.74-3.79-.4-5.66.98-1.37,3.1-2.47,4.45-1.62Z"/>
  <path id="yeux-3" data-name="yeux" class="cls-7" d="M407.54,144.6c.95-6.31,5.26-38.99-14.26-64.41-4.67-6.09-16.42-21.37-35.5-22.36-17.64-.91-29.85,11-32.46,13.68-17.31,17.79-14.88,43.2-14.56,46.05"/>
  <path class="cls-4" d="M133.13,72.21c-1.32-2.27-15.27-.13-19.44,9.23-.84,1.88-2.26,6.25-.72,7.35,3.59,2.56,21.95-13.51,20.16-16.58Z"/>
  <path class="cls-4" d="M93.2,168.74c-1.56,1.92-1.95,5.06-.61,7.28,2.12,3.5,8.04,3.84,11.53,1.21,2.18-1.64,3.99-4.88,3.03-7.28-1.58-3.97-10.58-5.37-13.96-1.21Z"/>
  <path class="cls-4" d="M408.47,168.74c1.56,1.92,1.95,5.06.61,7.28-2.12,3.5-8.04,3.84-11.53,1.21-2.18-1.64-3.99-4.88-3.03-7.28,1.58-3.97,10.58-5.37,13.96-1.21Z"/>
  <path id="patte_av_d" data-name="patte av d" class="cls-8" d="M397.46,347.13c29.44-12.39,45.76-27.94,55.26-40.01,21.89-27.82,32.84-41.74,36.45-47.68,1.29-2.13,5.59-9.49,14.37-15.12.87-.56,1.25-1.34,2.1-1.26,6.76.61,15.89.57,26.16-2.09,3.65-.94,6.95-2.09,9.88-3.3,1.3-.54,1.66-2.2.73-3.26-1.78-2.02-3.91-4.13-6.43-6.19-7.08-5.77-14.38-8.75-19.88-10.34-1.39-.4-1.94-2.06-1.06-3.21,1.93-2.51,4.18-6.31,5.14-11.3.56-2.89.54-5.47.34-7.5-.05-.5-.28-.95-.65-1.29-2.07-1.91-5.89-4.84-11.44-6.34-6.63-1.78-12.4-.6-15.82.52-1.28.42-2.6-.46-2.68-1.8-.36-5.89-2.07-16.37-9.76-25.73-2.91-3.54-6.04-6.14-8.81-8.03-1.01-.69-2.39-.33-2.95.76-1.21,2.35-2.61,5.51-3.71,9.35-4.31,14.98.85,23.04-2.22,35.68-1.34,5.53-4.78,10.35-11.67,19.99-5.66,7.93-13.92,19.33-27.69,31.1-16.84,14.39-34,22.54-46.75,27.22"/>
  <path class="cls-14" d="M397.46,347.13c-2.49-3.28,28.94-21.86,61.03-63.79,17.81-23.28,28.3-43.93,49.02-46.21,7.63-.84,17.62.7,19.15-3.32,2.03-5.36-12.9-15.5-11.81-16.91.32-.42,2.04-.03,9.51,4.4,12.8,7.6,19.2,11.4,18.64,14.55-.61,3.39-8.17,4.77-15.78,6.15-9.54,1.73-15.23,1.2-18.69,1.51-12.46,1.1-18.72,14.94-31.91,34.21-9.72,14.19-26.43,38.18-52.64,56.2-10.44,7.18-25,15.2-26.51,13.21Z"/>
  <path id="patte_av_d-2" data-name="patte av d" class="cls-7" d="M397.46,347.13c29.44-12.39,45.76-27.94,55.26-40.01,21.89-27.82,32.84-41.74,36.45-47.68,1.29-2.13,5.59-9.49,14.37-15.12.87-.56,1.25-1.34,2.1-1.26,6.76.61,15.89.57,26.16-2.09,3.65-.94,6.95-2.09,9.88-3.3,1.3-.54,1.66-2.2.73-3.26-1.78-2.02-3.91-4.13-6.43-6.19-7.08-5.77-14.38-8.75-19.88-10.34-1.39-.4-1.94-2.06-1.06-3.21,1.93-2.51,4.18-6.31,5.14-11.3.56-2.89.54-5.47.34-7.5-.05-.5-.28-.95-.65-1.29-2.07-1.91-5.89-4.84-11.44-6.34-6.63-1.78-12.4-.6-15.82.52-1.28.42-2.6-.46-2.68-1.8-.36-5.89-2.07-16.37-9.76-25.73-2.91-3.54-6.04-6.14-8.81-8.03-1.01-.69-2.39-.33-2.95.76-1.21,2.35-2.61,5.51-3.71,9.35-4.31,14.98.85,23.04-2.22,35.68-1.34,5.53-4.78,10.35-11.67,19.99-5.66,7.93-13.92,19.33-27.69,31.1-16.84,14.39-34,22.54-46.75,27.22"/>
  <path class="cls-4" d="M412.62,268.9c1.7-5.02,10.51-7.59,23.76-21.25,8.53-8.79,14.64-17.78,16.06-16.05.58.71.19,3-.57,4.99-1.96,5.16-6.49,8.68-17.2,18.28-14.63,13.11-20.76,19.6-22.02,16.53-.16-.39-.48-1.16-.02-2.5Z"/>
  <g id="lunettes">
    <circle class="cls-5" cx="154.26" cy="119.12" r="72.77"/>
    <circle class="cls-3" cx="348.18" cy="119.12" r="72.77"/>
    <circle class="cls-6" cx="154.26" cy="119.12" r="72.77"/>
    <circle class="cls-6" cx="348.18" cy="119.12" r="72.77"/>
    <path class="cls-13" d="M224.46,133.06c9.44-11.83,27.47-15.4,41.06-8.95,4.54,2.07,8.58,5,11.76,8.61.93,1.06.83,2.67-.23,3.6-.79.7-1.89.82-2.78.39-7.59-3.46-15.23-5.98-23.41-5.8-8.21.13-15.64,2.8-23.35,6.11-2.43,1.11-4.74-1.91-3.05-3.96h0Z"/>
  </g>
  <g id="Calque_20" data-name="Calque 20">
    <path class="cls-4" d="M395.71,174.64c.33-.33-.12-.84-.48-.55-7.26,5.68-20.52,14-39,16.3-16.58,2.07-30.16-1.62-38.32-4.76-.43-.17-.72.45-.31.67,7.57,4,21.54,9.53,39.1,7.43,19.47-2.32,32.58-12.72,39.01-19.09Z"/>
    <path class="cls-4" d="M407.87,76.18c-.3-.36-.85.04-.6.43,4.99,7.76,12.04,21.73,12.62,40.34.52,16.7-4.4,29.88-8.29,37.71-.21.42.38.76.64.37,4.68-7.16,11.48-20.56,11.02-38.24-.51-19.6-9.65-33.62-15.4-40.61Z"/>
    <path class="cls-4" d="M83.05,128.24c.1.46.77.35.73-.11-.86-9.18-.69-24.84,7.35-41.63,7.22-15.07,17.65-24.51,24.71-29.67.38-.27,0-.85-.4-.62-7.45,4.21-19.65,12.98-27.38,28.89-8.56,17.64-6.9,34.29-5.01,43.14Z"/>
    <path class="cls-4" d="M201.83,174.64c.33-.33-.12-.84-.48-.55-7.26,5.68-20.52,14-39,16.3-16.58,2.07-30.16-1.62-38.32-4.76-.43-.17-.72.45-.31.67,7.57,4,21.54,9.53,39.1,7.43,19.47-2.32,32.58-12.72,39.01-19.09Z"/>
    <path class="cls-4" d="M232.01,131.05c-.4-.56,10.92-7.24,13.85-6.75,1.64.28,2.4,1.16,2.4,1.16.21.24.31.37.3.51-.1.89-4.47.52-8.56,1.79-5.02,1.55-7.9,3.39-7.98,3.29Z"/>
  </g>
</svg>