<?xml version="1.0" encoding="UTF-8"?>
<svg id="laitue" xmlns="http://www.w3.org/2000/svg" viewBox="0 0 550.83 500">
  <defs>
    <style>
      .cls-1 {
        fill: #6c9d2f;
        opacity: .29;
      }

      .cls-1, .cls-2, .cls-3, .cls-4 {
        stroke-width: 0px;
      }

      .cls-2, .cls-5 {
        fill: #9ec045;
      }

      .cls-3 {
        fill: #fff;
        opacity: .35;
      }

      .cls-6 {
        fill: none;
      }

      .cls-6, .cls-5 {
        stroke: #6c9d2f;
        stroke-miterlimit: 10;
        stroke-width: 3px;
      }

      .cls-4 {
        fill: #6c9d2e;
      }
    </style>
  </defs>
  <g id="laitue-2" data-name="laitue">
    <path id="_11" data-name="11" class="cls-5" d="M46.46,339c2.07,4.63,5.28,9.56,6.14,10.82,6.03,8.8,12.24,13.49,19.37,23.2,5.3,7.22,8.14,13.18,9.8,18.32,3.88,11.99,1.76,16.15,5.53,23.44,1.82,3.51,5.92,9.36,19.83,15.46,27.2,11.92,43.59,3.58,85.03,11.95,14.78,2.98,20.25,5.57,22.68,6.8,18.48,9.39,18.99,20.82,32.88,26.65,9.57,4.01,20.1,1.72,41.39-3.4,32.97-7.93,49.46-11.89,62.14-26.11,13.89-15.58,9.55-27.71,25.83-37.83,2.39-1.48,9.5-5.57,23.72-13.73,9.11-5.23,12.24-6.98,14.17-10.77,4.68-9.18-2.21-21.4-4.54-25.51-23.73-42.08-346.42-109.07-363.97-61.23-8.45,23.04,0,41.95,0,41.95Z"/>
    <g id="_1" data-name="1">
      <path class="cls-2" d="M51.57,240.35c-23.91-10.52-37.29-49.49-27.78-75.4,4.11-11.2,10.11-13.43,13.47-28.22,3.24-14.23-.61-19.62.7-35.85.43-5.31,2.03-25.15,11.34-37.98,10.72-14.79,27.23-14.15,64.63-20.98,66.42-12.13,71.48-24.58,95.81-17.57,17.43,5.02,43.54,19.67,51.02,43.65,20.11,64.41-110.44,143.64-165.54,167.81-10.87,4.77-28,11.42-43.65,4.54Z"/>
      <path class="cls-6" d="M51.57,240.35c-23.91-10.52-37.29-49.49-27.78-75.4,4.11-11.2,10.11-13.43,13.47-28.22,3.24-14.23-.61-19.62.7-35.85.43-5.31,2.03-25.15,11.34-37.98,10.72-14.79,27.23-14.15,64.63-20.98,66.42-12.13,71.48-24.58,95.81-17.57,17.43,5.02,43.54,19.67,51.02,43.65,20.11,64.41-110.44,143.64-165.54,167.81-10.87,4.77-28,11.42-43.65,4.54Z"/>
    </g>
    <path id="_6" data-name="6" class="cls-5" d="M193.43,383.57c-25.04,12.55-61.65,13.67-83.74-2.32-18.35-13.28-11.66-27.5-40.39-72.55-18.77-29.43-27.77-33-28.51-49.33-.96-21.28,13.89-25.32,19.01-55.72,4.97-29.52-7.23-36.39,1.19-51.07,10.18-17.76,28.79-9.05,67.71-31.34,24.78-14.2,27.07-23.36,46.33-26.7,3.71-.64,30.1-4.85,45.73,10.45,6.48,6.34,8.93,13.9,10.1,18.57,53.54,214.42-37.42,260.02-37.42,260.02Z"/>
    <path id="_4" data-name="4" class="cls-5" d="M287.98,123c-8.57,5.9-7.72,21.88-7.37,28.35,1.1,20.54,12.54,23.82,17.01,43.65,4.52,20.06-5.6,23.71-5.67,56.69-.05,20.96-.08,35.02,9.07,43.09,16.3,14.38,55.61,4.33,73.7-19.84,10.7-14.3,11.42-30.12,11.91-40.82,1.48-32.62-14.08-56.58-18.71-63.5-22.16-33.11-64.42-58.31-79.94-47.62Z"/>
    <path id="_3" data-name="3" class="cls-5" d="M390.59,94.65c13.96.77,22.84,17.46,46.49,15.87,14.47-.97,18.15-7.69,32.31-6.24,12.01,1.23,28.29,8,33.45,20.98,4.92,12.37-4.97,18.54-1.13,31.75,5.13,17.63,25.3,15.34,32.88,31.18,7.39,15.44-7.61,26.29-20.41,68.03-12.52,40.84-5.16,53.28-19.28,65.2-16.25,13.72-28.99-.23-56.69,13.61-24.32,12.15-23.26,27.27-48.76,36.85-6.9,2.59-25.08,9.42-41.39,2.27-5.01-2.2-21.3-10.75-30.05-49.32-21.15-93.27,31.21-232.46,72.57-230.17Z"/>
    <path id="_10" data-name="10" class="cls-5" d="M162.12,173.46c20.19-18.37,42.24-23.3,52.72-25.51,13.97-2.94,51.55-10.87,79.94,10.77,20.77,15.83,25.65,39.13,32.88,73.7,7.59,36.29,11.88,56.77,1.7,74.83-23.28,41.3-110.05,48.38-161.01,11.34-6.87-4.99-33.64-24.46-39.69-58.96-8.26-47.12,29.15-82.26,33.45-86.17Z"/>
    <path id="_2" data-name="2" class="cls-5" d="M243.03,68.71c5.96-7.27,12.73-3.91,21.93-13.73,10.09-10.78,7.39-18.89,15.41-23.46,12.28-6.99,31.96,4.43,36.15,6.87,17.24,10.01,15.06,19.1,30.22,25.75,13.43,5.89,17.7-.13,33.78,6.29,5.96,2.38,18.54,7.4,25.48,18.88,9.33,15.42-1.68,25.65,7.7,41.2,3.06,5.07,9.74,9.86,23.11,19.45,18.35,13.16,20.31,11.35,26.08,17.17,14.13,14.26,17.31,40.28,8.89,58.93-7.53,16.69-17.58,12.51-30.22,31.47-16.59,24.87-8.12,45.27-22.52,53.21-10.96,6.04-25.67-.36-31.41-2.86-61.2-26.68-38.84-117.7-103.71-158.49-9.48-5.96-25.47-13.77-36.15-32.04-8.06-13.78-14.78-36.39-4.74-48.64Z"/>
    <path class="cls-1" d="M172.36,171.19c-31.52,32.11-47.48,96.14-10.24,137.76,37.87,42.32,106.38,34.26,141.17,2.27,61.37-56.45-.74-170.41-7.37-169.51-7.17.98,17.06,140.71-20.98,154.2-13.46,4.77-20.04-10.17-69.73-18.71-10.06-1.73-21.87-3.19-28.35-12.47-1.6-2.3-5.42-8.71-2.83-27.21,2.3-16.47,6.23-44.64,30.61-61.8,4.79-3.37,17.55-11.33,35.15-11.91,7.39-.24,19.66-.64,30.05,7.37,14.35,11.06,15.04,30.4,15.31,37.98.42,11.73-2.88,14.41-4.86,21.93-.45,1.72-1.1,4.63-1.38,10.39-1.01,20.83,4.9,35.69-1.13,46.49-7.41,13.25-28.57,12.77-28.06,15.02.42,1.88,15.51,3.96,28.35-2.83,4.04-2.14,7.84-5.14,10.2-3.69,2.96,1.83.93,8.95,1.42,9.07,1.67.4,47.28-75.49,14.74-125.29-2.26-3.45-22.31-33.07-59.53-37.42-40.11-4.68-68.01,23.74-72.53,28.35Z"/>
    <path id="_9" data-name="9" class="cls-5" d="M174.11,158.15c11.02-26.11,41.01-35.81,44.39-36.85,22.59-6.96,57.51-7.12,65.42,9.07,3.29,6.73,2.01,16.51-3.5,22.11-9.22,9.36-23.22-.14-49.06,2.27-33.15,3.09-53.28,22.76-58.99,16.44-2.56-2.83-.14-8.56,1.75-13.04Z"/>
    <path id="_7" data-name="7" class="cls-5" d="M224.48,121.87c-6.53-8.59-102.55,24.36-123.02,97.51-9.16,32.75-3.7,75.38,11.34,79.94,12.58,3.81,30.01-19.57,34.02-24.94,20.33-27.27,15.37-47.75,26.65-79.37,17.97-50.38,55.24-67.6,51.02-73.13Z"/>
    <path id="_8" data-name="8" class="cls-5" d="M269.98,128.1c-2.89,3.93-1.79,9.17,4.4,23.24,12.9,29.32,19.34,31.96,21.98,44.22,3.42,15.86-6.07,17.48-10.05,44.22-.73,4.93-7.34,52.26,13.19,61.23,6.12,2.67,14.55-.11,31.4-5.67,24.89-8.22,39.32-12.98,47.73-26.08,6.05-9.42,6.14-18.71,6.28-32.31.07-6.56.08-20.05-5.91-35.06-4.25-10.63-8.01-13.27-41.19-47.71-20.07-20.83-25.61-27.04-37.68-30.05-9.84-2.45-25.02-3.02-30.14,3.97Z"/>
    <path id="_5" data-name="5" class="cls-5" d="M125.83,278.34c8.18-6.51,18.81-7.09,31.75-5.67,53.4,5.88,59.4,36.34,95.24,37.98,31.03,1.42,74.08-19.23,99.21-37.42,6.14-4.45,16.33-12.45,24.38-9.07,11.26,4.73,12.27,29.23,10.77,41.39-6.02,48.86-77.21,99.46-148.54,97.51-54.11-1.48-115.04-33.39-124.16-75.97-2.71-12.66-3.18-37.19,11.34-48.76Z"/>
    <path class="cls-1" d="M208.7,139.25c7.66-6.45,11.58-7.14,13.23-12.38.67-2.12.81-4.5,2.93-6.43,2.1-1.9,4.76-2.11,7.28-2.27,9.21-.58,13.81-.88,15.64-.83,0,0,11.75.29,25.57,3.71.81.2,3.03.77,3.11,1.75.09,1.09-2.57,1.58-4.44,3.21-3.76,3.28-2.96,9.98-2.65,12.57,1.21,10.12,7.64,14.68,5.95,16.72-1.76,2.14-10.29-.97-10.2-2.83.03-.6.94-.65,1.8-1.51,2.21-2.24.89-6.8-.76-12.94-3.03-11.31-2.6-10.96-3.12-11.62-5.43-6.93-21.28-5.48-31.75,0-8.36,4.37-6.53,7.32-19.09,17.57-1.33,1.09-4.44,3.57-4.06,6.33.27,1.98,2.22,3.19,2.55,3.4,4.02,2.51,8.98-.7,16.35-2.83,2.87-.83,13.15-3.87,24.09-1.8,7.48,1.42,12.19,4.55,15.78,1.89,2.7-2,2.43-5.56,4.09-5.68,2.37-.17,6.3,6.81,4.32,10.02-1.95,3.17-8.82,1.29-19.73.1-4.73-.52-20.7-2.05-33.81-.16-20.24,2.93-32.58,13.87-34.43,11.28-.82-1.15,1.56-4.26,6.33-10.46,5.6-7.29,9.06-11.8,15.02-16.82Z"/>
    <path class="cls-1" d="M239.79,95.22c1.39-.72,3.92,6.66,11.96,11.83,6.41,4.12,13.18,4.81,19.5,5.46,7.51.77,8.04-.42,14.74,0,11.33.71,19.64,4.7,26.63,8.06,8.39,4.03,14.6,7.11,19.32,13.98,2.37,3.46,1.43,3.59,3.94,7.44,4.98,7.63,10.34,9.63,18.99,16.44,4.37,3.44,7.26,6.36,13.04,12.19,8.35,8.42,14.19,14.31,18.99,22.39,6.76,11.37,8.45,21.98,9.35,28.06,2.49,16.72-1.93,20.38-2.27,45.35-.36,27.07,3.17,32.62,6.8,35.43,8.76,6.78,22.88,1.36,23.53,4.25.45,2.01-6.12,5.83-12.38,6.91-4.02.69-7.7-.08-15.06-1.64-7.58-1.6-8.72-2.79-9.26-3.5-2.09-2.79-.19-5.36.12-12.25.18-3.95.63-13.89-3.97-22.39-1.13-2.08-3.07-5.03-2.57-8.79.25-1.85.91-2.59,1.72-4.81,1.08-2.96,1.24-5.33,1.42-9.92.36-9.67.54-14.51.28-18.99-.41-7-.72-12.37-2.32-18.48-2.66-10.15-7.43-16.85-13.27-24.89-5.57-7.66-10.71-12.76-20.98-22.96-10.12-10.05-9.44-8.37-17.01-16.16-12.87-13.25-13.1-16.33-20.41-20.13-8.34-4.32-17.34-5.13-20.41-5.39-8.17-.67-7.45,1.12-13.8.09-11.18-1.8-14.51-7.53-22.2-5.76-2.21.51-4.93,1.66-6.47.3-1.24-1.09-.58-2.78-1.75-5.69-.94-2.34-2.1-3.06-3.4-4.82-3.37-4.53-4.07-10.99-2.83-11.62Z"/>
    <path class="cls-1" d="M46.46,237.24c-5.05,1.57-14.03-13.91-15.57-16.57-.76-1.3-4.03-7.03-7.1-16.31-3.55-10.72-6.13-18.53-3.08-21.25,3.88-3.46,12,5.65,19.52,3.11,10.42-3.53,3.94-24.1,13.89-41.1,13.14-22.46,38.48-10.58,80.79-37.98,20.2-13.08,20.96-19.15,35.72-22.68,24.63-5.89,37.4,8.26,52.16-.85,16.56-10.23,17.12-38.31,24.37-37.41,2.27.28,4.54,3.34,7.1,6.79,2.5,3.37,4.31,5.82,3.51,7.68-1.18,2.74-6.72.63-11.73,4.51-2.67,2.07-3.95,4.53-4.82,6.24-6.82,13.43.69,31.82,1.13,32.88,2.39,5.67,5.65,10.45,3.97,12.19-.86.89-2.05-.02-5.67.28-5.25.44-6.9,2.71-9.64,1.7-1.68-.62-2.52-2.02-3.4-3.4,0,0-1.3-2.04-8.91-11.94-5.71-7.44-16.98-8.25-27.94-9.04-3.36-.24-9.76-.66-17.29.85-13.86,2.79-18.57,9.53-33.48,19.21-14.34,9.32-29.09,18.91-48.97,22.62-6.5,1.21-15.13,2.09-23.29,8.63-2.54,2.04-8.59,7.02-9.92,14.74-.87,5.09,1.1,6.7,2.55,15.31,1.53,9.07.83,16.23.34,21.29-.43,4.47-1.34,13.25-5.16,22.65-1.42,3.48-1.5,2.8-5.1,10.77-2.59,5.73-2.83,6.73-3.97,7.09Z"/>
    <path class="cls-1" d="M121.27,344.39c-1.67-2.83-3.52-5.99-5.07-10.49-2.07-6-4-15.5-2.27-16.25,2.73-1.18,10.39,21.01,24.07,37.14,32.9,38.8,95.45,36.49,113.88,35.8,15.9-.59,43.67-1.94,73.32-18.9,25.46-14.56,39.78-33.46,42.71-37.42,13.47-18.23,18.2-34.86,19.42-34.37,1.33.52-2.44,20.78-14.47,39.86-12.27,19.47-28.15,29.73-39.34,36.85-42.73,27.17-86.19,26.69-94.87,26.46-6.63-.18-31.57-1.25-60.47-13.23,0,0-28.59-12.14-45.92-30.77-6.36-6.84-10.99-14.68-10.99-14.68Z"/>
    <path class="cls-1" d="M341.08,370.94c2.45,2.13,6.23,4.67,10.82,4.63,5.85-.06,11.5-4.31,23.58-22.39,14.24-21.32,11.42-22.93,17.76-28.72,14.75-13.46,28.58-1.52,41.57-13.98,14.66-14.07,5.03-29.02,21.17-54.05,11.37-17.63,18.91-14.51,25.7-29.48,8.04-17.75,7.16-43.57-6.05-59.34-3.03-3.62-15-10.98-38.93-25.7-9.73-5.99-18.5-11.13-20.03-20.03-.48-2.82.36-7.63-2.27-13.61-.29-.65-2.79-6.34-4.38-5.98-2.17.49-3.08,12.29.91,22.21,1.8,4.46,4.85,9.22,14.81,17.41,19.55,16.08,26.66,13.22,37.16,25.23,1.76,2.02,9.3,10.94,12.38,24.8,1.08,4.85,4.2,18.85-2.68,32.36-3.15,6.19-7.52,10.55-11.34,14.36-6.88,6.87-8.56,6.03-13.98,11.34-11.68,11.43-15.1,26.29-15.47,27.98-1.62,7.45-.33,9.75-3.05,17.75-2.16,6.35-3.67,10.82-7.94,13.98-6.4,4.75-16.81,5.18-23.94,1.68-3.47-1.71-6.63-4.7-9.26-3.5-2.76,1.26-2.88,6.21-3.09,8.63-.98,11.48-8.48,20.19-20.41,34.02-4.94,5.73-12.44,13.28-23.06,20.41Z"/>
    <path class="cls-1" d="M285.81,277.14c3.47-3.74,14.46,10.01,28.82,8.85,14.51-1.18,14.71-16.08,37.42-24.94,9.4-3.67,13.22-2.62,18.43-7.65,8.85-8.56,8.65-22.02,8.5-26.08-.48-13.19-6.18-22.73-10.49-29.76-7.65-12.49-11.91-12.7-25.8-31.18-5.5-7.33-12.46-17.45-11.62-18.14.49-.4,3.45,2.62,14.46,13.61,17.02,16.99,17.36,17.16,19.56,19.84,5.31,6.49,11.19,13.67,15.32,24.65,3.88,10.31,4.13,18.43,4.51,30.62.27,8.67.87,28.3-4.8,29.79-2.21.58-2.98-2.22-6.81-3.42-7.13-2.23-13.13,4.79-31.55,16.86-7.96,5.22-11.94,7.83-18.05,10.63-7.89,3.62-9.46,3.08-16.72,7.09-4.01,2.21-5.18,3.29-7.47,3.12-6.56-.49-10.66-10.29-11.81-13.04-1.78-4.26-3.71-8.87-1.89-10.83Z"/>
    <path class="cls-1" d="M215.41,113.17c2.2-6.05-15.82-16.54-14.55-18.52.86-1.35,10.2,2,17.83,8.47.97.82,12.52,10.72,10.35,14.66-.58,1.06-1.82,1.05-7.39,2.19-3.29.67-6.53,1.62-9.83,2.27-3.82.75-31.26,7.6-59.34,28.72-10.91,8.21-26.41,19.88-38.93,41.2-2.75,4.68-14.97,26.2-16.63,56.31-1.16,20.91,2.86,44.55,12.47,47.62,1.38.44,3.29.59,4.91,2.27,4.15,4.28.61,12.4-.38,19.28-2.36,16.51,9.27,31.25,14.74,38.17,5.17,6.56,12.52,11.8,27.21,22.3,6.47,4.62,9.78,6.24,10.96,6.8,5.88,2.79,9.1,3.07,9.07,4.16-.06,2.12-12.3,3.82-22.23,4-3.62.07-8.08.13-13.99-.72-3.61-.52-16.36-2.61-30.01-11.12-4.77-2.98-7.81-4.92-10.5-8.8-2.67-3.86-2.39-5.87-5.29-13.98-3.75-10.49-7.24-15.6-6.41-16.14.82-.54,5.03,4.03,8.3,8.58,7.45,10.36,6.04,15.05,10.58,20.79,8.76,11.07,28.71,12.2,30.99,7.94.97-1.81-2.15-5.88-8.42-13.92-5.92-7.59-10.83-12.83-11.61-13.67-9.89-10.7-10.01-23.26-14.17-39.12-6.82-25.99-15.39-26.21-20.22-44.03-12.06-44.54,28.42-91.45,33.59-97.46,17.3-20.08,39.15-32.52,51.83-39.74,14.25-8.11,21.37-12.17,30.8-13.98,8.51-1.64,15.03-1.19,16.25-4.54Z"/>
    <path class="cls-1" d="M98.05,237.3c1.67-.08-1.57,26.73,11.16,33.86,8.35,4.67,19.66-1.31,21.64-2.36,8.97-4.75,13.14-13.7,20.32-28.45,2.85-5.86,2.71-6.56,6.24-13.61,3.59-7.17,10.89-20.7,12.43-20.04.91.39-1.06,5.38-3.73,17.4-3.29,14.79-2.44,17.03-5.67,26.46-1.74,5.09-1.11,1.7-7.18,15.12-.99,2.2-1.98,4.44-4.35,5.86-2.83,1.7-5.31.84-8.83.97-7.25.28-12.64,4.57-14.23,5.83-6.42,5.11-8.88,12.47-9.83,15.31-1.67,4.99-1.11,6.84-2.27,7.18-3.66,1.07-13.85-16.01-16.25-33.45-.45-3.25-.6-6.35-.72-8.69-.54-10.75.23-21.34,1.28-21.39Z"/>
    <path class="cls-1" d="M150.28,152.63c.3.49,6.15-3.18,18.65-8.28,12.47-5.08,24.75-10.09,27.02-6.99,1.88,2.57-5,8.18-11.72,21.17-8.33,16.1-10.19,31.52-9.06,31.9,1.09.37,3.6-13.79,15.67-29.45,2.74-3.55,10.75-13.95,19.65-21.73.08-.07,3.53-3.09,7.56-7.75,4.74-5.48,7.1-8.22,6.43-9.64-1.65-3.43-20.6,1.36-36.09,7.75-22.33,9.2-38.62,22.17-38.11,23.02Z"/>
    <path class="cls-1" d="M42.72,317.65c-2.38-.88.92-26.16,9.4-27.54,4.82-.78,9.49,6.44,17.18,18.59,4.55,7.19,11,18.55,22.71,46.37,4.64,11.04,4.91,12.29,7.18,15.5,9.93,14,25.24,18.77,29.48,20.03,13.39,3.97,29.09,3.35,37.04,1.13,1.11-.31,4.17-1.24,8.31-1.13,6.1.15,10.55,2.46,11.72,3.02,9.39,4.59,37.79,10.29,58.2,10.58,19.53.28,33.58-4.35,57.07-12.09,18.55-6.12,27.83-9.18,32.5-15.5.97-1.32,3.46-5.02,7.56-5.67,4.37-.69,7.37,2.6,10.82,4.63,12.98,7.61,38.7.79,51.43-10.97,2.04-1.88,5.45-5.47,8.11-4.51,2.24.81,2.82,4.43,3.72,10.1,1,6.27,1.55,9.72-.19,13.61-.28.63-3.27,6.9-7.87,7.1-4.22.19-5.37-4.92-10.08-7.1-7.2-3.33-15.01,3.73-25.53,8.21-13.81,5.88-17.04.83-37.21,4.26-11.65,1.98-9.55,3.5-43.09,15.5-27.46,9.83-35.48,11.18-42.71,11.72-12.93.97-23.16-.67-27.59-1.51-25.22-4.78-26.91-14.94-48.38-18.9-20.03-3.69-21.8,4.7-41.42-.5-5.6-1.49-22.22-6.13-34.55-20.66-4.73-5.58-5.73-8.95-12.09-23.06-15.03-33.28-24.12-53.01-32.13-52.16-5.76.62-8.02,11.55-9.61,10.96Z"/>
    <path class="cls-3" d="M49.72,103.78c1.75,4.95,5.98,8.56,8.17,6.91,3.09-2.33-.78-13.03,2.81-25.33,3.19-10.94,11.57-16.96,13.53-18.42,6.53-4.87,13.33-6.59,14.48-6.87,5.97-1.45,9.8-.83,9.92-1.7.19-1.34-8.65-5.62-17.76-4.48-11.12,1.38-18.44,9.92-21.95,15.35-.89,1.37-13.74,21.66-9.19,34.54Z"/>
    <path class="cls-3" d="M231.47,133.96c.25,1.86,5.83,2.69,9.45,2.65,5.8-.06,12.56-2.42,12.47-4.54-.08-1.98-6.12-3.84-11.34-3.4-5.29.44-10.85,3.35-10.58,5.29Z"/>
    <path class="cls-3" d="M209.55,186.12c.42,1.68,6.22,1.54,7.56,1.51,11.84-.28,14.14-8.17,23.32-8.26,7.14-.08,7.93,4.66,19.01,5.62,3.36.29,10.49.47,10.84-1.13.52-2.42-14.15-10.56-30.12-10.21-16.39.35-31.34,9.58-30.61,12.47Z"/>
    <path class="cls-3" d="M69.67,176.5c1.58,1.08,4.14-.94,5.49-3.19,1.72-2.87.97-5.33,1.89-8.23,1.19-3.77,4.21-5.17,9.25-7.29,15.66-6.6,21.65-7.9,22.23-12.66.04-.31.26-2.1-.57-3.26-1.9-2.68-7.06,1.18-16.66,5.13-11.38,4.68-14.75,3.63-18.81,9.08-.77,1.04-3.5,4.91-4.18,10.96-.09.81-.89,7.93,1.35,9.47Z"/>
    <path class="cls-3" d="M158.53,111.66c.3,1.8,3.5,2.58,3.78,2.65,4.08.95,5.81-2.28,11.72-4.16,7.28-2.31,11.6.39,14.36-3.02.1-.13,1.92-2.43,1.13-4.16-1.5-3.29-11.39-2.18-18.14,0-5.56,1.79-13.36,5.7-12.85,8.69Z"/>
    <path class="cls-3" d="M253.02,71.98c-.01,1.29,2.17,2.26,3.02,2.65,8.15,3.65,19.66-2.15,26.46-9.07,1.29-1.31,11.28-11.71,7.94-19.28-.22-.49-1.46-3.31-3.4-3.4-4.14-.2-3.73,12.41-12.47,20.03-8.68,7.57-21.51,5.96-21.54,9.07Z"/>
    <path class="cls-3" d="M366.78,78.78c-.11,1.08,8.6,0,15.12,6.05,6.73,6.25,6.08,15.42,10.58,15.87,1.67.17,3.4-.94,4.16-2.27,2.51-4.4-3.8-14.32-12.09-18.52-8.27-4.19-17.65-2.24-17.76-1.13Z"/>
    <path class="cls-3" d="M456.07,170.34c-2.21.28-4.03,2.99-4.54,5.39-1.62,7.67,10.44,11.1,11.34,20.98.79,8.65-7.86,12.63-5.39,20.13,1.16,3.51,4.48,6.94,7.09,6.52,4.57-.73,7.12-13.31,6.52-23.24-.9-14.92-9.31-30.48-15.02-29.76Z"/>
    <path class="cls-3" d="M481.3,305.83c1.52-3.8,5.58-5.53,8.79-5.67,2.19-.1,6.36.44,7.65,3.12,1.85,3.84-2.94,10.54-8.5,11.91-.74.18-4.39,1.08-6.8-1.13-2.35-2.16-2.05-5.94-1.13-8.22Z"/>
    <path class="cls-3" d="M141.34,289.68c-1.65,2.17-.98,5.65,1.45,7.56,4.04,3.18,9.91-.41,20.25.38,14.78,1.12,21.56,9.87,27,7.18,2.58-1.27,3.49-4.44,2.89-6.8-2.42-9.53-30.69-10.73-36.17-10.96-12.2-.52-14.61,1.56-15.43,2.65Z"/>
    <path class="cls-3" d="M148.47,167.24c-.34,2.64,3.72,5.72,7.37,6.24,7.72,1.1,14.06-9.18,12.47-11.91-2-3.43-19.19.55-19.84,5.67Z"/>
    <path class="cls-3" d="M296.55,150.43c-1.95,3.08-.17,9.86,2.47,13.75.56.82,4.57,6.73,9.27,4.85,3.9-1.56,6.2-7.67,5.43-11.99-1.45-8.18-14.14-11.4-17.17-6.61Z"/>
    <path class="cls-3" d="M240.92,456.35c-1.28,1.13,2.48,10.36,9.64,14.74,14.26,8.73,36.47-5.14,36-6.8-.41-1.44-17.7,7.12-34.02-.85-6.66-3.25-10.59-8-11.62-7.09Z"/>
    <path class="cls-3" d="M93.62,402.42c-1.95,1.12-.17,12.43,7.42,19.03,8.41,7.31,21.44,6.68,22.11,4.54.45-1.44-4.9-2.95-14.17-10.2-10.56-8.26-13.81-14.25-15.36-13.36Z"/>
    <path class="cls-3" d="M64.05,346.33c2.22-2.79-2-14.57-4.81-20.46-1.85-3.89-5.01-10.51-7.79-9.64-2.61.81-4.1,8.03-3.35,13.68,1.58,11.84,13.38,19.64,15.94,16.42Z"/>
    <path class="cls-3" d="M351.75,287.57c1.9-4.71,6.98-6.84,10.98-7.02,2.74-.12,7.95.54,9.57,3.86,2.31,4.75-3.67,13.04-10.63,14.74-.92.23-5.49,1.34-8.5-1.4-2.94-2.68-2.56-7.36-1.42-10.18Z"/>
  </g>
  <g id="lignes">
    <path class="cls-4" d="M322.53,76.42c18.92,15.55,30.13,40.64,23.53,64.97-.93,3.35-2.1,6.62-3.6,9.73-.21.44-.74.62-1.18.41-.41-.2-.6-.67-.45-1.09,1.11-3.17,2.07-6.37,2.7-9.65,4.29-19.73-2.73-40.34-15.44-55.59-2.08-2.63-4.37-5.09-6.75-7.47-.76-.75.32-2.02,1.18-1.31h0Z"/>
    <path class="cls-4" d="M353.08,121.94c14.87-3.77,25.23-15.36,27.38-30.54.08-.59,1-.54,1,.07.22,11.63-7.01,22.79-17.34,27.96-3.41,1.76-7.08,2.97-10.84,3.49-.61.08-.8-.82-.19-.98h0Z"/>
    <path class="cls-4" d="M356.1,156.15c16.85-4.27,31.27-15.3,40.47-29.98.3-.5,1.13-.08.89.46-6.84,16.55-23.55,28.43-41.17,30.5-.59.07-.79-.82-.19-.98h0Z"/>
    <path class="cls-4" d="M279.68,80.75c7.16,7.98,16.11,15,26.61,17.76,4.01,1.08,7.99.71,12.14.95,7.32.48,14.07,4.99,18.1,10.74.34.46-.32,1.07-.75.66-3.97-3.61-8.48-6.74-13.7-7.97-2.53-.67-5.08-.64-7.9-.55-7.19.34-14.43-2.21-20.37-6.19-3.57-2.26-6.94-4.99-9.79-8.12-1.93-2.06-3.65-4.31-5.16-6.68-.31-.5.39-1.06.8-.6h0Z"/>
    <path class="cls-4" d="M286.34,102.71c6.95,5.64,14.52,11.12,23.34,12.93,4.38.66,9.43,1.39,13.62,3.3,4.38,1.84,8.4,4.48,11.76,7.74.42.4-.13,1.12-.62.78-5.73-3.72-11.88-6.51-18.54-7.78-2.27-.49-4.5-.57-6.82-1.08-4.76-.99-9.14-3.13-13.03-5.79-3.9-2.67-7.35-5.88-10.4-9.38-.39-.44.24-1.11.7-.72h0Z"/>
    <path class="cls-4" d="M399.37,168.15c-3.86,13.38-6.62,27.59-8.47,41.42-.08.58-.97.56-1-.05-.56-14.29,2.52-28.77,8.53-41.73.24-.53,1.11-.22.94.35h0Z"/>
    <path class="cls-4" d="M407.4,198.82c2.96-12.45,12.58-23.08,24.86-26.86.57-.18.93.66.37.93-8.24,4.02-15.23,10.33-20.16,18.03-1.63,2.58-3,5.33-4.12,8.2-.21.57-1.11.3-.95-.3h0Z"/>
    <path class="cls-4" d="M388.88,217.65c9.11-4.04,21.87-9.52,30.74-13.73,10.2-5.35,21.95-7.43,33.15-4.25.58.17.42,1.09-.22.97-5.46-1.03-11.06-1.11-16.47-.21-5.42.91-10.52,3.05-15.71,5.17-9.07,3.63-21.97,9.13-31.11,12.97-.58.24-1.01-.66-.39-.92h0Z"/>
    <path class="cls-4" d="M415.32,220.53c6.96,6.3,15.84,9.91,25.1,11.1.59.08.55.98-.06,1-9.68.24-19.14-4.46-25.74-11.38-.43-.44.23-1.14.69-.72h0Z"/>
    <path class="cls-4" d="M390.24,227.59c.33,16.49,8.63,32.6,21.81,42.5.51.37-.06,1.19-.59.81-10.29-7.35-17.96-18.4-20.75-30.78-.96-4.1-1.47-8.31-1.47-12.51,0-.63.98-.67,1-.01h0Z"/>
    <path class="cls-4" d="M451.77,119.07c10.79,14.35,18.41,31.45,20.5,49.35.06.6-.86.78-.99.15-2.51-13.11-6.68-25.93-13.23-37.6-2.16-3.89-4.52-7.68-7.09-11.32-.37-.51.41-1.12.81-.59h0Z"/>
    <path class="cls-4" d="M430.87,127.04c1.74,4.18,4.24,8.02,7.85,10.71,3.75,2.56,8.14,4.23,12.07,6.59,2.7,1.54,5.38,3.09,8.01,4.73.52.32.07,1.16-.49.87-5.62-2.63-11.02-5.49-16.62-8.19-5.87-2.66-10.16-8.19-11.76-14.38-.16-.58.71-.9.95-.33h0Z"/>
    <path class="cls-4" d="M479.26,114.43c2.71,9.89-.46,21.49-8.86,27.71-.48.37-1.1-.35-.64-.76,7.37-6.65,10.62-17.04,8.53-26.72-.13-.62.81-.85.97-.23h0Z"/>
    <path class="cls-4" d="M493.44,139.4c.4,10.32-5.74,20.81-15.29,25-.56.25-.99-.56-.46-.89,8.56-5.02,14.26-14.2,14.76-24.13.03-.62.98-.61,1,.02h0Z"/>
    <path class="cls-4" d="M504.36,182.74c0,8.73-2.08,17.58-6.41,25.21-4.27,7.47-7.8,15.24-10.61,23.38-.19.57-1.1.34-.96-.28,1.94-8.46,5.39-16.64,9.79-24.09,2.14-3.67,3.71-7.61,4.92-11.69,1.18-4.08,1.89-8.31,2.28-12.58.05-.6,1-.59,1,.05h0Z"/>
    <path class="cls-4" d="M479.42,220.19c-.22,6-1.61,12.08-4.23,17.54-2.57,5.31-6.61,9.7-8.38,15.35-1.32,3.56-2.2,7.27-2.97,11.15-.09.54-.94.53-1-.02-.59-4.01-.15-8.18,1.08-12.11,2.32-7.74,8.63-13.24,11.27-20.83,1.43-3.58,2.45-7.34,3.24-11.19.11-.58,1.02-.5.99.12h0Z"/>
    <path class="cls-4" d="M478.25,271.8c9.18-2.5,12.35-7.86,16.69-15.6,4.17-7.29,12.05-11.98,20.13-13.59.59-.12.86.75.27.96-3.76,1.39-7.41,3.04-10.6,5.33-5.09,3.34-8.06,8.51-11.13,13.64-3.22,5.39-8.98,9.33-15.16,10.24-.6.1-.82-.81-.21-.98h0Z"/>
    <path class="cls-4" d="M503.35,214.48c-9.46,31.08-29.82,58.83-56.77,77.01-3.85,2.59-7.82,5-11.91,7.17-.24.13-.55.04-.68-.21-.12-.23-.04-.52.17-.66,3.87-2.48,7.69-5.04,11.35-7.79,16.53-12.25,30.91-27.52,41.75-45.02,6.12-9.7,11.09-20.06,15.13-30.82.1-.26.38-.39.64-.29.25.09.38.36.3.61h0Z"/>
    <path class="cls-4" d="M440.41,307.84c4.24,1.61,8.68,2.71,13.21,2.94,4.61.05,9.43-.39,13.94.98,3.05.78,5.97,1.99,8.72,3.46.24.13.34.43.21.68-.12.23-.41.32-.65.22-5.54-2.49-11.52-4-17.6-3.68-3.08.21-6.35.18-9.4-.48-3.11-.58-6.1-1.7-8.84-3.21-.53-.29-.16-1.13.42-.91h0Z"/>
    <path class="cls-4" d="M328.93,175.73c6.15,7.46,10.65,17.62,9.72,27.44-.05.53-.84.6-1,.1-2.21-6.88-3.64-13.81-6.58-20.41-.92-2.21-1.94-4.37-2.98-6.57-.26-.51.48-.99.84-.55h0Z"/>
    <path class="cls-4" d="M312.37,188.08c23.1,14.78,40.25,39.27,45.26,66.33.09.56-.75.86-.97.25-6.23-19.24-16.33-37.1-30.18-51.86-4.59-4.92-9.51-9.53-14.7-13.9-.45-.36.06-1.16.59-.81h0Z"/>
    <path class="cls-4" d="M359.59,218.06c2.8,5.87,3.87,12.58,3.04,19.04-.31,2.16-.88,4.29-1.89,6.23-.13.25-.43.35-.68.22-.19-.1-.3-.31-.27-.51.81-5.97,1.59-12.6.36-18.54-.38-2.04-.86-4.07-1.48-6.08-.18-.58.67-.92.93-.36h0Z"/>
    <path class="cls-4" d="M311.7,241.56c11.44-2.24,23.75-.72,34.05,4.86.55.3.13,1.16-.45.89-10.35-4.91-22.1-6.7-33.42-4.77-.62.11-.82-.86-.18-.98h0Z"/>
    <path class="cls-4" d="M210.41,204.6c16.19-14.4,42.89-15.83,60.23-2.67.44.33.05,1.08-.48.88-14.43-5.17-29.9-6.69-44.75-2.67-4.9,1.29-9.69,3.1-14.45,5.29-.49.25-.99-.47-.55-.83h0Z"/>
    <path class="cls-4" d="M248.44,216.61c12.64-1.14,25.57,3.14,35.14,11.46.48.42-.14,1.18-.65.76-9.43-8.06-22.04-12.18-34.41-11.22-.64.05-.74-.94-.08-1h0Z"/>
    <path class="cls-4" d="M181.46,210.2c16.77-5.4,36.25-3.43,51.35,6.15,12.66,7.84,23.14,19.56,28.54,33.51,4.49,13.74,10.19,26.74,18.51,38.75.15.23.09.54-.13.7-.21.14-.49.1-.66-.08-7.67-8.75-13.98-18.87-18.33-29.81-1.65-4.05-2.98-8.02-4.92-11.86-3.21-6.23-7.33-11.96-12.25-16.99-16.37-17.08-38.56-23.98-61.89-19.4-.27.05-.53-.13-.58-.4-.05-.25.11-.5.34-.57h0Z"/>
    <path class="cls-4" d="M256.89,255.87c7.14,13.39,5.07,32.12-6.5,42.42-.4.36-1.04-.13-.8-.6,4.59-9.64,7.93-19.93,7.51-30.71-.07-3.56-.53-7.13-1.15-10.77-.12-.54.69-.83.94-.33h0Z"/>
    <path class="cls-4" d="M225.07,221.35c14.78,15.06,17.74,40.44,6.47,58.34-.3.49-1.11.12-.9-.44,5.34-14.09,5.32-29.62-.08-43.64-1.69-4.67-3.87-9.17-6.3-13.67-.28-.48.41-1.02.8-.6h0Z"/>
    <path class="cls-4" d="M190.66,215.65c15.73,15,17.02,41.99,3.44,58.8-.17.22-.49.25-.71.08-.19-.15-.24-.42-.13-.63,2.4-4.58,4.25-9.37,5.38-14.31,2.31-9.82,1.64-20.22-1.79-29.7-1.72-4.75-4.07-9.29-6.95-13.6-.34-.47.35-1.07.76-.64h0Z"/>
    <path class="cls-4" d="M117.96,267c-1.46-31.32,8.67-63.47,28.82-87.61.18-.21.49-.24.71-.06.2.16.23.45.1.66-12.69,19.43-21.99,41.04-26.02,63.93-1.37,7.6-2.22,15.31-2.6,23.07-.01.28-.25.49-.52.48-.26-.01-.46-.22-.48-.48h0Z"/>
    <path class="cls-4" d="M136.54,204.9c8.8-.96,17.22-5.02,23.53-11.2.45-.46,1.18.26.7.71-4.96,4.64-10.98,8.08-17.49,10.03-2.16.64-4.38,1.12-6.61,1.46-.27.04-.53-.15-.57-.42-.04-.28.16-.54.44-.57h0Z"/>
    <path class="cls-4" d="M132.86,181.86c-2.57,5.95-4.09,12.18-3.52,18.69.05.55-.78.74-.97.22-2.52-6.41-1.28-14.55,3.66-19.48.38-.38,1.04.08.83.56h0Z"/>
    <path class="cls-4" d="M123.67,237.29c4.99-3.86,11.12-6.38,17.33-7.34,6.11-.81,10.93-4.81,14.25-9.88.32-.51,1.15-.04.86.5-2.09,4.26-5.58,8.16-10.04,10.1-4.4,1.77-9.16,1.84-13.5,3.67-2.86,1.03-5.64,2.32-8.36,3.78-.52.3-1.03-.48-.54-.84h0Z"/>
    <path class="cls-4" d="M114.98,217.62c-.38,3.12-.58,6.18-.42,9.23.11,3.14.88,6.01.79,9.21-.91,2.27-2.79-3.54-2.81-4.26-.28-1.62-.41-3.26-.4-4.9.02-3.27.62-6.55,1.87-9.54.21-.53,1.05-.3.97.26h0Z"/>
    <path class="cls-4" d="M282.71,379.91c34.2-14.61,60.74-39.69,73.39-75.08.09-.26.38-.39.64-.3.25.09.38.36.31.61-1.23,4.41-2.78,8.73-4.57,12.96-8.92,21.25-24.64,39.59-44.19,51.8-7.86,4.83-16.36,8.66-25.26,10.95-.27.07-.54-.09-.61-.36-.06-.24.06-.49.28-.58h0Z"/>
    <path class="cls-4" d="M343.09,300.41c1.87,13.19-2.87,27.5-12.79,36.47-.43.4-1.11-.22-.73-.68,3.96-5.12,7.2-10.69,9.36-16.77,2.15-6.03,3.14-12.45,3.17-18.95,0-.6.92-.68,1-.07h0Z"/>
    <path class="cls-4" d="M342.84,343.43c7.84-2.28,15.1-6.41,20.93-12.15.44-.45,1.16.24.72.7-2.84,3.07-6.15,5.7-9.77,7.81-3.62,2.11-7.55,3.7-11.63,4.61-.61.14-.86-.79-.25-.97h0Z"/>
    <path class="cls-4" d="M300.74,380.27c2.34.28,4.67.37,6.99.26,2.37-.03,4.56-.72,6.96-.63.29.02.51.27.5.56-.01.17-.11.32-.24.41-2.17,1.28-4.74,1.27-7.17,1.37-2.45.01-4.9-.31-7.23-.98-.27-.08-.42-.35-.34-.62.07-.24.3-.39.54-.36h0Z"/>
    <path class="cls-4" d="M311.72,322.38c.9,16.64-6.21,34.22-19.82,44.21-.46.34-1.07-.31-.67-.74,8.14-9.04,14.65-19.55,17.51-31.44.99-3.93,1.64-7.95,1.98-12.03.04-.59.97-.61,1,.01h0Z"/>
    <path class="cls-4" d="M224.22,324.48c-.36,17.29,8.09,33.31,21.88,43.58.48.34-.01,1.14-.54.84-11.76-6.18-19.83-18.39-22.03-31.39-.72-4.34-.86-8.77-.31-13.1.08-.6,1-.56,1,.07h0Z"/>
    <path class="cls-4" d="M215.47,390.67c5.31-2.18,10.87-3.94,16.63-4.35.28,0,.52.21.53.5,0,.2-.11.38-.28.47-3.89,1.92-8.13,2.87-12.35,3.72-1.41.26-2.83.5-4.28.62-.55.06-.76-.76-.25-.97h0Z"/>
    <path class="cls-4" d="M173.17,374.98c6.15-2.02,12.47-3.44,18.86-4.48,2.14-.3,4.28-.57,6.46-.62.28,0,.51.22.52.5,0,.22-.13.41-.32.48-4.06,1.55-8.26,2.49-12.51,3.3-4.24.81-8.5,1.49-12.81,1.8-.57.05-.74-.81-.2-.98h0Z"/>
    <path class="cls-4" d="M136.02,339.85c4.45.16,8.44,1.77,12.53,3.27,4.03,1.55,8.02,3.19,11.85,5.23.5.25.22,1.06-.33.94-2.14-.39-4.24-.9-6.33-1.45-4.16-1.14-8.27-2.4-12.3-3.94-.68-.28-7.97-3.39-5.42-4.06h0Z"/>
    <path class="cls-4" d="M155.59,303.28c5.93,11.6,11.71,23.35,15.31,35.91.15.54-.64.88-.92.39-3.42-5.59-5.97-11.58-8.46-17.61-2.47-6.02-4.83-12.08-6.84-18.3-.18-.56.64-.93.92-.39h0Z"/>
    <path class="cls-4" d="M187.37,312.01c-.69,16.45,5.35,32.78,16.12,45.17.41.46-.3,1.14-.74.68-11.8-11.94-17.86-29.22-16.38-45.91.06-.62,1.02-.59,1,.06h0Z"/>
    <path class="cls-4" d="M265.17,328.94c11.36,19.58,11.32,45.49-1.14,64.55-.15.23-.46.3-.69.15-.22-.14-.29-.43-.17-.65,7.79-14.61,10.49-31.84,6.66-48-1.23-5.37-3.11-10.6-5.54-15.58-.28-.54.56-1.04.88-.47h0Z"/>
    <path class="cls-4" d="M137.01,309.6c21.14,26.88,49.23,48.24,80.99,60.97,10.53,4.32,21.4,7.78,32.47,10.65.27.07.43.34.36.61-.06.25-.31.41-.56.37-34.2-5.37-66.15-22.55-91.31-46.1-8.41-7.88-16.03-16.58-22.75-25.9-.16-.22-.11-.54.11-.7.22-.16.52-.11.69.1h0Z"/>
    <path class="cls-4" d="M316.24,397.45c4.73,12.03,10.16,24.27,16.75,35.37.3.5-.44,1.04-.82.57-8.43-10.21-14.64-22.58-16.89-35.68-.1-.57.76-.81.96-.27h0Z"/>
    <path class="cls-4" d="M309.35,396.57c-5.38,9.4-10.66,18.66-14.62,28.71-4.01,10-6.64,20.45-8.34,31.12-.08.57-1,.55-1-.07-.04-16.51,4.61-33.11,13.02-47.32,2.87-4.72,6.2-9.18,10.14-13.04.39-.4,1.09.12.79.61h0Z"/>
    <path class="cls-4" d="M305.29,426.24c1.73,8.67,5.24,16.96,11.02,23.73.41.47-.31,1.13-.74.67-6.32-6.46-10.63-15.21-11.27-24.27-.04-.61.87-.74.99-.14h0Z"/>
    <path class="cls-4" d="M257.82,426.95c15-3.66,27.72-12.82,37.11-24.93.36-.47,1.14.04.83.56-7.82,13.59-22.46,22.64-37.73,25.34-.61.1-.83-.81-.21-.98h0Z"/>
    <path class="cls-4" d="M284.08,424.82c-4.21,12.38-15.51,21.87-28.07,25.02-.58.14-.88-.7-.32-.95,8.67-3.82,16.22-9.45,22.06-16.83,1.97-2.41,3.72-5,5.43-7.67.29-.49,1.1-.12.9.43h0Z"/>
    <path class="cls-4" d="M153.86,402.57c13.13,1.35,26.25,2.78,39.31,4.72.61.09.52,1.05-.12.99-6.58-.58-13.13-1.34-19.68-2.15-6.55-.8-13.09-1.64-19.63-2.57-.62-.09-.53-1.06.12-.99h0Z"/>
    <path class="cls-4" d="M131.24,416.94c26.76,5.4,53.58,2,79.05-7.34.26-.09.55.04.64.31.08.24-.02.49-.23.61-18.08,9.72-39.29,13.05-59.63,11.22-6.8-.66-13.53-1.92-20.06-3.82-.55-.17-.44-1.07.23-.97h0Z"/>
    <path class="cls-4" d="M197.95,420.66c-4.49,4.27-9.39,8.02-14.74,11.15-.49.29-1.02-.41-.6-.8,4.47-4.3,9.41-7.99,14.74-11.15.49-.3,1.02.41.6.8h0Z"/>
    <path class="cls-4" d="M87.99,325.25c7.03,1.47,13.52,5.74,17.87,11.49,2.86,3.8,5.04,7.9,7.87,11.67,4.14,5.6,9.21,10.42,14.79,14.61.49.36-.03,1.17-.57.82-7.97-5.11-14.81-12.06-19.82-20.09-2.48-3.92-5.04-7.68-8.67-10.57-3.5-2.91-7.5-5.14-11.77-6.98-.54-.21-.27-1.1.3-.95h0Z"/>
    <path class="cls-4" d="M91.54,265.38c1.98,9.38,3.26,18.9,3.26,28.49,0,.57-.87.67-.99.11-1.16-4.66-1.81-9.4-2.34-14.16-.5-4.75-.91-9.52-.92-14.33-.02-.58.88-.69.99-.11h0Z"/>
    <path class="cls-4" d="M51,260.96c14.29,9.85,25.46,24.4,30.93,40.9.19.58-.68.94-.94.35-4.95-11.83-11.98-22.78-21.02-31.9-3-3.04-6.21-5.88-9.57-8.55-.48-.38.06-1.17.59-.81h0Z"/>
    <path class="cls-4" d="M101.16,196.25c-2.67,10.41-6.06,22.34-9.05,32.12-.48,3.39-1.32,6.73-2.54,9.92-1.19,3.19-2.74,6.26-4.62,9.1-.34.51-1.16.05-.86-.51,3.2-5.87,5.31-12.28,6.2-18.9,1.32-4.67,3.36-11.34,4.78-16.06,1.66-5.33,3.33-10.66,5.12-15.95.19-.57,1.12-.34.96.28h0Z"/>
    <path class="cls-4" d="M72.07,187.24c6.18,10.61,4.01,23.21-1.06,33.79-.97,2.12-2.11,4.14-2.97,6.2-1.75,4.07-1.68,8.8-.34,13.08.08.26-.06.54-.33.63-.26.08-.53-.06-.62-.31-.79-2.21-1.25-4.56-1.3-6.93-.33-4.78,2.23-9.16,4.1-13.32,2.78-6.16,4.79-12.85,4.66-19.62-.04-2.24-.35-4.47-.86-6.66-.53-2.19-1.27-4.33-2.18-6.41-.26-.55.59-1.01.9-.44h0Z"/>
    <path class="cls-4" d="M90.24,174.09c4.47,11.34,4.57,24.73-.76,35.85-2.57,5.49-5.5,10.69-7.7,16.3-7.55,19.19-9.15,41.67,1.04,60.22,4.11,7.98,9.72,15.08,16.07,21.43.2.19.2.51,0,.71-.19.19-.49.2-.69.02-25.73-22.58-31.63-51.9-19.17-83.49,2.29-5.72,5.49-10.97,8.11-16.29,5.46-10.68,5.92-23.17,3.09-34.76h0Z"/>
    <path class="cls-4" d="M229.61,45.2c4.24,3.87,3.5,12-1.76,14.63-.41.21-.91-.22-.75-.66,1.59-4.52,2.73-8.7,1.64-13.48-.11-.48.53-.83.87-.49h0Z"/>
    <path class="cls-4" d="M212.62,42.87c10.13,15.67,6.28,37.16-8.02,48.91-.43.37-1.08-.22-.73-.68,10.84-14.61,14.56-30.48,7.86-47.78-.22-.54.59-.95.9-.45h0Z"/>
    <path class="cls-4" d="M191.1,40.37c4.74,9.42,10.52,18.61,16.07,27.54.3.47-.36,1.02-.77.64-2.06-1.8-3.89-3.82-5.57-5.96-1.68-2.15-3.21-4.41-4.57-6.77-1.36-2.36-2.6-4.8-3.62-7.32-1.03-2.52-1.91-5.11-2.48-7.78-.13-.55.69-.86.94-.34h0Z"/>
    <path class="cls-4" d="M150.67,63.66c-1.86,6.96-2.97,13.88-2.26,21.04.99,7.54-.32,15.62-5.72,21.29-.37.42-1.09-.06-.82-.56,1.58-3.25,2.71-6.6,3.21-9.99.51-3.39.17-6.78-.12-10.47-.65-7.44,1.05-15.23,4.8-21.68.27-.5,1.09-.17.92.38h0Z"/>
    <path class="cls-4" d="M111.59,58.58c.9,5.17,2.47,10.29,5.31,14.73,2.98,4.45,5.3,9.48,6.58,14.69.15.61-.78.88-.96.26-1.49-5.09-3.76-9.86-6.7-14.28-2.86-4.62-4.5-9.91-5.21-15.26-.08-.63.87-.79.99-.15h0Z"/>
    <path class="cls-4" d="M74.59,77.72c23.67-.03,47.41,14.89,56.22,37.1.21.52-.54.96-.87.49-3.5-4.63-7.15-8.99-11.18-12.94-8.02-7.9-17.57-14.14-27.97-18.42-5.24-2.14-10.69-3.82-16.31-5.23-.55-.12-.47-1.01.12-.99h0Z"/>
    <path class="cls-4" d="M63.4,115.27c7.13-9.06,22.35-17.47,34.07-14.6.49.12.51.85.03,1-4.54,1.59-8.84,2.25-13.3,3.6-4.34,1.36-8.5,3.19-12.44,5.51-2.63,1.55-5.17,3.29-7.65,5.2-.44.37-1.08-.27-.7-.71h0Z"/>
    <path class="cls-4" d="M86.05,132.6c6.26-9.72,19.91-17.39,31.35-12.65.47.2.35.94-.15.99-8.51.93-16.57,2.05-23.71,7.05-2.35,1.54-4.57,3.32-6.73,5.25-.41.4-1.09-.17-.76-.64h0Z"/>
    <path class="cls-4" d="M31.17,195c2.66-12.71,10.48-25.21,22.31-31.17.5-.25.98.45.57.82-6.93,6.55-13.53,13.41-17.92,21.94-1.51,2.79-2.81,5.7-4,8.69-.2.55-1.09.3-.96-.28h0Z"/>
  </g>
</svg>