<svg width="107" height="90" viewBox="0 0 107 90" fill="none" xmlns="http://www.w3.org/2000/svg">
<path d="M20.1745 39.2266C19.9559 40.1208 20.254 40.3592 20.4725 42.2469C21.5256 51.1486 15.9223 55.7584 14.6308 62.3155C12.8425 71.416 18.9426 82.7816 25.6586 84.5699C29.116 85.484 30.0697 83.1393 39.508 83.0002C41.8129 82.9605 42.3295 83.0996 48.2707 83.1592C52.6818 83.1989 54.4701 83.1592 56.8744 83.1592C70.4655 83.1989 71.0814 85.027 74.1414 83.6559C80.0825 80.9933 83.4803 71.4756 82.4669 64.2429C81.6721 58.6197 78.3538 55.7783 76.2079 44.6511C75.572 41.3726 75.8502 41.5514 75.4926 40.6771C69.8495 27.1457 22.7178 28.9936 20.1745 39.2266Z" fill="#5FAF31"/>
<path d="M27.2086 85.0667C26.7118 85.0667 26.1952 85.0071 25.5991 84.8481C22.3007 83.9739 18.9824 80.7947 16.6974 76.3239C14.3527 71.7141 13.4983 66.5876 14.3527 62.256C14.8495 59.7523 15.9224 57.5865 17.0749 55.2816C18.9228 51.5659 20.8502 47.731 20.1945 42.2667C20.115 41.5514 20.0157 41.0944 19.9362 40.7169C19.817 40.1208 19.7375 39.7631 19.8964 39.1472V39.1273C20.4329 36.9813 22.8571 35.0738 26.8907 33.6233C30.5865 32.292 35.4149 31.3581 40.8792 30.9607C48.4099 30.4044 56.2585 30.9011 62.4182 32.3516C69.6112 34.0406 74.221 36.882 75.7311 40.5579C75.9298 41.0348 75.9497 41.2534 76.0093 41.7501C76.0689 42.2071 76.1484 42.9821 76.4663 44.6114C77.6585 50.791 79.2481 54.447 80.5198 57.3878C81.5332 59.7126 82.3876 61.7195 82.7452 64.2231C83.7387 71.2968 80.48 81.1523 74.2607 83.954C72.6513 84.6693 71.6975 84.5501 69.3926 84.252C67.0877 83.954 63.6303 83.497 56.8745 83.4771C56.04 83.4771 55.265 83.4771 54.4305 83.4771C52.8806 83.497 51.1321 83.497 48.2708 83.4771C45.1711 83.4374 43.5616 83.3976 42.3694 83.3579C41.3163 83.3181 40.601 83.2983 39.5081 83.3181C34.5208 83.3976 31.9575 84.0732 30.0699 84.57C28.977 84.8481 28.1226 85.0667 27.2086 85.0667ZM20.4528 39.326C20.3336 39.8029 20.3932 40.0612 20.5124 40.6175C20.5919 40.9752 20.6912 41.4719 20.7707 42.2071C21.4463 47.8502 19.4792 51.7646 17.5915 55.5598C16.4589 57.8249 15.4058 59.951 14.9289 62.3752C14.0944 66.5677 14.9488 71.5551 17.2339 76.0457C19.4394 80.3774 22.6186 83.4374 25.7581 84.2719C27.308 84.6693 28.3014 84.411 29.9507 83.9739C31.8582 83.4572 34.481 82.7618 39.528 82.7022C40.6407 82.6823 41.356 82.7022 42.4091 82.7419C43.5815 82.7817 45.1909 82.8214 48.2907 82.8611C51.1519 82.9009 52.9005 82.881 54.4504 82.8611C55.2849 82.8611 56.04 82.8413 56.8944 82.8611C63.6899 82.881 67.3261 83.3579 69.4919 83.6361C71.7373 83.9341 72.5718 84.0335 74.0223 83.3778C78.8308 81.2119 83.3612 72.8467 82.169 64.2827C81.8312 61.8387 81.0165 59.9709 79.9833 57.6064C78.7116 54.6457 77.1022 50.9698 75.8901 44.7107C75.5722 43.0814 75.4728 42.2866 75.4331 41.8097C75.3735 41.3328 75.3536 41.1938 75.1946 40.7765C73.7441 37.2794 69.2933 34.5572 62.2791 32.9278C56.1791 31.4972 48.39 31.0005 40.9388 31.5568C29.4539 32.4311 21.4264 35.4712 20.4528 39.326C20.4727 39.326 20.4727 39.3061 20.4528 39.326Z" fill="#559D2B"/>
<g opacity="0.21">
<path d="M14.9887 62.0374C14.8099 61.7989 14.9688 61.4015 15.0284 61.2823C15.4854 60.1298 15.8232 58.9376 16.3995 57.8448C17.4923 55.7982 17.85 54.6457 18.0288 54.7053C18.1083 54.7252 18.0487 55.063 17.9692 55.7783C17.9692 55.8379 17.8897 57.1493 17.7506 59.7722C17.7109 60.4676 17.6115 61.1432 17.6314 61.8387C17.6513 62.7129 17.7506 63.309 17.5122 63.4084C17.4327 63.4481 17.3532 63.4084 16.5783 62.9116C15.7438 62.3751 15.6841 62.3354 15.5252 62.2957C15.247 62.1764 15.088 62.1963 14.9887 62.0374Z" fill="#4D8C32"/>
</g>
<g opacity="0.21">
<path d="M20.274 39.465C19.8369 40.4784 21.2675 41.9091 20.7906 45.1876C20.5721 46.7176 20.0157 47.9893 20.2343 48.0886C20.5522 48.2277 21.5457 44.8299 23.9897 44.0351C25.6588 43.4987 27.3279 44.3928 27.9041 44.6909C34.0638 47.8303 46.3037 48.1284 48.4695 48.188C54.3908 48.3271 65.0014 46.5984 69.5715 44.3928C69.9887 44.1941 71.022 43.6576 72.2341 43.9159C75.2146 44.5319 76.4068 49.3404 76.8836 49.1616C77.1221 49.0623 76.6253 47.8303 76.3471 45.2472C76.1484 43.4589 76.2081 42.4853 75.6318 40.995C75.6318 40.995 75.3139 40.1605 74.9364 39.5445C73.2474 36.8025 59.0006 42.1078 47.0588 42.4058C33.5074 42.7833 21.4464 36.7826 20.274 39.465Z" fill="#4D8C32"/>
</g>
<g opacity="0.21">
<path d="M77.7778 53.2549C77.0426 53.4536 79.5264 59.2357 76.7645 62.9316C76.228 63.6469 75.5723 64.1834 74.5986 65.7134C73.6449 67.2036 72.5918 69.3496 72.9693 69.6277C73.4859 70.0053 75.4332 66.1306 79.6257 65.1173C80.9173 64.7993 81.732 64.9186 82.189 64.243C82.7652 63.3687 82.1492 62.1169 80.8179 59.2556C78.5528 54.3278 78.1156 53.1754 77.7778 53.2549Z" fill="#4D8C32"/>
</g>
<path d="M31.5007 56.5333C31.759 56.5333 31.9975 57.7454 32.4743 60.1695C32.673 61.163 32.8121 62.0771 32.9115 62.9116C33.1897 65.0774 33.2095 66.6273 33.2294 67.2433C33.2691 68.0579 33.5473 74.0785 37.5809 77.9532C38.9321 79.2447 40.2634 79.8607 41.0979 80.2581C44.5155 81.8278 47.2576 81.49 52.1258 81.2715C62.9549 80.7747 65.0413 81.7484 66.7898 79.7017C68.1211 78.1519 67.2866 77.1783 69.0351 73.5619C69.2338 73.1645 72.2342 67.0247 74.102 67.4817C76.7844 68.1175 78.1555 80.7946 73.4264 83.7751C71.7374 84.8481 70.5254 83.6559 64.2266 83.2982C61.7627 83.1591 58.3252 83.1591 51.4502 83.179C46.1052 83.1989 42.6676 83.2585 37.7796 82.4239C35.7728 82.0663 34.7793 81.9073 34.2626 81.6291C26.8114 77.516 30.388 56.5731 31.5007 56.5333Z" fill="#4D8C32"/>
<path d="M27.2086 85.0667C26.7118 85.0667 26.1952 85.0071 25.5991 84.8481C22.3007 83.9739 18.9824 80.7947 16.6974 76.3239C14.3527 71.7141 13.4983 66.5876 14.3527 62.256C14.8495 59.7523 15.9224 57.5865 17.0749 55.2816C18.9228 51.5659 20.8502 47.731 20.1945 42.2667C20.115 41.5514 20.0157 41.0944 19.9362 40.7169C19.817 40.1208 19.7375 39.7631 19.8964 39.1472V39.1273C20.4329 36.9813 22.8571 35.0738 26.8907 33.6233C30.5865 32.292 35.4149 31.3581 40.8792 30.9607C48.4099 30.4044 56.2585 30.9011 62.4182 32.3516C69.6112 34.0406 74.221 36.882 75.7311 40.5579C75.9298 41.0348 75.9497 41.2534 76.0093 41.7501C76.0689 42.2071 76.1484 42.9821 76.4663 44.6114C77.6585 50.791 79.2481 54.447 80.5198 57.3878C81.5332 59.7126 82.3876 61.7195 82.7452 64.2231C83.7387 71.2968 80.48 81.1523 74.2607 83.954C72.6513 84.6693 71.6975 84.5501 69.3926 84.252C67.0877 83.954 63.6303 83.497 56.8745 83.4771C56.04 83.4771 55.265 83.4771 54.4305 83.4771C52.8806 83.497 51.1321 83.497 48.2708 83.4771C45.1711 83.4374 43.5616 83.3976 42.3694 83.3579C41.3163 83.3181 40.601 83.2983 39.5081 83.3181C34.5208 83.3976 31.9575 84.0732 30.0699 84.57C28.977 84.8481 28.1226 85.0667 27.2086 85.0667ZM20.4528 39.326C20.3336 39.8029 20.3932 40.0612 20.5124 40.6175C20.5919 40.9752 20.6912 41.4719 20.7707 42.2071C21.4463 47.8502 19.4792 51.7646 17.5915 55.5598C16.4589 57.8249 15.4058 59.951 14.9289 62.3752C14.0944 66.5677 14.9488 71.5551 17.2339 76.0457C19.4394 80.3774 22.6186 83.4374 25.7581 84.2719C27.308 84.6693 28.3014 84.411 29.9507 83.9739C31.8582 83.4572 34.481 82.7618 39.528 82.7022C40.6407 82.6823 41.356 82.7022 42.4091 82.7419C43.5815 82.7817 45.1909 82.8214 48.2907 82.8611C51.1519 82.9009 52.9005 82.881 54.4504 82.8611C55.2849 82.8611 56.04 82.8413 56.8944 82.8611C63.6899 82.881 67.3261 83.3579 69.4919 83.6361C71.7373 83.9341 72.5718 84.0335 74.0223 83.3778C78.8308 81.2119 83.3612 72.8467 82.169 64.2827C81.8312 61.8387 81.0165 59.9709 79.9833 57.6064C78.7116 54.6457 77.1022 50.9698 75.8901 44.7107C75.5722 43.0814 75.4728 42.2866 75.4331 41.8097C75.3735 41.3328 75.3536 41.1938 75.1946 40.7765C73.7441 37.2794 69.2933 34.5572 62.2791 32.9278C56.1791 31.4972 48.39 31.0005 40.9388 31.5568C29.4539 32.4311 21.4264 35.4712 20.4528 39.326C20.4727 39.326 20.4727 39.3061 20.4528 39.326Z" fill="#559D2B"/>
<path d="M18.7837 64.9185C17.7306 64.0244 11.2331 58.5402 5.4509 61.0041C2.68897 62.1765 1.39742 64.6403 1.17885 65.0973C-1.94073 71.3564 4.19909 78.8076 4.73558 79.4435C5.37142 80.1985 9.40503 84.8084 16.2006 85.4641C18.4856 85.6827 23.1551 86.1397 25.3606 83.4771C28.7584 79.364 24.6652 69.8661 18.7837 64.9185Z" fill="#5FAF31"/>
<path d="M19.1216 85.9409C17.989 85.9409 16.9557 85.8416 16.1808 85.7621C9.64358 85.1263 5.60997 80.9138 4.51712 79.6223C4.1992 79.2448 2.53012 77.218 1.31805 74.4958C-0.291422 70.8795 -0.430511 67.6606 0.920648 64.9582C1.27831 64.2628 2.6096 61.8784 5.35166 60.7259C10.6967 58.4409 16.6378 62.7129 18.9626 64.68L18.9825 64.6999C21.8835 67.1439 24.4467 70.7801 25.8376 74.4163C27.3279 78.3307 27.2285 81.7086 25.5992 83.6758C24.0493 85.5237 21.3867 85.9409 19.1216 85.9409ZM8.63021 60.6663C7.61684 60.6663 6.5836 60.8451 5.5901 61.2624C3.04674 62.3553 1.77506 64.5807 1.45714 65.2165C0.185458 67.7599 0.324548 70.8 1.87441 74.2375C3.06661 76.9001 4.67608 78.8672 4.97413 79.2249C6.02724 80.4568 9.92176 84.5302 16.2404 85.1461C18.446 85.3647 23.036 85.8019 25.1422 83.2585C26.6324 81.4503 26.692 78.291 25.2813 74.5952C23.9301 71.0583 21.4464 67.5215 18.6248 65.1371L18.6049 65.1172C16.8166 63.6269 12.7632 60.6663 8.63021 60.6663Z" fill="#559D2B"/>
<path d="M75.9299 65.4749C79.0296 62.713 85.2887 60.6862 88.6268 60.9843C89.5011 61.0638 92.6406 61.342 94.4885 63.468C97.767 67.2433 95.0647 74.6548 92.0842 78.7481C91.3093 79.8012 87.5737 84.9078 80.9172 85.6628C79.4071 85.8417 74.1813 86.4179 71.4393 83.2586C67.5249 78.7679 71.1611 69.7072 75.9299 65.4749Z" fill="#5FAF31"/>
<path d="M78.4733 86.1C75.1749 86.1 72.7309 85.2059 71.181 83.4375C67.0083 78.6289 71.1413 69.3099 75.7114 65.2564C78.9899 62.3355 85.3483 60.3883 88.6269 60.6863C91.3689 60.9247 93.4155 61.799 94.6872 63.2893C98.0651 67.2037 95.3231 74.794 92.283 78.927C89.3223 82.9804 85.2887 85.4642 80.8974 85.9609C80.0629 86.0404 79.2482 86.1 78.4733 86.1ZM76.1088 65.6935C73.7641 67.7799 71.6778 71.0982 70.7041 74.3569C69.5914 77.9931 69.9292 81.0928 71.638 83.0401C73.3866 85.0668 76.5062 85.8417 80.8577 85.345C85.0701 84.8681 88.9647 82.4638 91.8259 78.5494C94.7468 74.5754 97.4293 67.303 94.2501 63.6469C93.0778 62.2759 91.1702 61.4811 88.5871 61.2625C85.5073 61.0042 79.2482 62.9117 76.1088 65.6935Z" fill="#559D2B"/>
<g opacity="0.38">
<path d="M48.6285 49.5789C59.1397 49.6583 67.1275 58.421 66.2731 67.283C65.518 75.0522 58.0866 81.967 48.8272 82.1061C38.8525 82.265 30.5667 74.5356 30.6263 65.7133C30.6859 57.0699 38.7929 49.4994 48.6285 49.5789Z" fill="#CDDA69"/>
</g>
<g opacity="0.21">
<path d="M71.4194 83.2387C72.2142 83.4374 73.4858 82.3445 73.6448 81.1921C73.7839 80.3178 73.2275 79.6819 72.9692 79.1653C71.4591 76.2246 75.5126 70.1046 80.2218 66.7267C81.8511 65.5544 83.5599 64.3423 86.1232 64.0641C86.7193 64.0045 91.3092 63.5872 93.2366 66.1107C95.8594 69.5681 92.104 76.9995 87.216 80.4569C87.1763 80.4966 87.0769 80.5562 86.9577 80.6357C85.9443 81.3312 82.6459 83.338 78.652 82.6227C77.8175 82.4637 76.0888 82.1657 74.4595 80.9139C73.2673 79.98 72.8699 79.1057 72.234 79.2249C71.3399 79.3839 70.5451 81.2914 71.022 82.722C71.5386 84.3116 73.5057 84.8481 74.8171 85.325C79.8244 87.0934 84.5534 84.9674 85.6463 84.4507C90.5343 82.0465 92.879 77.8738 93.6936 76.1252C94.5282 74.3766 97.8465 67.3824 94.4884 63.4879C91.6271 60.1696 85.8052 61.2426 82.8645 61.7989C82.2684 61.9182 80.4403 62.4745 78.3142 63.8257C77.6784 64.2231 71.1412 68.4951 70.1278 76.2842C69.7701 79.066 70.1477 82.9208 71.4194 83.2387Z" fill="#4D8C32"/>
</g>
<path d="M78.4733 86.1C75.1749 86.1 72.7309 85.2059 71.181 83.4375C67.0083 78.6289 71.1413 69.3099 75.7114 65.2564C78.9899 62.3355 85.3483 60.3883 88.6269 60.6863C91.3689 60.9247 93.4155 61.799 94.6872 63.2893C98.0651 67.2037 95.3231 74.794 92.283 78.927C89.3223 82.9804 85.2887 85.4642 80.8974 85.9609C80.0629 86.0404 79.2482 86.1 78.4733 86.1ZM76.1088 65.6935C73.7641 67.7799 71.6778 71.0982 70.7041 74.3569C69.5914 77.9931 69.9292 81.0928 71.638 83.0401C73.3866 85.0668 76.5062 85.8417 80.8577 85.345C85.0701 84.8681 88.9647 82.4638 91.8259 78.5494C94.7468 74.5754 97.4293 67.303 94.2501 63.6469C93.0778 62.2759 91.1702 61.4811 88.5871 61.2625C85.5073 61.0042 79.2482 62.9117 76.1088 65.6935Z" fill="#559D2B"/>
<g opacity="0.21">
<path d="M9.44474 61.2228C9.26591 61.6599 15.1276 63.17 16.439 67.8196C16.9159 69.4887 16.2601 69.6278 16.4986 72.0122C17.0748 77.5758 20.9296 79.8012 19.7573 82.2651C19.2804 83.2586 18.267 83.6759 17.6908 83.8944C15.1872 84.8879 12.5445 83.3381 10.9747 82.4241C9.76266 81.7087 5.60983 79.0462 4.02023 73.6216C3.42413 71.6346 2.56972 69.0317 3.90101 66.6274C5.0336 64.6007 7.06034 63.8257 7.33852 63.7264C11.2132 62.3554 15.0282 65.4352 15.3461 64.8987C15.664 64.3622 12.6438 60.428 8.47111 60.3882C4.89451 60.3485 1.81466 63.1899 0.721813 66.1903C0.443633 66.9652 0.125713 68.2766 0.384023 70.3431C0.980123 75.092 4.35802 81.6293 11.0343 84.1329C15.1474 85.6827 22.8371 86.557 25.9567 82.0465C29.1558 77.4367 25.2414 70.2239 21.9827 66.7268C16.9357 61.3221 9.64344 60.7459 9.44474 61.2228Z" fill="#4D8C32"/>
</g>
<path d="M19.1216 85.9409C17.989 85.9409 16.9557 85.8416 16.1808 85.7621C9.64358 85.1263 5.60997 80.9138 4.51712 79.6223C4.1992 79.2448 2.53012 77.218 1.31805 74.4958C-0.291422 70.8795 -0.430511 67.6606 0.920648 64.9582C1.27831 64.2628 2.6096 61.8784 5.35166 60.7259C10.6967 58.4409 16.6378 62.7129 18.9626 64.68L18.9825 64.6999C21.8835 67.1439 24.4467 70.7801 25.8376 74.4163C27.3279 78.3307 27.2285 81.7086 25.5992 83.6758C24.0493 85.5237 21.3867 85.9409 19.1216 85.9409ZM8.63021 60.6663C7.61684 60.6663 6.5836 60.8451 5.5901 61.2624C3.04674 62.3553 1.77506 64.5807 1.45714 65.2165C0.185458 67.7599 0.324548 70.8 1.87441 74.2375C3.06661 76.9001 4.67608 78.8672 4.97413 79.2249C6.02724 80.4568 9.92176 84.5302 16.2404 85.1461C18.446 85.3647 23.036 85.8019 25.1422 83.2585C26.6324 81.4503 26.692 78.291 25.2813 74.5952C23.9301 71.0583 21.4464 67.5215 18.6248 65.1371L18.6049 65.1172C16.8166 63.6269 12.7632 60.6663 8.63021 60.6663Z" fill="#559D2B"/>
<path d="M18.6447 52.6786C17.7705 58.4608 17.8102 63.309 18.0288 66.8062C18.5851 75.1913 20.4132 78.1321 21.0093 78.9467C21.1682 79.1653 23.2347 82.0266 23.2347 82.0266C23.2347 82.0266 22.6585 82.6624 21.3073 84.0136C19.8767 85.4442 19.7574 87.1133 19.8369 87.9876C19.8568 88.3254 20.1549 88.5638 20.4926 88.5241C21.4663 88.4048 23.4135 88.1068 24.2083 87.5504C25.5794 86.5967 26.5331 85.8217 26.5331 85.8217C26.5331 85.8217 27.1292 86.9941 28.3612 88.2061C28.6393 88.4843 29.613 88.9215 30.2289 89.1798C30.5667 89.3189 30.9443 89.299 31.2622 89.1202C31.6397 88.9016 32.1365 88.6035 32.3948 88.3254C33.9248 86.6761 34.4414 84.9475 34.4414 84.9475C34.4414 84.9475 35.7131 85.4243 37.9981 86.1595C38.773 86.398 39.9255 86.4775 40.6806 86.5172C41.0581 86.5371 41.3164 86.1595 41.1972 85.8019C40.8991 84.9276 40.2832 83.4572 39.4287 82.6028C37.8988 81.0529 36.7662 80.9536 35.5938 80.0793C33.4479 78.4698 33.0902 75.6284 32.7326 72.2903C32.1365 66.8459 31.7391 61.5803 31.4609 56.4936" fill="#5FAF31"/>
<path d="M30.7059 89.617C30.5072 89.617 30.3085 89.5772 30.1296 89.4977C29.0765 89.0606 28.4208 88.7029 28.1625 88.4645C27.2684 87.5902 26.712 86.7557 26.4537 86.3185C26.0762 86.6166 25.3211 87.1729 24.3872 87.8287C23.5527 88.4248 21.6054 88.7228 20.5324 88.842C20.294 88.8619 20.0555 88.8023 19.8767 88.6433C19.6979 88.4844 19.5787 88.2658 19.5588 88.0274C19.4793 87.0935 19.5985 85.325 21.1087 83.8149C22.0425 82.881 22.5989 82.2849 22.8572 82.0068C22.3803 81.351 20.8901 79.3044 20.7709 79.1256C19.8568 77.8539 18.2275 74.5555 17.7308 66.8261C17.4327 62.1566 17.6314 57.3878 18.3467 52.6389C18.3666 52.4799 18.5256 52.3607 18.6845 52.3806C18.8435 52.4005 18.9627 52.5594 18.9428 52.7184C18.2474 57.4276 18.0288 62.1566 18.3269 66.7863C18.8236 74.3767 20.3735 77.5559 21.2477 78.7679C21.4067 78.9865 23.4533 81.8081 23.4732 81.8478C23.5527 81.967 23.5527 82.126 23.4533 82.2253C23.4334 82.2452 22.8572 82.881 21.5061 84.2322C20.1549 85.5834 20.0555 87.1531 20.1152 87.9876C20.1152 88.0671 20.1549 88.1466 20.2145 88.1863C20.2741 88.2261 20.3536 88.2658 20.4331 88.2459C22.1816 88.0472 23.4732 87.7094 24.0097 87.3319C25.3608 86.3781 26.3146 85.6231 26.3146 85.6231C26.3941 85.5635 26.4736 85.5436 26.553 85.5635C26.6325 85.5833 26.712 85.643 26.7517 85.7224C26.7517 85.7423 27.3478 86.855 28.54 88.0274C28.7189 88.2062 29.3944 88.544 30.3085 88.9414C30.5668 89.0407 30.845 89.0407 31.0834 88.9016C31.5801 88.6235 31.9577 88.3651 32.1365 88.1664C33.587 86.5967 34.1235 84.9276 34.1235 84.9078C34.1434 84.8283 34.203 84.7687 34.2825 84.7289C34.3619 84.6892 34.4414 84.6892 34.5209 84.7091C34.5408 84.7091 35.8125 85.186 38.0578 85.9013C38.7731 86.1397 39.8659 86.2192 40.6607 86.2391C40.7402 86.2391 40.8197 86.1993 40.8594 86.1397C40.8992 86.0801 40.919 86.0006 40.8992 85.9211C40.621 85.1263 40.0249 83.656 39.2102 82.8413C38.2962 81.9074 37.5213 81.5299 36.7861 81.1523C36.3092 80.9139 35.8721 80.6953 35.4151 80.3377C33.1101 78.609 32.7922 75.5689 32.4346 72.3499C31.8782 67.1043 31.4411 61.7791 31.1629 56.5334C31.1629 56.3745 31.2821 56.2354 31.4411 56.2155C31.6 56.2155 31.7391 56.3347 31.759 56.4937C32.0372 61.7394 32.4544 67.0446 33.0307 72.2705C33.3684 75.3702 33.6864 78.2712 35.7727 79.8608C36.19 80.1787 36.6073 80.3973 37.0643 80.6159C37.7995 80.9934 38.6539 81.4107 39.6474 82.4042C40.5614 83.3182 41.1774 84.868 41.4754 85.7224C41.5748 85.9808 41.5151 86.2589 41.3562 86.4775C41.1972 86.6961 40.9389 86.8352 40.6607 86.8153C39.8262 86.7954 38.6737 86.6961 37.8988 86.4576C36.2496 85.9211 35.117 85.5237 34.6203 85.3449C34.4017 85.9211 33.8056 87.2524 32.6134 88.544C32.3153 88.8619 31.7987 89.1798 31.4013 89.3984C31.2026 89.5375 30.9642 89.617 30.7059 89.617Z" fill="#559D2B"/>
<path d="M78.5525 20.1714C74.042 14.6674 63.6898 4.71255 47.8931 4.87151C28.7583 5.07021 17.9292 19.9528 16.8562 21.5027C15.207 23.6089 14.293 25.9337 14.293 28.3578C14.293 38.2928 29.5134 46.3402 48.2905 46.3402C67.0677 46.3402 82.2881 38.2928 82.2881 28.3578C82.2682 25.4171 80.9171 22.6353 78.5525 20.1714Z" fill="#5FAF31"/>
<path d="M48.2707 46.6382C39.1504 46.6382 30.5467 44.7505 24.0889 41.3329C17.5716 37.8954 13.9751 33.2855 13.9751 28.3776C13.9751 25.9336 14.8692 23.5691 16.5979 21.3437C17.7703 19.6547 28.7584 4.77209 47.8733 4.59326C47.9925 4.59326 48.1316 4.59326 48.2508 4.59326C63.809 4.59326 74.0421 14.2302 78.7712 20.0124C81.2549 22.5756 82.5663 25.4766 82.5663 28.3975C82.5663 33.3253 78.9698 37.9152 72.4525 41.3726C65.9947 44.7704 57.391 46.6382 48.2707 46.6382ZM48.2508 5.16949C48.1316 5.16949 48.0124 5.16949 47.8733 5.16949C29.0564 5.34832 18.2471 20.0124 17.0748 21.6815C15.4057 23.8274 14.5712 26.0727 14.5712 28.3776C14.5712 38.1338 29.6923 46.0619 48.2707 46.0619C66.8492 46.0619 81.9702 38.1338 81.9702 28.3776C81.9702 25.576 80.7383 22.8935 78.334 20.3899C78.3141 20.37 78.3141 20.37 78.2943 20.3502C73.6248 14.6475 63.5309 5.16949 48.2508 5.16949Z" fill="#559D2B"/>
<g opacity="0.21">
<path d="M32.6331 8.80569C32.6331 8.82556 32.792 8.8653 33.11 8.96465C33.865 9.18322 34.6002 9.22296 34.6002 9.22296C34.6002 9.22296 41.3361 6.18285 48.0323 6.20272C54.5696 6.22259 61.067 9.14348 61.067 9.14348C61.067 9.14348 61.6631 9.20309 61.9016 9.20309C62.2592 9.18322 63.2726 9.10374 63.3123 8.94478C63.4316 8.32881 56.2585 4.81182 48.0919 4.79195C39.8856 4.77208 32.5337 8.32881 32.6331 8.80569Z" fill="#4D8C32"/>
</g>
<path d="M48.2707 46.6382C39.1504 46.6382 30.5467 44.7505 24.0889 41.3329C17.5716 37.8954 13.9751 33.2855 13.9751 28.3776C13.9751 25.9336 14.8692 23.5691 16.5979 21.3437C17.7703 19.6547 28.7584 4.77209 47.8733 4.59326C47.9925 4.59326 48.1316 4.59326 48.2508 4.59326C63.809 4.59326 74.0421 14.2302 78.7712 20.0124C81.2549 22.5756 82.5663 25.4766 82.5663 28.3975C82.5663 33.3253 78.9698 37.9152 72.4525 41.3726C65.9947 44.7704 57.391 46.6382 48.2707 46.6382ZM48.2508 5.16949C48.1316 5.16949 48.0124 5.16949 47.8733 5.16949C29.0564 5.34832 18.2471 20.0124 17.0748 21.6815C15.4057 23.8274 14.5712 26.0727 14.5712 28.3776C14.5712 38.1338 29.6923 46.0619 48.2707 46.0619C66.8492 46.0619 81.9702 38.1338 81.9702 28.3776C81.9702 25.576 80.7383 22.8935 78.334 20.3899C78.3141 20.37 78.3141 20.37 78.2943 20.3502C73.6248 14.6475 63.5309 5.16949 48.2508 5.16949Z" fill="#559D2B"/>
<path d="M79.2483 21.0257C79.447 19.7739 80.3014 13.2764 76.4069 8.22943C75.473 7.01736 73.1482 3.97725 69.353 3.77855C65.8559 3.59972 63.4119 5.96425 62.8953 6.50074C59.4577 10.0376 59.9346 15.0846 59.9942 15.6409" fill="#5FAF31"/>
<path d="M79.2482 21.3238C79.2283 21.3238 79.2283 21.3238 79.2085 21.3238C79.0495 21.3039 78.9303 21.145 78.9502 20.986C79.2085 19.2374 79.8046 13.1374 76.1684 8.4083C75.2941 7.27571 72.9892 4.27534 69.3331 4.07664C66.1936 3.91768 63.9284 5.86494 63.1138 6.69948C59.7955 10.1171 60.2326 15.0647 60.3121 15.6012C60.332 15.7602 60.2128 15.9192 60.0538 15.939C59.8948 15.9589 59.7359 15.8397 59.716 15.6807C59.6167 14.727 59.259 9.81907 62.6965 6.28221C63.5708 5.38806 65.9949 3.30171 69.3728 3.48054C73.3071 3.67924 75.7312 6.85844 76.6452 8.03077C80.4007 12.9387 79.8046 19.2374 79.5463 21.0456C79.5264 21.2244 79.4072 21.3238 79.2482 21.3238Z" fill="#559D2B"/>
<g opacity="0.21">
<path d="M77.6784 21.0058C77.2413 19.0188 77.8175 18.1048 77.8374 16.2966C77.8771 12.1239 74.9165 9.10367 74.7576 8.94471C74.0621 8.26913 72.1745 6.42122 69.2337 6.302C66.5314 6.18278 64.5841 7.55381 64.1072 7.93134C60.4909 10.6734 60.5108 15.7204 60.014 15.6409C59.6166 15.5813 59.3186 12.3624 60.7095 9.2825C61.1665 8.26913 62.2792 5.9046 64.9616 4.53357C65.7962 4.09643 67.9421 3.18241 70.5054 3.73877C73.6448 4.39448 75.3934 6.81862 76.3869 8.22939C78.4136 11.0708 79.8443 15.3826 79.427 18.1247C79.3674 18.5022 79.1488 19.6745 79.586 21.0455C79.9039 22.039 80.4006 22.6749 80.6192 22.9531C82.1492 25.0195 82.8645 29.1724 81.6127 32.4708C81.4935 32.7887 81.3544 33.1066 81.1756 33.4444C81.1756 33.4444 80.3013 35.1532 78.6521 36.6236C72.1546 42.4058 62.6567 44.8498 62.6567 44.8498C59.2788 45.7241 54.1126 46.658 47.635 46.34C49.8008 46.2208 67.5845 45.0684 75.3735 37.0608C77.1618 35.2128 80.5795 31.8349 80.0827 27.543C79.8641 25.715 79.0495 24.1651 79.0495 24.1651C78.6123 23.4697 77.9964 22.3967 77.6784 21.0058Z" fill="#4D8C32"/>
</g>
<path d="M35.9713 16.5948C36.0508 15.7403 36.3687 11.5478 33.8055 7.87182C33.3485 7.21611 30.8846 3.69912 26.9305 3.65938C22.3405 3.59977 19.5984 8.22948 19.0421 9.18324C16.1212 14.111 17.2538 19.5753 17.4723 20.529" fill="#5FAF31"/>
<path d="M17.4724 20.8469C17.3333 20.8469 17.2141 20.7475 17.1743 20.6084C16.8366 19.0983 15.9623 13.793 18.7838 9.04411C20.9695 5.34829 23.8705 3.32155 26.9504 3.36129C30.5071 3.40103 32.9313 6.10335 34.0638 7.71282C36.5079 11.1901 36.4284 15.1045 36.2893 16.6344C36.2694 16.7934 36.1303 16.9126 35.9714 16.9126C35.8124 16.8928 35.6932 16.7537 35.6932 16.5947C35.8323 15.1442 35.9118 11.3888 33.5671 8.07048C32.514 6.56036 30.2289 4.017 26.9305 3.97726C24.0891 3.93752 21.3669 5.84504 19.3004 9.36203C16.5981 13.9321 17.4327 19.0387 17.7704 20.4892C17.8102 20.6482 17.7108 20.8071 17.5519 20.8469C17.5121 20.8469 17.4923 20.8469 17.4724 20.8469Z" fill="#559D2B"/>
<path d="M25.6588 10.0575C21.9431 10.2761 19.5587 14.409 19.7574 17.8863C19.9362 20.9065 22.0822 24.2844 25.2415 24.6421C28.9572 25.0593 32.4941 21.1449 32.4146 17.1709C32.355 13.5745 29.3347 9.83892 25.6588 10.0575Z" fill="#353535"/>
<path d="M70.1478 9.99781C66.4719 9.87859 63.6901 13.4154 63.5112 16.8132C63.3125 20.4494 66.0943 24.3837 69.8498 24.4036C73.5655 24.4234 76.3473 20.6283 76.3075 17.0517C76.2479 13.7532 73.7642 10.117 70.1478 9.99781Z" fill="#353535"/>
<path d="M20.6914 31.5767C19.6582 31.5767 18.8634 31.2787 18.6249 31.1992C18.4262 31.1197 18.3269 30.8813 18.4063 30.6826C18.4858 30.4839 18.7243 30.3845 18.923 30.464C19.2608 30.6031 21.0689 31.2389 22.7579 30.2454C23.7315 29.6692 24.2283 28.7949 24.4468 28.3379C24.5462 28.1392 24.7647 28.0398 24.9634 28.1392C25.1621 28.2385 25.2615 28.4571 25.1621 28.6558C24.9237 29.2122 24.3276 30.2454 23.1553 30.921C22.3009 31.4376 21.4465 31.5767 20.6914 31.5767Z" fill="#353535"/>
<path d="M76.7049 30.9011C76.0491 30.9011 75.314 30.8216 74.5192 30.5633C72.9892 30.0665 71.9559 29.1724 71.3598 28.5167C71.2207 28.3577 71.2207 28.0994 71.3996 27.9603C71.5585 27.8212 71.8168 27.8212 71.9559 28C72.4725 28.5961 73.3866 29.3711 74.7576 29.8082C76.1088 30.2453 77.3208 30.1261 78.0958 29.9672C78.3143 29.9274 78.513 30.0466 78.5726 30.2652C78.6124 30.4838 78.4932 30.6825 78.2746 30.7421C77.8374 30.8414 77.301 30.9011 76.7049 30.9011Z" fill="#353535"/>
<path d="M48.7278 38.6703C48.5689 38.6703 48.4099 38.6703 48.2708 38.6703C41.4554 38.5909 36.4482 36.9218 33.7657 36.0276C29.911 34.7559 26.2151 33.0273 22.7578 30.921C22.5789 30.8018 22.5193 30.5634 22.6187 30.3845C22.7379 30.2057 22.9763 30.1461 23.1552 30.2455C26.5728 32.3318 30.209 34.0208 34.0042 35.2726C36.6469 36.1468 41.5746 37.7762 48.2708 37.8557C51.2712 37.8954 57.3514 37.5775 64.445 34.9546C67.9421 33.6631 71.3002 31.9344 74.3999 29.8481C74.5787 29.7288 74.837 29.7686 74.9562 29.9474C75.0754 30.1262 75.0357 30.3845 74.8569 30.5038C71.6975 32.6299 68.2799 34.3784 64.7232 35.6898C57.8482 38.2531 51.907 38.6703 48.7278 38.6703Z" fill="#353535"/>
<path d="M50.4963 24.642C51.2514 24.9202 51.927 25.3573 52.4833 25.9336C52.7615 26.2316 52.4436 26.7284 52.0462 26.6091C51.2912 26.331 50.6156 25.8938 50.0592 25.3176C49.9003 25.1586 49.9201 24.9003 50.0791 24.7414C50.1983 24.6221 50.3573 24.6023 50.4963 24.642Z" fill="#353535"/>
<path d="M46.0454 25.2977C45.4691 25.8739 44.8134 26.331 44.0584 26.5893C43.8398 26.6489 43.6014 26.5296 43.5417 26.3111C43.3232 25.7547 45.1512 24.7612 45.6082 24.6221C46.0255 24.5029 46.3434 24.9997 46.0454 25.2977Z" fill="#353535"/>
<g opacity="0.62">
<path d="M73.4064 19.1182C74.1088 19.1182 74.6781 18.2553 74.6781 17.1908C74.6781 16.1264 74.1088 15.2634 73.4064 15.2634C72.7041 15.2634 72.1348 16.1264 72.1348 17.1908C72.1348 18.2553 72.7041 19.1182 73.4064 19.1182Z" fill="white"/>
<path d="M73.4064 19.4162C72.5321 19.4162 71.8367 18.4426 71.8367 17.1908C71.8367 15.939 72.5321 14.9653 73.4064 14.9653C74.2807 14.9653 74.9761 15.939 74.9761 17.1908C74.9761 18.4426 74.2807 19.4162 73.4064 19.4162ZM73.4064 15.5614C72.8898 15.5614 72.4328 16.3165 72.4328 17.1908C72.4328 18.0651 72.8699 18.8201 73.4064 18.8201C73.9429 18.8201 74.38 18.0651 74.38 17.1908C74.38 16.3165 73.9429 15.5614 73.4064 15.5614Z" fill="white"/>
</g>
<g opacity="0.62">
<path d="M22.6784 19.1182C23.3807 19.1182 23.9501 18.2553 23.9501 17.1908C23.9501 16.1264 23.3807 15.2634 22.6784 15.2634C21.9761 15.2634 21.4067 16.1264 21.4067 17.1908C21.4067 18.2553 21.9761 19.1182 22.6784 19.1182Z" fill="white"/>
<path d="M22.6784 19.4162C21.8041 19.4162 21.1086 18.4426 21.1086 17.1908C21.1086 15.939 21.8041 14.9653 22.6784 14.9653C23.5527 14.9653 24.2481 15.939 24.2481 17.1908C24.2481 18.4426 23.5527 19.4162 22.6784 19.4162ZM22.6784 15.5614C22.1618 15.5614 21.7047 16.3165 21.7047 17.1908C21.7047 18.0651 22.1419 18.8201 22.6784 18.8201C23.2149 18.8201 23.652 18.0651 23.652 17.1908C23.652 16.3165 23.195 15.5614 22.6784 15.5614Z" fill="white"/>
</g>
<g opacity="0.33">
<path d="M22.2212 22.059C24.2281 23.9267 27.1092 23.8274 29.275 22.2974C27.3278 24.185 23.93 24.2844 22.2212 22.059Z" fill="white"/>
</g>
<g opacity="0.33">
<path d="M73.4264 22.059C71.6977 24.2844 68.2999 24.185 66.3726 22.2974C68.5583 23.8274 71.4394 23.9267 73.4264 22.059Z" fill="white"/>
</g>
<path d="M50.1188 49.6385C50.3175 50.0359 50.1189 50.5326 49.8804 50.8307C49.3638 51.4864 48.41 51.3671 48.2312 51.3274C47.2973 51.2082 46.3237 50.473 46.423 49.9365C46.5422 49.3205 48.0524 49.1814 48.2312 49.1616C48.6882 49.1218 49.8009 49.0225 50.1188 49.6385Z" fill="#5FAF31"/>
<path d="M52.4436 52.3011C52.3641 52.9171 51.4898 53.2747 50.8341 53.2747C50.1784 53.2747 49.3041 52.9171 49.2246 52.3011C49.165 51.864 49.5425 51.5063 49.622 51.407C50.1784 50.8705 51.1123 50.8307 51.7481 51.248C51.8475 51.3076 52.5032 51.7448 52.4436 52.3011Z" fill="#5FAF31"/>
<path d="M47.7144 52.2216C47.7342 51.6454 46.6811 50.9301 45.7472 51.089C45.1313 51.1884 44.4159 51.705 44.4557 52.3011C44.4954 52.8575 45.1909 53.1555 45.2704 53.1953C45.9062 53.4734 46.542 53.1754 46.7805 53.0562C47.0587 52.9369 47.6746 52.6389 47.7144 52.2216Z" fill="#5FAF31"/>
<path d="M48.0722 52.8573C48.41 52.7977 48.8272 53.0362 48.8869 53.3342C48.9465 53.7118 48.4696 54.0694 48.0523 54.0893C48.0324 54.0893 47.5953 54.1091 47.4562 53.8508C47.2575 53.5528 47.5953 52.9169 48.0722 52.8573Z" fill="#5FAF31"/>
<g opacity="0.32">
<path d="M6.24586 62.554C6.0869 62.7924 6.20612 63.2097 6.42469 63.4481C6.74261 63.7859 7.19962 63.7064 7.31884 63.6866C7.61689 63.6468 8.0739 63.4481 8.09377 63.1501C8.11364 62.9315 7.89507 62.7527 7.79572 62.6732C7.35858 62.2957 6.50417 62.1764 6.24586 62.554Z" fill="white"/>
</g>
<g opacity="0.32">
<path d="M4.79543 67.8593C4.25894 68.1176 4.19933 68.8726 4.19933 69.131C4.13972 70.0847 4.67621 71.3365 5.53062 71.416C5.86841 71.4557 6.22607 71.2968 6.42477 71.0583C6.86191 70.5616 6.62347 69.7867 6.30555 68.8329C6.10685 68.2169 5.94789 68.0381 5.78893 67.9388C5.51075 67.7599 5.11335 67.7202 4.79543 67.8593Z" fill="white"/>
</g>
<g opacity="0.32">
<path d="M22.4596 53.5131C22.1815 53.4535 21.5854 54.904 21.3072 55.7982C21.0687 56.593 20.1746 59.4344 21.486 60.9843C21.5854 61.1035 21.9231 61.481 22.1417 61.4015C22.5192 61.2823 22.3802 60.0702 22.3205 58.8184C22.2013 55.4604 22.7776 53.5926 22.4596 53.5131Z" fill="white"/>
</g>
<g opacity="0.32">
<path d="M24.8839 47.9695C24.5064 48.1284 24.5461 48.8835 24.6455 49.3007C24.6653 49.42 24.8243 50.0558 25.1224 50.0757C25.4999 50.1154 26.1556 49.1815 25.8377 48.5059C25.6588 48.1284 25.182 47.8502 24.8839 47.9695Z" fill="white"/>
</g>
<g opacity="0.32">
<path d="M69.1939 49.6584C69.0747 49.9167 69.2535 50.2147 69.4323 50.3737C69.6906 50.6121 70.1874 50.6916 70.4059 50.4333C70.6245 50.175 70.4854 49.6783 70.1675 49.4597C69.8297 49.2809 69.333 49.3603 69.1939 49.6584Z" fill="white"/>
</g>
<g opacity="0.32">
<path d="M72.4923 52.7978C72.0949 52.7978 71.8365 52.2216 71.9558 52.0229C72.1147 51.7645 72.9294 51.8242 73.0486 52.1421C73.1281 52.3606 72.8499 52.7978 72.4923 52.7978Z" fill="white"/>
</g>
<g opacity="0.32">
<path d="M90.2364 67.4421C90.4947 67.3229 90.9915 67.2037 91.2697 67.4421C91.7466 67.8594 91.2697 69.1112 90.8524 69.7868C90.7133 70.0252 89.9781 71.2174 89.2827 71.0584C88.9648 70.979 88.7661 70.661 88.6866 70.4027C88.627 70.1842 88.627 69.9457 89.2231 68.833C89.8192 67.6805 90.0377 67.5216 90.2364 67.4421Z" fill="white"/>
</g>
<g opacity="0.32">
<path d="M29.1359 13.7136C28.8975 13.8725 28.8975 14.2699 28.977 14.5282C29.1161 14.9654 29.6526 15.323 29.9506 15.1641C30.2288 15.025 30.2884 14.409 30.0301 14.0315C29.8314 13.7533 29.3942 13.5347 29.1359 13.7136Z" fill="white"/>
</g>
<g opacity="0.32">
<path d="M65.8956 13.7136C66.1341 13.8725 66.1341 14.2699 66.0546 14.5282C65.9155 14.9654 65.379 15.323 65.081 15.1641C64.8028 15.025 64.7432 14.409 65.0015 14.0315C65.22 13.7533 65.6373 13.5347 65.8956 13.7136Z" fill="white"/>
</g>
<path d="M79.2482 21.3238C79.2283 21.3238 79.2283 21.3238 79.2085 21.3238C79.0495 21.3039 78.9303 21.145 78.9502 20.986C79.2085 19.2374 79.8046 13.1374 76.1684 8.4083C75.2941 7.27571 72.9892 4.27534 69.3331 4.07664C66.1936 3.91768 63.9284 5.86494 63.1138 6.69948C59.7955 10.1171 60.2326 15.0647 60.3121 15.6012C60.332 15.7602 60.2128 15.9192 60.0538 15.939C59.8948 15.9589 59.7359 15.8397 59.716 15.6807C59.6167 14.727 59.259 9.81907 62.6965 6.28221C63.5708 5.38806 65.9949 3.30171 69.3728 3.48054C73.3071 3.67924 75.7312 6.85844 76.6452 8.03077C80.4007 12.9387 79.8046 19.2374 79.5463 21.0456C79.5264 21.2244 79.4072 21.3238 79.2482 21.3238Z" fill="#559D2B"/>
<g opacity="0.32">
<path d="M24.7249 6.63981C24.4666 6.1828 21.6848 6.61994 20.8701 8.46785C20.7112 8.84538 20.4131 9.69979 20.7311 9.91836C21.4464 10.435 25.0826 7.25578 24.7249 6.63981Z" fill="white"/>
</g>
<g opacity="0.32">
<path d="M16.7967 25.8143C16.4788 26.1919 16.4192 26.8277 16.6775 27.2648C17.0948 27.9603 18.2671 28.0199 18.9626 27.5033C19.3997 27.1854 19.7574 26.5297 19.5587 26.0528C19.2606 25.2778 17.4723 24.9997 16.7967 25.8143Z" fill="white"/>
</g>
<g opacity="0.32">
<path d="M79.4469 25.8143C79.7648 26.1919 79.8443 26.8277 79.5661 27.2648C79.1489 27.9603 77.9765 28.0199 77.2811 27.5033C76.8439 27.1854 76.4863 26.5297 76.685 26.0528C76.983 25.2778 78.7713 24.9997 79.4469 25.8143Z" fill="white"/>
</g>
<path d="M77.261 61.2625C83.1028 58.7986 86.3615 55.7188 88.2491 53.3145C92.6007 47.7907 94.7665 45.0287 95.5017 43.8365C95.76 43.4193 96.6144 41.9489 98.363 40.8362C98.5418 40.7169 98.6014 40.5779 98.7802 40.5779C100.131 40.6971 101.94 40.6971 103.986 40.1606C104.721 39.9818 105.377 39.7433 105.953 39.5049C106.212 39.4055 106.291 39.0677 106.092 38.8492C105.735 38.4518 105.317 38.0345 104.821 37.6172C103.41 36.4648 101.959 35.8687 100.867 35.5706C100.588 35.4911 100.489 35.1534 100.648 34.9348C101.026 34.438 101.483 33.683 101.661 32.6895C101.781 32.1132 101.761 31.5966 101.721 31.1992C101.721 31.0999 101.661 31.0204 101.582 30.9409C101.165 30.5634 100.41 29.9872 99.3167 29.6891C98.0053 29.3314 96.8528 29.5699 96.1773 29.7885C95.919 29.8679 95.6606 29.6891 95.6408 29.4308C95.5613 28.2585 95.2235 26.1721 93.6935 24.3242C93.1173 23.6288 92.5013 23.1121 91.945 22.7346C91.7463 22.5955 91.4681 22.675 91.3489 22.8936C91.1104 23.3704 90.8322 23.9864 90.6137 24.7613C89.7593 27.7418 90.7925 29.3314 90.1765 31.8549C89.9182 32.9478 89.2228 33.9214 87.8517 35.8289C86.7191 37.3987 85.0898 39.6638 82.3477 42.0085C79.0096 44.8698 75.5919 46.4792 73.0486 47.4131" fill="#5FAF31"/>
<path d="M77.2611 61.5605C77.1419 61.5605 77.0425 61.5009 76.9829 61.3817C76.9233 61.2227 76.9829 61.0638 77.1419 60.9843C81.7716 59.037 85.4277 56.3943 88.0108 53.1158C92.3424 47.6118 94.5281 44.8498 95.2236 43.6775L95.2434 43.6378C95.5415 43.1609 96.4158 41.6905 98.1643 40.5778C98.2041 40.5579 98.2438 40.5182 98.2836 40.4784C98.3829 40.3791 98.5419 40.24 98.7803 40.2797C100.509 40.4387 102.238 40.2996 103.867 39.8823C104.523 39.7234 105.159 39.5048 105.794 39.2465C105.834 39.2266 105.854 39.2068 105.854 39.167C105.854 39.1472 105.854 39.1074 105.834 39.0677C105.457 38.6305 105.039 38.2331 104.582 37.8755C103.47 36.9615 102.178 36.2859 100.747 35.8686C100.529 35.809 100.35 35.6302 100.271 35.4116C100.191 35.193 100.231 34.9546 100.39 34.7559C100.887 34.12 101.204 33.4047 101.363 32.6298C101.443 32.1728 101.483 31.6959 101.423 31.219C101.423 31.1992 101.403 31.1793 101.383 31.1594C100.946 30.762 100.231 30.2454 99.2373 29.9672C98.0252 29.6493 96.9523 29.848 96.2568 30.0666C96.0382 30.1262 95.8197 30.1063 95.6408 29.9871C95.462 29.8679 95.3428 29.6692 95.3428 29.4506C95.2633 28.1392 94.8659 26.2118 93.475 24.503C92.9981 23.9267 92.4219 23.4101 91.7861 22.973C91.7463 22.9531 91.7265 22.9531 91.7066 22.9531C91.6867 22.9531 91.647 22.973 91.647 23.0127C91.3489 23.5889 91.1105 24.2049 90.9317 24.8209C90.4945 26.3707 90.574 27.5431 90.6535 28.6757C90.7131 29.6692 90.7926 30.6825 90.4945 31.8946C90.2163 33.0471 89.5209 34.0207 88.13 35.968C87.1166 37.3986 85.4078 39.783 82.5863 42.2071C79.8442 44.5518 76.6849 46.3997 73.2076 47.6714C73.0487 47.731 72.8897 47.6515 72.8301 47.4925C72.7705 47.3336 72.85 47.1746 73.0089 47.115C76.4266 45.8632 79.5064 44.055 82.2087 41.7501C84.9905 39.3856 86.6596 37.0211 87.6531 35.6302C89.0043 33.7425 89.6798 32.8086 89.9183 31.7555C90.1965 30.6428 90.117 29.7089 90.0574 28.7154C89.9779 27.5232 89.8984 26.2913 90.3554 24.6421C90.5343 23.9863 90.7926 23.3505 91.1105 22.7345C91.2098 22.5557 91.3688 22.4166 91.5675 22.3769C91.7662 22.3371 91.9649 22.357 92.1437 22.4762C92.8392 22.9531 93.4353 23.5095 93.9519 24.1254C95.462 25.9535 95.8793 28.0001 95.9588 29.4109C95.9588 29.4506 95.9786 29.4705 95.9985 29.4903C96.0184 29.5102 96.0581 29.5102 96.0979 29.5102C96.8529 29.2519 98.065 29.0333 99.4161 29.4109C100.529 29.7089 101.344 30.305 101.82 30.7421C101.94 30.8614 102.019 31.0203 102.039 31.1793C102.099 31.7158 102.059 32.2324 101.96 32.749C101.801 33.6034 101.423 34.3982 100.887 35.1135C100.847 35.1533 100.867 35.193 100.867 35.2129C100.867 35.2328 100.887 35.2725 100.946 35.2924C102.456 35.7295 103.827 36.4448 105 37.3986C105.476 37.7761 105.914 38.2133 106.311 38.6703C106.47 38.8491 106.53 39.0875 106.47 39.3061C106.41 39.5247 106.271 39.7035 106.053 39.8029C105.397 40.081 104.721 40.2996 104.046 40.4784C102.337 40.9156 100.569 41.0547 98.7604 40.8957C98.7406 40.9156 98.7207 40.9354 98.7008 40.9553C98.6611 40.9951 98.6015 41.0547 98.522 41.1143C96.8728 42.1674 96.0581 43.5384 95.7799 43.9954L95.7601 44.0352C95.0249 45.2274 92.8392 48.0092 88.4876 53.533C85.8648 56.8712 82.1293 59.5735 77.3803 61.5804C77.3406 61.5605 77.3008 61.5605 77.2611 61.5605Z" fill="#559D2B"/>
<g opacity="0.21">
<path d="M77.2612 61.2624C76.7645 60.6067 83.0036 56.9109 89.3819 48.5854C92.9188 43.9557 95.0051 39.8624 99.1182 39.4054C100.628 39.2465 102.615 39.5445 102.913 38.7497C103.311 37.6767 100.35 35.6699 100.569 35.3917C100.628 35.3122 100.966 35.3917 102.456 36.266C105 37.7761 106.271 38.5311 106.152 39.167C106.033 39.8426 104.523 40.1207 103.013 40.3791C101.125 40.7168 99.9925 40.6175 99.297 40.6771C96.8133 40.8957 95.5813 43.6377 92.9585 47.4726C91.0311 50.2942 87.7128 55.063 82.5069 58.6396C80.4404 60.0702 77.5593 61.6598 77.2612 61.2624Z" fill="#4D8C32"/>
</g>
<path d="M77.2611 61.5605C77.1419 61.5605 77.0425 61.5009 76.9829 61.3817C76.9233 61.2227 76.9829 61.0638 77.1419 60.9843C81.7716 59.037 85.4277 56.3943 88.0108 53.1158C92.3424 47.6118 94.5281 44.8498 95.2236 43.6775L95.2434 43.6378C95.5415 43.1609 96.4158 41.6905 98.1643 40.5778C98.2041 40.5579 98.2438 40.5182 98.2836 40.4784C98.3829 40.3791 98.5419 40.24 98.7803 40.2797C100.509 40.4387 102.238 40.2996 103.867 39.8823C104.523 39.7234 105.159 39.5048 105.794 39.2465C105.834 39.2266 105.854 39.2068 105.854 39.167C105.854 39.1472 105.854 39.1074 105.834 39.0677C105.457 38.6305 105.039 38.2331 104.582 37.8755C103.47 36.9615 102.178 36.2859 100.747 35.8686C100.529 35.809 100.35 35.6302 100.271 35.4116C100.191 35.193 100.231 34.9546 100.39 34.7559C100.887 34.12 101.204 33.4047 101.363 32.6298C101.443 32.1728 101.483 31.6959 101.423 31.219C101.423 31.1992 101.403 31.1793 101.383 31.1594C100.946 30.762 100.231 30.2454 99.2373 29.9672C98.0252 29.6493 96.9523 29.848 96.2568 30.0666C96.0382 30.1262 95.8197 30.1063 95.6408 29.9871C95.462 29.8679 95.3428 29.6692 95.3428 29.4506C95.2633 28.1392 94.8659 26.2118 93.475 24.503C92.9981 23.9267 92.4219 23.4101 91.7861 22.973C91.7463 22.9531 91.7265 22.9531 91.7066 22.9531C91.6867 22.9531 91.647 22.973 91.647 23.0127C91.3489 23.5889 91.1105 24.2049 90.9317 24.8209C90.4945 26.3707 90.574 27.5431 90.6535 28.6757C90.7131 29.6692 90.7926 30.6825 90.4945 31.8946C90.2163 33.0471 89.5209 34.0207 88.13 35.968C87.1166 37.3986 85.4078 39.783 82.5863 42.2071C79.8442 44.5518 76.6849 46.3997 73.2076 47.6714C73.0487 47.731 72.8897 47.6515 72.8301 47.4925C72.7705 47.3336 72.85 47.1746 73.0089 47.115C76.4266 45.8632 79.5064 44.055 82.2087 41.7501C84.9905 39.3856 86.6596 37.0211 87.6531 35.6302C89.0043 33.7425 89.6798 32.8086 89.9183 31.7555C90.1965 30.6428 90.117 29.7089 90.0574 28.7154C89.9779 27.5232 89.8984 26.2913 90.3554 24.6421C90.5343 23.9863 90.7926 23.3505 91.1105 22.7345C91.2098 22.5557 91.3688 22.4166 91.5675 22.3769C91.7662 22.3371 91.9649 22.357 92.1437 22.4762C92.8392 22.9531 93.4353 23.5095 93.9519 24.1254C95.462 25.9535 95.8793 28.0001 95.9588 29.4109C95.9588 29.4506 95.9786 29.4705 95.9985 29.4903C96.0184 29.5102 96.0581 29.5102 96.0979 29.5102C96.8529 29.2519 98.065 29.0333 99.4161 29.4109C100.529 29.7089 101.344 30.305 101.82 30.7421C101.94 30.8614 102.019 31.0203 102.039 31.1793C102.099 31.7158 102.059 32.2324 101.96 32.749C101.801 33.6034 101.423 34.3982 100.887 35.1135C100.847 35.1533 100.867 35.193 100.867 35.2129C100.867 35.2328 100.887 35.2725 100.946 35.2924C102.456 35.7295 103.827 36.4448 105 37.3986C105.476 37.7761 105.914 38.2133 106.311 38.6703C106.47 38.8491 106.53 39.0875 106.47 39.3061C106.41 39.5247 106.271 39.7035 106.053 39.8029C105.397 40.081 104.721 40.2996 104.046 40.4784C102.337 40.9156 100.569 41.0547 98.7604 40.8957C98.7406 40.9156 98.7207 40.9354 98.7008 40.9553C98.6611 40.9951 98.6015 41.0547 98.522 41.1143C96.8728 42.1674 96.0581 43.5384 95.7799 43.9954L95.7601 44.0352C95.0249 45.2274 92.8392 48.0092 88.4876 53.533C85.8648 56.8712 82.1293 59.5735 77.3803 61.5804C77.3406 61.5605 77.3008 61.5605 77.2611 61.5605Z" fill="#559D2B"/>
<g opacity="0.32">
<path d="M80.2616 45.724C80.5994 44.7305 82.3479 44.2139 84.9906 41.5116C86.6796 39.763 87.8917 37.9747 88.1897 38.3125C88.3089 38.4516 88.2295 38.9086 88.0705 39.306C87.6731 40.3393 86.7789 41.0347 84.6529 42.9422C81.7518 45.5452 80.5199 46.8368 80.2815 46.2208C80.2417 46.1413 80.1821 45.9823 80.2616 45.724Z" fill="white"/>
</g>
<g opacity="0.56">
<path d="M28.9375 30.4241C36.9265 30.4241 43.4029 23.9478 43.4029 15.9588C43.4029 7.96977 36.9265 1.49341 28.9375 1.49341C20.9485 1.49341 14.4722 7.96977 14.4722 15.9588C14.4722 23.9478 20.9485 30.4241 28.9375 30.4241Z" fill="white"/>
</g>
<g opacity="0.56">
<path d="M67.4654 30.4241C75.4544 30.4241 81.9307 23.9478 81.9307 15.9588C81.9307 7.96977 75.4544 1.49341 67.4654 1.49341C59.4764 1.49341 53 7.96977 53 15.9588C53 23.9478 59.4764 30.4241 67.4654 30.4241Z" fill="white"/>
<path d="M67.4653 30.5235C59.4379 30.5235 52.9006 23.9862 52.9006 15.9587C52.9006 7.93127 59.4379 1.39404 67.4653 1.39404C75.4928 1.39404 82.03 7.93127 82.03 15.9587C82.03 23.9862 75.4928 30.5235 67.4653 30.5235ZM67.4653 1.61261C59.5571 1.61261 53.0993 8.05049 53.0993 15.9786C53.0993 23.9067 59.5372 30.3446 67.4653 30.3446C75.3935 30.3446 81.8313 23.9067 81.8313 15.9786C81.8313 8.05049 75.3736 1.61261 67.4653 1.61261Z" fill="#1D1D1B"/>
</g>
<path d="M28.9374 31.4177C20.4131 31.4177 13.4785 24.4831 13.4785 15.9589C13.4785 7.43463 20.4131 0.5 28.9374 0.5C37.4616 0.5 44.3764 7.43463 44.3764 15.9589C44.3764 24.4831 37.4417 31.4177 28.9374 31.4177ZM28.9374 2.50687C21.506 2.50687 15.4655 8.54735 15.4655 15.9787C15.4655 23.4101 21.506 29.4506 28.9374 29.4506C36.3688 29.4506 42.4092 23.4101 42.4092 15.9787C42.4092 8.54735 36.3489 2.50687 28.9374 2.50687Z" fill="#353535"/>
<path d="M67.4652 31.4177C58.941 31.4177 52.0063 24.4831 52.0063 15.9589C52.0063 7.43463 58.941 0.5 67.4652 0.5C75.9894 0.5 82.9241 7.43463 82.9241 15.9589C82.9241 24.4831 75.9894 31.4177 67.4652 31.4177ZM67.4652 2.50687C60.0338 2.50687 53.9933 8.54735 53.9933 15.9787C53.9933 23.4101 60.0338 29.4506 67.4652 29.4506C74.8966 29.4506 80.9371 23.4101 80.9371 15.9787C80.9371 8.54735 74.8767 2.50687 67.4652 2.50687Z" fill="#353535"/>
<path d="M42.8861 18.7407C44.7539 16.396 48.3503 15.6807 51.0526 16.9723C51.9468 17.3895 52.7615 17.9658 53.3973 18.6811C53.5761 18.8997 53.5563 19.2176 53.3576 19.3964C53.1986 19.5355 52.98 19.5554 52.8012 19.4759C51.2911 18.7804 49.781 18.2837 48.1516 18.3234C46.5223 18.3433 45.0519 18.8798 43.5021 19.5355C43.0053 19.7342 42.5483 19.1381 42.8861 18.7407Z" fill="#353535"/>
<g opacity="0.32">
<path d="M76.9034 26.9866C76.963 26.927 76.8835 26.8277 76.8041 26.8674C75.3536 28 72.7307 29.6492 69.0548 30.1062C65.7563 30.5235 63.054 29.7883 61.4446 29.1525C61.3651 29.1127 61.3055 29.2319 61.3849 29.2915C62.8951 30.0863 65.657 31.1792 69.1541 30.7619C73.0288 30.3248 75.6317 28.2583 76.9034 26.9866Z" fill="white"/>
</g>
<g opacity="0.32">
<path d="M79.3276 7.43466C79.268 7.35518 79.1488 7.43466 79.2084 7.51414C80.2019 9.064 81.5928 11.8259 81.712 15.5217C81.8114 18.84 80.8377 21.4629 80.0628 23.0127C80.0231 23.0922 80.1423 23.1717 80.182 23.0922C81.1159 21.6616 82.4671 18.999 82.3677 15.5019C82.2684 11.6074 80.4602 8.82555 79.3276 7.43466Z" fill="white"/>
</g>
<g opacity="0.32">
<path d="M14.7899 17.7671C14.8098 17.8664 14.9489 17.8465 14.929 17.7472C14.7502 15.9192 14.7899 12.8194 16.3795 9.48127C17.8101 6.4809 19.8965 4.61312 21.2874 3.57988C21.3669 3.52027 21.2874 3.42092 21.2079 3.46066C19.7375 4.2952 17.2935 6.04376 15.7635 9.20309C14.0746 12.7002 14.4124 16.0185 14.7899 17.7671Z" fill="white"/>
</g>
<g opacity="0.32">
<path d="M38.3756 26.9866C38.4352 26.927 38.3557 26.8277 38.2762 26.8674C36.8257 28 34.2029 29.6492 30.5269 30.1062C27.2285 30.5235 24.5262 29.7883 22.9167 29.1525C22.8372 29.1127 22.7776 29.2319 22.8571 29.2915C24.3672 30.0863 27.1292 31.1792 30.6263 30.7619C34.5009 30.3248 37.1039 28.2583 38.3756 26.9866Z" fill="white"/>
</g>
<g opacity="0.32">
<path d="M44.3763 18.3432C44.2968 18.2239 46.5422 16.9125 47.1383 16.992C47.4562 17.0516 47.6151 17.2304 47.6151 17.2304C47.6549 17.2702 47.6747 17.3099 47.6747 17.3298C47.6549 17.5086 46.7806 17.4291 45.9659 17.6874C44.9724 17.9855 44.3962 18.363 44.3763 18.3432Z" fill="white"/>
</g>
</svg>
