<svg width="50" height="50" viewBox="0 0 50 50" fill="none" xmlns="http://www.w3.org/2000/svg">
<path d="M20.5883 0C14.0908 0 8.82355 5.26724 8.82355 11.7647C8.82355 18.2622 14.0908 23.5294 20.5883 23.5294C27.0856 23.5294 32.353 18.2622 32.353 11.7647C32.353 5.26724 27.0856 0 20.5883 0Z" fill="#F7FAF7"/>
<path d="M5.90803 26.4706C2.65632 26.4706 0 29.0791 0 32.3529C0 37.3271 2.44944 41.0773 6.27938 43.5194C10.0499 45.9235 15.1331 47.0588 20.5882 47.0588C21.7966 47.0588 22.9868 47.0032 24.1485 46.8903C21.9211 44.1185 20.5882 40.5973 20.5882 36.7647C20.5882 32.8541 21.9759 29.2673 24.2859 26.4706H5.90803Z" fill="#F7FAF7"/>
<path d="M50 36.7647C50 44.0744 44.0744 50 36.7647 50C29.455 50 23.5294 44.0744 23.5294 36.7647C23.5294 29.455 29.455 23.5294 36.7647 23.5294C44.0744 23.5294 50 29.455 50 36.7647ZM29.8435 35.7235L29.8362 35.7312C29.6982 35.8706 29.5941 36.0309 29.5232 36.2018C29.4526 36.3727 29.4129 36.5597 29.4117 36.7559V36.7647V36.7735C29.4129 36.9697 29.4526 37.1568 29.5232 37.3277C29.595 37.5012 29.7014 37.6635 29.8423 37.8047L35.7247 43.6871C36.2991 44.2612 37.2303 44.2612 37.8047 43.6871C38.3788 43.1127 38.3788 42.1815 37.8047 41.6071L34.4326 38.2353H42.647C43.4591 38.2353 44.1176 37.5768 44.1176 36.7647C44.1176 35.9527 43.4591 35.2941 42.647 35.2941H34.4326L37.8047 31.9224C38.3788 31.3479 38.3788 30.4168 37.8047 29.8424C37.2303 29.2682 36.2991 29.2682 35.7247 29.8424L29.8435 35.7235Z" fill="#F7FAF7"/>
</svg>
