<svg width="590" height="163" viewBox="0 0 590 163" fill="none" xmlns="http://www.w3.org/2000/svg">
<path d="M41.35 131.218C39.75 132.018 38.05 132.568 36.25 132.868C34.55 133.168 32.85 133.318 31.15 133.318C28.95 133.318 26.75 133.118 24.55 132.718C22.45 132.318 20.4 131.568 18.4 130.468C16.3 129.268 14.6 127.418 13.3 124.918C12.5 123.418 11.95 121.868 11.65 120.268C11.35 118.568 11.1 116.868 10.9 115.168C10.8 113.768 10.7 111.518 10.6 108.418C10.5 105.318 10.45 101.818 10.45 97.918C10.45 93.918 10.45 89.718 10.45 85.318C10.45 80.918 10.45 76.768 10.45 72.868C10.55 68.868 10.6 65.318 10.6 62.218C10.7 59.118 10.8 56.868 10.9 55.468C11 53.468 11.05 51.468 11.05 49.468C11.05 47.368 11.15 45.318 11.35 43.318C11.55 41.418 11.95 39.568 12.55 37.768C13.15 35.868 14 34.168 15.1 32.668C16.5 30.968 18.2 29.568 20.2 28.468C22.2 27.368 24.25 26.518 26.35 25.918C32.95 24.018 39.6 22.868 46.3 22.468C53.1 22.068 59.9 22.118 66.7 22.618C69.1 22.818 71.55 23.118 74.05 23.518C76.55 23.918 78.9 24.718 81.1 25.918C83.4 27.118 85.2 28.968 86.5 31.468C87.7 33.768 88.4 36.168 88.6 38.668C88.9 41.168 88.7 43.518 88 45.718C87.4 47.918 86.3 49.818 84.7 51.418C83.2 53.018 81.2 54.018 78.7 54.418C76.1 54.818 73.55 54.868 71.05 54.568C68.55 54.268 66 54.218 63.4 54.418C62.6 54.418 61.6 54.568 60.4 54.868C59.3 55.068 58.1 55.368 56.8 55.768C55.6 56.068 54.45 56.468 53.35 56.968C52.35 57.468 51.6 58.018 51.1 58.618C50.3 59.518 49.8 60.568 49.6 61.768C49.5 62.968 49.4 64.168 49.3 65.368C49.9 65.368 51.15 65.368 53.05 65.368C55.05 65.368 57.15 65.418 59.35 65.518C61.55 65.518 63.6 65.568 65.5 65.668C67.5 65.668 68.8 65.668 69.4 65.668C70.6 65.768 71.8 65.918 73 66.118C74.2 66.318 75.3 66.718 76.3 67.318C77.8 68.318 78.8 69.768 79.3 71.668C79.7 72.768 79.95 73.918 80.05 75.118C80.15 76.318 80.2 77.518 80.2 78.718C80.3 80.318 80.3 81.968 80.2 83.668C80.1 85.268 79.65 86.768 78.85 88.168C78.35 89.068 77.7 89.868 76.9 90.568C76.1 91.168 75.25 91.718 74.35 92.218C70.55 94.018 66.5 95.018 62.2 95.218C58 95.418 53.85 95.218 49.75 94.618C49.75 97.718 49.7 100.818 49.6 103.918C49.5 107.018 49.35 110.118 49.15 113.218C48.95 115.218 48.65 117.268 48.25 119.368C47.95 121.368 47.4 123.318 46.6 125.218C46.1 126.418 45.35 127.568 44.35 128.668C43.45 129.768 42.45 130.618 41.35 131.218ZM126.433 134.068C123.933 135.368 121.183 136.118 118.183 136.318C115.283 136.618 112.483 136.468 109.783 135.868C108.383 135.468 106.983 134.968 105.583 134.368C104.283 133.768 103.083 132.918 101.983 131.818C100.483 130.418 99.3328 128.768 98.5328 126.868C97.8328 124.868 97.2328 122.868 96.7328 120.868C96.2328 118.268 95.8828 115.668 95.6828 113.068C95.4828 110.468 95.3828 107.868 95.3828 105.268C95.0828 91.668 95.5328 78.018 96.7328 64.318C96.8328 63.318 97.0328 61.518 97.3328 58.918C97.7328 56.218 98.1328 53.418 98.5328 50.518C99.0328 47.518 99.4828 44.718 99.8828 42.118C100.283 39.518 100.633 37.718 100.933 36.718C101.333 35.618 101.733 34.568 102.133 33.568C102.633 32.468 103.283 31.518 104.083 30.718C104.883 29.718 105.833 28.868 106.933 28.168C108.133 27.468 109.333 26.868 110.533 26.368C112.233 25.668 113.983 25.218 115.783 25.018C117.583 24.818 119.383 24.618 121.183 24.418C124.483 24.118 127.783 24.018 131.083 24.118C134.383 24.118 137.683 24.268 140.983 24.568C141.483 24.568 142.383 24.668 143.683 24.868C144.983 24.968 146.383 25.118 147.883 25.318C149.383 25.418 150.733 25.568 151.933 25.768C153.233 25.868 154.133 25.968 154.633 26.068C157.533 26.668 160.183 27.768 162.583 29.368C165.083 30.968 167.333 32.868 169.333 35.068C173.033 39.268 175.933 44.118 178.033 49.618C180.233 55.118 181.433 60.718 181.633 66.418C181.733 68.518 181.683 70.618 181.483 72.718C181.283 74.818 180.883 76.868 180.283 78.868C179.183 82.668 177.233 86.118 174.433 89.218C171.633 92.218 168.483 94.618 164.983 96.418C166.683 98.918 168.533 101.418 170.533 103.918C171.633 105.318 172.833 106.618 174.133 107.818C175.433 109.018 176.483 110.368 177.283 111.868C178.783 114.668 179.283 117.418 178.783 120.118C178.283 122.818 177.133 125.218 175.333 127.318C173.633 129.318 171.383 130.918 168.583 132.118C165.883 133.218 162.983 133.568 159.883 133.168C158.083 132.968 156.333 132.418 154.633 131.518C153.033 130.618 151.533 129.568 150.133 128.368C148.333 126.568 146.683 124.668 145.183 122.668C143.783 120.568 142.433 118.418 141.133 116.218C139.933 113.918 138.783 111.618 137.683 109.318C136.583 107.018 135.433 104.718 134.233 102.418C134.433 105.218 134.533 108.018 134.533 110.818C134.633 113.518 134.583 116.218 134.383 118.918C134.283 120.418 134.133 121.868 133.933 123.268C133.733 124.668 133.333 126.068 132.733 127.468C132.233 128.868 131.383 130.168 130.183 131.368C129.083 132.468 127.833 133.368 126.433 134.068ZM132.133 76.168C133.633 76.268 135.133 76.268 136.633 76.168C138.133 75.968 139.583 75.618 140.983 75.118C142.383 74.518 143.783 73.668 145.183 72.568C146.583 71.468 147.383 70.118 147.583 68.518C147.883 66.818 147.983 65.118 147.883 63.418C147.783 61.718 147.383 60.068 146.683 58.468C146.083 57.068 145.133 55.818 143.833 54.718C142.533 53.518 141.083 52.668 139.483 52.168C138.383 51.868 137.183 51.718 135.883 51.718C134.683 51.718 133.433 51.768 132.133 51.868C131.833 55.968 131.683 60.018 131.683 64.018C131.783 68.018 131.933 72.068 132.133 76.168ZM257.501 130.168C254.101 131.568 250.551 132.568 246.851 133.168C243.151 133.668 239.401 133.868 235.601 133.768C232.401 133.768 229.201 133.568 226.001 133.168C222.801 132.668 219.701 131.868 216.701 130.768C212.201 129.068 208.051 126.618 204.251 123.418C200.451 120.218 197.301 116.518 194.801 112.318C192.501 108.518 190.851 104.418 189.851 100.018C188.951 95.518 188.451 91.018 188.351 86.518C188.251 80.818 188.751 75.118 189.851 69.418C191.051 63.618 192.951 58.168 195.551 53.068C197.251 49.768 199.151 46.618 201.251 43.618C203.451 40.518 206.001 37.768 208.901 35.368C210.601 33.968 212.351 32.718 214.151 31.618C216.051 30.418 218.001 29.418 220.001 28.618C226.001 26.318 232.351 25.218 239.051 25.318C245.751 25.418 252.101 26.618 258.101 28.918C260.301 29.718 262.451 30.718 264.551 31.918C266.651 33.118 268.601 34.518 270.401 36.118C272.901 38.218 275.001 40.718 276.701 43.618C278.401 46.518 279.951 49.418 281.351 52.318C282.551 54.918 283.451 57.618 284.051 60.418C284.751 63.118 285.251 65.868 285.551 68.668C286.051 74.368 285.901 80.018 285.101 85.618C284.301 91.218 282.951 96.668 281.051 101.968C279.851 105.468 278.351 108.868 276.551 112.168C274.851 115.368 272.751 118.368 270.251 121.168C266.451 125.068 262.201 128.068 257.501 130.168ZM233.351 92.818C235.551 94.418 238.101 95.218 241.001 95.218C244.301 95.018 247.151 93.718 249.551 91.318C250.851 90.018 251.901 88.518 252.701 86.818C253.601 85.118 254.301 83.418 254.801 81.718C255.601 78.518 255.701 75.168 255.101 71.668C254.501 68.168 253.251 65.118 251.351 62.518C250.451 61.218 249.401 60.118 248.201 59.218C247.001 58.218 245.701 57.468 244.301 56.968C242.901 56.468 241.401 56.268 239.801 56.368C238.201 56.368 236.701 56.668 235.301 57.268C233.501 58.068 231.901 59.268 230.501 60.868C229.201 62.368 228.151 64.018 227.351 65.818C226.251 68.218 225.601 70.818 225.401 73.618C225.301 76.318 225.551 78.968 226.151 81.568C226.651 83.768 227.501 85.868 228.701 87.868C230.001 89.768 231.551 91.418 233.351 92.818ZM363.312 130.618C356.612 132.718 349.612 133.668 342.312 133.468C335.012 133.168 328.062 131.868 321.462 129.568C317.362 128.168 313.512 126.218 309.912 123.718C306.312 121.118 303.212 118.118 300.612 114.718C298.812 112.418 297.262 109.868 295.962 107.068C294.762 104.268 293.812 101.418 293.112 98.518C292.312 95.318 291.862 92.118 291.762 88.918C291.662 85.618 291.812 82.368 292.212 79.168C292.612 75.168 293.412 71.168 294.612 67.168C295.912 63.168 297.512 59.368 299.412 55.768C301.412 52.068 303.662 48.618 306.162 45.418C308.762 42.218 311.612 39.318 314.712 36.718C317.912 34.018 321.312 31.718 324.912 29.818C328.612 27.818 332.462 26.318 336.462 25.318C338.662 24.818 340.862 24.518 343.062 24.418C345.362 24.218 347.662 24.218 349.962 24.418C352.162 24.618 354.362 24.868 356.562 25.168C358.762 25.468 360.962 25.868 363.162 26.368C366.462 27.168 369.512 28.468 372.312 30.268C375.112 32.068 377.412 34.268 379.212 36.868C381.112 39.368 382.412 42.218 383.112 45.418C383.812 48.518 383.712 51.718 382.812 55.018C382.612 55.618 382.412 56.218 382.212 56.818C382.112 57.418 381.962 58.018 381.762 58.618C380.662 61.418 379.062 63.768 376.962 65.668C374.962 67.568 372.662 68.968 370.062 69.868C367.562 70.768 364.862 71.168 361.962 71.068C359.162 70.968 356.412 70.218 353.712 68.818C352.512 68.218 351.362 67.518 350.262 66.718C349.162 65.818 348.212 64.818 347.412 63.718C346.712 62.718 346.262 61.418 346.062 59.818C346.062 59.418 345.862 58.618 345.462 57.418C345.162 56.218 344.912 55.418 344.712 55.018C344.512 54.418 344.212 53.818 343.812 53.218C343.412 52.518 342.912 52.068 342.312 51.868C341.612 51.668 340.862 51.768 340.062 52.168C339.362 52.468 338.762 52.868 338.262 53.368C336.362 55.268 334.962 57.568 334.062 60.268C333.162 62.868 332.612 65.468 332.412 68.068C331.912 72.268 331.612 76.418 331.512 80.518C331.412 84.618 331.562 88.768 331.962 92.968C332.062 93.768 332.162 94.718 332.262 95.818C332.362 96.818 332.562 97.818 332.862 98.818C333.162 99.718 333.512 100.568 333.912 101.368C334.412 102.068 335.062 102.518 335.862 102.718C336.762 102.918 337.662 102.868 338.562 102.568C339.462 102.168 340.262 101.668 340.962 101.068C341.362 100.768 341.662 100.168 341.862 99.268C342.162 98.368 342.362 97.668 342.462 97.168C341.662 96.868 340.862 96.518 340.062 96.118C339.362 95.718 338.762 95.218 338.262 94.618C337.662 93.918 337.212 92.968 336.912 91.768C336.612 90.568 336.462 89.318 336.462 88.018C336.462 86.718 336.562 85.468 336.762 84.268C337.062 82.968 337.462 81.918 337.962 81.118C338.362 80.218 338.962 79.468 339.762 78.868C340.562 78.268 341.412 77.768 342.312 77.368C343.712 76.868 345.112 76.518 346.512 76.318C348.012 76.018 349.462 75.768 350.862 75.568C353.462 75.168 356.012 74.968 358.512 74.968C361.112 74.868 363.712 74.918 366.312 75.118C368.312 75.318 370.262 75.668 372.162 76.168C374.062 76.668 375.712 77.568 377.112 78.868C378.912 80.568 380.362 82.868 381.462 85.768C382.562 88.568 383.312 91.618 383.712 94.918C384.112 98.118 384.212 101.368 384.012 104.668C383.812 107.868 383.312 110.618 382.512 112.918C382.212 113.818 381.912 114.668 381.612 115.468C381.312 116.268 380.912 117.068 380.412 117.868C380.112 118.468 379.712 119.018 379.212 119.518C378.812 120.018 378.362 120.518 377.862 121.018C376.162 123.418 374.012 125.418 371.412 127.018C368.812 128.618 366.112 129.818 363.312 130.618ZM462.629 130.618C455.929 132.718 448.929 133.668 441.629 133.468C434.329 133.168 427.379 131.868 420.779 129.568C416.679 128.168 412.829 126.218 409.229 123.718C405.629 121.118 402.529 118.118 399.929 114.718C398.129 112.418 396.579 109.868 395.279 107.068C394.079 104.268 393.129 101.418 392.429 98.518C391.629 95.318 391.179 92.118 391.079 88.918C390.979 85.618 391.129 82.368 391.529 79.168C391.929 75.168 392.729 71.168 393.929 67.168C395.229 63.168 396.829 59.368 398.729 55.768C400.729 52.068 402.979 48.618 405.479 45.418C408.079 42.218 410.929 39.318 414.029 36.718C417.229 34.018 420.629 31.718 424.229 29.818C427.929 27.818 431.779 26.318 435.779 25.318C437.979 24.818 440.179 24.518 442.379 24.418C444.679 24.218 446.979 24.218 449.279 24.418C451.479 24.618 453.679 24.868 455.879 25.168C458.079 25.468 460.279 25.868 462.479 26.368C465.779 27.168 468.829 28.468 471.629 30.268C474.429 32.068 476.729 34.268 478.529 36.868C480.429 39.368 481.729 42.218 482.429 45.418C483.129 48.518 483.029 51.718 482.129 55.018C481.929 55.618 481.729 56.218 481.529 56.818C481.429 57.418 481.279 58.018 481.079 58.618C479.979 61.418 478.379 63.768 476.279 65.668C474.279 67.568 471.979 68.968 469.379 69.868C466.879 70.768 464.179 71.168 461.279 71.068C458.479 70.968 455.729 70.218 453.029 68.818C451.829 68.218 450.679 67.518 449.579 66.718C448.479 65.818 447.529 64.818 446.729 63.718C446.029 62.718 445.579 61.418 445.379 59.818C445.379 59.418 445.179 58.618 444.779 57.418C444.479 56.218 444.229 55.418 444.029 55.018C443.829 54.418 443.529 53.818 443.129 53.218C442.729 52.518 442.229 52.068 441.629 51.868C440.929 51.668 440.179 51.768 439.379 52.168C438.679 52.468 438.079 52.868 437.579 53.368C435.679 55.268 434.279 57.568 433.379 60.268C432.479 62.868 431.929 65.468 431.729 68.068C431.229 72.268 430.929 76.418 430.829 80.518C430.729 84.618 430.879 88.768 431.279 92.968C431.379 93.768 431.479 94.718 431.579 95.818C431.679 96.818 431.879 97.818 432.179 98.818C432.479 99.718 432.829 100.568 433.229 101.368C433.729 102.068 434.379 102.518 435.179 102.718C436.079 102.918 436.979 102.868 437.879 102.568C438.779 102.168 439.579 101.668 440.279 101.068C440.679 100.768 440.979 100.168 441.179 99.268C441.479 98.368 441.679 97.668 441.779 97.168C440.979 96.868 440.179 96.518 439.379 96.118C438.679 95.718 438.079 95.218 437.579 94.618C436.979 93.918 436.529 92.968 436.229 91.768C435.929 90.568 435.779 89.318 435.779 88.018C435.779 86.718 435.879 85.468 436.079 84.268C436.379 82.968 436.779 81.918 437.279 81.118C437.679 80.218 438.279 79.468 439.079 78.868C439.879 78.268 440.729 77.768 441.629 77.368C443.029 76.868 444.429 76.518 445.829 76.318C447.329 76.018 448.779 75.768 450.179 75.568C452.779 75.168 455.329 74.968 457.829 74.968C460.429 74.868 463.029 74.918 465.629 75.118C467.629 75.318 469.579 75.668 471.479 76.168C473.379 76.668 475.029 77.568 476.429 78.868C478.229 80.568 479.679 82.868 480.779 85.768C481.879 88.568 482.629 91.618 483.029 94.918C483.429 98.118 483.529 101.368 483.329 104.668C483.129 107.868 482.629 110.618 481.829 112.918C481.529 113.818 481.229 114.668 480.929 115.468C480.629 116.268 480.229 117.068 479.729 117.868C479.429 118.468 479.029 119.018 478.529 119.518C478.129 120.018 477.679 120.518 477.179 121.018C475.479 123.418 473.329 125.418 470.729 127.018C468.129 128.618 465.429 129.818 462.629 130.618ZM544.995 133.318C542.495 134.118 539.795 134.618 536.895 134.818C533.995 135.018 531.145 134.818 528.345 134.218C525.645 133.618 523.145 132.618 520.845 131.218C518.545 129.818 516.795 127.968 515.595 125.668C514.395 123.468 513.695 121.118 513.495 118.618C513.295 116.018 513.195 113.468 513.195 110.968C513.295 105.868 513.545 100.768 513.945 95.668C514.445 90.468 514.945 85.318 515.445 80.218C510.645 76.618 506.095 72.668 501.795 68.368C499.395 66.068 497.095 63.568 494.895 60.868C492.795 58.168 491.195 55.218 490.095 52.018C489.095 49.218 488.795 46.268 489.195 43.168C489.595 40.068 490.495 37.268 491.895 34.768C493.795 31.668 496.495 29.018 499.995 26.818C503.595 24.618 507.195 23.568 510.795 23.668C512.695 23.768 514.595 24.168 516.495 24.868C518.395 25.468 520.095 26.318 521.595 27.418C522.695 28.218 523.645 29.168 524.445 30.268C525.245 31.268 525.995 32.318 526.695 33.418C528.395 36.118 530.195 38.768 532.095 41.368C534.095 43.868 536.045 46.418 537.945 49.018C539.745 46.118 541.645 43.318 543.645 40.618C545.745 37.918 547.845 35.268 549.945 32.668C550.745 31.768 551.545 30.868 552.345 29.968C553.145 29.068 554.045 28.218 555.045 27.418C555.445 27.018 555.845 26.718 556.245 26.518C556.745 26.218 557.245 25.868 557.745 25.468C559.145 24.568 560.595 23.818 562.095 23.218C563.595 22.518 565.145 22.068 566.745 21.868C568.845 21.668 570.945 21.818 573.045 22.318C575.245 22.718 577.245 23.468 579.045 24.568C580.445 25.368 581.695 26.318 582.795 27.418C583.895 28.518 584.895 29.718 585.795 31.018C586.495 32.018 587.095 33.068 587.595 34.168C588.095 35.268 588.395 36.418 588.495 37.618C588.495 37.718 588.445 38.018 588.345 38.518C588.345 39.018 588.395 39.368 588.495 39.568C588.695 41.268 588.495 42.968 587.895 44.668C587.395 46.268 586.695 47.768 585.795 49.168C583.495 52.568 580.795 55.568 577.695 58.168C574.595 60.668 571.645 63.368 568.845 66.268C568.345 66.768 567.445 67.768 566.145 69.268C564.845 70.768 563.445 72.368 561.945 74.068C560.545 75.668 559.195 77.218 557.895 78.718C556.595 80.118 555.745 81.068 555.345 81.568C555.345 87.768 555.495 93.918 555.795 100.018C555.995 103.018 556.195 106.018 556.395 109.018C556.595 112.018 556.595 114.968 556.395 117.868C556.195 119.668 555.845 121.518 555.345 123.418C554.845 125.218 554.045 126.818 552.945 128.218C552.045 129.418 550.845 130.468 549.345 131.368C547.945 132.168 546.495 132.818 544.995 133.318Z" fill="#5FAE30"/>
<path d="M37.35 126.653C35.75 127.453 34.05 128.003 32.25 128.303C30.55 128.603 28.85 128.753 27.15 128.753C24.95 128.753 22.75 128.553 20.55 128.153C18.45 127.753 16.4 127.003 14.4 125.903C12.3 124.703 10.6 122.853 9.3 120.353C8.5 118.853 7.95 117.303 7.65 115.703C7.35 114.003 7.1 112.303 6.9 110.603C6.8 109.203 6.7 106.953 6.6 103.853C6.5 100.753 6.45 97.2528 6.45 93.3528C6.45 89.3528 6.45 85.1528 6.45 80.7528C6.45 76.3528 6.45 72.2028 6.45 68.3028C6.55 64.3028 6.6 60.7528 6.6 57.6528C6.7 54.5528 6.8 52.3028 6.9 50.9028C7 48.9028 7.05 46.9028 7.05 44.9028C7.05 42.8028 7.15 40.7528 7.35 38.7528C7.55 36.8528 7.95 35.0028 8.55 33.2028C9.15 31.3028 10 29.6028 11.1 28.1028C12.5 26.4028 14.2 25.0028 16.2 23.9028C18.2 22.8028 20.25 21.9528 22.35 21.3528C28.95 19.4528 35.6 18.3028 42.3 17.9028C49.1 17.5028 55.9 17.5528 62.7 18.0528C65.1 18.2528 67.55 18.5528 70.05 18.9528C72.55 19.3528 74.9 20.1528 77.1 21.3528C79.4 22.5528 81.2 24.4028 82.5 26.9028C83.7 29.2028 84.4 31.6028 84.6 34.1028C84.9 36.6028 84.7 38.9528 84 41.1528C83.4 43.3528 82.3 45.2528 80.7 46.8528C79.2 48.4528 77.2 49.4528 74.7 49.8528C72.1 50.2528 69.55 50.3028 67.05 50.0028C64.55 49.7028 62 49.6528 59.4 49.8528C58.6 49.8528 57.6 50.0028 56.4 50.3028C55.3 50.5028 54.1 50.8028 52.8 51.2028C51.6 51.5028 50.45 51.9028 49.35 52.4028C48.35 52.9028 47.6 53.4528 47.1 54.0528C46.3 54.9528 45.8 56.0028 45.6 57.2028C45.5 58.4028 45.4 59.6028 45.3 60.8028C45.9 60.8028 47.15 60.8028 49.05 60.8028C51.05 60.8028 53.15 60.8528 55.35 60.9528C57.55 60.9528 59.6 61.0028 61.5 61.1028C63.5 61.1028 64.8 61.1028 65.4 61.1028C66.6 61.2028 67.8 61.3528 69 61.5528C70.2 61.7528 71.3 62.1528 72.3 62.7528C73.8 63.7528 74.8 65.2028 75.3 67.1028C75.7 68.2028 75.95 69.3528 76.05 70.5528C76.15 71.7528 76.2 72.9528 76.2 74.1528C76.3 75.7528 76.3 77.4028 76.2 79.1028C76.1 80.7028 75.65 82.2028 74.85 83.6028C74.35 84.5028 73.7 85.3028 72.9 86.0028C72.1 86.6028 71.25 87.1528 70.35 87.6528C66.55 89.4528 62.5 90.4528 58.2 90.6528C54 90.8528 49.85 90.6528 45.75 90.0528C45.75 93.1528 45.7 96.2528 45.6 99.3528C45.5 102.453 45.35 105.553 45.15 108.653C44.95 110.653 44.65 112.703 44.25 114.803C43.95 116.803 43.4 118.753 42.6 120.653C42.1 121.853 41.35 123.003 40.35 124.103C39.45 125.203 38.45 126.053 37.35 126.653ZM122.433 129.503C119.933 130.803 117.183 131.553 114.183 131.753C111.283 132.053 108.483 131.903 105.783 131.303C104.383 130.903 102.983 130.403 101.583 129.803C100.283 129.203 99.0828 128.353 97.9828 127.253C96.4828 125.853 95.3328 124.203 94.5328 122.303C93.8328 120.303 93.2328 118.303 92.7328 116.303C92.2328 113.703 91.8828 111.103 91.6828 108.503C91.4828 105.903 91.3828 103.303 91.3828 100.703C91.0828 87.1028 91.5328 73.4528 92.7328 59.7528C92.8328 58.7528 93.0328 56.9528 93.3328 54.3528C93.7328 51.6528 94.1328 48.8528 94.5328 45.9528C95.0328 42.9528 95.4828 40.1528 95.8828 37.5528C96.2828 34.9528 96.6328 33.1528 96.9328 32.1528C97.3328 31.0528 97.7328 30.0028 98.1328 29.0028C98.6328 27.9028 99.2828 26.9528 100.083 26.1528C100.883 25.1528 101.833 24.3028 102.933 23.6028C104.133 22.9028 105.333 22.3028 106.533 21.8028C108.233 21.1028 109.983 20.6528 111.783 20.4528C113.583 20.2528 115.383 20.0528 117.183 19.8528C120.483 19.5528 123.783 19.4528 127.083 19.5528C130.383 19.5528 133.683 19.7028 136.983 20.0028C137.483 20.0028 138.383 20.1028 139.683 20.3028C140.983 20.4028 142.383 20.5528 143.883 20.7528C145.383 20.8528 146.733 21.0028 147.933 21.2028C149.233 21.3028 150.133 21.4028 150.633 21.5028C153.533 22.1028 156.183 23.2028 158.583 24.8028C161.083 26.4028 163.333 28.3028 165.333 30.5028C169.033 34.7028 171.933 39.5528 174.033 45.0528C176.233 50.5528 177.433 56.1528 177.633 61.8528C177.733 63.9528 177.683 66.0528 177.483 68.1528C177.283 70.2528 176.883 72.3028 176.283 74.3028C175.183 78.1028 173.233 81.5528 170.433 84.6528C167.633 87.6528 164.483 90.0528 160.983 91.8528C162.683 94.3528 164.533 96.8528 166.533 99.3528C167.633 100.753 168.833 102.053 170.133 103.253C171.433 104.453 172.483 105.803 173.283 107.303C174.783 110.103 175.283 112.853 174.783 115.553C174.283 118.253 173.133 120.653 171.333 122.753C169.633 124.753 167.383 126.353 164.583 127.553C161.883 128.653 158.983 129.003 155.883 128.603C154.083 128.403 152.333 127.853 150.633 126.953C149.033 126.053 147.533 125.003 146.133 123.803C144.333 122.003 142.683 120.103 141.183 118.103C139.783 116.003 138.433 113.853 137.133 111.653C135.933 109.353 134.783 107.053 133.683 104.753C132.583 102.453 131.433 100.153 130.233 97.8528C130.433 100.653 130.533 103.453 130.533 106.253C130.633 108.953 130.583 111.653 130.383 114.353C130.283 115.853 130.133 117.303 129.933 118.703C129.733 120.103 129.333 121.503 128.733 122.903C128.233 124.303 127.383 125.603 126.183 126.803C125.083 127.903 123.833 128.803 122.433 129.503ZM128.133 71.6028C129.633 71.7028 131.133 71.7028 132.633 71.6028C134.133 71.4028 135.583 71.0528 136.983 70.5528C138.383 69.9528 139.783 69.1028 141.183 68.0028C142.583 66.9028 143.383 65.5528 143.583 63.9528C143.883 62.2528 143.983 60.5528 143.883 58.8528C143.783 57.1528 143.383 55.5028 142.683 53.9028C142.083 52.5028 141.133 51.2528 139.833 50.1528C138.533 48.9528 137.083 48.1028 135.483 47.6028C134.383 47.3028 133.183 47.1528 131.883 47.1528C130.683 47.1528 129.433 47.2028 128.133 47.3028C127.833 51.4028 127.683 55.4528 127.683 59.4528C127.783 63.4528 127.933 67.5028 128.133 71.6028ZM253.501 125.603C250.101 127.003 246.551 128.003 242.851 128.603C239.151 129.103 235.401 129.303 231.601 129.203C228.401 129.203 225.201 129.003 222.001 128.603C218.801 128.103 215.701 127.303 212.701 126.203C208.201 124.503 204.051 122.053 200.251 118.853C196.451 115.653 193.301 111.953 190.801 107.753C188.501 103.953 186.851 99.8528 185.851 95.4528C184.951 90.9528 184.451 86.4528 184.351 81.9528C184.251 76.2528 184.751 70.5528 185.851 64.8528C187.051 59.0528 188.951 53.6028 191.551 48.5028C193.251 45.2028 195.151 42.0528 197.251 39.0528C199.451 35.9528 202.001 33.2028 204.901 30.8028C206.601 29.4028 208.351 28.1528 210.151 27.0528C212.051 25.8528 214.001 24.8528 216.001 24.0528C222.001 21.7528 228.351 20.6528 235.051 20.7528C241.751 20.8528 248.101 22.0528 254.101 24.3528C256.301 25.1528 258.451 26.1528 260.551 27.3528C262.651 28.5528 264.601 29.9528 266.401 31.5528C268.901 33.6528 271.001 36.1528 272.701 39.0528C274.401 41.9528 275.951 44.8528 277.351 47.7528C278.551 50.3528 279.451 53.0528 280.051 55.8528C280.751 58.5528 281.251 61.3028 281.551 64.1028C282.051 69.8028 281.901 75.4528 281.101 81.0528C280.301 86.6528 278.951 92.1028 277.051 97.4028C275.851 100.903 274.351 104.303 272.551 107.603C270.851 110.803 268.751 113.803 266.251 116.603C262.451 120.503 258.201 123.503 253.501 125.603ZM229.351 88.2528C231.551 89.8528 234.101 90.6528 237.001 90.6528C240.301 90.4528 243.151 89.1528 245.551 86.7528C246.851 85.4528 247.901 83.9528 248.701 82.2528C249.601 80.5528 250.301 78.8528 250.801 77.1528C251.601 73.9528 251.701 70.6028 251.101 67.1028C250.501 63.6028 249.251 60.5528 247.351 57.9528C246.451 56.6528 245.401 55.5528 244.201 54.6528C243.001 53.6528 241.701 52.9028 240.301 52.4028C238.901 51.9028 237.401 51.7028 235.801 51.8028C234.201 51.8028 232.701 52.1028 231.301 52.7028C229.501 53.5028 227.901 54.7028 226.501 56.3028C225.201 57.8028 224.151 59.4528 223.351 61.2528C222.251 63.6528 221.601 66.2528 221.401 69.0528C221.301 71.7528 221.551 74.4028 222.151 77.0028C222.651 79.2028 223.501 81.3028 224.701 83.3028C226.001 85.2028 227.551 86.8528 229.351 88.2528ZM359.312 126.053C352.612 128.153 345.612 129.103 338.312 128.903C331.012 128.603 324.062 127.303 317.462 125.003C313.362 123.603 309.512 121.653 305.912 119.153C302.312 116.553 299.212 113.553 296.612 110.153C294.812 107.853 293.262 105.303 291.962 102.503C290.762 99.7028 289.812 96.8528 289.112 93.9528C288.312 90.7528 287.862 87.5528 287.762 84.3528C287.662 81.0528 287.812 77.8028 288.212 74.6028C288.612 70.6028 289.412 66.6028 290.612 62.6028C291.912 58.6028 293.512 54.8028 295.412 51.2028C297.412 47.5028 299.662 44.0528 302.162 40.8528C304.762 37.6528 307.612 34.7528 310.712 32.1528C313.912 29.4528 317.312 27.1528 320.912 25.2528C324.612 23.2528 328.462 21.7528 332.462 20.7528C334.662 20.2528 336.862 19.9528 339.062 19.8528C341.362 19.6528 343.662 19.6528 345.962 19.8528C348.162 20.0528 350.362 20.3028 352.562 20.6028C354.762 20.9028 356.962 21.3028 359.162 21.8028C362.462 22.6028 365.512 23.9028 368.312 25.7028C371.112 27.5028 373.412 29.7028 375.212 32.3028C377.112 34.8028 378.412 37.6528 379.112 40.8528C379.812 43.9528 379.712 47.1528 378.812 50.4528C378.612 51.0528 378.412 51.6528 378.212 52.2528C378.112 52.8528 377.962 53.4528 377.762 54.0528C376.662 56.8528 375.062 59.2028 372.962 61.1028C370.962 63.0028 368.662 64.4028 366.062 65.3028C363.562 66.2028 360.862 66.6028 357.962 66.5028C355.162 66.4028 352.412 65.6528 349.712 64.2528C348.512 63.6528 347.362 62.9528 346.262 62.1528C345.162 61.2528 344.212 60.2528 343.412 59.1528C342.712 58.1528 342.262 56.8528 342.062 55.2528C342.062 54.8528 341.862 54.0528 341.462 52.8528C341.162 51.6528 340.912 50.8528 340.712 50.4528C340.512 49.8528 340.212 49.2528 339.812 48.6528C339.412 47.9528 338.912 47.5028 338.312 47.3028C337.612 47.1028 336.862 47.2028 336.062 47.6028C335.362 47.9028 334.762 48.3028 334.262 48.8028C332.362 50.7028 330.962 53.0028 330.062 55.7028C329.162 58.3028 328.612 60.9028 328.412 63.5028C327.912 67.7028 327.612 71.8528 327.512 75.9528C327.412 80.0528 327.562 84.2028 327.962 88.4028C328.062 89.2028 328.162 90.1528 328.262 91.2528C328.362 92.2528 328.562 93.2528 328.862 94.2528C329.162 95.1528 329.512 96.0028 329.912 96.8028C330.412 97.5028 331.062 97.9528 331.862 98.1528C332.762 98.3528 333.662 98.3028 334.562 98.0028C335.462 97.6028 336.262 97.1028 336.962 96.5028C337.362 96.2028 337.662 95.6028 337.862 94.7028C338.162 93.8028 338.362 93.1028 338.462 92.6028C337.662 92.3028 336.862 91.9528 336.062 91.5528C335.362 91.1528 334.762 90.6528 334.262 90.0528C333.662 89.3528 333.212 88.4028 332.912 87.2028C332.612 86.0028 332.462 84.7528 332.462 83.4528C332.462 82.1528 332.562 80.9028 332.762 79.7028C333.062 78.4028 333.462 77.3528 333.962 76.5528C334.362 75.6528 334.962 74.9028 335.762 74.3028C336.562 73.7028 337.412 73.2028 338.312 72.8028C339.712 72.3028 341.112 71.9528 342.512 71.7528C344.012 71.4528 345.462 71.2028 346.862 71.0028C349.462 70.6028 352.012 70.4028 354.512 70.4028C357.112 70.3028 359.712 70.3528 362.312 70.5528C364.312 70.7528 366.262 71.1028 368.162 71.6028C370.062 72.1028 371.712 73.0028 373.112 74.3028C374.912 76.0028 376.362 78.3028 377.462 81.2028C378.562 84.0028 379.312 87.0528 379.712 90.3528C380.112 93.5528 380.212 96.8028 380.012 100.103C379.812 103.303 379.312 106.053 378.512 108.353C378.212 109.253 377.912 110.103 377.612 110.903C377.312 111.703 376.912 112.503 376.412 113.303C376.112 113.903 375.712 114.453 375.212 114.953C374.812 115.453 374.362 115.953 373.862 116.453C372.162 118.853 370.012 120.853 367.412 122.453C364.812 124.053 362.112 125.253 359.312 126.053ZM458.629 126.053C451.929 128.153 444.929 129.103 437.629 128.903C430.329 128.603 423.379 127.303 416.779 125.003C412.679 123.603 408.829 121.653 405.229 119.153C401.629 116.553 398.529 113.553 395.929 110.153C394.129 107.853 392.579 105.303 391.279 102.503C390.079 99.7028 389.129 96.8528 388.429 93.9528C387.629 90.7528 387.179 87.5528 387.079 84.3528C386.979 81.0528 387.129 77.8028 387.529 74.6028C387.929 70.6028 388.729 66.6028 389.929 62.6028C391.229 58.6028 392.829 54.8028 394.729 51.2028C396.729 47.5028 398.979 44.0528 401.479 40.8528C404.079 37.6528 406.929 34.7528 410.029 32.1528C413.229 29.4528 416.629 27.1528 420.229 25.2528C423.929 23.2528 427.779 21.7528 431.779 20.7528C433.979 20.2528 436.179 19.9528 438.379 19.8528C440.679 19.6528 442.979 19.6528 445.279 19.8528C447.479 20.0528 449.679 20.3028 451.879 20.6028C454.079 20.9028 456.279 21.3028 458.479 21.8028C461.779 22.6028 464.829 23.9028 467.629 25.7028C470.429 27.5028 472.729 29.7028 474.529 32.3028C476.429 34.8028 477.729 37.6528 478.429 40.8528C479.129 43.9528 479.029 47.1528 478.129 50.4528C477.929 51.0528 477.729 51.6528 477.529 52.2528C477.429 52.8528 477.279 53.4528 477.079 54.0528C475.979 56.8528 474.379 59.2028 472.279 61.1028C470.279 63.0028 467.979 64.4028 465.379 65.3028C462.879 66.2028 460.179 66.6028 457.279 66.5028C454.479 66.4028 451.729 65.6528 449.029 64.2528C447.829 63.6528 446.679 62.9528 445.579 62.1528C444.479 61.2528 443.529 60.2528 442.729 59.1528C442.029 58.1528 441.579 56.8528 441.379 55.2528C441.379 54.8528 441.179 54.0528 440.779 52.8528C440.479 51.6528 440.229 50.8528 440.029 50.4528C439.829 49.8528 439.529 49.2528 439.129 48.6528C438.729 47.9528 438.229 47.5028 437.629 47.3028C436.929 47.1028 436.179 47.2028 435.379 47.6028C434.679 47.9028 434.079 48.3028 433.579 48.8028C431.679 50.7028 430.279 53.0028 429.379 55.7028C428.479 58.3028 427.929 60.9028 427.729 63.5028C427.229 67.7028 426.929 71.8528 426.829 75.9528C426.729 80.0528 426.879 84.2028 427.279 88.4028C427.379 89.2028 427.479 90.1528 427.579 91.2528C427.679 92.2528 427.879 93.2528 428.179 94.2528C428.479 95.1528 428.829 96.0028 429.229 96.8028C429.729 97.5028 430.379 97.9528 431.179 98.1528C432.079 98.3528 432.979 98.3028 433.879 98.0028C434.779 97.6028 435.579 97.1028 436.279 96.5028C436.679 96.2028 436.979 95.6028 437.179 94.7028C437.479 93.8028 437.679 93.1028 437.779 92.6028C436.979 92.3028 436.179 91.9528 435.379 91.5528C434.679 91.1528 434.079 90.6528 433.579 90.0528C432.979 89.3528 432.529 88.4028 432.229 87.2028C431.929 86.0028 431.779 84.7528 431.779 83.4528C431.779 82.1528 431.879 80.9028 432.079 79.7028C432.379 78.4028 432.779 77.3528 433.279 76.5528C433.679 75.6528 434.279 74.9028 435.079 74.3028C435.879 73.7028 436.729 73.2028 437.629 72.8028C439.029 72.3028 440.429 71.9528 441.829 71.7528C443.329 71.4528 444.779 71.2028 446.179 71.0028C448.779 70.6028 451.329 70.4028 453.829 70.4028C456.429 70.3028 459.029 70.3528 461.629 70.5528C463.629 70.7528 465.579 71.1028 467.479 71.6028C469.379 72.1028 471.029 73.0028 472.429 74.3028C474.229 76.0028 475.679 78.3028 476.779 81.2028C477.879 84.0028 478.629 87.0528 479.029 90.3528C479.429 93.5528 479.529 96.8028 479.329 100.103C479.129 103.303 478.629 106.053 477.829 108.353C477.529 109.253 477.229 110.103 476.929 110.903C476.629 111.703 476.229 112.503 475.729 113.303C475.429 113.903 475.029 114.453 474.529 114.953C474.129 115.453 473.679 115.953 473.179 116.453C471.479 118.853 469.329 120.853 466.729 122.453C464.129 124.053 461.429 125.253 458.629 126.053ZM540.995 128.753C538.495 129.553 535.795 130.053 532.895 130.253C529.995 130.453 527.145 130.253 524.345 129.653C521.645 129.053 519.145 128.053 516.845 126.653C514.545 125.253 512.795 123.403 511.595 121.103C510.395 118.903 509.695 116.553 509.495 114.053C509.295 111.453 509.195 108.903 509.195 106.403C509.295 101.303 509.545 96.2028 509.945 91.1028C510.445 85.9028 510.945 80.7528 511.445 75.6528C506.645 72.0528 502.095 68.1028 497.795 63.8028C495.395 61.5028 493.095 59.0028 490.895 56.3028C488.795 53.6028 487.195 50.6528 486.095 47.4528C485.095 44.6528 484.795 41.7028 485.195 38.6028C485.595 35.5028 486.495 32.7028 487.895 30.2028C489.795 27.1028 492.495 24.4528 495.995 22.2528C499.595 20.0528 503.195 19.0028 506.795 19.1028C508.695 19.2028 510.595 19.6028 512.495 20.3028C514.395 20.9028 516.095 21.7528 517.595 22.8528C518.695 23.6528 519.645 24.6028 520.445 25.7028C521.245 26.7028 521.995 27.7528 522.695 28.8528C524.395 31.5528 526.195 34.2028 528.095 36.8028C530.095 39.3028 532.045 41.8528 533.945 44.4528C535.745 41.5528 537.645 38.7528 539.645 36.0528C541.745 33.3528 543.845 30.7028 545.945 28.1028C546.745 27.2028 547.545 26.3028 548.345 25.4028C549.145 24.5028 550.045 23.6528 551.045 22.8528C551.445 22.4528 551.845 22.1528 552.245 21.9528C552.745 21.6528 553.245 21.3028 553.745 20.9028C555.145 20.0028 556.595 19.2528 558.095 18.6528C559.595 17.9528 561.145 17.5028 562.745 17.3028C564.845 17.1028 566.945 17.2528 569.045 17.7528C571.245 18.1528 573.245 18.9028 575.045 20.0028C576.445 20.8028 577.695 21.7528 578.795 22.8528C579.895 23.9528 580.895 25.1528 581.795 26.4528C582.495 27.4528 583.095 28.5028 583.595 29.6028C584.095 30.7028 584.395 31.8528 584.495 33.0528C584.495 33.1528 584.445 33.4528 584.345 33.9528C584.345 34.4528 584.395 34.8028 584.495 35.0028C584.695 36.7028 584.495 38.4028 583.895 40.1028C583.395 41.7028 582.695 43.2028 581.795 44.6028C579.495 48.0028 576.795 51.0028 573.695 53.6028C570.595 56.1028 567.645 58.8028 564.845 61.7028C564.345 62.2028 563.445 63.2028 562.145 64.7028C560.845 66.2028 559.445 67.8028 557.945 69.5028C556.545 71.1028 555.195 72.6528 553.895 74.1528C552.595 75.5528 551.745 76.5028 551.345 77.0028C551.345 83.2028 551.495 89.3528 551.795 95.4528C551.995 98.4528 552.195 101.453 552.395 104.453C552.595 107.453 552.595 110.403 552.395 113.303C552.195 115.103 551.845 116.953 551.345 118.853C550.845 120.653 550.045 122.253 548.945 123.653C548.045 124.853 546.845 125.903 545.345 126.803C543.945 127.603 542.495 128.253 540.995 128.753Z" fill="#8CCF57"/>
</svg>
