<svg width="2055" height="1846" viewBox="0 0 2055 1846" fill="none" xmlns="http://www.w3.org/2000/svg">
<g filter="url(#filter0_d_427_1324)">
<path d="M427.968 759.941C423.336 778.887 429.652 783.939 434.284 823.935C456.602 1012.55 337.854 1110.22 310.483 1249.16C272.585 1441.98 401.86 1682.8 544.189 1720.69C617.459 1740.06 637.672 1690.38 837.69 1687.43C886.537 1686.59 897.486 1689.54 1023.39 1690.8C1116.87 1691.64 1154.77 1690.8 1205.72 1690.8C1493.75 1691.64 1506.81 1730.38 1571.65 1701.33C1697.56 1644.91 1769.57 1443.25 1748.09 1290C1731.25 1170.85 1660.93 1110.65 1615.45 874.878C1601.97 805.411 1607.87 809.2 1600.29 790.675C1480.7 503.965 481.447 543.119 427.968 759.941Z" fill="#5FAF31"/>
<path d="M576.613 1731.22C566.086 1731.22 555.137 1729.96 542.505 1726.59C472.603 1708.06 402.281 1640.7 353.855 1545.97C304.167 1448.3 286.06 1339.68 304.167 1247.9C314.694 1194.85 337.433 1148.96 361.856 1100.12C401.018 1021.39 441.864 940.135 427.968 824.357C426.283 809.2 424.178 799.517 422.493 791.518C419.967 778.887 418.282 771.309 421.651 758.258V757.837C433.021 712.367 484.394 671.95 569.876 641.216C648.199 613.008 750.524 593.22 866.324 584.8C1025.92 573.012 1192.25 583.537 1322.79 614.271C1475.22 650.057 1572.92 710.262 1604.92 788.15C1609.13 798.254 1609.55 802.885 1610.82 812.989C1612.08 822.673 1613.76 839.092 1620.5 873.615C1645.77 1004.55 1679.45 1082.02 1706.4 1144.33C1727.88 1193.59 1745.99 1236.11 1753.57 1289.16C1774.62 1439.04 1705.56 1647.86 1573.76 1707.22C1539.65 1722.38 1519.44 1719.85 1470.59 1713.54C1421.74 1707.22 1348.47 1697.54 1205.3 1697.12C1187.62 1697.12 1171.19 1697.12 1153.51 1697.12C1120.66 1697.54 1083.61 1697.54 1022.97 1697.12C957.28 1696.28 923.172 1695.43 897.906 1694.59C875.588 1693.75 860.429 1693.33 837.269 1693.75C731.575 1695.43 677.254 1709.75 637.25 1720.27C614.511 1726.59 596.404 1731.22 576.613 1731.22ZM433.863 762.047C431.336 772.151 432.6 777.624 435.126 789.413C436.81 796.991 438.916 807.516 440.6 823.094C454.917 942.662 413.229 1025.6 373.226 1106.01C349.223 1154.01 326.905 1199.06 316.799 1250.42C299.113 1339.26 317.22 1444.93 365.646 1540.08C412.387 1631.86 479.762 1696.7 546.294 1714.38C579.14 1723.22 600.194 1717.33 635.145 1708.06C675.57 1697.12 731.154 1682.38 838.111 1681.12C861.692 1680.7 876.852 1681.12 899.17 1681.96C924.014 1682.8 958.122 1683.65 1023.81 1684.49C1084.45 1685.33 1121.51 1684.91 1154.35 1684.49C1172.04 1684.49 1188.04 1684.07 1206.15 1684.49C1350.16 1684.91 1427.22 1695.01 1473.12 1700.91C1520.7 1707.22 1538.39 1709.33 1569.13 1695.43C1671.03 1649.54 1767.04 1472.3 1741.77 1290.84C1734.62 1239.06 1717.35 1199.48 1695.45 1149.38C1668.5 1086.65 1634.4 1008.76 1608.71 876.141C1601.97 841.618 1599.87 824.778 1599.02 814.673C1597.76 804.569 1597.34 801.622 1593.97 792.781C1563.23 718.682 1468.91 661.003 1320.26 626.48C1190.99 596.167 1025.92 585.642 868.009 597.43C624.196 615.955 454.075 680.37 433.863 762.047Z" fill="#559D2B"/>
<g opacity="0.21">
<path d="M318.065 1243.26C314.275 1238.21 317.644 1229.79 318.907 1227.27C328.592 1202.85 335.751 1177.59 347.963 1154.43C371.123 1111.07 378.702 1086.65 382.492 1087.91C384.176 1088.33 382.913 1095.49 381.229 1110.65C381.229 1111.91 379.544 1139.7 376.597 1195.27C375.755 1210 373.649 1224.32 374.07 1239.05C374.491 1257.58 376.597 1270.21 371.544 1272.31C369.859 1273.16 368.175 1272.31 351.752 1261.79C334.067 1250.42 332.803 1249.58 329.435 1248.74C323.539 1246.21 320.17 1246.63 318.065 1243.26Z" fill="#4D8C32"/>
</g>
<g opacity="0.21">
<path d="M429.652 764.994C420.388 786.465 450.707 816.778 440.601 886.246C435.968 918.664 424.178 945.609 428.389 947.714C435.126 950.661 456.181 878.667 507.975 861.827C543.347 850.46 578.719 869.405 590.93 875.72C721.469 942.241 980.862 948.556 1026.76 949.819C1152.25 952.766 1377.11 916.138 1473.96 869.405C1482.8 865.195 1504.7 853.828 1530.39 859.301C1593.55 872.352 1618.82 974.238 1628.92 970.448C1633.98 968.343 1623.45 942.24 1617.55 887.509C1613.34 849.617 1614.61 828.988 1602.39 797.412C1602.39 797.412 1595.66 779.729 1587.66 766.678C1551.86 708.578 1249.94 820.989 996.863 827.304C710.099 835.303 454.918 708.157 429.652 764.994Z" fill="#4D8C32"/>
</g>
<g opacity="0.21">
<path d="M1659.66 1063.07C1645.77 1065.18 1660.51 1127.91 1648.72 1238.63C1647.87 1246.63 1644.5 1276.53 1654.19 1280.31C1660.93 1282.84 1667.66 1270.63 1688.72 1259.69C1711.88 1247.9 1721.99 1253.79 1729.14 1244.95C1740.09 1231.9 1727.88 1207.06 1707.67 1162.01C1668.09 1074.44 1665.98 1062.23 1659.66 1063.07Z" fill="#4D8C32"/>
</g>
<path d="M667.991 1126.64C673.465 1126.64 678.518 1152.33 688.625 1203.69C702.1 1273.58 701.257 1315.68 704.626 1353.57C710.521 1412.93 731.155 1489.56 763.579 1535.03C857.904 1667.23 1156.88 1684.07 1277.73 1548.08C1339.21 1478.61 1355.63 1367.46 1356.48 1360.73C1360.69 1328.73 1361.95 1287.89 1364.06 1208.32C1366.16 1136.75 1364.06 1129.59 1364.48 1129.59C1367.85 1129.59 1473.54 1528.71 1309.74 1648.28C1254.99 1688.28 1173.72 1689.12 1010.76 1691.22C856.64 1693.33 779.159 1694.17 726.944 1658.38C555.981 1541.76 646.936 1127.49 667.991 1126.64Z" fill="#4D8C32"/>
<path d="M576.613 1731.22C566.086 1731.22 555.137 1729.96 542.505 1726.59C472.603 1708.06 402.281 1640.7 353.855 1545.97C304.167 1448.3 286.06 1339.68 304.167 1247.9C314.694 1194.85 337.433 1148.96 361.856 1100.12C401.018 1021.39 441.864 940.135 427.968 824.357C426.283 809.2 424.178 799.517 422.493 791.518C419.967 778.887 418.282 771.309 421.651 758.258V757.837C433.021 712.367 484.394 671.95 569.876 641.216C648.199 613.008 750.524 593.22 866.324 584.8C1025.92 573.012 1192.25 583.537 1322.79 614.271C1475.22 650.057 1572.92 710.262 1604.92 788.15C1609.13 798.254 1609.55 802.885 1610.82 812.989C1612.08 822.673 1613.76 839.092 1620.5 873.615C1645.77 1004.55 1679.45 1082.02 1706.4 1144.33C1727.88 1193.59 1745.99 1236.11 1753.57 1289.16C1774.62 1439.04 1705.56 1647.86 1573.76 1707.22C1539.65 1722.38 1519.44 1719.85 1470.59 1713.54C1421.74 1707.22 1348.47 1697.54 1205.3 1697.12C1187.62 1697.12 1171.19 1697.12 1153.51 1697.12C1120.66 1697.54 1083.61 1697.54 1022.97 1697.12C957.28 1696.28 923.172 1695.43 897.906 1694.59C875.588 1693.75 860.429 1693.33 837.269 1693.75C731.575 1695.43 677.254 1709.75 637.25 1720.27C614.511 1726.59 596.404 1731.22 576.613 1731.22ZM433.863 762.047C431.336 772.151 432.6 777.624 435.126 789.413C436.81 796.991 438.916 807.516 440.6 823.094C454.917 942.662 413.229 1025.6 373.226 1106.01C349.223 1154.01 326.905 1199.06 316.799 1250.42C299.113 1339.26 317.22 1444.93 365.646 1540.08C412.387 1631.86 479.762 1696.7 546.294 1714.38C579.14 1723.22 600.194 1717.33 635.145 1708.06C675.57 1697.12 731.154 1682.38 838.111 1681.12C861.692 1680.7 876.852 1681.12 899.17 1681.96C924.014 1682.8 958.122 1683.65 1023.81 1684.49C1084.45 1685.33 1121.51 1684.91 1154.35 1684.49C1172.04 1684.49 1188.04 1684.07 1206.15 1684.49C1350.16 1684.91 1427.22 1695.01 1473.12 1700.91C1520.7 1707.22 1538.39 1709.33 1569.13 1695.43C1671.03 1649.54 1767.04 1472.3 1741.77 1290.84C1734.62 1239.06 1717.35 1199.48 1695.45 1149.38C1668.5 1086.65 1634.4 1008.76 1608.71 876.141C1601.97 841.618 1599.87 824.778 1599.02 814.673C1597.76 804.569 1597.34 801.622 1593.97 792.781C1563.23 718.682 1468.91 661.003 1320.26 626.48C1190.99 596.167 1025.92 585.642 868.009 597.43C624.196 615.955 454.075 680.37 433.863 762.047Z" fill="#559D2B"/>
<path d="M398.491 1304.31C376.173 1285.37 238.476 1169.17 115.938 1221.37C57.4062 1246.21 30.0352 1298.42 25.4032 1308.1C-40.7083 1440.72 89.4092 1598.6 100.779 1612.07C114.254 1628.07 199.735 1725.75 343.749 1739.64C392.174 1744.27 491.131 1753.95 537.872 1697.54C609.879 1610.39 523.134 1409.14 398.491 1304.31Z" fill="#5FAF31"/>
<path d="M405.23 1749.74C381.228 1749.74 359.331 1747.64 342.908 1745.96C204.369 1732.48 118.887 1643.23 95.7274 1615.86C88.9899 1607.86 53.6182 1564.92 27.9316 1507.24C-6.17688 1430.62 -9.12453 1362.41 19.5097 1305.15C27.0894 1290.42 55.3026 1239.9 113.413 1215.48C226.687 1167.06 352.594 1257.58 401.861 1299.26L402.282 1299.68C463.762 1351.47 518.083 1428.51 547.559 1505.56C579.141 1588.5 577.036 1660.07 542.506 1701.75C510.082 1740.9 453.656 1749.74 405.23 1749.74ZM182.893 1214.22C161.418 1214.22 139.521 1218 118.466 1226.85C64.5666 1250 38.0378 1296.73 30.8792 1310.63C3.92933 1364.52 6.87696 1428.93 39.7221 1501.77C64.9877 1558.18 99.0961 1599.86 105.412 1607.44C127.73 1633.54 210.264 1719.85 344.172 1732.9C390.913 1737.53 488.185 1746.8 532.821 1692.91C564.403 1654.6 565.666 1587.65 535.769 1509.35C507.134 1434.41 454.498 1359.46 394.703 1308.94L394.282 1308.52C356.383 1276.95 270.902 1214.22 182.893 1214.22Z" fill="#559D2B"/>
<path d="M1609.13 1316.1C1674.82 1257.58 1807.46 1214.64 1878.21 1220.95C1896.73 1222.64 1963.27 1228.53 2002.43 1273.58C2071.91 1353.57 2014.64 1510.61 1951.48 1597.34C1935.05 1619.65 1855.89 1727.85 1714.82 1743.85C1682.82 1747.64 1572.07 1759.85 1513.96 1692.91C1431.43 1597.76 1508.07 1405.78 1609.13 1316.1Z" fill="#5FAF31"/>
<path d="M1663.45 1753.11C1593.55 1753.11 1541.76 1734.17 1508.91 1696.7C1420.48 1594.81 1508.07 1397.36 1604.92 1311.47C1674.4 1249.58 1809.15 1208.32 1878.63 1214.64C1936.74 1219.69 1980.11 1238.21 2007.06 1269.79C2078.65 1352.73 2020.54 1513.56 1956.11 1601.13C1893.37 1687.01 1807.89 1739.64 1714.83 1750.17C1697.14 1751.85 1679.88 1753.11 1663.45 1753.11ZM1613.34 1320.73C1563.65 1365.36 1519.44 1435.25 1498.81 1504.29C1475.22 1581.34 1482.38 1647.02 1518.6 1688.28C1555.65 1731.22 1621.76 1747.64 1713.98 1737.11C1803.26 1727.01 1885.79 1676.07 1946.43 1593.13C2008.33 1508.92 2065.17 1354.83 1997.8 1277.37C1972.96 1248.32 1932.53 1231.48 1877.79 1226.85C1812.1 1221.37 1679.45 1261.79 1613.34 1320.73Z" fill="#559D2B"/>
<g opacity="0.38">
<path d="M1030.55 979.29C1253.31 980.974 1422.59 1166.64 1404.48 1354.41C1388.48 1519.03 1230.99 1665.54 1034.76 1668.49C823.374 1671.86 647.779 1508.08 649.042 1321.15C650.305 1138.01 822.111 977.605 1030.55 979.29Z" fill="#CDDA69"/>
</g>
<g opacity="0.21">
<path d="M1541.76 1692.49C1566.6 1700.91 1614.19 1620.49 1618.4 1613.34C1687.88 1496.29 1634.4 1414.2 1700.09 1342.62C1743.88 1294.63 1807.47 1288.31 1825.15 1286.21C1837.79 1284.95 1935.06 1276.1 1975.9 1329.57C2031.49 1402.83 1951.9 1560.29 1848.31 1633.54C1804.1 1664.7 1712.3 1713.54 1666.82 1679.44C1607.03 1634.39 1676.51 1481.98 1647.87 1471.03C1618.82 1459.67 1497.54 1602.81 1541.76 1692.49C1553.97 1716.91 1574.18 1730.38 1585.97 1736.69C1676.09 1786.37 1785.99 1732.48 1815.47 1718.17C1919.06 1667.23 1968.74 1578.81 1986.01 1541.76C2003.7 1504.71 2074.02 1356.52 2002.85 1274C1942.22 1203.69 1818.84 1226.42 1756.51 1238.21C1737.99 1241.58 1699.25 1253.79 1660.08 1281.16C1498.38 1393.99 1499.23 1678.17 1541.76 1692.49Z" fill="#4D8C32"/>
</g>
<path d="M1663.45 1753.11C1593.55 1753.11 1541.76 1734.17 1508.91 1696.7C1420.48 1594.81 1508.07 1397.36 1604.92 1311.47C1674.4 1249.58 1809.15 1208.32 1878.63 1214.64C1936.74 1219.69 1980.11 1238.21 2007.06 1269.79C2078.65 1352.73 2020.54 1513.56 1956.11 1601.13C1893.37 1687.01 1807.89 1739.64 1714.83 1750.17C1697.14 1751.85 1679.88 1753.11 1663.45 1753.11ZM1613.34 1320.73C1563.65 1365.36 1519.44 1435.25 1498.81 1504.29C1475.22 1581.34 1482.38 1647.02 1518.6 1688.28C1555.65 1731.22 1621.76 1747.64 1713.98 1737.11C1803.26 1727.01 1885.79 1676.07 1946.43 1593.13C2008.33 1508.92 2065.17 1354.83 1997.8 1277.37C1972.96 1248.32 1932.53 1231.48 1877.79 1226.85C1812.1 1221.37 1679.45 1261.79 1613.34 1320.73Z" fill="#559D2B"/>
<g opacity="0.21">
<path d="M200.58 1226C196.79 1235.27 321.012 1267.26 348.804 1365.78C358.91 1401.14 345.014 1404.09 350.068 1454.61C362.279 1572.5 443.971 1619.65 419.127 1671.86C409.02 1692.91 387.545 1701.75 375.333 1706.38C322.275 1727.43 266.27 1694.59 233.004 1675.22C207.317 1660.07 119.309 1603.65 85.6217 1488.72C72.9889 1446.61 54.882 1391.46 83.0951 1340.52C107.097 1297.58 150.049 1281.16 155.944 1279.05C238.057 1250 318.907 1315.26 325.644 1303.89C332.382 1292.52 268.376 1209.16 179.946 1208.32C104.15 1207.48 38.8805 1267.68 15.7204 1331.26C9.82513 1347.68 3.08765 1375.46 8.56185 1419.25C21.1946 1519.87 92.7803 1658.38 234.267 1711.43C321.433 1744.27 484.396 1762.8 550.507 1667.23C618.303 1569.55 535.348 1416.72 466.289 1342.62C358.91 1228.11 204.791 1215.9 200.58 1226Z" fill="#4D8C32"/>
</g>
<path d="M405.23 1749.74C381.228 1749.74 359.331 1747.64 342.908 1745.96C204.369 1732.48 118.887 1643.23 95.7274 1615.86C88.9899 1607.86 53.6182 1564.92 27.9316 1507.24C-6.17688 1430.62 -9.12453 1362.41 19.5097 1305.15C27.0894 1290.42 55.3026 1239.9 113.413 1215.48C226.687 1167.06 352.594 1257.58 401.861 1299.26L402.282 1299.68C463.762 1351.47 518.083 1428.51 547.559 1505.56C579.141 1588.5 577.036 1660.07 542.506 1701.75C510.082 1740.9 453.656 1749.74 405.23 1749.74ZM182.893 1214.22C161.418 1214.22 139.521 1218 118.466 1226.85C64.5666 1250 38.0378 1296.73 30.8792 1310.63C3.92933 1364.52 6.87696 1428.93 39.7221 1501.77C64.9877 1558.18 99.0961 1599.86 105.412 1607.44C127.73 1633.54 210.264 1719.85 344.172 1732.9C390.913 1737.53 488.185 1746.8 532.821 1692.91C564.403 1654.6 565.666 1587.65 535.769 1509.35C507.134 1434.41 454.498 1359.46 394.703 1308.94L394.282 1308.52C356.383 1276.95 270.902 1214.22 182.893 1214.22Z" fill="#559D2B"/>
<path d="M395.546 1044.97C377.018 1167.48 377.86 1270.21 382.492 1344.31C394.283 1521.98 433.023 1584.29 445.656 1601.55C449.025 1606.18 492.818 1666.81 492.818 1666.81C492.818 1666.81 480.607 1680.28 451.972 1708.91C421.654 1739.22 419.127 1774.58 420.812 1793.11C421.233 1800.27 427.549 1805.32 434.708 1804.48C455.341 1801.95 496.608 1795.64 513.452 1783.85C542.507 1763.64 562.72 1747.22 562.72 1747.22C562.72 1747.22 575.352 1772.06 601.46 1797.74C607.355 1803.63 627.989 1812.9 641.043 1818.37C648.201 1821.32 656.202 1820.9 662.94 1817.11C670.94 1812.48 681.468 1806.16 686.942 1800.27C719.366 1765.32 730.314 1728.69 730.314 1728.69C730.314 1728.69 757.264 1738.8 805.69 1754.38C822.112 1759.43 846.536 1761.11 862.537 1761.95C870.538 1762.38 876.012 1754.38 873.486 1746.8C867.169 1728.27 854.115 1697.12 836.008 1679.01C803.584 1646.18 779.582 1644.07 754.738 1625.55C709.26 1591.44 701.68 1531.24 694.1 1460.51C681.468 1345.15 673.046 1233.58 667.15 1125.8" fill="#5FAF31"/>
<path d="M651.148 1827.63C646.937 1827.63 642.726 1826.79 638.936 1825.11C616.618 1815.84 602.722 1808.27 597.248 1803.21C578.299 1784.69 566.509 1767.01 561.034 1757.74C553.034 1764.06 537.032 1775.85 517.241 1789.74C499.555 1802.37 458.288 1808.69 435.549 1811.21C430.496 1811.63 425.443 1810.37 421.653 1807C417.863 1803.63 415.336 1799 414.915 1793.95C413.231 1774.16 415.757 1736.69 447.76 1704.7C467.552 1684.91 479.342 1672.28 484.817 1666.38C474.71 1652.49 443.128 1609.13 440.602 1605.34C421.232 1578.39 386.702 1508.5 376.175 1344.73C369.858 1245.79 374.069 1144.75 389.229 1044.13C389.65 1040.76 393.019 1038.23 396.387 1038.65C399.756 1039.07 402.283 1042.44 401.861 1045.81C387.123 1145.59 382.491 1245.79 388.808 1343.89C399.335 1504.71 432.18 1572.08 450.708 1597.76C454.077 1602.39 497.449 1662.17 497.87 1663.02C499.555 1665.54 499.555 1668.91 497.449 1671.01C497.028 1671.44 484.817 1684.91 456.182 1713.54C427.548 1742.17 425.443 1775.43 426.706 1793.11C426.706 1794.79 427.548 1796.48 428.811 1797.32C430.075 1798.16 431.759 1799 433.443 1798.58C470.499 1794.37 497.87 1787.21 509.24 1779.22C537.874 1759.01 558.087 1743.01 558.087 1743.01C559.771 1741.75 561.455 1741.32 563.14 1741.74C564.824 1742.17 566.509 1743.43 567.351 1745.11C567.351 1745.53 579.983 1769.11 605.249 1793.95C609.039 1797.74 623.356 1804.9 642.726 1813.32C648.2 1815.42 654.096 1815.42 659.149 1812.48C669.676 1806.58 677.677 1801.11 681.467 1796.9C712.206 1763.64 723.576 1728.27 723.576 1727.85C723.997 1726.17 725.26 1724.9 726.945 1724.06C728.629 1723.22 730.313 1723.22 731.998 1723.64C732.419 1723.64 759.369 1733.75 806.952 1748.9C822.111 1753.95 845.271 1755.64 862.115 1756.06C863.8 1756.06 865.484 1755.22 866.326 1753.95C867.168 1752.69 867.589 1751.01 867.168 1749.32C861.273 1732.48 848.64 1701.33 831.375 1684.07C812.005 1664.28 795.583 1656.28 780.002 1648.28C769.896 1643.23 760.632 1638.6 750.947 1631.02C702.1 1594.39 695.363 1529.98 687.783 1461.77C675.992 1350.62 666.728 1237.79 660.833 1126.64C660.833 1123.28 663.36 1120.33 666.728 1119.91C670.097 1119.91 673.045 1122.43 673.466 1125.8C679.361 1236.95 688.204 1349.36 700.416 1460.09C707.574 1525.77 714.312 1587.23 758.526 1620.91C767.369 1627.65 776.212 1632.28 785.897 1636.91C801.478 1644.91 819.585 1653.75 840.639 1674.8C860.01 1694.17 873.064 1727.01 879.38 1745.11C881.485 1750.59 880.222 1756.48 876.853 1761.11C873.485 1765.74 868.01 1768.69 862.115 1768.27C844.429 1767.85 820.006 1765.74 803.583 1760.69C768.633 1749.32 744.63 1740.9 734.103 1737.11C729.471 1749.32 716.838 1777.53 691.573 1804.9C685.256 1811.63 674.308 1818.37 665.886 1823C661.675 1825.95 656.201 1827.63 651.148 1827.63Z" fill="#559D2B"/>
<path d="M1657.56 1037.39C1658.82 1108.54 1652.08 1263.47 1639.03 1411.67C1630.19 1509.77 1620.5 1558.6 1585.55 1601.97C1572.08 1618.81 1557.34 1640.28 1550.6 1650.39C1548.49 1653.75 1548.92 1657.54 1551.02 1660.49C1569.13 1682.38 1590.6 1714.38 1605.76 1756.48C1611.24 1771.22 1615.03 1785.53 1617.55 1798.58C1618.82 1804.48 1613.76 1809.53 1607.87 1808.69C1596.5 1807.42 1584.29 1804.9 1571.23 1801.11C1534.18 1790.16 1506.81 1771.64 1488.28 1756.48C1483.65 1752.69 1476.49 1754.8 1474.8 1760.27C1470.59 1772.9 1462.59 1789.74 1447.43 1804.9C1438.59 1813.74 1429.75 1819.63 1422.17 1823.84C1420.48 1824.69 1418.38 1825.11 1416.27 1824.69C1404.9 1822.16 1385.53 1815.84 1367 1799.85C1345.11 1780.9 1335.42 1758.16 1331.21 1743.43C1329.53 1737.96 1323.63 1735.43 1318.58 1738.38C1297.1 1751.01 1256.68 1769.95 1205.73 1765.32C1186.36 1763.64 1169.93 1759.01 1156.88 1753.53C1152.25 1751.43 1150.14 1745.96 1152.67 1741.32C1158.14 1731.64 1165.72 1719.43 1176.25 1706.38C1218.36 1655.86 1258.36 1654.6 1295.42 1614.18C1311.42 1596.5 1320.26 1572.92 1337.53 1526.19C1351.84 1487.87 1372.06 1431.88 1380.06 1356.1C1390.16 1263.47 1377.95 1184.32 1364.06 1128.75" fill="#5FAF31"/>
<path d="M1417.96 1831C1416.69 1831 1415.43 1831 1414.59 1830.58C1395.22 1825.95 1377.53 1817.11 1362.79 1804.48C1340.06 1785.11 1329.95 1761.53 1325.32 1745.11C1324.9 1744.27 1324.47 1743.85 1324.05 1743.43C1323.63 1743.43 1322.79 1743.01 1321.95 1743.43C1296.26 1758.59 1255.42 1775.85 1205.31 1771.22C1188.04 1769.53 1171.2 1765.74 1154.77 1759.01C1150.98 1757.32 1147.62 1754.38 1146.35 1750.17C1145.09 1746.38 1145.09 1741.75 1147.2 1737.96C1153.93 1725.33 1162.35 1713.12 1171.62 1701.75C1194.78 1673.54 1217.52 1660.49 1239.41 1647.86C1257.52 1637.33 1274.79 1627.23 1290.79 1609.55C1305.95 1592.71 1314.37 1569.55 1331.63 1523.66C1345.11 1487.03 1365.74 1431.46 1374.16 1355.25C1382.59 1280.74 1377.11 1204.95 1358.58 1130.43C1357.74 1127.07 1359.85 1123.7 1363.22 1122.86C1366.58 1122.01 1369.95 1124.12 1370.79 1127.49C1389.74 1203.69 1395.22 1280.74 1386.8 1356.94C1378.37 1434.83 1356.48 1493.35 1343.85 1528.29C1326.16 1575.87 1317.74 1599.86 1300.47 1618.39C1282.79 1637.75 1264.26 1648.7 1246.15 1659.23C1225.1 1671.44 1203.62 1684.07 1181.72 1710.17C1172.88 1720.69 1165.3 1732.06 1158.56 1744.27C1158.14 1745.11 1158.14 1745.96 1158.56 1745.96C1158.56 1746.38 1158.99 1746.8 1159.83 1747.22C1174.99 1753.11 1190.57 1756.9 1206.99 1758.59C1253.73 1762.8 1292.05 1746.8 1316.05 1732.48C1320.26 1729.96 1324.9 1729.54 1329.11 1731.22C1333.32 1732.9 1336.69 1736.69 1337.95 1740.9C1342.16 1755.64 1351.42 1776.69 1371.64 1794.37C1384.69 1805.74 1400.69 1813.74 1417.96 1817.95C1418.38 1817.95 1419.22 1817.95 1419.64 1817.95C1428.48 1812.9 1436.49 1807 1443.64 1800.27C1458.38 1785.53 1465.54 1769.11 1469.33 1758.16C1471.01 1753.53 1474.8 1749.74 1479.44 1748.48C1484.07 1747.22 1489.12 1748.06 1492.91 1751.43C1517.33 1771.64 1544.28 1786.37 1573.76 1794.79C1585.55 1798.16 1597.34 1800.69 1609.55 1802.37C1610.82 1802.37 1611.24 1801.95 1611.66 1801.53C1612.08 1801.11 1612.5 1800.69 1612.08 1799.42C1609.13 1785.53 1605.34 1771.64 1600.29 1758.16C1588.08 1724.06 1569.97 1692.49 1546.81 1663.86C1542.6 1658.81 1542.18 1651.65 1545.97 1646.18C1559.44 1625.97 1571.23 1609.55 1581.34 1597.34C1615.45 1555.24 1625.13 1505.56 1633.56 1410.41C1647.03 1258 1652.93 1104.33 1652.08 1036.97C1652.08 1033.6 1654.61 1030.65 1658.4 1030.65C1661.77 1030.65 1664.72 1033.18 1664.72 1036.97C1665.98 1104.75 1659.66 1258.84 1646.19 1411.67C1637.35 1509.35 1627.66 1560.71 1591.03 1605.34C1581.34 1617.13 1569.97 1633.12 1556.5 1652.91C1556.08 1653.75 1556.08 1655.02 1556.5 1655.86C1580.92 1685.33 1599.45 1718.17 1612.08 1753.95C1617.13 1768.27 1621.34 1782.58 1624.29 1796.9C1625.13 1801.53 1623.87 1806.58 1620.5 1809.95C1617.13 1813.32 1612.5 1815.42 1607.45 1814.58C1594.82 1812.9 1581.76 1810.37 1569.55 1806.58C1538.39 1797.32 1509.76 1781.74 1484.07 1760.69C1483.23 1759.85 1482.38 1760.27 1481.96 1760.27C1481.54 1760.27 1480.7 1760.69 1480.28 1761.95C1474.38 1779.64 1464.28 1796.06 1451.64 1809.11C1443.64 1817.11 1434.8 1823.84 1424.69 1829.32C1423.01 1830.58 1420.48 1831 1417.96 1831Z" fill="#559D2B"/>
<path d="M1664.72 356.189C1569.13 239.569 1349.74 28.6407 1014.97 32.0088C609.462 36.219 379.967 351.558 357.228 384.397C322.277 429.025 302.907 478.283 302.907 529.647C302.907 740.154 625.463 910.664 1023.4 910.664C1421.33 910.664 1743.88 740.154 1743.88 529.647C1743.88 467.337 1715.25 408.395 1664.72 356.189Z" fill="#5FAF31"/>
<path d="M1022.97 916.98C829.691 916.98 647.358 876.983 510.503 804.569C372.385 731.313 296.167 634.059 296.167 529.647C296.167 477.863 315.117 427.762 351.752 380.608C376.596 344.822 609.46 29.4832 1014.55 25.6941C1017.08 25.6941 1020.02 25.6941 1022.55 25.6941C1352.27 25.6941 1569.13 229.886 1669.35 352.401C1721.99 406.711 1749.78 468.179 1749.78 530.068C1749.78 634.48 1673.56 731.734 1535.44 804.99C1398.59 877.404 1216.67 916.98 1022.97 916.98ZM1022.97 38.3245C1020.45 38.3245 1017.92 38.3245 1014.97 38.3245C616.198 42.1136 387.123 352.822 362.279 388.187C326.907 433.656 309.221 481.231 309.221 530.068C309.221 736.786 629.672 904.77 1023.39 904.77C1417.11 904.77 1737.57 736.786 1737.57 530.068C1737.57 470.705 1711.46 413.869 1660.51 360.821C1660.08 360.4 1660.08 360.4 1659.66 359.979C1560.29 239.148 1346.79 38.3245 1022.97 38.3245Z" fill="#559D2B"/>
<g opacity="0.21">
<path d="M691.994 115.37C691.994 115.791 695.362 116.633 702.1 118.738C718.101 123.369 733.682 124.211 733.682 124.211C733.682 124.211 876.432 59.7959 1018.34 60.217C1156.88 60.638 1294.58 122.527 1294.58 122.527C1294.58 122.527 1307.21 123.79 1312.26 123.79C1319.84 123.369 1341.32 121.685 1342.16 118.317C1344.69 105.265 1192.67 30.746 1019.6 30.325C845.271 29.904 689.467 105.265 691.994 115.37Z" fill="#4D8C32"/>
</g>
<path d="M1022.97 916.98C829.691 916.98 647.358 876.983 510.503 804.569C372.385 731.313 296.167 634.059 296.167 529.647C296.167 477.863 315.117 427.762 351.752 380.608C376.596 344.822 609.46 29.4832 1014.55 25.6941C1017.08 25.6941 1020.02 25.6941 1022.55 25.6941C1352.27 25.6941 1569.13 229.886 1669.35 352.401C1721.99 406.711 1749.78 468.179 1749.78 530.068C1749.78 634.48 1673.56 731.734 1535.44 804.99C1398.59 877.404 1216.67 916.98 1022.97 916.98ZM1022.97 38.3245C1020.45 38.3245 1017.92 38.3245 1014.97 38.3245C616.198 42.1136 387.123 352.822 362.279 388.187C326.907 433.656 309.221 481.231 309.221 530.068C309.221 736.786 629.672 904.77 1023.39 904.77C1417.11 904.77 1737.57 736.786 1737.57 530.068C1737.57 470.705 1711.46 413.869 1660.51 360.821C1660.08 360.4 1660.08 360.4 1659.66 359.979C1560.29 239.148 1346.79 38.3245 1022.97 38.3245Z" fill="#559D2B"/>
<path d="M1679.88 374.294C1684.09 347.77 1702.2 210.098 1619.66 103.161C1599.87 77.4791 1550.6 13.0641 1470.17 8.85394C1396.06 5.06482 1344.27 55.1654 1333.32 66.5328C1260.47 141.473 1270.58 248.411 1271.84 260.199" fill="#5FAF31"/>
<path d="M1679.88 380.608C1679.45 380.608 1679.45 380.608 1679.03 380.608C1675.67 380.187 1673.14 376.819 1673.56 373.451C1679.03 336.402 1691.67 207.151 1614.61 106.95C1596.08 82.9517 1547.23 19.3787 1469.75 15.1686C1403.22 11.8005 1355.21 53.0598 1337.95 70.7423C1267.63 143.157 1276.89 247.989 1278.58 259.356C1279 262.725 1276.47 266.093 1273.1 266.514C1269.73 266.935 1266.36 264.409 1265.94 261.04C1264.68 248.831 1254.57 138.526 1329.11 61.9011C1347.63 42.9555 1399.01 -1.25096 1470.59 2.53816C1553.97 6.7483 1605.34 74.1104 1624.71 98.9502C1704.3 202.941 1691.67 336.402 1686.19 374.714C1685.77 378.503 1682.82 380.608 1679.88 380.608Z" fill="#559D2B"/>
<g opacity="0.21">
<path d="M1646.61 373.872C1637.35 331.771 1649.56 312.404 1649.98 274.092C1650.82 185.679 1588.08 121.685 1584.71 118.317C1569.97 104.003 1529.97 64.8484 1467.65 62.3223C1410.38 59.7963 1369.11 88.8462 1359 96.8454C1282.37 154.945 1282.79 261.883 1272.26 260.199C1263.84 258.936 1257.52 190.731 1287 125.474C1296.68 104.003 1320.26 53.9021 1377.11 24.8521C1394.8 15.5898 1440.27 -3.77679 1494.6 8.01159C1561.13 21.905 1598.18 73.2687 1619.24 103.161C1662.19 163.366 1692.51 254.726 1683.67 312.825C1682.4 320.825 1677.77 345.664 1687.03 374.714C1693.77 395.765 1704.3 409.238 1708.93 415.132C1741.36 458.917 1756.51 546.909 1729.99 616.797C1727.46 623.533 1724.51 630.27 1720.72 637.427C1720.72 637.427 1702.19 673.634 1667.24 704.789C1529.55 827.304 1328.69 879.089 1328.69 879.089C1257.1 897.613 1147.62 917.401 1010.34 910.665C1056.24 908.139 1433.12 883.72 1598.18 714.051C1636.08 674.897 1708.51 603.325 1697.98 512.386C1693.35 473.653 1676.09 440.814 1676.09 440.814C1665.98 426.078 1653.35 403.343 1646.61 373.872Z" fill="#4D8C32"/>
</g>
<path d="M762.317 280.407C764.001 262.304 770.739 173.47 716.418 95.5821C706.733 81.6887 654.517 7.1693 570.72 6.32727C473.448 5.06423 415.337 103.16 403.546 123.369C341.646 227.78 365.648 343.559 370.28 363.768" fill="#5FAF31"/>
<path d="M370.28 370.504C367.332 370.504 364.805 368.399 363.963 365.452C356.805 333.455 338.277 221.044 398.072 120.422C444.813 42.1135 505.871 -0.829875 571.14 0.0121521C646.516 0.854179 697.889 58.112 721.891 92.2141C773.686 165.891 772.001 248.831 769.054 281.249C768.633 284.617 765.685 287.143 762.316 287.143C758.948 286.722 756.421 283.775 756.421 280.407C759.369 249.673 761.053 170.102 711.364 99.7924C689.046 67.7953 640.621 13.9056 570.719 13.0636C510.503 12.2215 453.235 52.6388 409.02 127.158C351.752 223.991 369.437 332.192 376.596 362.926C377.438 366.294 375.333 369.662 371.964 370.504C371.122 370.504 370.701 370.504 370.28 370.504Z" fill="#559D2B"/>
<path d="M544.19 141.894C465.445 146.525 414.914 234.096 419.125 307.773C422.915 371.767 468.393 443.339 535.347 450.918C614.091 459.759 689.045 376.819 687.361 292.616C685.677 216.413 622.092 137.262 544.19 141.894Z" fill="#353535"/>
<path d="M1487.02 140.631C1409.11 138.105 1350.16 213.045 1346.37 285.038C1342.16 362.084 1401.11 445.445 1480.7 445.866C1559.44 446.287 1618.4 365.873 1617.55 290.091C1616.29 220.202 1563.65 143.157 1487.02 140.631Z" fill="#353535"/>
<path d="M438.917 597.851C417.02 597.851 400.177 591.536 395.124 589.852C390.913 588.168 388.807 583.116 390.492 578.906C392.176 574.696 397.229 572.591 401.44 574.275C408.599 577.222 446.918 590.694 482.711 569.643C503.344 557.434 513.872 538.909 518.504 529.226C520.609 525.016 525.241 522.911 529.452 525.016C533.663 527.121 535.768 531.752 533.663 535.962C528.61 547.751 515.977 569.643 491.133 583.958C473.026 594.904 454.498 597.851 438.917 597.851Z" fill="#353535"/>
<path d="M1625.55 583.537C1611.66 583.537 1596.08 581.853 1579.23 576.38C1546.81 565.854 1524.91 546.909 1512.28 533.015C1509.33 529.647 1509.33 524.174 1513.12 521.227C1516.49 518.28 1521.96 518.28 1524.91 522.069C1535.86 534.699 1555.23 551.119 1584.29 560.381C1612.92 569.643 1638.61 567.117 1655.03 563.749C1659.66 562.907 1663.87 565.433 1665.13 570.064C1665.98 574.696 1663.45 578.906 1658.82 580.169C1649.98 582.274 1638.61 583.537 1625.55 583.537Z" fill="#353535"/>
<path d="M1032.66 748.153C1029.29 748.153 1025.92 748.153 1022.97 748.153C878.537 746.469 772.422 711.104 715.574 692.158C633.882 665.213 555.559 628.585 482.289 583.958C478.499 581.432 477.236 576.379 479.341 572.59C481.868 568.801 486.921 567.538 490.711 569.643C563.139 613.85 640.199 649.636 720.627 676.16C776.632 694.684 881.063 729.207 1022.97 730.891C1086.56 731.733 1215.41 724.997 1365.74 669.423C1439.85 642.058 1511.02 605.429 1576.71 561.223C1580.5 558.697 1585.97 559.539 1588.5 563.328C1591.02 567.117 1590.18 572.59 1586.39 575.116C1519.44 620.165 1447.01 657.214 1371.64 685.001C1226.36 739.312 1100.45 748.153 1032.66 748.153Z" fill="#353535"/>
<path d="M1070.55 450.918C1086.56 456.812 1100.87 466.074 1112.66 478.283C1118.56 484.599 1111.82 495.124 1103.4 492.598C1087.4 486.704 1073.08 477.441 1061.29 465.232C1057.92 461.864 1058.34 456.391 1061.71 453.023C1064.24 450.497 1067.61 450.076 1070.55 450.918Z" fill="#353535"/>
<path d="M976.231 464.811C964.019 477.021 950.123 486.704 934.122 492.177C929.49 493.44 924.437 490.914 923.173 486.283C918.541 474.495 957.282 453.444 966.967 450.497C975.389 447.971 982.126 458.496 976.231 464.811Z" fill="#353535"/>
<g opacity="0.62">
<path d="M1556.07 333.876C1570.96 333.876 1583.02 315.592 1583.02 293.037C1583.02 270.483 1570.96 252.199 1556.07 252.199C1541.19 252.199 1529.12 270.483 1529.12 293.037C1529.12 315.592 1541.19 333.876 1556.07 333.876Z" fill="white"/>
<path d="M1556.07 340.191C1537.55 340.191 1522.81 319.561 1522.81 293.038C1522.81 266.514 1537.55 245.884 1556.07 245.884C1574.6 245.884 1589.34 266.514 1589.34 293.038C1589.34 319.561 1574.6 340.191 1556.07 340.191ZM1556.07 258.514C1545.13 258.514 1535.44 274.513 1535.44 293.038C1535.44 311.562 1544.7 327.561 1556.07 327.561C1567.44 327.561 1576.71 311.562 1576.71 293.038C1576.71 274.513 1567.02 258.514 1556.07 258.514Z" fill="white"/>
</g>
<g opacity="0.62">
<path d="M480.604 333.876C495.488 333.876 507.554 315.592 507.554 293.037C507.554 270.483 495.488 252.199 480.604 252.199C465.72 252.199 453.654 270.483 453.654 293.037C453.654 315.592 465.72 333.876 480.604 333.876Z" fill="white"/>
<path d="M480.605 340.191C462.077 340.191 447.339 319.561 447.339 293.038C447.339 266.514 462.077 245.884 480.605 245.884C499.133 245.884 513.871 266.514 513.871 293.038C513.871 319.561 499.133 340.191 480.605 340.191ZM480.605 258.514C469.657 258.514 459.972 274.513 459.972 293.038C459.972 311.562 469.236 327.561 480.605 327.561C491.975 327.561 501.239 311.562 501.239 293.038C501.239 274.513 491.975 258.514 480.605 258.514Z" fill="white"/>
</g>
<g opacity="0.33">
<path d="M470.921 396.186C513.451 435.761 574.509 433.656 620.408 401.238C579.562 441.234 507.556 443.34 470.921 396.186Z" fill="white"/>
</g>
<g opacity="0.33">
<path d="M1556.49 396.186C1519.86 443.34 1447.85 441.234 1407.01 401.238C1452.91 433.656 1513.96 435.761 1556.49 396.186Z" fill="white"/>
</g>
<path d="M1062.56 980.553C1066.77 988.973 1062.56 999.498 1057.5 1005.81C1046.55 1019.71 1026.34 1017.18 1022.55 1016.34C1002.76 1013.81 982.127 998.235 984.232 986.868C986.759 973.817 1018.76 970.87 1022.55 970.449C1031.82 969.607 1055.82 967.501 1062.56 980.553Z" fill="#5FAF31"/>
<path d="M1111.82 1036.97C1110.14 1050.02 1091.61 1057.6 1077.71 1057.6C1063.82 1057.6 1045.29 1050.02 1043.6 1036.97C1042.34 1027.71 1050.34 1020.13 1052.03 1018.02C1063.82 1006.66 1083.61 1005.81 1097.08 1014.65C1099.19 1015.92 1113.08 1025.18 1111.82 1036.97Z" fill="#5FAF31"/>
<path d="M1011.18 1035.28C1011.6 1023.07 989.285 1007.92 969.494 1011.29C956.44 1013.39 941.281 1024.34 942.123 1036.97C942.965 1048.76 957.703 1055.07 959.388 1055.91C972.863 1061.81 986.338 1055.49 991.391 1052.97C997.286 1050.44 1010.76 1044.13 1011.18 1035.28Z" fill="#5FAF31"/>
<path d="M1018.76 1048.76C1025.92 1047.49 1034.76 1052.55 1035.61 1058.86C1036.87 1066.86 1026.76 1074.44 1017.92 1074.86C1017.5 1074.86 1008.23 1075.28 1005.29 1069.81C1001.92 1063.49 1008.66 1050.02 1018.76 1048.76Z" fill="#5FAF31"/>
<g opacity="0.32">
<path d="M132.784 1254.21C129.415 1259.26 131.941 1268.11 136.573 1273.16C143.311 1280.31 152.996 1278.63 155.944 1278.21C162.26 1277.37 171.945 1273.16 172.366 1266.84C172.787 1262.21 168.155 1258.42 166.05 1256.74C155.944 1248.74 137.837 1246.21 132.784 1254.21Z" fill="white"/>
</g>
<g opacity="0.32">
<path d="M102.042 1366.62C90.6727 1372.1 89.4095 1388.09 89.4095 1393.57C88.1462 1413.78 99.5157 1440.3 117.623 1441.98C124.781 1442.83 132.361 1439.46 136.993 1434.41C146.257 1423.88 140.783 1407.46 134.466 1387.25C130.255 1374.2 126.887 1370.41 123.518 1368.31C116.78 1364.52 108.78 1363.67 102.042 1366.62Z" fill="white"/>
</g>
<g opacity="0.32">
<path d="M476.395 1062.65C470.5 1061.39 457.867 1092.12 451.972 1111.07C446.919 1127.91 427.97 1188.11 455.762 1220.95C457.867 1223.48 464.605 1231.48 469.658 1229.79C477.658 1227.27 474.711 1201.58 473.448 1175.06C470.921 1103.91 483.133 1064.33 476.395 1062.65Z" fill="white"/>
</g>
<g opacity="0.32">
<path d="M527.346 945.188C519.346 948.556 520.188 964.554 522.293 973.396C522.714 975.922 526.083 989.394 532.399 989.815C540.4 990.657 554.296 970.87 547.559 956.555C544.19 948.556 534.084 942.662 527.346 945.188Z" fill="white"/>
</g>
<g opacity="0.32">
<path d="M1466.38 980.974C1463.85 986.447 1467.64 992.762 1471.43 996.13C1476.91 1001.18 1487.44 1002.87 1492.07 997.393C1496.7 991.92 1493.75 981.395 1487.02 976.764C1480.28 972.974 1469.33 974.659 1466.38 980.974Z" fill="white"/>
</g>
<g opacity="0.32">
<path d="M1536.7 1047.49C1528.28 1047.49 1522.81 1035.28 1525.33 1031.07C1528.7 1025.6 1545.97 1026.86 1548.49 1033.6C1549.76 1038.23 1544.28 1047.49 1536.7 1047.49Z" fill="white"/>
</g>
<g opacity="0.32">
<path d="M1539.23 1102.23C1545.97 1098.86 1555.23 1100.12 1561.13 1104.75C1566.6 1108.96 1568.71 1115.7 1567.44 1153.17C1566.6 1190.64 1564.07 1197.37 1558.6 1200.32C1552.71 1203.69 1544.7 1202.43 1539.65 1199.06C1534.18 1195.27 1530.81 1188.53 1529.55 1164.54C1527.44 1131.28 1526.6 1108.96 1539.23 1102.23Z" fill="white"/>
</g>
<g opacity="0.32">
<path d="M1912.32 1357.78C1917.79 1355.25 1928.32 1352.73 1934.21 1357.78C1944.32 1366.62 1934.21 1393.15 1925.37 1407.46C1922.42 1412.51 1906.84 1437.77 1892.11 1434.41C1885.37 1432.72 1881.16 1425.99 1879.47 1420.51C1878.21 1415.88 1878.21 1410.83 1890.84 1387.25C1903.48 1362.83 1908.11 1359.46 1912.32 1357.78Z" fill="white"/>
</g>
<g opacity="0.32">
<path d="M617.882 219.36C612.829 222.728 612.829 231.149 614.513 236.622C617.461 245.884 628.83 253.462 635.147 250.094C641.042 247.147 642.305 234.096 636.831 226.097C632.199 220.202 623.356 215.571 617.882 219.36Z" fill="white"/>
</g>
<g opacity="0.32">
<path d="M1396.9 219.36C1401.95 222.728 1401.95 231.149 1400.27 236.622C1397.32 245.884 1385.95 253.462 1379.64 250.094C1373.74 247.147 1372.48 234.096 1377.95 226.097C1382.16 220.202 1391.43 215.571 1396.9 219.36Z" fill="white"/>
</g>
<path d="M1679.88 380.608C1679.45 380.608 1679.45 380.608 1679.03 380.608C1675.67 380.187 1673.14 376.819 1673.56 373.451C1679.03 336.402 1691.67 207.151 1614.61 106.95C1596.08 82.9517 1547.23 19.3787 1469.75 15.1686C1403.22 11.8005 1355.21 53.0598 1337.95 70.7423C1267.63 143.157 1276.89 247.989 1278.58 259.356C1279 262.725 1276.47 266.093 1273.1 266.514C1269.73 266.935 1266.36 264.409 1265.94 261.04C1264.68 248.831 1254.57 138.526 1329.11 61.9011C1347.63 42.9555 1399.01 -1.25096 1470.59 2.53816C1553.97 6.7483 1605.34 74.1104 1624.71 98.9502C1704.3 202.941 1691.67 336.402 1686.19 374.714C1685.77 378.503 1682.82 380.608 1679.88 380.608Z" fill="#559D2B"/>
<g opacity="0.32">
<path d="M524.4 69.4795C518.926 59.7962 459.973 69.0585 442.708 108.213C439.339 116.212 433.023 134.316 439.761 138.947C454.499 149.893 531.98 82.531 524.4 69.4795Z" fill="white"/>
</g>
<g opacity="0.32">
<path d="M356.383 475.758C349.646 483.757 348.383 497.229 353.857 506.492C362.7 521.227 387.544 522.49 402.283 511.544C411.547 504.807 419.126 490.914 414.915 480.81C408.178 464.39 370.28 458.496 356.383 475.758Z" fill="white"/>
</g>
<g opacity="0.32">
<path d="M1683.67 475.758C1690.4 483.757 1692.09 497.229 1686.19 506.492C1677.35 521.227 1652.51 522.49 1637.77 511.544C1628.5 504.807 1620.92 490.914 1625.13 480.81C1631.87 464.39 1669.77 458.496 1683.67 475.758Z" fill="white"/>
</g>
</g>
<defs>
<filter id="filter0_d_427_1324" x="-0.000976562" y="0" width="2055" height="1846" filterUnits="userSpaceOnUse" color-interpolation-filters="sRGB">
<feFlood flood-opacity="0" result="BackgroundImageFix"/>
<feColorMatrix in="SourceAlpha" type="matrix" values="0 0 0 0 0 0 0 0 0 0 0 0 0 0 0 0 0 0 127 0" result="hardAlpha"/>
<feOffset dx="15" dy="15"/>
<feComposite in2="hardAlpha" operator="out"/>
<feColorMatrix type="matrix" values="0 0 0 0 0 0 0 0 0 0 0 0 0 0 0 0 0 0 0.2 0"/>
<feBlend mode="normal" in2="BackgroundImageFix" result="effect1_dropShadow_427_1324"/>
<feBlend mode="normal" in="SourceGraphic" in2="effect1_dropShadow_427_1324" result="shape"/>
</filter>
</defs>
</svg>
