<svg width="267" height="239" viewBox="0 0 267 239" fill="none" xmlns="http://www.w3.org/2000/svg">
<path d="M55.9957 99.1547C55.3915 101.627 56.2154 102.286 56.8197 107.504C59.7311 132.114 44.2402 144.859 40.6696 162.986C35.7256 188.145 52.5899 219.567 71.1571 224.511C80.7153 227.037 83.3521 220.555 109.445 220.171C115.817 220.061 117.245 220.446 133.67 220.61C145.865 220.72 150.809 220.61 157.456 220.61C195.03 220.72 196.733 225.774 205.192 221.984C221.617 214.623 231.011 188.31 228.209 168.315C226.012 152.769 216.838 144.913 210.905 114.151C209.147 105.087 209.917 105.582 208.928 103.165C193.327 65.7558 62.9721 70.8645 55.9957 99.1547Z" fill="#5FAF31"/>
<path d="M75.3867 225.884C74.0134 225.884 72.5852 225.719 70.9372 225.28C61.8184 222.863 52.6447 214.073 46.3274 201.714C39.8454 188.969 37.4833 174.797 39.8454 162.821C41.2187 155.9 44.1851 149.912 47.3712 143.54C52.4799 133.268 57.8083 122.666 55.9956 107.559C55.7758 105.582 55.5012 104.318 55.2814 103.275C54.9518 101.627 54.7321 100.638 55.1716 98.935V98.88C56.6547 92.9473 63.3565 87.6738 74.5078 83.6637C84.7252 79.9833 98.0738 77.4015 113.18 76.3028C134 74.7647 155.698 76.138 172.727 80.1481C192.613 84.8173 205.357 92.6727 209.532 102.835C210.081 104.154 210.136 104.758 210.301 106.076C210.466 107.34 210.685 109.482 211.564 113.986C214.86 131.07 219.255 141.178 222.771 149.308C225.572 155.735 227.934 161.283 228.923 168.205C231.67 187.761 222.661 215.007 205.467 222.753C201.017 224.73 198.381 224.401 192.008 223.577C185.636 222.753 176.078 221.489 157.401 221.434C155.094 221.434 152.951 221.434 150.644 221.434C146.359 221.489 141.525 221.489 133.615 221.434C125.046 221.325 120.596 221.215 117.3 221.105C114.389 220.995 112.411 220.94 109.39 220.995C95.6019 221.215 88.5156 223.082 83.297 224.456C80.3306 225.28 77.9685 225.884 75.3867 225.884ZM56.7646 99.4294C56.435 100.748 56.5998 101.462 56.9294 103C57.1491 103.989 57.4238 105.362 57.6435 107.395C59.5112 122.995 54.0729 133.817 48.8543 144.309C45.7232 150.571 42.8118 156.449 41.4934 163.151C39.1862 174.742 41.5483 188.53 47.8656 200.945C53.9631 212.92 62.7523 221.379 71.4316 223.687C75.7163 224.84 78.4629 224.071 83.0223 222.863C88.2958 221.434 95.5469 219.512 109.5 219.347C112.576 219.292 114.554 219.347 117.465 219.457C120.706 219.567 125.156 219.677 133.725 219.786C141.635 219.896 146.469 219.841 150.754 219.786C153.061 219.786 155.149 219.731 157.511 219.786C176.298 219.841 186.35 221.16 192.338 221.929C198.545 222.753 200.852 223.027 204.863 221.215C218.156 215.227 230.681 192.1 227.385 168.425C226.451 161.668 224.199 156.504 221.342 149.967C217.827 141.782 213.377 131.62 210.026 114.316C209.147 109.812 208.873 107.614 208.763 106.296C208.598 104.978 208.543 104.593 208.104 103.439C204.093 93.7713 191.789 86.2456 172.397 81.7411C155.533 77.786 134 76.4127 113.4 77.9508C81.5941 80.3678 59.4014 88.7725 56.7646 99.4294Z" fill="#559D2B"/>
<g opacity="0.21">
<path d="M41.6583 162.217C41.1639 161.558 41.6034 160.459 41.7682 160.13C43.0317 156.944 43.9655 153.648 45.5585 150.626C48.5798 144.968 49.5686 141.782 50.063 141.947C50.2827 142.002 50.1179 142.936 49.8982 144.913C49.8982 145.078 49.6785 148.704 49.294 155.955C49.1841 157.878 48.9094 159.745 48.9644 161.668C49.0193 164.085 49.294 165.733 48.6348 166.008C48.415 166.117 48.1953 166.008 46.0529 164.634C43.7458 163.151 43.581 163.041 43.1415 162.931C42.3725 162.602 41.933 162.657 41.6583 162.217Z" fill="#4D8C32"/>
</g>
<g opacity="0.21">
<path d="M56.2152 99.8139C55.0067 102.615 58.9618 106.571 57.6434 115.634C57.0391 119.864 55.501 123.38 56.0504 123.655C56.9293 124.039 59.6759 114.646 66.4326 112.448C71.0469 110.965 75.6613 113.437 77.2543 114.261C94.2834 122.94 128.122 123.764 134.109 123.929C150.479 124.314 179.813 119.535 192.448 113.437C193.601 112.888 196.458 111.405 199.809 112.119C208.049 113.822 211.344 127.115 212.663 126.621C213.322 126.346 211.949 122.94 211.18 115.799C210.63 110.855 210.795 108.164 209.202 104.044C209.202 104.044 208.323 101.737 207.279 100.034C202.61 92.4529 163.224 107.12 130.209 107.944C92.8002 108.988 59.5111 92.398 56.2152 99.8139Z" fill="#4D8C32"/>
</g>
<g opacity="0.21">
<path d="M216.673 138.706C214.86 138.981 216.783 147.166 215.245 161.613C215.135 162.657 214.695 166.557 215.959 167.051C216.838 167.381 217.717 165.788 220.463 164.36C223.485 162.821 224.803 163.59 225.737 162.437C227.165 160.734 225.572 157.493 222.935 151.615C217.772 140.189 217.497 138.596 216.673 138.706Z" fill="#4D8C32"/>
</g>
<path d="M87.3069 147.001C88.021 147.001 88.6802 150.352 89.9986 157.054C91.7564 166.172 91.6465 171.666 92.086 176.609C92.855 184.355 95.5467 194.353 99.7765 200.285C112.081 217.534 151.083 219.731 166.849 201.988C174.869 192.924 177.012 178.422 177.121 177.543C177.671 173.368 177.836 168.04 178.11 157.658C178.385 148.319 178.11 147.385 178.165 147.385C178.605 147.385 192.393 199.461 171.024 215.062C163.883 220.281 153.281 220.391 132.022 220.665C111.917 220.94 101.809 221.05 94.9974 216.381C72.6948 201.164 84.5602 147.111 87.3069 147.001Z" fill="#4D8C32"/>
<path d="M75.3867 225.884C74.0134 225.884 72.5852 225.719 70.9372 225.28C61.8184 222.863 52.6447 214.073 46.3274 201.714C39.8454 188.969 37.4833 174.797 39.8454 162.821C41.2187 155.9 44.1851 149.912 47.3712 143.54C52.4799 133.268 57.8083 122.666 55.9956 107.559C55.7758 105.582 55.5012 104.318 55.2814 103.275C54.9518 101.627 54.7321 100.638 55.1716 98.935V98.88C56.6547 92.9473 63.3565 87.6738 74.5078 83.6637C84.7252 79.9833 98.0738 77.4015 113.18 76.3028C134 74.7647 155.698 76.138 172.727 80.1481C192.613 84.8173 205.357 92.6727 209.532 102.835C210.081 104.154 210.136 104.758 210.301 106.076C210.466 107.34 210.685 109.482 211.564 113.986C214.86 131.07 219.255 141.178 222.771 149.308C225.572 155.735 227.934 161.283 228.923 168.205C231.67 187.761 222.661 215.007 205.467 222.753C201.017 224.73 198.381 224.401 192.008 223.577C185.636 222.753 176.078 221.489 157.401 221.434C155.094 221.434 152.951 221.434 150.644 221.434C146.359 221.489 141.525 221.489 133.615 221.434C125.046 221.325 120.596 221.215 117.3 221.105C114.389 220.995 112.411 220.94 109.39 220.995C95.6019 221.215 88.5156 223.082 83.297 224.456C80.3306 225.28 77.9685 225.884 75.3867 225.884ZM56.7646 99.4294C56.435 100.748 56.5998 101.462 56.9294 103C57.1491 103.989 57.4238 105.362 57.6435 107.395C59.5112 122.995 54.0729 133.817 48.8543 144.309C45.7232 150.571 42.8118 156.449 41.4934 163.151C39.1862 174.742 41.5483 188.53 47.8656 200.945C53.9631 212.92 62.7523 221.379 71.4316 223.687C75.7163 224.84 78.4629 224.071 83.0223 222.863C88.2958 221.434 95.5469 219.512 109.5 219.347C112.576 219.292 114.554 219.347 117.465 219.457C120.706 219.567 125.156 219.677 133.725 219.786C141.635 219.896 146.469 219.841 150.754 219.786C153.061 219.786 155.149 219.731 157.511 219.786C176.298 219.841 186.35 221.16 192.338 221.929C198.545 222.753 200.852 223.027 204.863 221.215C218.156 215.227 230.681 192.1 227.385 168.425C226.451 161.668 224.199 156.504 221.342 149.967C217.827 141.782 213.377 131.62 210.026 114.316C209.147 109.812 208.873 107.614 208.763 106.296C208.598 104.978 208.543 104.593 208.104 103.439C204.093 93.7713 191.789 86.2456 172.397 81.7411C155.533 77.786 134 76.4127 113.4 77.9508C81.5941 80.3678 59.4014 88.7725 56.7646 99.4294Z" fill="#559D2B"/>
<path d="M52.1501 170.182C49.2386 167.71 31.2757 152.549 15.2904 159.361C7.65477 162.602 4.08416 169.413 3.47991 170.677C-5.14449 187.98 11.8296 208.58 13.3128 210.338C15.0707 212.425 26.2219 225.17 45.0088 226.983C51.3261 227.587 64.2352 228.85 70.3327 221.489C79.7262 210.118 68.4101 183.861 52.1501 170.182Z" fill="#5FAF31"/>
<path d="M53.0291 228.301C49.898 228.301 47.0415 228.026 44.8991 227.807C26.8263 226.049 15.6751 214.403 12.6538 210.832C11.7748 209.789 7.16052 204.186 3.80964 196.66C-0.639891 186.662 -1.02442 177.763 2.71099 170.292C3.69977 168.37 7.38025 161.778 14.9609 158.592C29.7378 152.274 46.1626 164.085 52.5897 169.523L52.6446 169.578C60.6647 176.335 67.751 186.387 71.5963 196.44C75.7162 207.262 75.4416 216.6 70.9371 222.039C66.7073 227.147 59.3464 228.301 53.0291 228.301ZM24.0248 158.427C21.2232 158.427 18.3667 158.921 15.6201 160.075C8.58876 163.096 5.12802 169.194 4.19417 171.006C0.678489 178.038 1.06302 186.442 5.34775 195.946C8.6437 203.307 13.0932 208.745 13.9172 209.734C16.8286 213.14 27.5954 224.401 45.0639 226.104C51.1614 226.708 63.8508 227.916 69.6737 220.885C73.7936 215.886 73.9584 207.152 70.0582 196.934C66.3228 187.156 59.4562 177.379 51.6558 170.787L51.6009 170.732C46.657 166.612 35.5057 158.427 24.0248 158.427Z" fill="#559D2B"/>
<path d="M210.081 171.72C218.651 164.085 235.954 158.482 245.183 159.306C247.6 159.525 256.279 160.295 261.388 166.172C270.452 176.609 262.981 197.099 254.741 208.415C252.599 211.327 242.271 225.444 223.869 227.532C219.694 228.026 205.247 229.619 197.666 220.885C186.9 208.47 196.897 183.421 210.081 171.72Z" fill="#5FAF31"/>
<path d="M217.167 228.74C208.049 228.74 201.292 226.268 197.007 221.379C185.471 208.086 196.897 182.322 209.532 171.116C218.596 163.041 236.174 157.658 245.238 158.482C252.819 159.141 258.477 161.558 261.992 165.678C271.331 176.5 263.75 197.484 255.345 208.91C247.161 220.116 236.009 226.983 223.869 228.356C221.562 228.576 219.31 228.74 217.167 228.74ZM210.63 172.325C204.148 178.148 198.381 187.266 195.689 196.275C192.613 206.328 193.546 214.897 198.271 220.281C203.105 225.884 211.729 228.026 223.759 226.653C235.405 225.335 246.172 218.688 254.082 207.866C262.157 196.88 269.573 176.774 260.784 166.667C257.543 162.876 252.269 160.679 245.128 160.075C236.559 159.361 219.255 164.634 210.63 172.325Z" fill="#559D2B"/>
<g opacity="0.38">
<path d="M134.604 127.775C163.663 127.994 185.746 152.219 183.384 176.719C181.297 198.198 160.752 217.314 135.153 217.699C107.577 218.138 84.6703 196.77 84.8351 172.38C84.9999 148.484 107.412 127.555 134.604 127.775Z" fill="#CDDA69"/>
</g>
<g opacity="0.21">
<path d="M201.292 220.83C204.533 221.929 210.74 211.437 211.29 210.503C220.354 195.232 213.377 184.52 221.947 175.181C227.66 168.919 235.954 168.095 238.262 167.82C239.909 167.655 252.599 166.502 257.927 173.478C265.178 183.037 254.796 203.581 241.283 213.14C235.515 217.205 223.54 223.577 217.607 219.127C209.806 213.249 218.87 193.364 215.135 191.936C211.345 190.452 195.524 209.13 201.292 220.83C202.885 224.016 205.522 225.774 207.06 226.598C218.815 233.08 233.153 226.049 236.998 224.181C250.511 217.534 256.993 205.998 259.246 201.164C261.553 196.33 270.727 176.994 261.443 166.227C253.533 157.054 237.438 160.02 229.308 161.558C226.89 161.997 221.837 163.59 216.728 167.161C195.634 181.883 195.744 218.962 201.292 220.83Z" fill="#4D8C32"/>
</g>
<path d="M217.167 228.74C208.049 228.74 201.292 226.268 197.007 221.379C185.471 208.086 196.897 182.322 209.532 171.116C218.596 163.041 236.174 157.658 245.238 158.482C252.819 159.141 258.477 161.558 261.992 165.678C271.331 176.5 263.75 197.484 255.345 208.91C247.161 220.116 236.009 226.983 223.869 228.356C221.562 228.576 219.31 228.74 217.167 228.74ZM210.63 172.325C204.148 178.148 198.381 187.266 195.689 196.275C192.613 206.328 193.546 214.897 198.271 220.281C203.105 225.884 211.729 228.026 223.759 226.653C235.405 225.335 246.172 218.688 254.082 207.866C262.157 196.88 269.573 176.774 260.784 166.667C257.543 162.876 252.269 160.679 245.128 160.075C236.559 159.361 219.255 164.634 210.63 172.325Z" fill="#559D2B"/>
<g opacity="0.21">
<path d="M26.3321 159.965C25.8377 161.173 42.0428 165.348 45.6684 178.203C46.9867 182.817 45.174 183.201 45.8332 189.793C47.4262 205.174 58.0831 211.327 54.8421 218.138C53.5237 220.885 50.7221 222.039 49.1291 222.643C42.2076 225.389 34.9016 221.105 30.5619 218.578C27.211 216.6 15.7302 209.239 11.3356 194.243C9.68759 188.75 7.32549 181.553 11.006 174.907C14.1371 169.303 19.7402 167.161 20.5093 166.886C31.2211 163.096 41.7682 171.611 42.6471 170.127C43.526 168.644 35.1763 157.768 23.6404 157.658C13.7526 157.548 5.23806 165.403 2.21677 173.698C1.44772 175.84 0.568798 179.466 1.28292 185.179C2.93089 198.308 12.2694 216.381 30.7267 223.302C42.0977 227.587 63.3566 230.004 71.981 217.534C80.8251 204.79 70.0034 184.849 60.9945 175.181C46.9867 160.24 26.8814 158.647 26.3321 159.965Z" fill="#4D8C32"/>
</g>
<path d="M53.0291 228.301C49.898 228.301 47.0415 228.026 44.8991 227.807C26.8263 226.049 15.6751 214.403 12.6538 210.832C11.7748 209.789 7.16052 204.186 3.80964 196.66C-0.639891 186.662 -1.02442 177.763 2.71099 170.292C3.69977 168.37 7.38025 161.778 14.9609 158.592C29.7378 152.274 46.1626 164.085 52.5897 169.523L52.6446 169.578C60.6647 176.335 67.751 186.387 71.5963 196.44C75.7162 207.262 75.4416 216.6 70.9371 222.039C66.7073 227.147 59.3464 228.301 53.0291 228.301ZM24.0248 158.427C21.2232 158.427 18.3667 158.921 15.6201 160.075C8.58876 163.096 5.12802 169.194 4.19417 171.006C0.678489 178.038 1.06302 186.442 5.34775 195.946C8.6437 203.307 13.0932 208.745 13.9172 209.734C16.8286 213.14 27.5954 224.401 45.0639 226.104C51.1614 226.708 63.8508 227.916 69.6737 220.885C73.7936 215.886 73.9584 207.152 70.0582 196.934C66.3228 187.156 59.4562 177.379 51.6558 170.787L51.6009 170.732C46.657 166.612 35.5057 158.427 24.0248 158.427Z" fill="#559D2B"/>
<path d="M51.7659 136.344C49.3488 152.329 49.4587 165.733 50.063 175.401C51.6011 198.582 56.6548 206.712 58.3028 208.965C58.7423 209.569 64.4553 217.479 64.4553 217.479C64.4553 217.479 62.8622 219.237 59.1268 222.972C55.1717 226.928 54.8421 231.542 55.0618 233.959C55.1167 234.893 55.9407 235.552 56.8746 235.442C59.5663 235.113 64.9497 234.289 67.147 232.75C70.9373 230.114 73.5741 227.971 73.5741 227.971C73.5741 227.971 75.222 231.212 78.6278 234.563C79.3969 235.332 82.0886 236.541 83.7915 237.255C84.7253 237.639 85.7691 237.585 86.648 237.09C87.6917 236.486 89.065 235.662 89.7791 234.893C94.0089 230.333 95.4372 225.554 95.4372 225.554C95.4372 225.554 98.9529 226.873 105.27 228.905C107.412 229.564 110.599 229.784 112.686 229.894C113.73 229.949 114.444 228.905 114.114 227.916C113.29 225.499 111.587 221.434 109.225 219.072C104.995 214.788 101.864 214.513 98.6233 212.096C92.6906 207.646 91.7018 199.791 90.713 190.562C89.065 175.511 87.9664 160.954 87.1973 146.891" fill="#5FAF31"/>
<path d="M85.1099 238.463C84.5605 238.463 84.0112 238.354 83.5168 238.134C80.6054 236.925 78.7926 235.937 78.0785 235.277C75.6065 232.86 74.0684 230.553 73.3543 229.345C72.3106 230.169 70.2232 231.707 67.6413 233.52C65.3342 235.167 59.9508 235.991 56.9844 236.321C56.3252 236.376 55.666 236.211 55.1717 235.772C54.6773 235.332 54.3477 234.728 54.2927 234.069C54.073 231.487 54.4026 226.598 58.5775 222.423C61.1593 219.841 62.6974 218.193 63.4115 217.424C62.0931 215.612 57.9732 209.953 57.6436 209.459C55.1167 205.943 50.6123 196.825 49.239 175.456C48.415 162.547 48.9643 149.363 50.9419 136.234C50.9968 135.795 51.4362 135.465 51.8757 135.52C52.3152 135.575 52.6448 136.014 52.5898 136.454C50.6672 149.473 50.0629 162.547 50.8869 175.346C52.2602 196.33 56.545 205.119 58.962 208.47C59.4015 209.075 65.0595 216.875 65.1144 216.985C65.3342 217.314 65.3342 217.754 65.0595 218.029C65.0046 218.083 63.4115 219.841 59.6761 223.577C55.9407 227.312 55.666 231.652 55.8308 233.959C55.8308 234.179 55.9407 234.398 56.1055 234.508C56.2703 234.618 56.49 234.728 56.7098 234.673C61.5438 234.124 65.1144 233.19 66.5976 232.146C70.333 229.509 72.9698 227.422 72.9698 227.422C73.1895 227.257 73.4092 227.202 73.629 227.257C73.8487 227.312 74.0684 227.477 74.1783 227.697C74.1783 227.752 75.8263 230.828 79.1222 234.069C79.6166 234.563 81.4843 235.497 84.0112 236.596C84.7253 236.87 85.4944 236.87 86.1536 236.486C87.5269 235.717 88.5706 235.003 89.065 234.453C93.0751 230.114 94.5582 225.499 94.5582 225.444C94.6132 225.225 94.778 225.06 94.9977 224.95C95.2174 224.84 95.4372 224.84 95.6569 224.895C95.7118 224.895 99.2275 226.214 105.435 228.191C107.412 228.85 110.434 229.07 112.631 229.125C112.851 229.125 113.07 229.015 113.18 228.85C113.29 228.685 113.345 228.466 113.29 228.246C112.521 226.049 110.873 221.984 108.621 219.731C106.094 217.15 103.952 216.106 101.919 215.062C100.601 214.403 99.3923 213.799 98.1288 212.81C91.7567 208.031 90.8778 199.626 89.889 190.727C88.3509 176.225 87.1424 161.503 86.3733 147.001C86.3733 146.561 86.7029 146.177 87.1424 146.122C87.5818 146.122 87.9663 146.452 88.0213 146.891C88.7903 161.393 89.9439 176.06 91.5369 190.507C92.4708 199.077 93.3497 207.097 99.1176 211.492C100.271 212.371 101.425 212.975 102.688 213.579C104.721 214.623 107.083 215.776 109.829 218.523C112.356 221.05 114.059 225.335 114.883 227.697C115.158 228.411 114.993 229.18 114.554 229.784C114.114 230.388 113.4 230.773 112.631 230.718C110.324 230.663 107.138 230.388 104.995 229.729C100.436 228.246 97.3049 227.147 95.9315 226.653C95.3273 228.246 93.6793 231.926 90.3834 235.497C89.5594 236.376 88.1311 237.255 87.0325 237.859C86.4832 238.244 85.769 238.463 85.1099 238.463Z" fill="#559D2B"/>
<path d="M216.398 135.355C216.563 144.639 215.684 164.854 213.981 184.19C212.828 196.989 211.564 203.362 207.005 209.02C205.247 211.217 203.324 214.018 202.445 215.337C202.171 215.776 202.226 216.271 202.5 216.655C204.863 219.512 207.664 223.687 209.642 229.18C210.356 231.102 210.85 232.97 211.18 234.673C211.345 235.442 210.685 236.101 209.916 235.991C208.433 235.827 206.84 235.497 205.137 235.003C200.303 233.574 196.733 231.157 194.315 229.18C193.711 228.685 192.777 228.96 192.558 229.674C192.008 231.322 190.965 233.52 188.987 235.497C187.833 236.651 186.68 237.42 185.691 237.969C185.471 238.079 185.197 238.134 184.922 238.079C183.439 237.749 180.912 236.925 178.495 234.838C175.638 232.366 174.375 229.4 173.826 227.477C173.606 226.763 172.837 226.433 172.178 226.818C169.376 228.466 164.103 230.938 157.456 230.333C154.929 230.114 152.787 229.509 151.084 228.795C150.479 228.521 150.205 227.807 150.534 227.202C151.248 225.939 152.237 224.346 153.611 222.643C159.104 216.051 164.322 215.886 169.156 210.613C171.244 208.306 172.397 205.229 174.65 199.132C176.517 194.133 179.154 186.827 180.198 176.939C181.516 164.854 179.923 154.527 178.11 147.276" fill="#5FAF31"/>
<path d="M185.142 238.903C184.977 238.903 184.812 238.903 184.702 238.848C182.175 238.244 179.868 237.09 177.946 235.442C174.979 232.915 173.661 229.839 173.057 227.697C173.002 227.587 172.947 227.532 172.892 227.477C172.837 227.477 172.727 227.422 172.617 227.477C169.266 229.455 163.938 231.707 157.401 231.102C155.149 230.883 152.951 230.388 150.809 229.509C150.315 229.29 149.875 228.905 149.71 228.356C149.546 227.861 149.546 227.257 149.82 226.763C150.699 225.115 151.798 223.522 153.006 222.039C156.028 218.358 158.994 216.655 161.85 215.007C164.213 213.634 166.465 212.316 168.552 210.008C170.53 207.811 171.628 204.79 173.881 198.802C175.638 194.023 178.33 186.772 179.429 176.829C180.527 167.106 179.813 157.218 177.396 147.495C177.286 147.056 177.561 146.616 178.001 146.506C178.44 146.397 178.88 146.671 178.989 147.111C181.461 157.054 182.175 167.106 181.077 177.049C179.978 187.211 177.122 194.847 175.474 199.406C173.167 205.614 172.068 208.745 169.816 211.162C167.508 213.689 165.091 215.117 162.729 216.49C159.983 218.083 157.181 219.731 154.325 223.137C153.171 224.511 152.182 225.994 151.303 227.587C151.248 227.697 151.248 227.807 151.303 227.807C151.303 227.861 151.358 227.916 151.468 227.971C153.446 228.74 155.478 229.235 157.621 229.455C163.718 230.004 168.717 227.916 171.848 226.049C172.397 225.719 173.002 225.664 173.551 225.884C174.1 226.104 174.54 226.598 174.705 227.147C175.254 229.07 176.462 231.817 179.099 234.124C180.802 235.607 182.89 236.651 185.142 237.2C185.197 237.2 185.307 237.2 185.362 237.2C186.515 236.541 187.559 235.772 188.493 234.893C190.415 232.97 191.349 230.828 191.844 229.4C192.063 228.795 192.558 228.301 193.162 228.136C193.766 227.971 194.425 228.081 194.92 228.521C198.106 231.157 201.622 233.08 205.467 234.179C207.005 234.618 208.543 234.948 210.136 235.167C210.301 235.167 210.356 235.113 210.411 235.058C210.466 235.003 210.521 234.948 210.466 234.783C210.081 232.97 209.587 231.157 208.928 229.4C207.335 224.95 204.972 220.83 201.951 217.095C201.402 216.436 201.347 215.502 201.841 214.788C203.599 212.151 205.137 210.008 206.456 208.415C210.905 202.922 212.169 196.44 213.267 184.025C215.025 164.14 215.794 144.089 215.684 135.3C215.684 134.861 216.014 134.476 216.508 134.476C216.948 134.476 217.332 134.806 217.332 135.3C217.497 144.144 216.673 164.25 214.915 184.19C213.762 196.934 212.498 203.636 207.719 209.459C206.456 210.997 204.972 213.085 203.215 215.666C203.16 215.776 203.16 215.941 203.215 216.051C206.401 219.896 208.818 224.181 210.466 228.85C211.125 230.718 211.674 232.586 212.059 234.453C212.169 235.058 212.004 235.717 211.564 236.156C211.125 236.596 210.521 236.87 209.861 236.761C208.213 236.541 206.511 236.211 204.917 235.717C200.852 234.508 197.117 232.476 193.766 229.729C193.656 229.619 193.546 229.674 193.492 229.674C193.437 229.674 193.327 229.729 193.272 229.894C192.503 232.201 191.184 234.343 189.536 236.046C188.493 237.09 187.339 237.969 186.021 238.683C185.801 238.848 185.471 238.903 185.142 238.903Z" fill="#559D2B"/>
<path d="M217.332 46.4745C204.863 31.2582 176.243 3.737 132.571 4.17646C79.6715 4.72579 49.7333 45.8702 46.767 50.1549C42.2076 55.9778 39.6807 62.4049 39.6807 69.1066C39.6807 96.5729 81.7589 118.821 133.67 118.821C185.581 118.821 227.66 96.5729 227.66 69.1066C227.66 60.9766 223.924 53.2861 217.332 46.4745Z" fill="#5FAF31"/>
<path d="M133.615 119.645C108.401 119.645 84.6154 114.426 66.7624 104.978C48.7445 95.4193 38.8018 82.7299 38.8018 69.1066C38.8018 62.3499 41.2737 55.813 46.0528 49.6606C49.2939 44.9913 79.6715 3.84687 132.517 3.35248C132.846 3.35248 133.231 3.35248 133.56 3.35248C176.572 3.35248 204.863 29.9947 217.937 45.9801C224.803 53.0664 228.429 61.0865 228.429 69.1616C228.429 82.7848 218.486 95.4742 200.468 105.032C182.615 114.481 158.884 119.645 133.615 119.645ZM133.615 5.00045C133.286 5.00045 132.956 5.00045 132.571 5.00045C80.5504 5.49485 50.6672 46.035 47.4262 50.6493C42.8118 56.582 40.5047 62.7894 40.5047 69.1616C40.5047 96.1334 82.3083 118.051 133.67 118.051C185.032 118.051 226.836 96.1334 226.836 69.1616C226.836 61.4161 223.43 54.0002 216.783 47.0787C216.728 47.0238 216.728 47.0238 216.673 46.9689C203.709 31.2032 175.858 5.00045 133.615 5.00045Z" fill="#559D2B"/>
<g opacity="0.21">
<path d="M90.4383 15.0531C90.4383 15.108 90.8777 15.2179 91.7567 15.4925C93.8441 16.0968 95.8766 16.2066 95.8766 16.2066C95.8766 16.2066 114.499 7.80198 133.011 7.85692C151.084 7.91185 169.047 15.9869 169.047 15.9869C169.047 15.9869 170.695 16.1517 171.354 16.1517C172.343 16.0968 175.144 15.8771 175.254 15.4376C175.584 13.7347 155.753 4.01164 133.176 3.95671C110.434 3.90178 90.1087 13.7347 90.4383 15.0531Z" fill="#4D8C32"/>
</g>
<path d="M133.615 119.645C108.401 119.645 84.6154 114.426 66.7624 104.978C48.7445 95.4193 38.8018 82.7299 38.8018 69.1066C38.8018 62.3499 41.2737 55.813 46.0528 49.6606C49.2939 44.9913 79.6715 3.84687 132.517 3.35248C132.846 3.35248 133.231 3.35248 133.56 3.35248C176.572 3.35248 204.863 29.9947 217.937 45.9801C224.803 53.0664 228.429 61.0865 228.429 69.1616C228.429 82.7848 218.486 95.4742 200.468 105.032C182.615 114.481 158.884 119.645 133.615 119.645ZM133.615 5.00045C133.286 5.00045 132.956 5.00045 132.571 5.00045C80.5504 5.49485 50.6672 46.035 47.4262 50.6493C42.8118 56.582 40.5047 62.7894 40.5047 69.1616C40.5047 96.1334 82.3083 118.051 133.67 118.051C185.032 118.051 226.836 96.1334 226.836 69.1616C226.836 61.4161 223.43 54.0002 216.783 47.0787C216.728 47.0238 216.728 47.0238 216.673 46.9689C203.709 31.2032 175.858 5.00045 133.615 5.00045Z" fill="#559D2B"/>
<path d="M219.31 48.8366C219.859 45.3758 222.222 27.4129 211.455 13.4601C208.873 10.1092 202.446 1.70452 191.954 1.15519C182.286 0.6608 175.529 7.19776 174.101 8.68094C164.597 18.4589 165.916 32.4118 166.081 33.9499" fill="#5FAF31"/>
<path d="M219.31 49.6605C219.255 49.6605 219.255 49.6605 219.2 49.6605C218.761 49.6056 218.431 49.1661 218.486 48.7267C219.2 43.8926 220.848 27.0284 210.795 13.9544C208.378 10.8233 202.006 2.52849 191.899 1.97916C183.219 1.5397 176.957 6.92309 174.705 9.23025C165.531 18.6786 166.74 32.3568 166.959 33.84C167.014 34.2795 166.685 34.7189 166.245 34.7738C165.806 34.8288 165.366 34.4992 165.311 34.0597C165.147 32.4667 163.828 18.0744 173.551 8.07667C175.968 5.60471 182.67 -0.163203 192.009 0.331189C202.885 0.880514 209.587 9.66971 212.114 12.9107C222.496 26.479 220.848 43.8926 220.134 48.8915C220.079 49.3859 219.695 49.6605 219.31 49.6605Z" fill="#559D2B"/>
<g opacity="0.21">
<path d="M214.97 48.7816C213.762 43.2884 215.355 40.7615 215.41 35.7626C215.52 24.2268 207.335 15.8771 206.895 15.4376C204.973 13.5699 199.754 8.4612 191.624 8.1316C184.153 7.80201 178.77 11.5923 177.451 12.6361C167.454 20.2167 167.509 34.1696 166.135 33.9499C165.037 33.7851 164.213 24.886 168.058 16.3715C169.321 13.5699 172.398 7.03295 179.813 3.24261C182.121 2.0341 188.053 -0.492797 195.14 1.04531C203.819 2.85808 208.653 9.55984 211.4 13.46C217.003 21.3154 220.958 33.2357 219.804 40.8164C219.64 41.8601 219.035 45.1012 220.244 48.8915C221.123 51.6381 222.496 53.396 223.1 54.165C227.33 59.878 229.308 71.3589 225.847 80.4777C225.517 81.3566 225.133 82.2355 224.638 83.1694C224.638 83.1694 222.221 87.8936 217.662 91.9586C199.699 107.944 173.496 114.701 173.496 114.701C164.158 117.118 149.875 119.699 131.967 118.821C137.955 118.491 187.119 115.305 208.653 93.1671C213.597 88.0583 223.045 78.7198 221.672 66.8544C221.068 61.8006 218.816 57.5159 218.816 57.5159C217.497 55.5933 215.849 52.6269 214.97 48.7816Z" fill="#4D8C32"/>
</g>
<path d="M99.6121 36.5866C99.8318 34.2245 100.711 22.6338 93.6245 12.4713C92.361 10.6585 85.5494 0.935447 74.6178 0.825582C61.9284 0.660785 54.3477 13.46 52.8096 16.0968C44.7346 29.7201 47.8657 44.8265 48.47 47.4633" fill="#5FAF31"/>
<path d="M48.4699 48.3422C48.0853 48.3422 47.7558 48.0675 47.6459 47.683C46.712 43.5081 44.295 28.8411 52.0954 15.7123C58.1929 5.49483 66.1581 -0.108279 74.6727 0.00158557C84.5056 0.111451 91.2073 7.58226 94.3385 12.0318C101.095 21.645 100.875 32.4667 100.491 36.6965C100.436 37.1359 100.051 37.4655 99.612 37.4655C99.1726 37.4106 98.8429 37.0261 98.8429 36.5866C99.2275 32.5765 99.4472 22.1943 92.9652 13.0206C90.0538 8.84571 83.7365 1.81436 74.6177 1.70449C66.7624 1.59463 59.2916 6.86814 53.5237 16.5912C46.0528 29.2257 48.36 43.3433 49.2939 47.3534C49.4037 47.7928 49.1291 48.2323 48.6896 48.3422C48.5797 48.3422 48.5248 48.3422 48.4699 48.3422Z" fill="#559D2B"/>
<path d="M71.1569 18.5138C60.8845 19.1181 54.2926 30.544 54.842 40.1572C55.3363 48.5069 61.269 57.8455 70.0033 58.8343C80.2757 59.9878 90.0537 49.1661 89.8339 38.1796C89.6142 28.2369 81.3194 17.9096 71.1569 18.5138Z" fill="#353535"/>
<path d="M194.151 18.349C183.988 18.0194 176.298 27.7974 175.803 37.1909C175.254 47.2435 182.945 58.1201 193.327 58.1751C203.599 58.23 211.29 47.7379 211.18 37.85C211.015 28.7313 204.148 18.6786 194.151 18.349Z" fill="#353535"/>
<path d="M57.4238 78.0057C54.5674 78.0057 52.3701 77.1817 51.7109 76.962C51.1615 76.7422 50.8869 76.0831 51.1066 75.5337C51.3263 74.9844 51.9855 74.7098 52.5349 74.9295C53.4687 75.314 58.4676 77.0718 63.1368 74.3252C65.8285 72.7322 67.2018 70.3151 67.8061 69.0517C68.0807 68.5024 68.685 68.2277 69.2343 68.5024C69.7837 68.777 70.0583 69.3813 69.7837 69.9306C69.1245 71.4687 67.4765 74.3252 64.2355 76.1929C61.8734 77.6212 59.4564 78.0057 57.4238 78.0057Z" fill="#353535"/>
<path d="M212.223 76.138C210.41 76.138 208.378 75.9183 206.181 75.2041C201.951 73.8308 199.094 71.3589 197.446 69.5461C197.062 69.1066 197.062 68.3925 197.556 68.008C197.996 67.6235 198.71 67.6235 199.094 68.1178C200.523 69.7658 203.049 71.9082 206.84 73.1167C210.575 74.3252 213.926 73.9956 216.068 73.5562C216.673 73.4463 217.222 73.7759 217.387 74.3801C217.497 74.9844 217.167 75.5337 216.563 75.6985C215.409 75.9732 213.926 76.138 212.223 76.138Z" fill="#353535"/>
<path d="M134.879 97.6166C134.439 97.6166 134 97.6166 133.615 97.6166C114.773 97.3968 100.93 92.7825 93.5144 90.3106C82.8575 86.7949 72.64 82.0158 63.0818 76.1929C62.5874 75.8633 62.4226 75.2041 62.6973 74.7097C63.0268 74.2153 63.686 74.0506 64.1804 74.3252C73.6288 80.0931 83.6815 84.7624 94.1736 88.2231C101.48 90.6402 115.103 95.1446 133.615 95.3643C141.91 95.4742 158.719 94.5953 178.33 87.3442C187.998 83.7736 197.282 78.9945 205.851 73.2266C206.346 72.897 207.06 73.0068 207.389 73.5012C207.719 73.9956 207.609 74.7097 207.115 75.0393C198.38 80.9171 188.932 85.7512 179.099 89.3767C160.147 96.463 143.723 97.6166 134.879 97.6166Z" fill="#353535"/>
<path d="M139.822 58.8343C141.91 59.6033 143.778 60.8118 145.316 62.4049C146.085 63.2289 145.206 64.6022 144.107 64.2726C142.02 63.5035 140.152 62.295 138.614 60.702C138.174 60.2625 138.229 59.5484 138.669 59.1089C138.998 58.7793 139.438 58.7244 139.822 58.8343Z" fill="#353535"/>
<path d="M127.518 60.647C125.925 62.2401 124.112 63.5035 122.025 64.2176C121.42 64.3824 120.761 64.0528 120.596 63.4486C119.992 61.9105 125.046 59.1639 126.309 58.7793C127.408 58.4497 128.287 59.8231 127.518 60.647Z" fill="#353535"/>
<g opacity="0.62">
<path d="M203.16 43.563C205.102 43.563 206.676 41.1774 206.676 38.2346C206.676 35.2918 205.102 32.9061 203.16 32.9061C201.218 32.9061 199.644 35.2918 199.644 38.2346C199.644 41.1774 201.218 43.563 203.16 43.563Z" fill="white"/>
<path d="M203.16 44.387C200.743 44.387 198.82 41.6953 198.82 38.2346C198.82 34.7738 200.743 32.0822 203.16 32.0822C205.577 32.0822 207.499 34.7738 207.499 38.2346C207.499 41.6953 205.577 44.387 203.16 44.387ZM203.16 33.7301C201.731 33.7301 200.468 35.8176 200.468 38.2346C200.468 40.6516 201.677 42.7391 203.16 42.7391C204.643 42.7391 205.851 40.6516 205.851 38.2346C205.851 35.8176 204.588 33.7301 203.16 33.7301Z" fill="white"/>
</g>
<g opacity="0.62">
<path d="M62.8621 43.563C64.8038 43.563 66.3778 41.1774 66.3778 38.2346C66.3778 35.2918 64.8038 32.9061 62.8621 32.9061C60.9205 32.9061 59.3464 35.2918 59.3464 38.2346C59.3464 41.1774 60.9205 43.563 62.8621 43.563Z" fill="white"/>
<path d="M62.8621 44.387C60.4451 44.387 58.5225 41.6953 58.5225 38.2346C58.5225 34.7738 60.4451 32.0822 62.8621 32.0822C65.2792 32.0822 67.2018 34.7738 67.2018 38.2346C67.2018 41.6953 65.2792 44.387 62.8621 44.387ZM62.8621 33.7301C61.4339 33.7301 60.1704 35.8176 60.1704 38.2346C60.1704 40.6516 61.3789 42.7391 62.8621 42.7391C64.3453 42.7391 65.5538 40.6516 65.5538 38.2346C65.5538 35.8176 64.3453 33.7301 62.8621 33.7301Z" fill="white"/>
</g>
<g opacity="0.33">
<path d="M61.5989 51.693C67.1471 56.8567 75.1123 56.582 81.0999 52.3522C75.7715 57.5708 66.378 57.8455 61.5989 51.693Z" fill="white"/>
</g>
<g opacity="0.33">
<path d="M203.215 51.693C198.436 57.8455 189.042 57.5708 183.714 52.3522C189.701 56.582 197.666 56.8567 203.215 51.693Z" fill="white"/>
</g>
<path d="M138.779 127.939C139.328 129.038 138.779 130.411 138.12 131.235C136.691 133.048 134.055 132.718 133.56 132.609C130.978 132.279 128.287 130.246 128.561 128.763C128.891 127.06 133.066 126.676 133.56 126.621C134.769 126.511 137.9 126.236 138.779 127.939Z" fill="#5FAF31"/>
<path d="M145.206 135.3C144.986 137.003 142.569 137.992 140.756 137.992C138.944 137.992 136.527 137.003 136.307 135.3C136.142 134.092 137.186 133.103 137.406 132.828C138.944 131.345 141.525 131.235 143.283 132.389C143.558 132.554 145.371 133.762 145.206 135.3Z" fill="#5FAF31"/>
<path d="M132.077 135.081C132.132 133.487 129.221 131.51 126.639 131.949C124.936 132.224 122.958 133.652 123.068 135.3C123.178 136.838 125.101 137.662 125.321 137.772C127.078 138.541 128.836 137.717 129.495 137.388C130.265 137.058 132.022 136.234 132.077 135.081Z" fill="#5FAF31"/>
<path d="M133.066 136.838C134 136.674 135.153 137.333 135.263 138.157C135.428 139.2 134.11 140.189 132.956 140.244C132.901 140.244 131.693 140.299 131.308 139.585C130.869 138.761 131.748 137.003 133.066 136.838Z" fill="#5FAF31"/>
<g opacity="0.32">
<path d="M17.488 163.645C17.0485 164.305 17.3781 165.458 17.9824 166.117C18.8613 167.051 20.1247 166.831 20.5093 166.777C21.3332 166.667 22.5967 166.117 22.6516 165.293C22.7066 164.689 22.1023 164.195 21.8276 163.975C20.5093 162.931 18.1472 162.602 17.488 163.645Z" fill="white"/>
</g>
<g opacity="0.32">
<path d="M13.4778 178.312C11.9946 179.026 11.8298 181.114 11.8298 181.828C11.665 184.465 13.1482 187.926 15.5103 188.145C16.4442 188.255 17.433 187.816 18.0372 187.157C19.2457 185.783 18.5316 183.641 17.7076 181.004C17.1583 179.301 16.7188 178.807 16.2794 178.532C15.4005 178.038 14.3567 177.928 13.4778 178.312Z" fill="white"/>
</g>
<g opacity="0.32">
<path d="M62.3128 138.651C61.5437 138.486 59.8957 142.496 59.1267 144.968C58.4675 147.166 55.9955 155.021 59.6211 159.306C59.8957 159.635 60.7747 160.679 61.4338 160.459C62.4776 160.13 62.093 156.779 61.9282 153.318C61.5986 144.035 63.1917 138.871 62.3128 138.651Z" fill="white"/>
</g>
<g opacity="0.32">
<path d="M68.9595 123.325C67.9158 123.764 68.0257 125.852 68.3003 127.005C68.3553 127.335 68.7947 129.093 69.6187 129.148C70.6624 129.258 72.4752 126.676 71.5963 124.808C71.1568 123.764 69.8384 122.995 68.9595 123.325Z" fill="white"/>
</g>
<g opacity="0.32">
<path d="M191.459 127.994C191.129 128.708 191.624 129.532 192.118 129.972C192.832 130.631 194.206 130.851 194.81 130.137C195.414 129.422 195.03 128.049 194.151 127.445C193.272 126.951 191.844 127.17 191.459 127.994Z" fill="white"/>
</g>
<g opacity="0.32">
<path d="M200.633 136.674C199.534 136.674 198.82 135.081 199.149 134.531C199.589 133.817 201.841 133.982 202.171 134.861C202.336 135.465 201.621 136.674 200.633 136.674Z" fill="white"/>
</g>
<g opacity="0.32">
<path d="M200.962 143.815C201.841 143.375 203.05 143.54 203.819 144.144C204.533 144.694 204.808 145.573 204.643 150.462C204.533 155.351 204.203 156.23 203.489 156.614C202.72 157.054 201.677 156.889 201.017 156.449C200.303 155.955 199.864 155.076 199.699 151.945C199.424 147.605 199.314 144.694 200.962 143.815Z" fill="white"/>
</g>
<g opacity="0.32">
<path d="M249.632 177.159C250.347 176.829 251.72 176.5 252.489 177.159C253.807 178.312 252.489 181.773 251.335 183.641C250.951 184.3 248.918 187.596 246.996 187.157C246.117 186.937 245.567 186.058 245.348 185.344C245.183 184.739 245.183 184.08 246.831 181.004C248.479 177.818 249.083 177.379 249.632 177.159Z" fill="white"/>
</g>
<g opacity="0.32">
<path d="M80.7703 28.6214C80.1111 29.0609 80.1111 30.1595 80.3309 30.8736C80.7154 32.0821 82.1986 33.0709 83.0226 32.6315C83.7916 32.2469 83.9564 30.544 83.2423 29.5003C82.638 28.7313 81.4845 28.127 80.7703 28.6214Z" fill="white"/>
</g>
<g opacity="0.32">
<path d="M182.395 28.6214C183.054 29.0609 183.054 30.1595 182.835 30.8736C182.45 32.0821 180.967 33.0709 180.143 32.6315C179.374 32.2469 179.209 30.544 179.923 29.5003C180.472 28.7313 181.681 28.127 182.395 28.6214Z" fill="white"/>
</g>
<path d="M219.31 49.6605C219.255 49.6605 219.255 49.6605 219.2 49.6605C218.761 49.6056 218.431 49.1661 218.486 48.7267C219.2 43.8926 220.848 27.0284 210.795 13.9544C208.378 10.8233 202.006 2.52849 191.899 1.97916C183.219 1.5397 176.957 6.92309 174.705 9.23025C165.531 18.6786 166.74 32.3568 166.959 33.84C167.014 34.2795 166.685 34.7189 166.245 34.7738C165.806 34.8288 165.366 34.4992 165.311 34.0597C165.147 32.4667 163.828 18.0744 173.551 8.07667C175.968 5.60471 182.67 -0.163203 192.009 0.331189C202.885 0.880514 209.587 9.66971 212.114 12.9107C222.496 26.479 220.848 43.8926 220.134 48.8915C220.079 49.3859 219.695 49.6605 219.31 49.6605Z" fill="#559D2B"/>
</svg>
