<svg width="133" height="133" viewBox="0 0 133 133" fill="none" xmlns="http://www.w3.org/2000/svg">
<g filter="url(#filter0_d_233_1335)">
<rect width="130.493" height="130.117" rx="65.0585" fill="#F7FAF7" shape-rendering="crispEdges"/>
<path d="M32.1745 59.2266C31.9559 60.1208 32.254 60.3592 32.4725 62.2469C33.5256 71.1486 27.9223 75.7584 26.6308 82.3155C24.8425 91.416 30.9426 102.782 37.6586 104.57C41.116 105.484 42.0697 103.139 51.508 103C53.8129 102.96 54.3295 103.1 60.2707 103.159C64.6818 103.199 66.4701 103.159 68.8744 103.159C82.4655 103.199 83.0814 105.027 86.1414 103.656C92.0825 100.993 95.4803 91.4756 94.4669 84.2429C93.6721 78.6197 90.3538 75.7783 88.2079 64.6511C87.572 61.3726 87.8502 61.5514 87.4926 60.6771C81.8495 47.1457 34.7178 48.9936 32.1745 59.2266Z" fill="#5FAF31"/>
<path d="M39.2086 105.067C38.7118 105.067 38.1952 105.007 37.5991 104.848C34.3007 103.974 30.9824 100.795 28.6974 96.3239C26.3527 91.7141 25.4983 86.5876 26.3527 82.256C26.8495 79.7523 27.9224 77.5865 29.0749 75.2816C30.9228 71.5659 32.8502 67.731 32.1945 62.2667C32.115 61.5514 32.0157 61.0944 31.9362 60.7169C31.817 60.1208 31.7375 59.7631 31.8964 59.1472V59.1273C32.4329 56.9813 34.8571 55.0738 38.8907 53.6233C42.5865 52.292 47.4149 51.3581 52.8792 50.9607C60.4099 50.4044 68.2585 50.9011 74.4182 52.3516C81.6112 54.0406 86.221 56.882 87.7311 60.5579C87.9298 61.0348 87.9497 61.2534 88.0093 61.7501C88.0689 62.2071 88.1484 62.9821 88.4663 64.6114C89.6585 70.791 91.2481 74.447 92.5198 77.3878C93.5332 79.7126 94.3876 81.7195 94.7452 84.2231C95.7387 91.2968 92.48 101.152 86.2607 103.954C84.6513 104.669 83.6975 104.55 81.3926 104.252C79.0877 103.954 75.6303 103.497 68.8745 103.477C68.04 103.477 67.265 103.477 66.4305 103.477C64.8806 103.497 63.1321 103.497 60.2708 103.477C57.1711 103.437 55.5616 103.398 54.3694 103.358C53.3163 103.318 52.601 103.298 51.5081 103.318C46.5208 103.398 43.9575 104.073 42.0699 104.57C40.977 104.848 40.1226 105.067 39.2086 105.067ZM32.4528 59.326C32.3336 59.8029 32.3932 60.0612 32.5124 60.6175C32.5919 60.9752 32.6912 61.4719 32.7707 62.2071C33.4463 67.8502 31.4792 71.7646 29.5915 75.5598C28.4589 77.8249 27.4058 79.951 26.9289 82.3752C26.0944 86.5677 26.9488 91.5551 29.2339 96.0457C31.4394 100.377 34.6186 103.437 37.7581 104.272C39.308 104.669 40.3014 104.411 41.9507 103.974C43.8582 103.457 46.481 102.762 51.528 102.702C52.6407 102.682 53.356 102.702 54.4091 102.742C55.5815 102.782 57.1909 102.821 60.2907 102.861C63.1519 102.901 64.9005 102.881 66.4504 102.861C67.2849 102.861 68.04 102.841 68.8944 102.861C75.6899 102.881 79.3261 103.358 81.4919 103.636C83.7373 103.934 84.5718 104.033 86.0223 103.378C90.8308 101.212 95.3612 92.8467 94.169 84.2827C93.8312 81.8387 93.0165 79.9709 91.9833 77.6064C90.7116 74.6457 89.1022 70.9698 87.8901 64.7107C87.5722 63.0814 87.4728 62.2866 87.4331 61.8097C87.3735 61.3328 87.3536 61.1938 87.1946 60.7765C85.7441 57.2794 81.2933 54.5572 74.2791 52.9278C68.1791 51.4972 60.39 51.0005 52.9388 51.5568C41.4539 52.4311 33.4264 55.4712 32.4528 59.326C32.4727 59.326 32.4727 59.3061 32.4528 59.326Z" fill="#559D2B"/>
<g opacity="0.21">
<path d="M26.9887 82.0374C26.8099 81.7989 26.9688 81.4015 27.0284 81.2823C27.4854 80.1298 27.8232 78.9376 28.3995 77.8448C29.4923 75.7982 29.85 74.6457 30.0288 74.7053C30.1083 74.7252 30.0487 75.063 29.9692 75.7783C29.9692 75.8379 29.8897 77.1493 29.7506 79.7722C29.7109 80.4676 29.6115 81.1432 29.6314 81.8387C29.6513 82.7129 29.7506 83.309 29.5122 83.4084C29.4327 83.4481 29.3532 83.4084 28.5783 82.9116C27.7438 82.3751 27.6841 82.3354 27.5252 82.2957C27.247 82.1764 27.088 82.1963 26.9887 82.0374Z" fill="#4D8C32"/>
</g>
<g opacity="0.21">
<path d="M32.274 59.465C31.8369 60.4784 33.2675 61.9091 32.7906 65.1876C32.5721 66.7176 32.0157 67.9893 32.2343 68.0886C32.5522 68.2277 33.5457 64.8299 35.9897 64.0351C37.6588 63.4987 39.3279 64.3928 39.9041 64.6909C46.0638 67.8303 58.3037 68.1284 60.4695 68.188C66.3908 68.3271 77.0014 66.5984 81.5715 64.3928C81.9887 64.1941 83.022 63.6576 84.2341 63.9159C87.2146 64.5319 88.4068 69.3404 88.8836 69.1616C89.1221 69.0623 88.6253 67.8303 88.3471 65.2472C88.1484 63.4589 88.2081 62.4853 87.6318 60.995C87.6318 60.995 87.3139 60.1605 86.9364 59.5445C85.2474 56.8025 71.0006 62.1078 59.0588 62.4058C45.5074 62.7833 33.4464 56.7826 32.274 59.465Z" fill="#4D8C32"/>
</g>
<g opacity="0.21">
<path d="M89.7778 73.2549C89.0426 73.4536 91.5264 79.2357 88.7645 82.9316C88.228 83.6469 87.5723 84.1834 86.5986 85.7134C85.6449 87.2036 84.5918 89.3496 84.9693 89.6277C85.4859 90.0053 87.4332 86.1306 91.6257 85.1173C92.9173 84.7993 93.732 84.9186 94.189 84.243C94.7652 83.3687 94.1492 82.1169 92.8179 79.2556C90.5528 74.3278 90.1156 73.1754 89.7778 73.2549Z" fill="#4D8C32"/>
</g>
<path d="M43.5007 76.5333C43.759 76.5333 43.9975 77.7454 44.4743 80.1695C44.673 81.163 44.8121 82.0771 44.9115 82.9116C45.1897 85.0774 45.2095 86.6273 45.2294 87.2433C45.2691 88.0579 45.5473 94.0785 49.5809 97.9532C50.9321 99.2447 52.2634 99.8607 53.0979 100.258C56.5155 101.828 59.2576 101.49 64.1258 101.271C74.9549 100.775 77.0413 101.748 78.7898 99.7017C80.1211 98.1519 79.2866 97.1783 81.0351 93.5619C81.2338 93.1645 84.2342 87.0247 86.102 87.4817C88.7844 88.1175 90.1555 100.795 85.4264 103.775C83.7374 104.848 82.5254 103.656 76.2266 103.298C73.7627 103.159 70.3252 103.159 63.4502 103.179C58.1052 103.199 54.6676 103.258 49.7796 102.424C47.7728 102.066 46.7793 101.907 46.2626 101.629C38.8114 97.516 42.388 76.5731 43.5007 76.5333Z" fill="#4D8C32"/>
<path d="M39.2086 105.067C38.7118 105.067 38.1952 105.007 37.5991 104.848C34.3007 103.974 30.9824 100.795 28.6974 96.3239C26.3527 91.7141 25.4983 86.5876 26.3527 82.256C26.8495 79.7523 27.9224 77.5865 29.0749 75.2816C30.9228 71.5659 32.8502 67.731 32.1945 62.2667C32.115 61.5514 32.0157 61.0944 31.9362 60.7169C31.817 60.1208 31.7375 59.7631 31.8964 59.1472V59.1273C32.4329 56.9813 34.8571 55.0738 38.8907 53.6233C42.5865 52.292 47.4149 51.3581 52.8792 50.9607C60.4099 50.4044 68.2585 50.9011 74.4182 52.3516C81.6112 54.0406 86.221 56.882 87.7311 60.5579C87.9298 61.0348 87.9497 61.2534 88.0093 61.7501C88.0689 62.2071 88.1484 62.9821 88.4663 64.6114C89.6585 70.791 91.2481 74.447 92.5198 77.3878C93.5332 79.7126 94.3876 81.7195 94.7452 84.2231C95.7387 91.2968 92.48 101.152 86.2607 103.954C84.6513 104.669 83.6975 104.55 81.3926 104.252C79.0877 103.954 75.6303 103.497 68.8745 103.477C68.04 103.477 67.265 103.477 66.4305 103.477C64.8806 103.497 63.1321 103.497 60.2708 103.477C57.1711 103.437 55.5616 103.398 54.3694 103.358C53.3163 103.318 52.601 103.298 51.5081 103.318C46.5208 103.398 43.9575 104.073 42.0699 104.57C40.977 104.848 40.1226 105.067 39.2086 105.067ZM32.4528 59.326C32.3336 59.8029 32.3932 60.0612 32.5124 60.6175C32.5919 60.9752 32.6912 61.4719 32.7707 62.2071C33.4463 67.8502 31.4792 71.7646 29.5915 75.5598C28.4589 77.8249 27.4058 79.951 26.9289 82.3752C26.0944 86.5677 26.9488 91.5551 29.2339 96.0457C31.4394 100.377 34.6186 103.437 37.7581 104.272C39.308 104.669 40.3014 104.411 41.9507 103.974C43.8582 103.457 46.481 102.762 51.528 102.702C52.6407 102.682 53.356 102.702 54.4091 102.742C55.5815 102.782 57.1909 102.821 60.2907 102.861C63.1519 102.901 64.9005 102.881 66.4504 102.861C67.2849 102.861 68.04 102.841 68.8944 102.861C75.6899 102.881 79.3261 103.358 81.4919 103.636C83.7373 103.934 84.5718 104.033 86.0223 103.378C90.8308 101.212 95.3612 92.8467 94.169 84.2827C93.8312 81.8387 93.0165 79.9709 91.9833 77.6064C90.7116 74.6457 89.1022 70.9698 87.8901 64.7107C87.5722 63.0814 87.4728 62.2866 87.4331 61.8097C87.3735 61.3328 87.3536 61.1938 87.1946 60.7765C85.7441 57.2794 81.2933 54.5572 74.2791 52.9278C68.1791 51.4972 60.39 51.0005 52.9388 51.5568C41.4539 52.4311 33.4264 55.4712 32.4528 59.326C32.4727 59.326 32.4727 59.3061 32.4528 59.326Z" fill="#559D2B"/>
<path d="M30.7837 84.9185C29.7306 84.0244 23.2331 78.5402 17.4509 81.0041C14.689 82.1765 13.3974 84.6403 13.1789 85.0973C10.0593 91.3564 16.1991 98.8076 16.7356 99.4435C17.3714 100.199 21.405 104.808 28.2006 105.464C30.4856 105.683 35.1551 106.14 37.3606 103.477C40.7584 99.364 36.6652 89.8661 30.7837 84.9185Z" fill="#5FAF31"/>
<path d="M31.1216 105.941C29.989 105.941 28.9557 105.842 28.1808 105.762C21.6436 105.126 17.61 100.914 16.5171 99.6223C16.1992 99.2448 14.5301 97.218 13.318 94.4958C11.7086 90.8795 11.5695 87.6606 12.9206 84.9582C13.2783 84.2628 14.6096 81.8784 17.3517 80.7259C22.6967 78.4409 28.6378 82.7129 30.9626 84.68L30.9825 84.6999C33.8835 87.1439 36.4467 90.7801 37.8376 94.4163C39.3279 98.3307 39.2285 101.709 37.5992 103.676C36.0493 105.524 33.3867 105.941 31.1216 105.941ZM20.6302 80.6663C19.6168 80.6663 18.5836 80.8451 17.5901 81.2624C15.0467 82.3553 13.7751 84.5807 13.4571 85.2165C12.1855 87.7599 12.3245 90.8 13.8744 94.2375C15.0666 96.9001 16.6761 98.8672 16.9741 99.2249C18.0272 100.457 21.9218 104.53 28.2404 105.146C30.446 105.365 35.036 105.802 37.1422 103.258C38.6324 101.45 38.692 98.291 37.2813 94.5952C35.9301 91.0583 33.4464 87.5215 30.6248 85.1371L30.6049 85.1172C28.8166 83.6269 24.7632 80.6663 20.6302 80.6663Z" fill="#559D2B"/>
<path d="M87.9299 85.4749C91.0296 82.713 97.2887 80.6862 100.627 80.9843C101.501 81.0638 104.641 81.342 106.488 83.468C109.767 87.2433 107.065 94.6548 104.084 98.7481C103.309 99.8012 99.5737 104.908 92.9172 105.663C91.4071 105.842 86.1813 106.418 83.4393 103.259C79.5249 98.7679 83.1611 89.7072 87.9299 85.4749Z" fill="#5FAF31"/>
<path d="M90.4733 106.1C87.1749 106.1 84.7309 105.206 83.181 103.437C79.0083 98.6289 83.1413 89.3099 87.7114 85.2564C90.9899 82.3355 97.3483 80.3883 100.627 80.6863C103.369 80.9247 105.416 81.799 106.687 83.2893C110.065 87.2037 107.323 94.794 104.283 98.927C101.322 102.98 97.2887 105.464 92.8974 105.961C92.0629 106.04 91.2482 106.1 90.4733 106.1ZM88.1088 85.6935C85.7641 87.7799 83.6778 91.0982 82.7041 94.3569C81.5914 97.9931 81.9292 101.093 83.638 103.04C85.3866 105.067 88.5062 105.842 92.8577 105.345C97.0701 104.868 100.965 102.464 103.826 98.5494C106.747 94.5754 109.429 87.303 106.25 83.6469C105.078 82.2759 103.17 81.4811 100.587 81.2625C97.5073 81.0042 91.2482 82.9117 88.1088 85.6935Z" fill="#559D2B"/>
<g opacity="0.38">
<path d="M60.6285 69.5789C71.1397 69.6583 79.1275 78.421 78.2731 87.283C77.518 95.0522 70.0866 101.967 60.8272 102.106C50.8525 102.265 42.5667 94.5356 42.6263 85.7133C42.6859 77.0699 50.7929 69.4994 60.6285 69.5789Z" fill="#CDDA69"/>
</g>
<g opacity="0.21">
<path d="M83.4194 103.239C84.2142 103.437 85.4858 102.345 85.6448 101.192C85.7839 100.318 85.2275 99.6819 84.9692 99.1653C83.4591 96.2246 87.5126 90.1046 92.2218 86.7267C93.8511 85.5544 95.5599 84.3423 98.1232 84.0641C98.7193 84.0045 103.309 83.5872 105.237 86.1107C107.859 89.5681 104.104 96.9995 99.216 100.457C99.1763 100.497 99.0769 100.556 98.9577 100.636C97.9443 101.331 94.6459 103.338 90.652 102.623C89.8175 102.464 88.0888 102.166 86.4595 100.914C85.2673 99.98 84.8699 99.1057 84.234 99.2249C83.3399 99.3839 82.5451 101.291 83.022 102.722C83.5386 104.312 85.5057 104.848 86.8171 105.325C91.8244 107.093 96.5534 104.967 97.6463 104.451C102.534 102.046 104.879 97.8738 105.694 96.1252C106.528 94.3766 109.846 87.3824 106.488 83.4879C103.627 80.1696 97.8052 81.2426 94.8645 81.7989C94.2684 81.9182 92.4403 82.4745 90.3142 83.8257C89.6784 84.2231 83.1412 88.4951 82.1278 96.2842C81.7701 99.066 82.1477 102.921 83.4194 103.239Z" fill="#4D8C32"/>
</g>
<path d="M90.4733 106.1C87.1749 106.1 84.7309 105.206 83.181 103.437C79.0083 98.6289 83.1413 89.3099 87.7114 85.2564C90.9899 82.3355 97.3483 80.3883 100.627 80.6863C103.369 80.9247 105.416 81.799 106.687 83.2893C110.065 87.2037 107.323 94.794 104.283 98.927C101.322 102.98 97.2887 105.464 92.8974 105.961C92.0629 106.04 91.2482 106.1 90.4733 106.1ZM88.1088 85.6935C85.7641 87.7799 83.6778 91.0982 82.7041 94.3569C81.5914 97.9931 81.9292 101.093 83.638 103.04C85.3866 105.067 88.5062 105.842 92.8577 105.345C97.0701 104.868 100.965 102.464 103.826 98.5494C106.747 94.5754 109.429 87.303 106.25 83.6469C105.078 82.2759 103.17 81.4811 100.587 81.2625C97.5073 81.0042 91.2482 82.9117 88.1088 85.6935Z" fill="#559D2B"/>
<g opacity="0.21">
<path d="M21.4447 81.2228C21.2659 81.6599 27.1276 83.17 28.439 87.8196C28.9159 89.4887 28.2601 89.6278 28.4986 92.0122C29.0748 97.5758 32.9296 99.8012 31.7573 102.265C31.2804 103.259 30.267 103.676 29.6908 103.894C27.1872 104.888 24.5445 103.338 22.9747 102.424C21.7627 101.709 17.6098 99.0462 16.0202 93.6216C15.4241 91.6346 14.5697 89.0317 15.901 86.6274C17.0336 84.6007 19.0603 83.8257 19.3385 83.7264C23.2132 82.3554 27.0282 85.4352 27.3461 84.8987C27.664 84.3622 24.6438 80.428 20.4711 80.3882C16.8945 80.3485 13.8147 83.1899 12.7218 86.1903C12.4436 86.9652 12.1257 88.2766 12.384 90.3431C12.9801 95.092 16.358 101.629 23.0343 104.133C27.1474 105.683 34.8371 106.557 37.9567 102.047C41.1558 97.4367 37.2414 90.2239 33.9827 86.7268C28.9357 81.3221 21.6434 80.7459 21.4447 81.2228Z" fill="#4D8C32"/>
</g>
<path d="M31.1216 105.941C29.989 105.941 28.9557 105.842 28.1808 105.762C21.6436 105.126 17.61 100.914 16.5171 99.6223C16.1992 99.2448 14.5301 97.218 13.318 94.4958C11.7086 90.8795 11.5695 87.6606 12.9206 84.9582C13.2783 84.2628 14.6096 81.8784 17.3517 80.7259C22.6967 78.4409 28.6378 82.7129 30.9626 84.68L30.9825 84.6999C33.8835 87.1439 36.4467 90.7801 37.8376 94.4163C39.3279 98.3307 39.2285 101.709 37.5992 103.676C36.0493 105.524 33.3867 105.941 31.1216 105.941ZM20.6302 80.6663C19.6168 80.6663 18.5836 80.8451 17.5901 81.2624C15.0467 82.3553 13.7751 84.5807 13.4571 85.2165C12.1855 87.7599 12.3245 90.8 13.8744 94.2375C15.0666 96.9001 16.6761 98.8672 16.9741 99.2249C18.0272 100.457 21.9218 104.53 28.2404 105.146C30.446 105.365 35.036 105.802 37.1422 103.258C38.6324 101.45 38.692 98.291 37.2813 94.5952C35.9301 91.0583 33.4464 87.5215 30.6248 85.1371L30.6049 85.1172C28.8166 83.6269 24.7632 80.6663 20.6302 80.6663Z" fill="#559D2B"/>
<path d="M30.6447 72.6786C29.7705 78.4608 29.8102 83.309 30.0288 86.8062C30.5851 95.1913 32.4132 98.1321 33.0093 98.9467C33.1682 99.1653 35.2347 102.027 35.2347 102.027C35.2347 102.027 34.6585 102.662 33.3073 104.014C31.8767 105.444 31.7574 107.113 31.8369 107.988C31.8568 108.325 32.1549 108.564 32.4926 108.524C33.4663 108.405 35.4135 108.107 36.2083 107.55C37.5794 106.597 38.5331 105.822 38.5331 105.822C38.5331 105.822 39.1292 106.994 40.3612 108.206C40.6393 108.484 41.613 108.921 42.2289 109.18C42.5667 109.319 42.9443 109.299 43.2622 109.12C43.6397 108.902 44.1365 108.604 44.3948 108.325C45.9248 106.676 46.4414 104.947 46.4414 104.947C46.4414 104.947 47.7131 105.424 49.9981 106.16C50.773 106.398 51.9255 106.477 52.6806 106.517C53.0581 106.537 53.3164 106.16 53.1972 105.802C52.8991 104.928 52.2832 103.457 51.4287 102.603C49.8988 101.053 48.7662 100.954 47.5938 100.079C45.4479 98.4698 45.0902 95.6284 44.7326 92.2903C44.1365 86.8459 43.7391 81.5803 43.4609 76.4936" fill="#5FAF31"/>
<path d="M42.7059 109.617C42.5072 109.617 42.3085 109.577 42.1296 109.498C41.0765 109.061 40.4208 108.703 40.1625 108.464C39.2684 107.59 38.712 106.756 38.4537 106.319C38.0762 106.617 37.3211 107.173 36.3872 107.829C35.5527 108.425 33.6054 108.723 32.5324 108.842C32.294 108.862 32.0555 108.802 31.8767 108.643C31.6979 108.484 31.5787 108.266 31.5588 108.027C31.4793 107.093 31.5985 105.325 33.1087 103.815C34.0425 102.881 34.5989 102.285 34.8572 102.007C34.3803 101.351 32.8901 99.3044 32.7709 99.1256C31.8568 97.8539 30.2275 94.5555 29.7308 86.8261C29.4327 82.1566 29.6314 77.3878 30.3467 72.6389C30.3666 72.4799 30.5256 72.3607 30.6845 72.3806C30.8435 72.4005 30.9627 72.5594 30.9428 72.7184C30.2474 77.4276 30.0288 82.1566 30.3269 86.7863C30.8236 94.3767 32.3735 97.5559 33.2477 98.7679C33.4067 98.9865 35.4533 101.808 35.4732 101.848C35.5527 101.967 35.5527 102.126 35.4533 102.225C35.4334 102.245 34.8572 102.881 33.5061 104.232C32.1549 105.583 32.0555 107.153 32.1152 107.988C32.1152 108.067 32.1549 108.147 32.2145 108.186C32.2741 108.226 32.3536 108.266 32.4331 108.246C34.1816 108.047 35.4732 107.709 36.0097 107.332C37.3608 106.378 38.3146 105.623 38.3146 105.623C38.3941 105.563 38.4736 105.544 38.553 105.563C38.6325 105.583 38.712 105.643 38.7517 105.722C38.7517 105.742 39.3478 106.855 40.54 108.027C40.7189 108.206 41.3944 108.544 42.3085 108.941C42.5668 109.041 42.845 109.041 43.0834 108.902C43.5801 108.623 43.9577 108.365 44.1365 108.166C45.587 106.597 46.1235 104.928 46.1235 104.908C46.1434 104.828 46.203 104.769 46.2825 104.729C46.3619 104.689 46.4414 104.689 46.5209 104.709C46.5408 104.709 47.8125 105.186 50.0578 105.901C50.7731 106.14 51.8659 106.219 52.6607 106.239C52.7402 106.239 52.8197 106.199 52.8594 106.14C52.8992 106.08 52.919 106.001 52.8992 105.921C52.621 105.126 52.0249 103.656 51.2102 102.841C50.2962 101.907 49.5213 101.53 48.7861 101.152C48.3092 100.914 47.8721 100.695 47.4151 100.338C45.1101 98.609 44.7922 95.5689 44.4346 92.3499C43.8782 87.1043 43.4411 81.7791 43.1629 76.5334C43.1629 76.3745 43.2821 76.2354 43.4411 76.2155C43.6 76.2155 43.7391 76.3347 43.759 76.4937C44.0372 81.7394 44.4544 87.0446 45.0307 92.2705C45.3684 95.3702 45.6864 98.2712 47.7727 99.8608C48.19 100.179 48.6073 100.397 49.0643 100.616C49.7995 100.993 50.6539 101.411 51.6474 102.404C52.5614 103.318 53.1774 104.868 53.4754 105.722C53.5748 105.981 53.5151 106.259 53.3562 106.477C53.1972 106.696 52.9389 106.835 52.6607 106.815C51.8262 106.795 50.6737 106.696 49.8988 106.458C48.2496 105.921 47.117 105.524 46.6203 105.345C46.4017 105.921 45.8056 107.252 44.6134 108.544C44.3153 108.862 43.7987 109.18 43.4013 109.398C43.2026 109.537 42.9642 109.617 42.7059 109.617Z" fill="#559D2B"/>
<path d="M90.5525 40.1714C86.042 34.6674 75.6898 24.7125 59.8931 24.8715C40.7583 25.0702 29.9292 39.9528 28.8562 41.5027C27.207 43.6089 26.293 45.9337 26.293 48.3578C26.293 58.2928 41.5134 66.3402 60.2905 66.3402C79.0677 66.3402 94.2881 58.2928 94.2881 48.3578C94.2682 45.4171 92.9171 42.6353 90.5525 40.1714Z" fill="#5FAF31"/>
<path d="M60.2707 66.6382C51.1504 66.6382 42.5467 64.7505 36.0889 61.3329C29.5716 57.8954 25.9751 53.2855 25.9751 48.3776C25.9751 45.9336 26.8692 43.5691 28.5979 41.3437C29.7703 39.6547 40.7584 24.7721 59.8733 24.5933C59.9925 24.5933 60.1316 24.5933 60.2508 24.5933C75.809 24.5933 86.0421 34.2302 90.7712 40.0124C93.2549 42.5756 94.5663 45.4766 94.5663 48.3975C94.5663 53.3253 90.9698 57.9152 84.4525 61.3726C77.9947 64.7704 69.391 66.6382 60.2707 66.6382ZM60.2508 25.1695C60.1316 25.1695 60.0124 25.1695 59.8733 25.1695C41.0564 25.3483 30.2471 40.0124 29.0748 41.6815C27.4057 43.8274 26.5712 46.0727 26.5712 48.3776C26.5712 58.1338 41.6923 66.0619 60.2707 66.0619C78.8492 66.0619 93.9702 58.1338 93.9702 48.3776C93.9702 45.576 92.7383 42.8935 90.334 40.3899C90.3141 40.37 90.3141 40.37 90.2943 40.3502C85.6248 34.6475 75.5309 25.1695 60.2508 25.1695Z" fill="#559D2B"/>
<g opacity="0.21">
<path d="M44.6331 28.8057C44.6331 28.8256 44.792 28.8653 45.11 28.9647C45.865 29.1832 46.6002 29.223 46.6002 29.223C46.6002 29.223 53.3361 26.1829 60.0323 26.2027C66.5696 26.2226 73.067 29.1435 73.067 29.1435C73.067 29.1435 73.6631 29.2031 73.9016 29.2031C74.2592 29.1832 75.2726 29.1037 75.3123 28.9448C75.4316 28.3288 68.2585 24.8118 60.0919 24.792C51.8856 24.7721 44.5337 28.3288 44.6331 28.8057Z" fill="#4D8C32"/>
</g>
<path d="M60.2707 66.6382C51.1504 66.6382 42.5467 64.7505 36.0889 61.3329C29.5716 57.8954 25.9751 53.2855 25.9751 48.3776C25.9751 45.9336 26.8692 43.5691 28.5979 41.3437C29.7703 39.6547 40.7584 24.7721 59.8733 24.5933C59.9925 24.5933 60.1316 24.5933 60.2508 24.5933C75.809 24.5933 86.0421 34.2302 90.7712 40.0124C93.2549 42.5756 94.5663 45.4766 94.5663 48.3975C94.5663 53.3253 90.9698 57.9152 84.4525 61.3726C77.9947 64.7704 69.391 66.6382 60.2707 66.6382ZM60.2508 25.1695C60.1316 25.1695 60.0124 25.1695 59.8733 25.1695C41.0564 25.3483 30.2471 40.0124 29.0748 41.6815C27.4057 43.8274 26.5712 46.0727 26.5712 48.3776C26.5712 58.1338 41.6923 66.0619 60.2707 66.0619C78.8492 66.0619 93.9702 58.1338 93.9702 48.3776C93.9702 45.576 92.7383 42.8935 90.334 40.3899C90.3141 40.37 90.3141 40.37 90.2943 40.3502C85.6248 34.6475 75.5309 25.1695 60.2508 25.1695Z" fill="#559D2B"/>
<path d="M91.2483 41.0257C91.447 39.7739 92.3014 33.2764 88.4069 28.2294C87.473 27.0174 85.1482 23.9773 81.353 23.7786C77.8559 23.5997 75.4119 25.9642 74.8953 26.5007C71.4577 30.0376 71.9346 35.0846 71.9942 35.6409" fill="#5FAF31"/>
<path d="M91.2482 41.3238C91.2283 41.3238 91.2283 41.3238 91.2085 41.3238C91.0495 41.3039 90.9303 41.145 90.9502 40.986C91.2085 39.2374 91.8046 33.1374 88.1684 28.4083C87.2941 27.2757 84.9892 24.2753 81.3331 24.0766C78.1936 23.9177 75.9284 25.8649 75.1138 26.6995C71.7955 30.1171 72.2326 35.0647 72.3121 35.6012C72.332 35.7602 72.2128 35.9192 72.0538 35.939C71.8948 35.9589 71.7359 35.8397 71.716 35.6807C71.6167 34.727 71.259 29.8191 74.6965 26.2822C75.5708 25.3881 77.9949 23.3017 81.3728 23.4805C85.3071 23.6792 87.7312 26.8584 88.6452 28.0308C92.4007 32.9387 91.8046 39.2374 91.5463 41.0456C91.5264 41.2244 91.4072 41.3238 91.2482 41.3238Z" fill="#559D2B"/>
<g opacity="0.21">
<path d="M89.6784 41.0058C89.2413 39.0188 89.8175 38.1048 89.8374 36.2966C89.8771 32.1239 86.9165 29.1037 86.7576 28.9447C86.0621 28.2691 84.1745 26.4212 81.2337 26.302C78.5314 26.1828 76.5841 27.5538 76.1072 27.9313C72.4909 30.6734 72.5108 35.7204 72.014 35.6409C71.6166 35.5813 71.3186 32.3624 72.7095 29.2825C73.1665 28.2691 74.2792 25.9046 76.9616 24.5336C77.7962 24.0964 79.9421 23.1824 82.5054 23.7388C85.6448 24.3945 87.3934 26.8186 88.3869 28.2294C90.4136 31.0708 91.8443 35.3826 91.427 38.1247C91.3674 38.5022 91.1488 39.6745 91.586 41.0455C91.9039 42.039 92.4006 42.6749 92.6192 42.9531C94.1492 45.0195 94.8645 49.1724 93.6127 52.4708C93.4935 52.7887 93.3544 53.1066 93.1756 53.4444C93.1756 53.4444 92.3013 55.1532 90.6521 56.6236C84.1546 62.4058 74.6567 64.8498 74.6567 64.8498C71.2788 65.7241 66.1126 66.658 59.635 66.34C61.8008 66.2208 79.5845 65.0684 87.3735 57.0608C89.1618 55.2128 92.5795 51.8349 92.0827 47.543C91.8641 45.715 91.0495 44.1651 91.0495 44.1651C90.6123 43.4697 89.9964 42.3967 89.6784 41.0058Z" fill="#4D8C32"/>
</g>
<path d="M47.9713 36.5948C48.0508 35.7403 48.3687 31.5478 45.8055 27.8718C45.3485 27.2161 42.8846 23.6991 38.9305 23.6594C34.3405 23.5998 31.5984 28.2295 31.0421 29.1832C28.1212 34.111 29.2538 39.5753 29.4723 40.529" fill="#5FAF31"/>
<path d="M29.4724 40.8469C29.3333 40.8469 29.2141 40.7475 29.1743 40.6084C28.8366 39.0983 27.9623 33.793 30.7838 29.0441C32.9695 25.3483 35.8705 23.3216 38.9504 23.3613C42.5071 23.401 44.9313 26.1033 46.0638 27.7128C48.5079 31.1901 48.4284 35.1045 48.2893 36.6344C48.2694 36.7934 48.1303 36.9126 47.9714 36.9126C47.8124 36.8928 47.6932 36.7537 47.6932 36.5947C47.8323 35.1442 47.9118 31.3888 45.5671 28.0705C44.514 26.5604 42.2289 24.017 38.9305 23.9773C36.0891 23.9375 33.3669 25.845 31.3004 29.362C28.5981 33.9321 29.4327 39.0387 29.7704 40.4892C29.8102 40.6482 29.7108 40.8071 29.5519 40.8469C29.5121 40.8469 29.4923 40.8469 29.4724 40.8469Z" fill="#559D2B"/>
<path d="M37.6588 30.0575C33.9431 30.2761 31.5587 34.409 31.7574 37.8863C31.9362 40.9065 34.0822 44.2844 37.2415 44.6421C40.9572 45.0593 44.4941 41.1449 44.4146 37.1709C44.355 33.5745 41.3347 29.8389 37.6588 30.0575Z" fill="#353535"/>
<path d="M82.1478 29.9978C78.4719 29.8786 75.6901 33.4154 75.5112 36.8132C75.3125 40.4494 78.0943 44.3837 81.8498 44.4036C85.5655 44.4234 88.3473 40.6283 88.3075 37.0517C88.2479 33.7532 85.7642 30.117 82.1478 29.9978Z" fill="#353535"/>
<path d="M32.6914 51.5767C31.6582 51.5767 30.8634 51.2787 30.6249 51.1992C30.4262 51.1197 30.3269 50.8813 30.4063 50.6826C30.4858 50.4839 30.7243 50.3845 30.923 50.464C31.2608 50.6031 33.0689 51.2389 34.7579 50.2454C35.7315 49.6692 36.2283 48.7949 36.4468 48.3379C36.5462 48.1392 36.7647 48.0398 36.9634 48.1392C37.1621 48.2385 37.2615 48.4571 37.1621 48.6558C36.9237 49.2122 36.3276 50.2454 35.1553 50.921C34.3009 51.4376 33.4465 51.5767 32.6914 51.5767Z" fill="#353535"/>
<path d="M88.7049 50.9011C88.0491 50.9011 87.314 50.8216 86.5192 50.5633C84.9892 50.0665 83.9559 49.1724 83.3598 48.5167C83.2207 48.3577 83.2207 48.0994 83.3996 47.9603C83.5585 47.8212 83.8168 47.8212 83.9559 48C84.4725 48.5961 85.3866 49.3711 86.7576 49.8082C88.1088 50.2453 89.3208 50.1261 90.0958 49.9672C90.3143 49.9274 90.513 50.0466 90.5726 50.2652C90.6124 50.4838 90.4932 50.6825 90.2746 50.7421C89.8374 50.8414 89.301 50.9011 88.7049 50.9011Z" fill="#353535"/>
<path d="M60.7278 58.6703C60.5689 58.6703 60.4099 58.6703 60.2708 58.6703C53.4554 58.5909 48.4482 56.9218 45.7657 56.0276C41.911 54.7559 38.2151 53.0273 34.7578 50.921C34.5789 50.8018 34.5193 50.5634 34.6187 50.3845C34.7379 50.2057 34.9763 50.1461 35.1552 50.2455C38.5728 52.3318 42.209 54.0208 46.0042 55.2726C48.6469 56.1468 53.5746 57.7762 60.2708 57.8557C63.2712 57.8954 69.3514 57.5775 76.445 54.9546C79.9421 53.6631 83.3002 51.9344 86.3999 49.8481C86.5787 49.7288 86.837 49.7686 86.9562 49.9474C87.0754 50.1262 87.0357 50.3845 86.8569 50.5038C83.6975 52.6299 80.2799 54.3784 76.7232 55.6898C69.8482 58.2531 63.907 58.6703 60.7278 58.6703Z" fill="#353535"/>
<path d="M62.4963 44.642C63.2514 44.9202 63.927 45.3573 64.4833 45.9336C64.7615 46.2316 64.4436 46.7284 64.0462 46.6091C63.2912 46.331 62.6156 45.8938 62.0592 45.3176C61.9003 45.1586 61.9201 44.9003 62.0791 44.7414C62.1983 44.6221 62.3573 44.6023 62.4963 44.642Z" fill="#353535"/>
<path d="M58.0454 45.2977C57.4691 45.8739 56.8134 46.331 56.0584 46.5893C55.8398 46.6489 55.6014 46.5296 55.5417 46.3111C55.3232 45.7547 57.1512 44.7612 57.6082 44.6221C58.0255 44.5029 58.3434 44.9997 58.0454 45.2977Z" fill="#353535"/>
<g opacity="0.62">
<path d="M85.4064 39.1182C86.1088 39.1182 86.6781 38.2553 86.6781 37.1908C86.6781 36.1264 86.1088 35.2634 85.4064 35.2634C84.7041 35.2634 84.1348 36.1264 84.1348 37.1908C84.1348 38.2553 84.7041 39.1182 85.4064 39.1182Z" fill="white"/>
<path d="M85.4064 39.4162C84.5321 39.4162 83.8367 38.4426 83.8367 37.1908C83.8367 35.939 84.5321 34.9653 85.4064 34.9653C86.2807 34.9653 86.9761 35.939 86.9761 37.1908C86.9761 38.4426 86.2807 39.4162 85.4064 39.4162ZM85.4064 35.5614C84.8898 35.5614 84.4328 36.3165 84.4328 37.1908C84.4328 38.0651 84.8699 38.8201 85.4064 38.8201C85.9429 38.8201 86.38 38.0651 86.38 37.1908C86.38 36.3165 85.9429 35.5614 85.4064 35.5614Z" fill="white"/>
</g>
<g opacity="0.62">
<path d="M34.6784 39.1182C35.3807 39.1182 35.9501 38.2553 35.9501 37.1908C35.9501 36.1264 35.3807 35.2634 34.6784 35.2634C33.9761 35.2634 33.4067 36.1264 33.4067 37.1908C33.4067 38.2553 33.9761 39.1182 34.6784 39.1182Z" fill="white"/>
<path d="M34.6784 39.4162C33.8041 39.4162 33.1086 38.4426 33.1086 37.1908C33.1086 35.939 33.8041 34.9653 34.6784 34.9653C35.5527 34.9653 36.2481 35.939 36.2481 37.1908C36.2481 38.4426 35.5527 39.4162 34.6784 39.4162ZM34.6784 35.5614C34.1618 35.5614 33.7047 36.3165 33.7047 37.1908C33.7047 38.0651 34.1419 38.8201 34.6784 38.8201C35.2149 38.8201 35.652 38.0651 35.652 37.1908C35.652 36.3165 35.195 35.5614 34.6784 35.5614Z" fill="white"/>
</g>
<g opacity="0.33">
<path d="M34.2212 42.059C36.2281 43.9267 39.1092 43.8274 41.275 42.2974C39.3278 44.185 35.93 44.2844 34.2212 42.059Z" fill="white"/>
</g>
<g opacity="0.33">
<path d="M85.4264 42.059C83.6977 44.2844 80.2999 44.185 78.3726 42.2974C80.5583 43.8274 83.4394 43.9267 85.4264 42.059Z" fill="white"/>
</g>
<path d="M62.1188 69.6385C62.3175 70.0359 62.1189 70.5326 61.8804 70.8307C61.3638 71.4864 60.41 71.3671 60.2312 71.3274C59.2973 71.2082 58.3237 70.473 58.423 69.9365C58.5422 69.3205 60.0524 69.1814 60.2312 69.1616C60.6882 69.1218 61.8009 69.0225 62.1188 69.6385Z" fill="#5FAF31"/>
<path d="M64.4436 72.3011C64.3641 72.9171 63.4898 73.2747 62.8341 73.2747C62.1784 73.2747 61.3041 72.9171 61.2246 72.3011C61.165 71.864 61.5425 71.5063 61.622 71.407C62.1784 70.8705 63.1123 70.8307 63.7481 71.248C63.8475 71.3076 64.5032 71.7448 64.4436 72.3011Z" fill="#5FAF31"/>
<path d="M59.7144 72.2216C59.7342 71.6454 58.6811 70.9301 57.7472 71.089C57.1313 71.1884 56.4159 71.705 56.4557 72.3011C56.4954 72.8575 57.1909 73.1555 57.2704 73.1953C57.9062 73.4734 58.542 73.1754 58.7805 73.0562C59.0587 72.9369 59.6746 72.6389 59.7144 72.2216Z" fill="#5FAF31"/>
<path d="M60.0722 72.8573C60.41 72.7977 60.8272 73.0362 60.8869 73.3342C60.9465 73.7118 60.4696 74.0694 60.0523 74.0893C60.0324 74.0893 59.5953 74.1091 59.4562 73.8508C59.2575 73.5528 59.5953 72.9169 60.0722 72.8573Z" fill="#5FAF31"/>
<g opacity="0.32">
<path d="M18.2459 82.554C18.0869 82.7924 18.2061 83.2097 18.4247 83.4481C18.7426 83.7859 19.1996 83.7064 19.3188 83.6866C19.6169 83.6468 20.0739 83.4481 20.0938 83.1501C20.1136 82.9315 19.8951 82.7527 19.7957 82.6732C19.3586 82.2957 18.5042 82.1764 18.2459 82.554Z" fill="white"/>
</g>
<g opacity="0.32">
<path d="M16.7954 87.8593C16.2589 88.1176 16.1993 88.8726 16.1993 89.131C16.1397 90.0847 16.6762 91.3365 17.5306 91.416C17.8684 91.4557 18.2261 91.2968 18.4248 91.0583C18.8619 90.5616 18.6235 89.7867 18.3056 88.8329C18.1069 88.2169 17.9479 88.0381 17.7889 87.9388C17.5108 87.7599 17.1134 87.7202 16.7954 87.8593Z" fill="white"/>
</g>
<g opacity="0.32">
<path d="M34.4596 73.5131C34.1815 73.4535 33.5854 74.904 33.3072 75.7982C33.0687 76.593 32.1746 79.4344 33.486 80.9843C33.5854 81.1035 33.9231 81.481 34.1417 81.4015C34.5192 81.2823 34.3802 80.0702 34.3205 78.8184C34.2013 75.4604 34.7776 73.5926 34.4596 73.5131Z" fill="white"/>
</g>
<g opacity="0.32">
<path d="M36.8839 67.9695C36.5064 68.1284 36.5461 68.8835 36.6455 69.3007C36.6653 69.42 36.8243 70.0558 37.1224 70.0757C37.4999 70.1154 38.1556 69.1815 37.8377 68.5059C37.6588 68.1284 37.182 67.8502 36.8839 67.9695Z" fill="white"/>
</g>
<g opacity="0.32">
<path d="M81.1939 69.6584C81.0747 69.9167 81.2535 70.2147 81.4323 70.3737C81.6906 70.6121 82.1874 70.6916 82.4059 70.4333C82.6245 70.175 82.4854 69.6783 82.1675 69.4597C81.8297 69.2809 81.333 69.3603 81.1939 69.6584Z" fill="white"/>
</g>
<g opacity="0.32">
<path d="M84.4923 72.7978C84.0949 72.7978 83.8365 72.2216 83.9558 72.0229C84.1147 71.7645 84.9294 71.8242 85.0486 72.1421C85.1281 72.3606 84.8499 72.7978 84.4923 72.7978Z" fill="white"/>
</g>
<g opacity="0.32">
<path d="M102.236 87.4421C102.495 87.3229 102.991 87.2037 103.27 87.4421C103.747 87.8594 103.27 89.1112 102.852 89.7868C102.713 90.0252 101.978 91.2174 101.283 91.0584C100.965 90.979 100.766 90.661 100.687 90.4027C100.627 90.1842 100.627 89.9457 101.223 88.833C101.819 87.6805 102.038 87.5216 102.236 87.4421Z" fill="white"/>
</g>
<g opacity="0.32">
<path d="M41.1359 33.7136C40.8975 33.8725 40.8975 34.2699 40.977 34.5282C41.1161 34.9654 41.6526 35.323 41.9506 35.1641C42.2288 35.025 42.2884 34.409 42.0301 34.0315C41.8314 33.7533 41.3942 33.5347 41.1359 33.7136Z" fill="white"/>
</g>
<g opacity="0.32">
<path d="M77.8956 33.7136C78.1341 33.8725 78.1341 34.2699 78.0546 34.5282C77.9155 34.9654 77.379 35.323 77.081 35.1641C76.8028 35.025 76.7432 34.409 77.0015 34.0315C77.22 33.7533 77.6373 33.5347 77.8956 33.7136Z" fill="white"/>
</g>
<path d="M91.2482 41.3238C91.2283 41.3238 91.2283 41.3238 91.2085 41.3238C91.0495 41.3039 90.9303 41.145 90.9502 40.986C91.2085 39.2374 91.8046 33.1374 88.1684 28.4083C87.2941 27.2757 84.9892 24.2753 81.3331 24.0766C78.1936 23.9177 75.9284 25.8649 75.1138 26.6995C71.7955 30.1171 72.2326 35.0647 72.3121 35.6012C72.332 35.7602 72.2128 35.9192 72.0538 35.939C71.8948 35.9589 71.7359 35.8397 71.716 35.6807C71.6167 34.727 71.259 29.8191 74.6965 26.2822C75.5708 25.3881 77.9949 23.3017 81.3728 23.4805C85.3071 23.6792 87.7312 26.8584 88.6452 28.0308C92.4007 32.9387 91.8046 39.2374 91.5463 41.0456C91.5264 41.2244 91.4072 41.3238 91.2482 41.3238Z" fill="#559D2B"/>
<g opacity="0.32">
<path d="M36.7249 26.6398C36.4666 26.1828 33.6848 26.6199 32.8701 28.4679C32.7112 28.8454 32.4131 29.6998 32.7311 29.9184C33.4464 30.435 37.0826 27.2558 36.7249 26.6398Z" fill="white"/>
</g>
<g opacity="0.32">
<path d="M28.7967 45.8143C28.4788 46.1919 28.4192 46.8277 28.6775 47.2648C29.0948 47.9603 30.2671 48.0199 30.9626 47.5033C31.3997 47.1854 31.7574 46.5297 31.5587 46.0528C31.2606 45.2778 29.4723 44.9997 28.7967 45.8143Z" fill="white"/>
</g>
<g opacity="0.32">
<path d="M91.4469 45.8143C91.7648 46.1919 91.8443 46.8277 91.5661 47.2648C91.1489 47.9603 89.9765 48.0199 89.2811 47.5033C88.8439 47.1854 88.4863 46.5297 88.685 46.0528C88.983 45.2778 90.7713 44.9997 91.4469 45.8143Z" fill="white"/>
</g>
<path d="M89.261 81.2625C95.1028 78.7986 98.3615 75.7188 100.249 73.3145C104.601 67.7907 106.766 65.0287 107.502 63.8365C107.76 63.4193 108.614 61.9489 110.363 60.8362C110.542 60.7169 110.601 60.5779 110.78 60.5779C112.131 60.6971 113.94 60.6971 115.986 60.1606C116.721 59.9818 117.377 59.7433 117.953 59.5049C118.212 59.4055 118.291 59.0677 118.092 58.8492C117.735 58.4518 117.317 58.0345 116.821 57.6172C115.41 56.4648 113.959 55.8687 112.867 55.5706C112.588 55.4911 112.489 55.1534 112.648 54.9348C113.026 54.438 113.483 53.683 113.661 52.6895C113.781 52.1132 113.761 51.5966 113.721 51.1992C113.721 51.0999 113.661 51.0204 113.582 50.9409C113.165 50.5634 112.41 49.9872 111.317 49.6891C110.005 49.3314 108.853 49.5699 108.177 49.7885C107.919 49.8679 107.661 49.6891 107.641 49.4308C107.561 48.2585 107.224 46.1721 105.694 44.3242C105.117 43.6288 104.501 43.1121 103.945 42.7346C103.746 42.5955 103.468 42.675 103.349 42.8936C103.11 43.3704 102.832 43.9864 102.614 44.7613C101.759 47.7418 102.792 49.3314 102.177 51.8549C101.918 52.9478 101.223 53.9214 99.8517 55.8289C98.7191 57.3987 97.0898 59.6638 94.3477 62.0085C91.0096 64.8698 87.5919 66.4792 85.0486 67.4131" fill="#5FAF31"/>
<path d="M89.2611 81.5605C89.1419 81.5605 89.0425 81.5009 88.9829 81.3817C88.9233 81.2227 88.9829 81.0638 89.1419 80.9843C93.7716 79.037 97.4277 76.3943 100.011 73.1158C104.342 67.6118 106.528 64.8498 107.224 63.6775L107.243 63.6378C107.541 63.1609 108.416 61.6905 110.164 60.5778C110.204 60.5579 110.244 60.5182 110.284 60.4784C110.383 60.3791 110.542 60.24 110.78 60.2797C112.509 60.4387 114.238 60.2996 115.867 59.8823C116.523 59.7234 117.159 59.5048 117.794 59.2465C117.834 59.2266 117.854 59.2068 117.854 59.167C117.854 59.1472 117.854 59.1074 117.834 59.0677C117.457 58.6305 117.039 58.2331 116.582 57.8755C115.47 56.9615 114.178 56.2859 112.747 55.8686C112.529 55.809 112.35 55.6302 112.271 55.4116C112.191 55.193 112.231 54.9546 112.39 54.7559C112.887 54.12 113.204 53.4047 113.363 52.6298C113.443 52.1728 113.483 51.6959 113.423 51.219C113.423 51.1992 113.403 51.1793 113.383 51.1594C112.946 50.762 112.231 50.2454 111.237 49.9672C110.025 49.6493 108.952 49.848 108.257 50.0666C108.038 50.1262 107.82 50.1063 107.641 49.9871C107.462 49.8679 107.343 49.6692 107.343 49.4506C107.263 48.1392 106.866 46.2118 105.475 44.503C104.998 43.9267 104.422 43.4101 103.786 42.973C103.746 42.9531 103.726 42.9531 103.707 42.9531C103.687 42.9531 103.647 42.973 103.647 43.0127C103.349 43.5889 103.11 44.2049 102.932 44.8209C102.495 46.3707 102.574 47.5431 102.653 48.6757C102.713 49.6692 102.793 50.6825 102.495 51.8946C102.216 53.0471 101.521 54.0207 100.13 55.968C99.1166 57.3986 97.4078 59.783 94.5863 62.2071C91.8442 64.5518 88.6849 66.3997 85.2076 67.6714C85.0487 67.731 84.8897 67.6515 84.8301 67.4925C84.7705 67.3336 84.85 67.1746 85.0089 67.115C88.4266 65.8632 91.5064 64.055 94.2087 61.7501C96.9905 59.3856 98.6596 57.0211 99.6531 55.6302C101.004 53.7425 101.68 52.8086 101.918 51.7555C102.196 50.6428 102.117 49.7089 102.057 48.7154C101.978 47.5232 101.898 46.2913 102.355 44.6421C102.534 43.9863 102.793 43.3505 103.11 42.7345C103.21 42.5557 103.369 42.4166 103.567 42.3769C103.766 42.3371 103.965 42.357 104.144 42.4762C104.839 42.9531 105.435 43.5095 105.952 44.1254C107.462 45.9535 107.879 48.0001 107.959 49.4109C107.959 49.4506 107.979 49.4705 107.999 49.4903C108.018 49.5102 108.058 49.5102 108.098 49.5102C108.853 49.2519 110.065 49.0333 111.416 49.4109C112.529 49.7089 113.344 50.305 113.82 50.7421C113.94 50.8614 114.019 51.0203 114.039 51.1793C114.099 51.7158 114.059 52.2324 113.96 52.749C113.801 53.6034 113.423 54.3982 112.887 55.1135C112.847 55.1533 112.867 55.193 112.867 55.2129C112.867 55.2328 112.887 55.2725 112.946 55.2924C114.456 55.7295 115.827 56.4448 117 57.3986C117.476 57.7761 117.914 58.2133 118.311 58.6703C118.47 58.8491 118.53 59.0875 118.47 59.3061C118.41 59.5247 118.271 59.7035 118.053 59.8029C117.397 60.081 116.721 60.2996 116.046 60.4784C114.337 60.9156 112.569 61.0547 110.76 60.8957C110.741 60.9156 110.721 60.9354 110.701 60.9553C110.661 60.9951 110.601 61.0547 110.522 61.1143C108.873 62.1674 108.058 63.5384 107.78 63.9954L107.76 64.0352C107.025 65.2274 104.839 68.0092 100.488 73.533C97.8648 76.8712 94.1293 79.5735 89.3803 81.5804C89.3406 81.5605 89.3008 81.5605 89.2611 81.5605Z" fill="#559D2B"/>
<g opacity="0.21">
<path d="M89.2612 81.2624C88.7645 80.6067 95.0036 76.9109 101.382 68.5854C104.919 63.9557 107.005 59.8624 111.118 59.4054C112.628 59.2465 114.615 59.5445 114.913 58.7497C115.311 57.6767 112.35 55.6699 112.569 55.3917C112.628 55.3122 112.966 55.3917 114.456 56.266C117 57.7761 118.271 58.5311 118.152 59.167C118.033 59.8426 116.523 60.1207 115.013 60.3791C113.125 60.7168 111.992 60.6175 111.297 60.6771C108.813 60.8957 107.581 63.6377 104.959 67.4726C103.031 70.2942 99.7128 75.063 94.5069 78.6396C92.4404 80.0702 89.5593 81.6598 89.2612 81.2624Z" fill="#4D8C32"/>
</g>
<path d="M89.2611 81.5605C89.1419 81.5605 89.0425 81.5009 88.9829 81.3817C88.9233 81.2227 88.9829 81.0638 89.1419 80.9843C93.7716 79.037 97.4277 76.3943 100.011 73.1158C104.342 67.6118 106.528 64.8498 107.224 63.6775L107.243 63.6378C107.541 63.1609 108.416 61.6905 110.164 60.5778C110.204 60.5579 110.244 60.5182 110.284 60.4784C110.383 60.3791 110.542 60.24 110.78 60.2797C112.509 60.4387 114.238 60.2996 115.867 59.8823C116.523 59.7234 117.159 59.5048 117.794 59.2465C117.834 59.2266 117.854 59.2068 117.854 59.167C117.854 59.1472 117.854 59.1074 117.834 59.0677C117.457 58.6305 117.039 58.2331 116.582 57.8755C115.47 56.9615 114.178 56.2859 112.747 55.8686C112.529 55.809 112.35 55.6302 112.271 55.4116C112.191 55.193 112.231 54.9546 112.39 54.7559C112.887 54.12 113.204 53.4047 113.363 52.6298C113.443 52.1728 113.483 51.6959 113.423 51.219C113.423 51.1992 113.403 51.1793 113.383 51.1594C112.946 50.762 112.231 50.2454 111.237 49.9672C110.025 49.6493 108.952 49.848 108.257 50.0666C108.038 50.1262 107.82 50.1063 107.641 49.9871C107.462 49.8679 107.343 49.6692 107.343 49.4506C107.263 48.1392 106.866 46.2118 105.475 44.503C104.998 43.9267 104.422 43.4101 103.786 42.973C103.746 42.9531 103.726 42.9531 103.707 42.9531C103.687 42.9531 103.647 42.973 103.647 43.0127C103.349 43.5889 103.11 44.2049 102.932 44.8209C102.495 46.3707 102.574 47.5431 102.653 48.6757C102.713 49.6692 102.793 50.6825 102.495 51.8946C102.216 53.0471 101.521 54.0207 100.13 55.968C99.1166 57.3986 97.4078 59.783 94.5863 62.2071C91.8442 64.5518 88.6849 66.3997 85.2076 67.6714C85.0487 67.731 84.8897 67.6515 84.8301 67.4925C84.7705 67.3336 84.85 67.1746 85.0089 67.115C88.4266 65.8632 91.5064 64.055 94.2087 61.7501C96.9905 59.3856 98.6596 57.0211 99.6531 55.6302C101.004 53.7425 101.68 52.8086 101.918 51.7555C102.196 50.6428 102.117 49.7089 102.057 48.7154C101.978 47.5232 101.898 46.2913 102.355 44.6421C102.534 43.9863 102.793 43.3505 103.11 42.7345C103.21 42.5557 103.369 42.4166 103.567 42.3769C103.766 42.3371 103.965 42.357 104.144 42.4762C104.839 42.9531 105.435 43.5095 105.952 44.1254C107.462 45.9535 107.879 48.0001 107.959 49.4109C107.959 49.4506 107.979 49.4705 107.999 49.4903C108.018 49.5102 108.058 49.5102 108.098 49.5102C108.853 49.2519 110.065 49.0333 111.416 49.4109C112.529 49.7089 113.344 50.305 113.82 50.7421C113.94 50.8614 114.019 51.0203 114.039 51.1793C114.099 51.7158 114.059 52.2324 113.96 52.749C113.801 53.6034 113.423 54.3982 112.887 55.1135C112.847 55.1533 112.867 55.193 112.867 55.2129C112.867 55.2328 112.887 55.2725 112.946 55.2924C114.456 55.7295 115.827 56.4448 117 57.3986C117.476 57.7761 117.914 58.2133 118.311 58.6703C118.47 58.8491 118.53 59.0875 118.47 59.3061C118.41 59.5247 118.271 59.7035 118.053 59.8029C117.397 60.081 116.721 60.2996 116.046 60.4784C114.337 60.9156 112.569 61.0547 110.76 60.8957C110.741 60.9156 110.721 60.9354 110.701 60.9553C110.661 60.9951 110.601 61.0547 110.522 61.1143C108.873 62.1674 108.058 63.5384 107.78 63.9954L107.76 64.0352C107.025 65.2274 104.839 68.0092 100.488 73.533C97.8648 76.8712 94.1293 79.5735 89.3803 81.5804C89.3406 81.5605 89.3008 81.5605 89.2611 81.5605Z" fill="#559D2B"/>
<g opacity="0.32">
<path d="M92.2616 65.724C92.5994 64.7305 94.3479 64.2139 96.9906 61.5116C98.6796 59.763 99.8917 57.9747 100.19 58.3125C100.309 58.4516 100.229 58.9086 100.07 59.306C99.6731 60.3393 98.7789 61.0347 96.6529 62.9422C93.7518 65.5452 92.5199 66.8368 92.2815 66.2208C92.2417 66.1413 92.1821 65.9823 92.2616 65.724Z" fill="white"/>
</g>
<g opacity="0.56">
<path d="M40.9375 50.4241C48.9265 50.4241 55.4029 43.9478 55.4029 35.9588C55.4029 27.9698 48.9265 21.4934 40.9375 21.4934C32.9485 21.4934 26.4722 27.9698 26.4722 35.9588C26.4722 43.9478 32.9485 50.4241 40.9375 50.4241Z" fill="white"/>
</g>
<g opacity="0.56">
<path d="M79.4654 50.4241C87.4544 50.4241 93.9307 43.9478 93.9307 35.9588C93.9307 27.9698 87.4544 21.4934 79.4654 21.4934C71.4764 21.4934 65 27.9698 65 35.9588C65 43.9478 71.4764 50.4241 79.4654 50.4241Z" fill="white"/>
<path d="M79.4653 50.5235C71.4379 50.5235 64.9006 43.9862 64.9006 35.9587C64.9006 27.9313 71.4379 21.394 79.4653 21.394C87.4928 21.394 94.03 27.9313 94.03 35.9587C94.03 43.9862 87.4928 50.5235 79.4653 50.5235ZM79.4653 21.6126C71.5571 21.6126 65.0993 28.0505 65.0993 35.9786C65.0993 43.9067 71.5372 50.3446 79.4653 50.3446C87.3935 50.3446 93.8313 43.9067 93.8313 35.9786C93.8313 28.0505 87.3736 21.6126 79.4653 21.6126Z" fill="#1D1D1B"/>
</g>
<path d="M40.9374 51.4177C32.4131 51.4177 25.4785 44.4831 25.4785 35.9589C25.4785 27.4346 32.4131 20.5 40.9374 20.5C49.4616 20.5 56.3764 27.4346 56.3764 35.9589C56.3764 44.4831 49.4417 51.4177 40.9374 51.4177ZM40.9374 22.5069C33.506 22.5069 27.4655 28.5473 27.4655 35.9787C27.4655 43.4101 33.506 49.4506 40.9374 49.4506C48.3688 49.4506 54.4092 43.4101 54.4092 35.9787C54.4092 28.5473 48.3489 22.5069 40.9374 22.5069Z" fill="#353535"/>
<path d="M79.4652 51.4177C70.941 51.4177 64.0063 44.4831 64.0063 35.9589C64.0063 27.4346 70.941 20.5 79.4652 20.5C87.9894 20.5 94.9241 27.4346 94.9241 35.9589C94.9241 44.4831 87.9894 51.4177 79.4652 51.4177ZM79.4652 22.5069C72.0338 22.5069 65.9933 28.5473 65.9933 35.9787C65.9933 43.4101 72.0338 49.4506 79.4652 49.4506C86.8966 49.4506 92.9371 43.4101 92.9371 35.9787C92.9371 28.5473 86.8767 22.5069 79.4652 22.5069Z" fill="#353535"/>
<path d="M54.8861 38.7407C56.7539 36.396 60.3503 35.6807 63.0526 36.9723C63.9468 37.3895 64.7615 37.9658 65.3973 38.6811C65.5761 38.8997 65.5563 39.2176 65.3576 39.3964C65.1986 39.5355 64.98 39.5554 64.8012 39.4759C63.2911 38.7804 61.781 38.2837 60.1516 38.3234C58.5223 38.3433 57.0519 38.8798 55.5021 39.5355C55.0053 39.7342 54.5483 39.1381 54.8861 38.7407Z" fill="#353535"/>
<g opacity="0.32">
<path d="M88.9034 46.9866C88.963 46.927 88.8835 46.8277 88.8041 46.8674C87.3536 48 84.7307 49.6492 81.0548 50.1062C77.7563 50.5235 75.054 49.7883 73.4446 49.1525C73.3651 49.1127 73.3055 49.2319 73.3849 49.2915C74.8951 50.0863 77.657 51.1792 81.1541 50.7619C85.0288 50.3248 87.6317 48.2583 88.9034 46.9866Z" fill="white"/>
</g>
<g opacity="0.32">
<path d="M91.3276 27.4347C91.268 27.3552 91.1488 27.4347 91.2084 27.5141C92.2019 29.064 93.5928 31.8259 93.712 35.5217C93.8114 38.84 92.8377 41.4629 92.0628 43.0127C92.0231 43.0922 92.1423 43.1717 92.182 43.0922C93.1159 41.6616 94.4671 38.999 94.3677 35.5019C94.2684 31.6074 92.4602 28.8256 91.3276 27.4347Z" fill="white"/>
</g>
<g opacity="0.32">
<path d="M26.7899 37.7671C26.8098 37.8664 26.9489 37.8465 26.929 37.7472C26.7502 35.9192 26.7899 32.8194 28.3795 29.4813C29.8101 26.4809 31.8965 24.6131 33.2874 23.5799C33.3669 23.5203 33.2874 23.4209 33.2079 23.4607C31.7375 24.2952 29.2935 26.0438 27.7635 29.2031C26.0746 32.7002 26.4124 36.0185 26.7899 37.7671Z" fill="white"/>
</g>
<g opacity="0.32">
<path d="M50.3756 46.9866C50.4352 46.927 50.3557 46.8277 50.2762 46.8674C48.8257 48 46.2029 49.6492 42.5269 50.1062C39.2285 50.5235 36.5262 49.7883 34.9167 49.1525C34.8372 49.1127 34.7776 49.2319 34.8571 49.2915C36.3672 50.0863 39.1292 51.1792 42.6263 50.7619C46.5009 50.3248 49.1039 48.2583 50.3756 46.9866Z" fill="white"/>
</g>
<g opacity="0.32">
<path d="M56.3763 38.3432C56.2968 38.2239 58.5422 36.9125 59.1383 36.992C59.4562 37.0516 59.6151 37.2304 59.6151 37.2304C59.6549 37.2702 59.6747 37.3099 59.6747 37.3298C59.6549 37.5086 58.7806 37.4291 57.9659 37.6874C56.9724 37.9855 56.3962 38.363 56.3763 38.3432Z" fill="white"/>
</g>
</g>
<defs>
<filter id="filter0_d_233_1335" x="0" y="0" width="132.493" height="132.117" filterUnits="userSpaceOnUse" color-interpolation-filters="sRGB">
<feFlood flood-opacity="0" result="BackgroundImageFix"/>
<feColorMatrix in="SourceAlpha" type="matrix" values="0 0 0 0 0 0 0 0 0 0 0 0 0 0 0 0 0 0 127 0" result="hardAlpha"/>
<feOffset dx="2" dy="2"/>
<feComposite in2="hardAlpha" operator="out"/>
<feColorMatrix type="matrix" values="0 0 0 0 0 0 0 0 0 0 0 0 0 0 0 0 0 0 0.25 0"/>
<feBlend mode="normal" in2="BackgroundImageFix" result="effect1_dropShadow_233_1335"/>
<feBlend mode="normal" in="SourceGraphic" in2="effect1_dropShadow_233_1335" result="shape"/>
</filter>
</defs>
</svg>
