<svg width="192" height="192" viewBox="0 0 192 192" fill="none" xmlns="http://www.w3.org/2000/svg">
<path d="M40.3638 86.1892C39.9962 87.6934 40.4976 88.0946 40.8653 91.2701C42.6369 106.245 33.2105 114 31.0377 125.031C28.0293 140.341 38.2914 159.461 49.5897 162.47C55.406 164.007 57.0105 160.063 72.8883 159.829C76.7658 159.762 77.6349 159.996 87.6296 160.096C95.0504 160.163 98.0588 160.096 102.103 160.096C124.968 160.163 126.004 163.238 131.152 160.932C141.146 156.453 146.862 140.441 145.157 128.274C143.82 118.814 138.238 114.034 134.628 95.3148C133.558 89.7993 134.026 90.1002 133.425 88.6294C123.931 65.8656 44.6425 68.9743 40.3638 86.1892Z" fill="#5FAF31"/>
<path d="M52.1971 163.305C51.3614 163.305 50.4923 163.205 49.4895 162.938C43.9406 161.467 38.3583 156.118 34.5142 148.597C30.5698 140.842 29.1324 132.218 30.5698 124.931C31.4055 120.719 33.2105 117.076 35.1493 113.198C38.258 106.947 41.5004 100.496 40.3973 91.3036C40.2636 90.1002 40.0965 89.3314 39.9628 88.6963C39.7622 87.6935 39.6285 87.0918 39.8959 86.0556V86.0221C40.7985 82.412 44.8765 79.203 51.6622 76.7629C57.8796 74.5233 66.0024 72.9522 75.1948 72.2837C87.8636 71.3477 101.067 72.1834 111.43 74.6235C123.53 77.4648 131.285 82.2449 133.826 88.4289C134.16 89.2311 134.193 89.5988 134.294 90.4345C134.394 91.2033 134.528 92.507 135.063 95.248C137.068 105.644 139.742 111.794 141.882 116.742C143.586 120.652 145.024 124.029 145.625 128.24C147.297 140.14 141.815 156.72 131.352 161.433C128.645 162.637 127.04 162.436 123.163 161.935C119.285 161.433 113.469 160.665 102.104 160.631C100.7 160.631 99.3959 160.631 97.992 160.631C95.3847 160.665 92.4431 160.665 87.6296 160.631C82.415 160.564 79.7074 160.497 77.7018 160.431C75.9302 160.364 74.7268 160.33 72.8883 160.364C64.4982 160.497 60.1861 161.634 57.0105 162.47C55.172 162.938 53.7347 163.305 52.1971 163.305ZM40.8319 86.3564C40.6313 87.1587 40.7316 87.5932 40.9322 88.5292C41.0659 89.1308 41.233 89.9665 41.3667 91.2033C42.5032 100.697 39.194 107.282 36.0184 113.666C34.1131 117.477 32.3414 121.054 31.5392 125.132C30.1353 132.185 31.5726 140.575 35.4167 148.129C39.1271 155.417 44.4754 160.564 49.7569 161.968C52.3642 162.637 54.0355 162.202 56.81 161.467C60.019 160.598 64.4313 159.428 72.9218 159.327C74.7937 159.294 75.9971 159.327 77.7687 159.394C79.7409 159.461 82.4485 159.528 87.6631 159.595C92.4765 159.662 95.4181 159.628 98.0254 159.595C99.4294 159.595 100.7 159.561 102.137 159.595C113.569 159.628 119.686 160.431 123.33 160.899C127.107 161.4 128.511 161.567 130.951 160.464C139.04 156.82 146.662 142.748 144.656 128.341C144.088 124.229 142.717 121.087 140.979 117.109C138.84 112.129 136.132 105.945 134.093 95.4151C133.558 92.6741 133.391 91.337 133.324 90.5348C133.224 89.7325 133.191 89.4985 132.923 88.7966C130.483 82.9134 122.995 78.3339 111.196 75.5929C100.934 73.1862 87.8302 72.3505 75.2951 73.2865C55.9743 74.7573 42.4698 79.8716 40.8319 86.3564C40.8653 86.3564 40.8653 86.323 40.8319 86.3564Z" fill="#559D2B"/>
<g opacity="0.21">
<path d="M31.6394 124.563C31.3386 124.162 31.606 123.494 31.7063 123.293C32.4751 121.354 33.0434 119.349 34.0127 117.51C35.8512 114.067 36.4529 112.129 36.7538 112.229C36.8875 112.262 36.7872 112.83 36.6535 114.034C36.6535 114.134 36.5198 116.34 36.2858 120.753C36.2189 121.923 36.0518 123.059 36.0852 124.229C36.1186 125.7 36.2858 126.703 35.8847 126.87C35.7509 126.937 35.6172 126.87 34.3136 126.034C32.9096 125.132 32.8094 125.065 32.542 124.998C32.074 124.797 31.8066 124.831 31.6394 124.563Z" fill="#4D8C32"/>
</g>
<g opacity="0.21">
<path d="M40.5311 86.5903C39.7958 88.2951 42.2025 90.7018 41.4002 96.2173C41.0326 98.7912 40.0966 100.93 40.4643 101.098C40.9991 101.332 42.6705 95.6156 46.782 94.2785C49.5899 93.376 52.3977 94.8802 53.3671 95.3816C63.7295 100.663 84.3205 101.164 87.964 101.265C97.9253 101.499 115.775 98.5906 123.463 94.8802C124.165 94.5459 125.904 93.6434 127.943 94.078C132.957 95.1142 134.962 103.204 135.765 102.903C136.166 102.736 135.33 100.663 134.862 96.3176C134.528 93.3091 134.628 91.6712 133.659 89.1642C133.659 89.1642 133.124 87.7603 132.489 86.724C129.647 82.1111 105.68 91.0361 85.5907 91.5375C62.7935 92.1726 42.5033 82.0777 40.5311 86.5903Z" fill="#4D8C32"/>
</g>
<g opacity="0.21">
<path d="M137.269 109.789C136.032 110.123 140.21 119.85 135.564 126.068C134.662 127.271 133.559 128.174 131.921 130.747C130.316 133.254 128.544 136.865 129.18 137.333C130.049 137.968 133.325 131.449 140.378 129.745C142.55 129.21 143.921 129.41 144.69 128.274C145.659 126.803 144.623 124.697 142.383 119.884C138.573 111.594 137.837 109.655 137.269 109.789Z" fill="#4D8C32"/>
</g>
<path d="M59.4174 115.304C59.852 115.304 60.2531 117.343 61.0554 121.421C61.3896 123.093 61.6236 124.63 61.7908 126.034C62.2587 129.678 62.2922 132.285 62.3256 133.321C62.3924 134.692 62.8604 144.82 69.6461 151.338C71.9191 153.511 74.1587 154.547 75.5627 155.216C81.3121 157.857 85.925 157.288 94.1146 156.921C112.332 156.085 115.842 157.723 118.784 154.28C121.023 151.673 119.619 150.035 122.561 143.951C122.895 143.282 127.943 132.954 131.085 133.722C135.598 134.792 137.904 156.118 129.948 161.132C127.107 162.938 125.068 160.932 114.472 160.33C110.327 160.096 104.544 160.096 92.9781 160.13C83.9863 160.163 78.2034 160.263 69.9804 158.859C66.6042 158.258 64.9329 157.99 64.0638 157.522C51.5287 150.603 57.5455 115.371 59.4174 115.304Z" fill="#4D8C32"/>
<path d="M52.1971 163.305C51.3614 163.305 50.4923 163.205 49.4895 162.938C43.9406 161.467 38.3583 156.118 34.5142 148.597C30.5698 140.842 29.1324 132.218 30.5698 124.931C31.4055 120.719 33.2105 117.076 35.1493 113.198C38.258 106.947 41.5004 100.496 40.3973 91.3036C40.2636 90.1002 40.0965 89.3314 39.9628 88.6963C39.7622 87.6935 39.6285 87.0918 39.8959 86.0556V86.0221C40.7985 82.412 44.8765 79.203 51.6622 76.7629C57.8796 74.5233 66.0024 72.9522 75.1948 72.2837C87.8636 71.3477 101.067 72.1834 111.43 74.6235C123.53 77.4648 131.285 82.2449 133.826 88.4289C134.16 89.2311 134.193 89.5988 134.294 90.4345C134.394 91.2033 134.528 92.507 135.063 95.248C137.068 105.644 139.742 111.794 141.882 116.742C143.586 120.652 145.024 124.029 145.625 128.24C147.297 140.14 141.815 156.72 131.352 161.433C128.645 162.637 127.04 162.436 123.163 161.935C119.285 161.433 113.469 160.665 102.104 160.631C100.7 160.631 99.3959 160.631 97.992 160.631C95.3847 160.665 92.4431 160.665 87.6296 160.631C82.415 160.564 79.7074 160.497 77.7018 160.431C75.9302 160.364 74.7268 160.33 72.8883 160.364C64.4982 160.497 60.1861 161.634 57.0105 162.47C55.172 162.938 53.7347 163.305 52.1971 163.305ZM40.8319 86.3564C40.6313 87.1587 40.7316 87.5932 40.9322 88.5292C41.0659 89.1308 41.233 89.9665 41.3667 91.2033C42.5032 100.697 39.194 107.282 36.0184 113.666C34.1131 117.477 32.3414 121.054 31.5392 125.132C30.1353 132.185 31.5726 140.575 35.4167 148.129C39.1271 155.417 44.4754 160.564 49.7569 161.968C52.3642 162.637 54.0355 162.202 56.81 161.467C60.019 160.598 64.4313 159.428 72.9218 159.327C74.7937 159.294 75.9971 159.327 77.7687 159.394C79.7409 159.461 82.4485 159.528 87.6631 159.595C92.4765 159.662 95.4181 159.628 98.0254 159.595C99.4294 159.595 100.7 159.561 102.137 159.595C113.569 159.628 119.686 160.431 123.33 160.899C127.107 161.4 128.511 161.567 130.951 160.464C139.04 156.82 146.662 142.748 144.656 128.341C144.088 124.229 142.717 121.087 140.979 117.109C138.84 112.129 136.132 105.945 134.093 95.4151C133.558 92.6741 133.391 91.337 133.324 90.5348C133.224 89.7325 133.191 89.4985 132.923 88.7966C130.483 82.9134 122.995 78.3339 111.196 75.5929C100.934 73.1862 87.8302 72.3505 75.2951 73.2865C55.9743 74.7573 42.4698 79.8716 40.8319 86.3564C40.8653 86.3564 40.8653 86.323 40.8319 86.3564Z" fill="#559D2B"/>
<path d="M38.0239 129.41C36.2523 127.906 25.3217 118.68 15.5944 122.825C10.9481 124.797 8.77531 128.942 8.40761 129.711C3.15958 140.241 13.4885 152.776 14.391 153.845C15.4607 155.116 22.2464 162.871 33.6784 163.974C37.5225 164.342 45.3778 165.11 49.0882 160.631C54.8043 153.712 47.9183 137.734 38.0239 129.41Z" fill="#5FAF31"/>
<path d="M38.5923 164.776C36.687 164.776 34.9488 164.609 33.6451 164.475C22.6477 163.405 15.862 156.319 14.0235 154.146C13.4887 153.511 10.6808 150.101 8.64177 145.522C5.93418 139.438 5.7002 134.023 7.97323 129.477C8.57492 128.307 10.8145 124.296 15.4274 122.357C24.4193 118.513 34.414 125.7 38.3249 129.009L38.3583 129.042C43.2387 133.154 47.5508 139.271 49.8907 145.388C52.3977 151.973 52.2305 157.656 49.4895 160.965C46.8822 164.074 42.403 164.776 38.5923 164.776ZM20.9429 122.257C19.2381 122.257 17.4999 122.558 15.8286 123.26C11.5499 125.098 9.41059 128.842 8.87576 129.912C6.73643 134.19 6.97042 139.305 9.57772 145.087C11.5833 149.567 14.2909 152.876 14.7923 153.478C16.564 155.55 23.1156 162.403 33.7454 163.439C37.4558 163.807 45.1775 164.542 48.7207 160.263C51.2277 157.221 51.328 151.907 48.9547 145.689C46.6817 139.739 42.5033 133.789 37.7567 129.778L37.7232 129.744C34.7148 127.237 27.8957 122.257 20.9429 122.257Z" fill="#559D2B"/>
<path d="M134.16 130.346C139.375 125.7 149.904 122.29 155.52 122.792C156.991 122.925 162.272 123.393 165.381 126.97C170.896 133.321 166.35 145.789 161.336 152.675C160.032 154.447 153.748 163.038 142.55 164.308C140.01 164.609 131.218 165.578 126.605 160.263C120.02 152.709 126.138 137.466 134.16 130.346Z" fill="#5FAF31"/>
<path d="M138.439 165.044C132.89 165.044 128.778 163.539 126.171 160.564C119.151 152.475 126.104 136.798 133.792 129.979C139.308 125.065 150.005 121.789 155.52 122.291C160.133 122.692 163.576 124.162 165.715 126.669C171.398 133.255 166.785 146.024 161.671 152.977C156.69 159.796 149.904 163.974 142.517 164.81C141.113 164.943 139.742 165.044 138.439 165.044ZM134.461 130.714C130.517 134.224 127.007 139.806 125.369 145.288C123.497 151.405 124.065 156.62 126.94 159.896C129.882 163.305 135.13 164.609 142.45 163.773C149.537 162.971 156.088 158.927 160.902 152.341C165.815 145.656 170.328 133.422 164.98 127.271C163.008 124.965 159.799 123.628 155.453 123.26C150.272 122.825 139.742 126.034 134.461 130.714Z" fill="#559D2B"/>
<g opacity="0.38">
<path d="M88.2314 103.605C105.914 103.738 119.352 118.48 117.915 133.388C116.644 146.458 104.143 158.091 88.5657 158.325C71.7853 158.592 57.8463 145.589 57.9466 130.747C58.0469 116.207 71.6851 103.471 88.2314 103.605Z" fill="#CDDA69"/>
</g>
<g opacity="0.21">
<path d="M126.572 160.23C127.909 160.564 130.049 158.726 130.316 156.787C130.55 155.316 129.614 154.247 129.179 153.377C126.639 148.43 133.458 138.135 141.38 132.452C144.121 130.48 146.996 128.441 151.308 127.973C152.311 127.873 160.033 127.171 163.275 131.416C167.687 137.232 161.37 149.734 153.147 155.55C153.08 155.617 152.913 155.717 152.712 155.851C151.007 157.021 145.458 160.397 138.74 159.194C137.336 158.926 134.428 158.425 131.686 156.319C129.681 154.748 129.012 153.277 127.943 153.478C126.438 153.745 125.101 156.954 125.904 159.361C126.773 162.035 130.082 162.938 132.288 163.74C140.712 166.715 148.667 163.138 150.506 162.269C158.729 158.224 162.673 151.205 164.044 148.263C165.448 145.322 171.03 133.555 165.381 127.004C160.567 121.421 150.773 123.226 145.826 124.162C144.823 124.363 141.748 125.299 138.171 127.572C137.102 128.24 126.104 135.427 124.399 148.531C123.798 153.21 124.433 159.695 126.572 160.23Z" fill="#4D8C32"/>
</g>
<path d="M138.439 165.044C132.89 165.044 128.778 163.539 126.171 160.564C119.151 152.475 126.104 136.798 133.792 129.979C139.308 125.065 150.005 121.789 155.52 122.291C160.133 122.692 163.576 124.162 165.715 126.669C171.398 133.255 166.785 146.024 161.671 152.977C156.69 159.796 149.904 163.974 142.517 164.81C141.113 164.943 139.742 165.044 138.439 165.044ZM134.461 130.714C130.517 134.224 127.007 139.806 125.369 145.288C123.497 151.405 124.065 156.62 126.94 159.896C129.882 163.305 135.13 164.609 142.45 163.773C149.537 162.971 156.088 158.927 160.902 152.341C165.815 145.656 170.328 133.422 164.98 127.271C163.008 124.965 159.799 123.628 155.453 123.26C150.272 122.825 139.742 126.034 134.461 130.714Z" fill="#559D2B"/>
<g opacity="0.21">
<path d="M22.3134 123.193C22.0126 123.928 31.8735 126.469 34.0797 134.291C34.882 137.099 33.7789 137.333 34.18 141.344C35.1494 150.703 41.6342 154.447 39.662 158.592C38.8598 160.264 37.155 160.966 36.1856 161.333C31.9738 163.005 27.528 160.397 24.8873 158.86C22.8483 157.656 15.862 153.177 13.1879 144.051C12.1851 140.709 10.7477 136.33 12.9873 132.285C14.8926 128.876 18.3022 127.572 18.7702 127.405C25.2884 125.098 31.7064 130.28 32.2412 129.377C32.7761 128.475 27.6952 121.856 20.6755 121.789C14.6587 121.722 9.47747 126.502 7.63899 131.55C7.17101 132.853 6.63618 135.06 7.07073 138.536C8.07354 146.525 13.7561 157.523 24.9876 161.734C31.907 164.342 44.8432 165.812 50.0912 158.225C55.473 150.469 48.8879 138.335 43.4058 132.452C34.9154 123.36 22.6477 122.391 22.3134 123.193Z" fill="#4D8C32"/>
</g>
<path d="M38.5923 164.776C36.687 164.776 34.9488 164.609 33.6451 164.475C22.6477 163.405 15.862 156.319 14.0235 154.146C13.4887 153.511 10.6808 150.101 8.64177 145.522C5.93418 139.438 5.7002 134.023 7.97323 129.477C8.57492 128.307 10.8145 124.296 15.4274 122.357C24.4193 118.513 34.414 125.7 38.3249 129.009L38.3583 129.042C43.2387 133.154 47.5508 139.271 49.8907 145.388C52.3977 151.973 52.2305 157.656 49.4895 160.965C46.8822 164.074 42.403 164.776 38.5923 164.776ZM20.9429 122.257C19.2381 122.257 17.4999 122.558 15.8286 123.26C11.5499 125.098 9.41059 128.842 8.87576 129.912C6.73643 134.19 6.97042 139.305 9.57772 145.087C11.5833 149.567 14.2909 152.876 14.7923 153.478C16.564 155.55 23.1156 162.403 33.7454 163.439C37.4558 163.807 45.1775 164.542 48.7207 160.263C51.2277 157.221 51.328 151.907 48.9547 145.689C46.6817 139.739 42.5033 133.789 37.7567 129.778L37.7232 129.744C34.7148 127.237 27.8957 122.257 20.9429 122.257Z" fill="#559D2B"/>
<path d="M37.7899 108.819C36.3191 118.547 36.386 126.703 36.7537 132.586C37.6896 146.692 40.7649 151.639 41.7677 153.01C42.0351 153.377 45.5115 158.191 45.5115 158.191C45.5115 158.191 44.5421 159.261 42.2691 161.534C39.8624 163.94 39.6618 166.748 39.7955 168.219C39.8289 168.787 40.3303 169.188 40.8986 169.122C42.5365 168.921 45.8124 168.42 47.1494 167.484C49.4559 165.879 51.0604 164.576 51.0604 164.576C51.0604 164.576 52.0632 166.548 54.1357 168.587C54.6037 169.055 56.2416 169.79 57.2778 170.225C57.8461 170.459 58.4812 170.425 59.016 170.124C59.6511 169.757 60.4868 169.255 60.9214 168.787C63.4952 166.013 64.3643 163.105 64.3643 163.105C64.3643 163.105 66.5037 163.907 70.3478 165.144C71.6514 165.545 73.5902 165.679 74.8604 165.745C75.4955 165.779 75.9301 165.144 75.7295 164.542C75.2281 163.071 74.1919 160.598 72.7545 159.16C70.1806 156.553 68.2753 156.386 66.3031 154.915C62.693 152.208 62.0913 147.427 61.4896 141.812C60.4868 132.653 59.8183 123.795 59.3503 115.237" fill="#5FAF31"/>
<path d="M58.0801 170.96C57.7459 170.96 57.4116 170.893 57.1108 170.759C55.3391 170.024 54.236 169.422 53.8015 169.021C52.2973 167.55 51.3613 166.147 50.9268 165.411C50.2917 165.913 49.0214 166.848 47.4504 167.952C46.0464 168.954 42.7706 169.456 40.9655 169.656C40.5644 169.69 40.1633 169.589 39.8624 169.322C39.5616 169.055 39.361 168.687 39.3276 168.286C39.1939 166.715 39.3945 163.74 41.9349 161.199C43.506 159.628 44.4419 158.625 44.8765 158.157C44.0742 157.054 41.5672 153.611 41.3667 153.311C39.829 151.171 37.088 145.622 36.2523 132.619C35.7509 124.764 36.0852 116.741 37.2886 108.752C37.322 108.485 37.5894 108.284 37.8568 108.318C38.1242 108.351 38.3248 108.619 38.2914 108.886C37.1214 116.808 36.7537 124.764 37.2551 132.552C38.0908 145.322 40.6981 150.67 42.1689 152.709C42.4363 153.077 45.8793 157.823 45.9127 157.89C46.0464 158.091 46.0464 158.358 45.8793 158.525C45.8459 158.559 44.8765 159.628 42.6035 161.901C40.3304 164.174 40.1633 166.815 40.2636 168.219C40.2636 168.353 40.3304 168.486 40.4307 168.553C40.531 168.62 40.6647 168.687 40.7984 168.654C43.74 168.319 45.9127 167.751 46.8152 167.116C49.0883 165.511 50.6928 164.241 50.6928 164.241C50.8265 164.141 50.9602 164.107 51.0939 164.141C51.2276 164.174 51.3613 164.275 51.4282 164.408C51.4282 164.442 52.431 166.314 54.4366 168.286C54.7374 168.587 55.874 169.155 57.4116 169.823C57.8461 169.991 58.3141 169.991 58.7153 169.757C59.5509 169.289 60.186 168.854 60.4869 168.52C62.927 165.879 63.8296 163.071 63.8296 163.038C63.863 162.904 63.9633 162.804 64.097 162.737C64.2307 162.67 64.3644 162.67 64.4981 162.704C64.5315 162.704 66.6709 163.506 70.4481 164.709C71.6515 165.11 73.49 165.244 74.8271 165.277C74.9608 165.277 75.0945 165.211 75.1613 165.11C75.2282 165.01 75.2616 164.876 75.2282 164.743C74.7602 163.406 73.7574 160.932 72.3869 159.561C70.8492 157.99 69.5456 157.355 68.3088 156.72C67.5065 156.319 66.7711 155.951 66.0023 155.35C62.1248 152.441 61.59 147.327 60.9883 141.912C60.0523 133.087 59.3169 124.129 58.849 115.304C58.849 115.037 59.0495 114.803 59.3169 114.769C59.5844 114.769 59.8183 114.97 59.8518 115.237C60.3197 124.062 61.0217 132.987 61.9911 141.778C62.5594 146.993 63.0942 151.873 66.604 154.547C67.306 155.082 68.0079 155.45 68.7768 155.818C70.0136 156.453 71.4509 157.155 73.1223 158.826C74.6599 160.364 75.6962 162.971 76.1976 164.408C76.3647 164.843 76.2644 165.311 75.997 165.679C75.7296 166.046 75.295 166.28 74.8271 166.247C73.4231 166.213 71.4844 166.046 70.1807 165.645C67.4063 164.743 65.5009 164.074 64.6653 163.773C64.2976 164.743 63.2947 166.982 61.2891 169.155C60.7877 169.69 59.9186 170.225 59.2501 170.592C58.9158 170.826 58.5147 170.96 58.0801 170.96Z" fill="#559D2B"/>
<path d="M138.572 54.1329C130.984 44.8737 113.569 28.1267 86.9945 28.3942C54.8043 28.7284 36.5866 53.7652 34.7816 56.3725C32.0071 59.9158 30.4695 63.8267 30.4695 67.9048C30.4695 84.6183 56.0745 98.1562 87.663 98.1562C119.252 98.1562 144.857 84.6183 144.857 67.9048C144.823 62.9576 142.55 58.2779 138.572 54.1329Z" fill="#5FAF31"/>
<path d="M87.6296 98.6575C72.2867 98.6575 57.8128 95.4819 46.949 89.7325C35.985 83.9496 29.9347 76.1946 29.9347 67.9381C29.9347 63.8266 31.4389 59.8488 34.3471 56.105C36.3192 53.2637 54.8044 28.2269 86.9611 27.926C87.1617 27.926 87.3957 27.926 87.5962 27.926C113.77 27.926 130.984 44.1381 138.94 53.8654C143.118 58.1774 145.325 63.0578 145.325 67.9715C145.325 76.2614 139.274 83.9831 128.31 89.7993C117.446 95.5154 102.973 98.6575 87.6296 98.6575ZM87.5962 28.8954C87.3957 28.8954 87.1951 28.8954 86.9611 28.8954C55.3058 29.1963 37.1215 53.8654 35.1493 56.6732C32.3414 60.2833 30.9375 64.0606 30.9375 67.9381C30.9375 84.3508 56.3754 97.6881 87.6296 97.6881C118.884 97.6881 144.322 84.3508 144.322 67.9381C144.322 63.2249 142.249 58.7123 138.205 54.5005C138.171 54.467 138.171 54.467 138.138 54.4336C130.282 44.8401 113.302 28.8954 87.5962 28.8954Z" fill="#559D2B"/>
<g opacity="0.21">
<path d="M61.3227 35.0126C61.3227 35.0461 61.5901 35.1129 62.125 35.2801C63.3952 35.6478 64.632 35.7146 64.632 35.7146C64.632 35.7146 75.9637 30.6003 87.2286 30.6337C98.2261 30.6671 109.157 35.5809 109.157 35.5809C109.157 35.5809 110.16 35.6812 110.561 35.6812C111.162 35.6478 112.867 35.514 112.934 35.2466C113.135 34.2104 101.067 28.2938 87.3289 28.2604C73.5236 28.227 61.1556 34.2104 61.3227 35.0126Z" fill="#4D8C32"/>
</g>
<path d="M87.6296 98.6575C72.2867 98.6575 57.8128 95.4819 46.949 89.7325C35.985 83.9496 29.9347 76.1946 29.9347 67.9381C29.9347 63.8266 31.4389 59.8488 34.3471 56.105C36.3192 53.2637 54.8044 28.2269 86.9611 27.926C87.1617 27.926 87.3957 27.926 87.5962 27.926C113.77 27.926 130.984 44.1381 138.94 53.8654C143.118 58.1774 145.325 63.0578 145.325 67.9715C145.325 76.2614 139.274 83.9831 128.31 89.7993C117.446 95.5154 102.973 98.6575 87.6296 98.6575ZM87.5962 28.8954C87.3957 28.8954 87.1951 28.8954 86.9611 28.8954C55.3058 29.1963 37.1215 53.8654 35.1493 56.6732C32.3414 60.2833 30.9375 64.0606 30.9375 67.9381C30.9375 84.3508 56.3754 97.6881 87.6296 97.6881C118.884 97.6881 144.322 84.3508 144.322 67.9381C144.322 63.2249 142.249 58.7123 138.205 54.5005C138.171 54.467 138.171 54.467 138.138 54.4336C130.282 44.8401 113.302 28.8954 87.5962 28.8954Z" fill="#559D2B"/>
<path d="M139.742 55.5701C140.077 53.4642 141.514 42.5336 134.962 34.0431C133.391 32.0041 129.48 26.8898 123.096 26.5555C117.212 26.2547 113.101 30.2325 112.232 31.135C106.449 37.085 107.251 45.5755 107.352 46.5114" fill="#5FAF31"/>
<path d="M139.742 56.0716C139.709 56.0716 139.709 56.0716 139.676 56.0716C139.408 56.0382 139.208 55.7708 139.241 55.5034C139.676 52.5618 140.678 42.2997 134.561 34.3441C133.09 32.4387 129.213 27.3913 123.062 27.057C117.781 26.7896 113.97 30.0654 112.6 31.4694C107.017 37.2188 107.753 45.5421 107.887 46.4447C107.92 46.7121 107.719 46.9795 107.452 47.0129C107.185 47.0463 106.917 46.8458 106.884 46.5784C106.717 44.9739 106.115 36.7174 111.898 30.7674C113.369 29.2632 117.447 25.7534 123.129 26.0542C129.748 26.3885 133.826 31.7368 135.363 33.709C141.681 41.9654 140.678 52.5618 140.244 55.6036C140.21 55.9045 140.01 56.0716 139.742 56.0716Z" fill="#559D2B"/>
<g opacity="0.21">
<path d="M137.102 55.5366C136.366 52.1939 137.336 50.6562 137.369 47.6144C137.436 40.5947 132.455 35.5138 132.188 35.2464C131.018 34.1099 127.842 31.0012 122.895 30.8006C118.349 30.6 115.073 32.9065 114.271 33.5416C108.187 38.1545 108.221 46.645 107.385 46.5113C106.717 46.411 106.215 40.9958 108.555 35.8147C109.324 34.1099 111.196 30.1321 115.708 27.8256C117.112 27.0902 120.722 25.5526 125.035 26.4885C130.316 27.5916 133.258 31.6697 134.929 34.043C138.338 38.8231 140.745 46.0767 140.043 50.6897C139.943 51.3248 139.575 53.297 140.311 55.6034C140.845 57.2748 141.681 58.3444 142.049 58.8124C144.623 62.2888 145.826 69.275 143.72 74.8239C143.52 75.3588 143.286 75.8936 142.985 76.4618C142.985 76.4618 141.514 79.3366 138.74 81.8102C127.809 91.5374 111.831 95.6489 111.831 95.6489C106.148 97.1197 97.4573 98.6908 86.5601 98.1559C90.2036 97.9554 120.121 96.0166 133.224 82.5456C136.233 79.4368 141.982 73.7543 141.146 66.534C140.779 63.4588 139.408 60.8515 139.408 60.8515C138.673 59.6815 137.636 57.8765 137.102 55.5366Z" fill="#4D8C32"/>
</g>
<path d="M66.9384 48.116C67.0721 46.6787 67.6069 39.6256 63.2948 33.4416C62.526 32.3385 58.3811 26.4219 51.7291 26.3551C44.0075 26.2548 39.3946 34.0433 38.4586 35.6478C33.5448 43.9377 35.4502 53.1301 35.8179 54.7346" fill="#5FAF31"/>
<path d="M35.8177 55.2692C35.5837 55.2692 35.3832 55.1021 35.3163 54.8681C34.748 52.3277 33.2773 43.4027 38.0239 35.4136C41.7009 29.1962 46.5812 25.7866 51.7624 25.8535C57.7458 25.9204 61.8239 30.4664 63.7292 33.174C67.8408 39.0237 67.707 45.6088 67.4731 48.1827C67.4396 48.4501 67.2056 48.6507 66.9382 48.6507C66.6708 48.6173 66.4702 48.3833 66.4702 48.1159C66.7042 45.6757 66.8379 39.358 62.8936 33.7757C61.1219 31.2352 57.2778 26.9566 51.7289 26.8897C46.9489 26.8229 42.3694 30.0319 38.893 35.9484C34.3469 43.6367 35.7509 52.2274 36.3191 54.6675C36.386 54.935 36.2188 55.2024 35.9514 55.2692C35.8846 55.2692 35.8511 55.2692 35.8177 55.2692Z" fill="#559D2B"/>
<path d="M49.5898 37.1184C43.339 37.4861 39.3277 44.4389 39.662 50.2886C39.9628 55.3695 43.5729 61.0521 48.8878 61.6538C55.1387 62.3558 61.0887 55.7707 60.955 49.0853C60.8547 43.035 55.7738 36.7507 49.5898 37.1184Z" fill="#353535"/>
<path d="M124.433 37.018C118.249 36.8174 113.569 42.7674 113.268 48.4834C112.934 54.6006 117.614 61.2191 123.932 61.2525C130.182 61.286 134.862 54.9014 134.795 48.8846C134.695 43.3357 130.517 37.2186 124.433 37.018Z" fill="#353535"/>
<path d="M41.233 73.3199C39.4948 73.3199 38.1578 72.8185 37.7566 72.6848C37.4224 72.5511 37.2552 72.1499 37.3889 71.8157C37.5226 71.4814 37.9238 71.3143 38.258 71.448C38.8263 71.682 41.8681 72.7516 44.7094 71.0803C46.3474 70.1109 47.183 68.6401 47.5507 67.8713C47.7179 67.537 48.0856 67.3699 48.4198 67.537C48.7541 67.7041 48.9212 68.0718 48.7541 68.4061C48.353 69.3421 47.3502 71.0803 45.378 72.2168C43.9406 73.0859 42.5033 73.3199 41.233 73.3199Z" fill="#353535"/>
<path d="M135.464 72.1834C134.361 72.1834 133.124 72.0496 131.787 71.6151C129.213 70.7794 127.475 69.2752 126.472 68.1721C126.238 67.9047 126.238 67.4701 126.539 67.2362C126.806 67.0022 127.241 67.0022 127.475 67.303C128.344 68.3058 129.881 69.6095 132.188 70.3449C134.461 71.0803 136.5 70.8797 137.804 70.6123C138.171 70.5454 138.506 70.746 138.606 71.1137C138.673 71.4814 138.472 71.8157 138.104 71.9159C137.369 72.0831 136.467 72.1834 135.464 72.1834Z" fill="#353535"/>
<path d="M88.3987 85.2535C88.1313 85.2535 87.8639 85.2535 87.6299 85.2535C76.1644 85.1197 67.7408 82.3119 63.2282 80.8077C56.7434 78.6683 50.5259 75.7602 44.7096 72.2169C44.4088 72.0164 44.3085 71.6153 44.4757 71.3144C44.6762 71.0136 45.0773 70.9133 45.3782 71.0804C51.1276 74.5903 57.2448 77.4315 63.6293 79.5374C68.0751 81.0082 76.365 83.7492 87.6299 83.883C92.6774 83.9498 102.906 83.415 114.839 79.0026C120.723 76.8299 126.372 73.9217 131.586 70.4119C131.887 70.2113 132.322 70.2782 132.522 70.579C132.723 70.8799 132.656 71.3144 132.355 71.515C127.04 75.0917 121.291 78.0332 115.307 80.2394C103.742 84.5515 93.747 85.2535 88.3987 85.2535Z" fill="#353535"/>
<path d="M91.3736 61.6537C92.6439 62.1217 93.7804 62.8571 94.7163 63.8265C95.1843 64.3279 94.6495 65.1636 93.9809 64.963C92.7107 64.495 91.5742 63.7596 90.6382 62.7902C90.3708 62.5228 90.4043 62.0883 90.6717 61.8209C90.8722 61.6203 91.1396 61.5869 91.3736 61.6537Z" fill="#353535"/>
<path d="M83.8859 62.7569C82.9165 63.7262 81.8134 64.4951 80.5432 64.9296C80.1755 65.0299 79.7743 64.8293 79.6741 64.4616C79.3064 63.5257 82.3817 61.8543 83.1505 61.6203C83.8524 61.4198 84.3873 62.2555 83.8859 62.7569Z" fill="#353535"/>
<g opacity="0.62">
<path d="M129.915 52.3612C131.096 52.3612 132.054 50.9095 132.054 49.1188C132.054 47.328 131.096 45.8763 129.915 45.8763C128.733 45.8763 127.776 47.328 127.776 49.1188C127.776 50.9095 128.733 52.3612 129.915 52.3612Z" fill="white"/>
<path d="M129.915 52.8625C128.444 52.8625 127.274 51.2246 127.274 49.1187C127.274 47.0128 128.444 45.3749 129.915 45.3749C131.386 45.3749 132.556 47.0128 132.556 49.1187C132.556 51.2246 131.386 52.8625 129.915 52.8625ZM129.915 46.3777C129.046 46.3777 128.277 47.6479 128.277 49.1187C128.277 50.5895 129.012 51.8597 129.915 51.8597C130.817 51.8597 131.553 50.5895 131.553 49.1187C131.553 47.6479 130.817 46.3777 129.915 46.3777Z" fill="white"/>
</g>
<g opacity="0.62">
<path d="M44.576 52.3612C45.7575 52.3612 46.7153 50.9095 46.7153 49.1188C46.7153 47.328 45.7575 45.8763 44.576 45.8763C43.3945 45.8763 42.4366 47.328 42.4366 49.1188C42.4366 50.9095 43.3945 52.3612 44.576 52.3612Z" fill="white"/>
<path d="M44.5759 52.8625C43.1051 52.8625 41.9352 51.2246 41.9352 49.1187C41.9352 47.0128 43.1051 45.3749 44.5759 45.3749C46.0467 45.3749 47.2166 47.0128 47.2166 49.1187C47.2166 51.2246 46.0467 52.8625 44.5759 52.8625ZM44.5759 46.3777C43.7068 46.3777 42.938 47.6479 42.938 49.1187C42.938 50.5895 43.6734 51.8597 44.5759 51.8597C45.4784 51.8597 46.2138 50.5895 46.2138 49.1187C46.2138 47.6479 45.445 46.3777 44.5759 46.3777Z" fill="white"/>
</g>
<g opacity="0.33">
<path d="M43.807 57.3083C47.1831 60.4505 52.03 60.2833 55.6736 57.7095C52.3977 60.885 46.6817 61.0522 43.807 57.3083Z" fill="white"/>
</g>
<g opacity="0.33">
<path d="M129.948 57.3083C127.04 61.0522 121.324 60.885 118.082 57.7095C121.759 60.2833 126.606 60.4505 129.948 57.3083Z" fill="white"/>
</g>
<path d="M90.7384 103.705C91.0726 104.373 90.7384 105.209 90.3373 105.71C89.4681 106.814 87.8636 106.613 87.5628 106.546C85.9917 106.346 84.3538 105.109 84.521 104.206C84.7215 103.17 87.262 102.936 87.5628 102.903C88.3316 102.836 90.2035 102.669 90.7384 103.705Z" fill="#5FAF31"/>
<path d="M94.6495 108.184C94.5158 109.22 93.045 109.822 91.9419 109.822C90.8388 109.822 89.368 109.22 89.2343 108.184C89.134 107.449 89.7692 106.847 89.9029 106.68C90.8388 105.778 92.4099 105.711 93.4795 106.413C93.6467 106.513 94.7498 107.248 94.6495 108.184Z" fill="#5FAF31"/>
<path d="M86.6937 108.051C86.7271 107.081 84.9555 105.878 83.3844 106.145C82.3482 106.312 81.1448 107.181 81.2117 108.184C81.2785 109.12 82.4485 109.622 82.5822 109.688C83.6518 110.156 84.7215 109.655 85.1226 109.454C85.5906 109.254 86.6268 108.752 86.6937 108.051Z" fill="#5FAF31"/>
<path d="M87.2955 109.12C87.8637 109.02 88.5657 109.421 88.666 109.922C88.7662 110.557 87.964 111.159 87.262 111.192C87.2286 111.192 86.4932 111.226 86.2592 110.791C85.925 110.29 86.4932 109.22 87.2955 109.12Z" fill="#5FAF31"/>
<g opacity="0.32">
<path d="M16.9318 125.432C16.6644 125.834 16.8649 126.536 17.2326 126.937C17.7675 127.505 18.5363 127.371 18.7368 127.338C19.2382 127.271 20.0071 126.937 20.0405 126.435C20.0739 126.068 19.7062 125.767 19.5391 125.633C18.8037 124.998 17.3663 124.797 16.9318 125.432Z" fill="white"/>
</g>
<g opacity="0.32">
<path d="M14.4915 134.357C13.5889 134.792 13.4887 136.062 13.4887 136.497C13.3884 138.101 14.2909 140.207 15.7283 140.341C16.2965 140.408 16.8982 140.14 17.2325 139.739C17.9679 138.903 17.5668 137.6 17.0319 135.995C16.6976 134.959 16.4302 134.658 16.1628 134.491C15.6948 134.19 15.0263 134.123 14.4915 134.357Z" fill="white"/>
</g>
<g opacity="0.32">
<path d="M44.2082 110.223C43.7402 110.123 42.7374 112.563 42.2694 114.067C41.8683 115.404 40.3641 120.184 42.5703 122.792C42.7374 122.992 43.3057 123.627 43.6734 123.494C44.3085 123.293 44.0745 121.254 43.9742 119.148C43.7736 113.499 44.743 110.357 44.2082 110.223Z" fill="white"/>
</g>
<g opacity="0.32">
<path d="M48.2862 100.897C47.6511 101.165 47.718 102.435 47.8851 103.137C47.9185 103.337 48.186 104.407 48.6874 104.44C49.3225 104.507 50.4256 102.936 49.8907 101.8C49.5899 101.165 48.7876 100.697 48.2862 100.897Z" fill="white"/>
</g>
<g opacity="0.32">
<path d="M122.828 103.738C122.628 104.173 122.929 104.674 123.229 104.942C123.664 105.343 124.5 105.477 124.867 105.042C125.235 104.607 125.001 103.772 124.466 103.404C123.898 103.103 123.062 103.237 122.828 103.738Z" fill="white"/>
</g>
<g opacity="0.32">
<path d="M128.377 109.02C127.709 109.02 127.274 108.05 127.475 107.716C127.742 107.282 129.113 107.382 129.313 107.917C129.447 108.284 128.979 109.02 128.377 109.02Z" fill="white"/>
</g>
<g opacity="0.32">
<path d="M158.228 133.656C158.662 133.455 159.498 133.254 159.966 133.656C160.768 134.358 159.966 136.463 159.264 137.6C159.03 138.001 157.793 140.007 156.623 139.739C156.088 139.606 155.754 139.071 155.62 138.636C155.52 138.268 155.52 137.867 156.523 135.995C157.526 134.057 157.893 133.789 158.228 133.656Z" fill="white"/>
</g>
<g opacity="0.32">
<path d="M55.4393 43.269C55.0382 43.5364 55.0382 44.2049 55.1719 44.6395C55.4059 45.3749 56.3084 45.9765 56.8098 45.7091C57.2778 45.4751 57.3781 44.4389 56.9435 43.8038C56.6092 43.3358 55.8739 42.9681 55.4393 43.269Z" fill="white"/>
</g>
<g opacity="0.32">
<path d="M117.279 43.269C117.681 43.5364 117.681 44.2049 117.547 44.6395C117.313 45.3749 116.41 45.9765 115.909 45.7091C115.441 45.4751 115.341 44.4389 115.775 43.8038C116.143 43.3358 116.845 42.9681 117.279 43.269Z" fill="white"/>
</g>
<path d="M139.742 56.0716C139.709 56.0716 139.709 56.0716 139.676 56.0716C139.408 56.0382 139.208 55.7708 139.241 55.5034C139.676 52.5618 140.678 42.2997 134.561 34.3441C133.09 32.4387 129.213 27.3913 123.062 27.057C117.781 26.7896 113.97 30.0654 112.6 31.4694C107.017 37.2188 107.753 45.5421 107.887 46.4447C107.92 46.7121 107.719 46.9795 107.452 47.0129C107.185 47.0463 106.917 46.8458 106.884 46.5784C106.717 44.9739 106.115 36.7174 111.898 30.7674C113.369 29.2632 117.447 25.7534 123.129 26.0542C129.748 26.3885 133.826 31.7368 135.363 33.709C141.681 41.9654 140.678 52.5618 140.244 55.6036C140.21 55.9045 140.01 56.0716 139.742 56.0716Z" fill="#559D2B"/>
<g opacity="0.32">
<path d="M48.0188 31.369C47.5842 30.6002 42.9045 31.3356 41.534 34.4443C41.2665 35.0794 40.7651 36.5168 41.3 36.8845C42.5033 37.7536 48.6205 32.4053 48.0188 31.369Z" fill="white"/>
</g>
<g opacity="0.32">
<path d="M34.6814 63.6259C34.1465 64.2611 34.0463 65.3307 34.4808 66.0661C35.1828 67.2361 37.155 67.3363 38.3249 66.4672C39.0603 65.9324 39.662 64.8293 39.3277 64.0271C38.8263 62.7234 35.8179 62.2554 34.6814 63.6259Z" fill="white"/>
</g>
<g opacity="0.32">
<path d="M140.077 63.6259C140.612 64.2611 140.745 65.3307 140.277 66.0661C139.575 67.2361 137.603 67.3363 136.433 66.4672C135.698 65.9324 135.096 64.8293 135.43 64.0271C135.932 62.7234 138.94 62.2554 140.077 63.6259Z" fill="white"/>
</g>
<path d="M136.4 123.26C146.227 119.115 151.709 113.934 154.885 109.889C162.205 100.596 165.849 95.9501 167.085 93.9445C167.52 93.2425 168.957 90.7689 171.899 88.897C172.2 88.6964 172.3 88.4624 172.601 88.4624C174.874 88.663 177.916 88.663 181.359 87.7605C182.596 87.4596 183.699 87.0585 184.668 86.6574C185.103 86.4903 185.236 85.922 184.902 85.5543C184.3 84.8858 183.598 84.1838 182.763 83.4818C180.389 81.5431 177.949 80.5402 176.111 80.0388C175.643 79.9051 175.476 79.3369 175.743 78.9692C176.378 78.1335 177.147 76.8633 177.448 75.1919C177.648 74.2226 177.615 73.3535 177.548 72.6849C177.548 72.5178 177.448 72.3841 177.314 72.2504C176.612 71.6152 175.342 70.6459 173.503 70.1445C171.297 69.5428 169.359 69.9439 168.222 70.3116C167.787 70.4453 167.353 70.1445 167.319 69.7099C167.186 67.7377 166.617 64.2279 164.044 61.1192C163.074 59.9492 162.038 59.0801 161.102 58.445C160.768 58.211 160.3 58.3447 160.099 58.7124C159.698 59.5147 159.23 60.5509 158.862 61.8546C157.425 66.8686 159.163 69.5428 158.127 73.788C157.692 75.6265 156.523 77.2644 154.216 80.4734C152.311 83.1141 149.57 86.9248 144.957 90.8692C139.341 95.6827 133.592 98.3902 129.313 99.9613" fill="#5FAF31"/>
<path d="M136.4 123.761C136.199 123.761 136.032 123.661 135.932 123.46C135.831 123.193 135.932 122.925 136.199 122.792C143.988 119.516 150.138 115.07 154.484 109.555C161.771 100.295 165.448 95.649 166.618 93.6768L166.651 93.6099C167.153 92.8077 168.623 90.3341 171.565 88.4622C171.632 88.4287 171.699 88.3619 171.765 88.295C171.933 88.1279 172.2 87.8939 172.601 87.9608C175.509 88.2282 178.417 87.9942 181.158 87.2922C182.262 87.0248 183.331 86.6571 184.401 86.2226C184.468 86.1891 184.501 86.1557 184.501 86.0888C184.501 86.0554 184.501 85.9886 184.468 85.9217C183.833 85.1863 183.131 84.5178 182.362 83.9161C180.49 82.3785 178.317 81.2419 175.91 80.54C175.543 80.4397 175.242 80.1388 175.108 79.7711C174.974 79.4035 175.041 79.0023 175.309 78.6681C176.144 77.5984 176.679 76.395 176.947 75.0914C177.08 74.3226 177.147 73.5203 177.047 72.7181C177.047 72.6846 177.014 72.6512 176.98 72.6178C176.245 71.9492 175.041 71.0801 173.37 70.6122C171.331 70.0773 169.526 70.4116 168.356 70.7793C167.988 70.8796 167.621 70.8461 167.32 70.6456C167.019 70.445 166.818 70.1108 166.818 69.7431C166.685 67.5369 166.016 64.2945 163.676 61.4197C162.874 60.4504 161.905 59.5813 160.835 58.8459C160.768 58.8124 160.735 58.8124 160.701 58.8124C160.668 58.8124 160.601 58.8459 160.601 58.9127C160.099 59.8821 159.698 60.9183 159.397 61.9546C158.662 64.5619 158.796 66.5341 158.93 68.4394C159.03 70.1108 159.164 71.8155 158.662 73.8546C158.194 75.7933 157.024 77.4313 154.684 80.7071C152.98 83.1138 150.105 87.1251 145.358 91.2032C140.745 95.1476 135.43 98.2563 129.581 100.396C129.313 100.496 129.046 100.362 128.946 100.095C128.845 99.8273 128.979 99.5599 129.246 99.4596C134.996 97.3537 140.177 94.3119 144.723 90.4343C149.403 86.4565 152.211 82.4787 153.882 80.1388C156.155 76.9633 157.292 75.3922 157.693 73.6206C158.161 71.7487 158.027 70.1776 157.927 68.5063C157.793 66.5006 157.659 64.4282 158.428 61.6537C158.729 60.5506 159.164 59.481 159.698 58.4447C159.865 58.1439 160.133 57.9099 160.467 57.8431C160.801 57.7762 161.136 57.8096 161.437 58.0102C162.606 58.8124 163.609 59.7484 164.478 60.7846C167.019 63.8599 167.721 67.3029 167.855 69.6762C167.855 69.7431 167.888 69.7765 167.921 69.8099C167.955 69.8433 168.022 69.8433 168.088 69.8433C169.359 69.4088 171.398 69.0411 173.671 69.6762C175.543 70.1776 176.913 71.1804 177.715 71.9158C177.916 72.1164 178.05 72.3838 178.083 72.6512C178.183 73.5537 178.117 74.4228 177.949 75.2919C177.682 76.7293 177.047 78.0664 176.144 79.2697C176.078 79.3366 176.111 79.4035 176.111 79.4369C176.111 79.4703 176.144 79.5372 176.245 79.5706C178.785 80.306 181.092 81.5094 183.064 83.1138C183.866 83.749 184.601 84.4843 185.27 85.2532C185.537 85.554 185.638 85.9551 185.537 86.3228C185.437 86.6905 185.203 86.9914 184.835 87.1585C183.732 87.6265 182.596 87.9942 181.459 88.295C178.585 89.0304 175.61 89.2644 172.568 88.997C172.534 89.0304 172.501 89.0638 172.467 89.0973C172.401 89.1641 172.3 89.2644 172.167 89.3647C169.392 91.1363 168.022 93.4428 167.554 94.2116L167.52 94.2785C166.283 96.2841 162.606 100.964 155.286 110.257C150.874 115.872 144.589 120.418 136.6 123.794C136.533 123.761 136.467 123.761 136.4 123.761Z" fill="#559D2B"/>
<g opacity="0.21">
<path d="M136.4 123.26C135.564 122.157 146.06 115.939 156.79 101.933C162.74 94.1448 166.25 87.2588 173.169 86.49C175.71 86.2226 179.052 86.724 179.554 85.3869C180.222 83.5818 175.242 80.2057 175.609 79.7377C175.71 79.604 176.278 79.7377 178.785 81.2085C183.064 83.749 185.203 85.0192 185.002 86.0889C184.802 87.2254 182.261 87.6934 179.721 88.1279C176.545 88.6962 174.64 88.529 173.47 88.6293C169.292 88.997 167.219 93.6099 162.807 100.061C159.564 104.808 153.982 112.83 145.224 118.847C141.748 121.254 136.901 123.928 136.4 123.26Z" fill="#4D8C32"/>
</g>
<path d="M136.4 123.761C136.199 123.761 136.032 123.661 135.932 123.46C135.831 123.193 135.932 122.925 136.199 122.792C143.988 119.516 150.138 115.07 154.484 109.555C161.771 100.295 165.448 95.649 166.618 93.6768L166.651 93.6099C167.153 92.8077 168.623 90.3341 171.565 88.4622C171.632 88.4287 171.699 88.3619 171.765 88.295C171.933 88.1279 172.2 87.8939 172.601 87.9608C175.509 88.2282 178.417 87.9942 181.158 87.2922C182.262 87.0248 183.331 86.6571 184.401 86.2226C184.468 86.1891 184.501 86.1557 184.501 86.0888C184.501 86.0554 184.501 85.9886 184.468 85.9217C183.833 85.1863 183.131 84.5178 182.362 83.9161C180.49 82.3785 178.317 81.2419 175.91 80.54C175.543 80.4397 175.242 80.1388 175.108 79.7711C174.974 79.4035 175.041 79.0023 175.309 78.6681C176.144 77.5984 176.679 76.395 176.947 75.0914C177.08 74.3226 177.147 73.5203 177.047 72.7181C177.047 72.6846 177.014 72.6512 176.98 72.6178C176.245 71.9492 175.041 71.0801 173.37 70.6122C171.331 70.0773 169.526 70.4116 168.356 70.7793C167.988 70.8796 167.621 70.8461 167.32 70.6456C167.019 70.445 166.818 70.1108 166.818 69.7431C166.685 67.5369 166.016 64.2945 163.676 61.4197C162.874 60.4504 161.905 59.5813 160.835 58.8459C160.768 58.8124 160.735 58.8124 160.701 58.8124C160.668 58.8124 160.601 58.8459 160.601 58.9127C160.099 59.8821 159.698 60.9183 159.397 61.9546C158.662 64.5619 158.796 66.5341 158.93 68.4394C159.03 70.1108 159.164 71.8155 158.662 73.8546C158.194 75.7933 157.024 77.4313 154.684 80.7071C152.98 83.1138 150.105 87.1251 145.358 91.2032C140.745 95.1476 135.43 98.2563 129.581 100.396C129.313 100.496 129.046 100.362 128.946 100.095C128.845 99.8273 128.979 99.5599 129.246 99.4596C134.996 97.3537 140.177 94.3119 144.723 90.4343C149.403 86.4565 152.211 82.4787 153.882 80.1388C156.155 76.9633 157.292 75.3922 157.693 73.6206C158.161 71.7487 158.027 70.1776 157.927 68.5063C157.793 66.5006 157.659 64.4282 158.428 61.6537C158.729 60.5506 159.164 59.481 159.698 58.4447C159.865 58.1439 160.133 57.9099 160.467 57.8431C160.801 57.7762 161.136 57.8096 161.437 58.0102C162.606 58.8124 163.609 59.7484 164.478 60.7846C167.019 63.8599 167.721 67.3029 167.855 69.6762C167.855 69.7431 167.888 69.7765 167.921 69.8099C167.955 69.8433 168.022 69.8433 168.088 69.8433C169.359 69.4088 171.398 69.0411 173.671 69.6762C175.543 70.1776 176.913 71.1804 177.715 71.9158C177.916 72.1164 178.05 72.3838 178.083 72.6512C178.183 73.5537 178.117 74.4228 177.949 75.2919C177.682 76.7293 177.047 78.0664 176.144 79.2697C176.078 79.3366 176.111 79.4035 176.111 79.4369C176.111 79.4703 176.144 79.5372 176.245 79.5706C178.785 80.306 181.092 81.5094 183.064 83.1138C183.866 83.749 184.601 84.4843 185.27 85.2532C185.537 85.554 185.638 85.9551 185.537 86.3228C185.437 86.6905 185.203 86.9914 184.835 87.1585C183.732 87.6265 182.596 87.9942 181.459 88.295C178.585 89.0304 175.61 89.2644 172.568 88.997C172.534 89.0304 172.501 89.0638 172.467 89.0973C172.401 89.1641 172.3 89.2644 172.167 89.3647C169.392 91.1363 168.022 93.4428 167.554 94.2116L167.52 94.2785C166.283 96.2841 162.606 100.964 155.286 110.257C150.874 115.872 144.589 120.418 136.6 123.794C136.533 123.761 136.467 123.761 136.4 123.761Z" fill="#559D2B"/>
<g opacity="0.32">
<path d="M141.447 97.1197C142.016 95.4484 144.957 94.5793 149.403 90.0332C152.244 87.0916 154.283 84.0832 154.785 84.6514C154.985 84.8854 154.851 85.6543 154.584 86.3228C153.916 88.061 152.411 89.2309 148.835 92.4399C143.954 96.8189 141.882 98.9916 141.481 97.9554C141.414 97.8217 141.314 97.5543 141.447 97.1197Z" fill="white"/>
</g>
<g opacity="0.56">
<path d="M55.1053 71.381C68.5451 71.381 79.4402 60.4859 79.4402 47.0461C79.4402 33.6064 68.5451 22.7113 55.1053 22.7113C41.6656 22.7113 30.7705 33.6064 30.7705 47.0461C30.7705 60.4859 41.6656 71.381 55.1053 71.381Z" fill="white"/>
</g>
<g opacity="0.56">
<path d="M119.92 71.381C133.36 71.381 144.255 60.4859 144.255 47.0461C144.255 33.6064 133.36 22.7113 119.92 22.7113C106.48 22.7113 95.5853 33.6064 95.5853 47.0461C95.5853 60.4859 106.48 71.381 119.92 71.381Z" fill="white"/>
<path d="M119.92 71.548C106.416 71.548 95.4182 60.5505 95.4182 47.046C95.4182 33.5415 106.416 22.5441 119.92 22.5441C133.425 22.5441 144.422 33.5415 144.422 47.046C144.422 60.5505 133.425 71.548 119.92 71.548ZM119.92 22.9118C106.616 22.9118 95.7525 33.7421 95.7525 47.0795C95.7525 60.4168 106.583 71.2472 119.92 71.2472C133.258 71.2472 144.088 60.4168 144.088 47.0795C144.088 33.7421 133.224 22.9118 119.92 22.9118Z" fill="#1D1D1B"/>
</g>
<path d="M55.1053 73.0524C40.7651 73.0524 29.0991 61.3864 29.0991 47.0462C29.0991 32.7061 40.7651 21.04 55.1053 21.04C69.4455 21.04 81.0781 32.7061 81.0781 47.0462C81.0781 61.3864 69.412 73.0524 55.1053 73.0524ZM55.1053 24.4162C42.6036 24.4162 32.4418 34.578 32.4418 47.0796C32.4418 59.5813 42.6036 69.7431 55.1053 69.7431C67.607 69.7431 77.7688 59.5813 77.7688 47.0796C77.7688 34.578 67.5736 24.4162 55.1053 24.4162Z" fill="#353535"/>
<path d="M119.92 73.0524C105.58 73.0524 93.9141 61.3864 93.9141 47.0462C93.9141 32.7061 105.58 21.04 119.92 21.04C134.26 21.04 145.926 32.7061 145.926 47.0462C145.926 61.3864 134.26 73.0524 119.92 73.0524ZM119.92 24.4162C107.419 24.4162 97.2568 34.578 97.2568 47.0796C97.2568 59.5813 107.419 69.7431 119.92 69.7431C132.422 69.7431 142.584 59.5813 142.584 47.0796C142.584 34.578 132.389 24.4162 119.92 24.4162Z" fill="#353535"/>
<path d="M78.571 51.7261C81.7132 47.7817 87.7634 46.5783 92.3095 48.7511C93.8137 49.4531 95.1842 50.4224 96.2539 51.6258C96.5547 51.9935 96.5213 52.5283 96.187 52.8292C95.9196 53.0632 95.5519 53.0966 95.2511 52.9629C92.7106 51.7929 90.1702 50.9573 87.4292 51.0241C84.6882 51.0576 82.2146 51.9601 79.6073 53.0632C78.7716 53.3974 78.0028 52.3946 78.571 51.7261Z" fill="#353535"/>
<g opacity="0.32">
<path d="M135.798 65.5981C135.898 65.4978 135.764 65.3307 135.631 65.3976C133.19 67.3029 128.778 70.0773 122.594 70.8462C117.045 71.5481 112.499 70.3113 109.792 69.2417C109.658 69.1748 109.558 69.3754 109.691 69.4756C112.232 70.8127 116.878 72.6512 122.761 71.9492C129.28 71.2138 133.658 67.7374 135.798 65.5981Z" fill="white"/>
</g>
<g opacity="0.32">
<path d="M139.876 32.706C139.776 32.5723 139.575 32.706 139.675 32.8397C141.347 35.447 143.687 40.0934 143.887 46.3108C144.054 51.8931 142.416 56.3055 141.113 58.9128C141.046 59.0465 141.246 59.1802 141.313 59.0465C142.884 56.6397 145.157 52.1605 144.99 46.2774C144.823 39.7257 141.781 35.0459 139.876 32.706Z" fill="white"/>
</g>
<g opacity="0.32">
<path d="M31.3052 50.0881C31.3387 50.2553 31.5726 50.2218 31.5392 50.0547C31.2384 46.9794 31.3052 41.7648 33.9794 36.1491C36.3861 31.1016 39.896 27.9595 42.2359 26.2213C42.3696 26.121 42.2359 25.9539 42.1021 26.0207C39.6285 27.4247 35.517 30.3662 32.9432 35.6811C30.1019 41.5643 30.6701 47.1466 31.3052 50.0881Z" fill="white"/>
</g>
<g opacity="0.32">
<path d="M70.9831 65.5981C71.0834 65.4978 70.9497 65.3307 70.8159 65.3976C68.3758 67.3029 63.9634 70.0773 57.7794 70.8462C52.2306 71.5481 47.6845 70.3113 44.9769 69.2417C44.8432 69.1748 44.7429 69.3754 44.8766 69.4756C47.4171 70.8127 52.0634 72.6512 57.9466 71.9492C64.4648 71.2138 68.8438 67.7374 70.9831 65.5981Z" fill="white"/>
</g>
<g opacity="0.32">
<path d="M81.078 51.0573C80.9443 50.8568 84.7216 48.6506 85.7244 48.7843C86.2592 48.8846 86.5266 49.1854 86.5266 49.1854C86.5935 49.2523 86.6269 49.3191 86.6269 49.3525C86.5935 49.6534 85.1227 49.5197 83.7522 49.9542C82.0809 50.4556 81.1115 51.0907 81.078 51.0573Z" fill="white"/>
</g>
</svg>
