<?xml version="1.0" encoding="UTF-8"?>
<svg id="Calque_36" data-name="Calque 36" xmlns="http://www.w3.org/2000/svg" viewBox="0 0 550.83 500">
  <defs>
    <style>
      .cls-1 {
        stroke: #559d2b;
        stroke-linecap: round;
        stroke-linejoin: round;
        stroke-width: 3px;
      }

      .cls-1, .cls-2 {
        fill: #5faf31;
      }

      .cls-3, .cls-4 {
        opacity: .22;
      }

      .cls-5 {
        fill: #4d8c32;
        opacity: .21;
      }

      .cls-5, .cls-2, .cls-4, .cls-6 {
        stroke-width: 0px;
      }

      .cls-2 {
        opacity: .72;
      }

      .cls-4, .cls-6 {
        fill: #fff;
      }
    </style>
  </defs>
  <g>
    <g>
      <path class="cls-2" d="M98.93,262.55c.46-10.14,24.29-7.36,42.82-30.27,18.93-23.4,11.4-47.72,34.94-63.75,7.01-4.77,13.54-6.61,17.27-7.63,26.6-7.26,35.28,9.23,61.04,4.72,13.62-2.38,14.96-7.65,42.17-14.36,7.7-1.9,11.83-2.89,17.67-3.21,2.02-.11,25.95-1.18,40.56,9.94,21.35,16.24,5.07,44.98,24.1,67.97,19.97,24.12,55.46,13.72,57.03,22.39,2.94,16.22-117.58,73.96-246.98,52.71-44.74-7.35-91.26-24.26-90.61-38.5Z"/>
      <path class="cls-1" d="M529.46,236.84c-5.19-30.07-31.18-50.69-58.06-46.05-19.85,3.43-34.61,19.67-38.89,40.05-23.77,10.89-39.6,25.25-41.88,27.35-1.46,1.35-2.84,2.64-4.14,3.87-5.06-1.21-13.03-2.59-21.16-8.69,0,0-8.56-6.42-13.59-16.69-14.69-29.95,13.84-83.07,26.04-105.8,1.36-2.54,3.48-6.39,5.31-10.43,10.43-5.38,18.36-14.42,21.33-25.91,6-23.16-10.41-47.45-36.66-54.25-26.25-6.8-52.39,6.47-58.39,29.63-3.39,13.09.38,26.53,9.03,36.98-.42.36-.84.7-1.26,1.08-10.63,9.54-15.55,20.18-17.67,24.9-28.45,63.19-29.32,82.53-41.66,103.12-9.83-21.5-28.43-46.35-28.43-46.35-23.56-31.48-32.46-45.79-39.14-57.57-2.23-3.94-4.2-7.56-5.88-10.76,4.39-9.78,5.18-20.72,1.35-30.94-8.4-22.4-35.79-32.85-61.18-23.32-25.39,9.52-39.16,35.4-30.75,57.81,5.38,14.35,18.56,23.78,34.02,26.21,32.59,36.82,63.47,80.33,50,104.3-5.4,9.62-16.65,13.78-26.28,16.22-6.03-4.28-12.9-8.99-20.65-14.31-7.43-5.09-13.34-9.09-18.3-11.96-5.17-11.32-14.28-19.88-26.02-22.92-23.09-5.98-47.61,11.59-54.77,39.25-7.16,27.66,5.74,54.92,28.83,60.9,1.99.51,3.98.84,5.98,1.02.02,0,.05.01.07.02.89.18,2.48.19,4.46.1.26,0,.52-.02.78-.04,6.72-.37,17.17-1.71,21.17-2.02,0,0,5.68-.42,15.66,1.61,19.93,4.05,31.84,36.66,41.27,56.02,0,0,0,0,0,0,.44,1.19,1.21,2.64,2.52,4.93.61,1.11,1.2,2.15,1.79,3.1,0,0,0,.01,0,.02,9.06,15.56,18.97,27.51,23.07,31.92,6.11,6.57,40.91,41.17,94.37,40.26,9.58-.16,44.91-1.27,74.3-26.51,0,0,23.33-20.03,34.14-49.9,2.92-8.08,3.71-11.33,3.71-11.33,2.31-8.42,2.01-11.28,6.33-18.38,2.61-4.29,7.93-9.48,18.47-19.68,13.56-13.12,20.35-19.69,30.12-27.31,9.93-7.75,11.43-7.73,18.57-13.6,9.69,6.18,21.16,8.92,32.8,6.91,26.87-4.64,44.45-32.77,39.26-62.84Z"/>
    </g>
    <path class="cls-4" d="M352.89,332.4c7.91,36.25-32.38,92.32-85.15,93.97-46.48,1.45-87.14-39.81-89.55-78.31-.3-4.88-.83-15.41,4.82-26.51,22.58-44.33,120.51-51.93,157.83-10.84,3.42,3.77,9.68,10.82,12.05,21.69Z"/>
    <g class="cls-3">
      <path class="cls-6" d="M105.21,105.31c-2.26-.63-4.49-2.97-4.12-5.74.38-2.79,3.2-4.38,5.56-4.43,3.05-.07,6.06,2.43,6.05,5.17-.01,3.2-4.11,5.93-7.49,4.99Z"/>
      <path class="cls-6" d="M113.44,91.44c.36,1.9,2.51,2.85,2.6,2.9,5.12,2.18,10.39-6.97,19.99-11.03,13.53-5.72,27.19,2.25,27.71.6.45-1.45-9.76-8.66-22.29-8.43-14.49.27-29.05,10.45-28.01,15.96Z"/>
    </g>
    <g class="cls-3">
      <path class="cls-6" d="M323.04,67.67c-1.82-1.47-2.94-4.51-1.5-6.9,1.46-2.41,4.68-2.74,6.86-1.86,2.83,1.15,4.6,4.63,3.5,7.15-1.28,2.93-6.13,3.81-8.86,1.61Z"/>
      <path class="cls-6" d="M336.11,58.21c-.43,1.89,1.17,3.62,1.24,3.69,3.83,4.04,12.3-2.27,22.73-2.18,14.69.12,24.06,12.86,25.19,11.56.99-1.15-5.52-11.83-17.1-16.59-13.4-5.51-30.81-1.95-32.05,3.52Z"/>
    </g>
    <g class="cls-3">
      <path class="cls-6" d="M48.71,296.59c-1.94,1.31-5.18,1.49-7.04-.6-1.87-2.1-1.25-5.28.24-7.1,1.93-2.36,5.78-3.03,7.86-1.24,2.42,2.08,1.84,6.98-1.07,8.94Z"/>
      <path class="cls-6" d="M43.52,281.33c1.68.96,3.8-.05,3.89-.1,4.98-2.48,1.45-12.43,4.6-22.36,4.44-14,19.37-19.22,18.46-20.68-.8-1.28-12.93,1.8-20.89,11.47-9.21,11.19-10.93,28.88-6.06,31.67Z"/>
    </g>
    <g class="cls-3">
      <path class="cls-6" d="M474.12,210.89c-.29-2.33,1.01-5.29,3.7-6.01,2.72-.73,5.27,1.27,6.23,3.42,1.24,2.79.1,6.53-2.44,7.58-2.95,1.22-7.06-1.5-7.5-4.98Z"/>
      <path class="cls-6" d="M490.09,213.13c-1.62,1.07-1.67,3.41-1.67,3.52-.04,5.56,10.44,6.9,17.89,14.19,10.5,10.27,8.42,25.96,10.14,25.8,1.51-.14,4.23-12.35-.82-23.82-5.84-13.27-20.85-22.77-25.53-19.68Z"/>
    </g>
  </g>
  <path class="cls-5" d="M326.58,108.52c.53-.67,9.01,6.29,24.13,9.63,14.5,3.2,25.18.88,25.26,1.66.1.87-12.86,5.12-26.77,1.99-14.1-3.17-23.2-12.55-22.62-13.28Z"/>
  <path class="cls-5" d="M432.98,236.24c.85.05-.11,10.99,5.67,25.36,5.54,13.77,13.49,21.28,12.89,21.79-.66.57-11.48-7.72-16.76-20.97-5.35-13.43-2.73-26.23-1.81-26.17Z"/>
  <path class="cls-5" d="M132.95,148.32c-.03-.85,10.95-1,24.65-8.2,13.14-6.9,19.81-15.57,20.38-15.02.63.6-6.53,12.2-19.18,18.79-12.82,6.67-25.82,5.36-25.86,4.44Z"/>
  <path class="cls-5" d="M96.15,297.54c-.63-.58,7.01-8.47,11.57-23.27,4.37-14.19,2.93-25.02,3.72-25.04.87-.02,4.05,13.23-.2,26.85-4.3,13.79-14.4,22.09-15.08,21.47Z"/>
</svg>