<svg width="60" height="60" viewBox="0 0 60 60" fill="none" xmlns="http://www.w3.org/2000/svg">
<path d="M36 9.01765C36 6.39859 32.8791 5.0371 30.9594 6.81865L19.3428 17.5988C19.0654 17.8563 18.7009 17.9993 18.3225 17.9993H10.5C8.01471 17.9993 6 20.014 6 22.4993V37.4994C6 39.9846 8.01471 41.9994 10.5 41.9994H18.3225C18.7009 41.9994 19.0654 42.1422 19.3428 42.3999L30.9594 53.1798C32.8791 54.9615 36 53.6001 36 50.9808V9.01765Z" fill="#ECA438"/>
<path d="M38.5272 22.9331C39.2302 22.2301 40.3697 22.2301 41.0727 22.9331L45.2 27.0602L49.3272 22.9331C50.0302 22.2301 51.1697 22.2301 51.8727 22.9331C52.5756 23.636 52.5756 24.7757 51.8727 25.4786L47.7456 29.6059L51.8727 33.7332C52.5756 34.4361 52.5756 35.5757 51.8727 36.2786C51.1697 36.9816 50.0302 36.9816 49.3272 36.2786L45.2 32.1516L41.0727 36.2786C40.3697 36.9816 39.2302 36.9816 38.5272 36.2786C37.8243 35.5757 37.8243 34.4361 38.5272 33.7332L42.6543 29.6059L38.5272 25.4786C37.8243 24.7757 37.8243 23.636 38.5272 22.9331Z" fill="#ECA438"/>
</svg>
