<svg width="60" height="54" viewBox="0 0 60 54" fill="none" xmlns="http://www.w3.org/2000/svg">
<path d="M39 3.75732C39 0.521459 35.1765 -1.19523 32.7585 0.954809L19.2838 12.9346C18.872 13.3008 18.34 13.5031 17.7889 13.5031H6.75001C3.02208 13.5031 0 16.5252 0 20.2531V33.7469C0 37.4747 3.02208 40.4969 6.75001 40.4969H17.7887C18.3399 40.4969 18.8719 40.6991 19.2838 41.0654L32.7582 53.0465C35.1765 55.1969 39 53.4803 39 50.2442V3.75732Z" fill="#CB664D"/>
<path d="M42.6591 18.6663C43.5378 17.7877 44.9623 17.7877 45.841 18.6663L51.0001 23.8252L56.1592 18.6663C57.0379 17.7877 58.4623 17.7877 59.341 18.6663C60.2197 19.545 60.2197 20.9696 59.341 21.8482L54.1822 27.0073L59.341 32.1664C60.2197 33.0451 60.2197 34.4695 59.341 35.3482C58.4623 36.2269 57.0379 36.2269 56.1592 35.3482L51.0001 30.1894L45.841 35.3482C44.9623 36.2269 43.5378 36.2269 42.6591 35.3482C41.7804 34.4695 41.7804 33.0451 42.6591 32.1664L47.818 27.0073L42.6591 21.8482C41.7804 20.9696 41.7804 19.545 42.6591 18.6663Z" fill="#CB664D"/>
</svg>
