<svg width="60" height="54" viewBox="0 0 60 54" fill="none" xmlns="http://www.w3.org/2000/svg">
<path d="M39 3.75732C39 0.521459 35.1765 -1.19523 32.7585 0.954809L19.2838 12.9346C18.872 13.3008 18.34 13.5031 17.7889 13.5031H6.75001C3.02208 13.5031 0 16.5252 0 20.2531V33.7469C0 37.4747 3.02208 40.4969 6.75001 40.4969H17.7887C18.3399 40.4969 18.8719 40.6991 19.2838 41.0654L32.7582 53.0465C35.1765 55.1969 39 53.4803 39 50.2442V3.75732Z" fill="#488F19"/>
<path d="M42.6593 18.6663C43.538 17.7877 44.9624 17.7877 45.8411 18.6663L51.0002 23.8252L56.1593 18.6663C57.038 17.7877 58.4624 17.7877 59.3411 18.6663C60.2198 19.545 60.2198 20.9696 59.3411 21.8482L54.1823 27.0073L59.3411 32.1664C60.2198 33.0451 60.2198 34.4695 59.3411 35.3482C58.4624 36.2269 57.038 36.2269 56.1593 35.3482L51.0002 30.1894L45.8411 35.3482C44.9624 36.2269 43.538 36.2269 42.6593 35.3482C41.7806 34.4695 41.7806 33.0451 42.6593 32.1664L47.8181 27.0073L42.6593 21.8482C41.7806 20.9696 41.7806 19.545 42.6593 18.6663Z" fill="#488F19"/>
</svg>
