<svg width="61" height="55" viewBox="0 0 61 55" fill="none" xmlns="http://www.w3.org/2000/svg">
<path d="M39.3335 4.7168C39.3335 1.48093 35.51 -0.235761 33.092 1.91428L19.6173 13.8941C19.2055 14.2603 18.6735 14.4626 18.1223 14.4626H7.0835C3.35558 14.4626 0.333496 17.4847 0.333496 21.2126V34.7063C0.333496 38.4341 3.35558 41.4563 7.0835 41.4563H18.1222C18.6734 41.4563 19.2054 41.6585 19.6173 42.0248L33.0917 54.006C35.51 56.1564 39.3335 54.4398 39.3335 51.2037V4.7168Z" fill="#ECA438"/>
<path d="M42.9928 19.6258C43.8715 18.7471 45.2959 18.7471 46.1746 19.6258L51.3337 24.7847L56.4928 19.6258C57.3715 18.7471 58.7959 18.7471 59.6746 19.6258C60.5533 20.5045 60.5533 21.9291 59.6746 22.8077L54.5158 27.9668L59.6746 33.1259C60.5533 34.0046 60.5533 35.429 59.6746 36.3077C58.7959 37.1864 57.3715 37.1864 56.4928 36.3077L51.3337 31.1489L46.1746 36.3077C45.2959 37.1864 43.8715 37.1864 42.9928 36.3077C42.1141 35.429 42.1141 34.0046 42.9928 33.1259L48.1516 27.9668L42.9928 22.8077C42.1141 21.9291 42.1141 20.5045 42.9928 19.6258Z" fill="#ECA438"/>
</svg>
