<?xml version="1.0" encoding="UTF-8"?>
<svg id="pelle" xmlns="http://www.w3.org/2000/svg" viewBox="0 0 500 500">
  <defs>
    <style>
      .cls-1 {
        fill: #a06e2e;
      }

      .cls-1, .cls-2, .cls-3, .cls-4, .cls-5, .cls-6, .cls-7, .cls-8 {
        stroke-width: 0px;
      }

      .cls-9 {
        opacity: .5;
      }

      .cls-2 {
        fill: #9a9b9a;
      }

      .cls-3 {
        fill: #5f5e5c;
      }

      .cls-4 {
        fill: #6a6967;
      }

      .cls-5 {
        fill: #cb8f42;
      }

      .cls-6 {
        fill: #fff;
      }

      .cls-7 {
        fill: #656462;
      }

      .cls-10 {
        opacity: .3;
      }

      .cls-8 {
        fill: #a17233;
      }
    </style>
  </defs>
  <g id="manche">
    <rect class="cls-5" x="232.63" y="55.28" width="22.29" height="340.57" rx="6.43" ry="6.43"/>
    <path class="cls-8" d="M248.48,396.35h-9.43c-3.82,0-6.93-3.11-6.93-6.93V61.71c0-3.82,3.11-6.93,6.93-6.93h9.43c3.82,0,6.93,3.11,6.93,6.93v327.71c0,3.82-3.11,6.93-6.93,6.93ZM239.06,55.78c-3.27,0-5.93,2.66-5.93,5.93v327.71c0,3.27,2.66,5.93,5.93,5.93h9.43c3.27,0,5.93-2.66,5.93-5.93V61.71c0-3.27-2.66-5.93-5.93-5.93h-9.43Z"/>
  </g>
  <path class="cls-8" d="M238.66,311.51c-.28,0-.5-.22-.5-.5v-177.74c0-.28.22-.5.5-.5s.5.22.5.5v177.74c0,.28-.22.5-.5.5Z"/>
  <path class="cls-8" d="M243.77,325.82c-.28,0-.5-.22-.5-.5v-121.9c0-.28.22-.5.5-.5s.5.22.5.5v121.9c0,.28-.22.5-.5.5Z"/>
  <g class="cls-9">
    <path class="cls-1" d="M249.81,368.07s1.27-.26,2.04-.3c1.5-.08,2.45,1.08,3.06.6.84-.65-.33-3.29-.26-8.17.02-1.11.08-1.16.19-2.95.28-4.53.11-8,.06-9.15-.32-8.81-.42-17.63-.41-26.45.01-15.12.16-25.22.4-55.81.35-43.61-.82-35.86-.08-55.04.57-14.78.49-27.46.34-52.83-.02-2.82-.12-2.27-.26-5.54-1.56-35.48.38-53.74,0-72.13-.24-11.46-1.19-14.01,0-19.05.11-.47.31-1.25.05-2.1-1.77-5.83-21.64-4.42-22.39,0-.33,1.98,3.2,4.39,3.83,4.82,4.95,3.38,8.78.63,11.87,3.33,2.99,2.61,2.94,8.25,2.94,10.59-.15,43.3,1.75,86.6,1.4,129.9-.19,23.96,1.37,112.78-2.17,135.64-.73,4.74-2.26,13.98-7.15,16.18-3.05,1.37-5.99,3.09-9.06,4.39-.44.19-1.71.71-1.98,1.89-.17.73.09,1.51.37,1.97,1.1,1.79,4.4.59,8.12.08,2.12-.29,5.2-.48,9.06.15Z"/>
  </g>
  <g id="manche-2" data-name="manche">
    <path class="cls-8" d="M248.48,396.35h-9.43c-3.82,0-6.93-3.11-6.93-6.93V61.71c0-3.82,3.11-6.93,6.93-6.93h9.43c3.82,0,6.93,3.11,6.93,6.93v327.71c0,3.82-3.11,6.93-6.93,6.93ZM239.06,55.78c-3.27,0-5.93,2.66-5.93,5.93v327.71c0,3.27,2.66,5.93,5.93,5.93h9.43c3.27,0,5.93-2.66,5.93-5.93V61.71c0-3.27-2.66-5.93-5.93-5.93h-9.43Z"/>
  </g>
  <g id="Calque_7" data-name="Calque 7">
    <g>
      <path class="cls-2" d="M294.87,391.93c0-4.05-3.03-7.33-6.76-7.33h-27.96v-10.09c0-3.47-2.81-6.29-6.29-6.29h-19.43c-3.47,0-6.29,2.81-6.29,6.29v10.09h-27.96c-3.73,0-6.76,3.28-6.76,7.33,0,16.35-.58,32.72,0,49.06.9,25.3,33.43,45.6,45.33,52.2,2.69,1.49,5.94,1.54,8.69.15,12.61-6.41,48.06-26.63,47.43-51.04-.43-16.78,0-33.58,0-50.37Z"/>
      <path class="cls-4" d="M243.22,494.85c-1.63,0-3.25-.41-4.72-1.22-13.41-7.43-44.69-27.44-45.59-52.62-.39-10.91-.26-22-.13-32.73.06-5.36.13-10.9.13-16.35,0-4.32,3.26-7.83,7.26-7.83h27.46v-9.59c0-3.74,3.04-6.79,6.79-6.79h19.43c3.74,0,6.79,3.04,6.79,6.79v9.59h27.46c4,0,7.26,3.51,7.26,7.83,0,5.6-.05,11.29-.1,16.79-.09,11-.19,22.38.1,33.56.62,24.27-33.15,44.1-47.71,51.5-1.4.71-2.92,1.07-4.44,1.07ZM200.18,385.1c-3.45,0-6.26,3.06-6.26,6.83,0,5.45-.07,11-.13,16.36-.13,10.72-.26,21.8.13,32.68.88,24.67,31.81,44.43,45.07,51.78,2.54,1.41,5.62,1.46,8.22.14,11.22-5.71,47.78-26.22,47.16-50.58-.29-11.2-.19-22.58-.1-33.59.05-5.5.1-11.19.1-16.79,0-3.77-2.81-6.83-6.26-6.83h-28.46v-10.59c0-3.19-2.6-5.79-5.79-5.79h-19.43c-3.19,0-5.79,2.59-5.79,5.79v10.59h-28.46Z"/>
    </g>
    <g class="cls-10">
      <path class="cls-3" d="M241.85,473.3c.32,1.79,2.85,1.81,3.2.03.9-4.63,1.91-10.21,2.89-16.57,2.85-18.32,4.23-27.59,2.2-32.66-2.67-6.66-10.06-6.5-12.78.38-1.98,5.01-.76,14.06,1.78,31.94.92,6.47,1.86,12.16,2.7,16.88Z"/>
    </g>
    <g class="cls-10">
      <path class="cls-7" d="M280.54,392.42c-.64-.25-.8-.18-6.73-.06-6.21.13-11.29.17-14.7.18.45-1.81.54-3.33.51-4.48-.04-1.85-.39-2.89.24-3.5.72-.7,2.15-.19,3.06-.03,2.91.5,5.9.09,8.85.26,10.56.58,13.89-2.42,18.81.42.84.49,3.24,1.91,4.1,4.55.54,1.65.22,3.01-.02,4.56-.5,3.17-.17,6.41-.34,9.62-.32,5.92-.2,12.15.07,20.94.29,9.54.91,12.25.1,18.81-.92,7.43-2.65,11.45-3.11,12.49-2.18,4.9-4.88,7.94-8.04,11.42-5.44,6.02-11.26,10.05-22.89,18.13-1.43,1-3.79,2.61-7.06,4.43-1.86,1.03-5.52,3.06-7.77,3.76-7.42,2.32-15.92-4.73-32.92-18.83-.4-.34-3.64-3.04-7.23-7.23-1.54-1.79-3.14-3.65-2.89-3.91.46-.5,7.1,5.95,15.91,11.91,10.95,7.4,17.17,11.58,25.02,11.23,6.57-.29,12.21-4.79,23.49-13.79,9.39-7.49,14.15-11.38,17.36-18.38,1.09-2.38,2.4-5.97,2.81-20.94.54-19.9,1.05-38.55-6.63-41.56Z"/>
    </g>
    <g class="cls-10">
      <path class="cls-6" d="M236.74,71.26c-1.47,1.13-1.43,3.75-1.28,8.94.14,5.01.76,5.8,1.28,6.21,1.21.94,3.2.84,4.36-.17.63-.55,1.08-1.42,1.14-6,.06-5.44.07-8.18-1.37-9.17-1.18-.81-2.99-.68-4.13.19Z"/>
    </g>
    <g class="cls-10">
      <path class="cls-6" d="M237.41,90.79c-1.04.34-1.01,1.12-.91,2.67.1,1.5.54,1.73.91,1.85.86.28,2.26.25,3.09-.05.45-.16.77-.42.8-1.79.04-1.62.05-2.44-.97-2.74-.84-.24-2.12-.2-2.92.06Z"/>
    </g>
  </g>
  <g class="cls-10">
    <path class="cls-6" d="M231.35,375.54c-.55.97-.53,2.33.13,3.32,1,1.51,3.34,1.94,4.98.89,1.78-1.14,2.19-3.65,1.25-4.95-1.28-1.77-5.17-1.36-6.36.73Z"/>
  </g>
  <g class="cls-10">
    <path class="cls-7" d="M240.92,368.62c0,.09.17.17,4,.73,6.44.95,6.47.94,7.28,1.25,5.53,2.11,4.52,7.75,4.6,8.26.21,1.44-.1,3.16-.6,10.43-.26,3.8-.25,5.58.34,5.76.48.14,1.16-.82,1.44-1.23,1.05-1.53,1.36-3.05,1.42-3.41.72-4.67.26-10.86-.02-15.11-.2-3.06-.23-4.31-1.28-5.44-.95-1.02-2.24-1.49-5.62-1.81-5.78-.54-11.58.05-11.57.56Z"/>
  </g>
  <g id="poignée">
    <path class="cls-4" d="M253.86,396.35h-19.43c-3.74,0-6.79-3.04-6.79-6.79v-15.1c0-3.74,3.04-6.79,6.79-6.79h19.43c3.74,0,6.79,3.04,6.79,6.79v15.1c0,3.74-3.04,6.79-6.79,6.79ZM234.43,368.68c-3.19,0-5.79,2.6-5.79,5.79v15.1c0,3.19,2.6,5.79,5.79,5.79h19.43c3.19,0,5.79-2.6,5.79-5.79v-15.1c0-3.19-2.6-5.79-5.79-5.79h-19.43Z"/>
  </g>
  <g class="cls-10">
    <path class="cls-6" d="M202.79,410.45c-2.8,1.45-2.49,5.58-2.43,22.23.03,7.87-.02,12.97,2.53,14.05.12.05.99.4,1.87.05,2.54-1,2.24-6.62,2.37-14.05.27-15.02,2.04-20.94-.95-22.45-1.52-.77-3.28.11-3.39.17Z"/>
  </g>
  <g class="cls-10">
    <path class="cls-6" d="M200.8,397.59c-.68,1.37-.66,3.3.16,4.7,1.24,2.14,4.13,2.75,6.17,1.27,2.2-1.61,2.71-5.18,1.55-7.01-1.59-2.5-6.41-1.93-7.87,1.04Z"/>
  </g>
</svg>