<svg width="50" height="50" viewBox="0 0 50 50" fill="none" xmlns="http://www.w3.org/2000/svg">
<path d="M20.7723 0C14.2167 0 8.90239 5.31432 8.90239 11.8699C8.90239 18.4254 14.2167 23.7397 20.7723 23.7397C27.3277 23.7397 32.6421 18.4254 32.6421 11.8699C32.6421 5.31432 27.3277 0 20.7723 0ZM5.96083 26.7072C2.68007 26.7072 0 29.339 0 32.6421C0 37.6607 2.47133 41.4445 6.33551 43.9084C10.1397 46.334 15.2684 47.4795 20.7723 47.4795C21.9914 47.4795 23.1922 47.4234 24.3644 47.3094C22.117 44.5129 20.7723 40.9602 20.7723 37.0933C20.7723 33.1478 22.1724 29.529 24.503 26.7072H5.96083ZM25.6244 35.3719C28.8527 34.5472 30.7696 31.2269 29.8696 28.0188L29.4061 26.3665C30.1601 25.787 30.9774 25.2905 31.845 24.8902L32.8463 25.9526C35.1873 28.4366 39.1364 28.4387 41.4801 25.957L42.4436 24.9368C43.3274 25.3537 44.1577 25.871 44.9209 26.4742L44.5464 27.7274C43.5692 30.9978 45.5455 34.4167 48.8673 35.2022L49.903 35.447C49.9671 35.9865 50 36.5357 50 37.093C50 37.5559 49.9771 38.0132 49.9329 38.464L48.5661 38.813C45.3378 39.6379 43.4208 42.9582 44.3209 46.1663L44.7841 47.8183C44.0301 48.3979 43.2131 48.8946 42.3451 49.2949L41.3442 48.2326C39.0032 45.7485 35.0541 45.7465 32.7104 48.2281L31.7459 49.2492C30.8622 48.8323 30.0322 48.3154 29.269 47.7124L29.6441 46.4578C30.6213 43.1873 28.6449 39.7682 25.3232 38.983L24.2857 38.7376C24.2219 38.1987 24.189 37.6497 24.189 37.093C24.189 36.6298 24.2115 36.1722 24.2561 35.7215L25.6244 35.3719ZM40.062 37.093C40.062 35.4541 38.7334 34.1256 37.0945 34.1256C35.4556 34.1256 34.127 35.4541 34.127 37.093C34.127 38.7317 35.4556 40.0605 37.0945 40.0605C38.7334 40.0605 40.062 38.7317 40.062 37.093Z" fill="#F7FAF7"/>
</svg>
