<?xml version="1.0" encoding="UTF-8"?>
<svg id="Calque_1" data-name="Calque 1" xmlns="http://www.w3.org/2000/svg" viewBox="0 0 500 500">
  <defs>
    <style>
      .cls-1 {
        fill: #986c37;
        opacity: .5;
      }

      .cls-1, .cls-2, .cls-3, .cls-4, .cls-5 {
        stroke-width: 0px;
      }

      .cls-6 {
        fill: #278641;
      }

      .cls-6, .cls-7, .cls-8, .cls-9 {
        stroke-miterlimit: 10;
      }

      .cls-6, .cls-8 {
        stroke: #20783a;
      }

      .cls-2 {
        fill: #fff;
      }

      .cls-2, .cls-4 {
        opacity: .3;
      }

      .cls-7, .cls-10, .cls-8, .cls-11, .cls-12 {
        fill: none;
      }

      .cls-7, .cls-11, .cls-9 {
        stroke: #986c37;
      }

      .cls-3 {
        opacity: .6;
      }

      .cls-3, .cls-4, .cls-5 {
        fill: #105f2d;
      }

      .cls-10 {
        stroke-width: .5px;
      }

      .cls-10, .cls-11, .cls-12 {
        stroke-linecap: round;
        stroke-linejoin: round;
      }

      .cls-10, .cls-12 {
        stroke: #105f2d;
      }

      .cls-9 {
        fill: #c58c4b;
      }
    </style>
  </defs>
  <path class="cls-5" d="m284.28,457.64c.53,1.26,3.79,1.92,5.66.68,2.54-1.68,2.53-6.85,2.56-13.44,0-1.94-.31-4.77,1.15-5.63.48-.28,1.11-.33,1.62-.17,1.28.39,1.72,2.04,2.21,3.28,1.18,2.95,3.68,6.05,4.68,5.84,1.76-.37,3.83-13.72-2.13-16.38-3-1.34-7.54.26-9.45,3.14-1.22,1.84-.39,2.74-1.02,6.26-.82,4.64-2.6,11.21-4.6,14.26-.38.58-.99,1.44-.68,2.16Z"/>
  <path class="cls-5" d="m304.51,448.29c1.83-3.08.19-5.26,1.47-8.8.53-1.47,1.99-4.34,3.83-4.43,3.3-.16,5.77,9.05,5.49,9.19-.23.11-2.36-5.56-4.94-5.3-.37.04-.63.19-.73.25-2.48,1.45-.07,7.78-2.16,15.31-.45,1.63-1.12,3.33-2.6,3.99-.94.42-2.13.39-3.02.09-.66-.22-.91-.51-1.02-.66-.34-.47-.15-1.05-.3-1.43-.71-1.85,1.9-5.71,2.03-5.9,1.08-1.57,1.3-1.23,1.95-2.31Z"/>
  <path class="cls-5" d="m247.46,456.36c-.12.14-.63.68-.52,1.25.18.94,1.92,1.61,3.35,1.47,2.19-.21,3.48-2.3,3.76-2.77.88-1.43,1.03-2.79,1.16-4.95.47-7.45.02-10.2,1.8-11.56.17-.13.91-.7,1.82-.6,1.62.18,2.73,2.4,2.95,2.86.6,1.21.47,1.77,1.07,2.12.76.45,2.06.19,2.66-.51,1.34-1.56-.08-6.06-3.04-8.26-.23-.17-3.79-2.72-7.15-1.36-6.17,2.5-5.05,19.12-7.87,22.3Z"/>
  <path class="cls-5" d="m266.22,454.45c-.12.07-.7.35-.84.89-.11.42.14.63.38,1.7.16.72.1.8.24,1.02.4.6,1.36.63,1.89.64,1.76.03,3.89-.8,5.15-2.64.04-.06.2-.28.37-.61.39-.79.61-1.89.76-4.33.46-7.45.02-10.2,1.74-11.56.14-.11.83-.58,1.76-.6,1.31-.02,2.53.89,3.21,1.84.86,1.21.58,2.1,1.45,2.6.52.3,1.36.4,1.81.04,1.21-.99.18-5.87-2.94-8.26-.18-.14-3.47-2.58-6.91-1.36-5.77,2.04-5.87,19.39-8.05,20.64Z"/>
  <path class="cls-5" d="m314.83,455.73c.16.3.38.59.38.59.19.25,1.06,1.4,2.38,1.57.98.13,1.77-.33,2.05-.49,1.72-1,2.47-3.43,2.95-6.66.98-6.67-.17-10.44,1.8-11.56.09-.05.85-.47,1.67-.26.33.08,1,.35,2.98,3.28.59.88.74,1.17,1.19,1.37.84.38,2.1.14,2.66-.51,1.34-1.56-.08-6.06-3.04-8.26-.23-.17-3.79-2.72-7.15-1.36-8.74,3.55-8.78,20.56-7.87,22.3Z"/>
  <path class="cls-5" d="m229.77,456.36c-.44.39-1.4,1.09-1.23,1.66.28.96,3.73,1.45,5.79,0,1.7-1.2,1.98-3.39,2.3-6.43.46-4.36-.22-8.01,1.15-10.72.41-.81.89-1.31,1.49-1.49,1.04-.3,2.19.44,2.29.5.24.16.42.33.56.47,1.23,1.29.97,2.67,1.83,3.74.73.91,2.16,1.48,2.68,1.11,1.01-.73-.46-7.61-5.23-9.53-.37-.15-3.77-1.46-6.38.3-5.07,3.4-.14,15.96-5.23,20.38Z"/>
  <path class="cls-5" d="m212.19,457.43c-.17.26-1.02-.14-1.28.21-.16.22,0,.64.19.9.75.97,3.28.76,4.74-.52.48-.42.74-.86.81-.98,1.55-2.7,1.56-7.23,2-11.83.25-2.6.57-4.46,1.94-5.34.2-.13.81-.51,1.55-.42,1.25.15,2.01,1.53,2.72,2.87,3.08,5.79,3.25,6.24,3.45,6.21,1.08-.15,2.21-15.04-2.13-16.38-3.08-.95-7.24,4.88-10.47,9.4-6.05,8.48-5.02,13.51-4.6,14.26.18.32,1.28,1.28,1.06,1.62Z"/>
  <path class="cls-5" d="m198.26,447.89c1.83-3.02.19-5.15,1.47-8.62.53-1.44,1.99-4.25,3.83-4.34,3.31-.16,6.2,8.57,5.49,9-.57.34-3.32-4.9-5.11-4.31-1.39.46-1.35,4.15-3.15,14.05-.22,1.2-.6,3.16-2.17,4.21-1.55,1.04-3.91.96-4.17.34-.09-.2.1-.35.13-.89.04-.69-.22-1.2-.3-1.4-.71-1.82,1.9-5.59,2.03-5.78,1.08-1.54,1.3-1.2,1.95-2.27Z"/>
  <path class="cls-5" d="m166.95,442.89s.75-3.16,2.78-4.95c.22-.19.46-.34.46-.34s.49-.3.98-.41c.87-.19,2.13.82,2.81,1.98.66,1.13.87,2.59.51,2.77-.48.23-1.45-2.1-2.77-2.03-1.08.06-1.83,1.7-2.29,2.88-2.9,7.36-1.11,12.93-4.09,15.11-.25.18-1.64,1.2-2.64.72-.59-.28-.81-.96-.89-1.23-1.12-3.63,3.55-9.73,5.14-14.5Z"/>
  <path class="cls-5" d="m176.08,458.06c-3.81-2.89-.91-18.58,7.47-21.36,4.52-1.5,10.83.66,11.35,3.11.23,1.08-.64,2.51-1.72,2.81-1.94.54-3.3-2.85-5.05-2.64-3.68.45-2.21,16.1-8.53,18.38-1.11.4-2.56.43-3.51-.3Z"/>
  <g id="Calque_2" data-name="Calque 2">
    <rect id="manche" class="cls-9" x="237.81" y="79.71" width="22.29" height="340.57" rx="6.43" ry="6.43"/>
    <path class="cls-11" d="m243.85,157.71v177.73"/>
    <path class="cls-11" d="m248.96,227.85v121.9"/>
    <g id="Calque_4" data-name="Calque 4">
      <path class="cls-1" d="m255,392.62s1.27-.22,2.04-.26c1.5-.07,2.45.91,3.06.51.84-.55-.33-2.78-.26-6.89.02-.94.08-.98.19-2.49.28-3.83.11-6.75.06-7.72-.32-7.44-.42-14.88-.41-22.33.01-12.77.16-21.29.4-47.12.35-36.82-.82-30.27-.08-46.47.57-12.47.49-23.18.34-44.6-.02-2.38-.12-1.92-.26-4.68-1.56-29.95.38-45.37,0-60.89-.24-9.67-1.19-11.83,0-16.09.11-.4.31-1.05.05-1.77-1.77-4.92-21.64-3.74-22.39,0-.33,1.67,3.2,3.71,3.83,4.07,4.95,2.85,8.78.53,11.87,2.81,2.99,2.2,2.94,6.96,2.94,8.94-.15,36.56,1.75,73.11,1.4,109.66-.19,20.23,1.37,95.21-2.17,114.51-.73,4-2.26,11.8-7.15,13.66-3.05,1.16-5.99,2.61-9.06,3.7-.44.16-1.71.6-1.98,1.6-.17.61.09,1.28.37,1.66,1.1,1.51,4.4.5,8.12.06,2.12-.25,5.2-.4,9.06.13Z"/>
    </g>
    <rect id="manche-2" data-name="manche" class="cls-7" x="237.81" y="79.71" width="22.29" height="340.57" rx="6.43" ry="6.43"/>
  </g>
  <path id="tete" class="cls-6" d="m303.97,458.15c-.83.26-1.62.06-1.84,0-5.82-1.63-1.06-18.94-7.37-20.85-.35-.11-1.09-.33-1.84-.09-4.91,1.55,1.18,18.8-4.5,20.94-1.23.46-2.54.04-2.66,0-6.12-2.06-.71-18.82-6.71-20.85-1.37-.46-2.78.03-2.91.08-6.21,2.27-.66,18.36-6.96,20.6-.27.1-1.24.44-2.29.17-5.89-1.53-1.79-19.41-7.73-20.94-.94-.24-1.8,0-2.05.09-5.98,1.96-.65,18.87-6.55,20.85-1.16.39-2.31.05-2.46,0-6.19-1.92-1.37-18.84-7.57-20.77-.17-.05-1.32-.4-2.46,0-5.65,1.97.24,18.43-5.93,20.77-.37.14-1.4.46-2.46.17-6.02-1.65-1.99-19.96-7.16-21.11-.64-.14-1.19.03-1.64.17-6.7,2.09-1.95,19.22-7.98,20.94-.2.06-1.05.3-1.94.02-5.4-1.68.06-18.7-6.04-20.79-.34-.12-.95-.32-1.64-.17-5.17,1.15-1.43,19.5-6.96,20.77-.17.04-.66.15-1.22,0-4.93-1.28.22-17.94-6.55-20.43-.47-.17-.88-.32-1.41-.26-5.17.66-3.61,19.68-9.23,20.51-.68.1-1.24-.1-1.43-.17-5.51-2.03.66-18.86-4.29-20.51-.55-.18-1.06-.12-1.23-.09-6.05.88-4.91,20.87-7.69,21.05-.82.05-1.97-1.62-3.62-7.27v-26.29c0-5.68,5.54-10.29,12.36-10.29h153.87c6.83,0,12.36,4.61,12.36,10.29v26.29c-1.62,5.78-2.78,7.31-3.62,7.27-2.94-.13-2.18-19.59-9.38-20.87-.42-.08-.9-.16-1.43,0-4.83,1.45.69,18.14-4.98,20.18-.15.05-1.16.4-2.19.08-5.41-1.7-.27-18.7-5.52-20.26-.09-.03-.84-.24-1.64,0-5.32,1.58-.06,19.07-5.52,20.77Z"/>
  <rect id="poignée" class="cls-6" x="231.48" y="59.82" width="34.96" height="72" rx="6.29" ry="6.29"/>
  <rect id="poignée-2" data-name="poignée" class="cls-6" x="232.96" y="392.62" width="32" height="27.67" rx="6.29" ry="6.29"/>
  <circle class="cls-12" cx="248.96" cy="77.68" r="5.91"/>
  <circle class="cls-5" cx="248.96" cy="76.66" r="4.9"/>
  <circle class="cls-3" cx="248.96" cy="77.68" r="5.91"/>
  <circle class="cls-10" cx="248.25" cy="404.45" r="2.85"/>
  <circle class="cls-5" cx="248.25" cy="403.96" r="2.36"/>
  <circle class="cls-3" cx="248.25" cy="404.45" r="2.85"/>
  <g id="ombres">
    <path class="cls-4" d="m254.57,131.82c-2.1-.07-2.92.28-3.06,0-.38-.72,5.03-3.2,8.17-6.78,4.17-4.76,3.16-10.12,3.57-21.62.51-14.13,2.75-25.39,3.18-25.36.28.02.03,4.84,0,17.87-.02,8.03-.03,12.05,0,12.6.37,6.78,1.5,15.71-1.14,20.43-.35.62-1.03,1.8-2.38,2.55-1.3.72-2.61.71-5.11.68-1.48-.02-1.62-.32-3.23-.37Z"/>
  </g>
  <rect id="poignée-3" data-name="poignée" class="cls-8" x="231.48" y="59.82" width="34.96" height="72" rx="6.29" ry="6.29"/>
  <g id="reflet">
    <path class="cls-2" d="m162.37,422.49c-1.24,2.41-.85,5.81,1.8,7.66.44.31,1.85,1.29,3.79,1.28,2.76-.03,4.64-2.07,5.48-2.98,1.72-1.87,1.26-2.77,2.47-4.12,1.97-2.2,5.75-2.63,8.27-2.86,9.98-.91,21.14-.62,27.71-.6,5.74.02,18.65.06,19.1-2.05.05-.22-.05-.4-.11-.49-1.54-2.74-16.58-1.58-31.45-1.79-12.87-.18-24.89-1.39-32.65,2.21-1.43.66-3.4,1.81-4.4,3.74Z"/>
    <path class="cls-2" d="m237.29,108c2.86-.04,3.49,15.35,2.6,18.09-.27.82-.85,1.4-.85,1.4-.76.76-2.09,1.36-3.02.94-.87-.39-1.18-1.59-1.32-2.81-.5-4.26-.06-17.58,2.6-17.62Z"/>
    <path class="cls-2" d="m233.47,65.98c-1.21,2.86.95,6.51,3.06,6.81,2.63.37,6.19-4.3,4.94-7.32-.54-1.29-1.95-2.24-3.4-2.38-2.09-.21-3.91,1.27-4.6,2.89Z"/>
    <path class="cls-2" d="m235.34,398.23c-.55.97-.53,2.33.13,3.32,1,1.51,3.34,1.94,4.98.89,1.78-1.14,2.19-3.65,1.25-4.95-1.28-1.77-5.17-1.36-6.36.73Z"/>
  </g>
  <path class="cls-4" d="m246.11,393.05c0,.09.17.17,4,.73,6.44.95,6.47.94,7.28,1.25,5.53,2.11,4.52,7.75,4.6,8.26.21,1.44-.1,3.16-.6,10.43-.26,3.8-.25,5.58.34,5.76.48.14,1.16-.82,1.44-1.23,2.56-3.71,1.59-8.05,1.4-18.52-.04-2.35-.03-4.1-1.28-5.44-.95-1.02-2.24-1.49-5.62-1.81-5.78-.54-11.58.05-11.57.56Z"/>
  <rect id="poignée-4" data-name="poignée" class="cls-8" x="232.96" y="392.62" width="32" height="27.67" rx="6.29" ry="6.29"/>
</svg>