<svg width="50" height="51" viewBox="0 0 50 51" fill="none" xmlns="http://www.w3.org/2000/svg">
<path d="M20.3824 0C9.19141 0 0.119315 9.07209 0.119315 20.2631C0.119315 23.8512 1.05326 27.2253 2.69195 30.1511L0.211309 36.6425C-0.702961 39.0348 1.49786 41.448 3.96409 40.7572L11.7182 38.5853C14.3468 39.8304 17.2853 40.5262 20.3824 40.5262C31.5733 40.5262 40.6455 31.4542 40.6455 20.2631C40.6455 9.07209 31.5733 0 20.3824 0ZM20.3593 12.1614C19.2433 12.3795 18.0247 13.1036 17.061 14.7987C16.6355 15.547 15.6839 15.8088 14.9356 15.3833C14.1872 14.9578 13.9255 14.0062 14.351 13.2579C15.7253 10.8407 17.6799 9.50868 19.7614 9.10186C21.7968 8.70408 23.8202 9.21711 25.3484 10.229C26.856 11.2273 28.0752 12.8569 28.1142 14.8135C28.1547 16.8527 26.9115 18.6942 24.6253 20.046C23.071 20.9651 22.4664 21.5884 22.2094 22.0024C21.9931 22.351 21.9408 22.6688 21.9408 23.3805C21.9408 24.2413 21.2429 24.9392 20.3821 24.9392C19.5212 24.9392 18.8234 24.2413 18.8234 23.3805C18.8234 22.5334 18.8667 21.4767 19.5607 20.3585C20.214 19.3059 21.3343 18.3704 23.0385 17.3627C24.7062 16.3765 25.0085 15.4364 24.9974 14.8754C24.9846 14.2318 24.5549 13.4425 23.6273 12.8282C22.72 12.2275 21.5215 11.9343 20.3593 12.1614ZM21.1611 32.7327C19.8699 32.7327 18.8231 31.6858 18.8231 30.3946C18.8231 29.1034 19.8699 28.0566 21.1611 28.0566C22.4524 28.0566 23.4992 29.1034 23.4992 30.3946C23.4992 31.6858 22.4524 32.7327 21.1611 32.7327Z" fill="#F7FAF7"/>
<path d="M14.259 42.8334C17.975 47.147 23.4772 49.8781 29.6174 49.8781C32.7146 49.8781 35.653 49.1823 38.2816 47.9372L46.0358 50.1091C48.502 50.7999 50.7029 48.3867 49.7885 45.9945L47.3077 39.5031C48.9465 36.5771 49.8805 33.2032 49.8805 29.615C49.8805 23.566 47.2298 18.1361 43.0269 14.4233C43.4796 16.1833 43.7321 18.0235 43.7595 19.9182C45.6543 22.6761 46.7631 26.0161 46.7631 29.615C46.7631 32.8908 45.846 35.9474 44.2552 38.5479L43.8555 39.2017L46.8766 47.1071L37.9608 44.61L37.4178 44.8881C35.0794 46.0849 32.4296 46.7607 29.6174 46.7607C25.9417 46.7607 22.5361 45.6042 19.7448 43.6349C17.8515 43.5841 16.0143 43.3085 14.259 42.8334Z" fill="#F7FAF7"/>
</svg>
