<svg width="42" height="53" viewBox="0 0 42 53" fill="none" xmlns="http://www.w3.org/2000/svg">
<path d="M21 16.25V0.5H5.25C2.3505 0.5 0 2.8505 0 5.75V47.75C0 50.6496 2.3505 53 5.25 53H36.75C39.6496 53 42 50.6496 42 47.75V21.5H26.25C23.3504 21.5 21 19.1495 21 16.25ZM7.875 27.4062C7.875 26.319 8.75645 25.4375 9.84375 25.4375C10.9311 25.4375 11.8125 26.319 11.8125 27.4062C11.8125 28.4935 10.9311 29.375 9.84375 29.375C8.75645 29.375 7.875 28.4935 7.875 27.4062ZM7.875 35.2812C7.875 34.194 8.75645 33.3125 9.84375 33.3125C10.9311 33.3125 11.8125 34.194 11.8125 35.2812C11.8125 36.3685 10.9311 37.25 9.84375 37.25C8.75645 37.25 7.875 36.3685 7.875 35.2812ZM7.875 43.1562C7.875 42.069 8.75645 41.1875 9.84375 41.1875C10.9311 41.1875 11.8125 42.069 11.8125 43.1562C11.8125 44.2435 10.9311 45.125 9.84375 45.125C8.75645 45.125 7.875 44.2435 7.875 43.1562ZM15.75 27.4062C15.75 26.319 16.6315 25.4375 17.7188 25.4375H32.1562C33.2435 25.4375 34.125 26.319 34.125 27.4062C34.125 28.4935 33.2435 29.375 32.1562 29.375H17.7188C16.6315 29.375 15.75 28.4935 15.75 27.4062ZM15.75 35.2812C15.75 34.194 16.6315 33.3125 17.7188 33.3125H32.1562C33.2435 33.3125 34.125 34.194 34.125 35.2812C34.125 36.3685 33.2435 37.25 32.1562 37.25H17.7188C16.6315 37.25 15.75 36.3685 15.75 35.2812ZM15.75 43.1562C15.75 42.069 16.6315 41.1875 17.7188 41.1875H32.1562C33.2435 41.1875 34.125 42.069 34.125 43.1562C34.125 44.2435 33.2435 45.125 32.1562 45.125H17.7188C16.6315 45.125 15.75 44.2435 15.75 43.1562ZM24.9375 16.25V1.8125L40.6875 17.5625H26.25C25.5252 17.5625 24.9375 16.9749 24.9375 16.25Z" fill="#F7FAF7"/>
</svg>
