<?xml version="1.0" encoding="UTF-8"?>
<svg id="seau" xmlns="http://www.w3.org/2000/svg" viewBox="0 0 2457.46 1063.64">
  <defs>
    <style>
      .cls-1 {
        fill: none;
        stroke: #020202;
        stroke-linecap: round;
        stroke-linejoin: round;
      }

      .cls-2 {
        opacity: .31;
      }

      .cls-3 {
        fill: #444;
      }

      .cls-3, .cls-4, .cls-5, .cls-6, .cls-7, .cls-8, .cls-9, .cls-10 {
        stroke-width: 0px;
      }

      .cls-4 {
        fill: #757775;
      }

      .cls-5 {
        fill: #9a9b9a;
      }

      .cls-11 {
        opacity: .54;
      }

      .cls-6 {
        fill: #8d8d8e;
      }

      .cls-7 {
        fill: #828482;
      }

      .cls-12 {
        opacity: .16;
      }

      .cls-13 {
        opacity: .14;
      }

      .cls-8 {
        fill: #535453;
      }

      .cls-9 {
        fill: #fff;
      }

      .cls-10 {
        fill: #656462;
      }

      .cls-14 {
        opacity: .3;
      }
    </style>
  </defs>
  <ellipse id="haut" class="cls-1" cx="989.42" cy="538.65" rx="141.79" ry="45.35"/>
  <g>
    <path class="cls-5" d="M1195.09,426.41h-.35c0-35.54-90.06-64.35-201.16-64.35s-201.16,28.81-201.16,64.35h-.7c15.07,119.03,30.15,238.06,45.22,357.09h0c0,28.39,70.13,51.4,156.63,51.4s156.63-23.01,156.63-51.4c15.04-119.03,30.08-238.06,45.13-357.09h-.25Z"/>
    <path class="cls-7" d="M993.58,836.4c-41.99,0-81.49-5.37-111.22-15.13-30.18-9.9-46.83-23.28-46.91-37.67l-45.42-358.69h.95c1.16-17.32,22.33-33.41,59.91-45.43,38.14-12.2,88.82-18.92,142.7-18.92s104.56,6.72,142.7,18.92c37.58,12.02,58.75,28.1,59.91,45.43h.85l-.21,1.69-45.11,357c-.08,14.39-16.73,27.77-46.91,37.67-29.73,9.75-69.23,15.13-111.22,15.13ZM793.43,427.91l45.02,355.5v.09c0,12.84,16.35,25.57,44.84,34.92,29.44,9.66,68.61,14.98,110.29,14.98s80.85-5.32,110.29-14.98c28.5-9.35,44.84-22.08,44.84-34.92v-.19s44.92-355.4,44.92-355.4h-.4v-1.5c0-16.24-21.09-32.31-57.88-44.07-37.85-12.11-88.2-18.78-141.78-18.78s-103.93,6.67-141.78,18.78c-36.78,11.77-57.88,27.83-57.88,44.07v1.5h-.49Z"/>
  </g>
  <g class="cls-2">
    <path class="cls-10" d="M993.66,385.84c-122.62,0-222.03,31.8-222.03,71.02,18.28,16.76,25.61,32.65,28.89,44.17,4.25,14.95,4.95,26.23,5.43,39.12,1.03,27.66,5.95,55.04,8.69,82.59,2.25,22.65,11.7,100.04,14.58,99.78,1.51-.13.81-21.24.4-33.37-3.41-99.23-17.49-127.82-1.93-142,11.97-10.9,22.59,3.9,80.18,7.73,17.55,1.17,102.69,5.51,134.75-1.45,3.6-.78,18.36-3.99,30.67,2.66,10.54,5.69,9.64,11.98,20.65,22.46,11.34,10.8,29.5,17.57,45.64,13.77,9.44-2.22,15.61-7.46,19.22-10.59.57-.49,1.09-1.02,1.64-1.52-6.3,96.51-11.56,129.72-11.56,129.72-1.2,14.57-6.45,54.27-37.67,79.69-18.2,14.82-36.43,17.62-69.55,22.7-33.33,5.11-78.31,12.07-132.82-4.35-17.92-5.4-44.53-15.6-73.32-35.81-.31,5.07-.03,13.23,4.36,21.26,5.63,10.32,15.18,15.23,26.46,19.86,16.16,6.63,37.96,13.54,70.04,18.08,1.74.25,25.68,3.61,52.64,4.08,8.21.14,15.12.02,20.73-.13,8.18-.23,16.61-.78,25.87-1.74,49.66-5.16,96.22-9.99,112.61-41.3,1.84-3.51,3.32-12.53,6.21-30.42,7.9-48.98,10.57-86.81,10.87-89.83,6.71-68.38,19.23-112.65,12.55-115.04-.3-.11-.65-.12-1.02-.07,4.8-10.99,6.76-22.62,6.18-32.83-.37-6.49-.04-15.01,2.58-24.49,6.6-23.83,23.27-37.66,30.11-42.72-54.04-30.74-129.47-71.02-222.03-71.02Z"/>
  </g>
  <g>
    <path class="cls-6" d="M1172.18,505.38c8.25,33.13-5.02,64.95-29.63,71.08-24.62,6.13-51.26-15.75-59.51-48.88"/>
    <path class="cls-7" d="M1134.18,578.98c-22.68,0-45.13-21.02-52.61-51.04l2.91-.72c7.14,28.65,28.35,48.77,49.65,48.77,2.69,0,5.38-.32,8.04-.98,11.43-2.85,20.71-11.56,26.12-24.54,5.47-13.13,6.33-29.01,2.42-44.72l2.91-.72c4.07,16.33,3.16,32.88-2.56,46.6-5.78,13.87-15.79,23.21-28.17,26.3-2.89.72-5.81,1.07-8.72,1.07Z"/>
  </g>
  <g>
    <path class="cls-5" d="M1170.28,506.08c8.34,27.45-.71,54.51-20.22,60.43-19.51,5.93-42.08-11.52-50.42-38.97"/>
    <path class="cls-7" d="M1142.18,569.17c-7.5,0-15.23-2.88-22.44-8.45-9.77-7.55-17.42-19.18-21.54-32.75l2.87-.87c3.94,12.98,11.23,24.08,20.5,31.25,9.13,7.06,19.09,9.44,28.04,6.72,8.96-2.72,15.91-10.25,19.57-21.19,3.72-11.12,3.6-24.4-.35-37.38l2.87-.87c4.12,13.57,4.24,27.49.32,39.2-3.98,11.89-11.63,20.09-21.54,23.1-2.71.82-5.49,1.23-8.31,1.23Z"/>
  </g>
  <g id="tour">
    <path class="cls-5" d="M993.61,362.06c-122.62,0-222.03,31.8-222.03,71.02v29.99c0,39.22,99.41,71.02,222.03,71.02s222.03-31.8,222.03-71.02v-29.99c0-39.22-99.41-71.02-222.03-71.02Z"/>
    <path class="cls-7" d="M993.61,535.59c-59.46,0-115.38-7.41-157.45-20.87-42.61-13.63-66.07-31.97-66.07-51.65v-29.99c0-19.68,23.47-38.02,66.07-51.65,42.08-13.46,98-20.87,157.45-20.87s115.38,7.41,157.45,20.87c42.61,13.63,66.07,31.97,66.07,51.65v29.99c0,19.68-23.47,38.02-66.07,51.65-42.08,13.46-98,20.87-157.45,20.87ZM993.61,363.56c-59.15,0-114.75,7.36-156.54,20.73-40.66,13.01-63.99,30.79-63.99,48.79v29.99c0,18,23.32,35.78,63.99,48.79,41.79,13.37,97.39,20.73,156.54,20.73s114.75-7.36,156.54-20.73c40.67-13.01,63.99-30.79,63.99-48.79v-29.99c0-18-23.32-35.78-63.99-48.79-41.79-13.37-97.39-20.73-156.54-20.73Z"/>
  </g>
  <g>
    <ellipse class="cls-4" cx="993.66" cy="468.21" rx="187.91" ry="62.96"/>
    <path class="cls-4" d="M993.66,532.67c-50.35,0-97.71-6.58-133.35-18.52-36.15-12.11-56.06-28.43-56.06-45.94s19.91-33.83,56.06-45.94c35.64-11.94,83-18.52,133.35-18.52s97.71,6.58,133.35,18.52c36.15,12.11,56.06,28.43,56.06,45.94s-19.91,33.83-56.06,45.94c-35.64,11.94-83,18.52-133.35,18.52ZM993.66,406.75c-50.04,0-97.06,6.52-132.4,18.36-34.33,11.5-54.02,27.21-54.02,43.1s19.69,31.6,54.02,43.1c35.34,11.84,82.36,18.36,132.4,18.36s97.06-6.52,132.4-18.36c34.33-11.5,54.02-27.21,54.02-43.1s-19.69-31.6-54.02-43.1c-35.34-11.84-82.36-18.36-132.4-18.36Z"/>
  </g>
  <g>
    <path class="cls-10" d="M1153.13,769.86c3.23,5.39,53.01-2.56,80.27-34.82,34.77-41.16,32.36-113.66.72-153.59-21.57-27.22-65.55-54.18-65.57-54.16,0,0-2.41,1.64-2.41,1.64-.02,0-3.37.92.59,25.09.01.06.02.09.02.09,0,0,0,1.5,0,1.5,6.88,4.24,16.26,9.24,26.08,18.59,12.95,12.33,30.82,29.35,37.67,56.51,10.78,42.7-13.79,78.27-17.39,83.31-4.15,5.82-13.62,18.76-31.15,28.25-10.8,5.85-20.79,8.29-27.53,9.42,0,0,0,0,0,0-.13,2.13-.35,5.55-.72,9.78-.64,7.32-.91,7.83-.58,8.38Z"/>
    <path class="cls-4" d="M1159.29,772.9c-.76,0-1.46-.03-2.1-.08-2.86-.23-4.61-.95-5.36-2.2h0c-.47-.79-.42-1.3-.16-3.78.12-1.18.3-2.92.53-5.5.29-3.27.53-6.54.72-9.74l.02-.31.48-.96.75-.13c9.56-1.59,18.66-4.71,27.06-9.26,17.59-9.52,27.08-22.81,30.65-27.81,4.67-6.54,27.47-41.24,17.15-82.08-6.75-26.74-24.38-43.53-37.25-55.79-8.19-7.8-16.12-12.56-22.48-16.38-1.17-.7-2.29-1.37-3.35-2.03l-.71-.44v-2.21c-2.67-16.33-2.6-25.26.18-26.63l2.65-1.8h.44s0-.01,0-.01c1.25,0,17.11,10.85,25.65,17.17,12.56,9.3,29.89,23.37,41.14,37.56,15.58,19.67,24.65,47.82,24.87,77.25.23,30.62-8.87,58.41-25.62,78.24-23.06,27.3-60.64,36.9-75.25,36.9ZM1154.48,769.14c.36.26,1.67.75,4.78.77h.13c14.92,0,51.41-10.46,72.85-35.84,33.23-39.34,33.56-110.22.69-151.69-19.56-24.69-58.37-49.56-64.35-53.31l-1.61,1.09c-.3.52-1.92,4.38,1.22,23.61l.04.34v.66c.84.51,1.71,1.03,2.61,1.57,6.49,3.9,14.58,8.74,23.01,16.78,13.14,12.51,31.13,29.65,38.09,57.23,10.64,42.12-12.81,77.82-17.62,84.55-3.68,5.15-13.46,18.85-31.66,28.7-8.35,4.52-17.36,7.67-26.82,9.38-.18,2.85-.4,5.75-.65,8.64-.23,2.61-.41,4.36-.53,5.55-.1.94-.17,1.65-.18,1.98Z"/>
  </g>
  <g class="cls-12">
    <path class="cls-8" d="M922.19,407.89c-7.56,1.98-53.91,14.54-54.89,35.91-.3,6.5,3.71,11.51,5.31,13.52,32.55,40.73,223.48,37.24,237.63-7.73,3.63-11.52-.52-19.75-.52-19.75-5.78-11.48-22.44-15.54-33.21-18.16-1.52-.37-12.06-2.89-21.7-5.15,0,0-.01,0-.01,0,10.91.78,26.09,2.5,43.85,6.6,22.36,5.16,36.78,11.32,42.74,14.01,27.18,12.25,35.3,22.97,39.25,30.47,1.06,2.01,1.8,3.74,2.25,4.9-4.68,2.8-8.39,4.79-10.11,5.69-75.67,39.78-168.81,29.5-174.5,29.81-.01,0-.3.02-.67.04-.61.03-1.14.06-1.84.1-59.21,3.12-102.72-1.64-145.98-16.3-19.14-6.49-34.56-13.66-45.39-19.23.39-1.59,1.16-4.5,2.93-7.72,3.14-5.69,7.8-9.42,13-13.74,22.94-19.08,85.85-31.76,101.86-33.25Z"/>
  </g>
  <g>
    <path class="cls-5" d="M993.61,531.96c-59.09,0-114.62-7.35-156.35-20.7-40.39-12.92-63.55-30.48-63.55-48.19v-21.91c8.36,14.2,31.73,27.1,67.3,36.89,41.4,11.4,95.56,17.67,152.52,17.67s111.12-6.28,152.52-17.67c37.76-10.4,61.78-24.29,68.68-39.53l-1.21,24.45c0,17.81-23.17,35.38-63.55,48.3-41.73,13.35-97.26,20.7-156.35,20.7Z"/>
    <path class="cls-7" d="M1212.19,446.67l-.8,16.19c0,.07,0,.14,0,.21,0,16.72-22.62,33.55-62.07,46.17-41.53,13.28-96.82,20.6-155.7,20.6s-114.17-7.32-155.7-20.6c-39.45-12.62-62.07-29.45-62.07-46.17v-15.24c13.2,15.31,40.98,25.76,64.61,32.27,41.57,11.45,95.94,17.75,153.08,17.75s111.51-6.3,153.08-17.75c24.22-6.67,52.81-17.49,65.58-33.43M1217.46,426.41c-1.06,2.23-2.12,4.45-3.18,6.68-6.83,33.75-103.04,60.51-220.74,60.51s-213.92-26.76-220.74-60.51h-1.2v29.99c0,39.22,99.41,71.02,222.03,71.02s222.03-31.8,222.03-71.02c.61-12.22,1.21-24.44,1.82-36.66h0Z"/>
  </g>
  <g class="cls-13">
    <path class="cls-9" d="M1169.1,535.71c-.27,2.03.76,4.02,2.66,5.08,25.03,13.98,55.55,36.85,69.99,73.35,11.8,29.83,8.84,58.62,9.37,58.59.61-.04,6.55-38.77-10.66-76.5-15.53-34.06-43.84-53.95-62.83-64.38-3.51-1.93-8.03.13-8.53,3.86h0Z"/>
  </g>
  <g class="cls-14">
    <path class="cls-9" d="M820.63,482.65c.7-1.1,30.78,11.15,73.45,18.94,38.01,6.94,68.4,7.13,93.31,7.28,52.04.32,91.12-5.5,102.43-7.28,45.3-7.14,76.15-17.54,76.63-16.61.44.86-25.69,10.54-57.57,17.78-50.87,11.55-92.88,11.54-121.49,11.37-38.86-.23-78.44-.75-124.26-14.59-23.34-7.05-43.06-15.98-42.49-16.88Z"/>
  </g>
  <g class="cls-11">
    <path class="cls-3" d="M1153,755.98c-.41-1.14,2.42-3.19,4.28-4.53,6.43-4.65,12.16-4.31,18.57-6.16,4.79-1.39,8.35-3.88,15.47-8.88,6.51-4.57,21.79-15.3,30.82-34.74,1.66-3.58,3.17-8.56,6.18-18.54,5.76-19.06,7.06-28.9,7.24-28.87.47.09,4.07,65.49-31.84,90.3-19.21,13.27-49.53,14.79-50.73,11.42Z"/>
  </g>
  <path class="cls-4" d="M1159.29,772.9c-.76,0-1.46-.03-2.1-.08-2.86-.23-4.61-.95-5.36-2.2h0c-.47-.79-.42-1.3-.16-3.78.12-1.18.3-2.92.53-5.5.29-3.27.53-6.54.72-9.74l.02-.31.48-.96.75-.13c9.56-1.59,18.66-4.71,27.06-9.26,17.59-9.52,27.08-22.81,30.65-27.81,4.67-6.54,27.47-41.24,17.15-82.08-6.75-26.74-24.38-43.53-37.25-55.79-8.19-7.8-16.12-12.56-22.48-16.38-1.17-.7-2.29-1.37-3.35-2.03l-.71-.44v-2.21c-2.67-16.33-2.6-25.26.18-26.63l2.65-1.8h.44s0-.01,0-.01c1.25,0,17.11,10.85,25.65,17.17,12.56,9.3,29.89,23.37,41.14,37.56,15.58,19.67,24.65,47.82,24.87,77.25.23,30.62-8.87,58.41-25.62,78.24-23.06,27.3-60.64,36.9-75.25,36.9ZM1154.48,769.14c.36.26,1.67.75,4.78.77h.13c14.92,0,51.41-10.46,72.85-35.84,33.23-39.34,33.56-110.22.69-151.69-19.56-24.69-58.37-49.56-64.35-53.31l-1.61,1.09c-.3.52-1.92,4.38,1.22,23.61l.04.34v.66c.84.51,1.71,1.03,2.61,1.57,6.49,3.9,14.58,8.74,23.01,16.78,13.14,12.51,31.13,29.65,38.09,57.23,10.64,42.12-12.81,77.82-17.62,84.55-3.68,5.15-13.46,18.85-31.66,28.7-8.35,4.52-17.36,7.67-26.82,9.38-.18,2.85-.4,5.75-.65,8.64-.23,2.61-.41,4.36-.53,5.55-.1.94-.17,1.65-.18,1.98Z"/>
  <g>
    <rect class="cls-10" x="1140.66" y="527.28" width="31.61" height="28.45" rx="3.17" ry="3.17"/>
    <path class="cls-4" d="M1169.1,557.23h-25.28c-2.57,0-4.67-2.09-4.67-4.67v-22.11c0-2.57,2.09-4.67,4.67-4.67h25.28c2.57,0,4.67,2.09,4.67,4.67v22.11c0,2.57-2.09,4.67-4.67,4.67ZM1143.83,528.78c-.92,0-1.67.75-1.67,1.67v22.11c0,.92.75,1.67,1.67,1.67h25.28c.92,0,1.67-.75,1.67-1.67v-22.11c0-.92-.75-1.67-1.67-1.67h-25.28Z"/>
  </g>
  <g class="cls-14">
    <path class="cls-9" d="M889.06,570.25c-6.52,6.58-5.56,22.92-3.78,86.21,1.08,38.37,1.35,54.62,7.98,60.86,2.62,2.47,6.72,3.82,9.66.72,5.98-6.28,2.82-26.18,1.26-63.75-2.23-53.77,1.5-79.48-6.3-85.49-4.1-3.16-8.64,1.26-8.82,1.45Z"/>
  </g>
  <g class="cls-14">
    <path class="cls-9" d="M891.47,743.76c.47-.78,1.19-1.58,7.25-1.81,6.69-.25,7.51.67,7.98,1.45,1.51,2.45,1.45,6.41,1.37,11.95-.07,4.89-.12,7.95-1.39,10.47-1.74,3.44-4.56,3.46-7.12,3.48-2.44.02-6.14.05-8.09-4.35-.94-2.12-1.06-4.34-1.26-8.15-.25-4.78-.53-10.07,1.26-13.04Z"/>
  </g>
  <g class="cls-14">
    <path class="cls-9" d="M853.24,401c.57.78,25.15-7.88,60.01-13.38,31.05-4.9,55.89-5.03,76.24-5.14,42.52-.23,74.45,3.88,83.69,5.14,37.01,5.04,62.22,12.38,62.61,11.73.36-.6-20.99-7.44-47.04-12.55-41.56-8.15-75.89-8.15-99.27-8.03-31.75.16-64.09.53-101.53,10.3-19.07,4.98-35.19,11.29-34.72,11.92Z"/>
  </g>
</svg>