<svg width="60" height="61" viewBox="0 0 60 61" fill="none" xmlns="http://www.w3.org/2000/svg">
<path d="M36 9.39778C36 6.77872 32.8791 5.41723 30.9594 7.19878L19.3428 17.9789C19.0654 18.2364 18.7009 18.3794 18.3225 18.3794H10.5C8.01471 18.3794 6 20.3942 6 22.8794V37.8795C6 40.3647 8.01471 42.3795 10.5 42.3795H18.3225C18.7009 42.3795 19.0654 42.5223 19.3428 42.78L30.9594 53.56C32.8791 55.3417 36 53.9803 36 51.361V9.39778Z" fill="#4C8B25"/>
<path d="M45.7612 14.2624C46.3783 13.7095 47.3266 13.7616 47.8795 14.3786C56.0281 23.4733 56.0281 37.2856 47.8795 46.3803C47.3269 46.9974 46.3783 47.0496 45.7615 46.4967C45.1444 45.9438 45.0925 44.9955 45.6451 44.3784C52.7731 36.423 52.7731 24.3358 45.6451 16.3805C45.0922 15.7635 45.1444 14.8152 45.7612 14.2624Z" fill="#4C8B25"/>
<path d="M42.2354 39.1792C41.5178 38.7658 41.2709 37.8487 41.6843 37.1308C44.0129 33.088 44.1794 27.9543 41.6825 23.6293C41.2682 22.9118 41.5139 21.9944 42.2315 21.5802C42.9488 21.166 43.8662 21.4118 44.2805 22.1293C47.3345 27.4191 47.1251 33.6958 44.2841 38.6281C43.8704 39.346 42.9533 39.5926 42.2354 39.1792Z" fill="#4C8B25"/>
</svg>
