<svg width="60" height="61" viewBox="0 0 60 61" fill="none" xmlns="http://www.w3.org/2000/svg">
<path d="M36 9.39778C36 6.77872 32.8791 5.41723 30.9594 7.19878L19.3428 17.9789C19.0654 18.2364 18.7009 18.3794 18.3225 18.3794H10.5C8.01471 18.3794 6 20.3942 6 22.8794V37.8795C6 40.3647 8.01471 42.3795 10.5 42.3795H18.3225C18.7009 42.3795 19.0654 42.5223 19.3428 42.78L30.9594 53.56C32.8791 55.3417 36 53.9803 36 51.361V9.39778Z" fill="#CB664D"/>
<path d="M45.7611 14.2624C46.3782 13.7095 47.3265 13.7616 47.8794 14.3786C56.028 23.4733 56.028 37.2856 47.8794 46.3803C47.3268 46.9974 46.3782 47.0496 45.7614 46.4967C45.1443 45.9438 45.0924 44.9955 45.645 44.3784C52.773 36.423 52.773 24.3358 45.645 16.3805C45.0921 15.7635 45.1443 14.8152 45.7611 14.2624Z" fill="#CB664D"/>
<path d="M42.2355 39.1792C41.5179 38.7658 41.271 37.8487 41.6844 37.1308C44.013 33.088 44.1795 27.9543 41.6826 23.6293C41.2683 22.9118 41.514 21.9944 42.2316 21.5802C42.9489 21.166 43.8663 21.4118 44.2806 22.1293C47.3346 27.4191 47.1252 33.6958 44.2842 38.6281C43.8705 39.346 42.9534 39.5926 42.2355 39.1792Z" fill="#CB664D"/>
</svg>
