<?xml version="1.0" encoding="UTF-8"?>
<svg id="Calque_35" data-name="Calque 35" xmlns="http://www.w3.org/2000/svg" viewBox="0 0 550.83 500">
  <defs>
    <style>
      .cls-1 {
        fill: #5faf31;
      }

      .cls-1, .cls-2, .cls-3 {
        stroke-linecap: round;
        stroke-linejoin: round;
      }

      .cls-1, .cls-3 {
        stroke: #559d2b;
      }

      .cls-1, .cls-3, .cls-4 {
        stroke-width: 3px;
      }

      .cls-2 {
        stroke: #353535;
        stroke-width: 4px;
      }

      .cls-2, .cls-3 {
        fill: none;
      }

      .cls-5 {
        opacity: .33;
      }

      .cls-6 {
        fill: #353535;
      }

      .cls-6, .cls-7, .cls-8, .cls-9 {
        stroke-width: 0px;
      }

      .cls-7 {
        fill: #4d8c32;
        opacity: .21;
      }

      .cls-4 {
        opacity: .62;
        stroke: #fff;
        stroke-miterlimit: 10;
      }

      .cls-4, .cls-8, .cls-9 {
        fill: #fff;
      }

      .cls-9 {
        opacity: .32;
      }
    </style>
  </defs>
  <path id="tete" class="cls-1" d="M477.98,217.9c-30.14-36.78-99.49-103.49-205.21-102.43-128.09,1.28-200.48,100.96-207.76,111.35h0c-11.05,14.14-17.16,29.64-17.16,45.9,0,66.44,101.87,120.3,227.53,120.3s227.53-53.86,227.53-120.3c0-19.74-9-38.38-24.94-54.82Z"/>
  <path class="cls-7" d="M170.77,141.81c.03.12,1.09.44,3.23,1.08,5.05,1.51,9.99,1.73,9.99,1.73,0,0,45.07-20.35,89.92-20.21,43.74.13,87.29,19.75,87.29,19.75,0,0,3.95.46,5.63.34,2.37-.16,9.15-.61,9.4-1.77.86-4.06-47.18-27.7-101.91-27.81-55.09-.11-104.27,23.65-103.55,26.9Z"/>
  <path id="tete-2" data-name="tete" class="cls-3" d="M477.98,217.9c-30.14-36.78-99.49-103.49-205.21-102.43-128.09,1.28-200.48,100.96-207.76,111.35h0c-11.05,14.14-17.16,29.64-17.16,45.9,0,66.44,101.87,120.3,227.53,120.3s227.53-53.86,227.53-120.3c0-19.74-9-38.38-24.94-54.82Z"/>
  <path id="yeux" class="cls-1" d="M482.75,223.58c1.26-8.39,7-51.85-18.96-85.64-6.22-8.09-21.83-28.42-47.2-29.73-23.46-1.22-39.69,14.62-43.17,18.19-23.02,23.65-19.79,57.44-19.36,61.24"/>
  <path class="cls-7" d="M472.26,223.45c-2.89-13.26.91-19.45,1.05-31.49.33-27.92-19.49-48.1-20.61-49.2-4.63-4.51-17.27-16.83-36.91-17.75-18.05-.85-31.06,8.43-34.29,10.89-24.23,18.41-24.12,52.18-27.43,51.6-2.63-.46-4.59-21.97,4.71-42.59,3.08-6.83,10.46-22.56,28.51-31.74,5.63-2.86,19.98-9,37.12-5.38,21.06,4.45,32.69,20.65,39.4,30.01,13.6,18.97,23.19,47.86,20.37,66.28-.39,2.56-1.87,10.41,1.01,19.57,2.09,6.64,5.48,10.85,6.86,12.71,10.28,13.89,15.02,41.64,6.66,63.74-.82,2.16-1.75,4.32-2.91,6.56,0,0-5.86,11.5-16.86,21.28-43.48,38.68-106.98,55-106.98,55-22.58,5.8-57.25,12.14-100.58,9.93,14.49-.81,133.53-8.5,185.57-62.11,12-12.36,34.84-34.95,31.47-63.74-1.44-12.3-6.86-22.59-6.86-22.59,0,0,0,0,0,0-3.13-4.52-7.24-11.63-9.28-20.98Z"/>
  <path id="yeux-2" data-name="yeux" class="cls-1" d="M193.09,193.96c.55-5.73,2.7-33.79-14.52-58.33-3.08-4.39-19.56-27.88-45.99-28.24-30.66-.42-49.06,30.64-52.85,37.04-19.5,32.93-11.91,69.53-10.49,75.92"/>
  <path id="oeil_g" data-name="oeil g" class="cls-6" d="M124.1,150.15c-24.9,1.42-40.87,29.16-39.54,52.45,1.15,20.17,15.62,42.75,36.71,45.18,24.83,2.86,48.52-23.39,48.01-50.02-.47-23.99-20.6-49.01-45.18-47.6Z"/>
  <path id="oeil_d" data-name="oeil d" class="cls-6" d="M421.83,149.75c-24.54-.86-43.15,22.91-44.38,45.59-1.31,24.36,17.27,50.65,42.36,50.83,24.82.18,43.53-25.28,43.17-49.22-.34-22.09-16.98-46.36-41.15-47.2Z"/>
  <path id="bouche" class="cls-2" d="M77.98,289.2c1.75.71,15.2,5.87,27.97-1.61,7.62-4.47,11.11-11.17,12.37-13.99"/>
  <path id="bouche-2" data-name="bouche" class="cls-2" d="M431.92,271.99c2.7,3.01,9.22,9.48,19.9,12.91,10.67,3.42,19.72,1.96,23.67,1.08"/>
  <path id="bouche-3" data-name="bouche" class="cls-2" d="M105.95,287.59c17.26,10.53,41.88,23.53,73.15,33.89,19.16,6.34,51.99,16.92,96.28,17.48,12.21.15,56.26-.06,109.19-19.63,28.95-10.7,51.51-23.85,67.24-34.43"/>
  <path id="nez" class="cls-6" d="M290.35,247.77c5.02,1.93,9.61,4.78,13.31,8.67,1.86,2.04-.34,5.33-2.9,4.46-5.06-1.81-9.52-4.86-13.31-8.67-1.03-1.11-.97-2.84.14-3.87.77-.72,1.84-.9,2.77-.58h0Z"/>
  <path id="nez-2" data-name="nez" class="cls-6" d="M260.55,252.23c-3.8,3.81-8.25,6.86-13.31,8.67-1.46.46-3.01-.35-3.46-1.81-1.53-3.76,10.75-10.33,13.87-11.32,2.67-.95,4.83,2.43,2.9,4.46h0Z"/>
  <ellipse id="ref_rond" data-name="ref rond" class="cls-4" cx="443.62" cy="197.95" rx="8.47" ry="12.91"/>
  <ellipse id="ref_rond-2" data-name="ref rond" class="cls-4" cx="104.09" cy="197.95" rx="8.47" ry="12.91"/>
  <g id="reflet2" class="cls-5">
    <path class="cls-8" d="M101.04,230.45c13.4,12.48,32.68,11.84,47.2,1.61-12.97,12.67-35.68,13.27-47.2-1.61h0Z"/>
  </g>
  <g id="reflet1" class="cls-5">
    <path class="cls-8" d="M443.79,230.45c-11.53,14.89-34.24,14.29-47.2,1.61,14.52,10.23,33.8,10.86,47.2-1.61h0Z"/>
  </g>
  <path class="cls-9" d="M147.37,174.63c-1.64,1.03-1.61,3.73-1.08,5.38.96,2.95,4.49,5.29,6.45,4.3,1.92-.96,2.32-5.05.54-7.53-1.3-1.82-4.13-3.28-5.92-2.15Z"/>
  <path class="cls-9" d="M393.4,174.63c1.64,1.03,1.61,3.73,1.08,5.38-.96,2.95-4.49,5.29-6.45,4.3-1.92-.96-2.32-5.05-.54-7.53,1.3-1.82,4.13-3.28,5.92-2.15Z"/>
  <path id="yeux-3" data-name="yeux" class="cls-3" d="M482.75,223.58c1.26-8.39,7-51.85-18.96-85.64-6.22-8.09-21.83-28.42-47.2-29.73-23.46-1.22-39.69,14.62-43.17,18.19-23.02,23.65-19.79,57.44-19.36,61.24"/>
  <path class="cls-9" d="M117.87,127.32c-1.76-3.02-20.31-.17-25.85,12.27-1.11,2.5-3.01,8.31-.95,9.77,4.78,3.41,29.18-17.96,26.81-22.04Z"/>
  <path class="cls-9" d="M64.77,255.67c-2.07,2.55-2.59,6.73-.81,9.68,2.82,4.66,10.69,5.11,15.33,1.61,2.9-2.18,5.31-6.49,4.03-9.68-2.1-5.28-14.07-7.14-18.56-1.61Z"/>
  <path class="cls-9" d="M484,255.67c2.07,2.55,2.59,6.73.81,9.68-2.82,4.66-10.69,5.11-15.33,1.61-2.9-2.18-5.31-6.49-4.03-9.68,2.1-5.28,14.07-7.14,18.56-1.61Z"/>
</svg>