<?xml version="1.0" encoding="utf-8"?>
<!-- Generator: Adobe Illustrator 28.2.0, SVG Export Plug-In . SVG Version: 6.00 Build 0)  -->
<svg version="1.1" xmlns="http://www.w3.org/2000/svg" xmlns:xlink="http://www.w3.org/1999/xlink" x="0px" y="0px"
	 viewBox="0 0 210 210" style="enable-background:new 0 0 210 210;" xml:space="preserve">
<style type="text/css">
	.st0{fill:#ECA438;}
	.st1{fill:#FFC249;}
	.st2{fill:#ECA438;stroke:#ECA438;stroke-width:2;}
</style>
<g id="border">
	<path class="st0" d="M195,210H15c-8.3,0-15-6.7-15-15V15C0,6.7,6.7,0,15,0h180c8.3,0,15,6.7,15,15v180C210,203.3,203.3,210,195,210
		z"/>
	<path class="st1" d="M190,200H20c-5.5,0-10-4.5-10-10V20c0-5.5,4.5-10,10-10h170c5.5,0,10,4.5,10,10v170
		C200,195.5,195.5,200,190,200z"/>
</g>
<g id="card-design">
	<path class="st2" d="M94.5,138.2c-0.8-1-2.2-5.3-2.7-7.3c-0.9-2.9-6.2-5.9-9.6-8.1c-3.4-2.3-6.5,1.1-9.3,2.4
		c-2.8,1.3-10.9-2.3-6.9-10.9s11.5-3.1,12.4-0.9c0.9,2.2,2.3,3.6,8.7,6.7c6.3,3,6.4-2.8,6.5-4.6c0.3-3.8-1.1-9.6-1.9-12.2
		c-1-3.3-2.8-8.4-4.5-11.9c-1.7-3.5-5.3-4.7-6.7-7.9c-1.4-3.1-1.2-12,6.3-11c8.9,1.3,5.7,10.7,5.6,12.8c-0.1,2.1,1.5,6.7,3.3,10.9
		c1.9,4.5,3.9,11.1,4.5,14.3c0.5,3.1,2.6,5.5,4.7,3.6c1.3-1.1,1.7-2.1,3.6-8.7c2-7.1,3.6-9.7,4.8-14.9c1.2-5.1,0.3-9.8,0.5-11.8
		c0.1-2,1.2-11,7.1-10.5c5.6,0.5,7.7,4.4,7.2,8c-0.5,3.5-4.2,7.5-7.4,10.7c-3.2,3.3-4.8,10.1-5.6,13.3c-1,3.6-2.8,12.1-3.2,16.8
		c-0.5,4.7,2.7,1.6,3.6,0.5c1.7-2,5.3-6.3,8.6-9.1c2.5-2.1,4.3-5.5,5.3-7.2c0.9-1.6,4.4-7.6,8.6-8c4.2-0.4,7.4,3.9,7.2,7.7
		c-0.3,4.7-4.7,7.8-7.4,7.3c-3.7-0.7-5.9-0.1-7.5,0.7c-1.1,0.5-9.8,8.7-15.1,16.9c-5.2,8.2-9.1,12.1-12.9,14.5
		C98.2,143.2,95.6,139.6,94.5,138.2z"/>
</g>
</svg>
