<?xml version="1.0" encoding="UTF-8"?>
<svg xmlns="http://www.w3.org/2000/svg" viewBox="0 0 500 500">
  <defs>
    <style>
      .cls-1, .cls-2, .cls-3, .cls-4, .cls-5, .cls-6 {
        stroke-width: 0px;
      }

      .cls-1, .cls-7 {
        fill: #9dbf45;
      }

      .cls-2 {
        fill: #fff;
        opacity: .35;
      }

      .cls-3 {
        fill: #f7faf7;
      }

      .cls-4 {
        fill: #6c9c2f;
        opacity: .29;
      }

      .cls-5 {
        fill: #eca438;
      }

      .cls-7, .cls-8 {
        stroke: #6c9c2f;
        stroke-miterlimit: 10;
        stroke-width: 3px;
      }

      .cls-6 {
        fill: #6c9c2e;
      }

      .cls-8 {
        fill: none;
      }
    </style>
  </defs>
  <g id="border">
    <rect class="cls-5" x="0" width="500" height="500" rx="15" ry="15"/>
    <rect class="cls-3" x="23.81" y="23.81" width="452.38" height="452.38" rx="10" ry="10"/>
  </g>
  <g id="card-design">
    <path id="_11" data-name="11" class="cls-7" d="M66.28,332.09c1.66,3.71,4.25,7.66,4.95,8.67,4.86,7.05,9.86,10.82,15.6,18.6,4.27,5.79,6.56,10.57,7.9,14.69,3.12,9.62,1.42,12.95,4.46,18.79,1.46,2.81,4.77,7.51,15.97,12.39,21.91,9.56,35.12,2.87,68.5,9.58,11.9,2.39,16.31,4.47,18.27,5.45,14.89,7.53,15.3,16.69,26.49,21.37,7.71,3.22,16.19,1.38,33.34-2.73,26.56-6.36,39.84-9.53,50.06-20.94,11.19-12.49,7.69-22.22,20.8-30.33,1.92-1.19,7.65-4.46,19.11-11.01,7.34-4.19,9.86-5.6,11.42-8.64,3.77-7.36-1.78-17.16-3.65-20.46-19.12-33.74-279.06-87.46-293.2-49.09-6.81,18.47,0,33.64,0,33.64Z"/>
    <g id="_1" data-name="1">
      <path class="cls-1" d="M70.39,253c-19.26-8.43-30.04-39.69-22.38-60.46,3.31-8.98,8.14-10.76,10.85-22.63,2.61-11.41-.49-15.73.56-28.74.35-4.26,1.64-20.16,9.13-30.46,8.64-11.86,21.93-11.34,52.06-16.82,53.5-9.72,57.58-19.71,77.18-14.09,14.04,4.02,35.07,15.77,41.1,35,16.2,51.65-88.97,115.18-133.36,134.55-8.75,3.82-22.55,9.16-35.17,3.64Z"/>
      <path class="cls-8" d="M70.39,253c-19.26-8.43-30.04-39.69-22.38-60.46,3.31-8.98,8.14-10.76,10.85-22.63,2.61-11.41-.49-15.73.56-28.74.35-4.26,1.64-20.16,9.13-30.46,8.64-11.86,21.93-11.34,52.06-16.82,53.5-9.72,57.58-19.71,77.18-14.09,14.04,4.02,35.07,15.77,41.1,35,16.2,51.65-88.97,115.18-133.36,134.55-8.75,3.82-22.55,9.16-35.17,3.64Z"/>
    </g>
    <path id="_6" data-name="6" class="cls-7" d="M184.67,367.83c-20.17,10.06-49.66,10.96-67.46-1.86-14.78-10.65-9.39-22.05-32.53-58.17-15.12-23.6-22.37-26.46-22.97-39.56-.77-17.06,11.19-20.31,15.31-44.68,4.01-23.67-5.82-29.18.96-40.95,8.2-14.24,23.19-7.26,54.54-25.13,19.96-11.38,21.81-18.73,37.32-21.41,2.99-.52,24.24-3.89,36.84,8.38,5.22,5.09,7.19,11.14,8.13,14.89,43.13,171.93-30.14,208.49-30.14,208.49Z"/>
    <path id="_4" data-name="4" class="cls-7" d="M260.84,158.9c-6.9,4.73-6.22,17.54-5.94,22.73.88,16.47,10.1,19.1,13.7,35,3.64,16.08-4.51,19.01-4.57,45.46-.04,16.81-.06,28.08,7.31,34.55,13.13,11.53,44.79,3.47,59.37-15.91,8.62-11.47,9.2-24.15,9.59-32.73,1.19-26.16-11.34-45.36-15.07-50.91-17.85-26.55-51.89-46.76-64.39-38.18Z"/>
    <path id="_3" data-name="3" class="cls-7" d="M343.5,136.17c11.25.62,18.4,14,37.45,12.73,11.66-.78,14.62-6.16,26.03-5,9.68.99,22.79,6.41,26.95,16.82,3.96,9.92-4.01,14.87-.91,25.46,4.13,14.14,20.38,12.3,26.49,25,5.96,12.38-6.13,21.08-16.44,54.55-10.09,32.74-4.16,42.72-15.53,52.28-13.09,11-23.35-.18-45.67,10.91-19.59,9.74-18.73,21.87-39.28,29.55-5.56,2.08-20.21,7.56-33.34,1.82-4.03-1.76-17.16-8.62-24.21-39.55-17.03-74.78,25.14-186.39,58.46-184.56Z"/>
    <path id="_10" data-name="10" class="cls-7" d="M159.45,199.36c16.26-14.73,34.02-18.68,42.47-20.46,11.25-2.36,41.53-8.71,64.39,8.64,16.74,12.7,20.66,31.37,26.49,59.1,6.12,29.1,9.57,45.52,1.37,60-18.75,33.12-88.66,38.8-129.7,9.09-5.53-4-27.1-19.61-31.97-47.28-6.65-37.78,23.48-65.96,26.95-69.1Z"/>
    <path id="_2" data-name="2" class="cls-7" d="M224.63,115.37c4.8-5.83,10.26-3.14,17.66-11.01,8.13-8.65,5.96-15.15,12.41-18.81,9.89-5.61,25.74,3.55,29.12,5.51,13.89,8.02,12.13,15.32,24.35,20.65,10.82,4.72,14.26-.1,27.21,5.05,4.8,1.91,14.93,5.93,20.53,15.14,7.52,12.36-1.35,20.56,6.21,33.03,2.47,4.07,7.85,7.91,18.62,15.6,14.78,10.56,16.36,9.1,21.01,13.76,11.39,11.44,13.94,32.3,7.16,47.25-6.07,13.38-14.16,10.03-24.35,25.23-13.36,19.94-6.54,36.3-18.14,42.67-8.83,4.85-20.68-.29-25.3-2.29-49.3-21.39-31.29-94.38-83.55-127.08-7.64-4.78-20.52-11.04-29.12-25.69-6.49-11.05-11.9-29.18-3.82-39Z"/>
    <path class="cls-4" d="M167.7,197.54c-25.39,25.75-38.25,77.08-8.25,110.46,30.51,33.94,85.7,27.47,113.72,1.82,49.44-45.26-.59-136.64-5.94-135.92-5.77.78,13.75,112.82-16.9,123.65-10.84,3.83-16.15-8.15-56.17-15-8.1-1.39-17.62-2.56-22.84-10-1.29-1.84-4.36-6.99-2.28-21.82,1.85-13.21,5.02-35.79,24.66-49.55,3.86-2.7,14.14-9.09,28.32-9.55,5.95-.19,15.84-.51,24.21,5.91,11.56,8.87,12.11,24.37,12.33,30.46.34,9.41-2.32,11.55-3.91,17.58-.36,1.38-.89,3.72-1.11,8.33-.81,16.7,3.95,28.62-.91,37.28-5.97,10.63-23.02,10.24-22.61,12.05.34,1.51,12.5,3.17,22.84-2.27,3.25-1.71,6.32-4.12,8.22-2.95,2.38,1.46.75,7.18,1.14,7.27,1.34.32,38.08-60.53,11.87-100.46-1.82-2.77-17.97-26.52-47.95-30-32.31-3.76-54.79,19.04-58.43,22.73Z"/>
    <path id="_9" data-name="9" class="cls-7" d="M169.11,187.08c8.88-20.94,33.04-28.71,35.76-29.55,18.2-5.58,46.33-5.71,52.7,7.27,2.65,5.4,1.62,13.24-2.82,17.73-7.43,7.51-18.71-.11-39.52,1.82-26.71,2.48-42.92,18.25-47.52,13.18-2.06-2.27-.11-6.87,1.41-10.46Z"/>
    <path id="_7" data-name="7" class="cls-7" d="M209.69,157.99c-5.26-6.89-82.61,19.53-99.1,78.19-7.38,26.26-2.98,60.44,9.13,64.1,10.13,3.06,24.17-15.69,27.4-20,16.38-21.87,12.38-38.29,21.46-63.64,14.47-40.4,44.5-54.2,41.1-58.64Z"/>
    <path id="_8" data-name="8" class="cls-7" d="M246.34,162.99c-2.32,3.15-1.45,7.35,3.54,18.64,10.39,23.51,15.58,25.63,17.71,35.46,2.75,12.72-4.89,14.01-8.09,35.46-.59,3.95-5.91,41.91,10.62,49.09,4.93,2.14,11.72-.09,25.3-4.55,20.05-6.59,31.67-10.41,38.45-20.91,4.87-7.55,4.95-15.01,5.06-25.91.05-5.26.06-16.08-4.76-28.12-3.42-8.53-6.45-10.64-33.18-38.25-16.17-16.7-20.63-21.68-30.35-24.09-7.93-1.96-20.15-2.42-24.28,3.18Z"/>
    <path id="_5" data-name="5" class="cls-7" d="M130.22,283.45c6.59-5.22,15.16-5.69,25.58-4.55,43.01,4.71,47.85,29.14,76.73,30.46,25,1.14,59.67-15.42,79.92-30,4.95-3.56,13.16-9.98,19.64-7.27,9.07,3.79,9.88,23.44,8.68,33.18-4.85,39.17-62.2,79.75-119.66,78.19-43.59-1.19-92.67-26.77-100.02-60.91-2.18-10.15-2.56-29.82,9.13-39.09Z"/>
    <path class="cls-4" d="M196.98,171.93c6.17-5.17,9.33-5.72,10.66-9.92.54-1.7.65-3.61,2.36-5.15,1.69-1.53,3.84-1.69,5.86-1.82,7.42-.47,11.13-.7,12.6-.67,0,0,9.47.23,20.6,2.97.65.16,2.44.62,2.5,1.4.07.88-2.07,1.27-3.58,2.58-3.03,2.63-2.38,8-2.13,10.08.98,8.12,6.15,11.77,4.8,13.41-1.42,1.71-8.29-.78-8.22-2.27.02-.48.76-.52,1.45-1.21,1.78-1.79.72-5.45-.61-10.38-2.44-9.07-2.09-8.79-2.51-9.32-4.37-5.56-17.14-4.39-25.58,0-6.73,3.51-5.26,5.87-15.38,14.09-1.07.87-3.58,2.87-3.27,5.08.22,1.59,1.79,2.56,2.06,2.73,3.24,2.02,7.24-.56,13.17-2.27,2.31-.67,10.59-3.1,19.41-1.44,6.03,1.14,9.82,3.65,12.71,1.52,2.18-1.61,1.96-4.46,3.29-4.55,1.91-.14,5.07,5.46,3.48,8.04-1.57,2.54-7.11,1.04-15.9.08-3.81-.42-16.67-1.65-27.23-.13-16.31,2.35-26.25,11.12-27.74,9.04-.66-.92,1.26-3.41,5.1-8.39,4.51-5.85,7.3-9.46,12.1-13.49Z"/>
    <path class="cls-4" d="M222.02,136.63c1.12-.57,3.16,5.34,9.64,9.49,5.17,3.31,10.61,3.86,15.71,4.38,6.05.61,6.47-.33,11.87,0,9.13.57,15.82,3.77,21.45,6.46,6.76,3.23,11.76,5.7,15.56,11.21,1.91,2.77,1.15,2.88,3.17,5.97,4.01,6.12,8.33,7.72,15.3,13.18,3.52,2.76,5.85,5.1,10.5,9.77,6.73,6.75,11.43,11.48,15.3,17.96,5.45,9.12,6.8,17.62,7.54,22.5,2.01,13.41-1.56,16.34-1.83,36.37-.29,21.7,2.55,26.16,5.48,28.41,7.06,5.44,18.43,1.09,18.95,3.41.36,1.61-4.93,4.67-9.97,5.54-3.24.56-6.2-.07-12.13-1.32-6.11-1.29-7.02-2.23-7.46-2.81-1.69-2.24-.15-4.3.1-9.83.14-3.17.51-11.13-3.2-17.96-.91-1.67-2.47-4.03-2.07-7.05.2-1.48.73-2.08,1.38-3.86.87-2.37,1-4.27,1.14-7.96.29-7.75.44-11.63.23-15.23-.33-5.61-.58-9.92-1.87-14.82-2.14-8.14-5.98-13.51-10.69-19.95-4.49-6.14-8.63-10.23-16.9-18.41-8.15-8.06-7.61-6.71-13.7-12.96-10.37-10.62-10.55-13.1-16.44-16.14-6.71-3.47-13.97-4.12-16.44-4.32-6.58-.54-6,.9-11.11.08-9.01-1.45-11.69-6.03-17.89-4.62-1.78.41-3.97,1.33-5.22.24-1-.87-.47-2.23-1.41-4.56-.76-1.88-1.69-2.46-2.74-3.86-2.71-3.63-3.28-8.81-2.28-9.32Z"/>
    <path class="cls-4" d="M66.28,250.5c-4.07,1.26-11.3-11.15-12.55-13.29-.61-1.04-3.25-5.64-5.72-13.08-2.86-8.6-4.94-14.86-2.48-17.04,3.13-2.77,9.67,4.53,15.73,2.49,8.4-2.83,3.18-19.32,11.19-32.96,10.58-18.01,30.99-8.48,65.08-30.46,16.27-10.49,16.88-15.35,28.77-18.18,19.84-4.72,30.13,6.63,42.02-.68,13.34-8.2,13.79-30.72,19.63-29.99,1.83.23,3.66,2.68,5.72,5.45,2.01,2.7,3.47,4.67,2.83,6.15-.95,2.19-5.41.51-9.45,3.62-2.15,1.66-3.18,3.63-3.88,5-5.5,10.77.55,25.52.91,26.37,1.93,4.55,4.55,8.38,3.2,9.77-.69.71-1.65-.02-4.57.23-4.23.36-5.56,2.17-7.76,1.36-1.36-.5-2.03-1.62-2.74-2.73,0,0-1.04-1.63-7.17-9.57-4.6-5.96-13.68-6.61-22.51-7.25-2.7-.19-7.86-.53-13.93.68-11.16,2.23-14.96,7.64-26.97,15.4-11.56,7.47-23.44,15.16-39.45,18.13-5.24.97-12.19,1.68-18.76,6.92-2.05,1.63-6.92,5.63-7.99,11.82-.7,4.08.89,5.38,2.06,12.27,1.23,7.27.67,13.01.28,17.07-.35,3.58-1.08,10.63-4.16,18.16-1.14,2.79-1.21,2.24-4.11,8.64-2.08,4.6-2.28,5.4-3.2,5.68Z"/>
    <path class="cls-4" d="M126.54,336.42c-1.35-2.27-2.83-4.8-4.08-8.41-1.67-4.81-3.22-12.43-1.83-13.03,2.2-.94,8.37,16.85,19.39,29.78,26.51,31.11,76.89,29.26,91.74,28.71,12.81-.47,35.18-1.56,59.07-15.15,20.51-11.67,32.05-26.83,34.4-30,10.85-14.62,14.66-27.95,15.64-27.56,1.07.42-1.97,16.66-11.66,31.96-9.89,15.61-22.68,23.84-31.69,29.55-34.42,21.79-69.43,21.4-76.42,21.21-5.34-.14-25.43-1-48.71-10.61,0,0-23.03-9.73-36.99-24.67-5.12-5.48-8.86-11.77-8.86-11.77Z"/>
    <path class="cls-4" d="M303.62,357.7c1.98,1.71,5.02,3.74,8.71,3.71,4.71-.05,9.26-3.45,18.99-17.95,11.48-17.09,9.2-18.39,14.31-23.03,11.88-10.79,23.03-1.21,33.49-11.21,11.81-11.28,4.05-23.27,17.05-43.34,9.16-14.14,15.24-11.63,20.7-23.64,6.48-14.23,5.77-34.94-4.87-47.58-2.44-2.9-12.08-8.8-31.36-20.61-7.84-4.8-14.9-8.92-16.14-16.06-.39-2.26.29-6.12-1.83-10.91-.23-.52-2.25-5.08-3.53-4.8-1.75.39-2.48,9.85.74,17.81,1.45,3.57,3.91,7.39,11.93,13.96,15.75,12.9,21.47,10.6,29.93,20.23,1.42,1.62,7.49,8.77,9.98,19.88.87,3.89,3.38,15.12-2.16,25.95-2.54,4.96-6.06,8.46-9.13,11.52-5.54,5.51-6.9,4.84-11.27,9.09-9.41,9.17-12.17,21.08-12.46,22.43-1.3,5.97-.27,7.81-2.46,14.24-1.74,5.09-2.96,8.67-6.39,11.21-5.16,3.81-13.54,4.16-19.28,1.35-2.79-1.37-5.34-3.77-7.46-2.81-2.22,1.01-2.32,4.98-2.49,6.92-.79,9.21-6.83,16.19-16.44,27.27-3.98,4.59-10.02,10.65-18.57,16.36Z"/>
    <path class="cls-4" d="M259.09,282.5c2.79-3,11.65,8.03,23.21,7.09,11.69-.95,11.85-12.89,30.14-20,7.58-2.94,10.65-2.1,14.84-6.14,7.13-6.86,6.97-17.65,6.85-20.91-.39-10.57-4.98-18.23-8.45-23.87-6.17-10.01-9.6-10.18-20.78-25-4.43-5.88-10.04-13.99-9.36-14.55.4-.32,2.78,2.1,11.65,10.91,13.71,13.62,13.98,13.76,15.76,15.91,4.28,5.2,9.02,10.96,12.34,19.77,3.12,8.27,3.33,14.78,3.63,24.55.22,6.95.7,22.69-3.86,23.88-1.78.47-2.4-1.78-5.49-2.74-5.75-1.79-10.58,3.84-25.42,13.52-6.41,4.18-9.62,6.28-14.54,8.52-6.36,2.91-7.62,2.47-13.47,5.68-3.23,1.77-4.17,2.64-6.02,2.5-5.28-.39-8.58-8.25-9.51-10.46-1.43-3.41-2.99-7.11-1.52-8.69Z"/>
    <path class="cls-4" d="M202.38,151.02c1.78-4.85-12.74-13.26-11.72-14.85.69-1.08,8.22,1.61,14.37,6.79.78.66,10.08,8.6,8.33,11.75-.47.85-1.46.84-5.96,1.76-2.65.54-5.26,1.3-7.92,1.82-3.08.6-25.18,6.09-47.8,23.03-8.79,6.58-21.27,15.94-31.36,33.03-2.21,3.75-12.06,21-13.4,45.15-.93,16.77,2.3,35.72,10.05,38.18,1.11.35,2.65.47,3.96,1.82,3.34,3.43.49,9.94-.3,15.46-1.9,13.24,7.47,25.05,11.87,30.61,4.17,5.26,10.09,9.46,21.92,17.88,5.21,3.71,7.88,5.01,8.83,5.45,4.74,2.24,7.33,2.46,7.31,3.33-.05,1.7-9.91,3.06-17.91,3.21-2.91.05-6.51.11-11.27-.57-2.91-.41-13.18-2.09-24.17-8.92-3.84-2.39-6.29-3.94-8.45-7.05-2.15-3.09-1.93-4.7-4.26-11.21-3.02-8.41-5.83-12.51-5.16-12.94.66-.43,4.05,3.23,6.69,6.88,6,8.31,4.87,12.06,8.53,16.67,7.06,8.88,23.12,9.78,24.97,6.36.78-1.45-1.73-4.71-6.79-11.16-4.77-6.08-8.73-10.29-9.35-10.96-7.97-8.58-8.06-18.65-11.42-31.37-5.49-20.84-12.4-21.01-16.29-35.31-9.72-35.71,22.89-73.32,27.06-78.14,13.94-16.1,31.54-26.08,41.75-31.87,11.48-6.5,17.21-9.76,24.81-11.21,6.85-1.31,12.11-.95,13.09-3.64Z"/>
    <path class="cls-4" d="M107.84,250.55c1.34-.07-1.27,21.43,8.99,27.15,6.73,3.75,15.84-1.05,17.43-1.89,7.23-3.81,10.59-10.98,16.37-22.81,2.3-4.7,2.18-5.26,5.02-10.91,2.9-5.75,8.77-16.6,10.01-16.07.73.31-.85,4.31-3.01,13.95-2.65,11.86-1.97,13.66-4.57,21.21-1.41,4.08-.9,1.36-5.78,12.12-.8,1.76-1.6,3.56-3.5,4.7-2.28,1.37-4.27.67-7.11.78-5.84.22-10.18,3.66-11.46,4.67-5.17,4.09-7.15,10-7.92,12.27-1.34,4-.89,5.49-1.83,5.76-2.94.86-11.15-12.84-13.09-26.82-.36-2.61-.49-5.09-.58-6.97-.43-8.62.19-17.11,1.03-17.15Z"/>
    <path class="cls-4" d="M149.91,182.66c.24.39,4.95-2.55,15.02-6.64,10.04-4.07,19.94-8.09,21.77-5.61,1.52,2.06-4.03,6.56-9.44,16.97-6.71,12.91-8.21,25.27-7.29,25.58.88.3,2.9-11.05,12.62-23.61,2.2-2.85,8.66-11.19,15.83-17.43.07-.06,2.85-2.48,6.09-6.21,3.82-4.4,5.72-6.59,5.18-7.73-1.33-2.75-16.59,1.09-29.08,6.21-17.99,7.38-31.11,17.78-30.7,18.46Z"/>
    <path class="cls-4" d="M63.26,314.97c-1.91-.7.74-20.98,7.58-22.08,3.88-.63,7.65,5.16,13.84,14.9,3.66,5.76,8.87,14.87,18.29,37.18,3.74,8.85,3.95,9.85,5.78,12.43,8,11.23,20.34,15.05,23.75,16.06,10.79,3.19,23.43,2.69,29.84.91.89-.25,3.36-.99,6.7-.91,4.92.12,8.5,1.97,9.44,2.42,7.57,3.68,30.44,8.25,46.89,8.49,15.73.23,27.05-3.49,45.97-9.7,14.95-4.91,22.42-7.36,26.18-12.43.78-1.06,2.79-4.02,6.09-4.55,3.52-.56,5.94,2.09,8.71,3.71,10.46,6.1,31.18.64,41.43-8.8,1.64-1.51,4.39-4.39,6.53-3.62,1.8.65,2.27,3.55,3,8.1.81,5.03,1.25,7.79-.15,10.91-.23.5-2.63,5.53-6.34,5.7-3.4.15-4.32-3.95-8.12-5.7-5.8-2.67-12.09,2.99-20.57,6.58-11.12,4.71-13.73.67-29.97,3.42-9.39,1.59-7.69,2.8-34.71,12.43-22.12,7.88-28.58,8.96-34.4,9.39-10.42.77-18.66-.54-22.23-1.21-20.32-3.83-21.68-11.98-38.97-15.15-16.13-2.96-17.56,3.77-33.36-.4-4.51-1.19-17.9-4.92-27.83-16.57-3.81-4.47-4.61-7.18-9.74-18.49-12.11-26.69-19.43-42.51-25.88-41.82-4.64.49-6.46,9.26-7.74,8.79Z"/>
    <path class="cls-2" d="M68.91,143.49c1.41,3.97,4.82,6.86,6.58,5.54,2.49-1.87-.63-10.45,2.26-20.31,2.57-8.77,9.32-13.6,10.9-14.77,5.26-3.9,10.74-5.28,11.66-5.51,4.81-1.16,7.9-.67,7.99-1.36.15-1.08-6.97-4.5-14.31-3.59-8.96,1.11-14.86,7.96-17.68,12.31-.71,1.1-11.07,17.37-7.4,27.7Z"/>
    <path class="cls-2" d="M215.32,167.69c.2,1.49,4.7,2.15,7.61,2.12,4.67-.05,10.11-1.94,10.05-3.64-.06-1.59-4.93-3.08-9.13-2.73-4.26.36-8.74,2.69-8.53,4.24Z"/>
    <path class="cls-2" d="M197.66,209.51c.34,1.35,5.01,1.24,6.09,1.21,9.54-.22,11.39-6.55,18.79-6.63,5.75-.06,6.39,3.74,15.31,4.5,2.71.23,8.45.38,8.73-.9.42-1.94-11.4-8.46-24.26-8.19-13.21.28-25.25,7.68-24.66,10Z"/>
    <path class="cls-2" d="M84.97,201.8c1.27.87,3.34-.75,4.42-2.56,1.38-2.3.78-4.27,1.52-6.6.96-3.02,3.39-4.14,7.46-5.85,12.62-5.29,17.44-6.34,17.91-10.15.03-.25.21-1.68-.46-2.62-1.53-2.15-5.69.95-13.42,4.11-9.17,3.75-11.88,2.91-15.15,7.28-.62.83-2.82,3.93-3.37,8.78-.07.65-.72,6.36,1.09,7.6Z"/>
    <path class="cls-2" d="M156.56,149.81c.25,1.44,2.82,2.07,3.04,2.12,3.28.76,4.68-1.83,9.44-3.33,5.86-1.85,9.34.32,11.57-2.42.08-.1,1.55-1.95.91-3.33-1.21-2.64-9.17-1.74-14.61,0-4.48,1.43-10.76,4.57-10.35,6.97Z"/>
    <path class="cls-2" d="M232.67,117.99c-.01,1.03,1.75,1.82,2.44,2.12,6.57,2.92,15.84-1.72,21.31-7.27,1.04-1.05,9.09-9.39,6.39-15.46-.18-.39-1.18-2.65-2.74-2.73-3.34-.16-3,9.95-10.05,16.06-7,6.07-17.33,4.78-17.35,7.27Z"/>
    <path class="cls-2" d="M324.32,123.44c-.09.86,6.93,0,12.18,4.85,5.42,5.01,4.9,12.37,8.53,12.73,1.35.13,2.74-.75,3.35-1.82,2.03-3.53-3.06-11.48-9.74-14.85-6.67-3.36-14.22-1.8-14.31-.91Z"/>
    <path class="cls-2" d="M396.25,196.86c-1.78.22-3.25,2.39-3.65,4.32-1.3,6.15,8.41,8.9,9.13,16.82.63,6.93-6.33,10.13-4.34,16.14.93,2.82,3.61,5.56,5.71,5.23,3.69-.59,5.74-10.67,5.25-18.64-.73-11.96-7.5-24.44-12.1-23.87Z"/>
    <path class="cls-2" d="M416.57,305.5c1.23-3.05,4.5-4.43,7.08-4.55,1.77-.08,5.13.35,6.17,2.5,1.49,3.08-2.37,8.45-6.85,9.55-.6.15-3.54.87-5.48-.91-1.89-1.73-1.65-4.77-.91-6.59Z"/>
    <path class="cls-2" d="M142.71,292.55c-1.33,1.74-.79,4.53,1.17,6.06,3.26,2.55,7.99-.33,16.31.3,11.9.9,17.37,7.92,21.75,5.76,2.08-1.02,2.81-3.56,2.33-5.45-1.95-7.64-24.72-8.6-29.13-8.79-9.83-.41-11.77,1.25-12.43,2.12Z"/>
    <path class="cls-2" d="M148.46,194.38c-.27,2.12,3,4.58,5.94,5,6.22.88,11.33-7.36,10.05-9.55-1.61-2.75-15.46.44-15.98,4.55Z"/>
    <path class="cls-2" d="M267.74,180.89c-1.57,2.47-.14,7.9,1.99,11.02.45.66,3.68,5.4,7.47,3.89,3.14-1.25,4.99-6.15,4.38-9.61-1.17-6.56-11.39-9.14-13.83-5.3Z"/>
    <path class="cls-2" d="M222.93,426.19c-1.03.9,2,8.3,7.76,11.82,11.48,7,29.38-4.12,29-5.45-.33-1.15-14.26,5.71-27.4-.68-5.36-2.61-8.53-6.41-9.36-5.68Z"/>
    <path class="cls-2" d="M104.27,382.94c-1.57.9-.13,9.96,5.98,15.26,6.77,5.86,17.27,5.35,17.81,3.64.37-1.16-3.94-2.37-11.42-8.18-8.51-6.62-11.12-11.43-12.37-10.71Z"/>
    <path class="cls-2" d="M80.45,337.97c1.79-2.24-1.61-11.68-3.87-16.4-1.49-3.12-4.04-8.43-6.27-7.73-2.11.65-3.3,6.44-2.7,10.97,1.27,9.5,10.78,15.74,12.84,13.17Z"/>
    <path class="cls-2" d="M312.22,290.86c1.53-3.77,5.62-5.48,8.85-5.63,2.21-.1,6.41.43,7.71,3.09,1.86,3.81-2.96,10.46-8.56,11.82-.74.18-4.43,1.07-6.85-1.13-2.37-2.15-2.06-5.9-1.14-8.16Z"/>
    <g id="lignes">
      <path class="cls-6" d="M288.79,121.42c13.05,10.41,21.94,27.02,20.55,43.99-.43,5.63-2,11.12-4.45,16.11-.22.44-.74.62-1.18.4-.41-.2-.59-.67-.44-1.09,5.56-15.12,3.16-32.19-5.65-45.57-2.85-4.49-6.21-8.71-10-12.53-.77-.75.31-2.02,1.17-1.32h0Z"/>
      <path class="cls-6" d="M313.26,157.96c11.73-3.05,20.13-12.44,21.97-24.39.09-.58.99-.53,1,.07.53,12.75-10.38,23.93-22.78,25.31-.6.07-.79-.82-.19-.98h0Z"/>
      <path class="cls-6" d="M315.7,185.38c13.46-3.64,24.9-12.38,32.53-23.99.31-.48,1.11-.07.89.47-5.31,13.48-18.94,23.06-33.23,24.5-.59.05-.77-.82-.19-.98h0Z"/>
      <path class="cls-6" d="M254.24,124.96c6.61,6.98,14.79,13.3,24.52,14.54,3.36.33,6.75-.19,10.19.87,4.66,1.29,8.52,4.45,11.08,8.19.33.46-.32,1.05-.75.67-4.86-4.34-10.65-7.26-17.32-6.6-4.63.21-9.47-1.03-13.56-3.25-2.07-1.13-3.94-2.34-5.8-3.73-3.67-2.78-6.82-6.22-9.17-10.09-.3-.5.39-1.05.8-.6h0Z"/>
      <path class="cls-6" d="M259.59,142.56c5.67,4.39,11.75,8.72,18.8,10.15,7.39.74,15.21,3.56,20.44,9.07.41.4-.13,1.1-.62.78-4.68-2.87-9.59-5.03-14.93-6.02-1.83-.39-3.61-.45-5.49-.86-3.87-.8-7.43-2.55-10.57-4.72-3.14-2.18-5.91-4.8-8.33-7.67-.38-.44.24-1.1.7-.72h0Z"/>
      <path class="cls-6" d="M350.67,195.14c-2.85,10.63-5.16,22.31-6.82,33.18-.08.57-.97.53-1-.05-.43-5.75.16-11.54,1.32-17.18,1.19-5.63,2.95-11.17,5.56-16.31.25-.52,1.09-.21.94.35h0Z"/>
      <path class="cls-6" d="M356.95,219.66c2.25-10.1,10.09-18.74,20.08-21.6.57-.17.91.66.37.93-6.54,3.33-12.08,8.35-16.11,14.46-1.33,2.04-2.45,4.23-3.39,6.52-.21.56-1.1.28-.95-.3h0Z"/>
      <path class="cls-6" d="M342.09,234.7c7.33-3.26,17.61-7.66,24.74-11.08,8.11-4.34,17.89-5.97,26.79-3.34.58.17.41,1.08-.22.98-4.4-.77-8.89-.81-13.22-.08-4.34.75-8.42,2.45-12.61,4.13-7.34,2.85-17.73,7.27-25.1,10.32-.58.24-1-.66-.38-.92h0Z"/>
      <path class="cls-6" d="M363.49,237.03c5.65,5,12.76,7.77,20.16,8.88.58.08.53.98-.06,1-7.82.34-15.51-3.53-20.79-9.15-.42-.44.23-1.13.69-.72h0Z"/>
      <path class="cls-6" d="M343.32,242.76c.32,13.22,7,26.05,17.53,34,.51.38-.06,1.19-.59.81-11.24-7.77-18.11-21.16-17.94-34.79,0-.63.98-.67,1-.01h0Z"/>
      <path class="cls-6" d="M392.87,155.69c8.72,11.48,14.96,25.21,16.53,39.62.06.6-.86.77-.99.15-2.12-10.49-5.42-20.75-10.68-30.1-1.73-3.11-3.61-6.16-5.67-9.08-.37-.51.41-1.11.81-.59h0Z"/>
      <path class="cls-6" d="M376.04,162.11c1.9,4.47,4.97,8.26,9.44,10.27,4.44,2.19,8.83,4.67,13.02,7.34.52.32.06,1.16-.49.87-3.94-1.74-9.48-4.59-13.42-6.48-4.76-2.13-8.25-6.65-9.49-11.68-.15-.58.7-.88.94-.33h0Z"/>
      <path class="cls-6" d="M415.02,152.01c2.25,7.96-.32,17.39-7.17,22.32-.48.37-1.09-.35-.64-.77,5.83-5.37,8.46-13.54,6.84-21.32-.12-.61.81-.84.97-.23h0Z"/>
      <path class="cls-6" d="M426.45,172.05c.41,8.32-4.59,16.88-12.37,20.13-.55.23-.98-.56-.46-.89,5-3.11,8.99-7.81,10.72-13.47.58-1.87.95-3.81,1.11-5.79.04-.61.98-.61,1,.02h0Z"/>
      <path class="cls-6" d="M435.25,206.8c.07,7.02-1.58,14.19-5.08,20.32-3.45,5.99-6.27,12.17-8.64,18.66-.2.56-1.09.33-.96-.28,1.47-6.82,4.26-13.41,7.8-19.39,1.7-2.94,3-6.06,3.98-9.31.96-3.26,1.55-6.63,1.91-10.05.06-.6,1-.58,1,.05h0Z"/>
      <path class="cls-6" d="M415.15,236.84c-.08,4.84-1.17,9.76-3.27,14.18-1.31,2.88-3.41,5.48-4.89,8.18-2.14,4.09-3.28,8.35-4.39,12.94-.07.27-.34.44-.62.38-.2-.05-.35-.21-.38-.4-.61-3.23-.29-6.62.69-9.81,1.88-6.31,6.95-10.59,9.14-16.67,1.17-2.84,2.04-5.84,2.73-8.91.12-.57,1.01-.48.99.12h0Z"/>
      <path class="cls-6" d="M414.09,278.12c3.06-.86,5.87-2.43,8.04-4.6,2.16-2.2,3.49-5.08,5.25-7.93,3.38-5.9,9.81-9.7,16.37-10.87.59-.11.84.75.27.96-4.47,1.72-8.69,3.92-11.96,7.37-3.44,3.54-4.82,8.29-8.66,11.78-2.56,2.33-5.79,3.77-9.1,4.26-.6.09-.81-.81-.21-.98h0Z"/>
      <path class="cls-6" d="M434.42,232.28c-7.47,25.06-23.94,47.4-45.74,61.88-3.12,2.06-6.32,3.97-9.63,5.67-.25.13-.55.03-.67-.22-.12-.23-.04-.51.17-.65,3.09-2.02,6.15-4.08,9.08-6.3,14.74-10.94,27.24-24.85,36.4-40.76,3.67-6.37,6.79-13.05,9.44-19.94.1-.26.39-.39.65-.29.25.09.37.36.3.61h0Z"/>
      <path class="cls-6" d="M383.67,307.02c3.45,1.25,6.97,2.07,10.61,2.27,3.71.04,7.62-.3,11.25.82,2.47.63,4.82,1.62,7.04,2.83.24.13.33.44.2.68-.12.23-.41.32-.64.22-2.25-.97-4.57-1.76-6.94-2.28-3.65-.9-7.26-.5-10.99-.51-3.83-.15-7.64-1.22-10.95-3.12-.52-.28-.14-1.12.42-.91h0Z"/>
      <path class="cls-6" d="M293.91,201.13c4.03,4.44,6.73,10.12,7.82,16.01.19.75.82,8.09-.97,6.13-.75-1.86-1.27-3.69-1.83-5.51-1.02-3.65-2.12-7.26-3.58-10.77-.7-1.77-1.49-3.52-2.27-5.32-.24-.5.47-.97.84-.55h0Z"/>
      <path class="cls-6" d="M280.54,211c18.78,11.59,32.77,31.4,36.5,53.24.09.57-.76.83-.97.25-5.26-15.34-13.35-29.56-24.42-41.43-3.66-3.95-7.58-7.68-11.7-11.25-.45-.37.08-1.14.59-.81h0Z"/>
      <path class="cls-6" d="M318.62,235.09c2.94,6.16,4.14,14.05.93,20.33-.25.47-1.01.23-.96-.29.22-3.36.83-6.53.71-9.88-.1-3.32-.69-6.59-1.61-9.79-.17-.57.67-.91.93-.37h0Z"/>
      <path class="cls-6" d="M279.93,253.87c9.22-1.82,19.2-.63,27.49,3.91.55.3.13,1.16-.45.89-8.36-3.88-17.75-5.33-26.86-3.82-.63.1-.81-.86-.18-.98h0Z"/>
      <path class="cls-6" d="M198.3,224.25c12.78-12.07,34.88-13.28,48.62-2.14.42.34.04,1.05-.47.88-11.72-3.68-23.94-4.9-35.87-1.83-3.94.94-7.8,2.32-11.72,3.93-.49.23-.96-.47-.55-.83h0Z"/>
      <path class="cls-6" d="M228.98,233.86c10.2-.96,20.64,2.53,28.37,9.21.48.42-.14,1.18-.65.76-7.59-6.46-17.72-9.7-27.65-8.97-.64.04-.73-.94-.08-1h0Z"/>
      <path class="cls-6" d="M175.01,228.72c18.88-6.34,39.05-.69,52.86,13.6,6.9,6.75,11.47,15.55,14.18,24.73,2.97,8.64,7.25,16.8,12.33,24.59.15.23.09.54-.14.69-.21.14-.48.1-.65-.08-8-8.55-13.62-19.31-17.62-30.32-6.29-14.3-18.9-25.82-33.72-30.78-8.55-2.74-17.88-2.97-27-1.46-.27.05-.53-.14-.58-.41-.04-.25.11-.49.34-.56h0Z"/>
      <path class="cls-6" d="M235.89,265.41c6.17,10.61,4.54,26.18-5.25,34.11-.4.32-1-.14-.8-.6,3.26-7.79,6-15.99,5.79-24.53,0-2.84-.3-5.69-.69-8.64-.09-.53.68-.81.94-.33h0Z"/>
      <path class="cls-6" d="M210.24,237.7c12.35,11.78,14.67,32.67,5.23,46.89-.31.48-1.09.1-.9-.44,4.01-11.35,3.92-23.59-.3-34.82-1.31-3.74-3-7.35-4.83-11.03-.26-.48.41-.99.8-.6h0Z"/>
      <path class="cls-6" d="M182.51,233.13c13.04,11.8,14.06,33.95,2.78,47.27-.36.45-1.11-.04-.83-.55,7.79-15,6.55-32.03-2.71-46.07-.32-.47.35-1.05.76-.65h0Z"/>
      <path class="cls-6" d="M123.78,274.36c-1.44-25.14,6.72-51.16,23.24-70.3.38-.44,1.14.09.8.6-9.96,15.7-17.46,32.91-20.79,51.23-1.13,6.08-1.87,12.25-2.25,18.47-.02.58-.97.64-1,0h0Z"/>
      <path class="cls-6" d="M138.84,224.47c7.06-.74,13.84-3.99,18.9-8.96.45-.46,1.18.26.7.71-2.69,2.47-5.73,4.57-9.04,6.1-3.3,1.55-6.82,2.59-10.43,3.13-.66.1-.8-.92-.13-.99h0Z"/>
      <path class="cls-6" d="M135.96,206.16c-1.84,4.84-3.09,9.7-2.82,14.91,0,.28-.22.52-.51.52-.21,0-.39-.12-.47-.3-2.22-5.11-1.24-11.88,2.97-15.7.38-.35,1.01.09.83.56h0Z"/>
      <path class="cls-6" d="M128.43,250.46c3.97-3.18,8.96-5.25,13.97-6.01,4.88-.64,8.7-3.76,11.44-7.76.33-.5,1.14-.03.86.5-1.64,3.48-4.48,6.67-8.11,8.24-3.55,1.44-7.37,1.49-10.88,2.94-2.29.81-4.54,1.81-6.75,2.93-.52.28-1.02-.49-.54-.84h0Z"/>
      <path class="cls-6" d="M121.57,234.79c-.35,3.74-.39,7.31.19,10.97.12,1.21.26,2.41.11,3.76-.03.3-.3.51-.6.48-.14-.02-.27-.09-.35-.19-1.77-2.15-1.95-4.96-1.96-7.6.04-2.65.55-5.3,1.65-7.68.22-.51,1.03-.29.97.26h0Z"/>
      <path class="cls-6" d="M256.56,364.81c19.77-8.93,37.81-22.09,49.37-40.7,3.88-6.1,7.14-12.62,9.69-19.44.1-.26.39-.39.64-.29.24.09.37.36.31.6-.96,3.56-2.19,7.05-3.62,10.46-7.11,17.16-19.83,31.94-35.61,41.74-6.36,3.86-13.25,6.89-20.46,8.59-.53.11-.91-.64-.33-.94h0Z"/>
      <path class="cls-6" d="M305.33,301.15c1.67,10.61-2.15,22.24-10.33,29.32-.43.38-1.09-.22-.73-.68,6.29-8.26,9.98-18.11,10.07-28.57,0-.59.91-.67,1-.07h0Z"/>
      <path class="cls-6" d="M305.01,335.55c6.28-1.87,12.1-5.14,16.82-9.71.44-.44,1.15.24.71.7-2.28,2.48-4.96,4.61-7.88,6.31-2.92,1.7-6.1,2.97-9.4,3.68-.61.13-.85-.78-.25-.97h0Z"/>
      <path class="cls-6" d="M271.14,365.09c2.82.27,5.59.27,8.37-.14.92-.14,1.82-.3,2.83-.16.47.05.63.71.24.97-1.72,1.16-3.83,1.08-5.79,1.17-1.98,0-3.97-.28-5.85-.86-.27-.08-.41-.36-.33-.63.07-.23.3-.37.53-.35h0Z"/>
      <path class="cls-6" d="M280.06,318.77c.95,13.32-4.83,27.77-16,35.52-.46.33-1.05-.32-.67-.74,6.34-7.39,11.6-15.67,13.96-25.18.82-3.13,1.36-6.34,1.71-9.61.05-.59.96-.6,1,.01h0Z"/>
      <path class="cls-6" d="M209.58,320.46c-.12,13.85,6.71,26.47,17.58,34.85.46.35-.02,1.12-.54.84-12.84-6.4-20.05-21.73-18.04-35.76.09-.6,1-.55,1,.07h0Z"/>
      <path class="cls-6" d="M202.41,373.43c4.23-1.89,8.73-3.37,13.4-3.49.29,0,.51.24.51.53,0,.19-.11.35-.26.44-2.06,1.16-4.27,1.83-6.53,2.37-2.26.54-4.53.98-6.86,1.11-.54.04-.74-.75-.25-.97h0Z"/>
      <path class="cls-6" d="M168.33,360.85c6.58-2.24,13.42-3.96,20.4-4.09.28,0,.51.24.5.52,0,.21-.13.38-.31.46-3.24,1.37-6.62,2.15-10.05,2.79-3.42.64-6.86,1.15-10.35,1.3-.56.03-.72-.8-.2-.98h0Z"/>
      <path class="cls-6" d="M138.45,332.68c3.65-.12,6.85,1.2,10.16,2.43,3.25,1.27,6.44,2.63,9.48,4.39.48.26.2,1.04-.33.94-1.75-.24-3.45-.62-5.14-1.03-3.36-.86-6.69-1.84-9.93-3.1-.66-.28-6.47-2.92-4.24-3.64h0Z"/>
      <path class="cls-6" d="M154.28,303.41c4.92,9.19,9.74,18.65,12.33,28.79.13.53-.63.86-.92.39-2.92-4.4-4.98-9.2-6.98-14.05-1.97-4.83-3.84-9.71-5.36-14.74-.18-.55.65-.91.92-.39h0Z"/>
      <path class="cls-6" d="M179.89,310.46c-.47,13.18,4.39,26.18,12.96,36.15.41.46-.3,1.13-.73.68-9.59-9.51-14.5-23.47-13.22-36.89.06-.62,1.01-.58,1,.06h0Z"/>
      <path class="cls-6" d="M242.55,323.98c9.28,15.66,9.31,36.64-.92,51.86-.34.5-1.15.06-.86-.51,8.37-15.71,8.87-34.91.9-50.88-.27-.55.56-1.03.88-.47h0Z"/>
      <path class="cls-6" d="M139.3,308.46c17.14,21.47,39.76,38.52,65.29,48.71,8.46,3.47,17.17,6.27,26.06,8.68.27.07.43.35.35.61-.07.25-.31.4-.55.37-27.61-4-53.38-17.96-73.65-36.89-6.78-6.34-12.9-13.37-18.29-20.88-.16-.22-.11-.54.11-.7.22-.15.52-.11.68.09h0Z"/>
      <path class="cls-6" d="M283.7,378.93c4.11,9.67,8.27,19.19,13.48,28.33.29.5-.44,1.02-.82.58-3.56-4-6.45-8.57-8.79-13.38-1.19-2.4-2.19-4.9-3.03-7.44-.81-2.55-1.47-5.16-1.8-7.82-.08-.55.75-.79.96-.27h0Z"/>
      <path class="cls-6" d="M278.13,378.31c-4.09,7.68-8.3,15.04-11.51,23.08-3.25,7.99-5.42,16.32-6.96,24.84-.09.57-.99.53-1-.07-.27-13.29,3.44-26.73,10.29-38.12,2.35-3.78,5.09-7.33,8.38-10.33.4-.38,1.06.13.79.61h0Z"/>
      <path class="cls-6" d="M274.88,402.03c1.5,6.91,4.25,13.53,8.86,18.97.4.47-.31,1.12-.74.67-5.13-5.14-8.7-12.2-9.11-19.51-.03-.6.86-.72.99-.14h0Z"/>
      <path class="cls-6" d="M236.53,402.52c12.02-3.01,22.12-10.38,29.83-19.95.36-.46,1.12.05.83.56-6.15,11.06-18.15,18.29-30.45,20.36-.61.1-.82-.81-.21-.98h0Z"/>
      <path class="cls-6" d="M257.79,400.95c-3.17,10.09-12.48,17.79-22.67,20.11-.56.13-.85-.71-.32-.95,6.82-3.17,12.89-7.68,17.61-13.54,1.6-1.91,3.03-3.95,4.48-6.05.3-.47,1.08-.1.9.43h0Z"/>
      <path class="cls-6" d="M152.81,382.97c10.58,1.03,21.15,2.16,31.66,3.79.27.04.46.3.42.57-.04.26-.28.44-.53.42-5.3-.42-10.58-1.03-15.86-1.69-5.28-.64-10.55-1.33-15.81-2.1-.62-.09-.52-1.05.12-.99h0Z"/>
      <path class="cls-6" d="M134.6,394.49c21.69,4.12,42.9,1.28,63.62-5.88.54-.19.94.62.4.91-14.49,8.09-31.69,10.67-48.09,9.14-5.49-.56-10.91-1.61-16.16-3.2-.57-.17-.39-1.08.23-.97h0Z"/>
      <path class="cls-6" d="M188.37,397.65c-3.54,3.53-7.48,6.55-11.87,8.94-.49.27-.99-.41-.6-.8,3.51-3.56,7.5-6.52,11.87-8.94.49-.27,1,.41.6.8h0Z"/>
      <path class="cls-6" d="M99.77,320.97c7.79,1.31,13.97,7.24,17.73,13.93,3.89,6.4,8.94,11.88,14.95,16.36.49.37-.03,1.16-.57.82-6.47-4.05-12.03-9.63-16.08-16.08-2-3.13-4.04-6.12-6.96-8.42-2.8-2.31-5.98-4.1-9.37-5.66-.53-.22-.26-1.08.3-.95h0Z"/>
      <path class="cls-6" d="M102.69,273.06c1.4,5.62,2.15,11.31,2.56,17.06.11,1.92.17,3.84.07,5.78-.02.28-.25.49-.53.48-.22-.01-.4-.16-.46-.37-1.05-3.72-1.6-7.52-2.02-11.34-.4-3.81-.7-7.63-.6-11.5,0-.57.87-.67.99-.11h0Z"/>
      <path class="cls-6" d="M69.99,269.44c11.57,7.82,20.64,19.53,24.95,32.84.18.58-.68.93-.94.35-4.07-9.44-9.71-18.19-16.95-25.51-2.4-2.44-4.97-4.72-7.65-6.88-.48-.38.06-1.16.59-.81h0Z"/>
      <path class="cls-6" d="M110.44,217.66c-2.12,8.56-4.66,17.45-7.24,25.89-.58,4.72-2.8,10.8-5.83,15.14-.34.5-1.15.04-.86-.52,1.25-2.36,2.3-4.8,3.13-7.31.83-2.56,1.41-5.19,1.78-7.84,1.05-3.75,2.71-9.09,3.86-12.87,1.35-4.27,2.71-8.54,4.2-12.77.2-.57,1.11-.33.96.28h0Z"/>
      <path class="cls-6" d="M87,210.37c5.08,8.39,3.3,18.8-.8,27.2-.79,1.7-1.71,3.32-2.4,4.96-1.41,3.22-1.35,6.98-.31,10.41.19.59-.73.92-.95.32-1.32-3.57-1.56-7.69-.09-11.27.71-1.79,1.58-3.4,2.29-5.07,3.87-8.15,5.26-17.72,1.36-26.1-.25-.55.59-.99.9-.45h0Z"/>
      <path class="cls-6" d="M101.55,199.87c3.76,9.07,3.89,19.91-.39,28.87-2.06,4.41-4.39,8.58-6.16,13.06-7.18,18.48-7.21,37.53,4.42,54.23,2.69,3.95,5.77,7.65,9.17,11.06.2.2.2.51,0,.71-.19.19-.48.19-.68.03-20.84-17.86-25.76-41.84-15.64-67.12,1.85-4.61,4.46-8.82,6.57-13.06,4.37-8.36,4.87-18.32,2.72-27.77h0Z"/>
      <path class="cls-6" d="M213.91,96.47c3.7,2.88,3.16,10.03-1.43,11.84-.29.11-.62-.04-.73-.33.11-1.93,1-3.78,1.24-5.63.32-1.8.22-3.46.05-5.39-.07-.47.52-.79.87-.49h0Z"/>
      <path class="cls-6" d="M200.22,94.61c8.5,12.32,5.34,30.3-6.48,39.33-.43.35-1.05-.23-.73-.68,8.35-11.84,11.39-24.29,6.31-38.2-.2-.53.59-.93.89-.45h0Z"/>
      <path class="cls-6" d="M182.88,92.61c4.01,7.42,8.71,14.74,12.93,22.05.27.47-.36.99-.77.64-1.72-1.39-3.23-2.99-4.62-4.69-1.37-1.71-2.63-3.52-3.72-5.43-2.19-3.8-3.94-7.9-4.77-12.23-.11-.54.68-.83.94-.35h0Z"/>
      <path class="cls-6" d="M150.32,111.36c-1.32,5.62-2.16,11.08-1.58,16.81.83,5.98-.37,12.84-4.87,17.15-.38.4-1.06-.07-.82-.57,1.18-2.66,2.02-5.33,2.38-8.01.37-2.68.09-5.34-.15-8.31-.52-6,.91-12.34,4.11-17.45.28-.48,1.06-.16.92.38h0Z"/>
      <path class="cls-6" d="M118.84,107.23c.75,4.14,2.01,8.21,4.29,11.77,2.36,3.61,4.3,7.59,5.29,11.81.15.61-.77.87-.96.26-1.19-4.08-3.1-7.86-5.42-11.41-2.3-3.71-3.64-7.98-4.19-12.29-.08-.63.87-.79.99-.15h0Z"/>
      <path class="cls-6" d="M88.95,122.49c19.13-.54,38.71,11.62,45.36,29.8.19.51-.53.93-.87.49-8.46-10.78-18.92-19.58-31.59-24.85-4.17-1.76-8.51-3.17-13.01-4.45-.54-.13-.45-.99.12-.99h0Z"/>
      <path class="cls-6" d="M79.86,152.63c5.47-7.36,18.21-14.64,27.51-11.74.46.14.48.83.03,1-3.62,1.56-7,2.06-10.61,3.13-5.87,1.78-11.24,4.7-16.23,8.32-.44.34-1.05-.27-.7-.71h0Z"/>
      <path class="cls-6" d="M98.1,166.53c4.78-7.94,16.27-14.54,25.35-10.17.44.22.33.91-.15.99-6.73,1.18-13.19,1.85-18.93,5.77-1.9,1.19-3.72,2.57-5.51,4.06-.41.37-1.07-.18-.76-.65h0Z"/>
      <path class="cls-6" d="M53.87,216.61c1.97-10.26,8.29-20.56,18.01-25.05.49-.22.95.45.57.82-5.36,5.44-10.71,10.8-14.29,17.6-1.24,2.21-2.31,4.53-3.33,6.9-.21.54-1.07.29-.96-.28h0Z"/>
    </g>
  </g>
</svg>