<?xml version="1.0" encoding="utf-8"?>
<!-- Generator: Adobe Illustrator 28.3.0, SVG Export Plug-In . SVG Version: 6.00 Build 0)  -->
<svg version="1.1" id="Calque_1" xmlns="http://www.w3.org/2000/svg" xmlns:xlink="http://www.w3.org/1999/xlink" x="0px" y="0px"
	 viewBox="0 0 210 210" style="enable-background:new 0 0 210 210;" xml:space="preserve">
<style type="text/css">
	.st0{fill:#ECA438;}
	.st1{fill:#F7FAF7;}
	.st2{fill:#FCC835;}
	.st3{fill:#F9D438;}
	.st4{fill:#F7E289;}
	.st5{display:none;}
	.st6{display:inline;fill:#313131;}
	.st7{display:inline;fill:#E5E5E5;}
	.st8{display:inline;opacity:0.5;fill:#E5E5E5;enable-background:new    ;}
	.st9{display:none;fill:#313131;}
	.st10{opacity:7.000000e-02;}
	.st11{fill:#282828;}
	.st12{enable-background:new    ;}
	.st13{clip-path:url(#SVGID_00000129890593305945436480000003861963472679804813_);enable-background:new    ;}
	.st14{fill:#848484;}
	.st15{fill:#888888;}
	.st16{fill:#8D8D8D;}
	.st17{fill:#919191;}
	.st18{fill:#969696;}
	.st19{fill:#9A9A9A;}
	.st20{fill:#9F9F9F;}
	.st21{fill:#A3A3A3;}
	.st22{fill:#A8A8A8;}
	.st23{fill:#ADADAD;}
	.st24{fill:#B1B1B1;}
	.st25{clip-path:url(#SVGID_00000173846990494099368990000016060321140572387988_);enable-background:new    ;}
	.st26{fill:#767676;}
	.st27{fill:#747474;}
	.st28{fill:#BABABA;}
	.st29{fill:#B5B5B5;}
	.st30{clip-path:url(#SVGID_00000048470621475697594780000009774428052910684067_);enable-background:new    ;}
	.st31{fill:#7F7F7F;}
	.st32{fill:#7B7B7B;}
	.st33{clip-path:url(#SVGID_00000122692232608179308900000012803934662782958265_);enable-background:new    ;}
	.st34{fill:#C4C4C4;}
	.st35{clip-path:url(#SVGID_00000007417453302806109980000010560397225362395830_);enable-background:new    ;}
	.st36{fill:#808080;}
	.st37{fill:#858585;}
	.st38{fill:#898989;}
	.st39{fill:#8E8E8E;}
	.st40{fill:#144E68;}
	.st41{fill:#797979;}
	.st42{fill:#1A6384;}
	.st43{fill:#3F6170;}
	.st44{fill:#1A5E82;}
	.st45{fill:#2692C2;}
	.st46{fill:#527E91;}
	.st47{fill:#144A67;}
	.st48{fill:#3F5F70;}
	.st49{fill:#527B91;}
	.st50{fill:#1A6283;}
	.st51{fill:#79BAD6;}
	.st52{fill:#268BC0;}
	.st53{fill:#79B5D5;}
	.st54{clip-path:url(#SVGID_00000088844123981734345380000009735567705939355822_);enable-background:new    ;}
	.st55{clip-path:url(#SVGID_00000139975050386092185180000006396249009860155578_);enable-background:new    ;}
	.st56{fill:#16536E;}
	.st57{fill:#165672;}
	.st58{fill:#175976;}
	.st59{fill:#185C7A;}
	.st60{clip-path:url(#SVGID_00000044864634110348352670000009284334947872570008_);enable-background:new    ;}
	.st61{clip-path:url(#SVGID_00000044898968603356418530000002424143883174072202_);enable-background:new    ;}
	.st62{fill:#15506A;}
	.st63{clip-path:url(#SVGID_00000123421870165960121910000017575318626465776819_);enable-background:new    ;}
	.st64{fill:#E3E3E3;}
	.st65{clip-path:url(#SVGID_00000017516867140706745280000000206290674422404008_);enable-background:new    ;}
	.st66{clip-path:url(#SVGID_00000049197128452617705530000005334150334336018603_);enable-background:new    ;}
	.st67{clip-path:url(#SVGID_00000177464198787354059500000010656312890213103767_);enable-background:new    ;}
</style>
<g id="border">
	<path class="st0" d="M195,210H15c-8.3,0-15-6.7-15-15V15C0,6.7,6.7,0,15,0h180c8.3,0,15,6.7,15,15v180C210,203.3,203.3,210,195,210
		z"/>
	<path class="st1" d="M190,200H20c-5.5,0-10-4.5-10-10V20c0-5.5,4.5-10,10-10h170c5.5,0,10,4.5,10,10v170
		C200,195.5,195.5,200,190,200z"/>
</g>
<g>
	<g>
		<g>
			<g>
				<path class="st2" d="M162.5,72.5c0,10.3-5.2,19.4-13.2,24.8c-4.8,3.3-10.6,5.2-16.9,5.2c-16.6,0-30-13.5-30-30
					c0-9.3,4.2-17.6,10.8-23.1c5.2-4.3,11.9-6.9,19.2-6.9C149,42.5,162.5,56,162.5,72.5z"/>
				<path class="st3" d="M149.3,97.4c-4.8,3.3-10.6,5.2-16.9,5.2c-16.6,0-30-13.5-30-30c0-9.3,4.2-17.6,10.8-23.1
					c13.2-9,31.2-6.1,40.9,6.7C163.9,69,161.6,87.2,149.3,97.4z"/>
			</g>
			<path class="st4" d="M111.2,87.1c4.3,6.4,10.3,8.3,9.6,10c-1,2.1-7.7-2.4-12-8.8S103,73.4,105.4,74
				C107.2,74.5,106.9,80.7,111.2,87.1z"/>
		</g>
		<g class="st5">
			<path class="st6" d="M124.6,62.1c0,2.5-1.5,4.2-3.6,4.2s-3.5-1.7-3.5-4.2c0-2.5,1.4-4.6,3.5-4.6
				C123.2,57.5,124.6,59.5,124.6,62.1z"/>
			<ellipse transform="matrix(0.9757 -0.2189 0.2189 0.9757 -10.933 27.7128)" class="st7" cx="119.6" cy="63.2" rx="1.3" ry="2"/>
			<path class="st8" d="M123.6,59.8c0.2,0.4,0.1,0.8-0.1,1s-0.6,0-0.8-0.3c-0.2-0.4-0.1-0.8,0.1-1C123.1,59.3,123.4,59.4,123.6,59.8
				z"/>
		</g>
		<g class="st5">
			<path class="st6" d="M145.4,62.1c0,2.5-1.5,4.2-3.6,4.2s-3.5-1.7-3.5-4.2s1.4-4.6,3.5-4.6C143.9,57.5,145.4,59.5,145.4,62.1z"/>
			<ellipse transform="matrix(0.9757 -0.2189 0.2189 0.9757 -10.4338 32.2466)" class="st7" cx="140.3" cy="63.2" rx="1.3" ry="2"/>
			<path class="st8" d="M144.4,59.7c0.2,0.4,0.1,0.8-0.1,1c-0.2,0.2-0.6,0-0.8-0.3c-0.2-0.4-0.1-0.8,0.1-1
				C143.9,59.3,144.2,59.4,144.4,59.7z"/>
		</g>
		<path class="st9" d="M131.3,84.6c5.8,0,10.5-4.5,10.5-2.8c0,2.8-4.7,7-10.5,7s-10.5-4.2-10.5-7C120.8,80.1,125.6,84.6,131.3,84.6z
			"/>
	</g>
	<g>
		<g>
			<ellipse class="st3" cx="133.8" cy="31.6" rx="1.4" ry="7.1"/>
			<path class="st4" d="M133.4,31.9c0,3.2,0.2,5.8,0,5.8s-0.7-2.6-0.7-5.8s0.5-5.8,0.7-5.8C133.7,26.1,133.4,28.7,133.4,31.9z"/>
		</g>
		<g>
			
				<ellipse transform="matrix(0.5054 -0.8629 0.8629 0.5054 43.2748 153.1257)" class="st3" cx="155.2" cy="38.8" rx="7.1" ry="1.4"/>
			<path class="st4" d="M154.7,38.9c-1.6,2.8-2.8,5.1-2.9,5c-0.2-0.1,0.7-2.6,2.3-5.4c1.6-2.8,3.4-4.7,3.6-4.7
				C157.8,34,156.3,36.2,154.7,38.9z"/>
		</g>
		<g>
			<ellipse transform="matrix(0.8722 -0.4891 0.4891 0.8722 -5.6032 90.2938)" class="st3" cx="170" cy="55.9" rx="7.1" ry="1.4"/>
			<path class="st4" d="M169.4,55.7c-2.8,1.6-5,3-5.1,2.8s1.9-1.9,4.7-3.5s5.3-2.4,5.4-2.2C174.6,53,172.2,54.1,169.4,55.7z"/>
		</g>
		<g>
			
				<ellipse transform="matrix(1.878402e-02 -0.9998 0.9998 1.878402e-02 92.809 250.5881)" class="st3" cx="174.1" cy="78" rx="1.4" ry="7.1"/>
			<path class="st4" d="M173.8,77.6c-3.2-0.1-5.8,0.1-5.8-0.1s2.6-0.7,5.8-0.6s5.8,0.6,5.8,0.9C179.6,77.9,177,77.6,173.8,77.6z"/>
		</g>
		<g>
			
				<ellipse transform="matrix(0.5215 -0.8532 0.8532 0.5215 -4.9749 189.5048)" class="st3" cx="166.5" cy="99.2" rx="1.4" ry="7.1"/>
			<path class="st4" d="M166.4,98.6c-2.7-1.7-5.1-2.8-5-3s2.6,0.7,5.3,2.4s4.7,3.5,4.6,3.7C171.2,101.9,169.1,100.3,166.4,98.6z"/>
		</g>
		<g>
			
				<ellipse transform="matrix(0.8813 -0.4726 0.4726 0.8813 -36.0133 84.0176)" class="st3" cx="149.2" cy="113.7" rx="1.4" ry="7.1"/>
			<path class="st4" d="M149.4,113.1c-1.5-2.8-2.9-5-2.7-5.1s1.9,2,3.4,4.8s2.3,5.4,2.1,5.5C152,118.3,150.9,115.9,149.4,113.1z"/>
		</g>
		<g>
			
				<ellipse transform="matrix(3.755820e-02 -0.9993 0.9993 3.755820e-02 5.0048 239.8269)" class="st3" cx="127" cy="117.3" rx="7.1" ry="1.4"/>
			<path class="st4" d="M127.4,117c0.1-3.2,0-5.8,0.2-5.8s0.6,2.6,0.5,5.8c-0.1,3.2-0.7,5.8-1,5.8C127,122.8,127.3,120.2,127.4,117z
				"/>
		</g>
		<g>
			
				<ellipse transform="matrix(0.5375 -0.8433 0.8433 0.5375 -43.2108 139.8564)" class="st3" cx="105.9" cy="109.3" rx="7.1" ry="1.4"/>
			<path class="st4" d="M106.4,109.3c1.7-2.7,3-5,3.1-4.9c0.2,0.1-0.8,2.6-2.5,5.3c-1.7,2.7-3.6,4.6-3.7,4.5S104.7,112,106.4,109.3z
				"/>
		</g>
		<g>
			<ellipse transform="matrix(0.89 -0.456 0.456 0.89 -31.7567 51.9647)" class="st3" cx="91.8" cy="91.8" rx="7.1" ry="1.4"/>
			<path class="st4" d="M92.3,92c2.8-1.5,5.1-2.8,5.2-2.7s-2,1.8-4.8,3.3s-5.4,2.2-5.5,2C87,94.4,89.4,93.4,92.3,92z"/>
		</g>
		<g>
			
				<ellipse transform="matrix(5.632373e-02 -0.9984 0.9984 5.632373e-02 14.152 153.9084)" class="st3" cx="88.5" cy="69.5" rx="1.4" ry="7.1"/>
			<path class="st4" d="M88.8,69.9c3.2,0.2,5.8,0.1,5.8,0.3c0,0.2-2.6,0.6-5.8,0.4c-3.2-0.2-5.8-0.9-5.8-1.1
				C83,69.4,85.6,69.7,88.8,69.9z"/>
		</g>
		<g>
			<ellipse transform="matrix(0.5532 -0.833 0.833 0.5532 2.8346 102.4271)" class="st3" cx="96.9" cy="48.6" rx="1.4" ry="7.1"/>
			<path class="st4" d="M97,49.1c2.7,1.8,5,3,4.8,3.2c-0.1,0.2-2.6-0.8-5.2-2.6s-4.5-3.7-4.4-3.8C92.2,45.7,94.3,47.3,97,49.1z"/>
		</g>
		<g>
			
				<ellipse transform="matrix(0.8984 -0.4392 0.4392 0.8984 -3.6357 53.9193)" class="st3" cx="114.7" cy="34.8" rx="1.4" ry="7.1"/>
			<path class="st4" d="M114.5,35.3c1.4,2.9,2.7,5.1,2.6,5.2c-0.2,0.1-1.8-2-3.2-4.9c-1.4-2.9-2.1-5.5-1.9-5.5
				C112.2,30,113.1,32.4,114.5,35.3z"/>
		</g>
	</g>
</g>
<g>
	<g class="st10">
		<g>
			<path class="st11" d="M112.5,151.9c2.6-0.4,5.8,0.3,7.1,1.5l20.1,18.2c1.3,1.2,0.3,2.5-2.4,2.8l-84.6,11.9
				c-2.6,0.4-5.8-0.3-7.1-1.5l-20.1-18.2c-1.3-1.2-0.3-2.5,2.4-2.8L112.5,151.9z"/>
		</g>
	</g>
	<g>
		<g>
			<g class="st12">
				<g class="st12">
					<g>
						<g>
							<g>
								<defs>
									<path id="SVGID_1_" d="M129,168.1l-0.2,2.3c0,0.4-0.6,0.7-1.5,0.9l0.2-2.3C128.4,168.9,129,168.5,129,168.1z"/>
								</defs>
								<clipPath id="SVGID_00000161632013509545499680000016010481993954523570_">
									<use xlink:href="#SVGID_1_"  style="overflow:visible;"/>
								</clipPath>
								<g style="clip-path:url(#SVGID_00000161632013509545499680000016010481993954523570_);enable-background:new    ;">
									<path class="st14" d="M129,168.1l-0.2,2.3c0,0,0,0,0,0.1L129,168.1C129,168.2,129,168.2,129,168.1"/>
									<path class="st15" d="M129,168.2l-0.2,2.3v0.1L129,168.2L129,168.2"/>
									<path class="st16" d="M129,168.3l-0.2,2.3c0,0,0,0,0,0.1L129,168.3C128.9,168.4,128.9,168.3,129,168.3"/>
									<path class="st17" d="M128.9,168.4l-0.2,2.3c0,0,0,0-0.1,0.1L128.9,168.4L128.9,168.4"/>
									<path class="st18" d="M128.9,168.4l-0.2,2.3c0,0,0,0-0.1,0.1L128.9,168.4C128.8,168.5,128.9,168.5,128.9,168.4"/>
									<path class="st19" d="M128.8,168.5l-0.2,2.3c0,0,0,0-0.1,0.1L128.8,168.5C128.7,168.6,128.7,168.5,128.8,168.5"/>
									<path class="st20" d="M128.7,168.6l-0.2,2.3c0,0-0.1,0-0.1,0.1l0.2-2.3C128.6,168.6,128.7,168.6,128.7,168.6"/>
									<path class="st21" d="M128.6,168.6l-0.2,2.3c0,0-0.1,0-0.1,0.1l0.2-2.3C128.5,168.7,128.6,168.7,128.6,168.6"/>
									<path class="st22" d="M128.5,168.7l-0.2,2.3c-0.1,0-0.1,0-0.2,0.1l0.2-2.3C128.3,168.8,128.4,168.8,128.5,168.7"/>
									<path class="st23" d="M128.3,168.8l-0.2,2.3c-0.1,0-0.2,0.1-0.3,0.1l0.2-2.3C128.1,168.9,128.2,168.8,128.3,168.8"/>
									<path class="st24" d="M128,168.9l-0.2,2.3c-0.1,0-0.3,0.1-0.5,0.1l0.2-2.3C127.7,169,127.9,168.9,128,168.9"/>
								</g>
							</g>
						</g>
					</g>
				</g>
				<g class="st12">
					<g>
						<g>
							<g>
								<defs>
									<path id="SVGID_00000105394015941841681810000001001003661822618014_" d="M77,168.4l0.2-2.3c0,0.2,0.1,0.4,0.3,0.6
										l-0.2,2.3C77,168.8,77,168.6,77,168.4z"/>
								</defs>
								<clipPath id="SVGID_00000021096184498466456700000016781444186047690673_">
									<use xlink:href="#SVGID_00000105394015941841681810000001001003661822618014_"  style="overflow:visible;"/>
								</clipPath>
								<g style="clip-path:url(#SVGID_00000021096184498466456700000016781444186047690673_);enable-background:new    ;">
									<path class="st26" d="M77.5,166.7l-0.2,2.3c-0.2-0.2-0.3-0.4-0.3-0.6l0.2-2.3C77.1,166.3,77.2,166.5,77.5,166.7"/>
								</g>
							</g>
						</g>
					</g>
				</g>
				<g>
					<polygon class="st27" points="85.5,173.7 85.3,175.9 77.3,168.9 77.5,166.7 					"/>
				</g>
				<g>
					<polygon class="st28" points="127.5,169 127.3,171.2 88.9,176.6 89.1,174.4 					"/>
				</g>
				<g>
					<path class="st29" d="M117,159.9c1.3-0.2,3,0.1,3.7,0.7l8,7c0.7,0.6,0.1,1.2-1.2,1.4l-38.4,5.4c-1.3,0.2-3-0.1-3.7-0.7l-8-7
						c-0.7-0.6-0.1-1.2,1.2-1.4L117,159.9z"/>
				</g>
				<g class="st12">
					<g>
						<g>
							<g>
								<defs>
									<path id="SVGID_00000025403504426442237300000013704121893562059434_" d="M89.1,174.4l-0.2,2.3c-1.3,0.2-3-0.1-3.7-0.7
										l0.2-2.3C86.1,174.3,87.8,174.6,89.1,174.4z"/>
								</defs>
								<clipPath id="SVGID_00000158028829140685743730000000903018513300952489_">
									<use xlink:href="#SVGID_00000025403504426442237300000013704121893562059434_"  style="overflow:visible;"/>
								</clipPath>
								<g style="clip-path:url(#SVGID_00000158028829140685743730000000903018513300952489_);enable-background:new    ;">
									<path class="st24" d="M89.1,174.4l-0.2,2.3c-0.1,0-0.3,0-0.5,0l0.2-2.3C88.8,174.4,89,174.4,89.1,174.4"/>
									<path class="st23" d="M88.6,174.4l-0.2,2.3c-0.1,0-0.3,0-0.4,0l0.2-2.3C88.4,174.4,88.5,174.4,88.6,174.4"/>
									<path class="st22" d="M88.3,174.4l-0.2,2.3c-0.1,0-0.2,0-0.3,0l0.2-2.3C88.1,174.4,88.2,174.4,88.3,174.4"/>
									<path class="st21" d="M88,174.4l-0.2,2.3c-0.1,0-0.1,0-0.2,0l0.2-2.3C87.8,174.4,87.9,174.4,88,174.4"/>
									<path class="st20" d="M87.8,174.4l-0.2,2.3c-0.1,0-0.1,0-0.2,0l0.2-2.3C87.6,174.4,87.7,174.4,87.8,174.4"/>
									<path class="st19" d="M87.5,174.4l-0.2,2.3c-0.1,0-0.1,0-0.2,0l0.2-2.3C87.4,174.4,87.5,174.4,87.5,174.4"/>
									<path class="st18" d="M87.4,174.4l-0.2,2.3c-0.1,0-0.1,0-0.2,0l0.2-2.3C87.2,174.3,87.3,174.4,87.4,174.4"/>
									<path class="st17" d="M87.2,174.3l-0.2,2.3c-0.1,0-0.1,0-0.2,0l0.2-2.3C87,174.3,87.1,174.3,87.2,174.3"/>
									<path class="st16" d="M86.9,174.3l-0.2,2.3c-0.1,0-0.1,0-0.2,0l0.2-2.3C86.8,174.3,86.9,174.3,86.9,174.3"/>
									<path class="st15" d="M86.8,174.3l-0.2,2.3c-0.1,0-0.1,0-0.2,0l0.2-2.3C86.7,174.2,86.7,174.2,86.8,174.3"/>
									<path class="st14" d="M86.6,174.2l-0.2,2.3c-0.1,0-0.1,0-0.2-0.1l0.2-2.3C86.4,174.2,86.5,174.2,86.6,174.2"/>
									<path class="st31" d="M86.4,174.2l-0.2,2.3c-0.1,0-0.1,0-0.2-0.1l0.2-2.3C86.2,174.1,86.3,174.1,86.4,174.2"/>
									<path class="st32" d="M86.2,174.1l-0.2,2.3c-0.1,0-0.1-0.1-0.2-0.1L86,174C86,174,86.1,174,86.2,174.1"/>
									<path class="st26" d="M85.9,174l-0.2,2.3c-0.2-0.1-0.3-0.2-0.5-0.3l0.2-2.3C85.6,173.8,85.7,173.9,85.9,174"/>
								</g>
							</g>
						</g>
					</g>
				</g>
			</g>
		</g>
		<g>
			<g class="st12">
				<g class="st12">
					<g>
						<g>
							<g>
								<defs>
									<path id="SVGID_00000150810629086077898740000017281212021030297750_" d="M104.1,127.3l-0.1,40c0,0.1-0.1,0.3-0.3,0.4
										c-0.4,0.3-1.1,0.3-1.6,0c-0.2-0.1-0.3-0.3-0.3-0.4l0.1-40c0,0.1,0.1,0.3,0.3,0.4c0.4,0.3,1.1,0.3,1.6,0
										C104,127.6,104.1,127.4,104.1,127.3z"/>
								</defs>
								<clipPath id="SVGID_00000070806521072701340160000017183263330676839050_">
									<use xlink:href="#SVGID_00000150810629086077898740000017281212021030297750_"  style="overflow:visible;"/>
								</clipPath>
								<g style="clip-path:url(#SVGID_00000070806521072701340160000017183263330676839050_);enable-background:new    ;">
									<path class="st14" d="M104.1,127.3l-0.1,40l0,0L104.1,127.3L104.1,127.3"/>
									<path class="st15" d="M104.1,127.3l-0.1,40c0,0,0,0,0,0.1L104.1,127.3L104.1,127.3"/>
									<path class="st16" d="M104.1,127.3l-0.1,40c0,0,0,0,0,0.1L104.1,127.3C104.1,127.4,104.1,127.4,104.1,127.3"/>
									<path class="st17" d="M104.1,127.4l-0.1,40c0,0,0,0,0,0.1L104.1,127.4L104.1,127.4"/>
									<path class="st18" d="M104.1,127.5l-0.1,40c0,0,0,0,0,0.1L104.1,127.5L104.1,127.5"/>
									<path class="st19" d="M104,127.5l-0.1,40c0,0,0,0-0.1,0.1L104,127.5C104,127.6,104,127.5,104,127.5"/>
									<path class="st20" d="M103.9,127.6l-0.1,40l-0.1,0.1l0.1-40C103.9,127.7,103.9,127.7,103.9,127.6"/>
									<path class="st21" d="M103.8,127.7l-0.1,40.1l0,0c-0.1,0-0.1,0.1-0.3,0.1l0.1-40C103.7,127.8,103.7,127.8,103.8,127.7
										L103.8,127.7"/>
									<path class="st20" d="M103.6,127.8l-0.1,40c-0.1,0-0.1,0-0.2,0l0.1-40C103.4,127.8,103.5,127.8,103.6,127.8"/>
									<path class="st19" d="M103.4,127.9l-0.1,40h-0.1L103.4,127.9C103.3,127.9,103.3,127.9,103.4,127.9"/>
									<path class="st18" d="M103.2,127.9l-0.1,40H103L103.2,127.9C103.1,127.9,103.2,127.9,103.2,127.9"/>
									<path class="st17" d="M103.1,127.9l-0.1,40h-0.1L103.1,127.9C103,127.9,103.1,127.9,103.1,127.9"/>
									<path class="st16" d="M103,127.9l-0.1,40h-0.1L103,127.9C102.9,127.9,103,127.9,103,127.9"/>
									<path class="st15" d="M102.9,127.9l-0.1,40h-0.1L102.9,127.9C102.8,127.9,102.8,127.9,102.9,127.9"/>
									<path class="st14" d="M102.8,127.9l-0.1,40h-0.1L102.8,127.9C102.7,127.9,102.7,127.9,102.8,127.9"/>
									<path class="st31" d="M102.7,127.9l-0.1,40h-0.1L102.7,127.9C102.6,127.8,102.6,127.8,102.7,127.9"/>
									<path class="st32" d="M102.5,127.8l-0.1,40h-0.1L102.5,127.8C102.5,127.8,102.5,127.8,102.5,127.8"/>
									<path class="st26" d="M102.4,127.8l-0.1,40c0,0-0.1,0-0.1-0.1c-0.2-0.1-0.3-0.3-0.3-0.4l0.1-40
										C102,127.4,102.1,127.6,102.4,127.8C102.3,127.7,102.4,127.8,102.4,127.8"/>
								</g>
							</g>
						</g>
					</g>
				</g>
				<g>
					<path class="st34" d="M103.8,126.8c0.4,0.3,0.4,0.7,0,0.9c-0.4,0.3-1.1,0.3-1.6,0c-0.4-0.3-0.4-0.7,0-0.9
						C102.7,126.6,103.4,126.6,103.8,126.8z"/>
				</g>
			</g>
		</g>
	</g>
	<g>
		<g class="st12">
			<g class="st12">
				<g>
					<g>
						<g>
							<defs>
								<path id="SVGID_00000029040417168558381180000014669652683503695260_" d="M130.3,92l-0.4,1c-0.4-0.8-1.5-1.3-2.4-1.1l0.4-1
									C128.8,90.7,129.9,91.2,130.3,92z"/>
							</defs>
							<clipPath id="SVGID_00000031928021259392312930000006543755374906608529_">
								<use xlink:href="#SVGID_00000029040417168558381180000014669652683503695260_"  style="overflow:visible;"/>
							</clipPath>
							<g style="clip-path:url(#SVGID_00000031928021259392312930000006543755374906608529_);enable-background:new    ;">
								<path class="st32" d="M130.3,92l-0.4,1c-0.1-0.3-0.4-0.5-0.7-0.7l0.4-1C129.9,91.4,130.2,91.7,130.3,92"/>
								<path class="st36" d="M129.6,91.3l-0.4,1c-0.1-0.1-0.3-0.2-0.4-0.2l0.4-1C129.4,91.1,129.5,91.1,129.6,91.3"/>
								<path class="st37" d="M129.2,91l-0.4,1c-0.1-0.1-0.3-0.1-0.4-0.1l0.4-1C128.9,90.9,129.1,91,129.2,91"/>
								<path class="st38" d="M128.8,90.8l-0.4,1c-0.2,0-0.4-0.1-0.6-0.1l0.4-1C128.3,90.8,128.6,90.8,128.8,90.8"/>
								<path class="st39" d="M128.2,90.8l-0.4,1c-0.1,0-0.2,0-0.3,0l0.4-1C128,90.8,128,90.8,128.2,90.8"/>
							</g>
						</g>
					</g>
				</g>
			</g>
			<g>
				<polygon class="st40" points="133.6,100.2 133.2,101.2 132.1,99.2 132.5,98.2 				"/>
			</g>
			<g>
				<polygon class="st41" points="137.6,105.6 137.2,106.6 129.9,93 130.3,92 				"/>
			</g>
			<g>
				<polygon class="st42" points="134.6,100.1 134.3,101.1 133.2,101.2 133.6,100.2 				"/>
			</g>
			<g>
				<polygon class="st43" points="133.1,100.3 132.8,101.3 132.1,99.2 132.5,98.2 				"/>
			</g>
			<g>
				<polygon class="st42" points="132.1,95.3 131.7,96.3 102.9,100.3 103.3,99.4 				"/>
			</g>
			<g>
				<polygon class="st44" points="132.5,96 132.1,97 103.3,101.1 103.7,100.1 				"/>
			</g>
			<g>
				<polygon class="st45" points="105.8,104.1 103.7,100.1 132.5,96 134.6,100.1 133.6,100.2 132.5,98.2 133.1,100.3 				"/>
			</g>
			<g>
				<polygon class="st46" points="133.6,100.2 133.2,101.2 132.8,101.3 133.1,100.3 				"/>
			</g>
			<g>
				<polygon class="st44" points="135,100.8 134.7,101.8 133.6,101.9 134,100.9 				"/>
			</g>
			<g>
				<polygon class="st47" points="134,100.9 133.6,101.9 133.2,101.2 133.6,100.2 				"/>
			</g>
			<g>
				<polygon class="st48" points="133.4,101 133,102 132.8,101.3 133.1,100.3 				"/>
			</g>
			<g>
				<polygon class="st49" points="134,100.9 133.6,101.9 133,102 133.4,101 				"/>
			</g>
			<g>
				<polygon class="st40" points="136,104.7 135.6,105.7 133.6,101.9 134,100.9 				"/>
			</g>
			<g>
				<polygon class="st43" points="134.3,104 133.9,105 133,102 133.4,101 				"/>
			</g>
			<g>
				<polygon class="st19" points="127.9,90.8 127.5,91.8 100.4,95.6 100.7,94.6 				"/>
			</g>
			<g>
				<polygon class="st50" points="134.3,104 133.9,105 126.8,107 127.1,106 				"/>
			</g>
			<g>
				<polygon class="st51" points="134.3,104 133.4,101 134,100.9 136,104.7 127.1,106 				"/>
			</g>
			<g>
				<polygon class="st46" points="136,104.7 135.6,105.7 126.8,107 127.1,106 				"/>
			</g>
			<g>
				<path class="st45" d="M127.9,90.8c0.9-0.1,2,0.4,2.4,1.1l1.8,3.3l-28.8,4.1l-2.6-4.7L127.9,90.8z"/>
			</g>
			<g>
				<polygon class="st40" points="103.3,99.4 102.9,100.3 100.4,95.6 100.7,94.6 				"/>
			</g>
			<g>
				<polygon class="st47" points="103.7,100.1 103.3,101.1 102.9,100.3 103.3,99.4 				"/>
			</g>
			<g>
				<polygon class="st52" points="132.1,95.3 132.5,96 103.7,100.1 103.3,99.4 				"/>
			</g>
			<g>
				<polygon class="st40" points="142.6,117.1 142.2,118.1 141.1,116 141.5,115 				"/>
			</g>
			<g>
				<polygon class="st41" points="146.6,122.4 146.2,123.4 138.2,108.4 138.5,107.3 				"/>
			</g>
			<g>
				<polygon class="st42" points="143.7,116.9 143.3,117.9 142.2,118.1 142.6,117.1 				"/>
			</g>
			<g>
				<polygon class="st40" points="105.8,104.1 105.5,105.1 103.3,101.1 103.7,100.1 				"/>
			</g>
			<g>
				<polygon class="st42" points="133.1,100.3 132.8,101.3 105.5,105.1 105.8,104.1 				"/>
			</g>
			<g>
				<polygon class="st51" points="142.1,117.1 141.5,115 142.6,117.1 				"/>
			</g>
			<g>
				<polygon class="st46" points="142.6,117.1 142.2,118.1 141.8,118.1 142.1,117.1 				"/>
			</g>
			<g>
				<polygon class="st43" points="142.1,117.1 141.8,118.1 141.1,116 141.5,115 				"/>
			</g>
			<g>
				<polygon class="st44" points="144,117.6 143.7,118.6 142.6,118.8 143,117.8 				"/>
			</g>
			<g>
				<polygon class="st47" points="143,117.8 142.6,118.8 142.2,118.1 142.6,117.1 				"/>
			</g>
			<g>
				<polygon class="st47" points="106.2,104.8 105.8,105.8 105.5,105.1 105.8,104.1 				"/>
			</g>
			<g>
				<polygon class="st44" points="133.4,101 133,102 105.8,105.8 106.2,104.8 				"/>
			</g>
			<g>
				<polygon class="st48" points="142.3,117.8 142,118.8 141.8,118.1 142.1,117.1 				"/>
			</g>
			<g>
				<polygon class="st49" points="143,117.8 142.6,118.8 142,118.8 142.3,117.8 				"/>
			</g>
			<g>
				<polygon class="st40" points="102.4,104.6 102.1,105.6 101,103.6 101.4,102.6 				"/>
			</g>
			<g>
				<polygon class="st41" points="106.6,110 106.2,111 98.2,95.9 98.6,94.9 				"/>
			</g>
			<g>
				<polygon class="st42" points="103.7,104.4 103.3,105.4 102.1,105.6 102.4,104.6 				"/>
			</g>
			<g>
				<polygon class="st46" points="102.4,104.6 102.1,105.6 101.6,105.6 102,104.6 				"/>
			</g>
			<g>
				<polygon class="st43" points="102,104.6 101.6,105.6 101,103.6 101.4,102.6 				"/>
			</g>
			<g>
				<polygon class="st47" points="102.8,105.3 102.4,106.3 102.1,105.6 102.4,104.6 				"/>
			</g>
			<g>
				<polygon class="st44" points="104,105.1 103.7,106.1 102.4,106.3 102.8,105.3 				"/>
			</g>
			<g>
				<polygon class="st52" points="102.4,104.6 103.7,104.4 104,105.1 102.8,105.3 				"/>
			</g>
			<g>
				<polygon class="st48" points="102.2,105.4 101.8,106.4 101.6,105.6 102,104.6 				"/>
			</g>
			<g>
				<polygon class="st49" points="102.8,105.3 102.4,106.3 101.8,106.4 102.2,105.4 				"/>
			</g>
			<g>
				<polygon class="st40" points="145,121.5 144.6,122.5 142.6,118.8 143,117.8 				"/>
			</g>
			<g>
				<polygon class="st43" points="143.2,120.7 142.9,121.8 142,118.8 142.3,117.8 				"/>
			</g>
			<g>
				<polygon class="st42" points="137.6,105.6 137.2,106.6 108.4,110.6 108.8,109.6 				"/>
			</g>
			<g>
				<polygon class="st40" points="108.8,109.6 108.4,110.6 105.8,105.8 106.2,104.8 				"/>
			</g>
			<g>
				<polygon class="st40" points="104.8,109.1 104.5,110.1 102.4,106.3 102.8,105.3 				"/>
			</g>
			<g>
				<polygon class="st43" points="103.1,108.4 102.8,109.4 101.8,106.4 102.2,105.4 				"/>
			</g>
			<g>
				<polygon class="st19" points="138.5,107.3 138.2,108.4 109.4,112.4 109.8,111.4 				"/>
			</g>
			<g>
				<polygon class="st19" points="98.6,94.9 98.2,95.9 69.4,100 69.8,99 				"/>
			</g>
			<g>
				<polygon class="st50" points="143.2,120.7 142.9,121.8 135.7,123.8 136.1,122.7 				"/>
			</g>
			<g>
				<polygon class="st46" points="145,121.5 144.6,122.5 135.7,123.8 136.1,122.7 				"/>
			</g>
			<g>
				<polygon class="st50" points="103.1,108.4 102.8,109.4 95.6,111.4 96,110.4 				"/>
			</g>
			<g>
				<polygon class="st46" points="104.8,109.1 104.5,110.1 95.6,111.4 96,110.4 				"/>
			</g>
			<g>
				<polygon class="st40" points="112.3,116.2 111.9,117.2 109.4,112.4 109.8,111.4 				"/>
			</g>
			<g>
				<polygon class="st42" points="141.1,112.1 140.8,113.1 111.9,117.2 112.3,116.2 				"/>
			</g>
			<g>
				<polygon class="st44" points="141.5,112.8 141.1,113.8 112.3,117.9 112.7,116.9 				"/>
			</g>
			<g>
				<polygon class="st52" points="141.1,112.1 141.5,112.8 112.7,116.9 112.3,116.2 				"/>
			</g>
			<g>
				<polygon class="st47" points="112.7,116.9 112.3,117.9 111.9,117.2 112.3,116.2 				"/>
			</g>
			<g>
				<polygon class="st45" points="72.3,103.7 69.8,99 98.6,94.9 101.1,99.6 				"/>
			</g>
			<g>
				<polygon class="st40" points="72.3,103.7 71.9,104.7 69.4,100 69.8,99 				"/>
			</g>
			<g>
				<polygon class="st42" points="101.1,99.6 100.7,100.6 71.9,104.7 72.3,103.7 				"/>
			</g>
			<g>
				<polygon class="st44" points="101.5,100.3 101.1,101.3 72.3,105.4 72.7,104.4 				"/>
			</g>
			<g>
				<polygon class="st47" points="72.7,104.4 72.3,105.4 71.9,104.7 72.3,103.7 				"/>
			</g>
			<g>
				<polygon class="st40" points="151.6,133.8 151.2,134.8 150.1,132.8 150.5,131.8 				"/>
			</g>
			<g>
				<polygon class="st41" points="154.8,137.7 154.5,138.7 147.2,125.1 147.6,124.1 				"/>
			</g>
			<g>
				<polygon class="st42" points="152.7,133.6 152.3,134.7 151.2,134.8 151.6,133.8 				"/>
			</g>
			<g>
				<polygon class="st42" points="142.1,117.1 141.8,118.1 114.5,121.9 114.9,120.9 				"/>
			</g>
			<g>
				<polygon class="st40" points="114.9,120.9 114.5,121.9 112.3,117.9 112.7,116.9 				"/>
			</g>
			<g>
				<polygon class="st43" points="151.1,133.9 150.8,134.9 150.1,132.8 150.5,131.8 				"/>
			</g>
			<g>
				<polygon class="st46" points="151.6,133.8 151.2,134.8 150.8,134.9 151.1,133.9 				"/>
			</g>
			<g>
				<polygon class="st44" points="153,134.4 152.7,135.4 151.6,135.5 152,134.5 				"/>
			</g>
			<g>
				<polygon class="st47" points="152,134.5 151.6,135.5 151.2,134.8 151.6,133.8 				"/>
			</g>
			<g>
				<polygon class="st47" points="115.2,121.6 114.9,122.6 114.5,121.9 114.9,120.9 				"/>
			</g>
			<g>
				<polygon class="st52" points="115.2,121.6 114.9,120.9 142.1,117.1 142.3,117.8 				"/>
			</g>
			<g>
				<polygon class="st44" points="142.3,117.8 142,118.8 114.9,122.6 115.2,121.6 				"/>
			</g>
			<g>
				<polygon class="st53" points="151.6,133.8 152,134.5 151.4,134.6 151.1,133.9 				"/>
			</g>
			<g>
				<polygon class="st48" points="151.4,134.6 151,135.6 150.8,134.9 151.1,133.9 				"/>
			</g>
			<g>
				<polygon class="st49" points="152,134.5 151.6,135.5 151,135.6 151.4,134.6 				"/>
			</g>
			<g>
				<polygon class="st40" points="111.5,121.4 111.1,122.4 110,120.4 110.3,119.4 				"/>
			</g>
			<g>
				<polygon class="st41" points="115.6,126.7 115.3,127.7 107.2,112.7 107.6,111.7 				"/>
			</g>
			<g>
				<polygon class="st42" points="112.7,121.2 112.3,122.3 111.1,122.4 111.5,121.4 				"/>
			</g>
			<g>
				<polygon class="st40" points="74.8,108.4 74.5,109.5 72.3,105.4 72.7,104.4 				"/>
			</g>
			<g>
				<polygon class="st42" points="102,104.6 101.6,105.6 74.5,109.5 74.8,108.4 				"/>
			</g>
			<g>
				<polygon class="st43" points="111,121.5 110.6,122.5 110,120.4 110.3,119.4 				"/>
			</g>
			<g>
				<polygon class="st46" points="111.5,121.4 111.1,122.4 110.6,122.5 111,121.5 				"/>
			</g>
			<g>
				<polygon class="st44" points="113,121.9 112.7,123 111.5,123.1 111.8,122.1 				"/>
			</g>
			<g>
				<polygon class="st47" points="111.8,122.1 111.5,123.1 111.1,122.4 111.5,121.4 				"/>
			</g>
			<g>
				<polygon class="st52" points="111.5,121.4 112.7,121.2 113,121.9 111.8,122.1 				"/>
			</g>
			<g>
				<polygon class="st44" points="102.2,105.4 101.8,106.4 74.9,110.2 75.2,109.2 				"/>
			</g>
			<g>
				<polygon class="st47" points="75.2,109.2 74.9,110.2 74.5,109.5 74.8,108.4 				"/>
			</g>
			<g>
				<polygon class="st52" points="75.2,109.2 74.8,108.4 102,104.6 102.2,105.4 				"/>
			</g>
			<g>
				<polygon class="st48" points="111.2,122.2 110.9,123.2 110.6,122.5 111,121.5 				"/>
			</g>
			<g>
				<polygon class="st49" points="111.8,122.1 111.5,123.1 110.9,123.2 111.2,122.2 				"/>
			</g>
			<g>
				<polygon class="st40" points="154,138.3 153.6,139.3 151.6,135.5 152,134.5 				"/>
			</g>
			<g>
				<polygon class="st43" points="152.3,137.5 151.9,138.6 151,135.6 151.4,134.6 				"/>
			</g>
			<g class="st12">
				<g>
					<g>
						<g>
							<defs>
								<path id="SVGID_00000143612479196920598360000009216481891764115647_" d="M155,138.7l-0.4,1c0.1-0.3,0.1-0.6-0.1-0.9l0.4-1
									C155,138.1,155.1,138.4,155,138.7z"/>
							</defs>
							<clipPath id="SVGID_00000166675333027271239870000014652016974586133926_">
								<use xlink:href="#SVGID_00000143612479196920598360000009216481891764115647_"  style="overflow:visible;"/>
							</clipPath>
							<g style="clip-path:url(#SVGID_00000166675333027271239870000014652016974586133926_);enable-background:new    ;">
								<path class="st32" d="M155,138.7l-0.4,1c0.1-0.3,0.1-0.6-0.1-0.9l0.4-1C155,138.1,155.1,138.4,155,138.7"/>
							</g>
						</g>
					</g>
				</g>
			</g>
			<g>
				<polygon class="st41" points="75.6,114.3 75.3,115.3 67.2,100.3 67.6,99.3 				"/>
			</g>
			<g>
				<polygon class="st42" points="72.6,108.8 72.3,109.8 70.9,110 71.3,109 				"/>
			</g>
			<g>
				<polygon class="st40" points="71.3,109 70.9,110 69.9,108 70.2,107 				"/>
			</g>
			<g>
				<polygon class="st46" points="71.3,109 70.9,110 70.5,110 70.8,109 				"/>
			</g>
			<g>
				<polygon class="st43" points="70.8,109 70.5,110 69.9,108 70.2,107 				"/>
			</g>
			<g>
				<polygon class="st44" points="73,109.5 72.7,110.5 71.3,110.7 71.6,109.7 				"/>
			</g>
			<g>
				<polygon class="st47" points="71.6,109.7 71.3,110.7 70.9,110 71.3,109 				"/>
			</g>
			<g>
				<polygon class="st40" points="73.7,113.5 73.3,114.5 71.3,110.7 71.6,109.7 				"/>
			</g>
			<g>
				<polygon class="st53" points="71.3,109 71.6,109.7 71.1,109.7 70.8,109 				"/>
			</g>
			<g>
				<polygon class="st48" points="71.1,109.7 70.7,110.8 70.5,110 70.8,109 				"/>
			</g>
			<g>
				<polygon class="st49" points="71.6,109.7 71.3,110.7 70.7,110.8 71.1,109.7 				"/>
			</g>
			<g>
				<polygon class="st40" points="117.8,126.4 117.4,127.4 114.9,122.6 115.2,121.6 				"/>
			</g>
			<g>
				<polygon class="st42" points="146.6,122.4 146.2,123.4 117.4,127.4 117.8,126.4 				"/>
			</g>
			<g>
				<polygon class="st45" points="145,121.5 143,117.8 144,117.6 146.6,122.4 117.8,126.4 115.2,121.6 142.3,117.8 143.2,120.7 
					136.1,122.7 				"/>
			</g>
			<g class="st12">
				<g>
					<g>
						<g>
							<defs>
								<path id="SVGID_00000070089974404476731600000002441693825030448054_" d="M155,138.7l-0.4,1c-0.1,0.4-0.5,0.6-1,0.7l0.4-1
									C154.5,139.3,154.8,139,155,138.7z"/>
							</defs>
							<clipPath id="SVGID_00000116939201733854199490000015908022184073573285_">
								<use xlink:href="#SVGID_00000070089974404476731600000002441693825030448054_"  style="overflow:visible;"/>
							</clipPath>
							<g style="clip-path:url(#SVGID_00000116939201733854199490000015908022184073573285_);enable-background:new    ;">
								<path class="st56" d="M155,138.7l-0.4,1v0.1l0.4-1C154.9,138.7,155,138.7,155,138.7"/>
								<path class="st57" d="M154.9,138.7l-0.4,1c0,0.1-0.1,0.2-0.2,0.3l0.4-1C154.8,138.9,154.9,138.9,154.9,138.7"/>
								<path class="st58" d="M154.7,139l-0.4,1c-0.1,0.1-0.3,0.2-0.4,0.3l0.4-1C154.5,139.2,154.6,139.1,154.7,139"/>
								<path class="st59" d="M154.3,139.3l-0.4,1c-0.1,0-0.2,0.1-0.4,0.1l0.4-1C154.1,139.4,154.2,139.3,154.3,139.3"/>
							</g>
						</g>
					</g>
				</g>
			</g>
			<g>
				<polygon class="st40" points="113.9,125.9 113.5,126.9 111.5,123.1 111.8,122.1 				"/>
			</g>
			<g>
				<polygon class="st43" points="112.1,125.1 111.7,126.1 110.9,123.2 111.2,122.2 				"/>
			</g>
			<g>
				<polygon class="st19" points="147.6,124.1 147.2,125.1 118.4,129.2 118.7,128.2 				"/>
			</g>
			<g>
				<polygon class="st42" points="106.6,110 106.2,111 77.5,115 77.8,114 				"/>
			</g>
			<g>
				<polygon class="st40" points="77.8,114 77.5,115 74.9,110.2 75.2,109.2 				"/>
			</g>
			<g>
				<polygon class="st45" points="104.8,109.1 102.8,105.3 104,105.1 106.6,110 77.8,114 75.2,109.2 102.2,105.4 103.1,108.4 
					96,110.4 				"/>
			</g>
			<g>
				<polygon class="st43" points="72,112.7 71.6,113.8 70.7,110.8 71.1,109.7 				"/>
			</g>
			<g>
				<polygon class="st19" points="107.6,111.7 107.2,112.7 78.4,116.8 78.7,115.8 				"/>
			</g>
			<g>
				<polygon class="st50" points="152.3,137.5 151.9,138.6 144.8,140.5 145.1,139.5 				"/>
			</g>
			<g>
				<polygon class="st46" points="154,138.3 153.6,139.3 144.8,140.5 145.1,139.5 				"/>
			</g>
			<g>
				<polygon class="st19" points="67.6,99.3 67.2,100.3 40.1,104.1 40.4,103.1 				"/>
			</g>
			<g class="st12">
				<g>
					<g>
						<g>
							<defs>
								<path id="SVGID_00000011737609092913497450000017299427218995684739_" d="M39.1,104.8l0.4-1c0.1-0.4,0.5-0.6,1-0.7l-0.4,1
									C39.5,104.2,39.2,104.5,39.1,104.8z"/>
							</defs>
							<clipPath id="SVGID_00000021834559134945444070000014089956598988978358_">
								<use xlink:href="#SVGID_00000011737609092913497450000017299427218995684739_"  style="overflow:visible;"/>
							</clipPath>
							<g style="clip-path:url(#SVGID_00000021834559134945444070000014089956598988978358_);enable-background:new    ;">
								<path class="st39" d="M40.4,103.1l-0.4,1c-0.1,0-0.3,0-0.3,0.1l0.4-1C40.2,103.2,40.3,103.1,40.4,103.1"/>
								<path class="st38" d="M40.1,103.2l-0.4,1c-0.2,0.1-0.3,0.1-0.4,0.3l0.4-1C39.8,103.3,39.9,103.2,40.1,103.2"/>
								<path class="st37" d="M39.6,103.5l-0.4,1c-0.1,0.1-0.1,0.2-0.2,0.3l0.4-1C39.5,103.6,39.6,103.5,39.6,103.5"/>
								<path class="st36" d="M39.5,103.7l-0.4,1v0.1L39.5,103.7C39.4,103.8,39.4,103.7,39.5,103.7"/>
							</g>
						</g>
					</g>
				</g>
			</g>
			<g>
				<polygon class="st50" points="112.1,125.1 111.7,126.1 104.6,128.1 104.9,127.1 				"/>
			</g>
			<g>
				<polygon class="st46" points="113.9,125.9 113.5,126.9 104.6,128.1 104.9,127.1 				"/>
			</g>
			<g>
				<polygon class="st40" points="121.3,132.9 120.9,133.9 118.4,129.2 118.7,128.2 				"/>
			</g>
			<g>
				<polygon class="st42" points="150.1,128.9 149.7,129.9 120.9,133.9 121.3,132.9 				"/>
			</g>
			<g>
				<polygon class="st47" points="121.7,133.6 121.3,134.6 120.9,133.9 121.3,132.9 				"/>
			</g>
			<g>
				<polygon class="st44" points="150.5,129.6 150.1,130.6 121.3,134.6 121.7,133.6 				"/>
			</g>
			<g class="st12">
				<g>
					<g>
						<g>
							<defs>
								<path id="SVGID_00000044154093600182721000000003413863091067999624_" d="M39.1,104.8l0.4-1c-0.1,0.3-0.1,0.6,0.1,0.9
									l-0.4,1C39,105.4,38.9,105.1,39.1,104.8z"/>
							</defs>
							<clipPath id="SVGID_00000031890345356133889160000017375159827144413112_">
								<use xlink:href="#SVGID_00000044154093600182721000000003413863091067999624_"  style="overflow:visible;"/>
							</clipPath>
							<g style="clip-path:url(#SVGID_00000031890345356133889160000017375159827144413112_);enable-background:new    ;">
								<path class="st62" d="M39.5,104.7l-0.4,1c-0.2-0.3-0.2-0.6-0.1-0.9l0.4-1C39.3,104.1,39.3,104.4,39.5,104.7"/>
							</g>
						</g>
					</g>
				</g>
			</g>
			<g>
				<polygon class="st40" points="81.3,120.5 81,121.5 78.4,116.8 78.7,115.8 				"/>
			</g>
			<g>
				<polygon class="st42" points="110.1,116.5 109.8,117.5 81,121.5 81.3,120.5 				"/>
			</g>
			<g>
				<polygon class="st50" points="72,112.7 71.6,113.8 64.4,115.7 64.8,114.7 				"/>
			</g>
			<g>
				<polygon class="st51" points="72,112.7 71.1,109.7 71.6,109.7 73.7,113.5 64.8,114.7 				"/>
			</g>
			<g>
				<polygon class="st46" points="73.7,113.5 73.3,114.5 64.4,115.7 64.8,114.7 				"/>
			</g>
			<g>
				<polygon class="st47" points="81.7,121.2 81.3,122.2 81,121.5 81.3,120.5 				"/>
			</g>
			<g>
				<polygon class="st44" points="110.5,117.2 110.1,118.2 81.3,122.2 81.7,121.2 				"/>
			</g>
			<g>
				<polygon class="st52" points="110.1,116.5 110.5,117.2 81.7,121.2 81.3,120.5 				"/>
			</g>
			<g>
				<polygon class="st40" points="41.3,108 40.9,109.1 39.2,105.7 39.5,104.7 				"/>
			</g>
			<g>
				<polygon class="st42" points="70.1,104 69.7,105 40.9,109.1 41.3,108 				"/>
			</g>
			<g>
				<polygon class="st40" points="123.8,137.7 123.5,138.7 121.3,134.6 121.7,133.6 				"/>
			</g>
			<g>
				<polygon class="st42" points="151.1,133.9 150.8,134.9 123.5,138.7 123.8,137.7 				"/>
			</g>
			<g>
				<polygon class="st47" points="41.7,108.8 41.3,109.8 40.9,109.1 41.3,108 				"/>
			</g>
			<g>
				<polygon class="st44" points="70.5,104.7 70.1,105.7 41.3,109.8 41.7,108.8 				"/>
			</g>
			<g>
				<polygon class="st44" points="151.4,134.6 151,135.6 123.9,139.4 124.2,138.4 				"/>
			</g>
			<g>
				<polygon class="st47" points="124.2,138.4 123.9,139.4 123.5,138.7 123.8,137.7 				"/>
			</g>
			<g>
				<polygon class="st40" points="120.4,138.2 120.1,139.2 119,137.2 119.4,136.2 				"/>
			</g>
			<g>
				<polygon class="st41" points="124.6,143.5 124.2,144.5 116.2,129.5 116.6,128.5 				"/>
			</g>
			<g>
				<polygon class="st42" points="121.7,138 121.3,139 120.1,139.2 120.4,138.2 				"/>
			</g>
			<g>
				<polygon class="st45" points="83.9,125.3 81.7,121.2 110.5,117.2 112.7,121.2 111.5,121.4 110.3,119.4 111,121.5 				"/>
			</g>
			<g>
				<polygon class="st40" points="83.9,125.3 83.5,126.3 81.3,122.2 81.7,121.2 				"/>
			</g>
			<g>
				<polygon class="st42" points="111,121.5 110.6,122.5 83.5,126.3 83.9,125.3 				"/>
			</g>
			<g>
				<polygon class="st51" points="120,138.3 119.4,136.2 120.4,138.2 				"/>
			</g>
			<g>
				<polygon class="st43" points="120,138.3 119.6,139.3 119,137.2 119.4,136.2 				"/>
			</g>
			<g>
				<polygon class="st46" points="120.4,138.2 120.1,139.2 119.6,139.3 120,138.3 				"/>
			</g>
			<g>
				<polygon class="st47" points="120.8,138.9 120.5,139.9 120.1,139.2 120.4,138.2 				"/>
			</g>
			<g>
				<polygon class="st44" points="122.1,138.7 121.7,139.7 120.5,139.9 120.8,138.9 				"/>
			</g>
			<g>
				<polygon class="st52" points="120.4,138.2 121.7,138 122.1,138.7 120.8,138.9 				"/>
			</g>
			<g>
				<polygon class="st47" points="84.3,126 83.9,127 83.5,126.3 83.9,125.3 				"/>
			</g>
			<g>
				<polygon class="st44" points="111.2,122.2 110.9,123.2 83.9,127 84.3,126 				"/>
			</g>
			<g>
				<polygon class="st48" points="120.2,139 119.8,140 119.6,139.3 120,138.3 				"/>
			</g>
			<g>
				<polygon class="st49" points="120.8,138.9 120.5,139.9 119.8,140 120.2,139 				"/>
			</g>
			<g>
				<polygon class="st40" points="43.9,112.8 43.5,113.8 41.3,109.8 41.7,108.8 				"/>
			</g>
			<g>
				<polygon class="st42" points="70.8,109 70.5,110 43.5,113.8 43.9,112.8 				"/>
			</g>
			<g>
				<polygon class="st40" points="80.3,125.8 79.9,126.8 78.9,124.8 79.2,123.8 				"/>
			</g>
			<g>
				<polygon class="st41" points="84.6,131.1 84.3,132.1 76.2,117.1 76.6,116.1 				"/>
			</g>
			<g>
				<polygon class="st42" points="81.7,125.6 81.3,126.6 79.9,126.8 80.3,125.8 				"/>
			</g>
			<g>
				<polygon class="st43" points="79.9,125.8 79.5,126.8 78.9,124.8 79.2,123.8 				"/>
			</g>
			<g>
				<polygon class="st46" points="80.3,125.8 79.9,126.8 79.5,126.8 79.9,125.8 				"/>
			</g>
			<g>
				<polygon class="st52" points="44.2,113.5 43.9,112.8 70.8,109 71.1,109.7 				"/>
			</g>
			<g>
				<polygon class="st44" points="71.1,109.7 70.7,110.8 43.9,114.5 44.2,113.5 				"/>
			</g>
			<g>
				<polygon class="st47" points="44.2,113.5 43.9,114.5 43.5,113.8 43.9,112.8 				"/>
			</g>
			<g>
				<polygon class="st47" points="80.7,126.5 80.3,127.5 79.9,126.8 80.3,125.8 				"/>
			</g>
			<g>
				<polygon class="st52" points="80.3,125.8 81.7,125.6 82.1,126.3 80.7,126.5 				"/>
			</g>
			<g>
				<polygon class="st44" points="82.1,126.3 81.7,127.3 80.3,127.5 80.7,126.5 				"/>
			</g>
			<g>
				<polygon class="st40" points="126.8,143.2 126.4,144.2 123.9,139.4 124.2,138.4 				"/>
			</g>
			<g>
				<polygon class="st42" points="153.9,139.4 153.5,140.4 126.4,144.2 126.8,143.2 				"/>
			</g>
			<g>
				<polygon class="st48" points="80.1,126.6 79.7,127.6 79.5,126.8 79.9,125.8 				"/>
			</g>
			<g>
				<polygon class="st49" points="80.7,126.5 80.3,127.5 79.7,127.6 80.1,126.6 				"/>
			</g>
			<g>
				<polygon class="st40" points="122.8,142.7 122.5,143.7 120.5,139.9 120.8,138.9 				"/>
			</g>
			<g>
				<polygon class="st43" points="121.1,141.9 120.7,142.9 119.8,140 120.2,139 				"/>
			</g>
			<g>
				<polygon class="st40" points="86.8,130.8 86.4,131.8 83.9,127 84.3,126 				"/>
			</g>
			<g>
				<polygon class="st42" points="115.6,126.7 115.3,127.7 86.4,131.8 86.8,130.8 				"/>
			</g>
			<g>
				<polygon class="st40" points="82.7,130.2 82.3,131.3 80.3,127.5 80.7,126.5 				"/>
			</g>
			<g>
				<polygon class="st43" points="81,129.5 80.6,130.5 79.7,127.6 80.1,126.6 				"/>
			</g>
			<g>
				<polygon class="st19" points="116.6,128.5 116.2,129.5 87.4,133.5 87.8,132.5 				"/>
			</g>
			<g>
				<polygon class="st40" points="46.8,118.3 46.4,119.3 43.9,114.5 44.2,113.5 				"/>
			</g>
			<g>
				<polygon class="st42" points="75.6,114.3 75.3,115.3 46.4,119.3 46.8,118.3 				"/>
			</g>
			<g>
				<polygon class="st19" points="76.6,116.1 76.2,117.1 47.4,121.1 47.8,120.1 				"/>
			</g>
			<g>
				<polygon class="st50" points="121.1,141.9 120.7,142.9 113.6,144.9 113.9,143.9 				"/>
			</g>
			<g>
				<polygon class="st46" points="122.8,142.7 122.5,143.7 113.6,144.9 113.9,143.9 				"/>
			</g>
			<g>
				<polygon class="st42" points="119.1,133.2 118.8,134.3 89.9,138.3 90.3,137.3 				"/>
			</g>
			<g>
				<polygon class="st45" points="90.3,137.3 87.8,132.5 116.6,128.5 119.1,133.2 				"/>
			</g>
			<g>
				<polygon class="st40" points="90.3,137.3 89.9,138.3 87.4,133.5 87.8,132.5 				"/>
			</g>
			<g>
				<polygon class="st50" points="81,129.5 80.6,130.5 73.5,132.5 73.8,131.5 				"/>
			</g>
			<g>
				<polygon class="st46" points="82.7,130.2 82.3,131.3 73.5,132.5 73.8,131.5 				"/>
			</g>
			<g>
				<polygon class="st51" points="81,129.5 80.1,126.6 80.7,126.5 82.7,130.2 73.8,131.5 				"/>
			</g>
			<g>
				<polygon class="st44" points="119.5,134 119.1,135 90.3,139 90.7,138 				"/>
			</g>
			<g>
				<polygon class="st47" points="90.7,138 90.3,139 89.9,138.3 90.3,137.3 				"/>
			</g>
			<g>
				<polygon class="st40" points="50.3,124.9 50,125.9 47.4,121.1 47.8,120.1 				"/>
			</g>
			<g>
				<polygon class="st42" points="79.1,120.8 78.8,121.9 50,125.9 50.3,124.9 				"/>
			</g>
			<g>
				<polygon class="st45" points="50.3,124.9 47.8,120.1 76.6,116.1 79.1,120.8 				"/>
			</g>
			<g>
				<polygon class="st47" points="50.7,125.6 50.3,126.6 50,125.9 50.3,124.9 				"/>
			</g>
			<g>
				<polygon class="st44" points="79.5,121.5 79.2,122.6 50.3,126.6 50.7,125.6 				"/>
			</g>
			<g>
				<polygon class="st42" points="120,138.3 119.6,139.3 92.5,143.1 92.9,142.1 				"/>
			</g>
			<g>
				<polygon class="st40" points="92.9,142.1 92.5,143.1 90.3,139 90.7,138 				"/>
			</g>
			<g>
				<polygon class="st47" points="93.2,142.8 92.9,143.8 92.5,143.1 92.9,142.1 				"/>
			</g>
			<g>
				<polygon class="st52" points="93.2,142.8 92.9,142.1 120,138.3 120.2,139 				"/>
			</g>
			<g>
				<polygon class="st44" points="120.2,139 119.8,140 92.9,143.8 93.2,142.8 				"/>
			</g>
			<g>
				<polygon class="st40" points="89.3,142.6 88.9,143.6 87.8,141.6 88.2,140.5 				"/>
			</g>
			<g>
				<polygon class="st41" points="93.6,147.8 93.3,148.9 85.2,133.8 85.5,132.8 				"/>
			</g>
			<g>
				<polygon class="st42" points="90.7,142.4 90.3,143.4 88.9,143.6 89.3,142.6 				"/>
			</g>
			<g>
				<polygon class="st40" points="52.9,129.7 52.5,130.7 50.3,126.6 50.7,125.6 				"/>
			</g>
			<g>
				<polygon class="st42" points="79.9,125.8 79.5,126.8 52.5,130.7 52.9,129.7 				"/>
			</g>
			<g>
				<polygon class="st46" points="89.3,142.6 88.9,143.6 88.5,143.6 88.8,142.6 				"/>
			</g>
			<g>
				<polygon class="st43" points="88.8,142.6 88.5,143.6 87.8,141.6 88.2,140.5 				"/>
			</g>
			<g>
				<polygon class="st47" points="89.7,143.3 89.3,144.3 88.9,143.6 89.3,142.6 				"/>
			</g>
			<g>
				<polygon class="st44" points="91.1,143.1 90.7,144.1 89.3,144.3 89.7,143.3 				"/>
			</g>
			<g>
				<polygon class="st44" points="80.1,126.6 79.7,127.6 52.9,131.4 53.2,130.4 				"/>
			</g>
			<g>
				<polygon class="st47" points="53.2,130.4 52.9,131.4 52.5,130.7 52.9,129.7 				"/>
			</g>
			<g>
				<polygon class="st52" points="53.2,130.4 52.9,129.7 79.9,125.8 80.1,126.6 				"/>
			</g>
			<g>
				<polygon class="st48" points="89.1,143.4 88.7,144.4 88.5,143.6 88.8,142.6 				"/>
			</g>
			<g>
				<polygon class="st49" points="89.7,143.3 89.3,144.3 88.7,144.4 89.1,143.4 				"/>
			</g>
			<g>
				<polygon class="st40" points="95.8,147.5 95.4,148.5 92.9,143.8 93.2,142.8 				"/>
			</g>
			<g>
				<polygon class="st42" points="124.6,143.5 124.2,144.5 95.4,148.5 95.8,147.5 				"/>
			</g>
			<g>
				<polygon class="st40" points="91.7,147 91.3,148.1 89.3,144.3 89.7,143.3 				"/>
			</g>
			<g>
				<polygon class="st43" points="89.9,146.3 89.6,147.3 88.7,144.4 89.1,143.4 				"/>
			</g>
			<g>
				<polygon class="st40" points="55.8,135.1 55.5,136.1 52.9,131.4 53.2,130.4 				"/>
			</g>
			<g>
				<polygon class="st42" points="84.6,131.1 84.3,132.1 55.5,136.1 55.8,135.1 				"/>
			</g>
			<g>
				<polygon class="st19" points="85.5,132.8 85.2,133.8 56.4,137.9 56.8,136.9 				"/>
			</g>
			<g>
				<polygon class="st50" points="89.9,146.3 89.6,147.3 82.4,149.3 82.8,148.3 				"/>
			</g>
			<g>
				<polygon class="st46" points="91.7,147 91.3,148.1 82.4,149.3 82.8,148.3 				"/>
			</g>
			<g>
				<polygon class="st42" points="88.1,137.6 87.8,138.6 59.5,142.6 59.8,141.6 				"/>
			</g>
			<g>
				<polygon class="st44" points="88.5,138.3 88.1,139.3 59.8,143.3 60.2,142.3 				"/>
			</g>
			<g>
				<polygon class="st47" points="60.2,142.3 59.8,143.3 59.5,142.6 59.8,141.6 				"/>
			</g>
			<g>
				<polygon class="st42" points="88.8,142.6 88.5,143.6 62,147.4 62.4,146.4 				"/>
			</g>
			<g>
				<polygon class="st47" points="62.7,147.1 62.4,148.1 62,147.4 62.4,146.4 				"/>
			</g>
			<g>
				<polygon class="st52" points="62.7,147.1 62.4,146.4 88.8,142.6 89.1,143.4 				"/>
			</g>
			<g>
				<polygon class="st44" points="89.1,143.4 88.7,144.4 62.4,148.1 62.7,147.1 				"/>
			</g>
			<g>
				<polygon class="st40" points="64.1,150.5 63.7,151.5 56.4,137.9 56.8,136.9 				"/>
			</g>
			<g>
				<polygon class="st42" points="93.6,147.8 93.3,148.9 66.1,152.7 66.5,151.7 				"/>
			</g>
			<g class="st12">
				<g>
					<g>
						<g>
							<defs>
								<path id="SVGID_00000091715336809560209940000011949640430545808284_" d="M66.5,151.7l-0.4,1c-0.9,0.1-2-0.4-2.4-1.1l0.4-1
									C64.5,151.3,65.5,151.8,66.5,151.7z"/>
							</defs>
							<clipPath id="SVGID_00000001622996316840026580000008654422965694837125_">
								<use xlink:href="#SVGID_00000091715336809560209940000011949640430545808284_"  style="overflow:visible;"/>
							</clipPath>
							<g style="clip-path:url(#SVGID_00000001622996316840026580000008654422965694837125_);enable-background:new    ;">
								<path class="st59" d="M66.5,151.7l-0.4,1c-0.1,0-0.2,0-0.3,0l0.4-1C66.3,151.7,66.4,151.7,66.5,151.7"/>
								<path class="st58" d="M66.2,151.7l-0.4,1c-0.2,0-0.4,0-0.6-0.1l0.4-1C65.8,151.6,66,151.7,66.2,151.7"/>
								<path class="st57" d="M65.6,151.6l-0.4,1c-0.1,0-0.3-0.1-0.4-0.1l0.4-1C65.3,151.5,65.4,151.6,65.6,151.6"/>
								<path class="st56" d="M65.1,151.5l-0.4,1c-0.1-0.1-0.3-0.1-0.4-0.2l0.4-1C64.8,151.3,65,151.4,65.1,151.5"/>
								<path class="st62" d="M64.7,151.2l-0.4,1c-0.3-0.2-0.5-0.4-0.7-0.7l0.4-1C64.2,150.8,64.4,151,64.7,151.2"/>
							</g>
						</g>
					</g>
				</g>
			</g>
			<g>
				<path class="st64" d="M128,88.4c1.9-0.3,4.1,0.8,5,2.3l25.4,47.5c0.8,1.6,0,3-2,3.3l-90,12.7c-1.9,0.3-4.1-0.8-5-2.3L36,104.3
					c-0.8-1.6,0-3,2-3.3L128,88.4z M137.6,105.6L130.3,92c-0.4-0.8-1.5-1.3-2.4-1.1l-27.1,3.8l2.6,4.7l0.4,0.7l2.2,4.1l0.4,0.7
					l2.6,4.8L137.6,105.6 M106.6,110l-8.1-15l-28.7,4l2.6,4.7l0.4,0.7l2.2,4.1l0.4,0.7L78,114L106.6,110 M75.6,114.3l-8.1-15
					l-27.1,3.8c-0.9,0.1-1.3,0.9-0.9,1.6l1.8,3.3l0.4,0.7l2.2,4.1l0.4,0.7l2.6,4.8L75.6,114.3 M154.8,137.7l-7.3-13.6l-28.8,4.1
					l2.6,4.8l0.4,0.7l2.2,4.1l0.4,0.7l2.6,4.8l27.1-3.8C154.8,139.3,155.2,138.5,154.8,137.7 M124.6,143.5l-8.1-15l-28.8,4.1
					l2.6,4.8l0.4,0.7l2.2,4.1l0.4,0.7l2.6,4.8L124.6,143.5 M93.6,147.8l-8.1-15l-28.8,4.1l7.3,13.6c0.4,0.8,1.5,1.3,2.4,1.1
					L93.6,147.8 M146.6,122.4l-8.1-15l-28.8,4.1l2.6,4.8l0.4,0.7l2.2,4.1l0.4,0.7l2.6,4.8L146.6,122.4 M115.6,126.7l-8.1-15
					l-28.8,4.1l2.6,4.8l0.4,0.7l2.2,4.1l0.4,0.7l2.6,4.8L115.6,126.7 M84.6,131.1l-8.1-15l-28.8,4.1l2.6,4.8l0.4,0.7l2.2,4.1
					l0.4,0.7l2.6,4.8L84.6,131.1"/>
			</g>
			<g>
				<polygon class="st51" points="133.1,100.3 132.5,98.2 133.6,100.2 				"/>
			</g>
			<g>
				<polygon class="st52" points="133.6,100.2 134.6,100.1 135,100.8 134,100.9 				"/>
			</g>
			<g>
				<polygon class="st53" points="133.6,100.2 134,100.9 133.4,101 133.1,100.3 				"/>
			</g>
			<g>
				<polygon class="st52" points="142.6,117.1 143.7,116.9 144,117.6 143,117.8 				"/>
			</g>
			<g>
				<polygon class="st52" points="106.2,104.8 105.8,104.1 133.1,100.3 133.4,101 				"/>
			</g>
			<g>
				<polygon class="st53" points="142.6,117.1 143,117.8 142.3,117.8 142.1,117.1 				"/>
			</g>
			<g>
				<polygon class="st51" points="102,104.6 101.4,102.6 102.4,104.6 				"/>
			</g>
			<g>
				<polygon class="st53" points="102.4,104.6 102.8,105.3 102.2,105.4 102,104.6 				"/>
			</g>
			<g>
				<polygon class="st45" points="136,104.7 134,100.9 135,100.8 137.6,105.6 108.8,109.6 106.2,104.8 133.4,101 134.3,104 
					127.1,106 				"/>
			</g>
			<g>
				<polygon class="st51" points="143.2,120.7 142.3,117.8 143,117.8 145,121.5 136.1,122.7 				"/>
			</g>
			<g>
				<polygon class="st51" points="103.1,108.4 102.2,105.4 102.8,105.3 104.8,109.1 96,110.4 				"/>
			</g>
			<g>
				<polygon class="st45" points="112.3,116.2 109.8,111.4 138.5,107.3 141.1,112.1 				"/>
			</g>
			<g>
				<polygon class="st52" points="101.1,99.6 101.5,100.3 72.7,104.4 72.3,103.7 				"/>
			</g>
			<g>
				<polygon class="st45" points="114.9,120.9 112.7,116.9 141.5,112.8 143.7,116.9 142.6,117.1 141.5,115 142.1,117.1 				"/>
			</g>
			<g>
				<polygon class="st51" points="151.1,133.9 150.5,131.8 151.6,133.8 				"/>
			</g>
			<g>
				<polygon class="st52" points="151.6,133.8 152.7,133.6 153,134.4 152,134.5 				"/>
			</g>
			<g>
				<polygon class="st45" points="74.8,108.4 72.7,104.4 101.5,100.3 103.7,104.4 102.4,104.6 101.4,102.6 102,104.6 				"/>
			</g>
			<g>
				<polygon class="st51" points="111,121.5 110.3,119.4 111.5,121.4 				"/>
			</g>
			<g>
				<polygon class="st53" points="111.5,121.4 111.8,122.1 111.2,122.2 111,121.5 				"/>
			</g>
			<g>
				<polygon class="st51" points="70.8,109 70.2,107 71.3,109 				"/>
			</g>
			<g>
				<polygon class="st52" points="71.3,109 72.6,108.8 73,109.5 71.6,109.7 				"/>
			</g>
			<g class="st12">
				<g>
					<g>
						<g>
							<defs>
								<path id="SVGID_00000145033307449981492790000018007099544727908772_" d="M158.6,139.9l-0.4,1c-0.3,0.8-1,1.3-2.2,1.5l0.4-1
									C157.5,141.3,158.3,140.7,158.6,139.9z"/>
							</defs>
							<clipPath id="SVGID_00000082362347053781753940000008338142441820938135_">
								<use xlink:href="#SVGID_00000145033307449981492790000018007099544727908772_"  style="overflow:visible;"/>
							</clipPath>
							<g style="clip-path:url(#SVGID_00000082362347053781753940000008338142441820938135_);enable-background:new    ;">
								<path class="st36" d="M158.6,139.9l-0.4,1c0,0.1,0,0.1-0.1,0.2l0.4-1C158.5,140.1,158.5,140,158.6,139.9"/>
								<path class="st37" d="M158.5,140.1l-0.4,1c-0.1,0.2-0.2,0.4-0.4,0.6l0.4-1C158.2,140.5,158.4,140.3,158.5,140.1"/>
								<path class="st38" d="M158.1,140.7l-0.4,1c-0.3,0.2-0.6,0.4-0.9,0.6l0.4-1C157.5,141.1,157.8,140.9,158.1,140.7"/>
								<path class="st39" d="M157.2,141.3l-0.4,1c-0.2,0.1-0.5,0.1-0.8,0.2l0.4-1C156.7,141.4,156.9,141.3,157.2,141.3"/>
							</g>
						</g>
					</g>
				</g>
			</g>
			<g>
				<polygon class="st51" points="152.3,137.5 151.4,134.6 152,134.5 154,138.3 145.1,139.5 				"/>
			</g>
			<g>
				<polygon class="st51" points="112.1,125.1 111.2,122.2 111.8,122.1 113.9,125.9 104.9,127.1 				"/>
			</g>
			<g>
				<polygon class="st45" points="121.3,132.9 118.7,128.2 147.6,124.1 150.1,128.9 				"/>
			</g>
			<g>
				<polygon class="st52" points="150.1,128.9 150.5,129.6 121.7,133.6 121.3,132.9 				"/>
			</g>
			<g class="st12">
				<g>
					<g>
						<g>
							<defs>
								<path id="SVGID_00000108287526954292792690000015835660809892996269_" d="M35.4,103.5l0.4-1c-0.2,0.5-0.1,1.1,0.2,1.8
									l-0.4,1C35.3,104.7,35.2,104.1,35.4,103.5z"/>
							</defs>
							<clipPath id="SVGID_00000182514134662348341080000001072346543150939787_">
								<use xlink:href="#SVGID_00000108287526954292792690000015835660809892996269_"  style="overflow:visible;"/>
							</clipPath>
							<g style="clip-path:url(#SVGID_00000182514134662348341080000001072346543150939787_);enable-background:new    ;">
								<path class="st32" d="M36,104.3l-0.4,1c-0.3-0.6-0.4-1.3-0.2-1.8l0.4-1C35.6,103.1,35.7,103.7,36,104.3"/>
							</g>
						</g>
					</g>
				</g>
			</g>
			<g>
				<polygon class="st45" points="81.3,120.5 78.7,115.8 107.6,111.7 110.1,116.5 				"/>
			</g>
			<g>
				<path class="st45" d="M39.5,104.7c-0.4-0.8,0-1.5,0.9-1.6l27.1-3.8l2.6,4.7l-28.8,4.1L39.5,104.7z"/>
			</g>
			<g>
				<polygon class="st45" points="123.8,137.7 121.7,133.6 150.5,129.6 152.7,133.6 151.6,133.8 150.5,131.8 151.1,133.9 				"/>
			</g>
			<g>
				<polygon class="st52" points="70.1,104 70.5,104.7 41.7,108.8 41.3,108 				"/>
			</g>
			<g>
				<polygon class="st52" points="124.2,138.4 123.8,137.7 151.1,133.9 151.4,134.6 				"/>
			</g>
			<g>
				<polygon class="st52" points="84.3,126 83.9,125.3 111,121.5 111.2,122.2 				"/>
			</g>
			<g>
				<polygon class="st53" points="120.4,138.2 120.8,138.9 120.2,139 120,138.3 				"/>
			</g>
			<g>
				<polygon class="st45" points="43.9,112.8 41.7,108.8 70.5,104.7 72.6,108.8 71.3,109 70.2,107 70.8,109 				"/>
			</g>
			<g>
				<polygon class="st51" points="79.9,125.8 79.2,123.8 80.3,125.8 				"/>
			</g>
			<g>
				<path class="st45" d="M154,138.3l-2-3.8l1.1-0.1l1.8,3.4c0.4,0.8,0,1.5-0.9,1.6l-27.1,3.8l-2.6-4.8l27.1-3.8l0.9,2.9l-7.1,2
					L154,138.3z"/>
			</g>
			<g>
				<polygon class="st53" points="80.3,125.8 80.7,126.5 80.1,126.6 79.9,125.8 				"/>
			</g>
			<g>
				<polygon class="st45" points="113.9,125.9 111.8,122.1 113,121.9 115.6,126.7 86.8,130.8 84.3,126 111.2,122.2 112.1,125.1 
					104.9,127.1 				"/>
			</g>
			<g>
				<polygon class="st45" points="73.7,113.5 71.6,109.7 73,109.5 75.6,114.3 46.8,118.3 44.2,113.5 71.1,109.7 72,112.7 
					64.8,114.7 				"/>
			</g>
			<g>
				<polygon class="st51" points="121.1,141.9 120.2,139 120.8,138.9 122.8,142.7 113.9,143.9 				"/>
			</g>
			<g>
				<polygon class="st52" points="119.1,133.2 119.5,134 90.7,138 90.3,137.3 				"/>
			</g>
			<g>
				<polygon class="st52" points="79.1,120.8 79.5,121.5 50.7,125.6 50.3,124.9 				"/>
			</g>
			<g>
				<polygon class="st45" points="92.9,142.1 90.7,138 119.5,134 121.7,138 120.4,138.2 119.4,136.2 120,138.3 				"/>
			</g>
			<g>
				<polygon class="st45" points="52.9,129.7 50.7,125.6 79.5,121.5 81.7,125.6 80.3,125.8 79.2,123.8 79.9,125.8 				"/>
			</g>
			<g>
				<polygon class="st51" points="88.8,142.6 88.2,140.5 89.3,142.6 				"/>
			</g>
			<g>
				<polygon class="st52" points="89.3,142.6 90.7,142.4 91.1,143.1 89.7,143.3 				"/>
			</g>
			<g>
				<polygon class="st53" points="89.3,142.6 89.7,143.3 89.1,143.4 88.8,142.6 				"/>
			</g>
			<g>
				<polygon class="st45" points="122.8,142.7 120.8,138.9 122.1,138.7 124.6,143.5 95.8,147.5 93.2,142.8 120.2,139 121.1,141.9 
					113.9,143.9 				"/>
			</g>
			<g>
				<polygon class="st45" points="82.7,130.2 80.7,126.5 82.1,126.3 84.6,131.1 55.8,135.1 53.2,130.4 80.1,126.6 81,129.5 
					73.8,131.5 				"/>
			</g>
			<g>
				<polygon class="st51" points="89.9,146.3 89.1,143.4 89.7,143.3 91.7,147 82.8,148.3 				"/>
			</g>
			<g>
				<polygon class="st52" points="88.1,137.6 88.5,138.3 60.2,142.3 59.8,141.6 				"/>
			</g>
			<g>
				<path class="st45" d="M64.1,150.5l-7.3-13.6l28.8-4.1l2.6,4.8l-28.3,4l0.4,0.7l28.3-4l2.2,4.1l-1.4,0.2l-1.1-2l0.6,2.1
					l-26.5,3.7l0.4,0.7l26.3-3.7l0.9,2.9l-7.2,2l8.9-1.3l-2-3.7l1.4-0.2l2.6,4.8l-27.1,3.8C65.5,151.8,64.5,151.3,64.1,150.5z"/>
			</g>
			<g>
				<polygon class="st41" points="61.4,151.8 61.1,152.8 35.6,105.3 36,104.3 				"/>
			</g>
			<g>
				<polygon class="st19" points="156.4,141.4 156.1,142.4 66,155.1 66.4,154.1 				"/>
			</g>
			<g class="st12">
				<g>
					<g>
						<g>
							<defs>
								<path id="SVGID_00000018239129120862150830000016691856815486709410_" d="M66.4,154.1l-0.4,1c-1.9,0.3-4.1-0.8-5-2.3l0.4-1
									C62.3,153.3,64.5,154.3,66.4,154.1z"/>
							</defs>
							<clipPath id="SVGID_00000064321472201493095680000012442700781070523785_">
								<use xlink:href="#SVGID_00000018239129120862150830000016691856815486709410_"  style="overflow:visible;"/>
							</clipPath>
							<g style="clip-path:url(#SVGID_00000064321472201493095680000012442700781070523785_);enable-background:new    ;">
								<path class="st39" d="M66.4,154.1l-0.4,1c-0.2,0-0.4,0-0.6,0l0.4-1C66,154.1,66.2,154.1,66.4,154.1"/>
								<path class="st38" d="M65.8,154.1l-0.4,1c-0.4,0-0.9,0-1.3-0.1l0.4-1C64.9,154.1,65.4,154.1,65.8,154.1"/>
								<path class="st37" d="M64.5,154l-0.4,1c-0.3-0.1-0.6-0.2-0.9-0.3l0.4-1C63.8,153.8,64.2,153.9,64.5,154"/>
								<path class="st36" d="M63.6,153.6l-0.4,1c-0.3-0.1-0.6-0.3-0.9-0.5l0.4-1C63,153.3,63.3,153.5,63.6,153.6"/>
								<path class="st32" d="M62.7,153.2l-0.4,1c-0.6-0.4-1-0.9-1.3-1.4l0.4-1C61.7,152.3,62.2,152.8,62.7,153.2"/>
							</g>
						</g>
					</g>
				</g>
			</g>
		</g>
	</g>
</g>
</svg>
