<?xml version="1.0" encoding="utf-8"?>
<!-- Generator: Adobe Illustrator 28.3.0, SVG Export Plug-In . SVG Version: 6.00 Build 0)  -->
<svg version="1.1" id="Calque_1" xmlns="http://www.w3.org/2000/svg" xmlns:xlink="http://www.w3.org/1999/xlink" x="0px" y="0px"
	 viewBox="0 0 500 500" style="enable-background:new 0 0 500 500;" xml:space="preserve">
<style type="text/css">
	.st0{fill:#ECA438;}
	.st1{fill:#F7FAF7;}
	.st2{fill:#D8D8D8;}
	.st3{fill:#E0E0E0;}
	.st4{fill:#2899CB;}
	.st5{fill:#54A6DC;}
	.st6{fill:#313131;}
	.st7{fill:#238BAF;}
	.st8{fill:#2BA9E1;}
</style>
<g id="border">
	<path class="st0" d="M464.3,500H35.7C16,500,0,484,0,464.3V35.7C0,16,16,0,35.7,0h428.6C484,0,500,16,500,35.7v428.6
		C500,484,484,500,464.3,500z"/>
	<path class="st1" d="M452.4,476.2H47.6c-13.1,0-23.8-10.7-23.8-23.8V47.6c0-13.1,10.7-23.8,23.8-23.8h404.8
		c13.1,0,23.8,10.7,23.8,23.8v404.8C476.2,465.5,465.5,476.2,452.4,476.2z"/>
</g>
<g>
	<g>
		<g>
			<g>
				<path class="st2" d="M413.6,237.8c0,81-58.8,148.2-136.1,161.2c-8.9,1.5-18.1,2.3-27.4,2.3c-90.3,0-163.5-73.2-163.5-163.5
					c0-42.1,15.9-80.5,42.1-109.5c29.9-33.2,73.2-54,121.4-54C340.4,74.3,413.6,147.5,413.6,237.8z"/>
			</g>
		</g>
		<g>
			<g>
				<path class="st3" d="M413.6,237.8c0,81-58.8,148.2-136.1,161.2c-5.3,0.5-10.8,0.8-16.3,0.8c-92.8,0-168.1-75.3-168.1-168.1
					c0-39,13.3-74.9,35.5-103.4c29.9-33.2,73.2-54,121.4-54C340.4,74.3,413.6,147.5,413.6,237.8z"/>
			</g>
		</g>
		<g>
			<g>
				<g>
					<path class="st3" d="M216.1,66.7c-0.9,0-1.8-0.7-2-1.6c-0.2-1.1,0.5-2.1,1.6-2.3c11.2-2.2,22.8-3.3,34.3-3.3c1.1,0,2,0.9,2,2
						s-0.9,2-2,2c-11.3,0-22.6,1.1-33.6,3.2C216.3,66.6,216.2,66.7,216.1,66.7z"/>
				</g>
			</g>
			<g>
				<g>
					<path class="st3" d="M427,240.3c-1.1,0-2-0.9-2-2c0-11.9-1.2-23.7-3.6-35.3c-0.2-1.1,0.5-2.1,1.6-2.4c1.1-0.2,2.1,0.5,2.4,1.6
						c2.4,11.8,3.6,23.9,3.6,36.1C429,239.4,428.1,240.3,427,240.3z"/>
				</g>
			</g>
			<g>
				<g>
					<path class="st3" d="M250,417.3c-1.1,0-2-0.9-2-2s0.9-2,2-2c10.4,0,20.9-0.9,31-2.7c1.1-0.2,2.1,0.5,2.3,1.6
						c0.2,1.1-0.5,2.1-1.6,2.3C271.4,416.3,260.7,417.3,250,417.3z"/>
				</g>
			</g>
			<g>
				<g>
					<path class="st3" d="M75.5,269.7c-1,0-1.8-0.7-2-1.7c-1.6-9.8-2.5-19.8-2.5-29.7c0-1.1,0.9-2,2-2s2,0.9,2,2
						c0,9.8,0.8,19.5,2.4,29.1c0.2,1.1-0.6,2.1-1.6,2.3C75.7,269.7,75.6,269.7,75.5,269.7z"/>
				</g>
			</g>
		</g>
		<g>
			<g>
				<g>
					<path class="st3" d="M202,62.8c-0.9,0-1.7-0.6-1.9-1.5c-0.3-1.1,0.3-2.2,1.4-2.5c11.5-3.1,23.4-5.1,35.3-6
						c1.1-0.1,2.1,0.8,2.1,1.9c0.1,1.1-0.8,2.1-1.9,2.1c-11.7,0.8-23.3,2.8-34.6,5.8C202.3,62.8,202.1,62.8,202,62.8z"/>
				</g>
			</g>
			<g>
				<g>
					<path class="st3" d="M433.4,227.2c-1,0-1.9-0.8-2-1.9c-0.9-12.3-3-24.5-6.3-36.3c-0.3-1.1,0.3-2.2,1.4-2.5s2.2,0.3,2.5,1.4
						c3.4,12,5.5,24.5,6.4,37.1c0.1,1.1-0.8,2.1-1.9,2.1C433.5,227.2,433.5,227.2,433.4,227.2z"/>
				</g>
			</g>
			<g>
				<g>
					<path class="st3" d="M263.1,423.7c-1,0-1.9-0.8-2-1.9s0.8-2.1,1.9-2.1c10.8-0.8,21.6-2.5,32-5.1c1.1-0.3,2.2,0.4,2.4,1.4
						c0.3,1.1-0.4,2.2-1.4,2.4c-10.6,2.7-21.6,4.5-32.7,5.3C263.2,423.7,263.2,423.7,263.1,423.7z"/>
				</g>
			</g>
			<g>
				<g>
					<path class="st3" d="M71.3,283.7c-0.9,0-1.7-0.6-1.9-1.5c-2.4-10-4-20.3-4.8-30.6c-0.1-1.1,0.8-2.1,1.9-2.1
						c1.1-0.1,2.1,0.8,2.1,1.9c0.7,10.1,2.3,20.2,4.6,30c0.3,1.1-0.4,2.2-1.5,2.4C71.6,283.7,71.5,283.7,71.3,283.7z"/>
				</g>
			</g>
		</g>
		<g>
			<g>
				<g>
					<path class="st4" d="M394.1,237.8c0,54.6-30.3,102-75.1,126.5c-20.5,11.2-44,17.5-68.9,17.5c-79.5,0-144-64.5-144-144
						c0-51.4,26.9-96.5,67.4-122c22.2-14,48.4-22,76.6-22C329.6,93.8,394.1,158.3,394.1,237.8z"/>
				</g>
			</g>
			<g>
				<g>
					<path class="st5" d="M386.4,242.3c0,51.4-26.9,96.5-67.4,122c-20.5,11.2-44,17.5-68.9,17.5c-79.5,0-144-64.5-144-144
						c0-51.4,26.9-96.5,67.4-122c20.5-11.2,44-17.5,68.9-17.5C322,98.3,386.4,162.8,386.4,242.3z"/>
				</g>
			</g>
		</g>
		<g>
			<g id="_x3C_Répétition_radiale_x3E__00000130643955954705376020000000163202451926884799_">
				<g id="_x3C_Répétition_radiale_x3E__00000124150330762125613570000000949340036429672349_">
					<g>
						<path class="st6" d="M264.6,356.8l1-122.7l-5.8,0.1c-1.7,0-3.3,0.2-4.9,0.6c-4,1-7.7,3.1-10.7,6.2c-4.1,4.3-6.3,10-6.2,15.9
							l1.4,79.9c0,0,0,0,0,0C241.6,348.7,252.2,357.4,264.6,356.8z M265.7,234.1l-0.2,0l0.3,5.5L265.7,234.1z"/>
						<path class="st1" d="M239.4,341l-0.1-4.1c2.3,11.8,12.9,20.5,25.3,19.9l1-122.7l0.3,5.5l2.1,117.1l0.1,6.1l-5.9,0.1
							C249.8,363.1,239.5,353.3,239.4,341z"/>
						<polygon class="st1" points="265.8,239.6 265.5,234.1 265.7,234.1 						"/>
						<path class="st1" d="M239.3,336.9C239.3,336.9,239.3,336.9,239.3,336.9l-1.4-79.9c-0.1-5.9,2.1-11.6,6.2-15.9
							c3-3.1,6.7-5.2,10.7-6.2c1.6-0.4,3.2-0.6,4.9-0.6l5.8-0.1l-1,122.7C252.2,357.4,241.6,348.7,239.3,336.9z"/>
						<path class="st3" d="M239.3,336.8l-1.4-79.9c-0.1-5.9,2.1-11.6,6.2-15.9c2.9-3,6.6-5.1,10.7-6.1c1.6-0.4,3.2-0.6,4.9-0.6
							l5.8-0.1l-1,122.7c-12.3,0.6-23-8.1-25.3-19.9C239.3,336.9,239.3,336.9,239.3,336.8C239.3,336.8,239.3,336.8,239.3,336.8z"/>
					</g>
				</g>
			</g>
			<g id="_x3C_Répétition_radiale_x3E__00000043445496374826772680000009446215260075241658_">
				<g id="_x3C_Répétition_radiale_x3E__00000175318783857156976450000005386751082375291037_">
					<g>
						<path class="st6" d="M214.9,352.4l50.8-111.7l-5.4-2.2c-1.5-0.7-3.1-1.1-4.8-1.4c-4.1-0.7-8.3-0.3-12.3,1.3
							c-5.5,2.2-9.8,6.6-12.2,12l-31.2,73.5c0,0,0,0,0,0C197.2,335.6,203.4,347.9,214.9,352.4z M265.9,240.7l-0.2,0l-2,5.1
							L265.9,240.7z"/>
						<path class="st1" d="M198.3,327.7l1.6-3.8c-2.8,11.7,3.5,24,15,28.5l50.8-111.7l-2,5.1L218,353.6l-2.4,5.6l-5.4-2.3
							C198.8,352.1,193.5,339,198.3,327.7z"/>
						<polygon class="st1" points="263.7,245.8 265.7,240.7 265.9,240.7 						"/>
						<path class="st1" d="M199.9,323.9C199.9,323.9,199.9,323.9,199.9,323.9l31.2-73.5c2.3-5.4,6.7-9.8,12.2-12
							c4-1.6,8.2-2,12.3-1.3c1.6,0.3,3.2,0.8,4.8,1.4l5.4,2.2l-50.8,111.7C203.4,347.9,197.2,335.6,199.9,323.9z"/>
						<path class="st3" d="M199.9,323.8l31.2-73.5c2.3-5.4,6.7-9.8,12.2-12c3.9-1.5,8.2-2,12.2-1.2c1.6,0.3,3.2,0.8,4.8,1.4l5.4,2.2
							l-50.8,111.7c-11.5-4.5-17.7-16.7-15-28.5c0,0,0,0,0,0C199.9,323.8,199.9,323.8,199.9,323.8z"/>
					</g>
				</g>
			</g>
			<g id="_x3C_Répétition_radiale_x3E__00000025430480663297647550000003878049219096767880_">
				<g id="_x3C_Répétition_radiale_x3E__00000094584147433096226820000001851717677509855162_">
					<g>
						<path class="st6" d="M171.3,328.1l91.8-81.4l-4-4.2c-1.1-1.2-2.4-2.3-3.8-3.2c-3.4-2.3-7.4-3.6-11.7-3.8c-5.9-0.2-11.6,2-16,6
							L169.2,296c0,0,0,0,0,0C161.9,305.6,162.7,319.4,171.3,328.1z M263.3,246.9l-0.2-0.1l-3.9,3.9L263.3,246.9z"/>
						<path class="st1" d="M166.2,298.9l3-2.9c-7.3,9.6-6.6,23.3,2.1,32.1l91.8-81.4l-3.9,3.9l-85.6,79.9l-4.5,4.2l-4-4.3
							C156.7,321.4,157.2,307.2,166.2,298.9z"/>
						<polygon class="st1" points="259.3,250.6 263.1,246.8 263.3,246.9 						"/>
						<path class="st1" d="M169.2,296C169.2,296,169.2,296,169.2,296l58.4-54.5c4.3-4,10.1-6.2,16-6c4.3,0.2,8.3,1.5,11.7,3.8
							c1.4,0.9,2.6,2,3.8,3.2l4,4.2l-91.8,81.4C162.7,319.4,161.9,305.6,169.2,296z"/>
						<path class="st3" d="M169.3,295.9l58.4-54.5c4.3-4,10.1-6.2,16-6c4.2,0.2,8.2,1.5,11.7,3.9c1.4,0.9,2.6,2,3.8,3.2l4,4.2
							l-91.8,81.4C162.7,319.4,161.9,305.6,169.3,295.9C169.2,296,169.2,296,169.3,295.9C169.3,296,169.3,295.9,169.3,295.9z"/>
					</g>
				</g>
			</g>
			<g id="_x3C_Répétition_radiale_x3E__00000078755148121687659430000002818956887132964739_">
				<g id="_x3C_Répétition_radiale_x3E__00000134226938727527324430000007853439046111038137_">
					<g>
						<path class="st6" d="M141.4,288.3l117-37l-1.9-5.5c-0.5-1.6-1.2-3.1-2.1-4.5c-2.2-3.5-5.3-6.3-9.2-8.2
							c-5.3-2.6-11.4-2.9-17.1-1l-75.5,26c0,0,0,0,0,0C142,263.9,137,276.7,141.4,288.3z M258.5,251.4l-0.1-0.2l-5.1,2L258.5,251.4z
							"/>
						<path class="st1" d="M148.6,259.5l3.9-1.4c-10.6,5.8-15.5,18.6-11.1,30.2l117-37l-5.1,2l-110.7,38.2l-5.8,2l-1.9-5.6
							C130.8,276.2,137,263.4,148.6,259.5z"/>
						<polygon class="st1" points="253.2,253.2 258.4,251.3 258.5,251.4 						"/>
						<path class="st1" d="M152.5,258.1C152.5,258.1,152.5,258.1,152.5,258.1l75.5-26c5.6-1.9,11.7-1.6,17.1,1
							c3.9,1.9,7,4.7,9.2,8.2c0.9,1.4,1.6,2.9,2.1,4.5l1.9,5.5l-117,37C137,276.7,142,263.9,152.5,258.1z"/>
						<path class="st3" d="M152.6,258l75.5-26c5.6-1.9,11.7-1.6,17.1,1c3.8,1.9,6.9,4.7,9.1,8.3c0.9,1.4,1.6,2.9,2.1,4.5l1.9,5.5
							l-117,37c-4.4-11.5,0.6-24.4,11.1-30.2C152.5,258.1,152.5,258.1,152.6,258C152.6,258,152.6,258,152.6,258z"/>
					</g>
				</g>
			</g>
			<g id="_x3C_Répétition_radiale_x3E__00000119090085167530540890000008286864277656801208_">
				<g id="_x3C_Répétition_radiale_x3E__00000127738008264158377550000007088735766993717917_">
					<g>
						<path class="st6" d="M130.2,239.7l121.9,13.8l0.5-5.8c0.2-1.7,0.1-3.3-0.1-5c-0.6-4.1-2.3-8-5-11.3c-3.8-4.5-9.3-7.3-15.2-7.9
							l-79.6-7c0,0,0,0,0,0C140.7,217.6,131,227.4,130.2,239.7z M252.2,253.6l0-0.2l-5.5-0.3L252.2,253.6z"/>
						<path class="st1" d="M148.6,216.3l4.1,0.3c-12,1-21.7,10.7-22.4,23.1l121.9,13.8l-5.5-0.3L130,243l-6.1-0.5l0.5-5.9
							C125.5,224.3,136.4,215.1,148.6,216.3z"/>
						<polygon class="st1" points="246.7,253.2 252.1,253.4 252.2,253.6 						"/>
						<path class="st1" d="M152.7,216.6C152.7,216.6,152.7,216.6,152.7,216.6l79.6,7c5.9,0.5,11.3,3.4,15.2,7.9
							c2.7,3.3,4.5,7.2,5,11.3c0.2,1.6,0.3,3.3,0.1,5l-0.5,5.8l-121.9-13.8C131,227.4,140.7,217.6,152.7,216.6z"/>
						<path class="st3" d="M152.8,216.6l79.6,7c5.9,0.5,11.3,3.4,15.2,7.9c2.7,3.2,4.4,7.1,4.9,11.3c0.2,1.6,0.3,3.3,0.1,5l-0.5,5.8
							l-121.9-13.8c0.7-12.3,10.4-22,22.4-23.1c0,0,0,0,0,0C152.7,216.6,152.8,216.6,152.8,216.6z"/>
					</g>
				</g>
			</g>
			<g id="_x3C_Répétition_radiale_x3E__00000109008061545764011600000014193439633828007565_">
				<g id="_x3C_Répétition_radiale_x3E__00000158751344285858762520000010354426274032793271_">
					<g>
						<path class="st6" d="M139.8,190.7l105.8,62.2l2.8-5.1c0.8-1.5,1.5-3,1.9-4.6c1.2-4,1.1-8.2,0-12.3
							c-1.7-5.7-5.5-10.5-10.7-13.3l-69.9-38.7c0,0,0,0,0,0C158.3,174.8,145.5,179.8,139.8,190.7z M245.5,253.1l0.1-0.2l-4.9-2.5
							L245.5,253.1z"/>
						<path class="st1" d="M166.1,176.8l3.6,2c-11.4-4-24.2,1-29.9,11.9l105.8,62.2l-4.9-2.5l-102.5-56.7l-5.4-3l2.9-5.2
							C141.7,174.8,155.4,170.8,166.1,176.8z"/>
						<polygon class="st1" points="240.7,250.4 245.6,252.9 245.5,253.1 						"/>
						<path class="st1" d="M169.7,178.8C169.7,178.8,169.7,178.8,169.7,178.8l69.9,38.7c5.2,2.9,9,7.7,10.7,13.3
							c1.2,4.1,1.2,8.4,0,12.3c-0.5,1.6-1.1,3.1-1.9,4.6l-2.8,5.1l-105.8-62.2C145.5,179.8,158.3,174.8,169.7,178.8z"/>
						<path class="st3" d="M169.8,178.8l69.9,38.7c5.2,2.9,9,7.7,10.7,13.3c1.1,4,1.1,8.3-0.1,12.3c-0.5,1.6-1.1,3.1-1.9,4.6
							l-2.8,5.1l-105.8-62.2c5.7-11,18.5-15.9,29.9-11.9C169.7,178.8,169.7,178.8,169.8,178.8C169.8,178.8,169.8,178.8,169.8,178.8z
							"/>
					</g>
				</g>
			</g>
			<g id="_x3C_Répétition_radiale_x3E__00000011023894517258484430000009520533666587295679_">
				<g id="_x3C_Répétition_radiale_x3E__00000171714015830709195640000001256450702494854829_">
					<g>
						<path class="st6" d="M168.5,149.9l71.3,99.8l4.6-3.5c1.3-1,2.6-2.1,3.6-3.4c2.7-3.2,4.4-7,5-11.3c0.8-5.9-0.8-11.8-4.3-16.5
							l-48.1-63.8c0,0,0,0,0,0C191.9,142.9,178.1,142.2,168.5,149.9z M239.7,249.9l0.1-0.2l-3.4-4.3L239.7,249.9z"/>
						<path class="st1" d="M198.1,147.9l2.5,3.3c-8.8-8.3-22.5-9-32.2-1.3l71.3,99.8l-3.4-4.3L165.9,152l-3.7-4.9l4.7-3.5
							C176.7,136.1,190.8,138.1,198.1,147.9z"/>
						<polygon class="st1" points="236.4,245.5 239.8,249.7 239.7,249.9 						"/>
						<path class="st1" d="M200.6,151.2C200.7,151.2,200.7,151.2,200.6,151.2l48.1,63.8c3.5,4.7,5.1,10.7,4.3,16.5
							c-0.6,4.3-2.3,8.1-5,11.3c-1.1,1.3-2.3,2.4-3.6,3.4l-4.6,3.5l-71.3-99.8C178.1,142.2,191.9,142.9,200.6,151.2z"/>
						<path class="st3" d="M200.7,151.3l48.1,63.8c3.5,4.7,5.1,10.7,4.3,16.5c-0.6,4.2-2.4,8-5.1,11.2c-1.1,1.3-2.3,2.4-3.6,3.4
							l-4.6,3.5l-71.3-99.8C178.1,142.2,191.9,142.9,200.7,151.3C200.7,151.2,200.7,151.2,200.7,151.3
							C200.7,151.2,200.7,151.3,200.7,151.3z"/>
					</g>
				</g>
			</g>
			<g id="_x3C_Répétition_radiale_x3E__00000115497810881581248410000002368898254497692839_">
				<g id="_x3C_Répétition_radiale_x3E__00000060717302580107099560000006067895087134623375_">
					<g>
						<path class="st6" d="M211.3,124.3l24.6,120.2l5.6-1.3c1.6-0.4,3.2-0.9,4.7-1.6c3.7-1.8,6.9-4.6,9.2-8.3
							c3.1-5,4.1-11.1,2.8-16.9l-18-77.8c0,0,0,0,0,0C235.5,127.4,223.2,121.2,211.3,124.3z M235.7,244.6l0.2-0.1l-1.4-5.3
							L235.7,244.6z"/>
						<path class="st1" d="M239.2,134.5l1,4c-4.7-11.1-16.9-17.3-28.9-14.2l24.6,120.2l-1.4-5.3L208,125.1l-1.4-6l5.8-1.3
							C224.4,115.1,236.5,122.6,239.2,134.5z"/>
						<polygon class="st1" points="234.4,239.2 235.8,244.5 235.7,244.6 						"/>
						<path class="st1" d="M240.1,138.6C240.1,138.6,240.1,138.6,240.1,138.6l18,77.9c1.3,5.8,0.3,11.8-2.8,16.9
							c-2.3,3.6-5.4,6.5-9.2,8.3c-1.5,0.7-3,1.3-4.7,1.6l-5.6,1.3l-24.6-120.2C223.2,121.2,235.5,127.4,240.1,138.6z"/>
						<path class="st3" d="M240.2,138.7l18,77.8c1.3,5.8,0.3,11.8-2.8,16.9c-2.3,3.5-5.4,6.4-9.2,8.2c-1.5,0.7-3,1.3-4.7,1.6
							l-5.6,1.3l-24.6-120.2c11.9-3.1,24.2,3.1,28.9,14.2C240.1,138.6,240.1,138.6,240.2,138.7C240.2,138.6,240.2,138.6,240.2,138.7
							z"/>
					</g>
				</g>
			</g>
			<g id="_x3C_Répétition_radiale_x3E__00000087399723328104222070000002304960806865319839_">
				<g id="_x3C_Répétition_radiale_x3E__00000011001341631075315270000006720190432452992674_">
					<g>
						<path class="st6" d="M260.8,118.3l-26.4,119.8l5.7,1.1c1.6,0.3,3.3,0.5,4.9,0.4c4.1-0.1,8.2-1.4,11.7-3.8
							c4.9-3.3,8.2-8.5,9.4-14.3l15.2-78.4c0,0,0,0,0,0C281.6,131,272.9,120.3,260.8,118.3z M234.1,238.1l0.2,0l0.9-5.4L234.1,238.1
							z"/>
						<path class="st1" d="M282.1,139l-0.8,4.1c0.3-12.1-8.4-22.7-20.6-24.7l-26.4,119.8l0.9-5.4l22.3-115l1.2-6l5.8,1.2
							C276.5,115.2,284.5,127,282.1,139z"/>
						<polygon class="st1" points="235.2,232.7 234.3,238.1 234.1,238.1 						"/>
						<path class="st1" d="M281.3,143.1C281.3,143.1,281.4,143.1,281.3,143.1l-15.3,78.4c-1.2,5.8-4.5,10.9-9.4,14.3
							c-3.6,2.4-7.6,3.7-11.7,3.8c-1.7,0.1-3.3-0.1-4.9-0.4l-5.7-1.1l26.4-119.8C272.9,120.3,281.6,131,281.3,143.1z"/>
						<path class="st3" d="M281.3,143.2l-15.2,78.4c-1.2,5.8-4.5,10.9-9.4,14.3c-3.5,2.3-7.6,3.6-11.7,3.7c-1.7,0.1-3.3-0.1-4.9-0.4
							l-5.7-1.1l26.4-119.8c12.2,2,20.8,12.7,20.6,24.7c0,0,0,0,0,0C281.4,143.1,281.4,143.2,281.3,143.2z"/>
					</g>
				</g>
			</g>
			<g id="_x3C_Répétition_radiale_x3E__00000117654416497478486320000001497288614445324186_">
				<g id="_x3C_Répétition_radiale_x3E__00000097500575244152180200000007302196528493308297_">
					<g>
						<path class="st6" d="M308.4,133l-72.9,98.7l4.8,3.3c1.4,1,2.8,1.8,4.4,2.4c3.8,1.6,8,2,12.3,1.3c5.8-1.1,11-4.4,14.4-9.2
							l45.8-65.4c0,0,0,0,0,0C322.3,153,318.7,139.8,308.4,133z M235.4,231.6l0.2,0.1l3-4.6L235.4,231.6z"/>
						<path class="st1" d="M319.5,160.5l-2.4,3.4c5.1-10.9,1.6-24.2-8.7-31l-72.9,98.7l3-4.6l67.1-96l3.5-5l4.8,3.4
							C324.1,136.5,326.6,150.5,319.5,160.5z"/>
						<polygon class="st1" points="238.5,227.1 235.5,231.6 235.4,231.6 						"/>
						<path class="st1" d="M317.2,163.9C317.2,163.9,317.2,164,317.2,163.9l-45.8,65.4c-3.4,4.8-8.6,8.2-14.4,9.2
							c-4.2,0.7-8.4,0.3-12.3-1.3c-1.5-0.6-3-1.4-4.4-2.4l-4.8-3.3l72.9-98.7C318.7,139.8,322.3,153,317.2,163.9z"/>
						<path class="st3" d="M317.1,164.1l-45.8,65.4c-3.4,4.8-8.6,8.2-14.4,9.2c-4.1,0.7-8.4,0.2-12.2-1.4c-1.5-0.6-3-1.4-4.4-2.4
							l-4.8-3.3l72.9-98.7c10.3,6.8,13.9,20.1,8.7,31C317.2,163.9,317.2,164,317.1,164.1C317.1,164,317.1,164,317.1,164.1z"/>
					</g>
				</g>
			</g>
			<g id="_x3C_Répétition_radiale_x3E__00000040539119472059396290000002688114412874282933_">
				<g id="_x3C_Répétition_radiale_x3E__00000018226421585880777370000018182280500924041094_">
					<g>
						<path class="st6" d="M346,165.7l-106.7,60.5l3,5c0.9,1.4,1.9,2.8,3,4c2.9,3,6.5,5.1,10.7,6.2c5.7,1.4,11.8,0.5,16.9-2.6
							l68.5-41.1c0,0,0,0,0,0C350.5,189.7,352.7,176.1,346,165.7z M239.2,226.1l0.1,0.1l4.6-3L239.2,226.1z"/>
						<path class="st1" d="M344.9,195.4l-3.5,2.2c9.1-7.9,11.3-21.5,4.6-31.8l-106.7,60.5l4.6-3l100.3-60.4l5.2-3.2l3,5.1
							C358.9,175.4,355.5,189.2,344.9,195.4z"/>
						<polygon class="st1" points="243.9,223.3 239.3,226.2 239.2,226.1 						"/>
						<path class="st1" d="M341.4,197.6C341.4,197.6,341.4,197.6,341.4,197.6l-68.5,41.1c-5.1,3-11.2,4-16.9,2.6
							c-4.2-1.1-7.8-3.2-10.7-6.2c-1.1-1.2-2.1-2.5-3-4l-3-5L346,165.7C352.7,176.1,350.5,189.7,341.4,197.6z"/>
						<path class="st3" d="M341.3,197.7l-68.5,41.1c-5.1,3-11.2,4-16.9,2.6c-4.1-1-7.7-3.2-10.6-6.2c-1.1-1.2-2.1-2.5-3-4l-3-5
							L346,165.7C352.7,176.1,350.5,189.7,341.3,197.7C341.4,197.6,341.4,197.6,341.3,197.7C341.4,197.6,341.3,197.7,341.3,197.7z"
							/>
					</g>
				</g>
			</g>
			<g id="_x3C_Répétition_radiale_x3E__00000076577879485396149330000007734575655389158052_">
				<g id="_x3C_Répétition_radiale_x3E__00000159437013120189729040000001116497540755437187_">
					<g>
						<path class="st6" d="M367,211l-122.1,11.9l0.7,5.8c0.2,1.7,0.6,3.3,1.1,4.8c1.4,3.9,3.9,7.3,7.3,10c4.7,3.6,10.6,5.2,16.5,4.5
							l79.3-9.7c0,0,0,0,0,0C361.4,234.7,368.9,223.2,367,211z M244.8,222.6l0.1,0.2l5.4-0.9L244.8,222.6z"/>
						<path class="st1" d="M354,237.6l-4.1,0.5c11.5-3.5,19-15,17.2-27.2l-122.1,11.9l5.4-0.9l116.2-14.3l6.1-0.8l0.7,5.9
							C374.8,225,366.1,236.2,354,237.6z"/>
						<polygon class="st1" points="250.3,222 244.9,222.8 244.8,222.6 						"/>
						<path class="st1" d="M349.8,238.2C349.8,238.2,349.8,238.2,349.8,238.2l-79.3,9.7c-5.9,0.7-11.8-0.9-16.5-4.5
							c-3.4-2.7-5.9-6.1-7.3-10c-0.6-1.6-0.9-3.2-1.1-4.8l-0.7-5.8L367,211C368.9,223.2,361.4,234.7,349.8,238.2z"/>
						<path class="st3" d="M349.7,238.2l-79.3,9.7c-5.9,0.7-11.8-0.9-16.5-4.5c-3.3-2.6-5.8-6.1-7.2-10c-0.6-1.6-0.9-3.2-1.1-4.8
							l-0.7-5.8L367,211c1.9,12.2-5.6,23.7-17.2,27.2C349.8,238.2,349.8,238.2,349.7,238.2C349.8,238.2,349.8,238.2,349.7,238.2z"/>
					</g>
				</g>
			</g>
			<g id="_x3C_Répétition_radiale_x3E__00000083808495327378736270000017079810576785978018_">
				<g id="_x3C_Répétition_radiale_x3E__00000163072234586968949320000016587039523110573480_">
					<g>
						<path class="st6" d="M367.8,260.8L251.4,222l-1.7,5.6c-0.5,1.6-0.8,3.2-0.9,4.9c-0.3,4.1,0.6,8.3,2.6,12.1
							c2.8,5.2,7.6,9.1,13.2,10.8l76.4,23.4c0,0,0,0,0,0C353,280.2,364.5,272.7,367.8,260.8z M251.5,221.8l0,0.2l5.3,1.4
							L251.5,221.8z"/>
						<path class="st1" d="M345,279.9l-4-1.2c12,1.5,23.5-6,26.8-17.9L251.4,222l5.3,1.4l112,34.2l5.8,1.8l-1.8,5.7
							C369.3,276.8,356.7,283.5,345,279.9z"/>
						<polygon class="st1" points="256.7,223.4 251.4,222 251.5,221.8 						"/>
						<path class="st1" d="M341.1,278.7C341,278.7,341,278.7,341.1,278.7l-76.4-23.4c-5.7-1.8-10.4-5.6-13.2-10.8
							c-2-3.8-2.9-7.9-2.6-12.1c0.1-1.6,0.4-3.3,0.9-4.9l1.7-5.6l116.4,38.8C364.5,272.7,353,280.2,341.1,278.7z"/>
						<path class="st3" d="M340.9,278.7l-76.4-23.4c-5.7-1.8-10.4-5.6-13.2-10.8c-1.9-3.7-2.8-7.9-2.5-12.1c0.1-1.6,0.4-3.3,0.9-4.9
							l1.7-5.6l116.4,38.8c-3.3,11.9-14.8,19.4-26.8,17.9c0,0,0,0,0,0C341,278.7,341,278.7,340.9,278.7z"/>
					</g>
				</g>
			</g>
			<g id="_x3C_Répétition_radiale_x3E__00000019670690178957896240000001157894004863075499_">
				<g id="_x3C_Répétition_radiale_x3E__00000111892898352197374700000016756480058739135638_">
					<g>
						<path class="st6" d="M348.3,306.7l-90.5-82.8l-3.8,4.4c-1.1,1.3-2.1,2.6-2.8,4.1c-2,3.6-2.8,7.8-2.5,12.1
							c0.4,5.9,3.2,11.4,7.7,15.3l60.3,52.4c0,0,0,0,0,0C326.9,318.4,340.4,316.2,348.3,306.7z M257.8,223.7l-0.1,0.2l4.3,3.4
							L257.8,223.7z"/>
						<path class="st1" d="M319.7,314.8l-3.2-2.7c10.3,6.2,23.9,4.1,31.7-5.5l-90.5-82.8l4.3,3.4l88.4,76.8l4.6,4l-3.9,4.5
							C343.1,321.9,328.9,322.9,319.7,314.8z"/>
						<polygon class="st1" points="262,227.3 257.7,223.9 257.8,223.7 						"/>
						<path class="st1" d="M316.5,312.1C316.5,312.1,316.5,312.1,316.5,312.1l-60.3-52.4c-4.5-3.9-7.2-9.4-7.7-15.3
							c-0.3-4.3,0.6-8.4,2.5-12.1c0.8-1.5,1.7-2.8,2.8-4.1l3.8-4.4l90.5,82.8C340.4,316.2,326.9,318.4,316.5,312.1z"/>
						<path class="st3" d="M316.4,312.1l-60.3-52.4c-4.5-3.9-7.2-9.4-7.7-15.3c-0.3-4.2,0.7-8.4,2.6-12c0.8-1.5,1.7-2.8,2.8-4.1
							l3.8-4.4l90.5,82.8c-7.8,9.5-21.4,11.7-31.7,5.5C316.5,312.1,316.5,312.1,316.4,312.1C316.5,312.1,316.5,312.1,316.4,312.1z"
							/>
					</g>
				</g>
			</g>
			<g id="_x3C_Répétition_radiale_x3E__00000065753646288268059060000002789512401830622095_">
				<g id="_x3C_Répétition_radiale_x3E__00000075840719742993456690000008378639752329148063_">
					<g>
						<path class="st6" d="M311.7,340.6l-49-112.5l-5.2,2.5c-1.5,0.7-2.9,1.6-4.2,2.6c-3.3,2.5-5.8,6-7.2,10
							c-2,5.6-1.7,11.7,0.8,17.1l33.8,72.4c0,0,0,0,0,0C287.4,342.6,300.7,346.2,311.7,340.6z M262.9,228l-0.2,0.1l2.5,4.9
							L262.9,228z"/>
						<path class="st1" d="M282.3,336.5l-1.8-3.7c6.9,9.9,20.2,13.4,31.2,7.9l-49-112.5l2.5,4.9l49.5,106.1l2.6,5.5l-5.4,2.5
							C300.8,352.4,287.4,347.6,282.3,336.5z"/>
						<polygon class="st1" points="265.2,233 262.7,228.2 262.9,228 						"/>
						<path class="st1" d="M280.5,332.7C280.5,332.7,280.5,332.7,280.5,332.7l-33.8-72.4c-2.5-5.4-2.8-11.5-0.8-17.1
							c1.5-4,4-7.5,7.2-10c1.3-1,2.7-1.9,4.2-2.6l5.2-2.5l49,112.5C300.7,346.2,287.4,342.6,280.5,332.7z"/>
						<path class="st3" d="M280.5,332.6l-33.8-72.4c-2.5-5.4-2.8-11.5-0.8-17.1c1.5-3.9,4-7.4,7.3-9.9c1.3-1,2.7-1.9,4.2-2.6
							l5.2-2.5l49,112.5C300.7,346.2,287.4,342.6,280.5,332.6C280.5,332.7,280.5,332.7,280.5,332.6
							C280.5,332.7,280.5,332.6,280.5,332.6z"/>
					</g>
				</g>
			</g>
		</g>
		<g>
			<g>
				<g>
					<path class="st4" d="M225,237.8c0-9.7,5.5-18.1,13.5-22.3c3.5-1.8,7.4-2.9,11.7-2.9c13.9,0,25.1,11.2,25.1,25.1
						c0,7.7-3.5,14.7-9,19.3c-4.4,3.7-10,5.9-16.1,5.9C236.2,263,225,251.7,225,237.8z"/>
				</g>
			</g>
			<g>
				<g>
					<path class="st5" d="M229.8,234.6c0-7.6,3.4-14.4,8.7-19c3.5-1.8,7.4-2.9,11.7-2.9c13.9,0,25.1,11.2,25.1,25.1
						c0,7.7-3.5,14.7-9,19.3c-3.4,1.7-7.2,2.7-11.3,2.7C241.1,259.8,229.8,248.5,229.8,234.6z"/>
				</g>
			</g>
			<g>
				<g>
					<path class="st3" d="M234.8,239.8c-1.1,0-2-0.9-2-2c0-9.6,7.8-17.3,17.3-17.3c1.1,0,2,0.9,2,2s-0.9,2-2,2
						c-7.4,0-13.3,6-13.3,13.3C236.8,238.9,235.9,239.8,234.8,239.8z"/>
				</g>
			</g>
			<g>
				<g>
					<path class="st3" d="M250.1,255.2c-1.1,0-2-0.9-2-2s0.9-2,2-2c7.4,0,13.3-6,13.3-13.3c0-1.1,0.9-2,2-2s2,0.9,2,2
						C267.5,247.4,259.7,255.2,250.1,255.2z"/>
				</g>
			</g>
		</g>
	</g>
	<g>
		<g>
			<g>
				<g>
					<path class="st4" d="M452.5,324.7c-6.4,13.3-13.7,23.2-22.6,35c-8.1-4.1-17.9-2.2-26.7,0.8l-7.3,2.5l-3,1l-25,8.4
						c-7.4,2.5-15.3,2-22.4-1.4l-14.5-6.9l-0.2-0.1c-0.7-0.3-1.4-0.6-2.1-0.9c-6.7-2.7-14.1-3.1-20.9-1.4l-5.2,1.4l-3.9,1l-38.4,9.9
						c-5.9,1.5-12,1.2-17.7-0.8l-25.2-9l-2.8-1l-1.9-0.7c-6.7-2.5-13.9-2.7-20.7-0.8l-5,1.5l-3.5,1l-42.7,12.1
						c-7.6,2.2-15.5,1.3-22.4-2.5l-15.5-8.4c-0.9-0.5-1.8-0.9-2.7-1.3c-0.9-0.4-1.8-0.7-2.7-1c-3.5-1.2-7.2-1.8-10.9-1.8
						c-3.3,0-6.7,0.5-9.8,1.5l-0.8,0.3l-3.1-1.8l-0.9,0.3c-0.1-0.1-0.2-0.2-0.3-0.3c-0.3-0.4-0.5-0.7-0.8-1
						c-9.3-12.2-16.8-22.5-23.4-36.3l4-1.6c7.6-2.3,15.9-1.5,22.9,2.3l15.5,8.4c7.9,4.2,16.8,5.2,25.4,2.8l51.3-14.5
						c6.1-1.7,12.4-1.5,18.3,0.7l29.9,10.8c6.4,2.4,13.4,2.7,19.9,1l47.6-12.3c6.8-1.8,14.1-1.1,20.4,2l14.7,7.1
						c8,3.8,16.9,4.4,25.4,1.6l35.3-11.8c8.7-2.9,18.2-1.7,25.9,3.3l3.2,2.1c8.4,5.5,18.6,7,28.1,4.2L452.5,324.7z"/>
				</g>
			</g>
			<g>
				<g>
					<path class="st7" d="M100.2,364c0,0,13.4,5.6,24.4,6.6c19.6,1.9,59-6.6,59-6.6L140.8,376c-7.6,2.2-15.5,1.3-22.4-2.5l-15.5-8.4
						C102,364.7,101.1,364.4,100.2,364z"/>
				</g>
			</g>
			<g>
				<g>
					<path class="st7" d="M217.4,364c0,0,24.5,5.4,35.4,5.4c13.2,0,45.9-5.4,45.9-5.4l-38.4,9.9c-5.9,1.5-12,1.2-17.7-0.8L217.4,364
						z"/>
				</g>
			</g>
			<g>
				<g>
					<path class="st7" d="M392.8,364l-25,8.4c-7.4,2.5-15.3,2-22.4-1.4l-14.5-6.9c0,0,21.5,6.1,33.5,5.4
						C373.5,368.9,392.8,364,392.8,364z"/>
				</g>
			</g>
		</g>
		<g>
			<g>
				<g>
					<path class="st4" d="M429.9,359.7c-19.5,24.9-44.4,45.7-72.2,60.6c-1.6,0.9-3.3,1.7-4.9,2.6c-32,16.1-66.5,24.3-102.6,24.3
						c-65.2,0-140.6-38.7-178.2-85.6l2.9-1.1c1.2-0.4,2.5-0.7,3.8-0.9c6.6-1.1,13.6,0,19.5,3.2l15.8,8.5c7.9,4.3,17.1,5.3,25.8,2.8
						l52.2-14.8c6.2-1.8,12.6-1.5,18.7,0.7l30.4,11c6.5,2.4,13.6,2.7,20.3,1l48.4-12.5c6.9-1.8,14.3-1.1,20.8,2l15,7.2
						c8.1,3.9,17.3,4.4,25.8,1.6l35.9-12C414.6,355.7,422.8,356.3,429.9,359.7z"/>
				</g>
			</g>
			<g>
				<g>
					<path class="st8" d="M429.9,359.7c-19.5,24.9-44.4,45.7-72.2,60.6c-31.3,14.8-64.9,22.3-100,22.3
						c-69.6,0-134.4-30.2-179.1-83.1c6.6-1.1,13.6,0,19.5,3.2l15.8,8.5c7.9,4.3,17.1,5.3,25.8,2.8l52.2-14.8
						c6.2-1.8,12.6-1.5,18.7,0.7l30.4,11c6.5,2.4,13.6,2.7,20.3,1l48.4-12.5c6.9-1.8,14.3-1.1,20.8,2l15,7.2
						c8.1,3.9,17.3,4.4,25.8,1.6l35.9-12C414.6,355.7,422.8,356.3,429.9,359.7z"/>
				</g>
			</g>
		</g>
		<g>
			<g>
				<path class="st3" d="M167.9,390.3c-0.7,0-1.3-0.3-1.7-0.9c-0.6-0.9-0.3-2.2,0.6-2.8c1.1-0.7,6.8-4.2,10.1-4.2h0.1
					c2.4,0,4,1.1,5.4,2.1c1.5,1.1,2.9,2,5.6,1.8c1.1-0.1,2.1,0.7,2.2,1.8c0.1,1.1-0.7,2.1-1.8,2.2c-4.2,0.4-6.5-1.3-8.3-2.5
					c-1.3-0.9-2.1-1.4-3.2-1.4c-1.6,0-5.7,2.1-8.1,3.6C168.6,390.2,168.2,390.3,167.9,390.3z"/>
			</g>
		</g>
		<g>
			<g>
				<path class="st3" d="M285.9,427.9c-0.4,0-0.7-0.1-1.1-0.3c-2.4-1.5-6.4-3.6-8.1-3.6l0,0c-1.1,0-1.8,0.5-3.1,1.4
					c-1.7,1.2-4.1,2.9-8.3,2.5c-1.1-0.1-1.9-1.1-1.8-2.2s1.1-1.9,2.2-1.8c2.7,0.3,4.1-0.7,5.6-1.8c1.4-1,3.1-2.1,5.5-2.1
					c3.3,0,9,3.5,10.1,4.2c0.9,0.6,1.2,1.8,0.6,2.8C287.3,427.6,286.6,427.9,285.9,427.9z"/>
			</g>
		</g>
		<g>
			<g>
				<path class="st3" d="M147.2,354.3c-0.4,0-0.7-0.1-1.1-0.3c-2.4-1.5-6.3-3.5-8-3.5c-1.1,0-1.9,0.5-3.1,1.4
					c-1.7,1.2-4,2.8-8.2,2.5c-1.1-0.1-1.9-1.1-1.8-2.2c0.1-1.1,1.1-1.9,2.2-1.8c2.7,0.2,4-0.7,5.5-1.8c1.4-1,2.9-2.1,5.3-2.1h0.1
					c3.2,0,8.8,3.4,9.9,4.1c0.9,0.6,1.2,1.8,0.6,2.8C148.4,353.9,147.8,354.3,147.2,354.3z"/>
			</g>
		</g>
		<g>
			<g>
				<path class="st3" d="M370.7,340.1c-0.7,0-1.3-0.3-1.7-0.9c-0.6-0.9-0.3-2.2,0.6-2.8c1.1-0.7,6.7-4.1,9.9-4.1h0.1
					c2.4,0,3.9,1.1,5.3,2.1c1.5,1.1,2.8,2,5.5,1.8c1.1-0.1,2.1,0.7,2.2,1.8c0.1,1.1-0.7,2.1-1.8,2.2c-4.1,0.4-6.4-1.3-8.2-2.5
					c-1.3-0.9-2-1.4-3.1-1.4c-1.6,0-5.6,2.1-8,3.5C371.4,340,371.1,340.1,370.7,340.1z"/>
			</g>
		</g>
		<g>
			<g>
				<path class="st3" d="M340.2,389.7c-2.7,0-4.6-1-6.2-1.8c-0.9-0.5-1.7-0.9-2.4-0.9c-1.1,0-2.3,0.4-3.8,1c-2.5,0.9-5.6,2-9.3,1.1
					c-1.1-0.3-1.7-1.4-1.5-2.4c0.3-1.1,1.4-1.7,2.4-1.5c2.5,0.6,4.7-0.1,7-1c1.6-0.6,3.3-1.2,5.1-1.2c0,0,0,0,0.1,0
					c1.6,0,2.9,0.7,4.2,1.4c1.3,0.7,2.6,1.4,4.4,1.4c1.1,0,2,0.9,2,2S341.3,389.7,340.2,389.7z"/>
			</g>
		</g>
		<g>
			<g>
				<path class="st3" d="M232.7,358.8c-1.1,0-2-0.9-2-2c0-1.1,0.9-2,2-2c1.7,0,2.9-0.7,4.3-1.4c1.3-0.7,2.6-1.3,4.1-1.4
					c1.8,0,3.4,0.6,5.1,1.2c2.3,0.8,4.4,1.6,6.9,1c1.1-0.3,2.2,0.4,2.4,1.4c0.3,1.1-0.4,2.2-1.4,2.4c-3.6,0.9-6.7-0.2-9.1-1.1
					c-1.4-0.5-2.7-1-3.6-1l0,0c-0.7,0-1.5,0.4-2.4,0.9C237.2,357.9,235.3,358.8,232.7,358.8z"/>
			</g>
		</g>
	</g>
</g>
</svg>
