<?xml version="1.0" encoding="utf-8"?>
<!-- Generator: Adobe Illustrator 28.3.0, SVG Export Plug-In . SVG Version: 6.00 Build 0)  -->
<svg version="1.1" id="Calque_1" xmlns="http://www.w3.org/2000/svg" xmlns:xlink="http://www.w3.org/1999/xlink" x="0px" y="0px"
	 viewBox="0 0 500 500" style="enable-background:new 0 0 500 500;" xml:space="preserve">
<style type="text/css">
	.st0{fill:#ECA438;}
	.st1{fill:#F7FAF7;}
	.st2{fill:#CB8E42;stroke:#A17233;stroke-miterlimit:10;}
	.st3{fill:none;stroke:#A17233;stroke-linecap:round;stroke-linejoin:round;stroke-miterlimit:10;}
	.st4{fill:#196028;}
	.st5{fill:#218035;}
	.st6{fill:#1F7630;}
	.st7{opacity:0.3;fill:none;stroke:#FFFFFF;stroke-width:3;stroke-linecap:round;stroke-miterlimit:10;enable-background:new    ;}
	.st8{opacity:0.5;fill:#9F6E2E;enable-background:new    ;}
	.st9{fill:none;stroke:#A17233;stroke-miterlimit:10;}
	.st10{fill:#218035;stroke:#1F7630;stroke-miterlimit:10;}
	.st11{fill:none;stroke:#196028;stroke-linecap:round;stroke-linejoin:round;stroke-miterlimit:10;}
	.st12{opacity:0.6;fill:#196028;enable-background:new    ;}
	.st13{fill:none;stroke:#196028;stroke-width:0.5;stroke-linecap:round;stroke-linejoin:round;stroke-miterlimit:10;}
	.st14{opacity:0.3;fill:#196028;enable-background:new    ;}
	.st15{fill:none;stroke:#1F7630;stroke-miterlimit:10;}
	.st16{opacity:0.3;fill:#FFFFFF;enable-background:new    ;}
</style>
<g id="border">
	<path class="st0" d="M464.3,500H35.7C16,500,0,484,0,464.3V35.7C0,16,16,0,35.7,0h428.6C484,0,500,16,500,35.7v428.6
		C500,484,484,500,464.3,500z"/>
	<path class="st1" d="M452.4,476.2H47.6c-13.1,0-23.8-10.7-23.8-23.8V47.6c0-13.1,10.7-23.8,23.8-23.8h404.8
		c13.1,0,23.8,10.7,23.8,23.8v404.8C476.2,465.5,465.5,476.2,452.4,476.2z"/>
</g>
<g>
	<path id="manche_00000160155658812323085690000015190671321610118532_" class="st2" d="M226.1,344.7l-5-1.5c-3.4-1-5.4-4.6-4.4-8
		L290,82c1-3.4,4.6-5.4,8-4.4l5,1.5c3.4,1,5.4,4.6,4.4,8l-73.3,253.3C233.1,343.8,229.5,345.7,226.1,344.7z"/>
	<path class="st3" d="M278.9,138c-13.4,46.2-26.7,92.4-40.1,138.6"/>
	<path class="st3" d="M267,193.9c-9.2,31.7-18.3,63.4-27.5,95.1"/>
	<g>
		<path class="st4" d="M253.8,378.5l-17.1,58.9c-0.5,1.6-2.1,2.5-3.7,2.1c-1.6-0.5-2.5-2.1-2.1-3.7l17.7-61.2
			c0.6-2.2,0.4-4.5-0.7-6.5c-1.1-2-2.9-3.5-5.1-4.1c-0.4-0.1-0.8-0.2-1.2-0.3c-4.2-0.6-8.3,2.2-9.5,6.4l-17.6,60.7
			c-0.5,1.7-2.3,2.7-4,2.2s-2.7-2.3-2.2-4l17.7-61c0.6-2.2,0.4-4.5-0.7-6.5c-1.1-2-2.9-3.5-5.1-4.1c-0.4-0.1-0.8-0.2-1.2-0.3
			c-4.2-0.6-8.3,2.2-9.5,6.4l-17.6,60.7c-0.5,1.7-2.3,2.7-4,2.2s-2.7-2.3-2.2-4l17.7-61c0.6-2.2,0.4-4.5-0.7-6.5
			c-1.1-2-2.9-3.5-5.1-4.1c-4.6-1.3-9.3,1.3-10.7,5.9l-17.7,61.2c-0.5,1.6-2.1,2.5-3.7,2.1c-1.6-0.5-2.5-2.1-2.1-3.7l17.1-58.9
			c4.5-15.5,20.8-24.5,36.3-20l17.4,5C249.3,346.7,258.3,363,253.8,378.5z"/>
	</g>
	<g>
		<path class="st5" d="M233,439.1c-0.3,0-0.5,0-0.8-0.1c-0.7-0.2-1.3-0.7-1.6-1.3c-0.3-0.6-0.4-1.4-0.2-2.1l17.7-61.2
			c0.7-2.3,0.4-4.7-0.8-6.8c-1.4-2.5-3.8-4.1-6.6-4.5c-0.4-0.1-0.8-0.1-1.2-0.1c-4,0-7.5,2.8-8.7,6.7l-17.6,60.7
			c-0.4,1.2-1.5,2.1-2.8,2.1c-0.3,0-0.5,0-0.8-0.1c-1.6-0.4-2.4-2.1-2-3.6l17.7-61c0.7-2.3,0.4-4.7-0.8-6.8
			c-1.4-2.5-3.8-4.1-6.6-4.5c-0.4-0.1-0.8-0.1-1.2-0.1c-4,0-7.5,2.8-8.7,6.7l-17.6,60.7c-0.4,1.2-1.5,2.1-2.8,2.1
			c-0.3,0-0.5,0-0.8-0.1c-1.6-0.4-2.4-2.1-2-3.6l17.6-61c0.7-2.3,0.4-4.7-0.8-6.8c-1.2-2.1-3-3.6-5.3-4.3c-0.8-0.2-1.6-0.4-2.5-0.4
			c-3.9,0-7.5,2.6-8.6,6.4l-17.7,61.2c-0.3,1.2-1.4,2-2.6,2c-0.3,0-0.5,0-0.8-0.1c-1.4-0.4-2.3-1.9-1.9-3.4l17.1-58.9
			c3.6-12.3,15-20.9,27.8-20.9c2.7,0,5.4,0.4,8.1,1.1l17.4,5c7.4,2.2,13.6,7.1,17.3,13.8s4.6,14.6,2.5,22l-17.1,58.9
			C235.3,438.2,234.2,439.1,233,439.1z"/>
		<path class="st6" d="M207.4,336.6c2.6,0,5.3,0.4,7.9,1.1l17.4,5c15.1,4.4,23.8,20.2,19.4,35.3l-16.9,59c-0.3,1-1.2,1.6-2.1,1.6
			c-0.2,0-0.4,0-0.6-0.1l0,0c-1.2-0.3-1.8-1.6-1.5-2.7l17.7-61.2c0.7-2.5,0.4-5.1-0.8-7.2c-1.4-2.5-3.8-4.4-7-4.8
			c-0.4-0.1-0.8-0.1-1.3-0.1c-4.2,0-7.9,2.9-9.1,7.1l-17.6,60.7c-0.3,1.1-1.3,1.8-2.3,1.8c-0.2,0-0.5,0-0.7-0.1
			c-1.3-0.4-2-1.7-1.7-3l17.7-61c0.7-2.5,0.4-5.1-0.8-7.2c-1.4-2.5-3.8-4.4-7-4.8c-0.4-0.1-0.8-0.1-1.3-0.1c-4.2,0-7.9,2.9-9.1,7.1
			l-17.6,60.7c-0.3,1.1-1.3,1.8-2.3,1.8c-0.2,0-0.5,0-0.7-0.1l0,0c-1.3-0.4-2-1.7-1.7-3l17.7-61c0.7-2.5,0.4-5.1-0.8-7.2
			s-3.1-3.8-5.6-4.5c-0.9-0.3-1.8-0.4-2.6-0.4c-4.1,0-7.9,2.7-9,6.8l-17.7,61.2c-0.3,1-1.2,1.6-2.1,1.6c-0.2,0-0.4,0-0.6-0.1l0,0
			c-1.2-0.3-1.8-1.6-1.5-2.7l17.1-58.9C183.7,344.7,195.1,336.6,207.4,336.6 M207.4,335.6L207.4,335.6c-13,0-24.7,8.8-28.3,21.3
			L162,415.8c-0.5,1.7,0.5,3.5,2.2,4c0.3,0.1,0.6,0.1,0.9,0.1c1.4,0,2.7-1,3.1-2.3l17.7-61.2c1-3.6,4.4-6.1,8.1-6.1
			c0.8,0,1.6,0.1,2.3,0.3c2.2,0.6,4,2.1,5,4c1.1,2,1.3,4.2,0.7,6.4l-17.7,61c-0.5,1.8,0.5,3.7,2.3,4.2c0.3,0.1,0.6,0.1,1,0.1
			c1.5,0,2.9-1,3.3-2.5l17.6-60.7c1.1-3.7,4.4-6.3,8.2-6.3c0.4,0,0.7,0,1.1,0.1c2.7,0.4,5,1.9,6.2,4.3c1.1,2,1.3,4.2,0.7,6.4
			l-17.7,61c-0.5,1.8,0.5,3.7,2.3,4.2c0.3,0.1,0.6,0.1,1,0.1c1.5,0,2.9-1,3.3-2.5l17.6-60.7c1.1-3.7,4.4-6.3,8.2-6.3
			c0.4,0,0.7,0,1.1,0.1c2.7,0.4,5,1.9,6.2,4.3c1.1,2,1.3,4.2,0.7,6.4l-17.7,61.2c-0.5,1.7,0.5,3.5,2.2,4c0.3,0.1,0.6,0.1,0.9,0.1
			c1.4,0,2.7-1,3.1-2.3l17.1-58.9c2.2-7.6,1.3-15.5-2.5-22.4s-10.1-11.9-17.6-14.1l-17.4-5C213,336,210.2,335.6,207.4,335.6
			L207.4,335.6z"/>
	</g>
	<path class="st7" d="M208.2,340c0,0-4.5-0.2-8.4,1.2c-4,1.4-6.9,3.6-6.9,3.6"/>
	<path class="st8" d="M234.5,323.8c0,0,1,0.1,1.7,0.3c1.2,0.3,1.7,1.3,2.3,1.1c0.8-0.2,0.4-2.2,1.4-5.4c0.2-0.7,0.3-0.7,0.7-1.9
		c1.1-2.9,1.6-5.2,1.8-6c1.4-5.9,3-11.7,4.7-17.5c2.9-10,4.9-16.6,11-36.7c8.6-28.6,6.2-23.8,10.4-36.3c3.3-9.6,5.6-18,10.3-34.7
		c0.5-1.9,0.3-1.5,0.9-3.7c5.5-23.7,10.5-35.3,13.7-47.5c2-7.6,1.7-9.5,3.6-12.5c0.2-0.3,0.5-0.8,0.4-1.4c-0.3-4.2-16-7.8-17.5-5.1
		c-0.6,1.2,1.7,3.6,2.1,4c3.2,3.3,6.7,2.4,8.6,4.9c1.8,2.4,0.7,6.1,0.3,7.6c-8.4,28.5-15.1,57.4-23.7,85.8
		c-4.7,15.7-20.4,74.6-27.5,88.8c-1.5,3-4.4,8.7-8.7,9c-2.6,0.2-5.3,0.7-7.9,0.8c-0.4,0-1.5,0.1-1.9,0.8c-0.3,0.4-0.2,1-0.1,1.4
		c0.5,1.4,3.3,1.4,6.3,1.9C229.2,321.9,231.6,322.5,234.5,323.8z"/>
	<path id="manche_00000049931797496242053440000016704334759249961407_" class="st9" d="M226.1,344.7l-5-1.5c-3.4-1-5.4-4.6-4.4-8
		L290,82c1-3.4,4.6-5.4,8-4.4l5,1.5c3.4,1,5.4,4.6,4.4,8l-73.3,253.3C233.1,343.8,229.5,345.7,226.1,344.7z"/>
	<path id="poignée_00000064337146698065527120000017426539279292406681_" class="st10" d="M296.3,121.2l-15.2-4.4
		c-3.3-1-5.3-4.5-4.3-7.8l12.8-44.1c1-3.3,4.5-5.3,7.8-4.3l15.2,4.4c3.3,1,5.3,4.5,4.3,7.8l-12.8,44.1
		C303.1,120.3,299.6,122.2,296.3,121.2z"/>
	<path id="poignée_00000018225145495298115440000006182305435906790819_" class="st10" d="M230,345.9l-12.9-3.7
		c-3.3-1-5.3-4.5-4.3-7.8l2.8-9.5c1-3.3,4.5-5.3,7.8-4.3l12.9,3.7c3.3,1,5.3,4.5,4.3,7.8l-2.8,9.5
		C236.8,344.9,233.4,346.8,230,345.9z"/>
	<circle class="st11" cx="300.9" cy="76.8" r="4.8"/>
	<circle class="st4" cx="301.1" cy="76" r="4"/>
	<circle class="st12" cx="300.9" cy="76.8" r="4.8"/>
	<circle class="st13" cx="226.6" cy="331.5" r="2.3"/>
	<circle class="st4" cx="226.7" cy="331.1" r="1.9"/>
	<circle class="st12" cx="226.6" cy="331.5" r="2.3"/>
	<path class="st14" d="M293.1,120.3c-1.6-0.5-2.3-0.4-2.4-0.7c-0.1-0.6,4.6-1.4,7.9-3.4c4.3-2.8,4.7-7.2,7.7-16.1
		c3.6-10.9,7.9-19.2,8.2-19.1c0.2,0.1-1.1,3.8-4,13.9c-1.8,6.3-2.7,9.4-2.8,9.8c-1.2,5.4-2.4,12.6-5.5,15.7
		c-0.4,0.4-1.2,1.2-2.4,1.5c-1.2,0.3-2.2,0-4.1-0.6C294.4,121,294.3,120.7,293.1,120.3z"/>
	<path id="poignée_00000106854478422171390960000000273215953878540728_" class="st15" d="M296.3,121.2l-15.2-4.4
		c-3.3-1-5.3-4.5-4.3-7.8l12.8-44.1c1-3.3,4.5-5.3,7.8-4.3l15.2,4.4c3.3,1,5.3,4.5,4.3,7.8l-12.8,44.1
		C303.1,120.3,299.6,122.2,296.3,121.2z"/>
	<path class="st16" d="M285,97.8c2.2,0.6-0.7,12.8-2.1,14.7c-0.4,0.6-1,0.9-1,0.9c-0.8,0.4-1.9,0.6-2.6,0c-0.6-0.5-0.6-1.5-0.4-2.5
		C279.5,107.5,282.9,97.2,285,97.8z"/>
	<path class="st16" d="M291.5,64.2c-1.6,2-0.7,5.3,0.9,6c2,0.9,5.8-2,5.5-4.6c-0.1-1.1-1-2.2-2.1-2.6
		C294.1,62.3,292.4,63.1,291.5,64.2z"/>
	<path class="st16" d="M217.9,323.7c-0.6,0.6-0.9,1.7-0.6,2.6c0.4,1.4,2.2,2.3,3.7,1.8c1.6-0.5,2.5-2.4,2.1-3.6
		C222.5,322.9,219.3,322.4,217.9,323.7z"/>
	<path class="st14" d="M227.5,322.1c0,0.1,0.1,0.2,3,1.5c4.8,2.2,4.8,2.2,5.4,2.6c3.8,2.9,1.8,7.1,1.7,7.5c-0.2,1.2-0.8,2.4-2.8,8
		c-1.1,2.9-1.5,4.3-1,4.6c0.3,0.2,1.1-0.4,1.4-0.6c2.8-2.3,3.1-5.9,5.3-14.1c0.5-1.8,0.9-3.2,0.2-4.5c-0.5-1-1.4-1.7-4-2.7
		C232.3,322.6,227.6,321.7,227.5,322.1z"/>
	<path id="poignée_00000038395073656401490740000008418843267076321205_" class="st15" d="M230,345.9l-12.9-3.7
		c-3.3-1-5.3-4.5-4.3-7.8l2.8-9.5c1-3.3,4.5-5.3,7.8-4.3l12.9,3.7c3.3,1,5.3,4.5,4.3,7.8l-2.8,9.5
		C236.8,344.9,233.4,346.8,230,345.9z"/>
	<path class="st4" d="M210.2,357.5"/>
	<path class="st10" d="M184.7,348.8"/>
</g>
</svg>
