<?xml version="1.0" encoding="utf-8"?>
<!-- Generator: Adobe Illustrator 28.3.0, SVG Export Plug-In . SVG Version: 6.00 Build 0)  -->
<svg version="1.1" id="Calque_1" xmlns="http://www.w3.org/2000/svg" xmlns:xlink="http://www.w3.org/1999/xlink" x="0px" y="0px"
	 viewBox="0 0 210 210" style="enable-background:new 0 0 210 210;" xml:space="preserve">
<style type="text/css">
	.st0{fill:#ECA438;}
	.st1{fill:#F7FAF7;}
	.st2{fill:#105F2D;}
	.st3{fill:#C58C4B;}
	.st4{fill:#986C37;}
	.st5{opacity:0.5;enable-background:new    ;}
	.st6{fill:#278641;}
	.st7{fill:#20783A;}
	.st8{opacity:0.6;enable-background:new    ;}
	.st9{opacity:0.3;enable-background:new    ;}
	.st10{fill:#FFFFFF;}
</style>
<g id="border">
	<path class="st0" d="M195,210H15c-8.3,0-15-6.7-15-15V15C0,6.7,6.7,0,15,0h180c8.3,0,15,6.7,15,15v180C210,203.3,203.3,210,195,210
		z"/>
	<path class="st1" d="M190,200H20c-5.5,0-10-4.5-10-10V20c0-5.5,4.5-10,10-10h170c5.5,0,10,4.5,10,10v170
		C200,195.5,195.5,200,190,200z"/>
</g>
<g id="card-design">
	<g>
		<g>
			<path class="st2" d="M97.5,176.8c0.1,0.5,1.2,1.1,2,0.8c1.1-0.4,1.6-2.3,2.2-4.6c0.2-0.7,0.4-1.8,0.9-1.9c0.2-0.1,0.4,0,0.6,0.1
				c0.4,0.3,0.4,0.9,0.5,1.4c0.1,1.2,0.8,2.5,1.1,2.6c0.7,0,2.7-4.6,0.8-6.1c-1-0.8-2.7-0.6-3.7,0.2c-0.6,0.5-0.4,0.9-1,2.2
				c-0.7,1.6-2,3.8-3.1,4.7C97.7,176.3,97.4,176.6,97.5,176.8L97.5,176.8z"/>
		</g>
		<g>
			<path class="st2" d="M105.7,175.4c1-0.9,0.6-1.9,1.4-3c0.3-0.5,1.1-1.4,1.8-1.2c1.2,0.2,1.2,3.8,1.1,3.9c-0.1,0-0.3-2.3-1.3-2.4
				c-0.1,0-0.2,0-0.3,0c-1.1,0.3-0.8,2.8-2.3,5.3c-0.3,0.5-0.7,1.1-1.3,1.2c-0.4,0.1-0.8-0.1-1.1-0.3c-0.2-0.1-0.3-0.3-0.3-0.4
				c-0.1-0.2,0.1-0.4,0-0.5c-0.1-0.8,1.2-1.9,1.3-1.9C105.3,175.6,105.4,175.8,105.7,175.4L105.7,175.4z"/>
		</g>
		<g>
			<path class="st2" d="M84.3,172.8c0,0-0.3,0.2-0.3,0.4c0,0.3,0.5,0.8,1.1,0.9c0.8,0.1,1.5-0.5,1.6-0.6c0.5-0.4,0.6-0.9,0.9-1.7
				c0.9-2.7,1-3.7,1.8-4c0.1,0,0.4-0.2,0.7,0c0.6,0.2,0.7,1.1,0.8,1.3c0.1,0.5,0,0.7,0.2,0.9c0.2,0.3,0.7,0.3,1,0.1
				c0.6-0.5,0.6-2.2-0.3-3.3c-0.1-0.1-1.1-1.3-2.4-1.2C86.8,165.8,85.6,171.9,84.3,172.8L84.3,172.8z"/>
		</g>
		<g>
			<path class="st2" d="M91.2,174c0,0-0.3,0.1-0.4,0.2c-0.1,0.1,0,0.2,0,0.7c0,0.3,0,0.3,0,0.4c0.1,0.3,0.4,0.4,0.6,0.4
				c0.7,0.2,1.5,0.1,2.1-0.4c0,0,0.1-0.1,0.2-0.2c0.2-0.3,0.4-0.6,0.7-1.5c0.9-2.7,1-3.7,1.7-4c0,0,0.3-0.1,0.7,0
				c0.5,0.1,0.8,0.6,1,1c0.2,0.5,0,0.8,0.3,1.1c0.2,0.2,0.5,0.3,0.7,0.2c0.5-0.2,0.6-2.1-0.2-3.3c-0.1-0.1-1-1.3-2.4-1.2
				C93.9,167.4,92.1,173.7,91.2,174L91.2,174z"/>
		</g>
		<g>
			<path class="st2" d="M108.7,179.1c0,0.1,0.1,0.3,0.1,0.3c0.1,0.1,0.3,0.6,0.7,0.8c0.4,0.1,0.7,0.1,0.8,0c0.7-0.2,1.2-1,1.7-2.1
				c1-2.3,0.9-3.8,1.8-4c0,0,0.4-0.1,0.6,0.1c0.1,0.1,0.3,0.2,0.8,1.5c0.1,0.4,0.1,0.5,0.3,0.6c0.3,0.2,0.8,0.2,1,0.1
				c0.6-0.5,0.6-2.2-0.3-3.3c-0.1-0.1-1.1-1.3-2.4-1.2C110.2,172.3,108.6,178.4,108.7,179.1L108.7,179.1z"/>
		</g>
		<g>
			<path class="st2" d="M77.9,171.1c-0.2,0.1-0.6,0.3-0.6,0.5c0,0.4,1.2,0.9,2.1,0.6c0.7-0.3,1.1-1,1.5-2.1c0.6-1.5,0.7-2.9,1.4-3.8
				c0.2-0.3,0.5-0.4,0.7-0.4c0.4,0,0.8,0.4,0.8,0.4c0.1,0.1,0.1,0.1,0.2,0.2c0.3,0.6,0.1,1.1,0.3,1.5c0.2,0.4,0.7,0.8,0.9,0.7
				c0.4-0.2,0.6-2.8-1-3.9c-0.1-0.1-1.2-0.9-2.3-0.5C79.5,165,80.1,170,77.9,171.1L77.9,171.1z"/>
		</g>
		<g>
			<path class="st2" d="M71.4,169.8c-0.1,0.1-0.4-0.1-0.5-0.1c-0.1,0.1-0.1,0.2,0,0.3c0.2,0.4,1.1,0.6,1.8,0.3
				c0.2-0.1,0.3-0.3,0.4-0.3c0.8-0.8,1.3-2.5,1.9-4.1c0.3-0.9,0.7-1.6,1.2-1.7c0.1,0,0.3-0.1,0.6,0c0.4,0.2,0.6,0.7,0.7,1.3
				c0.6,2.4,0.6,2.6,0.6,2.6c0.4,0.1,2.3-5.2,0.8-6.1c-1-0.7-3.1,1.1-4.7,2.4c-3,2.5-3.1,4.4-3.1,4.7
				C71.2,169.2,71.5,169.7,71.4,169.8L71.4,169.8z"/>
		</g>
		<g>
			<path class="st2" d="M67.3,165c0.9-0.9,0.6-1.8,1.4-3c0.3-0.5,1.1-1.3,1.8-1.2c1.2,0.2,1.4,3.7,1.1,3.8c-0.2,0.1-0.7-2.1-1.4-2.1
				c-0.6,0-0.9,1.3-2.5,4.8c-0.2,0.4-0.5,1.1-1.2,1.3s-1.5,0-1.6-0.3c0-0.1,0.1-0.1,0.1-0.3c0.1-0.3,0-0.5,0-0.5
				c-0.1-0.7,1.2-1.8,1.3-1.9C66.9,165.1,66.9,165.3,67.3,165L67.3,165z"/>
		</g>
		<g>
			<path class="st2" d="M56.4,160.1c0,0,0.6-1.1,1.5-1.5c0.1-0.1,0.2-0.1,0.2-0.1s0.2-0.1,0.4,0c0.3,0,0.7,0.5,0.8,1s0.1,1-0.1,1.1
				c-0.2,0-0.3-0.9-0.8-1c-0.4-0.1-0.8,0.4-1.1,0.8c-1.8,2.4-1.7,4.6-3,5.1c-0.1,0.1-0.7,0.3-1,0c-0.2-0.2-0.2-0.4-0.2-0.5
				C53.1,163.5,55.4,161.7,56.4,160.1L56.4,160.1z"/>
		</g>
		<g>
			<path class="st2" d="M58.2,166.5c-1.1-1.4,1.5-6.8,4.8-7c1.8-0.1,3.8,1.3,3.8,2.2c0,0.4-0.5,0.8-0.9,0.8c-0.7,0-0.9-1.4-1.6-1.4
				c-1.4-0.2-2.4,5.6-4.9,5.8C59,167,58.5,166.9,58.2,166.5L58.2,166.5z"/>
		</g>
		<g id="Calque_2_00000078014159785590917370000009731642824335894417_">
			<g id="manche">
				<path class="st3" d="M119.6,36l3.4,0.9c1.3,0.3,2,1.7,1.7,2.9L92.9,158.6c-0.3,1.3-1.7,2-2.9,1.7l-3.4-0.9
					c-1.3-0.3-2-1.7-1.7-2.9l31.8-118.7C117,36.4,118.4,35.7,119.6,36z"/>
				<path class="st4" d="M90,160.5l-3.4-0.9c-1.4-0.4-2.2-1.8-1.8-3.2l31.8-118.8c0.4-1.4,1.8-2.2,3.2-1.8l3.4,0.9
					c1.4,0.4,2.2,1.8,1.8,3.2L93.1,158.7C92.8,160.1,91.3,160.9,90,160.5z M119.6,36.2c-1.2-0.3-2.4,0.4-2.7,1.6L85.1,156.5
					c-0.3,1.2,0.4,2.4,1.6,2.7l3.4,0.9c1.2,0.3,2.4-0.4,2.7-1.6l31.8-118.7c0.3-1.2-0.4-2.4-1.6-2.7L119.6,36.2z"/>
			</g>
			<g>
				<path class="st4" d="M94.7,128.8c-0.1,0-0.2-0.1-0.1-0.2l17.3-64.4c0-0.1,0.1-0.2,0.2-0.1s0.2,0.1,0.1,0.2l-17.3,64.4
					C94.9,128.8,94.7,128.8,94.7,128.8z"/>
			</g>
			<g>
				<path class="st4" d="M95.1,134.5c-0.1,0-0.2-0.1-0.1-0.2l11.8-44.1c0-0.1,0.1-0.2,0.2-0.1s0.2,0.1,0.1,0.2l-11.8,44.2
					C95.3,134.5,95.2,134.5,95.1,134.5z"/>
			</g>
			<g id="Calque_4">
				<g class="st5">
					<path class="st4" d="M93.2,150.4c0,0,0.5,0.1,0.8,0.1c0.6,0.1,0.8,0.6,1.1,0.5c0.3-0.1,0.2-1,0.6-2.5c0.1-0.3,0.1-0.4,0.3-0.9
						c0.5-1.3,0.7-2.5,0.8-2.8c0.6-2.7,1.3-5.4,2-8.1c1.2-4.6,2.1-7.7,4.7-17c3.7-13.3,2.7-11.1,4.5-16.9c1.4-4.5,2.4-8.4,4.4-16.1
						c0.2-0.9,0.1-0.7,0.3-1.7c2.3-11,4.6-16.4,5.9-22.1c0.9-3.5,0.7-4.4,1.6-5.8c0.1-0.1,0.2-0.4,0.2-0.7c-0.2-2-7.5-3.4-8.1-2.2
						c-0.3,0.6,0.8,1.7,1,1.9c1.5,1.5,3.1,1,4,2.2c0.9,1.1,0.4,2.8,0.2,3.5c-3.6,13.3-6.4,26.7-10.1,39.9c-2,7.3-8.7,34.6-11.9,41.3
						c-0.6,1.4-2,4.1-3.9,4.3c-1.2,0.1-2.4,0.4-3.7,0.5c-0.2,0-0.7,0.1-0.9,0.4c-0.1,0.2-0.1,0.5,0,0.7c0.3,0.7,1.5,0.6,2.9,0.8
						C90.7,149.6,91.8,149.9,93.2,150.4L93.2,150.4z"/>
				</g>
			</g>
			<g id="manche-2">
				<path class="st4" d="M90,160.5l-3.4-0.9c-1.4-0.4-2.2-1.8-1.8-3.2l31.8-118.8c0.4-1.4,1.8-2.2,3.2-1.8l3.4,0.9
					c1.4,0.4,2.2,1.8,1.8,3.2L93.1,158.7C92.8,160.1,91.3,160.9,90,160.5z M119.6,36.2c-1.2-0.3-2.4,0.4-2.7,1.6L85.1,156.5
					c-0.3,1.2,0.4,2.4,1.6,2.7l3.4,0.9c1.2,0.3,2.4-0.4,2.7-1.6l31.8-118.7c0.3-1.2-0.4-2.4-1.6-2.7L119.6,36.2z"/>
			</g>
		</g>
		<g id="tete">
			<path class="st6" d="M104.6,178.9c-0.3,0-0.6-0.1-0.7-0.2c-1.9-1.1,1.4-7-0.7-8.3c-0.1-0.1-0.4-0.2-0.6-0.2
				c-1.9,0.1-1.4,6.9-3.7,7.1c-0.5,0.1-0.9-0.2-1-0.3c-2-1.4,1.6-6.9-0.4-8.2c-0.5-0.3-1-0.3-1.1-0.2c-2.5,0.2-2,6.6-4.5,6.8
				c-0.1,0-0.5,0-0.9-0.2c-2-1.1,1.2-7.2-0.8-8.3c-0.3-0.2-0.7-0.2-0.7-0.2c-2.4,0.1-2.1,6.8-4.4,6.9c-0.5,0-0.8-0.2-0.9-0.2
				c-2.1-1.3,1.3-6.9-0.7-8.3c-0.1,0-0.4-0.3-0.9-0.2c-2.2,0.2-1.7,6.7-4.2,7c-0.2,0-0.6,0-0.9-0.2c-2-1.2,1.2-7.4-0.6-8.3
				c-0.2-0.1-0.4-0.1-0.6-0.1c-2.6,0.1-2.6,6.8-4.9,6.8c-0.1,0-0.4,0-0.7-0.2c-1.8-1.1,1.9-6.8-0.2-8.1c-0.1-0.1-0.3-0.2-0.6-0.2
				c-2-0.1-2.4,6.9-4.6,6.9c-0.1,0-0.3,0-0.4-0.1c-1.6-0.9,1.8-6.5-0.4-8c-0.2-0.1-0.3-0.2-0.5-0.2c-2-0.3-3.2,6.8-5.3,6.5
				c-0.3,0-0.4-0.2-0.5-0.2c-1.8-1.3,2.1-6.8,0.4-7.8c-0.2-0.1-0.4-0.1-0.4-0.2c-2.3-0.3-3.8,7.1-4.8,6.9c-0.3-0.1-0.6-0.8-0.6-3
				l2.6-9.5c0.6-2.1,3-3.2,5.5-2.5l55.8,14.9c2.5,0.7,4,2.9,3.5,4.9l-2.6,9.6c-1.1,1.9-1.7,2.4-2,2.3c-1-0.3,1.1-7.3-1.4-8.5
				c-0.1-0.1-0.3-0.2-0.5-0.1c-1.9,0.1-1.5,6.6-3.8,6.8c0,0-0.5,0-0.8-0.2c-1.8-1.1,1.7-6.8,0-7.9c0,0-0.3-0.2-0.6-0.2
				C106.5,172,106.7,178.8,104.6,178.9L104.6,178.9z"/>
			<path class="st7" d="M71.1,170.3c-0.1,0-0.3-0.1-0.4-0.2c-1-0.6-0.6-2.3-0.1-4c0.4-1.7,0.9-3.5-0.1-4.1c-0.1-0.1-0.3-0.2-0.5-0.2
				c-0.8,0-1.4,1.6-2,3.2c-0.6,1.8-1.3,3.7-2.5,3.6c-0.2,0-0.4-0.1-0.5-0.1c-0.9-0.5-0.6-1.9-0.2-3.6c0.4-1.7,0.9-3.7-0.2-4.5
				c-0.1-0.1-0.3-0.2-0.4-0.2c-0.8-0.1-1.6,1.5-2.4,3.1c-0.9,1.8-1.7,3.6-3,3.5c-0.2,0-0.4-0.1-0.6-0.2c-1-0.7-0.4-2.6,0.1-4.4
				c0.5-1.5,1-3,0.3-3.5c-0.2-0.1-0.3-0.1-0.4-0.1c-1.2-0.1-2.3,2.4-3.1,4.3c-0.7,1.8-1.2,2.7-1.7,2.6c-0.3-0.1-0.7-0.5-0.7-3.2l0,0
				l2.6-9.5c0.6-2.1,3.2-3.4,5.7-2.7l55.8,14.9c2.6,0.7,4.2,3,3.6,5.2l-2.6,9.6c-1.3,2.3-1.9,2.5-2.2,2.4c-0.5-0.2-0.5-1.3-0.4-2.9
				c0.2-2.1,0.3-4.9-1-5.6c-0.1-0.1-0.3-0.1-0.4-0.1c-0.8,0-1.2,1.6-1.5,3c-0.4,1.8-0.9,3.7-2.2,3.8c-0.2,0-0.6,0-0.9-0.2
				c-1-0.7-0.6-2.4-0.1-4.2c0.4-1.6,0.8-3.2,0.1-3.7c0,0-0.2-0.1-0.5-0.1c-0.9,0-1.3,1.7-1.8,3.3c-0.4,1.4-0.8,2.9-1.6,3.5
				c0,0-0.1,0.1-0.2,0.1c-0.2,0.1-0.4,0.1-0.4,0.1c-0.2,0-0.5-0.1-0.8-0.2l-0.1-0.1l-0.1-0.1c-0.9-0.7-0.5-2.4-0.2-4.1
				c0.3-1.7,0.7-3.5-0.3-4.1c-0.1-0.1-0.3-0.2-0.5-0.2c-0.8,0-1.1,1.6-1.5,3.2c-0.4,1.9-0.9,3.8-2.2,4c-0.6,0-1-0.2-1.1-0.3
				c-1.1-0.7-0.7-2.6-0.3-4.3c0.4-1.6,0.8-3.3-0.1-3.9c-0.4-0.3-1-0.2-1-0.2c-1.1,0.1-1.6,1.7-2.1,3.3c-0.5,1.7-1.1,3.4-2.4,3.5
				c-0.4,0-0.7,0-1-0.2c-1.1-0.6-0.8-2.5-0.5-4.4c0.3-1.7,0.6-3.5-0.3-4c-0.3-0.2-0.6-0.2-0.7-0.1c-1.1,0.1-1.5,1.7-2.1,3.3
				c-0.5,1.7-1.1,3.5-2.4,3.6c-0.5,0.1-0.9-0.3-1-0.3c-1.1-0.7-0.8-2.5-0.4-4.3c0.3-1.7,0.6-3.4-0.3-4c-0.1-0.1-0.4-0.2-0.8-0.2
				c-0.9,0.1-1.4,1.7-1.8,3.2c-0.5,1.8-1,3.6-2.4,3.8c-0.2,0-0.6,0-1-0.2c-1.2-0.7-0.8-2.7-0.4-4.7c0.3-1.6,0.6-3.3-0.1-3.7
				c-0.2-0.1-0.4-0.1-0.5-0.1c-1.2,0.1-1.8,1.8-2.4,3.4c-0.6,1.7-1.2,3.4-2.5,3.4C71.4,170.4,71.3,170.4,71.1,170.3z M70.3,161.5
				c0.2,0.1,0.4,0.2,0.4,0.2c1.2,0.8,0.6,2.7,0.2,4.5c-0.4,1.5-0.8,3.1,0,3.6c0.2,0.1,0.5,0.2,0.6,0.2c1,0,1.6-1.5,2.2-3.1
				c0.6-1.8,1.3-3.6,2.8-3.7c0.2,0,0.4,0,0.7,0.1c1,0.5,0.6,2.2,0.3,4.1c-0.3,1.9-0.7,3.7,0.3,4.3c0.3,0.2,0.7,0.2,0.8,0.1
				c1.1-0.1,1.6-1.8,2-3.5c0.5-1.7,0.9-3.4,2.1-3.5c0.4,0,0.8,0.1,1,0.3c1.1,0.7,0.8,2.5,0.5,4.3c-0.3,1.7-0.6,3.4,0.3,3.9
				c0,0,0.4,0.3,0.8,0.2c1-0.1,1.5-1.7,2-3.3c0.5-1.7,1.1-3.5,2.4-3.6c0.1,0,0.5,0,0.8,0.2c1.1,0.6,0.8,2.5,0.5,4.4
				c-0.3,1.7-0.6,3.5,0.3,4c0.2,0.1,0.5,0.2,0.7,0.1c1.1-0.1,1.6-1.7,2.1-3.3c0.5-1.7,1.1-3.4,2.4-3.5c0,0,0.6-0.1,1.2,0.3
				c1.1,0.7,0.7,2.5,0.3,4.3c-0.4,1.7-0.8,3.3,0.1,4c0,0,0.4,0.3,0.8,0.2c1-0.1,1.4-1.9,1.8-3.7s0.8-3.4,1.8-3.5
				c0.4,0,0.7,0.2,0.8,0.2c1.2,0.7,0.8,2.6,0.4,4.5c-0.3,1.6-0.6,3.3,0.2,3.8c0.2,0.1,0.4,0.1,0.5,0.1l0,0c0.9,0,1.4-1.8,1.9-3.4
				c0.5-1.8,1-3.5,2.2-3.6c0.4,0,0.7,0.2,0.7,0.2c1,0.6,0.6,2.3,0.1,4.1c-0.4,1.6-0.8,3.3,0,3.8c0.3,0.2,0.6,0.2,0.7,0.1
				c1-0.1,1.5-1.8,1.9-3.5s0.8-3.3,1.9-3.3c0.2,0,0.4,0.1,0.6,0.2c1.6,0.7,1.4,3.6,1.2,5.9c-0.1,1-0.2,2.4,0.1,2.5l0,0
				c0.1,0,0.5,0,1.8-2.2l2.5-9.5c0.5-2-1-4.1-3.4-4.7l-55.8-14.9c-2.4-0.6-4.7,0.4-5.3,2.4l-2.5,9.5c0.1,2.6,0.4,2.8,0.5,2.8
				c0.3,0.1,0.9-1.4,1.3-2.4c0.9-2.1,2-4.7,3.5-4.5c0.1,0,0.3,0,0.5,0.2c0.9,0.6,0.4,2.2-0.2,3.9c-0.5,1.6-1.1,3.4-0.3,3.9
				c0.1,0.1,0.3,0.2,0.4,0.2c0.9,0.1,1.8-1.6,2.6-3.3c0.9-1.8,1.6-3.4,2.7-3.3c0.3,0,0.4,0.2,0.6,0.3c1.3,0.9,0.8,3,0.4,4.8
				c-0.4,1.5-0.6,2.8,0,3.2c0.1,0.1,0.2,0.1,0.4,0.1c1,0,1.6-1.7,2.2-3.4c0.6-1.8,1.3-3.5,2.4-3.4C70.2,161.4,70.3,161.5,70.3,161.5
				z"/>
		</g>
		<g id="poignée">
			<path class="st6" d="M119.3,28.2l8.1,2.2c1.3,0.3,2,1.6,1.7,2.9l-5.8,21.5c-0.3,1.3-1.6,2-2.9,1.7l-8.1-2.2
				c-1.3-0.3-2-1.6-1.7-2.9l5.8-21.5C116.7,28.6,118,27.8,119.3,28.2z"/>
			<path class="st7" d="M120.3,56.6l-8.1-2.2c-1.3-0.4-2.2-1.7-1.8-3.1l5.8-21.5c0.4-1.3,1.7-2.2,3.1-1.8l8.1,2.2
				c1.3,0.4,2.2,1.7,1.8,3.1l-5.8,21.5C123.1,56.2,121.7,57,120.3,56.6z M119.2,28.3c-1.2-0.3-2.4,0.4-2.7,1.5l-5.8,21.5
				c-0.3,1.2,0.4,2.4,1.5,2.7l8.1,2.2c1.2,0.3,2.4-0.4,2.7-1.5l5.8-21.5c0.3-1.2-0.4-2.4-1.5-2.7L119.2,28.3z"/>
		</g>
		<g id="poignée-2">
			<path class="st6" d="M87.5,148.9l7,1.9c1.3,0.3,2,1.6,1.7,2.9l-1.5,5.5c-0.3,1.3-1.6,2-2.9,1.7l-7-1.9c-1.3-0.3-2-1.6-1.7-2.9
				l1.5-5.5C84.9,149.3,86.2,148.6,87.5,148.9z"/>
			<path class="st7" d="M91.8,161l-7-1.9c-1.3-0.4-2.2-1.7-1.8-3.1l1.5-5.5c0.4-1.3,1.7-2.2,3.1-1.8l7,1.9c1.3,0.4,2.2,1.7,1.8,3.1
				l-1.5,5.5C94.5,160.6,93.1,161.4,91.8,161z M87.4,149.1c-1.2-0.3-2.4,0.4-2.7,1.5l-1.5,5.5c-0.3,1.2,0.4,2.4,1.5,2.7l7,1.9
				c1.2,0.3,2.4-0.4,2.7-1.5l1.5-5.5c0.3-1.2-0.4-2.4-1.5-2.7L87.4,149.1z"/>
		</g>
		<g>
			<path class="st2" d="M121,38.1c-1.3-0.3-2-1.7-1.7-2.9c0.3-1.3,1.7-2,2.9-1.7s2,1.7,1.7,2.9S122.2,38.4,121,38.1z M122.1,33.8
				c-1.1-0.3-2.2,0.3-2.5,1.4c-0.3,1.1,0.3,2.2,1.4,2.5s2.2-0.3,2.5-1.4C123.8,35.2,123.2,34.1,122.1,33.8z"/>
		</g>
		<g>
			<circle class="st2" cx="121.7" cy="35.4" r="1.8"/>
		</g>
		<g class="st8">
			<circle class="st2" cx="121.6" cy="35.7" r="2.2"/>
		</g>
		<g>
			<path class="st2" d="M89.3,155.2c-0.6-0.2-1-0.8-0.8-1.4c0.2-0.6,0.8-1,1.4-0.8s1,0.8,0.8,1.4C90.5,155,89.9,155.3,89.3,155.2z
				 M89.8,153.1c-0.5-0.1-1.1,0.2-1.2,0.7s0.2,1.1,0.7,1.2c0.5,0.1,1.1-0.2,1.2-0.7S90.4,153.3,89.8,153.1z"/>
		</g>
		<g>
			<circle class="st2" cx="89.6" cy="153.9" r="0.9"/>
		</g>
		<g class="st8">
			<circle class="st2" cx="89.6" cy="154.1" r="1.1"/>
		</g>
		<g id="ombres">
			<g class="st9">
				<path class="st2" d="M118.4,55.9c-0.8-0.2-1.1-0.2-1.1-0.3c-0.1-0.3,2.1-0.7,3.6-1.7c2-1.3,2.1-3.3,3.4-7.5
					c1.6-5.1,3.5-8.9,3.6-8.9s-0.5,1.7-1.7,6.5c-0.8,2.9-1.2,4.4-1.2,4.6c-0.5,2.5-1,5.8-2.4,7.3c-0.2,0.2-0.5,0.6-1.1,0.7
					c-0.5,0.1-1,0-1.9-0.2C118.9,56.2,118.9,56.1,118.4,55.9L118.4,55.9z"/>
			</g>
		</g>
		<g id="poignée-3">
			<path class="st7" d="M120.3,56.6l-8.1-2.2c-1.3-0.4-2.2-1.7-1.8-3.1l5.8-21.5c0.4-1.3,1.7-2.2,3.1-1.8l8.1,2.2
				c1.3,0.4,2.2,1.7,1.8,3.1l-5.8,21.5C123.1,56.2,121.7,57,120.3,56.6z M119.2,28.3c-1.2-0.3-2.4,0.4-2.7,1.5l-5.8,21.5
				c-0.3,1.2,0.4,2.4,1.5,2.7l8.1,2.2c1.2,0.3,2.4-0.4,2.7-1.5l5.8-21.5c0.3-1.2-0.4-2.4-1.5-2.7L119.2,28.3z"/>
		</g>
		<g id="reflet">
			<g class="st9">
				<path class="st10" d="M56.7,152.3c-0.7,0.8-0.9,2-0.1,3c0.1,0.1,0.6,0.7,1.3,0.8c1,0.3,1.9-0.3,2.3-0.6c0.8-0.5,0.7-0.9,1.3-1.2
					c0.9-0.6,2.4-0.4,3.3-0.2c3.7,0.6,7.7,1.8,10.1,2.5c2.1,0.6,6.7,1.8,7.1,1.1c0.1-0.1,0-0.2,0-0.2c-0.3-1.1-5.9-2.2-11.2-3.7
					c-4.7-1.3-8.9-2.9-12-2.4C58.1,151.4,57.3,151.7,56.7,152.3L56.7,152.3z"/>
			</g>
			<g class="st9">
				<path class="st10" d="M114.4,45.6c1.1,0.3-0.2,5.9-0.8,6.8c-0.2,0.3-0.5,0.4-0.5,0.4c-0.4,0.2-0.9,0.3-1.2,0
					c-0.3-0.2-0.3-0.7-0.2-1.1C112,50.1,113.4,45.3,114.4,45.6L114.4,45.6z"/>
			</g>
			<g class="st9">
				<path class="st10" d="M117.1,30c-0.7,0.9-0.3,2.4,0.5,2.8c0.9,0.4,2.7-1,2.5-2.2c-0.1-0.5-0.5-1-1-1.2
					C118.3,29.1,117.5,29.5,117.1,30z"/>
			</g>
			<g class="st9">
				<path class="st10" d="M85.5,150.6c-0.3,0.3-0.4,0.8-0.3,1.2c0.2,0.6,1,1,1.7,0.8c0.8-0.2,1.1-1.1,0.9-1.7
					C87.6,150.1,86.1,149.9,85.5,150.6L85.5,150.6z"/>
			</g>
		</g>
		<g class="st9">
			<path class="st2" d="M89.9,149.7c0,0,0.1,0.1,1.4,0.6c2.2,1,2.3,1,2.5,1.1c1.8,1.3,0.9,3.3,0.9,3.5c-0.1,0.5-0.3,1.1-1.2,3.7
				c-0.5,1.3-0.6,2-0.5,2.1c0.2,0.1,0.5-0.2,0.6-0.3c1.3-1.1,1.4-2.7,2.3-6.6c0.2-0.9,0.4-1.5,0.1-2.1c-0.3-0.5-0.7-0.8-1.9-1.2
				C92.1,149.9,90,149.5,89.9,149.7L89.9,149.7z"/>
		</g>
		<g id="poignée-4">
			<path class="st7" d="M91.8,161l-7-1.9c-1.3-0.4-2.2-1.7-1.8-3.1l1.5-5.5c0.4-1.3,1.7-2.2,3.1-1.8l7,1.9c1.3,0.4,2.2,1.7,1.8,3.1
				l-1.5,5.5C94.5,160.6,93.1,161.4,91.8,161z M87.4,149.1c-1.2-0.3-2.4,0.4-2.7,1.5l-1.5,5.5c-0.3,1.2,0.4,2.4,1.5,2.7l7,1.9
				c1.2,0.3,2.4-0.4,2.7-1.5l1.5-5.5c0.3-1.2-0.4-2.4-1.5-2.7L87.4,149.1z"/>
		</g>
	</g>
</g>
</svg>
