<?xml version="1.0" encoding="UTF-8"?>
<svg xmlns="http://www.w3.org/2000/svg" viewBox="0 0 500 500">
  <defs>
    <style>
      .cls-1, .cls-2, .cls-3, .cls-4, .cls-5, .cls-6 {
        stroke-width: 0px;
      }

      .cls-1, .cls-7 {
        fill: #9dbf45;
      }

      .cls-2 {
        fill: #cb664d;
      }

      .cls-3 {
        fill: #fff;
        opacity: .35;
      }

      .cls-4 {
        fill: #f7faf7;
      }

      .cls-5 {
        fill: #6c9c2f;
        opacity: .29;
      }

      .cls-7, .cls-8 {
        stroke: #6c9c2f;
        stroke-miterlimit: 10;
        stroke-width: 3px;
      }

      .cls-6 {
        fill: #6c9c2e;
      }

      .cls-8 {
        fill: none;
      }
    </style>
  </defs>
  <g id="border">
    <g>
      <rect class="cls-2" x="0" width="500" height="500" rx="15" ry="15"/>
      <rect class="cls-4" x="23.81" y="23.81" width="452.38" height="452.38" rx="10" ry="10"/>
    </g>
  </g>
  <g id="card-design">
    <path id="_11" data-name="11" class="cls-7" d="M65.16,331.41c1.63,3.65,4.17,7.55,4.85,8.54,4.76,6.94,9.67,10.65,15.29,18.32,4.19,5.7,6.42,10.4,7.74,14.47,3.06,9.47,1.39,12.75,4.37,18.5,1.43,2.77,4.67,7.39,15.65,12.2,21.48,9.41,34.42,2.83,67.13,9.43,11.67,2.36,15.99,4.4,17.9,5.37,14.59,7.41,14.99,16.44,25.96,21.04,7.55,3.17,15.87,1.35,32.67-2.69,26.03-6.26,39.05-9.39,49.06-20.62,10.96-12.3,7.54-21.88,20.39-29.86,1.89-1.17,7.5-4.39,18.73-10.84,7.2-4.13,9.66-5.51,11.19-8.5,3.69-7.25-1.75-16.89-3.58-20.14-18.73-33.22-273.5-86.11-287.35-48.34-6.67,18.19,0,33.12,0,33.12Z"/>
    <g id="_1" data-name="1">
      <path class="cls-1" d="M69.19,253.53c-18.87-8.3-29.44-39.08-21.93-59.53,3.25-8.84,7.98-10.6,10.64-22.28,2.56-11.23-.48-15.49.55-28.3.34-4.19,1.6-19.85,8.95-29.99,8.47-11.68,21.5-11.17,51.02-16.56,52.44-9.57,56.44-19.4,75.64-13.88,13.76,3.96,34.37,15.53,40.28,34.46,15.87,50.85-87.2,113.41-130.7,132.49-8.58,3.76-22.1,9.02-34.46,3.58Z"/>
      <path class="cls-8" d="M69.19,253.53c-18.87-8.3-29.44-39.08-21.93-59.53,3.25-8.84,7.98-10.6,10.64-22.28,2.56-11.23-.48-15.49.55-28.3.34-4.19,1.6-19.85,8.95-29.99,8.47-11.68,21.5-11.17,51.02-16.56,52.44-9.57,56.44-19.4,75.64-13.88,13.76,3.96,34.37,15.53,40.28,34.46,15.87,50.85-87.2,113.41-130.7,132.49-8.58,3.76-22.1,9.02-34.46,3.58Z"/>
    </g>
    <path id="_6" data-name="6" class="cls-7" d="M181.19,366.6c-19.77,9.91-48.67,10.79-66.12-1.83-14.49-10.49-9.21-21.71-31.89-57.28-14.82-23.24-21.93-26.06-22.51-38.95-.76-16.8,10.96-19.99,15-43.99,3.93-23.31-5.71-28.73.94-40.32,8.04-14.02,22.73-7.14,53.46-24.74,19.57-11.21,21.37-18.44,36.57-21.08,2.93-.51,23.76-3.83,36.11,8.25,5.12,5.01,7.05,10.97,7.97,14.66,42.27,169.28-29.54,205.28-29.54,205.28Z"/>
    <path id="_4" data-name="4" class="cls-7" d="M255.83,160.88c-6.77,4.66-6.09,17.27-5.82,22.38.87,16.21,9.9,18.8,13.43,34.46,3.57,15.83-4.42,18.72-4.48,44.76-.04,16.55-.06,27.65,7.16,34.02,12.87,11.35,43.9,3.42,58.19-15.67,8.45-11.29,9.02-23.78,9.4-32.23,1.17-25.75-11.11-44.67-14.77-50.13-17.49-26.14-50.86-46.04-63.11-37.6Z"/>
    <path id="_3" data-name="3" class="cls-7" d="M336.84,138.5c11.02.61,18.03,13.78,36.7,12.53,11.42-.77,14.33-6.07,25.51-4.92,9.48.97,22.33,6.32,26.41,16.56,3.89,9.77-3.93,14.64-.9,25.06,4.05,13.92,19.97,12.11,25.96,24.62,5.84,12.19-6.01,20.75-16.11,53.71-9.88,32.24-4.07,42.06-15.22,51.47-12.83,10.83-22.89-.18-44.76,10.74-19.2,9.59-18.36,21.53-38.49,29.09-5.45,2.05-19.8,7.44-32.67,1.79-3.95-1.74-16.82-8.49-23.72-38.94-16.69-73.63,24.64-183.53,57.29-181.72Z"/>
    <path id="_10" data-name="10" class="cls-7" d="M156.47,200.72c15.94-14.5,33.35-18.4,41.63-20.14,11.03-2.32,40.7-8.58,63.11,8.5,16.4,12.5,20.25,30.89,25.96,58.19,5.99,28.65,9.38,44.82,1.34,59.08-18.38,32.61-86.89,38.2-127.11,8.95-5.42-3.94-26.56-19.31-31.33-46.55-6.52-37.2,23.01-64.95,26.41-68.03Z"/>
    <path id="_2" data-name="2" class="cls-7" d="M220.34,118.03c4.71-5.74,10.05-3.09,17.31-10.84,7.97-8.51,5.84-14.92,12.17-18.52,9.69-5.52,25.23,3.5,28.54,5.42,13.61,7.9,11.89,15.08,23.86,20.33,10.6,4.65,13.98-.1,26.67,4.97,4.71,1.88,14.63,5.84,20.12,14.91,7.37,12.17-1.33,20.25,6.08,32.52,2.42,4,7.69,7.79,18.25,15.36,14.49,10.39,16.04,8.96,20.59,13.55,11.16,11.26,13.66,31.8,7.02,46.53-5.94,13.18-13.88,9.87-23.86,24.85-13.1,19.63-6.41,35.74-17.78,42.01-8.65,4.77-20.27-.28-24.8-2.26-48.32-21.06-30.66-92.93-81.88-125.13-7.49-4.71-20.11-10.87-28.54-25.3-6.36-10.88-11.67-28.73-3.74-38.4Z"/>
    <path class="cls-5" d="M164.55,198.93c-24.88,25.35-37.49,75.9-8.08,108.76,29.9,33.41,83.99,27.05,111.45,1.79,48.46-44.57-.58-134.54-5.82-133.83-5.66.77,13.47,111.09-16.56,121.74-10.62,3.77-15.83-8.03-55.05-14.77-7.94-1.37-17.27-2.52-22.38-9.85-1.26-1.81-4.28-6.88-2.24-21.48,1.81-13,4.92-35.24,24.17-48.79,3.78-2.66,13.86-8.95,27.75-9.4,5.83-.19,15.52-.5,23.72,5.82,11.33,8.73,11.87,24,12.08,29.99.33,9.26-2.27,11.38-3.83,17.31-.36,1.36-.87,3.66-1.09,8.2-.8,16.45,3.87,28.18-.9,36.7-5.85,10.46-22.56,10.08-22.16,11.86.34,1.49,12.25,3.12,22.38-2.24,3.19-1.69,6.19-4.06,8.06-2.91,2.34,1.44.74,7.07,1.12,7.16,1.32.32,37.32-59.6,11.64-98.92-1.78-2.73-17.61-26.11-47-29.54-31.67-3.7-53.7,18.74-57.27,22.38Z"/>
    <path id="_9" data-name="9" class="cls-7" d="M165.93,188.63c8.7-20.61,32.38-28.27,35.05-29.09,17.84-5.49,45.4-5.62,51.65,7.16,2.6,5.32,1.59,13.04-2.77,17.46-7.28,7.39-18.33-.11-38.74,1.79-26.17,2.44-42.07,17.97-46.57,12.98-2.02-2.23-.11-6.76,1.38-10.29Z"/>
    <path id="_7" data-name="7" class="cls-7" d="M205.7,159.99c-5.16-6.78-80.96,19.23-97.13,76.99-7.24,25.85-2.92,59.51,8.95,63.11,9.93,3.01,23.69-15.45,26.86-19.69,16.05-21.53,12.13-37.7,21.04-62.66,14.18-39.78,43.61-53.37,40.28-57.74Z"/>
    <path id="_8" data-name="8" class="cls-7" d="M241.63,164.91c-2.28,3.1-1.42,7.24,3.47,18.35,10.18,23.15,15.27,25.23,17.35,34.91,2.7,12.52-4.79,13.8-7.93,34.91-.58,3.89-5.79,41.26,10.41,48.34,4.83,2.11,11.49-.08,24.79-4.48,19.65-6.49,31.04-10.25,37.68-20.59,4.77-7.43,4.85-14.77,4.96-25.51.05-5.18.06-15.83-4.67-27.68-3.35-8.39-6.32-10.48-32.52-37.66-15.84-16.44-20.22-21.35-29.75-23.72-7.77-1.93-19.75-2.38-23.8,3.13Z"/>
    <path id="_5" data-name="5" class="cls-7" d="M127.82,283.52c6.46-5.14,14.85-5.6,25.06-4.48,42.16,4.64,46.89,28.69,75.19,29.99,24.5,1.12,58.48-15.18,78.33-29.54,4.85-3.51,12.9-9.83,19.25-7.16,8.89,3.73,9.69,23.08,8.5,32.67-4.75,38.57-60.96,78.52-117.27,76.99-42.72-1.17-90.82-26.36-98.02-59.98-2.14-10-2.51-29.36,8.95-38.49Z"/>
    <path class="cls-5" d="M193.24,173.71c6.05-5.09,9.14-5.63,10.44-9.77.53-1.67.64-3.55,2.31-5.07,1.66-1.5,3.76-1.66,5.74-1.79,7.27-.46,10.91-.69,12.34-.66,0,0,9.28.23,20.19,2.93.64.16,2.39.61,2.45,1.38.07.86-2.03,1.25-3.51,2.54-2.97,2.59-2.33,7.88-2.09,9.92.96,7.99,6.03,11.59,4.7,13.2-1.39,1.69-8.12-.77-8.06-2.24.02-.48.74-.51,1.42-1.19,1.74-1.77.7-5.37-.6-10.22-2.39-8.93-2.05-8.65-2.46-9.18-4.28-5.47-16.8-4.33-25.06,0-6.6,3.45-5.15,5.78-15.07,13.88-1.05.86-3.51,2.82-3.21,5,.22,1.56,1.75,2.52,2.01,2.69,3.18,1.98,7.09-.55,12.91-2.24,2.26-.66,10.38-3.06,19.02-1.42,5.91,1.12,9.62,3.59,12.46,1.49,2.13-1.58,1.92-4.39,3.23-4.48,1.87-.14,4.97,5.38,3.41,7.91-1.54,2.5-6.96,1.02-15.58.08-3.74-.41-16.34-1.62-26.69-.12-15.98,2.31-25.72,10.95-27.18,8.9-.65-.91,1.24-3.36,5-8.26,4.42-5.76,7.15-9.31,11.86-13.28Z"/>
    <path class="cls-5" d="M217.79,138.95c1.1-.57,3.09,5.26,9.44,9.34,5.06,3.26,10.4,3.8,15.4,4.31,5.93.6,6.35-.33,11.64,0,8.95.56,15.51,3.71,21.02,6.36,6.62,3.18,11.53,5.61,15.25,11.04,1.87,2.73,1.13,2.83,3.11,5.87,3.93,6.02,8.17,7.6,14.99,12.98,3.45,2.72,5.73,5.02,10.29,9.62,6.59,6.65,11.2,11.3,14.99,17.68,5.34,8.98,6.67,17.35,7.39,22.16,1.97,13.2-1.52,16.09-1.79,35.81-.29,21.37,2.5,25.75,5.37,27.97,6.92,5.35,18.07,1.07,18.57,3.36.35,1.59-4.83,4.6-9.77,5.45-3.17.55-6.08-.07-11.89-1.29-5.98-1.27-6.88-2.2-7.31-2.77-1.65-2.21-.15-4.23.1-9.67.14-3.12.5-10.96-3.13-17.68-.89-1.64-2.42-3.97-2.03-6.94.19-1.46.72-2.04,1.36-3.8.85-2.34.98-4.21,1.12-7.83.29-7.64.43-11.45.22-14.99-.32-5.52-.57-9.77-1.83-14.59-2.1-8.02-5.86-13.3-10.48-19.65-4.4-6.05-8.45-10.08-16.56-18.13-7.99-7.94-7.46-6.61-13.43-12.76-10.16-10.46-10.34-12.9-16.11-15.89-6.58-3.41-13.69-4.05-16.11-4.25-6.45-.53-5.88.88-10.89.07-8.83-1.42-11.45-5.94-17.53-4.55-1.75.4-3.89,1.31-5.11.24-.98-.86-.46-2.2-1.38-4.49-.74-1.85-1.66-2.42-2.69-3.8-2.66-3.57-3.21-8.67-2.24-9.18Z"/>
    <path class="cls-5" d="M65.16,251.07c-3.98,1.24-11.08-10.98-12.3-13.08-.6-1.03-3.18-5.55-5.61-12.88-2.8-8.47-4.84-14.63-2.43-16.77,3.07-2.73,9.47,4.46,15.41,2.45,8.23-2.79,3.11-19.02,10.97-32.45,10.37-17.73,30.38-8.35,63.78-29.99,15.94-10.33,16.55-15.12,28.2-17.9,19.45-4.65,29.53,6.52,41.18-.67,13.07-8.07,13.52-30.24,19.24-29.53,1.8.22,3.58,2.64,5.6,5.36,1.97,2.66,3.4,4.59,2.77,6.06-.93,2.16-5.31.5-9.26,3.56-2.11,1.63-3.12,3.57-3.8,4.92-5.39,10.6.54,25.12.9,25.96,1.89,4.48,4.46,8.25,3.13,9.62-.68.7-1.62-.02-4.48.22-4.14.35-5.45,2.14-7.61,1.34-1.33-.49-1.99-1.59-2.69-2.69,0,0-1.02-1.61-7.03-9.42-4.51-5.87-13.41-6.51-22.06-7.14-2.65-.19-7.71-.52-13.65.67-10.94,2.2-14.66,7.52-26.43,15.17-11.33,7.36-22.97,14.93-38.66,17.86-5.13.96-11.94,1.65-18.39,6.81-2.01,1.61-6.79,5.54-7.83,11.64-.69,4.02.87,5.29,2.01,12.08,1.2,7.16.66,12.81.27,16.81-.34,3.53-1.06,10.46-4.08,17.88-1.12,2.75-1.19,2.21-4.03,8.5-2.04,4.52-2.24,5.32-3.13,5.59Z"/>
    <path class="cls-5" d="M124.21,335.67c-1.32-2.23-2.78-4.73-4-8.28-1.63-4.74-3.16-12.24-1.79-12.83,2.15-.93,8.2,16.59,19,29.32,25.98,30.63,75.36,28.81,89.91,28.27,12.55-.47,34.48-1.53,57.89-14.92,20.1-11.49,31.41-26.41,33.72-29.54,10.63-14.39,14.37-27.52,15.33-27.14,1.05.41-1.93,16.41-11.42,31.47-9.69,15.37-22.22,23.47-31.06,29.09-33.73,21.45-68.05,21.07-74.9,20.89-5.23-.14-24.92-.99-47.74-10.44,0,0-22.57-9.58-36.25-24.29-5.02-5.4-8.68-11.59-8.68-11.59Z"/>
    <path class="cls-5" d="M297.76,356.63c1.94,1.68,4.92,3.69,8.54,3.65,4.62-.05,9.08-3.4,18.61-17.68,11.25-16.83,9.02-18.11,14.02-22.68,11.64-10.63,22.57-1.2,32.82-11.04,11.58-11.11,3.97-22.91,16.71-42.67,8.97-13.92,14.93-11.45,20.29-23.27,6.35-14.01,5.65-34.4-4.77-46.85-2.39-2.85-11.84-8.67-30.73-20.29-7.68-4.73-14.61-8.78-15.81-15.81-.38-2.23.28-6.03-1.79-10.74-.23-.51-2.2-5-3.46-4.72-1.72.38-2.43,9.7.72,17.54,1.42,3.52,3.83,7.28,11.69,13.74,15.44,12.7,21.05,10.44,29.34,19.92,1.39,1.59,7.34,8.64,9.78,19.58.85,3.83,3.32,14.89-2.11,25.55-2.49,4.89-5.94,8.33-8.95,11.34-5.43,5.42-6.76,4.76-11.04,8.95-9.23,9.03-11.92,20.76-12.21,22.09-1.28,5.88-.26,7.69-2.41,14.02-1.7,5.02-2.9,8.54-6.27,11.04-5.05,3.75-13.27,4.09-18.9,1.33-2.74-1.35-5.23-3.71-7.31-2.77-2.18.99-2.28,4.9-2.44,6.81-.77,9.07-6.7,15.94-16.11,26.86-3.9,4.52-9.82,10.48-18.2,16.11Z"/>
    <path class="cls-5" d="M254.12,282.58c2.74-2.95,11.42,7.91,22.75,6.99,11.46-.93,11.62-12.69,29.54-19.69,7.42-2.9,10.44-2.07,14.55-6.04,6.99-6.76,6.83-17.38,6.71-20.59-.38-10.41-4.88-17.95-8.28-23.5-6.04-9.86-9.41-10.03-20.37-24.62-4.35-5.79-9.84-13.78-9.18-14.32.39-.32,2.73,2.07,11.41,10.74,13.43,13.41,13.7,13.54,15.44,15.67,4.19,5.12,8.84,10.79,12.1,19.46,3.06,8.14,3.26,14.55,3.56,24.17.21,6.84.69,22.34-3.79,23.52-1.75.46-2.35-1.76-5.38-2.7-5.63-1.76-10.37,3.78-24.91,13.31-6.28,4.12-9.43,6.18-14.25,8.39-6.23,2.86-7.47,2.43-13.2,5.59-3.16,1.75-4.09,2.6-5.9,2.46-5.18-.38-8.41-8.12-9.32-10.29-1.41-3.36-2.93-7-1.49-8.55Z"/>
    <path class="cls-5" d="M198.54,153.12c1.74-4.78-12.49-13.06-11.49-14.62.68-1.06,8.05,1.58,14.08,6.69.76.65,9.88,8.47,8.17,11.57-.46.84-1.43.83-5.84,1.73-2.6.53-5.15,1.28-7.76,1.79-3.02.59-24.68,6-46.85,22.68-8.61,6.48-20.85,15.69-30.73,32.52-2.17,3.69-11.82,20.68-13.13,44.46-.91,16.51,2.25,35.17,9.85,37.6,1.09.35,2.59.47,3.88,1.79,3.28,3.38.48,9.79-.3,15.22-1.86,13.03,7.32,24.67,11.64,30.14,4.09,5.18,9.88,9.32,21.48,17.61,5.11,3.65,7.72,4.93,8.65,5.37,4.65,2.2,7.18,2.42,7.16,3.28-.04,1.67-9.71,3.02-17.55,3.16-2.85.05-6.38.1-11.05-.57-2.85-.41-12.92-2.06-23.69-8.78-3.77-2.35-6.16-3.88-8.29-6.94-2.11-3.04-1.89-4.63-4.18-11.04-2.96-8.28-5.71-12.31-5.06-12.74.65-.42,3.97,3.18,6.55,6.77,5.88,8.18,4.77,11.88,8.35,16.41,6.92,8.74,22.66,9.63,24.47,6.27.77-1.43-1.69-4.64-6.65-10.99-4.67-5.99-8.55-10.13-9.16-10.79-7.81-8.45-7.9-18.36-11.19-30.88-5.39-20.52-12.15-20.69-15.96-34.76-9.52-35.17,22.43-72.2,26.52-76.94,13.66-15.85,30.91-25.68,40.92-31.38,11.25-6.4,16.87-9.61,24.32-11.04,6.72-1.29,11.87-.94,12.83-3.58Z"/>
    <path class="cls-5" d="M105.88,251.12c1.32-.06-1.24,21.1,8.81,26.73,6.59,3.69,15.52-1.03,17.08-1.86,7.08-3.75,10.38-10.81,16.04-22.46,2.25-4.63,2.14-5.18,4.92-10.74,2.84-5.66,8.59-16.34,9.81-15.82.72.31-.84,4.25-2.95,13.74-2.6,11.67-1.93,13.45-4.48,20.89-1.38,4.02-.88,1.34-5.67,11.94-.79,1.74-1.56,3.5-3.43,4.63-2.24,1.35-4.19.66-6.97.77-5.73.22-9.98,3.6-11.23,4.6-5.06,4.03-7.01,9.85-7.76,12.08-1.32,3.94-.87,5.4-1.79,5.67-2.89.84-10.93-12.64-12.83-26.41-.35-2.57-.48-5.01-.57-6.86-.42-8.49.18-16.84,1.01-16.89Z"/>
    <path class="cls-5" d="M147.12,184.28c.23.39,4.85-2.51,14.72-6.53,9.84-4.01,19.54-7.96,21.33-5.52,1.49,2.03-3.95,6.46-9.25,16.71-6.57,12.71-8.04,24.88-7.15,25.19.86.3,2.84-10.88,12.37-23.25,2.16-2.8,8.49-11.02,15.52-17.16.06-.06,2.79-2.44,5.97-6.12,3.74-4.33,5.61-6.49,5.07-7.61-1.3-2.71-16.26,1.08-28.5,6.12-17.63,7.26-30.49,17.5-30.09,18.17Z"/>
    <path class="cls-5" d="M62.2,314.56c-1.88-.69.73-20.65,7.43-21.74,3.8-.62,7.5,5.09,13.56,14.67,3.59,5.67,8.69,14.64,17.93,36.61,3.67,8.71,3.87,9.7,5.67,12.23,7.84,11.06,19.93,14.82,23.27,15.81,10.57,3.14,22.97,2.65,29.24.9.87-.24,3.29-.98,6.56-.9,4.82.12,8.33,1.94,9.25,2.39,7.41,3.62,29.84,8.12,45.95,8.35,15.42.22,26.51-3.43,45.06-9.55,14.65-4.83,21.97-7.25,25.66-12.23.77-1.04,2.74-3.96,5.97-4.48,3.45-.55,5.82,2.06,8.54,3.65,10.25,6.01,30.55.63,40.6-8.66,1.61-1.49,4.3-4.32,6.4-3.56,1.77.64,2.23,3.5,2.94,7.97.79,4.95,1.22,7.67-.15,10.74-.22.5-2.58,5.44-6.21,5.61-3.33.15-4.24-3.89-7.96-5.61-5.68-2.63-11.85,2.94-20.16,6.48-10.9,4.64-13.46.66-29.37,3.37-9.2,1.57-7.54,2.76-34.02,12.23-21.68,7.76-28.01,8.82-33.72,9.25-10.21.76-18.29-.53-21.78-1.19-19.91-3.78-21.25-11.79-38.19-14.92-15.81-2.92-17.21,3.71-32.7-.4-4.42-1.17-17.55-4.84-27.28-16.31-3.74-4.41-4.52-7.07-9.55-18.2-11.87-26.28-19.04-41.85-25.36-41.18-4.55.49-6.33,9.12-7.58,8.65Z"/>
    <path class="cls-3" d="M67.73,145.71c1.38,3.91,4.72,6.76,6.45,5.45,2.44-1.84-.62-10.29,2.22-20,2.52-8.64,9.14-13.39,10.68-14.54,5.15-3.84,10.52-5.2,11.43-5.42,4.71-1.14,7.74-.66,7.83-1.34.15-1.06-6.83-4.43-14.02-3.54-8.78,1.09-14.56,7.83-17.33,12.12-.7,1.08-10.85,17.1-7.26,27.27Z"/>
    <path class="cls-3" d="M211.22,169.54c.2,1.47,4.6,2.12,7.46,2.09,4.58-.05,9.91-1.91,9.85-3.58-.06-1.56-4.84-3.03-8.95-2.69-4.17.35-8.56,2.65-8.35,4.18Z"/>
    <path class="cls-3" d="M193.91,210.71c.33,1.33,4.91,1.22,5.97,1.19,9.35-.22,11.17-6.45,18.41-6.52,5.63-.06,6.26,3.68,15.01,4.44,2.65.23,8.29.37,8.56-.89.41-1.91-11.17-8.33-23.78-8.06-12.94.28-24.74,7.56-24.17,9.85Z"/>
    <path class="cls-3" d="M83.48,203.12c1.24.85,3.27-.74,4.33-2.52,1.36-2.27.77-4.21,1.49-6.5.94-2.98,3.33-4.08,7.31-5.76,12.37-5.21,17.09-6.24,17.55-10,.03-.25.2-1.66-.45-2.58-1.5-2.11-5.58.93-13.15,4.05-8.99,3.69-11.65,2.86-14.85,7.17-.61.82-2.76,3.87-3.3,8.65-.07.64-.71,6.26,1.07,7.48Z"/>
    <path class="cls-3" d="M153.63,151.93c.24,1.42,2.76,2.04,2.98,2.09,3.22.75,4.59-1.8,9.25-3.28,5.75-1.82,9.15.31,11.34-2.39.08-.1,1.52-1.92.9-3.28-1.19-2.6-8.99-1.72-14.32,0-4.39,1.41-10.54,4.5-10.15,6.86Z"/>
    <path class="cls-3" d="M228.23,120.6c-.01,1.02,1.72,1.79,2.39,2.09,6.44,2.88,15.52-1.7,20.89-7.16,1.01-1.03,8.91-9.25,6.27-15.22-.17-.39-1.15-2.61-2.69-2.69-3.27-.16-2.94,9.8-9.85,15.81-6.86,5.98-16.98,4.71-17.01,7.16Z"/>
    <path class="cls-3" d="M318.05,125.97c-.09.85,6.79,0,11.94,4.77,5.31,4.93,4.8,12.18,8.35,12.53,1.32.13,2.68-.74,3.28-1.79,1.98-3.48-3-11.31-9.55-14.62-6.53-3.31-13.93-1.77-14.02-.9Z"/>
    <path class="cls-3" d="M388.54,198.26c-1.75.22-3.18,2.36-3.58,4.25-1.28,6.06,8.24,8.77,8.95,16.56.62,6.83-6.2,9.97-4.25,15.89.92,2.77,3.54,5.48,5.59,5.15,3.61-.58,5.62-10.51,5.15-18.35-.71-11.78-7.35-24.06-11.86-23.5Z"/>
    <path class="cls-3" d="M408.46,305.23c1.2-3,4.41-4.36,6.94-4.48,1.73-.08,5.02.34,6.04,2.46,1.46,3.03-2.32,8.32-6.71,9.4-.58.14-3.47.85-5.37-.9-1.86-1.71-1.61-4.69-.9-6.49Z"/>
    <path class="cls-3" d="M140.06,292.47c-1.3,1.71-.77,4.46,1.14,5.97,3.19,2.51,7.83-.32,15.99.3,11.67.89,17.02,7.79,21.32,5.67,2.03-1.01,2.76-3.51,2.28-5.37-1.91-7.53-24.23-8.47-28.55-8.65-9.63-.41-11.53,1.23-12.18,2.09Z"/>
    <path class="cls-3" d="M145.69,195.81c-.27,2.09,2.94,4.51,5.82,4.92,6.1.87,11.1-7.25,9.85-9.4-1.58-2.71-15.15.43-15.67,4.48Z"/>
    <path class="cls-3" d="M262.6,182.54c-1.54,2.43-.13,7.78,1.95,10.85.44.65,3.61,5.32,7.32,3.83,3.08-1.23,4.89-6.05,4.29-9.47-1.14-6.46-11.16-9-13.56-5.22Z"/>
    <path class="cls-3" d="M218.68,424.06c-1.01.89,1.96,8.18,7.61,11.64,11.25,6.89,28.8-4.06,28.42-5.37-.33-1.14-13.97,5.62-26.86-.67-5.26-2.57-8.36-6.32-9.18-5.59Z"/>
    <path class="cls-3" d="M102.39,381.48c-1.54.88-.13,9.81,5.86,15.02,6.64,5.77,16.92,5.27,17.46,3.58.36-1.14-3.87-2.33-11.19-8.06-8.34-6.52-10.9-11.25-12.13-10.55Z"/>
    <path class="cls-3" d="M79.04,337.2c1.75-2.2-1.58-11.5-3.79-16.15-1.46-3.07-3.96-8.3-6.15-7.61-2.06.64-3.24,6.34-2.64,10.8,1.25,9.35,10.57,15.5,12.58,12.96Z"/>
    <path class="cls-3" d="M306.18,290.81c1.5-3.72,5.51-5.4,8.67-5.54,2.16-.1,6.28.43,7.55,3.05,1.82,3.75-2.9,10.3-8.39,11.63-.73.18-4.34,1.06-6.71-1.11-2.32-2.11-2.02-5.81-1.12-8.03Z"/>
    <g id="lignes">
      <path class="cls-6" d="M283.23,123.97c12.83,10.27,21.53,26.64,20.16,43.33-.43,5.54-1.97,10.94-4.37,15.85-.21.44-.74.62-1.18.4-.41-.2-.59-.67-.45-1.08,5.42-14.89,3.09-31.65-5.53-44.84-2.8-4.42-6.08-8.59-9.8-12.35-.77-.75.32-2.02,1.18-1.32h0Z"/>
      <path class="cls-6" d="M307.21,159.94c11.52-3.02,19.7-12.28,21.53-24.01.09-.58.99-.53,1,.07.55,12.53-10.14,23.57-22.34,24.92-.6.07-.79-.82-.19-.98h0Z"/>
      <path class="cls-6" d="M309.6,186.95c13.21-3.6,24.38-12.22,31.88-23.61.31-.48,1.11-.07.89.46-5.16,13.26-18.54,22.72-32.58,24.13-.59.05-.77-.81-.19-.98h0Z"/>
      <path class="cls-6" d="M249.37,127.46c6.48,6.84,14.48,13.07,24.02,14.3,3.3.32,6.62-.19,10,.86,4.58,1.28,8.36,4.39,10.86,8.08.33.46-.32,1.05-.75.66-4.77-4.25-10.43-7.13-16.97-6.48-4.55.21-9.31-1.02-13.32-3.21-2.03-1.11-3.86-2.31-5.68-3.68-3.6-2.74-6.67-6.12-8.97-9.94-.3-.5.39-1.05.8-.6h0Z"/>
      <path class="cls-6" d="M254.61,144.79c5.56,4.3,11.51,8.57,18.42,9.97,7.25.73,14.93,3.52,20.04,8.94.41.4-.14,1.1-.62.78-4.59-2.81-9.4-4.94-14.63-5.92-1.8-.38-3.54-.44-5.39-.85-3.8-.79-7.29-2.52-10.37-4.66-3.08-2.15-5.79-4.73-8.14-7.56-.38-.44.24-1.09.7-.72h0Z"/>
      <path class="cls-6" d="M343.88,196.57c-2.77,10.47-5.04,21.97-6.68,32.67-.08.57-.97.53-1-.05-.43-5.66.14-11.36,1.28-16.92,1.17-5.54,2.89-11,5.46-16.06.25-.52,1.09-.21.94.35h0Z"/>
      <path class="cls-6" d="M350.02,220.71c2.18-9.93,9.86-18.46,19.69-21.28.57-.17.91.66.37.93-6.41,3.29-11.83,8.24-15.78,14.24-1.31,2.01-2.4,4.16-3.33,6.41-.21.56-1.1.28-.95-.3h0Z"/>
      <path class="cls-6" d="M335.46,235.51c7.18-3.21,17.26-7.54,24.23-10.92,7.94-4.28,17.55-5.89,26.27-3.28.58.17.41,1.08-.22.97-4.31-.76-8.71-.79-12.95-.07-4.25.74-8.24,2.42-12.35,4.06-7.19,2.81-17.37,7.15-24.6,10.16-.58.25-1-.66-.39-.92h0Z"/>
      <path class="cls-6" d="M356.44,237.81c5.53,4.91,12.49,7.64,19.75,8.74.58.08.53.98-.06,1-7.68.35-15.22-3.49-20.39-9.02-.42-.44.24-1.13.69-.72h0Z"/>
      <path class="cls-6" d="M336.67,243.46c.32,12.99,6.84,25.62,17.18,33.47.51.38-.06,1.19-.59.81-11.04-7.67-17.75-20.85-17.59-34.26,0-.63.98-.67,1-.01h0Z"/>
      <path class="cls-6" d="M385.23,157.72c8.56,11.31,14.68,24.84,16.2,39.01.06.6-.86.77-.99.15-2.09-10.32-5.31-20.42-10.46-29.63-1.7-3.07-3.54-6.06-5.56-8.94-.37-.51.41-1.11.81-.59h0Z"/>
      <path class="cls-6" d="M368.74,164.04c1.86,4.39,4.86,8.11,9.24,10.1,4.35,2.16,8.66,4.6,12.77,7.23.52.32.05,1.16-.49.87-3.87-1.71-9.3-4.52-13.16-6.38-4.67-2.1-8.09-6.56-9.29-11.5-.14-.58.7-.88.95-.33h0Z"/>
      <path class="cls-6" d="M406.95,154.09c2.21,7.83-.3,17.12-7.03,21.98-.48.37-1.09-.35-.64-.76,5.71-5.31,8.28-13.33,6.7-20.99-.12-.61.81-.84.97-.23h0Z"/>
      <path class="cls-6" d="M418.15,173.83c.41,8.18-4.48,16.62-12.13,19.83-.55.23-.98-.56-.46-.89,4.91-3.07,8.8-7.71,10.5-13.27.57-1.84.93-3.75,1.09-5.69.04-.61.97-.61,1,.02h0Z"/>
      <path class="cls-6" d="M426.77,208.05c.07,6.91-1.53,13.97-4.97,20.01-3.38,5.9-6.15,11.99-8.48,18.37-.2.56-1.09.33-.96-.28,1.44-6.71,4.16-13.21,7.64-19.1,1.66-2.9,2.94-5.96,3.9-9.17.94-3.2,1.52-6.52,1.87-9.88.06-.6,1-.58,1,.05h0Z"/>
      <path class="cls-6" d="M407.08,237.63c-.07,4.77-1.13,9.61-3.19,13.96-1.28,2.84-3.34,5.41-4.79,8.06-2.09,4.03-3.21,8.22-4.32,12.73-.07.27-.34.44-.62.38-.2-.05-.34-.21-.38-.4-.61-3.18-.3-6.52.65-9.66,1.84-6.21,6.82-10.43,8.97-16.42,1.15-2.8,2-5.74,2.69-8.77.12-.57,1.01-.48.99.12h0Z"/>
      <path class="cls-6" d="M406.03,278.26c3-.85,5.76-2.4,7.87-4.54,2.11-2.16,3.41-4.99,5.13-7.8,3.3-5.8,9.61-9.56,16.06-10.71.59-.11.84.74.27.96-4.39,1.7-8.51,3.87-11.72,7.27-3.37,3.49-4.71,8.15-8.48,11.59-2.51,2.29-5.68,3.72-8.93,4.2-.6.09-.81-.81-.21-.98h0Z"/>
      <path class="cls-6" d="M425.96,233.14c-7.29,24.64-23.41,46.65-44.81,60.92-3.06,2.03-6.21,3.91-9.46,5.59-.25.13-.55.03-.67-.21-.12-.23-.04-.51.17-.65,3.03-1.99,6.03-4.03,8.91-6.22,14.45-10.79,26.7-24.5,35.67-40.14,3.59-6.26,6.65-12.83,9.25-19.61.1-.26.39-.39.65-.29.24.09.37.36.3.61h0Z"/>
      <path class="cls-6" d="M376.22,306.72c3.38,1.22,6.83,2.03,10.39,2.23,3.64.04,7.48-.3,11.03.81,2.42.63,4.73,1.6,6.89,2.79.24.13.33.44.2.68-.12.23-.41.32-.64.22-2.21-.96-4.48-1.73-6.8-2.24-3.58-.88-7.11-.49-10.77-.5-3.75-.14-7.5-1.21-10.74-3.08-.52-.29-.13-1.12.42-.91h0Z"/>
      <path class="cls-6" d="M288.25,202.46c3.96,4.37,6.62,9.97,7.68,15.77.18.75.79,7.98-.99,6.04-.75-1.83-1.26-3.63-1.81-5.42-1.01-3.6-2.07-7.14-3.51-10.6-.69-1.75-1.46-3.47-2.21-5.24-.23-.5.47-.96.84-.55h0Z"/>
      <path class="cls-6" d="M275.15,212.18c18.46,11.41,32.15,30.95,35.77,52.42.09.57-.77.83-.97.25-5.18-15.07-13.09-29.07-23.93-40.77-3.58-3.9-7.43-7.57-11.46-11.1-.45-.37.08-1.14.59-.81h0Z"/>
      <path class="cls-6" d="M312.47,235.9c2.89,6.07,4.08,13.84.91,20.02-.25.46-1.01.23-.96-.29.2-3.31.8-6.43.68-9.72-.1-3.26-.67-6.49-1.56-9.64-.17-.57.67-.9.93-.36h0Z"/>
      <path class="cls-6" d="M274.54,254.38c9.04-1.8,18.83-.62,26.94,3.85.55.3.13,1.16-.45.89-8.19-3.81-17.39-5.24-26.32-3.76-.63.1-.81-.85-.18-.98h0Z"/>
      <path class="cls-6" d="M194.53,225.22c12.48-11.93,34.23-13.12,47.66-2.11.42.34.04,1.05-.48.88-11.5-3.58-23.44-4.79-35.14-1.78-3.86.92-7.64,2.27-11.49,3.85-.49.23-.96-.47-.55-.83h0Z"/>
      <path class="cls-6" d="M224.61,234.68c10.01-.95,20.25,2.49,27.82,9.07.48.42-.14,1.18-.65.76-7.43-6.35-17.35-9.54-27.09-8.83-.64.05-.73-.94-.08-1h0Z"/>
      <path class="cls-6" d="M171.71,229.62c18.55-6.28,38.37-.66,51.9,13.43,6.75,6.66,11.21,15.32,13.86,24.34,2.9,8.49,7.08,16.51,12.04,24.18.15.23.09.54-.15.69-.21.14-.48.1-.65-.08-7.84-8.4-13.37-18.98-17.28-29.8-6.14-14.05-18.46-25.41-32.99-30.32-8.38-2.71-17.54-2.96-26.49-1.47-.27.05-.53-.14-.58-.41-.04-.25.11-.48.34-.56h0Z"/>
      <path class="cls-6" d="M231.39,265.75c6.08,10.43,4.51,25.8-5.15,33.59-.4.32-1-.13-.8-.6,1.07-2.78,2.14-5.35,2.98-7.99,2.76-7.98,3.26-16.29,2.02-24.66-.09-.53.68-.8.94-.33h0Z"/>
      <path class="cls-6" d="M206.25,238.46c12.16,11.6,14.41,32.18,5.12,46.17-.31.48-1.09.11-.9-.44,3.9-11.18,3.8-23.21-.31-34.26-1.28-3.68-2.93-7.24-4.71-10.87-.26-.48.41-.99.8-.6h0Z"/>
      <path class="cls-6" d="M179.08,233.97c12.82,11.63,13.82,33.43,2.72,46.55-.36.45-1.11-.04-.83-.55,7.6-14.77,6.38-31.5-2.65-45.35-.32-.47.35-1.04.76-.64h0Z"/>
      <path class="cls-6" d="M121.5,274.57c-1.43-24.74,6.54-50.37,22.78-69.23.38-.44,1.14.08.8.6-9.75,15.48-17.09,32.42-20.36,50.46-1.11,5.98-1.84,12.05-2.22,18.17-.02.59-.97.64-1,0h0Z"/>
      <path class="cls-6" d="M136.26,225.44c6.93-.73,13.56-3.93,18.52-8.82.45-.46,1.18.26.7.71-2.64,2.43-5.61,4.5-8.86,6.01-3.24,1.53-6.69,2.55-10.23,3.09-.66.1-.8-.92-.13-.99h0Z"/>
      <path class="cls-6" d="M133.46,207.41c-1.78,4.78-3.01,9.54-2.76,14.68,0,.28-.22.52-.51.52-.21,0-.39-.12-.47-.3-2.2-5.03-1.24-11.7,2.91-15.46.38-.35,1.01.09.83.56h0Z"/>
      <path class="cls-6" d="M126.06,251.03c3.89-3.14,8.78-5.18,13.7-5.93,4.79-.64,8.52-3.71,11.2-7.63.33-.5,1.14-.03.86.5-1.6,3.42-4.37,6.57-7.94,8.12-3.48,1.43-7.23,1.48-10.67,2.89-2.25.79-4.45,1.78-6.62,2.88-.51.28-1.02-.48-.54-.84h0Z"/>
      <path class="cls-6" d="M119.35,235.61c-.21,2.48-.32,4.87-.17,7.25.1,2.48.76,4.69.47,7.24-.03.3-.3.52-.6.49-2.17-1.64-2.23-5.17-2.29-7.68.04-2.61.55-5.22,1.63-7.56.22-.51,1.03-.29.97.26h0Z"/>
      <path class="cls-6" d="M251.64,363.62c27.02-12.22,47.43-31.04,57.87-59.21.1-.26.39-.39.64-.29.24.09.37.35.31.6-.93,3.5-2.14,6.93-3.53,10.28-6.95,16.88-19.39,31.45-34.88,41.11-6.24,3.81-13,6.8-20.09,8.46-.53.11-.91-.64-.33-.94h0Z"/>
      <path class="cls-6" d="M299.45,300.94c1.65,10.44-2.08,21.9-10.13,28.87-.43.38-1.09-.22-.73-.68,6.15-8.15,9.76-17.83,9.86-28.12,0-.59.91-.67,1-.07h0Z"/>
      <path class="cls-6" d="M299.12,334.81c6.16-1.85,11.86-5.07,16.48-9.56.44-.44,1.15.24.72.7-2.23,2.44-4.85,4.54-7.72,6.21-2.87,1.67-5.98,2.93-9.22,3.62-.61.13-.85-.78-.25-.97h0Z"/>
      <path class="cls-6" d="M265.93,363.9c2.76.26,5.48.26,8.2-.14.9-.14,1.79-.29,2.78-.15.47.05.62.7.24.97-1.68,1.15-3.75,1.07-5.68,1.16-1.95,0-3.89-.28-5.73-.85-.27-.08-.41-.36-.33-.63.07-.23.3-.37.53-.35h0Z"/>
      <path class="cls-6" d="M274.68,318.29c.95,13.1-4.69,27.34-15.68,34.98-.46.33-1.05-.31-.67-.74,6.2-7.29,11.35-15.45,13.67-24.8.81-3.08,1.34-6.24,1.69-9.45.05-.59.96-.59,1,.01h0Z"/>
      <path class="cls-6" d="M205.6,319.96c-.12,13.57,6.59,26.06,17.23,34.31.46.35-.02,1.12-.54.84-12.63-6.31-19.67-21.43-17.69-35.22.09-.59,1-.55,1,.07h0Z"/>
      <path class="cls-6" d="M198.56,372.11c4.14-1.87,8.55-3.34,13.13-3.43,2.6,1.01-5.41,3.18-6.15,3.31-2.21.54-4.44.96-6.73,1.09-.54.04-.74-.75-.25-.97h0Z"/>
      <path class="cls-6" d="M165.17,359.72c6.44-2.21,13.15-3.92,19.99-4.03.28,0,.51.24.5.52,0,.2-.13.38-.3.46-3.17,1.36-6.48,2.13-9.85,2.76-3.36.63-6.72,1.13-10.15,1.27-.55.03-.72-.8-.2-.98h0Z"/>
      <path class="cls-6" d="M135.89,331.99c3.58-.13,6.72,1.17,9.96,2.38,3.18,1.25,6.31,2.6,9.28,4.33.47.26.2,1.04-.33.94-1.72-.24-3.39-.6-5.05-1-3.3-.84-6.56-1.8-9.73-3.05-.66-.27-6.35-2.89-4.14-3.61h0Z"/>
      <path class="cls-6" d="M151.41,303.17c4.83,9.04,9.58,18.37,12.09,28.35.13.53-.63.85-.92.39-2.88-4.33-4.89-9.05-6.85-13.83-1.93-4.76-3.76-9.56-5.23-14.52-.18-.55.65-.91.92-.39h0Z"/>
      <path class="cls-6" d="M176.51,310.11c-.45,12.96,4.3,25.76,12.7,35.59.4.46-.3,1.13-.74.68-9.42-9.37-14.22-23.12-12.96-36.32.06-.62,1.01-.58,1,.06h0Z"/>
      <path class="cls-6" d="M237.92,323.42c9.1,15.43,9.14,36.07-.91,51.06-.34.5-1.15.06-.86-.5,8.18-15.48,8.68-34.36.89-50.09-.27-.55.56-1.02.88-.47h0Z"/>
      <path class="cls-6" d="M136.72,308.14c16.79,21.1,38.93,37.89,63.96,47.94,8.29,3.42,16.84,6.19,25.55,8.57.27.07.43.35.35.61-.07.25-.31.4-.55.37-27.11-3.93-52.37-17.71-72.22-36.34-6.64-6.24-12.63-13.15-17.9-20.55-.16-.22-.11-.54.12-.7.22-.15.52-.11.68.1h0Z"/>
      <path class="cls-6" d="M278.24,377.53c4.05,9.51,8.12,18.88,13.21,27.9.28.5-.44,1.02-.82.57-3.5-3.93-6.34-8.44-8.63-13.17-1.17-2.36-2.14-4.82-2.97-7.32-.79-2.51-1.44-5.08-1.75-7.7-.08-.55.75-.79.96-.27h0Z"/>
      <path class="cls-6" d="M272.79,376.93c-3.98,7.58-8.11,14.83-11.26,22.74-3.19,7.86-5.31,16.06-6.84,24.44-.1.57-.99.53-1-.07-.29-13.08,3.33-26.32,10.06-37.54,2.3-3.73,5-7.22,8.25-10.18.4-.38,1.06.13.79.61h0Z"/>
      <path class="cls-6" d="M269.6,400.27c1.48,6.8,4.16,13.31,8.68,18.68.18.21.14.53-.07.7-.2.16-.49.15-.67-.03-2.54-2.53-4.66-5.53-6.18-8.81-1.57-3.25-2.58-6.81-2.74-10.41-.03-.6.86-.72.99-.14h0Z"/>
      <path class="cls-6" d="M232,400.75c11.8-2.97,21.66-10.25,29.23-19.63.36-.46,1.12.05.83.56-5.99,10.89-17.77,18.02-29.85,20.05-.61.1-.82-.81-.21-.98h0Z"/>
      <path class="cls-6" d="M252.85,399.21c-3.07,9.93-12.21,17.53-22.22,19.8-.56.13-.85-.71-.32-.95,6.69-3.13,12.63-7.58,17.24-13.34,1.56-1.87,2.97-3.88,4.4-5.95.3-.47,1.08-.1.9.43h0Z"/>
      <path class="cls-6" d="M149.96,381.49c10.37,1.02,20.73,2.12,31.03,3.73.61.1.51,1.04-.12.99-10.39-.88-20.72-2.26-31.03-3.73-.62-.09-.52-1.05.12-.99h0Z"/>
      <path class="cls-6" d="M132.12,392.84c21.27,4.04,42.03,1.23,62.34-5.79.54-.19.94.62.41.91-14.18,7.98-31.06,10.53-47.14,9.01-5.38-.55-10.7-1.59-15.84-3.16-.57-.18-.39-1.08.23-.97h0Z"/>
      <path class="cls-6" d="M184.82,395.97c-3.46,3.49-7.32,6.46-11.64,8.8-.49.27-.99-.41-.6-.8,1.69-1.8,3.57-3.34,5.51-4.81,1.95-1.45,3.95-2.84,6.13-3.99.49-.27,1,.41.6.8h0Z"/>
      <path class="cls-6" d="M97.98,320.46c7.66,1.28,13.72,7.14,17.39,13.73,3.81,6.29,8.75,11.69,14.63,16.11.49.37-.03,1.16-.57.82-6.35-3.99-11.8-9.49-15.77-15.83-1.96-3.08-3.95-6.02-6.81-8.28-2.74-2.28-5.85-4.04-9.18-5.59-.52-.22-.26-1.08.3-.95h0Z"/>
      <path class="cls-6" d="M100.85,273.28c1.39,5.53,2.13,11.14,2.52,16.8.11,1.89.16,3.78.05,5.69-.02.28-.26.49-.54.48-.22-.01-.4-.16-.46-.36-1.04-3.66-1.58-7.4-2-11.16-.39-3.75-.68-7.52-.58-11.33,0-.57.87-.67.99-.11h0Z"/>
      <path class="cls-6" d="M68.8,269.72c11.36,7.7,20.25,19.24,24.45,32.34.18.58-.68.93-.94.35-4-9.28-9.51-17.89-16.61-25.11-2.35-2.4-4.87-4.66-7.5-6.78-.48-.38.06-1.16.59-.81h0Z"/>
      <path class="cls-6" d="M108.44,218.74c-2.07,8.43-4.56,17.18-7.09,25.49-.57,4.63-2.75,10.63-5.72,14.91-.34.5-1.15.04-.86-.51,1.22-2.32,2.25-4.73,3.06-7.2.81-2.52,1.37-5.11,1.74-7.72,1.03-3.69,2.65-8.95,3.78-12.67,1.33-4.2,2.66-8.41,4.12-12.57.2-.57,1.11-.33.96.28h0Z"/>
      <path class="cls-6" d="M85.47,211.55c4.99,8.22,3.24,18.55-.78,26.79-.77,1.68-1.68,3.27-2.36,4.88-1.38,3.17-1.32,6.86-.31,10.24.18.59-.73.92-.95.32-1.3-3.51-1.53-7.57-.09-11.1.69-1.76,1.55-3.35,2.25-5,3.8-8.02,5.15-17.44,1.34-25.69-.25-.55.59-.99.9-.44h0Z"/>
      <path class="cls-6" d="M99.72,201.22c3.7,8.92,3.84,19.59-.35,28.42-2.02,4.35-4.3,8.45-6.04,12.87-7.03,18.15-7.07,36.96,4.3,53.37,2.63,3.89,5.66,7.54,8.99,10.9.2.2.19.51,0,.71-.19.19-.48.19-.68.02-20.47-17.6-25.26-41.24-15.35-66.11,1.82-4.54,4.38-8.69,6.44-12.86,4.28-8.23,4.78-18.02,2.68-27.33h0Z"/>
      <path class="cls-6" d="M209.85,99.41c3.66,2.83,3.13,9.89-1.4,11.67-.29.11-.62-.04-.73-.34.13-2.02.94-3.66,1.19-5.55.31-1.77.22-3.4.07-5.3-.07-.47.52-.79.87-.49h0Z"/>
      <path class="cls-6" d="M196.43,97.58c8.36,12.12,5.28,29.84-6.35,38.73-.43.35-1.05-.22-.73-.68,8.16-11.69,11.13-23.91,6.18-37.6-.2-.53.59-.93.9-.45h0Z"/>
      <path class="cls-6" d="M179.44,95.61c3.95,7.3,8.56,14.5,12.67,21.71.27.47-.36.99-.77.64-1.7-1.36-3.18-2.94-4.54-4.62-1.35-1.68-2.58-3.47-3.65-5.35-2.15-3.74-3.86-7.78-4.65-12.04-.11-.54.68-.83.94-.34h0Z"/>
      <path class="cls-6" d="M147.53,114.08c-.94,4.19-1.69,8.21-1.7,12.43-.03,4.37,1.04,8.61-.19,13.14-.78,3-2.31,5.76-4.42,7.88-.38.4-1.06-.07-.83-.57,1.14-2.62,1.96-5.25,2.31-7.89.34-2.64.07-5.25-.15-8.18-.51-5.91.91-12.16,4.06-17.18.28-.48,1.06-.16.92.38h0Z"/>
      <path class="cls-6" d="M116.68,110.01c.74,4.07,1.97,8.08,4.2,11.58,2.31,3.56,4.21,7.48,5.18,11.64.15.61-.78.87-.96.26-1.17-4.01-3.04-7.74-5.31-11.23-2.25-3.66-3.56-7.86-4.1-12.1-.08-.63.87-.79.99-.15h0Z"/>
      <path class="cls-6" d="M87.37,125.03c18.79-.57,38.02,11.46,44.47,29.35.19.51-.54.93-.87.49-8.31-10.57-18.53-19.23-30.95-24.44-4.09-1.73-8.34-3.14-12.76-4.4-.54-.13-.45-.99.12-.99h0Z"/>
      <path class="cls-6" d="M78.46,154.71c5.32-7.24,17.86-14.47,26.97-11.56.45.14.47.82.04,1-3.55,1.56-6.85,2.05-10.4,3.1-5.76,1.75-11.01,4.62-15.91,8.17-.44.34-1.05-.27-.7-.71h0Z"/>
      <path class="cls-6" d="M96.33,168.39c4.64-7.81,15.96-14.37,24.85-10.02.43.22.33.91-.15.99-6.59,1.19-12.91,1.84-18.54,5.69-1.87,1.17-3.64,2.52-5.41,3.99-.41.37-1.06-.18-.76-.65h0Z"/>
      <path class="cls-6" d="M52.99,217.7c1.91-10.09,8.09-20.26,17.65-24.67.49-.22.95.44.57.82-5.24,5.38-10.48,10.65-13.99,17.34-1.22,2.18-2.27,4.45-3.27,6.79-.21.54-1.07.29-.96-.28h0Z"/>
    </g>
  </g>
</svg>