<?xml version="1.0" encoding="utf-8"?>
<!-- Generator: Adobe Illustrator 28.3.0, SVG Export Plug-In . SVG Version: 6.00 Build 0)  -->
<svg version="1.1" id="Calque_1" xmlns="http://www.w3.org/2000/svg" xmlns:xlink="http://www.w3.org/1999/xlink" x="0px" y="0px"
	 viewBox="0 0 500 500" style="enable-background:new 0 0 500 500;" xml:space="preserve">
<style type="text/css">
	.st0{fill:#CB664D;}
	.st1{fill:#F7FAF7;}
	.st2{fill:#D0C8BF;}
	.st3{fill:#DAAC95;}
	.st4{fill:#E5BCA0;}
	.st5{fill:#CD8864;}
	.st6{fill:#C47653;}
</style>
<g id="border">
	<path class="st0" d="M464.3,500H35.7C16,500,0,484,0,464.3V35.7C0,16,16,0,35.7,0h428.6C484,0,500,16,500,35.7v428.6
		C500,484,484,500,464.3,500z"/>
	<path class="st1" d="M452.4,476.2H47.6c-13.1,0-23.8-10.7-23.8-23.8V47.6c0-13.1,10.7-23.8,23.8-23.8h404.8
		c13.1,0,23.8,10.7,23.8,23.8v404.8C476.2,465.5,465.5,476.2,452.4,476.2z"/>
</g>
<g>
	<ellipse class="st2" cx="203" cy="410.6" rx="96.7" ry="5.8"/>
	<g>
		<path class="st3" d="M350.4,285.6l-14.2-5.2l-0.9-4.6l-13-4.7c1.4-1.3,2.8-2.7,4.1-4.1c40-40.4,57.5-93.5,51-140.4
			C406.4,170.9,396.1,237.6,350.4,285.6z"/>
		<path class="st4" d="M326.5,267c-1.4,1.4-2.8,2.7-4.1,4.1l-0.3-0.1l-8.9-7.1l-5.4-15.4l-18-6.1l-7.5-11.2l-17.6-6.9l-2.9-23.4
			l-14-3.3l-0.3-19.7l-17,1.1l-4-10.9l-12.4,1.5l-16.6-18.9l-9.1-20.3c53.5-54,132.6-62.5,176.6-18.9c4.7,4.7,8.8,9.8,12.4,15.2
			C384,173.5,366.5,226.6,326.5,267z"/>
	</g>
	<g>
		<path class="st3" d="M291.1,323.8c-21.7,43.6-58,74.6-97.9,86.8c-6.4-0.9-12.7-2.5-18.9-4.8c-58.1-21.6-83.7-96.9-57.2-168.2
			l1,34.7l11.2,3.3l3,11.6l16.3-1.9l3,10l17.4-11.7l7.9,19.2l16.1-1.3l3.8,10.3l7.2-0.5l7.8,9l21.4-9.6l5,11.4l10.4-3.1l6.5,7.5
			l17.6-12.3l11.2,9.3l5.5-2.7L291.1,323.8z"/>
		<path class="st5" d="M328.6,312.4L328.6,312.4L328.6,312.4z"/>
		<path class="st5" d="M277.7,299.6c-17.6,4.6-46,9.7-82.5,8.2l-2.3-6.3l-16.1,1.3l-7.9-19.2l-17.4,11.7l-3-10l-16.3,1.9l-3-11.6
			l-11.2-3.3l-1-34.7l16.6,14.7l22.9,10.4l10.7-6.5l8.1,8.3l15.1-8l8.4,17.8l14.1-2.7l12.3,20.2l18.9-1l11.4,7.1l18.9-1.9
			L277.7,299.6z"/>
		<g>
			<path class="st3" d="M327.4,315.8c-23.7,63.7-80.9,102.6-134.2,94.8c39.9-12.2,76.3-43.2,97.9-86.8l3.8,7l33.6-18.4
				C328.2,313.6,327.8,314.7,327.4,315.8z"/>
			<path class="st4" d="M117.1,237.6l1,34.7l11.2,3.3l3,11.6l16.3-1.9l3,10l17.4-11.7l7.9,19.2l16.1-1.3l3.8,10.3l7.2-0.5l7.8,9
				l21.4-9.6l5,11.4l10.4-3.1l6.5,7.5l17.6-12.3l11.2,9.3l5.5-2.7l1.7,3c-21.7,43.6-58,74.6-97.9,86.8c-6.4-0.9-12.7-2.5-18.9-4.8
				C116.2,384.2,90.6,308.9,117.1,237.6z"/>
		</g>
		<path class="st6" d="M328.6,312.4L328.6,312.4L295,330.8l-3.8-7l-1.7-3l-5.5,2.7l-11.2-9.3l-17.6,12.3l-6.5-7.5l-10.4,3.1l-5-11.4
			l-21.4,9.6l-7.8-9l-7.2,0.5l-1.5-4.1c36.4,1.5,64.9-3.6,82.5-8.2l7.9,8.3l11.1,2.8h0.3l13.8-1.1l2.7,3.8L328.6,312.4z"/>
	</g>
	<g>
		<ellipse transform="matrix(0.9867 -0.1624 0.1624 0.9867 -58.2828 32.9666)" class="st3" cx="172.5" cy="373" rx="1.6" ry="2.5"/>
		<ellipse class="st3" cx="175.7" cy="355.3" rx="1.6" ry="2.5"/>
		
			<ellipse transform="matrix(0.4166 -0.9091 0.9091 0.4166 -230.1498 356.9198)" class="st3" cx="163" cy="357.8" rx="2.5" ry="1.6"/>
		<ellipse transform="matrix(0.308 -0.9514 0.9514 0.308 -197.5192 452.5187)" class="st3" cx="212.3" cy="362" rx="1.9" ry="3.2"/>
	</g>
	<g>
		
			<ellipse transform="matrix(0.9247 -0.3808 0.3808 0.9247 -44.5431 137.6563)" class="st3" cx="325.6" cy="181.4" rx="2.5" ry="1.6"/>
		<path class="st3" d="M282.1,139.1c0-1.4,0.7-2.5,1.6-2.5s1.6,1.1,1.6,2.5s-0.7,2.5-1.6,2.5C282.8,141.6,282.1,140.4,282.1,139.1z"
			/>
		
			<ellipse transform="matrix(0.9742 -0.2256 0.2256 0.9742 -21.7635 65.9521)" class="st3" cx="277.7" cy="128.2" rx="2.5" ry="1.6"/>
		
			<ellipse transform="matrix(0.2008 -0.9796 0.9796 0.2008 71.0004 451.7087)" class="st3" cx="312.3" cy="182.3" rx="1.6" ry="2.5"/>
		
			<ellipse transform="matrix(8.547186e-02 -0.9963 0.9963 8.547186e-02 139.0422 418.1848)" class="st3" cx="297.3" cy="133.4" rx="3.2" ry="1.9"/>
	</g>
	<g>
		<polygon class="st4" points="136.4,212.5 139.9,217.1 145.3,215.1 145.8,209.5 139.9,205.4 139.4,210.8 		"/>
		<polygon class="st4" points="149.5,220.7 150.8,226.3 153.1,224.5 		"/>
		<polygon class="st4" points="154.9,205.4 153.1,214 160.2,214 160.2,210.3 		"/>
	</g>
	<g>
		<polygon class="st3" points="336.5,308 338,313.1 343,313.8 		"/>
		<polygon class="st3" points="339.7,302.6 346.7,302.6 349.7,308 346.5,306.7 		"/>
		<polygon class="st3" points="332.7,302.6 326.5,302.6 327.8,297.5 330.3,300 337.7,297.5 		"/>
	</g>
</g>
</svg>
