<?xml version="1.0" encoding="utf-8"?>
<!-- Generator: Adobe Illustrator 28.3.0, SVG Export Plug-In . SVG Version: 6.00 Build 0)  -->
<svg version="1.1" id="Calque_1" xmlns="http://www.w3.org/2000/svg" xmlns:xlink="http://www.w3.org/1999/xlink" x="0px" y="0px"
	 viewBox="0 0 210 210" style="enable-background:new 0 0 210 210;" xml:space="preserve">
<style type="text/css">
	.st0{fill:#CB664D;}
	.st1{fill:#F7FAF7;}
	.st2{fill:#CB8F42;}
	.st3{fill:#A17233;}
	.st4{opacity:0.5;}
	.st5{fill:#A06E2E;}
	.st6{fill:#9A9B9A;}
	.st7{fill:#6A6967;}
	.st8{opacity:0.3;}
	.st9{fill:#5F5E5C;}
	.st10{fill:#656462;}
	.st11{fill:#FFFFFF;}
</style>
<g id="border">
	<path class="st0" d="M195,210H15c-8.3,0-15-6.7-15-15V15C0,6.7,6.7,0,15,0h180c8.3,0,15,6.7,15,15v180C210,203.3,203.3,210,195,210
		z"/>
	<path class="st1" d="M190,200H20c-5.5,0-10-4.5-10-10V20c0-5.5,4.5-10,10-10h170c5.5,0,10,4.5,10,10v170
		C200,195.5,195.5,200,190,200z"/>
</g>
<g id="card-design">
	<g>
		<g id="manche">
			<path class="st2" d="M118.8,32.5l3.1,0.8c1.2,0.3,1.9,1.5,1.5,2.7L94.6,143.9c-0.3,1.2-1.5,1.9-2.7,1.5l-3.1-0.8
				c-1.2-0.3-1.9-1.5-1.5-2.7L116.2,34C116.5,32.9,117.7,32.2,118.8,32.5z"/>
			<path class="st3" d="M91.9,145.6l-3.1-0.8c-1.3-0.3-2-1.6-1.7-2.9L116,34c0.3-1.3,1.6-2,2.9-1.7l3.1,0.8c1.3,0.3,2,1.6,1.7,2.9
				l-29,108C94.4,145.2,93.1,146,91.9,145.6L91.9,145.6z M118.8,32.7c-1.1-0.3-2.2,0.4-2.5,1.4L87.4,142c-0.3,1.1,0.4,2.2,1.4,2.5
				l3.1,0.8c1.1,0.3,2.2-0.4,2.5-1.4L123.3,36c0.3-1.1-0.4-2.2-1.4-2.5L118.8,32.7z"/>
		</g>
		<path class="st3" d="M96.1,116.8c-0.1,0-0.1-0.1-0.1-0.2l15.7-58.5c0-0.1,0.1-0.1,0.2-0.1s0.1,0.1,0.1,0.2l-15.7,58.5
			C96.3,116.8,96.2,116.9,96.1,116.8z"/>
		<path class="st3" d="M96.5,122c-0.1,0-0.1-0.1-0.1-0.2l10.8-40.1c0-0.1,0.1-0.1,0.2-0.1s0.1,0.1,0.1,0.2l-10.8,40.1
			C96.7,122,96.6,122,96.5,122z"/>
		<g class="st4">
			<path class="st5" d="M94.8,136.5c0,0,0.4,0,0.7,0.1c0.5,0.1,0.7,0.6,1,0.5s0.2-1.1,0.6-2.7c0.1-0.4,0.1-0.4,0.3-1
				c0.5-1.5,0.7-2.6,0.8-3c0.7-2.9,1.4-5.8,2.2-8.7c1.3-5,2.3-8.3,5.1-18.3c4-14.3,2.9-11.9,4.8-18.1c1.5-4.8,2.6-9,4.8-17.4
				c0.2-0.9,0.2-0.8,0.4-1.8c2.6-11.8,4.9-17.7,6.4-23.7c0.9-3.8,0.8-4.7,1.7-6.3c0.1-0.1,0.2-0.4,0.2-0.7c-0.1-2.1-6.7-3.4-7.4-2
				c-0.3,0.6,0.7,1.7,0.8,1.9c1.3,1.5,2.8,1,3.6,2.1c0.8,1.1,0.2,3,0,3.7c-3.9,14.2-7.1,28.7-11,42.9c-2.2,7.9-9.5,37.3-12.7,44.5
				c-0.7,1.5-2,4.4-3.8,4.7c-1.1,0.2-2.2,0.5-3.4,0.6c-0.2,0-0.6,0.1-0.8,0.4c-0.1,0.2-0.1,0.5-0.1,0.7c0.2,0.7,1.4,0.6,2.7,0.7
				C92.5,135.7,93.6,135.9,94.8,136.5L94.8,136.5z"/>
		</g>
		<g id="manche-2">
			<path class="st3" d="M91.9,145.6l-3.1-0.8c-1.3-0.3-2-1.6-1.7-2.9L116,34c0.3-1.3,1.6-2,2.9-1.7l3.1,0.8c1.3,0.3,2,1.6,1.7,2.9
				l-29,108C94.4,145.2,93.1,146,91.9,145.6L91.9,145.6z M118.8,32.7c-1.1-0.3-2.2,0.4-2.5,1.4L87.4,142c-0.3,1.1,0.4,2.2,1.4,2.5
				l3.1,0.8c1.1,0.3,2.2-0.4,2.5-1.4L123.3,36c0.3-1.1-0.4-2.2-1.4-2.5L118.8,32.7z"/>
		</g>
		<g id="Calque_7">
			<g>
				<path class="st6" d="M107.5,148.3c0.4-1.3-0.4-2.7-1.6-3l-9.2-2.5l0.9-3.3c0.3-1.1-0.4-2.3-1.5-2.6l-6.4-1.7
					c-1.1-0.3-2.3,0.4-2.6,1.5l-0.9,3.3l-9.2-2.5c-1.2-0.3-2.5,0.5-2.9,1.8c-1.4,5.4-3.1,10.7-4.3,16.2c-1.9,8.4,7,18,10.3,21.2
					c0.8,0.7,1.8,1,2.8,0.8c4.7-1,18.2-4.5,20.1-12.6C104.4,159.3,106,153.8,107.5,148.3z"/>
				<path class="st7" d="M81.4,177.6c-0.5-0.1-1-0.4-1.4-0.8c-3.8-3.6-12.3-13-10.4-21.3c0.8-3.6,1.9-7.3,2.8-10.8
					c0.5-1.8,1-3.6,1.5-5.4c0.4-1.4,1.8-2.3,3.1-1.9l9,2.4l0.8-3.2c0.3-1.2,1.6-2,2.8-1.6l6.4,1.7c1.2,0.3,2,1.6,1.6,2.8l-0.8,3.2
					l9,2.4c1.3,0.4,2.1,1.8,1.7,3.2c-0.5,1.8-1,3.7-1.5,5.5c-1,3.6-2,7.4-2.9,11.1c-1.9,8-14.8,11.6-20.3,12.7
					C82.5,177.8,81.9,177.7,81.4,177.6L81.4,177.6z M76.9,137.7c-1.1-0.3-2.3,0.5-2.7,1.7c-0.5,1.8-1,3.6-1.5,5.4
					c-1,3.5-2,7.2-2.8,10.8c-1.9,8.2,6.6,17.4,10.3,21c0.7,0.7,1.7,1,2.7,0.8c4.2-0.9,18-4.4,20-12.5c0.9-3.7,1.9-7.5,2.9-11.1
					c0.5-1.8,1-3.7,1.5-5.5c0.3-1.2-0.3-2.5-1.5-2.8l-9.4-2.5l0.9-3.5c0.3-1.1-0.3-2.1-1.4-2.4l-6.4-1.7c-1.1-0.3-2.1,0.3-2.4,1.4
					l-0.9,3.5L76.9,137.7z"/>
			</g>
			<g class="st8">
				<path class="st9" d="M82.9,170.4c-0.1,0.6,0.8,0.8,1.1,0.3c0.7-1.4,1.5-3.2,2.4-5.2c2.6-5.8,3.8-8.7,3.6-10.6
					c-0.3-2.4-2.7-3-4.2-1c-1.1,1.5-1.5,4.6-2.2,10.7C83.2,166.8,83,168.8,82.9,170.4L82.9,170.4z"/>
			</g>
			<g class="st8">
				<path class="st10" d="M102.8,147.2c-0.2-0.1-0.2-0.1-2.2-0.6c-2.1-0.5-3.7-0.9-4.9-1.2c0.3-0.6,0.5-1,0.6-1.4
					c0.2-0.6,0.1-1,0.4-1.1c0.3-0.2,0.7,0.1,1,0.3c0.9,0.4,1.9,0.6,2.9,0.9c3.4,1.1,4.8,0.4,6.2,1.8c0.2,0.2,0.9,0.9,0.9,1.9
					c0,0.6-0.2,1-0.4,1.5c-0.4,1-0.6,2.1-1,3.1c-0.6,1.9-1.1,4-1.8,6.9c-0.7,3.2-0.8,4.1-1.6,6.2c-1,2.4-1.9,3.5-2.1,3.8
					c-1.2,1.4-2.3,2.2-3.7,3.1c-2.3,1.5-4.6,2.3-9.1,3.9c-0.6,0.2-1.5,0.5-2.7,0.8c-0.7,0.2-2.1,0.5-2.9,0.6c-2.6,0.1-4.8-3-9.2-9.1
					c-0.1-0.1-0.9-1.3-1.7-3c-0.3-0.7-0.7-1.5-0.6-1.5c0.2-0.1,1.8,2.6,4.2,5.3c3,3.4,4.6,5.3,7.2,5.9c2.2,0.5,4.4-0.5,9-2.5
					c3.8-1.6,5.7-2.5,7.3-4.5c0.6-0.7,1.3-1.8,2.8-6.6C103.2,154.9,105,148.8,102.8,147.2L102.8,147.2z"/>
			</g>
			<g class="st8">
				<path class="st11" d="M116.7,37.6c-0.6,0.2-0.8,1.1-1.2,2.8c-0.4,1.7-0.3,2-0.1,2.2c0.3,0.4,1,0.6,1.5,0.3
					c0.3-0.1,0.5-0.4,0.9-1.9c0.5-1.8,0.7-2.7,0.4-3.1C117.7,37.5,117.1,37.4,116.7,37.6z"/>
			</g>
			<g class="st8">
				<path class="st11" d="M115.2,44.1c-0.4,0-0.4,0.3-0.5,0.8s0,0.6,0.1,0.7c0.3,0.2,0.7,0.3,1,0.3c0.2,0,0.3-0.1,0.4-0.5
					c0.2-0.5,0.2-0.8-0.1-1C115.9,44.2,115.4,44.1,115.2,44.1z"/>
			</g>
		</g>
		<g class="st8">
			<path class="st11" d="M88,137.3c-0.3,0.3-0.4,0.7-0.3,1.1c0.2,0.6,0.9,0.9,1.6,0.7s1-1,0.8-1.5C89.9,136.9,88.6,136.7,88,137.3
				L88,137.3z"/>
		</g>
		<g class="st8">
			<path class="st10" d="M91.8,135.8c0,0,0,0.1,1.3,0.6c2,0.9,2,0.9,2.3,1.1c1.6,1.2,0.8,3,0.8,3.1c-0.1,0.5-0.3,1-1.1,3.4
				c-0.4,1.2-0.6,1.8-0.4,1.9c0.1,0.1,0.5-0.2,0.6-0.3c0.5-0.4,0.7-0.9,0.8-1c0.6-1.5,1-3.6,1.3-5c0.2-1,0.3-1.4,0.1-1.9
				c-0.2-0.4-0.6-0.7-1.7-1.1C93.8,136,91.8,135.7,91.8,135.8L91.8,135.8z"/>
		</g>
		<g id="poignée">
			<path class="st7" d="M93.6,146.1l-6.4-1.7c-1.2-0.3-2-1.6-1.6-2.8l1.3-5c0.3-1.2,1.6-2,2.8-1.6l6.4,1.7c1.2,0.3,2,1.6,1.6,2.8
				l-1.3,5C96.1,145.7,94.9,146.5,93.6,146.1z M89.7,135.3c-1.1-0.3-2.1,0.3-2.4,1.4l-1.3,5c-0.3,1.1,0.3,2.1,1.4,2.4l6.4,1.7
				c1.1,0.3,2.1-0.3,2.4-1.4l1.3-5c0.3-1.1-0.3-2.1-1.4-2.4L89.7,135.3z"/>
		</g>
		<g class="st8">
			<path class="st11" d="M75.6,146.3c-1,0.2-1.3,1.6-2.8,7.1c-0.7,2.6-1.2,4.3-0.4,4.8c0,0,0.3,0.2,0.6,0.2c0.9-0.1,1.3-2,2-4.4
				c1.4-4.9,2.5-6.7,1.7-7.5C76.3,146.1,75.6,146.2,75.6,146.3z"/>
		</g>
		<g class="st8">
			<path class="st11" d="M76,141.8c-0.3,0.4-0.5,1-0.4,1.6c0.2,0.8,1.1,1.3,1.9,1c0.9-0.3,1.3-1.5,1.1-2.2
				C78.4,141.2,76.8,141,76,141.8L76,141.8z"/>
		</g>
	</g>
</g>
</svg>
