<?xml version="1.0" encoding="UTF-8"?>
<svg xmlns="http://www.w3.org/2000/svg" viewBox="0 0 500 500">
  <defs>
    <style>
      .cls-1 {
        fill: #f39826;
      }

      .cls-1, .cls-2, .cls-3, .cls-4, .cls-5, .cls-6, .cls-7 {
        stroke-width: 0px;
      }

      .cls-2 {
        fill: #e77819;
      }

      .cls-3 {
        fill: #79ae44;
      }

      .cls-8 {
        opacity: .31;
      }

      .cls-9 {
        opacity: .5;
      }

      .cls-4 {
        fill: #cb664d;
      }

      .cls-10 {
        stroke-width: 2px;
      }

      .cls-10, .cls-11, .cls-12, .cls-13 {
        stroke-miterlimit: 10;
      }

      .cls-10, .cls-12, .cls-14, .cls-13 {
        fill: none;
      }

      .cls-10, .cls-14 {
        stroke: #d15915;
      }

      .cls-11, .cls-12, .cls-15 {
        stroke: #346929;
      }

      .cls-11, .cls-15 {
        fill: #3d7c31;
      }

      .cls-16 {
        opacity: .53;
      }

      .cls-5 {
        fill: #f7faf7;
      }

      .cls-15, .cls-14 {
        stroke-linecap: round;
        stroke-linejoin: round;
      }

      .cls-6 {
        opacity: .49;
      }

      .cls-6, .cls-7 {
        fill: #fff;
      }

      .cls-17 {
        opacity: .42;
      }

      .cls-13 {
        stroke: #f39826;
      }
    </style>
  </defs>
  <g id="border">
    <g>
      <rect class="cls-4" x="0" width="500" height="500" rx="15" ry="15"/>
      <rect class="cls-5" x="23.81" y="23.81" width="452.38" height="452.38" rx="10" ry="10"/>
    </g>
  </g>
  <g id="card-design">
    <g>
      <g>
        <g>
          <g>
            <g>
              <path class="cls-1" d="M121.53,238.5c-9.68,19.81,1.13,39.49,2.08,41.15,1.55,2.71,5.08,8.73,12.1,13.15,6.82,4.29,13.59,4.96,16.65,5.2,62.74,4.77,100.5-1.06,100.5-1.06,31.64-4.88,146.29-19.99,188.36-27.59,2.87-.52,10.26-1.93,11.34-6.04.6-2.28-.83-5.06-2.35-6.69-2.04-2.18-4.7-2.75-5.83-2.97-18.16-3.63-27.24-5.45-31.47-6.22-.86-.16-.05-.02-12.21-2.69,0,0-12.89-2.84-24.33-5.31-22.57-4.87-69.66-9.38-116.31-16.21-22.76-3.33-45.75-4.96-68.47-8.55-13.15-2.08-25.36-4.28-40.07.59-6.6,2.19-22.24,7.37-29.99,23.23Z"/>
              <path class="cls-13" d="M121.53,238.5c-9.68,19.81,1.13,39.49,2.08,41.15,1.55,2.71,5.08,8.73,12.1,13.15,6.82,4.29,13.59,4.96,16.65,5.2,62.74,4.77,100.5-1.06,100.5-1.06,31.64-4.88,146.29-19.99,188.36-27.59,2.87-.52,10.26-1.93,11.34-6.04.6-2.28-.83-5.06-2.35-6.69-2.04-2.18-4.7-2.75-5.83-2.97-18.16-3.63-27.24-5.45-31.47-6.22-.86-.16-.05-.02-12.21-2.69,0,0-12.89-2.84-24.33-5.31-22.57-4.87-69.66-9.38-116.31-16.21-22.76-3.33-45.75-4.96-68.47-8.55-13.15-2.08-25.36-4.28-40.07.59-6.6,2.19-22.24,7.37-29.99,23.23Z"/>
            </g>
            <g class="cls-17">
              <path class="cls-2" d="M120.95,274.48c1.52,3.78,3.33,8.17,7.5,12.54,1.51,1.58,6.74,6.72,19.23,10.24,11.45,3.22,20.88,2.79,24.16,2.65,38.12-1.64,31.81,1.75,63.57-.91,5.17-.43,18.64-2.16,45.57-5.61,22.13-2.84,33.49-4.3,48.13-6.5,12.08-1.82,12.2-1.98,38.12-6.03,20.73-3.23,31.09-4.85,32.09-4.95,14.67-1.46,28.97-5.81,43.66-7.09,1.77-.15,6.85-.55,8.74-3.89,1.25-2.21.58-4.78.51-5.02-.59-2.12-2.13-3.58-3.94-4.76-5.23-3.39-10.33-2.97-19.13-4.5-4.58-.8-2.83-.85-15.06-3.66-6.05-1.39-10.63-2.33-13.42-2.9-18.47-3.78-39.68-7.19-40.88-7.38-4.57-.73-19.57-3.11-43.03-6.27-21.61-2.91-23.78-2.89-53.71-6.75-23.23-2.99-34.84-4.49-39.19-5.17-16.71-2.62-28.15-4.96-46.16-5.77-11.82-.53-18.58-.04-25.96,2.1-4.88,1.41-14.05,4.18-22.41,12.33-2.58,2.51-7.09,6.99-9.98,14.29-5.8,14.6-.31,28.29,1.59,33ZM155.5,274.2c-8.68-3.18-20.17-7.58-24.27-18.21-3.1-8.03-1.33-17.94,2.86-24.17,9.84-14.62,35.63-13.11,95.98-6.04,54.4,6.37,81.6,9.56,103.68,12.8,96.8,14.19,103.52,17.87,103.41,19.76-.17,2.62-13.67,2.79-95.59,11.84-8.34.92-6.48.73-10.74,1.19-65.8,7.17-55.82,3.45-133.37,8-8.25.48-23.95,1.44-41.97-5.17Z"/>
            </g>
            <g class="cls-8">
              <path class="cls-7" d="M240.68,235.3c.88,2.15-.47,5.06-2.03,6.7-5.09,5.34-14.92-.3-35.69-3.4-19.33-2.89-30.03-4.48-37.98.55-.7.44-5.67,3.66-12.64,4.58-2.56.34-6.11.76-7.81-1.21-2.32-2.68.14-8.2.26-8.47,6.4-13.98,47.02-3.44,84.32-2.57,2.75.06,10.07.18,11.57,3.82Z"/>
              <path class="cls-7" d="M261.16,237.77c1.01,1.42.36,3.92-.9,5.32-2.74,3.04-9.88,2.47-11.84-1.27-.92-1.75-.82-4.42.58-5.67.88-.79,3.27-.45,8.01.27,2.96.45,3.67.67,4.15,1.34Z"/>
            </g>
            <path class="cls-10" d="M121.53,238.5c-9.68,19.81,1.13,39.49,2.08,41.15,1.55,2.71,5.08,8.73,12.1,13.15,6.82,4.29,13.59,4.96,16.65,5.2,62.74,4.77,100.5-1.06,100.5-1.06,31.64-4.88,146.29-19.99,188.36-27.59,2.87-.52,10.26-1.93,11.34-6.04.6-2.28-.83-5.06-2.35-6.69-2.04-2.18-4.7-2.75-5.83-2.97-18.16-3.63-27.24-5.45-31.47-6.22-.86-.16-.05-.02-12.21-2.69,0,0-12.89-2.84-24.33-5.31-22.57-4.87-69.66-9.38-116.31-16.21-22.76-3.33-45.75-4.96-68.47-8.55-13.15-2.08-25.36-4.28-40.07.59-6.6,2.19-22.24,7.37-29.99,23.23Z"/>
            <g class="cls-17">
              <path class="cls-2" d="M120.95,274.48c1.52,3.78,3.33,8.17,7.5,12.54,1.51,1.58,6.74,6.72,19.23,10.24,11.45,3.22,20.88,2.79,24.16,2.65,38.12-1.64,31.81,1.75,63.57-.91,5.17-.43,18.64-2.16,45.57-5.61,22.13-2.84,33.49-4.3,48.13-6.5,12.08-1.82,12.2-1.98,38.12-6.03,20.73-3.23,31.09-4.85,32.09-4.95,14.67-1.46,28.97-5.81,43.66-7.09,1.77-.15,6.85-.55,8.74-3.89,1.25-2.21.58-4.78.51-5.02-.59-2.12-2.13-3.58-3.94-4.76-5.23-3.39-10.33-2.97-19.13-4.5-4.58-.8-2.83-.85-15.06-3.66-6.05-1.39-10.63-2.33-13.42-2.9-18.47-3.78-39.68-7.19-40.88-7.38-4.57-.73-19.57-3.11-43.03-6.27-21.61-2.91-23.78-2.89-53.71-6.75-23.23-2.99-34.84-4.49-39.19-5.17-16.71-2.62-28.15-4.96-46.16-5.77-11.82-.53-18.58-.04-25.96,2.1-4.88,1.41-14.05,4.18-22.41,12.33-2.58,2.51-7.09,6.99-9.98,14.29-5.8,14.6-.31,28.29,1.59,33ZM137.61,277.44c-2.6-3.11-7.9-10.78-8.91-21.54-1-10.59,2.56-19.77,5.4-24.09,10.32-15.73,40.92-12.49,95.98-6.04,54.4,6.37,81.6,9.56,103.68,12.8,92.61,13.58,103.37,16.23,103.41,19.76.04,3.75-12.06,6.29-97.49,19.98-12.83,2.06-10.65,1.69-146.55,12.12-13.77,1.06-41.97,3.22-55.52-12.99Z"/>
            </g>
          </g>
          <g class="cls-9">
            <path class="cls-14" d="M150.84,217.55c-1.62,2.82-3.73,7.27-4.77,13.08-1.21,6.74-.45,12.34.27,15.72"/>
            <path class="cls-14" d="M132.81,258.09c-.49,1.62-.94,3.56-1.22,5.75-.21,1.65-.29,3.18-.29,4.53"/>
            <path class="cls-14" d="M144.66,275.5c-.75,3.21-1.43,8.08-.44,13.81.44,2.51,1.11,4.7,1.82,6.52"/>
            <path class="cls-14" d="M164.93,272.4c-.27-1.02-.51-2.33-.55-3.86-.05-2.16.33-3.95.7-5.19"/>
            <path class="cls-14" d="M184.51,215.76c-1.31,2.53-2.84,6.14-3.76,10.68-.88,4.3-.92,8.04-.74,10.8"/>
            <path class="cls-14" d="M191,261.78c-.3.37-1.05,1.43-1.09,2.94-.03.9.21,1.61.39,2.04"/>
            <path class="cls-14" d="M217.38,278.64c-.39,2.57-.66,6.06-.16,10.14.39,3.21,1.15,5.91,1.9,8.02"/>
            <path class="cls-14" d="M222.93,220.93c-.75,1.72-1.54,3.95-2.06,6.64-.45,2.35-.58,4.45-.56,6.16"/>
            <path class="cls-14" d="M248.63,226.28c-.81,2.55-1.58,5.73-1.97,9.44-.31,2.91-.32,5.53-.19,7.76"/>
            <path class="cls-14" d="M245.61,254.17c-.18,1.29-.32,2.74-.37,4.31-.05,1.53,0,2.94.1,4.21"/>
            <path class="cls-14" d="M279.29,263.26c-.16,3.01-.25,5.61-.3,7.66-.24,9.05.09,11.89,1.74,14.6.81,1.33,1.72,2.26,2.35,2.84"/>
            <path class="cls-14" d="M286.65,229.2c-.91.84-2.22,2.25-3.21,4.3-.48,1-.96,2.31-1.35,5-.32,2.19-.59,5.39-.25,9.38"/>
            <path class="cls-14" d="M308.78,247.91c-.48,6.33-1.24,9.57-1.91,11.37-.11.29-.31.79-.38,1.52-.25,2.34,1.11,3.77,2.02,6.08.44,1.12.91,2.78.91,5.04"/>
            <path class="cls-14" d="M342.94,237.59c-2.56,3.49-3.05,6.29-2.98,8.28.1,2.6,1.16,3.9.64,6.88-.41,2.33-1.27,2.75-1.58,4.79-.28,1.87.07,4.1,1.61,6.74"/>
            <path class="cls-14" d="M340.55,275.48c.04.93.2,2.21.76,3.64.31.81.68,1.48,1.03,2.02"/>
            <path class="cls-14" d="M365.1,240.03c-.43,1.23-.82,2.53-1.17,3.92-1.52,6.04-1.62,11.55-1.23,15.99"/>
            <path class="cls-14" d="M402.54,248.46c-1.66,4.68-1.52,8.15-1.08,10.49.39,2.05,1.17,3.96,1.19,7.18.01,2.16-.32,3.93-.6,5.08"/>
            <path class="cls-14" d="M435.08,255.43c.24.39,1.08,1.88.77,3.86-.34,2.16-1.82,3.37-2.15,3.62"/>
            <path class="cls-14" d="M410.92,265.12c.62,1.24.53,2,.42,2.39-.01.04-.02.07-.02.07-.25.78-.78,1.26-1.25,1.55"/>
          </g>
        </g>
        <path class="cls-11" d="M35.79,245.34l.03,6.78c0,1.25,1.1,2.21,2.34,2.05s2.68-.41,3.91-.85c12.45-4.48,26.43-.46,33.94,1.7,2.22.64,2.55.87,4.52,1.32,5.82,1.35,16.04,2.4,17.73-1.09,1.31-2.7-2.9-7.23-3.27-7.62-5.71-6.04-12.93-4.79-34.29-5.97-11.89-.66-19.72.62-23.06,1.36-1.08.24-1.85,1.2-1.84,2.31Z"/>
        <g class="cls-16">
          <path class="cls-3" d="M35.79,245.34l.03,6.78c9.29-3.5,17.06-4.87,22.4-5.48,17.69-2,36.75,1.19,36.76,1.01,0,0,0,0,0,0-5.71-6.04-12.93-4.79-34.29-5.97-11.89-.66-19.72.62-23.06,1.36-1.08.24-1.85,1.2-1.84,2.31Z"/>
        </g>
        <path class="cls-12" d="M35.79,245.34l.03,6.78c0,1.25,1.1,2.21,2.34,2.05s2.68-.41,3.91-.85c12.45-4.48,26.43-.46,33.94,1.7,2.22.64,2.55.87,4.52,1.32,5.82,1.35,16.04,2.4,17.73-1.09,1.31-2.7-2.9-7.23-3.27-7.62-5.71-6.04-12.93-4.79-34.29-5.97-11.89-.66-19.72.62-23.06,1.36-1.08.24-1.85,1.2-1.84,2.31Z"/>
        <path class="cls-11" d="M118.11,263.83c4.89-2.54,5.8-14.13,1.61-16.89-1.66-1.1-4.72-.36-10.82,1.12-2.55.62-4.14,1.16-6.14,1.75-3.56,1.04-9.88,2.9-14.8,3.96-1.52.33-7.2,1.5-14.49,1.74-10.67.36-15.65-1.58-26.01.53-.52.11-.99.21-1.42.31-.83.19-1.45.86-1.59,1.69l-.36,2.14c-.05.29-.03.59.04.88.24.93.65,1.74,1.36,2.04.62.25,1.25.02,1.4-.03,2.92-.97,24.19-.07,30.25.19,12.86.55,19.29.82,24.88,1.55,0,0,4.57.6,13.78-.43.71-.08,1.46-.11,2.29-.55Z"/>
        <g class="cls-16">
          <path class="cls-3" d="M102.76,249.8c-3.56,1.04-9.88,2.9-14.8,3.96-1.52.33-7.2,1.5-14.49,1.74-10.67.36-15.65-1.58-26.01.53-.52.11-.99.21-1.42.31-.83.19-1.45.86-1.59,1.69l-.36,2.14c3.96-.96,8.98-1.93,14.84-2.45,16.35-1.43,21.4,2.25,31.57-1.78,4.77-1.89,12.32-6.14,12.3-6.16,0,0-.04.02-.05.02Z"/>
        </g>
        <path class="cls-12" d="M118.11,263.83c4.89-2.54,5.8-14.13,1.61-16.89-1.66-1.1-4.72-.36-10.82,1.12-2.55.62-4.14,1.16-6.14,1.75-3.56,1.04-9.88,2.9-14.8,3.96-1.52.33-7.2,1.5-14.49,1.74-10.67.36-15.65-1.58-26.01.53-.52.11-.99.21-1.42.31-.83.19-1.45.86-1.59,1.69l-.36,2.14c-.05.29-.03.59.04.88.24.93.65,1.74,1.36,2.04.62.25,1.25.02,1.4-.03,2.92-.97,24.19-.07,30.25.19,12.86.55,19.29.82,24.88,1.55,0,0,4.57.6,13.78-.43.71-.08,1.46-.11,2.29-.55Z"/>
        <path class="cls-11" d="M120.39,245.89c3.3,1.33,3.76,14.28-1.32,17.42-.85.53-3.46,1.76-18.21-5.98-9.5-4.99-8.95-5.78-14.07-8.21-16.63-7.9-25.17-8.99-37.25-12.69-1.23-.38-2.03-1.57-1.9-2.86l.39-3.93c.5-1.02,1.18-1.94,2.08-2.05.66-.08,1.21.3,1.35.39,3.78,2.49,58.64,20.29,67.71,17.87.13-.03.66-.18,1.21.04Z"/>
        <g class="cls-16">
          <path class="cls-3" d="M120.5,250.22c.32,2.31-1.66,4.44-2.43,5.09-5.19,4.36-19.13-5.31-33.66-11.78-8.46-3.77-20.64-8.02-36.76-9.96.13-1.31.26-2.62.39-3.93.5-1.02,1.18-1.94,2.08-2.05.66-.08,1.21.3,1.35.39,3.54,2.33,51.95,18.11,65.48,18.09,1.79,0,3.28,2.24,3.55,4.15Z"/>
        </g>
        <path class="cls-12" d="M120.39,245.89c3.3,1.33,3.76,14.28-1.32,17.42-.85.53-3.46,1.76-18.21-5.98-9.5-4.99-8.95-5.78-14.07-8.21-16.63-7.9-25.17-8.99-37.25-12.69-1.23-.38-2.03-1.57-1.9-2.86l.39-3.93c.5-1.02,1.18-1.94,2.08-2.05.66-.08,1.21.3,1.35.39,3.78,2.49,58.64,20.29,67.71,17.87.13-.03.66-.18,1.21.04Z"/>
        <path class="cls-15" d="M122.33,255.45c.5-3.24-.38-5.89-.59-6.46-.5-1.43-1.17-2.52-1.68-3.25.06,0,.15-.01.25-.02,0,0,.33-.02.65.02.38.04,3.73,3.5,3.29,8.79-.42,4.96-4.05,10.04-6.68,9.73-.19-.02-.35-.07-.47-.11.92-.72,4.46-3.69,5.24-8.7Z"/>
        <path class="cls-6" d="M38.29,245.19c.2-1.2,3.49-1.4,10.66-1.97,7.4-.59,10.78-.92,11.12.17.05.17.01.32,0,.38-.43,1.46-4.97.57-11.08,1.11-5.85.52-9.99,2.07-10.62.75-.03-.06-.1-.23-.07-.44Z"/>
        <path class="cls-6" d="M50.44,229.28s-.21.19-.15.66c.16,1.4,11.8,4.39,13.16,4.75,12.2,3.17,20.41,8.13,21.32,6.56.07-.11.07-.22.07-.29.05-1.58-5.48-2.43-11.49-4.37-2.27-.73-19.58-6.44-21.68-7.25-.21-.08-.92-.36-1.23-.06Z"/>
        <path class="cls-6" d="M64.45,256.37c-.08-.82-6.85-.46-12.03-.17-2.97.16-5.62.38-6.27,1.79-.06.12-.18.41-.06.61.4.66,2.79-.67,6-1.3,3.39-.66,9.11-.8,10.61-.45.19.04.95.25,1.47-.15.1-.08.28-.21.27-.33Z"/>
      </g>
      <g>
        <g>
          <g>
            <g>
              <path class="cls-1" d="M133.05,277.38c-9.68,19.81,1.13,39.49,2.08,41.15,1.55,2.71,5.08,8.73,12.1,13.15,6.82,4.29,13.59,4.96,16.65,5.2,62.74,4.77,100.5-1.06,100.5-1.06,31.64-4.88,146.29-19.99,188.36-27.59,2.87-.52,10.26-1.93,11.34-6.04.6-2.28-.83-5.06-2.35-6.69-2.04-2.18-4.7-2.75-5.83-2.97-18.16-3.63-27.24-5.45-31.47-6.22-.86-.16-.05-.02-12.21-2.69,0,0-12.89-2.84-24.33-5.31-22.57-4.87-69.66-9.38-116.31-16.21-22.76-3.33-45.75-4.96-68.47-8.55-13.15-2.08-25.36-4.28-40.07.59-6.6,2.19-22.24,7.37-29.99,23.23Z"/>
              <path class="cls-13" d="M133.05,277.38c-9.68,19.81,1.13,39.49,2.08,41.15,1.55,2.71,5.08,8.73,12.1,13.15,6.82,4.29,13.59,4.96,16.65,5.2,62.74,4.77,100.5-1.06,100.5-1.06,31.64-4.88,146.29-19.99,188.36-27.59,2.87-.52,10.26-1.93,11.34-6.04.6-2.28-.83-5.06-2.35-6.69-2.04-2.18-4.7-2.75-5.83-2.97-18.16-3.63-27.24-5.45-31.47-6.22-.86-.16-.05-.02-12.21-2.69,0,0-12.89-2.84-24.33-5.31-22.57-4.87-69.66-9.38-116.31-16.21-22.76-3.33-45.75-4.96-68.47-8.55-13.15-2.08-25.36-4.28-40.07.59-6.6,2.19-22.24,7.37-29.99,23.23Z"/>
            </g>
            <g class="cls-17">
              <path class="cls-2" d="M132.46,313.36c1.52,3.78,3.33,8.17,7.5,12.54,1.51,1.58,6.74,6.72,19.23,10.24,11.45,3.22,20.88,2.79,24.16,2.65,38.12-1.64,31.81,1.75,63.57-.91,5.17-.43,18.64-2.16,45.57-5.61,22.13-2.84,33.49-4.3,48.13-6.5,12.08-1.82,12.2-1.98,38.12-6.03,20.73-3.23,31.09-4.85,32.09-4.95,14.67-1.46,28.97-5.81,43.66-7.09,1.77-.15,6.85-.55,8.74-3.89,1.25-2.21.58-4.78.51-5.02-.59-2.12-2.13-3.58-3.94-4.76-5.23-3.39-10.33-2.97-19.13-4.5-4.58-.8-2.83-.85-15.06-3.66-6.05-1.39-10.63-2.33-13.42-2.9-18.47-3.78-39.68-7.19-40.88-7.38-4.57-.73-19.57-3.11-43.03-6.27-21.61-2.91-23.78-2.89-53.71-6.75-23.23-2.99-34.84-4.49-39.19-5.17-16.71-2.62-28.15-4.96-46.16-5.77-11.82-.53-18.58-.04-25.96,2.1-4.88,1.41-14.05,4.18-22.41,12.33-2.58,2.51-7.09,6.99-9.98,14.29-5.8,14.6-.31,28.29,1.59,33ZM167.02,313.07c-8.68-3.18-20.17-7.58-24.27-18.21-3.1-8.03-1.33-17.94,2.86-24.17,9.84-14.62,35.63-13.11,95.98-6.04,54.4,6.37,81.6,9.56,103.68,12.8,96.8,14.19,103.52,17.87,103.41,19.76-.17,2.62-13.67,2.79-95.59,11.84-8.34.92-6.48.73-10.74,1.19-65.8,7.17-55.82,3.45-133.37,8-8.25.48-23.95,1.44-41.97-5.17Z"/>
            </g>
            <g class="cls-8">
              <path class="cls-7" d="M252.2,274.18c.88,2.15-.47,5.06-2.03,6.7-5.09,5.34-14.92-.3-35.69-3.4-19.33-2.89-30.03-4.48-37.98.55-.7.44-5.67,3.66-12.64,4.58-2.56.34-6.11.76-7.81-1.21-2.32-2.68.14-8.2.26-8.47,6.4-13.98,47.02-3.44,84.32-2.57,2.75.06,10.07.18,11.57,3.82Z"/>
              <path class="cls-7" d="M272.68,276.65c1.01,1.42.36,3.92-.9,5.32-2.74,3.04-9.88,2.47-11.84-1.27-.92-1.75-.82-4.42.58-5.67.88-.79,3.27-.45,8.01.27,2.96.45,3.67.67,4.15,1.34Z"/>
            </g>
            <path class="cls-10" d="M133.05,277.38c-9.68,19.81,1.13,39.49,2.08,41.15,1.55,2.71,5.08,8.73,12.1,13.15,6.82,4.29,13.59,4.96,16.65,5.2,62.74,4.77,100.5-1.06,100.5-1.06,31.64-4.88,146.29-19.99,188.36-27.59,2.87-.52,10.26-1.93,11.34-6.04.6-2.28-.83-5.06-2.35-6.69-2.04-2.18-4.7-2.75-5.83-2.97-18.16-3.63-27.24-5.45-31.47-6.22-.86-.16-.05-.02-12.21-2.69,0,0-12.89-2.84-24.33-5.31-22.57-4.87-69.66-9.38-116.31-16.21-22.76-3.33-45.75-4.96-68.47-8.55-13.15-2.08-25.36-4.28-40.07.59-6.6,2.19-22.24,7.37-29.99,23.23Z"/>
            <g class="cls-17">
              <path class="cls-2" d="M132.46,313.36c1.52,3.78,3.33,8.17,7.5,12.54,1.51,1.58,6.74,6.72,19.23,10.24,11.45,3.22,20.88,2.79,24.16,2.65,38.12-1.64,31.81,1.75,63.57-.91,5.17-.43,18.64-2.16,45.57-5.61,22.13-2.84,33.49-4.3,48.13-6.5,12.08-1.82,12.2-1.98,38.12-6.03,20.73-3.23,31.09-4.85,32.09-4.95,14.67-1.46,28.97-5.81,43.66-7.09,1.77-.15,6.85-.55,8.74-3.89,1.25-2.21.58-4.78.51-5.02-.59-2.12-2.13-3.58-3.94-4.76-5.23-3.39-10.33-2.97-19.13-4.5-4.58-.8-2.83-.85-15.06-3.66-6.05-1.39-10.63-2.33-13.42-2.9-18.47-3.78-39.68-7.19-40.88-7.38-4.57-.73-19.57-3.11-43.03-6.27-21.61-2.91-23.78-2.89-53.71-6.75-23.23-2.99-34.84-4.49-39.19-5.17-16.71-2.62-28.15-4.96-46.16-5.77-11.82-.53-18.58-.04-25.96,2.1-4.88,1.41-14.05,4.18-22.41,12.33-2.58,2.51-7.09,6.99-9.98,14.29-5.8,14.6-.31,28.29,1.59,33ZM149.12,316.32c-2.6-3.11-7.9-10.78-8.91-21.54-1-10.59,2.56-19.77,5.4-24.09,10.32-15.73,40.92-12.49,95.98-6.04,54.4,6.37,81.6,9.56,103.68,12.8,92.61,13.58,103.37,16.23,103.41,19.76.04,3.75-12.06,6.29-97.49,19.98-12.83,2.06-10.65,1.69-146.55,12.12-13.77,1.06-41.97,3.22-55.52-12.99Z"/>
            </g>
          </g>
          <g class="cls-9">
            <path class="cls-14" d="M162.36,256.43c-1.62,2.82-3.73,7.27-4.77,13.08-1.21,6.74-.45,12.34.27,15.72"/>
            <path class="cls-14" d="M144.32,296.96c-.49,1.62-.94,3.56-1.22,5.75-.21,1.65-.29,3.18-.29,4.53"/>
            <path class="cls-14" d="M156.17,314.38c-.75,3.21-1.43,8.08-.44,13.81.44,2.51,1.11,4.7,1.82,6.52"/>
            <path class="cls-14" d="M176.44,311.27c-.27-1.02-.51-2.33-.55-3.86-.05-2.16.33-3.95.7-5.19"/>
            <path class="cls-14" d="M196.03,254.64c-1.31,2.53-2.84,6.14-3.76,10.68-.88,4.3-.92,8.04-.74,10.8"/>
            <path class="cls-14" d="M202.51,300.66c-.3.37-1.05,1.43-1.09,2.94-.03.9.21,1.61.39,2.04"/>
            <path class="cls-14" d="M228.9,317.52c-.39,2.57-.66,6.06-.16,10.14.39,3.21,1.15,5.91,1.9,8.02"/>
            <path class="cls-14" d="M234.44,259.81c-.75,1.72-1.54,3.95-2.06,6.64-.45,2.35-.58,4.45-.56,6.16"/>
            <path class="cls-14" d="M260.14,265.15c-.81,2.55-1.58,5.73-1.97,9.44-.31,2.91-.32,5.53-.19,7.76"/>
            <path class="cls-14" d="M257.12,293.05c-.18,1.29-.32,2.74-.37,4.31-.05,1.53,0,2.94.1,4.21"/>
            <path class="cls-14" d="M290.81,302.13c-.16,3.01-.25,5.61-.3,7.66-.24,9.05.09,11.89,1.74,14.6.81,1.33,1.72,2.26,2.35,2.84"/>
            <path class="cls-14" d="M298.16,268.07c-.91.84-2.22,2.25-3.21,4.3-.48,1-.96,2.31-1.35,5-.32,2.19-.59,5.39-.25,9.38"/>
            <path class="cls-14" d="M320.29,286.78c-.48,6.33-1.24,9.57-1.91,11.37-.11.29-.31.79-.38,1.52-.25,2.34,1.11,3.77,2.02,6.08.44,1.12.91,2.78.91,5.04"/>
            <path class="cls-14" d="M354.45,276.46c-2.56,3.49-3.05,6.29-2.98,8.28.1,2.6,1.16,3.9.64,6.88-.41,2.33-1.27,2.75-1.58,4.79-.28,1.87.07,4.1,1.61,6.74"/>
            <path class="cls-14" d="M352.07,314.36c.04.93.2,2.21.76,3.64.31.81.68,1.48,1.03,2.02"/>
            <path class="cls-14" d="M376.62,278.9c-.43,1.23-.82,2.53-1.17,3.92-1.52,6.04-1.62,11.55-1.23,15.99"/>
            <path class="cls-14" d="M414.05,287.34c-1.66,4.68-1.52,8.15-1.08,10.49.39,2.05,1.17,3.96,1.19,7.18.01,2.16-.32,3.93-.6,5.08"/>
            <path class="cls-14" d="M446.59,294.3c.24.39,1.08,1.88.77,3.86-.34,2.16-1.82,3.37-2.15,3.62"/>
            <path class="cls-14" d="M422.43,303.99c.62,1.24.53,2,.42,2.39-.01.04-.02.07-.02.07-.25.78-.78,1.26-1.25,1.55"/>
          </g>
        </g>
        <path class="cls-11" d="M47.31,284.22l.03,6.78c0,1.25,1.1,2.21,2.34,2.05s2.68-.41,3.91-.85c12.45-4.48,26.43-.46,33.94,1.7,2.22.64,2.55.87,4.52,1.32,5.82,1.35,16.04,2.4,17.73-1.09,1.31-2.7-2.9-7.23-3.27-7.62-5.71-6.04-12.93-4.79-34.29-5.97-11.89-.66-19.72.62-23.06,1.36-1.08.24-1.85,1.2-1.84,2.31Z"/>
        <g class="cls-16">
          <path class="cls-3" d="M47.31,284.22l.03,6.78c9.29-3.5,17.06-4.87,22.4-5.48,17.69-2,36.75,1.19,36.76,1.01,0,0,0,0,0,0-5.71-6.04-12.93-4.79-34.29-5.97-11.89-.66-19.72.62-23.06,1.36-1.08.24-1.85,1.2-1.84,2.31Z"/>
        </g>
        <path class="cls-12" d="M47.31,284.22l.03,6.78c0,1.25,1.1,2.21,2.34,2.05s2.68-.41,3.91-.85c12.45-4.48,26.43-.46,33.94,1.7,2.22.64,2.55.87,4.52,1.32,5.82,1.35,16.04,2.4,17.73-1.09,1.31-2.7-2.9-7.23-3.27-7.62-5.71-6.04-12.93-4.79-34.29-5.97-11.89-.66-19.72.62-23.06,1.36-1.08.24-1.85,1.2-1.84,2.31Z"/>
        <path class="cls-11" d="M129.62,302.71c4.89-2.54,5.8-14.13,1.61-16.89-1.66-1.1-4.72-.36-10.82,1.12-2.55.62-4.14,1.16-6.14,1.75-3.56,1.04-9.88,2.9-14.8,3.96-1.52.33-7.2,1.5-14.49,1.74-10.67.36-15.65-1.58-26.01.53-.52.11-.99.21-1.42.31-.83.19-1.45.86-1.59,1.69l-.36,2.14c-.05.29-.03.59.04.88.24.93.65,1.74,1.36,2.04.62.25,1.25.02,1.4-.03,2.92-.97,24.19-.07,30.25.19,12.86.55,19.29.82,24.88,1.55,0,0,4.57.6,13.78-.43.71-.08,1.46-.11,2.29-.55Z"/>
        <g class="cls-16">
          <path class="cls-3" d="M114.27,288.68c-3.56,1.04-9.88,2.9-14.8,3.96-1.52.33-7.2,1.5-14.49,1.74-10.67.36-15.65-1.58-26.01.53-.52.11-.99.21-1.42.31-.83.19-1.45.86-1.59,1.69l-.36,2.14c3.96-.96,8.98-1.93,14.84-2.45,16.35-1.43,21.4,2.25,31.57-1.78,4.77-1.89,12.32-6.14,12.3-6.16,0,0-.04.02-.05.02Z"/>
        </g>
        <path class="cls-12" d="M129.62,302.71c4.89-2.54,5.8-14.13,1.61-16.89-1.66-1.1-4.72-.36-10.82,1.12-2.55.62-4.14,1.16-6.14,1.75-3.56,1.04-9.88,2.9-14.8,3.96-1.52.33-7.2,1.5-14.49,1.74-10.67.36-15.65-1.58-26.01.53-.52.11-.99.21-1.42.31-.83.19-1.45.86-1.59,1.69l-.36,2.14c-.05.29-.03.59.04.88.24.93.65,1.74,1.36,2.04.62.25,1.25.02,1.4-.03,2.92-.97,24.19-.07,30.25.19,12.86.55,19.29.82,24.88,1.55,0,0,4.57.6,13.78-.43.71-.08,1.46-.11,2.29-.55Z"/>
        <path class="cls-11" d="M131.9,284.77c3.3,1.33,3.76,14.28-1.32,17.42-.85.53-3.46,1.76-18.21-5.98-9.5-4.99-8.95-5.78-14.07-8.21-16.63-7.9-25.17-8.99-37.25-12.69-1.23-.38-2.03-1.57-1.9-2.86l.39-3.93c.5-1.02,1.18-1.94,2.08-2.05.66-.08,1.21.3,1.35.39,3.78,2.49,58.64,20.29,67.71,17.87.13-.03.66-.18,1.21.04Z"/>
        <g class="cls-16">
          <path class="cls-3" d="M132.01,289.1c.32,2.31-1.66,4.44-2.43,5.09-5.19,4.36-19.13-5.31-33.66-11.78-8.46-3.77-20.64-8.02-36.76-9.96.13-1.31.26-2.62.39-3.93.5-1.02,1.18-1.94,2.08-2.05.66-.08,1.21.3,1.35.39,3.54,2.33,51.95,18.11,65.48,18.09,1.79,0,3.28,2.24,3.55,4.15Z"/>
        </g>
        <path class="cls-12" d="M131.9,284.77c3.3,1.33,3.76,14.28-1.32,17.42-.85.53-3.46,1.76-18.21-5.98-9.5-4.99-8.95-5.78-14.07-8.21-16.63-7.9-25.17-8.99-37.25-12.69-1.23-.38-2.03-1.57-1.9-2.86l.39-3.93c.5-1.02,1.18-1.94,2.08-2.05.66-.08,1.21.3,1.35.39,3.78,2.49,58.64,20.29,67.71,17.87.13-.03.66-.18,1.21.04Z"/>
        <path class="cls-15" d="M133.84,294.32c.5-3.24-.38-5.89-.59-6.46-.5-1.43-1.17-2.52-1.68-3.25.06,0,.15-.01.25-.02,0,0,.33-.02.65.02.38.04,3.73,3.5,3.29,8.79-.42,4.96-4.05,10.04-6.68,9.73-.19-.02-.35-.07-.47-.11.92-.72,4.46-3.69,5.24-8.7Z"/>
        <path class="cls-6" d="M49.8,284.07c.2-1.2,3.49-1.4,10.66-1.97,7.4-.59,10.78-.92,11.12.17.05.17.01.32,0,.38-.43,1.46-4.97.57-11.08,1.11-5.85.52-9.99,2.07-10.62.75-.03-.06-.1-.23-.07-.44Z"/>
        <path class="cls-6" d="M61.95,268.16s-.21.19-.15.66c.16,1.4,11.8,4.39,13.16,4.75,12.2,3.17,20.41,8.13,21.32,6.56.07-.11.07-.22.07-.29.05-1.58-5.48-2.43-11.49-4.37-2.27-.73-19.58-6.44-21.68-7.25-.21-.08-.92-.36-1.23-.06Z"/>
        <path class="cls-6" d="M75.96,295.24c-.08-.82-6.85-.46-12.03-.17-2.97.16-5.62.38-6.27,1.79-.06.12-.18.41-.06.61.4.66,2.79-.67,6-1.3,3.39-.66,9.11-.8,10.61-.45.19.04.95.25,1.47-.15.1-.08.28-.21.27-.33Z"/>
      </g>
      <g>
        <g>
          <g>
            <g>
              <path class="cls-1" d="M371.6,167.2c19.51,10.27,22.4,32.53,22.62,34.44.35,3.1,1.06,10.05-2,17.76-2.97,7.49-8.04,12.03-10.37,14.02-47.82,40.89-81.73,58.49-81.73,58.49-28.42,14.74-129.87,70.24-168.31,88.96-2.62,1.28-9.42,4.5-12.71,1.82-1.83-1.48-2.32-4.57-2.05-6.79.36-2.96,2.17-4.99,2.95-5.84,12.51-13.65,18.77-20.48,21.72-23.6.6-.63.03-.05,8.26-9.38,0,0,8.73-9.91,16.5-18.65,15.34-17.26,50.68-48.71,84.3-81.75,16.4-16.12,34-31.01,50.21-47.33,9.38-9.44,17.94-18.43,32.68-23.18,6.62-2.13,22.3-7.18,37.92,1.04Z"/>
              <path class="cls-13" d="M371.6,167.2c19.51,10.27,22.4,32.53,22.62,34.44.35,3.1,1.06,10.05-2,17.76-2.97,7.49-8.04,12.03-10.37,14.02-47.82,40.89-81.73,58.49-81.73,58.49-28.42,14.74-129.87,70.24-168.31,88.96-2.62,1.28-9.42,4.5-12.71,1.82-1.83-1.48-2.32-4.57-2.05-6.79.36-2.96,2.17-4.99,2.95-5.84,12.51-13.65,18.77-20.48,21.72-23.6.6-.63.03-.05,8.26-9.38,0,0,8.73-9.91,16.5-18.65,15.34-17.26,50.68-48.71,84.3-81.75,16.4-16.12,34-31.01,50.21-47.33,9.38-9.44,17.94-18.43,32.68-23.18,6.62-2.13,22.3-7.18,37.92,1.04Z"/>
            </g>
            <g class="cls-17">
              <path class="cls-2" d="M375.11,168.32c-6.65-4.18-12.93-5.13-16.49-5.64-11.56-1.64-20.59,1.54-25.37,3.28-7.22,2.63-12.96,6.23-22.19,13.64-14.06,11.29-21.91,19.93-33.85,31.91-3.11,3.12-11.6,11.19-28.58,27.32-21.87,20.78-23.64,22.05-39.36,37.16-17.07,16.4-27.77,27.17-31.02,30.46-.85.86-15.95,16.14-28.63,30.1-1.92,2.11-5.06,5.57-9.12,10.27-8.22,9.49-6.78,8.5-10,11.85-6.19,6.43-10.57,9.1-12.78,14.93-.77,2.02-1.16,4.11-.38,6.17.09.23,1.06,2.7,3.38,3.75,3.49,1.58,7.83-1.11,9.35-2.03,12.61-7.64,26.72-12.58,39.42-20.06.86-.51,10.18-5.32,28.82-14.95,23.31-12.04,23.5-11.98,34.32-17.64,13.11-6.87,23.15-12.4,42.68-23.17,23.77-13.12,35.66-19.68,40.09-22.38,27.21-16.6,20.11-15.62,51.85-36.8,2.73-1.82,10.6-7.05,17.94-16.4,8.01-10.21,9.19-17.44,9.47-19.61.79-5.99-.34-10.6-1.35-14.55-1.26-4.92-4.91-19.21-18.21-27.57ZM334.44,245.02c-65.27,42.12-55.02,39.23-112.36,72.29-3.71,2.14-2.1,1.2-9.37,5.38-71.46,41.07-82.46,48.9-84.14,46.88-1.21-1.45,2.05-8.39,71.79-77,15.9-15.64,35.97-34.28,76.12-71.55,44.53-41.34,64.45-57.79,81.03-51.8,7.07,2.55,14.34,9.51,16.58,17.82,2.97,11-3.71,21.34-8.83,29.03-10.64,15.97-23.88,24.47-30.82,28.95Z"/>
            </g>
            <g class="cls-8">
              <path class="cls-7" d="M273.55,234.97c.56,2.26,3.37,3.81,5.59,4.21,7.26,1.3,11.87-9.06,26.79-23.82,13.89-13.74,21.59-21.35,30.98-21.98.83-.06,6.74-.39,12.91-3.77,2.27-1.24,5.38-2.99,5.59-5.59.29-3.53-4.95-6.53-5.21-6.68-13.42-7.5-39.98,24.98-69.57,47.72-2.18,1.67-8.02,6.1-7.08,9.91Z"/>
              <path class="cls-7" d="M258.48,249.06c.02,1.74,2.02,3.38,3.87,3.77,4.01.83,9.43-3.84,8.8-8.01-.29-1.95-1.95-4.05-3.81-4.23-1.17-.12-2.9,1.57-6.3,4.95-2.12,2.11-2.56,2.71-2.55,3.54Z"/>
            </g>
            <path class="cls-10" d="M371.6,167.2c19.51,10.27,22.4,32.53,22.62,34.44.35,3.1,1.06,10.05-2,17.76-2.97,7.49-8.04,12.03-10.37,14.02-47.82,40.89-81.73,58.49-81.73,58.49-28.42,14.74-129.87,70.24-168.31,88.96-2.62,1.28-9.42,4.5-12.71,1.82-1.83-1.48-2.32-4.57-2.05-6.79.36-2.96,2.17-4.99,2.95-5.84,12.51-13.65,18.77-20.48,21.72-23.6.6-.63.03-.05,8.26-9.38,0,0,8.73-9.91,16.5-18.65,15.34-17.26,50.68-48.71,84.3-81.75,16.4-16.12,34-31.01,50.21-47.33,9.38-9.44,17.94-18.43,32.68-23.18,6.62-2.13,22.3-7.18,37.92,1.04Z"/>
            <g class="cls-17">
              <path class="cls-2" d="M375.11,168.32c-6.65-4.18-12.93-5.13-16.49-5.64-11.56-1.64-20.59,1.54-25.37,3.28-7.22,2.63-12.96,6.23-22.19,13.64-14.06,11.29-21.91,19.93-33.85,31.91-3.11,3.12-11.6,11.19-28.58,27.32-21.87,20.78-23.64,22.05-39.36,37.16-17.07,16.4-27.77,27.17-31.02,30.46-.85.86-15.95,16.14-28.63,30.1-1.92,2.11-5.06,5.57-9.12,10.27-8.22,9.49-6.78,8.5-10,11.85-6.19,6.43-10.57,9.1-12.78,14.93-.77,2.02-1.16,4.11-.38,6.17.09.23,1.06,2.7,3.38,3.75,3.49,1.58,7.83-1.11,9.35-2.03,12.61-7.64,26.72-12.58,39.42-20.06.86-.51,10.18-5.32,28.82-14.95,23.31-12.04,23.5-11.98,34.32-17.64,13.11-6.87,23.15-12.4,42.68-23.17,23.77-13.12,35.66-19.68,40.09-22.38,27.21-16.6,20.11-15.62,51.85-36.8,2.73-1.82,10.6-7.05,17.94-16.4,8.01-10.21,9.19-17.44,9.47-19.61.79-5.99-.34-10.6-1.35-14.55-1.26-4.92-4.91-19.21-18.21-27.57ZM344.49,251.39c-115.84,71.82-113.86,70.83-125.43,76.74-77.03,39.4-88.3,44.49-90.48,41.44-2.05-2.87,5.07-11.36,71.79-77,15.9-15.64,35.97-34.28,76.12-71.55,40.63-37.72,63.41-58.4,81.03-51.8,4.84,1.81,13.13,7.12,18.58,16.25,5.54,9.29,5.79,18.6,5.53,22.65-1.36,21.09-25.4,35.99-37.13,43.27Z"/>
            </g>
          </g>
          <g class="cls-9">
            <path class="cls-14" d="M335.58,167.6c2.97,1.32,7.3,3.67,11.57,7.74,4.95,4.72,7.65,9.69,9.07,12.85"/>
            <path class="cls-14" d="M374.07,189.67c1.35,1.02,2.86,2.31,4.38,3.92,1.15,1.21,2.11,2.39,2.91,3.49"/>
            <path class="cls-14" d="M374.78,210.72c2.5,2.14,5.92,5.68,8.5,10.89,1.13,2.29,1.88,4.45,2.38,6.33"/>
            <path class="cls-14" d="M356.59,220.18c-.38-.98-.96-2.18-1.84-3.44-1.24-1.78-2.6-3-3.63-3.78"/>
            <path class="cls-14" d="M307.34,186.04c2.55,1.27,5.92,3.28,9.34,6.39,3.25,2.95,5.49,5.94,6.98,8.28"/>
            <path class="cls-14" d="M329.28,227.01c.46.13,1.69.53,2.62,1.73.55.71.78,1.42.89,1.87"/>
            <path class="cls-14" d="M317.94,256.19c1.84,1.84,4.11,4.51,6.11,8.09,1.58,2.82,2.56,5.45,3.2,7.6"/>
            <path class="cls-14" d="M279.39,212.89c1.62.94,3.58,2.28,5.58,4.14,1.75,1.63,3.09,3.25,4.09,4.64"/>
            <path class="cls-14" d="M261.81,232.38c2.16,1.58,4.66,3.69,7.16,6.45,1.96,2.16,3.52,4.27,4.74,6.15"/>
            <path class="cls-14" d="M280.71,253.11c.91.93,1.88,2.02,2.85,3.26.94,1.21,1.74,2.37,2.41,3.45"/>
            <path class="cls-14" d="M258.89,280.33c1.91,2.34,3.51,4.38,4.77,6,5.54,7.16,6.95,9.65,7.21,12.81.13,1.55-.05,2.84-.22,3.68"/>
            <path class="cls-14" d="M232.85,257.19c1.23.14,3.12.5,5.13,1.58.98.52,2.14,1.3,4.04,3.23,1.55,1.58,3.66,4,5.74,7.43"/>
            <path class="cls-14" d="M226.04,285.35c4.12,4.83,6.65,6.99,8.26,8.05.26.17.72.46,1.21,1,1.59,1.74,1.33,3.7,1.96,6.1.3,1.16.91,2.78,2.24,4.6"/>
            <path class="cls-14" d="M192.37,297.19c4.12,1.3,6.18,3.28,7.29,4.93,1.45,2.15,1.37,3.83,3.54,5.93,1.71,1.64,2.65,1.47,4.1,2.94,1.33,1.35,2.37,3.35,2.68,6.39"/>
            <path class="cls-14" d="M216.67,326.37c.52.77,1.14,1.91,1.54,3.39.22.84.32,1.6.36,2.24"/>
            <path class="cls-14" d="M175.92,312.25c1.07.74,2.16,1.56,3.26,2.47,4.8,3.98,8.13,8.37,10.43,12.17"/>
            <path class="cls-14" d="M150.69,341.16c4.1,2.8,6.04,5.68,7.06,7.83.89,1.88,1.39,3.89,3.28,6.5,1.26,1.75,2.57,2.98,3.48,3.75"/>
            <path class="cls-14" d="M128.54,366c.04.46.24,2.15,1.66,3.56,1.55,1.54,3.46,1.64,3.87,1.65"/>
            <path class="cls-14" d="M153.76,359.55c.23,1.36.75,1.93,1.07,2.18.03.02.06.04.06.05.66.48,1.38.55,1.92.51"/>
          </g>
        </g>
        <path class="cls-11" d="M444.84,122.09l3.97,5.49c.73,1.01.42,2.43-.67,3.04s-2.4,1.25-3.65,1.62c-12.69,3.73-21.6,15.24-26.38,21.42-1.41,1.82-1.55,2.21-2.87,3.73-3.9,4.53-11.52,11.41-14.95,9.59-2.65-1.4-1.93-7.55-1.86-8.08,1.04-8.24,7.6-11.5,24.15-25.07,9.21-7.55,16.28-11.14,19.42-12.52,1.01-.45,2.2-.12,2.85.78Z"/>
        <g class="cls-16">
          <path class="cls-3" d="M444.84,122.09l3.97,5.49c-9.56,2.66-16.64,6.14-21.31,8.81-15.46,8.83-28.96,22.66-29.07,22.52,0,0,0,0,0,0,1.04-8.24,7.6-11.5,24.15-25.07,9.21-7.55,16.28-11.14,19.42-12.52,1.01-.45,2.2-.12,2.85.78Z"/>
        </g>
        <path class="cls-12" d="M444.84,122.09l3.97,5.49c.73,1.01.42,2.43-.67,3.04s-2.4,1.25-3.65,1.62c-12.69,3.73-21.6,15.24-26.38,21.42-1.41,1.82-1.55,2.21-2.87,3.73-3.9,4.53-11.52,11.41-14.95,9.59-2.65-1.4-1.93-7.55-1.86-8.08,1.04-8.24,7.6-11.5,24.15-25.07,9.21-7.55,16.28-11.14,19.42-12.52,1.01-.45,2.2-.12,2.85.78Z"/>
        <path class="cls-11" d="M389.32,185.62c-5.45.83-13.03-7.98-11.28-12.68.7-1.87,3.59-3.08,9.39-5.49,2.42-1.01,4.03-1.5,5.99-2.21,3.49-1.26,9.69-3.49,14.28-5.54,1.42-.63,6.69-3.04,12.72-7.15,8.82-6.01,11.7-10.51,21.3-14.92.48-.22.93-.42,1.33-.59.78-.33,1.68-.17,2.28.43l1.55,1.52c.21.21.38.46.49.74.36.89.51,1.79.1,2.45-.35.57-1,.76-1.15.81-2.93.94-19.56,14.22-24.3,18.01-10.06,8.03-15.08,12.05-19.17,15.94,0,0-3.34,3.18-11.37,7.79-.62.36-1.24.77-2.17.91Z"/>
        <g class="cls-16">
          <path class="cls-3" d="M393.43,165.24c3.49-1.26,9.69-3.49,14.28-5.54,1.42-.63,6.69-3.04,12.72-7.15,8.82-6.01,11.7-10.51,21.3-14.92.48-.22.93-.42,1.33-.59.78-.33,1.68-.17,2.28.43l1.55,1.52c-3.76,1.56-8.39,3.74-13.42,6.79-14.04,8.5-15.94,14.45-26.53,17.2-4.97,1.29-13.56,2.32-13.57,2.29,0,0,.04,0,.05-.01Z"/>
        </g>
        <path class="cls-12" d="M389.32,185.62c-5.45.83-13.03-7.98-11.28-12.68.7-1.87,3.59-3.08,9.39-5.49,2.42-1.01,4.03-1.5,5.99-2.21,3.49-1.26,9.69-3.49,14.28-5.54,1.42-.63,6.69-3.04,12.72-7.15,8.82-6.01,11.7-10.51,21.3-14.92.48-.22.93-.42,1.33-.59.78-.33,1.68-.17,2.28.43l1.55,1.52c.21.21.38.46.49.74.36.89.51,1.79.1,2.45-.35.57-1,.76-1.15.81-2.93.94-19.56,14.22-24.3,18.01-10.06,8.03-15.08,12.05-19.17,15.94,0,0-3.34,3.18-11.37,7.79-.62.36-1.24.77-2.17.91Z"/>
        <path class="cls-11" d="M376.89,172.49c-1.88,3.02,5.4,13.75,11.35,13.28,1-.08,3.83-.62,11.16-15.58,4.72-9.64,3.81-9.95,6.51-14.94,8.76-16.19,15-22.12,22.57-32.23.77-1.03.71-2.47-.16-3.43l-2.64-2.94c-1.01-.53-2.09-.87-2.89-.42-.58.33-.8.96-.85,1.11-1.59,4.24-35.34,51-44.09,54.4-.12.05-.64.24-.95.75Z"/>
        <g class="cls-16">
          <path class="cls-3" d="M379.36,176.05c1.11,2.05,3.97,2.6,4.96,2.67,6.76.46,12.3-15.58,20.21-29.38,4.6-8.04,11.93-18.66,23.79-29.75-.88-.98-1.76-1.96-2.64-2.94-1.01-.53-2.09-.87-2.89-.42-.58.33-.8.96-.85,1.11-1.49,3.97-31.23,45.29-42.16,53.27-1.45,1.06-1.33,3.75-.41,5.45Z"/>
        </g>
        <path class="cls-12" d="M376.89,172.49c-1.88,3.02,5.4,13.75,11.35,13.28,1-.08,3.83-.62,11.16-15.58,4.72-9.64,3.81-9.95,6.51-14.94,8.76-16.19,15-22.12,22.57-32.23.77-1.03.71-2.47-.16-3.43l-2.64-2.94c-1.01-.53-2.09-.87-2.89-.42-.58.33-.8.96-.85,1.11-1.59,4.24-35.34,51-44.09,54.4-.12.05-.64.24-.95.75Z"/>
        <path class="cls-15" d="M380.96,181.35c-2.32-2.32-3.17-4.98-3.34-5.56-.44-1.45-.55-2.72-.56-3.62-.06.03-.13.08-.21.13,0,0-.27.18-.51.4-.29.26-.95,5.03,2.53,9.03,3.27,3.76,9.2,5.71,11.14,3.91.14-.13.24-.26.31-.37-1.17-.04-5.78-.35-9.36-3.93Z"/>
        <path class="cls-6" d="M442.73,123.45c-.87-.85-3.65.93-9.77,4.7-6.32,3.9-9.25,5.63-8.87,6.7.06.17.18.26.23.31,1.21.93,4.35-2.47,9.6-5.65,5.03-3.04,9.29-4.23,9.02-5.67-.01-.06-.05-.25-.21-.4Z"/>
        <path class="cls-6" d="M423.54,117.78s.28.03.51.45c.7,1.23-6.93,10.51-7.82,11.6-7.98,9.77-11.67,18.62-13.33,17.88-.12-.05-.19-.14-.23-.19-.98-1.24,2.98-5.2,6.69-10.31,1.4-1.93,12-16.76,13.22-18.65.12-.19.53-.83.96-.78Z"/>
        <path class="cls-6" d="M428.22,147.91c-.42-.72,5.26-4.41,9.6-7.24,2.49-1.62,4.75-3.01,6.12-2.26.12.07.39.22.41.45.07.77-2.65,1.11-5.61,2.5-3.13,1.47-7.83,4.73-8.83,5.9-.13.15-.62.76-1.27.75-.13,0-.36,0-.42-.11Z"/>
      </g>
    </g>
  </g>
</svg>