<?xml version="1.0" encoding="utf-8"?>
<!-- Generator: Adobe Illustrator 28.3.0, SVG Export Plug-In . SVG Version: 6.00 Build 0)  -->
<svg version="1.1" id="Calque_1" xmlns="http://www.w3.org/2000/svg" xmlns:xlink="http://www.w3.org/1999/xlink" x="0px" y="0px"
	 viewBox="0 0 500 500" style="enable-background:new 0 0 500 500;" xml:space="preserve">
<style type="text/css">
	.st0{fill:#CB664D;}
	.st1{fill:#F7FAF7;}
	.st2{fill:#196028;stroke:#196028;stroke-width:0.1;stroke-miterlimit:10;}
	.st3{fill:#218035;stroke:#1E7833;stroke-width:0.75;stroke-miterlimit:10;}
	.st4{opacity:0.3;}
	.st5{fill:#FFFFFF;}
	.st6{fill:#196028;}
	.st7{fill:#CB8E42;}
	.st8{fill:#A17233;}
	.st9{opacity:0.5;}
	.st10{fill:#9F6E2E;}
	.st11{fill:#218035;}
	.st12{fill:#1F7630;}
	.st13{opacity:0.6;}
</style>
<g id="border">
	<path class="st0" d="M464.3,500H35.7C16,500,0,484,0,464.3V35.7C0,16,16,0,35.7,0h428.6C484,0,500,16,500,35.7v428.6
		C500,484,484,500,464.3,500z"/>
	<path class="st1" d="M452.4,476.2H47.6c-13.1,0-23.8-10.7-23.8-23.8V47.6c0-13.1,10.7-23.8,23.8-23.8h404.8
		c13.1,0,23.8,10.7,23.8,23.8v404.8C476.2,465.5,465.5,476.2,452.4,476.2z"/>
</g>
<g>
	<g>
		<g>
			<g>
				<g>
					<g>
						<g>
							<path class="st2" d="M269.3,445.5l-6.1-21.7l-0.4-1.5l-5.9-21l-0.3-1l-1.1-3.9l-19.2-68.6c-0.1-0.3-0.3-0.6-0.7-0.7
								c-0.3-0.1-0.7-0.1-1,0.1L178,370.4l-3.2,2.4l-0.4,0.3l-0.4,0.3l-17.4,13.2l-1.2,0.9l-17.9,13.7c-0.2,0.2-0.4,0.5-0.3,0.8
								c0.1,0.3,0.4,0.6,0.7,0.7l0.9,0.3l0.4-0.3l0.4-0.3l18-14.1l4.2,1.4L144.6,404l-0.4,0.3l-0.4,0.3l2.7,0.9l0.4-0.3l0.4-0.3
								l16.5-14.6l4,1.3l-15.9,14.8l-0.4,0.3l-0.4,0.3l2.5,0.8l0.7-0.7l15.2-15l3.8,1.3l-14.6,15.2l-0.3,0.3l-0.3,0.3l2.4,0.8
								l0.3-0.4l0.3-0.3l13.9-15.5l3.7,1.2l-13.3,15.7l-0.6,0.7l2.3,0.8l0.3-0.4l0.3-0.4l12.7-15.9l3.6,1.2l-12,16.6l-0.3,0.4
								l-0.3,0.4l2.2,0.7l0.3-0.4l0.3-0.4l11.5-16.3l3.5,1.2l-10.9,16.5l-0.5,0.7l2.1,0.7l0.5-0.8l10.3-16.7l3.4,1.2l-9.7,16.9
								l-0.2,0.4l-0.2,0.4l2.1,0.7l0.2-0.4l0.2-0.4l9.2-17l3.4,1.1l-8.6,17.2l-0.4,0.8l2,0.7l0.4-0.8l8-17.4l3.4,1.1l-7.5,17.6
								l-0.2,0.4l-0.2,0.4l2,0.7l0.2-0.4l0.2-0.4l6.9-17.8l3.3,1.1l-6.4,18l-0.1,0.4l-0.1,0.4l2,0.7l0.1-0.4l0.1-0.4l5.8-18.2
								l3.3,1.1l-5.3,18.4l-0.1,0.4l-0.1,0.4l2,0.7l0.1-0.4l0.1-0.4l4.7-18.5l3.4,1.1l-4.1,18.7l-0.1,0.4l-0.1,0.4l2,0.7l0.2-0.9
								l3.6-18.9l3.4,1.1l-3,19.1l-0.1,0.4l-0.1,0.4l2.1,0.7v-0.4l0.1-0.4l2.5-19.3l3.4,1.2l-1.9,19.5v0.4v0.4l2.1,0.7l0.1-0.9
								l1.3-19.7l3.5,1.2l-0.7,19.9v0.4v0.4l2.2,0.7V434l0.1-20.1l3.6,1.2l0.5,20.3v0.5v0.5l2.3,0.8v-0.5v-0.5l-1.1-20.5l3.7,1.2
								l1.7,20.7v0.5v0.5l2.4,0.8l-0.1-0.9l-2.4-20.9l3.8,1.3l3,21.1l0.1,1l2.5,0.8l-0.2-1l-3.7-21.4l4,1.3l4.4,21.6l0.1,0.5
								l0.1,0.5l2.7,0.9l-0.2-1l-5.1-21.8l4.2,1.4l5.8,22.1l0.1,0.5l0.1,0.5l1.2,0.4c0.3,0.1,0.7,0.1,1-0.1
								C269.3,446.1,269.4,445.8,269.3,445.5z M163,388.8l-4.1-1.4l17-13.4l3.5,1.2L163,388.8z M168.8,390.8l-4-1.3l15.7-13.8
								l3.3,1.1L168.8,390.8z M174.4,392.6l-3.8-1.3l14.4-14.2l3.2,1.1L174.4,392.6z M179.7,394.4l-3.7-1.2l13.2-14.7l3.1,1
								L179.7,394.4z M184.9,396.1l-3.6-1.2l12-15l3,1L184.9,396.1z M189.8,397.8l-3.5-1.2l10.9-15.4l2.9,1L189.8,397.8z
								 M194.7,399.4l-3.4-1.1l9.8-15.8l2.9,1L194.7,399.4z M199.5,401.1l-3.4-1.1l8.7-16.2l2.8,0.9L199.5,401.1z M204.3,402.6
								l-3.3-1.1l7.6-16.5l2.8,0.9L204.3,402.6z M209,404.2l-3.3-1.1l6.6-16.9l2.8,0.9L209,404.2z M210.4,404.7l5.5-17.2l2.8,0.9
								l-5,17.4L210.4,404.7z M215.1,406.3l4.5-17.6l2.8,0.9l-3.9,17.8L215.1,406.3z M219.8,407.9l3.4-17.9l2.8,0.9l-2.9,18.1
								L219.8,407.9z M224.6,409.5l2.3-18.3l2.8,1l-1.8,18.5L224.6,409.5z M229.5,411.1l1.2-18.7l2.9,1l-0.7,18.9L229.5,411.1z
								 M234.5,412.8l0.1-19l3,1L238,414L234.5,412.8z M239.6,414.5l-1-19.4l3.1,1l1.6,19.6L239.6,414.5z M244.9,416.3l-2.2-19.8
								l3.2,1.1l2.9,20L244.9,416.3z M250.5,418.1l-3.5-20.2l3.3,1.1l4.1,20.5L250.5,418.1z M256.3,420.1l-4.8-20.7l3.4,1.2
								l5.5,20.9L256.3,420.1z"/>
						</g>
					</g>
				</g>
			</g>
		</g>
		<g>
			<g>
				<g>
					<g>
						<g>
							<path class="st3" d="M269.1,444.6l-6.1-21.7l-0.4-1.5l-5.9-21l-0.3-1l-1.1-3.9l-19.2-68.6c-0.1-0.3-0.3-0.6-0.7-0.7
								c-0.3-0.1-0.7-0.1-1,0.1l-56.6,43.2l-3.2,2.4l-0.4,0.3l-0.4,0.3l-17.4,13.2l-1.2,0.9l-17.9,13.7c-0.2,0.2-0.4,0.5-0.3,0.8
								c0.1,0.3,0.4,0.6,0.7,0.7l0.9,0.3l0.4-0.3l0.4-0.3l18-14.1l4.2,1.4l-17.2,14.3l-0.4,0.3l-0.4,0.3l2.7,0.9l0.4-0.3l0.4-0.3
								l16.5-14.6l4,1.3l-15.9,14.8l-0.4,0.3l-0.4,0.3l2.5,0.8l0.7-0.7l15.2-15l3.8,1.3L158.6,408l-0.3,0.3l-0.3,0.3l2.4,0.8
								l0.3-0.4l0.3-0.3l13.9-15.5l3.7,1.2l-13.3,15.7l-0.6,0.7l2.3,0.8l0.3-0.4l0.3-0.4l12.7-15.9l3.6,1.2l-12.1,16.1l-0.3,0.4
								l-0.3,0.4l2.2,0.7l0.3-0.4l0.3-0.4l11.5-16.3l3.5,1.2l-11,16.7l-0.5,0.7l2.1,0.7l0.5-0.8l10.3-16.7l3.4,1.2l-9.7,16.9
								l-0.2,0.4l-0.2,0.4l2.1,0.7l0.2-0.4l0.2-0.4l9.2-17l3.4,1.1l-8.6,17.2l-0.4,0.8l2,0.7l0.4-0.8l8-17.4l3.4,1.1l-7.5,17.6
								l-0.2,0.4l-0.2,0.4l2,0.7l0.2-0.4l0.2-0.4l6.9-17.8l3.3,1.1l-6.4,18l-0.1,0.4l-0.1,0.4l2,0.7l0.1-0.4l0.1-0.4l5.8-18.2
								l3.3,1.1l-5.3,18.4l-0.1,0.4l-0.1,0.4l2,0.7l0.1-0.4l0.1-0.4l4.7-18.5l3.4,1.1l-4.1,18.7l-0.1,0.4l-0.1,0.4l2,0.7l0.2-0.9
								l3.6-18.9l3.4,1.1l-3,19.1l-0.1,0.4l-0.1,0.4l2.1,0.7v-0.4l0.1-0.4l2.5-19.3l3.4,1.2l-1.9,19.5v0.4v0.4l2.1,0.7l0.1-0.9
								l1.3-19.7l3.5,1.2l-0.7,19.9v0.4v0.4l2.2,0.7v-0.9l0.1-20.1l3.6,1.2l0.5,20.3v0.5v0.5l2.3,0.8v-0.5v-0.5l-1.1-20.5l3.7,1.2
								l1.7,20.7v0.5v0.5l2.4,0.8l-0.1-0.9l-2.4-20.9l3.8,1.3l3,21.1l0.1,1l2.5,0.8l-0.2-1l-3.7-21.4l4,1.3l4.4,21.6l0.1,0.5
								l0.1,0.5l2.7,0.9l-0.2-1l-5.1-21.8l4.2,1.4l5.8,22.1l0.1,0.5l0.1,0.5l1.2,0.4c0.3,0.1,0.7,0.1,1-0.1
								C269,445.2,269.1,444.9,269.1,444.6z M162.7,387.9l-4.1-1.4l17-13.4l3.5,1.2L162.7,387.9z M168.6,389.9l-4-1.3l15.7-13.8
								l3.3,1.1L168.6,389.9z M174.1,391.7l-3.8-1.3l14.4-14.2l3.2,1.1L174.1,391.7z M179.5,393.5l-3.7-1.2l13.2-14.7l3.1,1
								L179.5,393.5z M184.6,395.3l-3.6-1.2l12-15l3,1L184.6,395.3z M189.6,396.9l-3.5-1.2l10.9-15.4l2.9,1L189.6,396.9z
								 M194.5,398.6l-3.4-1.1l9.8-15.8l2.9,1L194.5,398.6z M199.3,400.2l-3.4-1.1l8.7-16.2l2.8,0.9L199.3,400.2z M204,401.8
								l-3.3-1.1l7.6-16.5l2.8,0.9L204,401.8z M208.7,403.4l-3.3-1.1l6.6-16.9l2.8,0.9L208.7,403.4z M210.1,403.8l5.5-17.2l2.8,0.9
								l-5,17.4L210.1,403.8z M214.8,405.4l4.5-17.6l2.8,0.9l-3.9,17.8L214.8,405.4z M219.6,407l3.4-18l2.8,0.9l-2.9,18.1L219.6,407
								z M224.4,408.6l2.3-18.3l2.8,1l-1.8,18.5L224.4,408.6z M229.2,410.2l1.2-18.7l2.9,1l-0.7,18.9L229.2,410.2z M234.2,411.9
								l0.1-19l3,1l0.5,19.2L234.2,411.9z M239.4,413.6l-1-19.4l3.1,1l1.6,19.6L239.4,413.6z M244.7,415.4l-2.2-19.8l3.2,1.1l2.9,20
								L244.7,415.4z M250.2,417.3l-3.5-20.2l3.3,1.1l4.1,20.5L250.2,417.3z M256.1,419.2l-4.8-20.7l3.4,1.2l5.5,20.9L256.1,419.2z"
								/>
						</g>
					</g>
				</g>
			</g>
		</g>
		<g class="st4">
			<path class="st5" d="M186,368.4L186,368.4c-0.6-0.8-0.4-1.8,0.3-2.4l21.4-16.4c0.8-0.6,1.8-0.4,2.4,0.3l0,0
				c0.6,0.8,0.4,1.8-0.3,2.4l-21.4,16.4C187.6,369.3,186.5,369.2,186,368.4z"/>
		</g>
		<g class="st4">
			<path class="st6" d="M257.1,400.8l-11.1-3.7l-13.7-70.8l-0.1-0.4l1.6-1.3c0.3-0.2,0.6-0.2,1-0.1s0.6,0.4,0.7,0.7l0,0l20.2,70.8
				l1.1,3.9l0,0l0.1,0.5L257.1,400.8z"/>
		</g>
	</g>
	<g>
		<g id="manche_00000160155658812323085690000015190671321610118532_">
			<path class="st7" d="M230,352.5l-6-2c-3.4-1.1-5.2-4.8-4.1-8.1L309,76.6c1.1-3.4,4.8-5.2,8.1-4.1l6,2c3.4,1.1,5.2,4.8,4.1,8.1
				l-89.1,265.8C237,351.8,233.4,353.6,230,352.5z"/>
			<path class="st8" d="M230.7,353.2l-7.7-2.6c-3.1-1-4.8-4.4-3.8-7.6L309,75.6c1-3.1,4.4-4.8,7.6-3.8l7.7,2.6
				c3.1,1,4.8,4.4,3.8,7.6l-89.7,267.5C237.2,352.6,233.9,354.2,230.7,353.2z M316.3,72.6c-2.7-0.9-5.6,0.5-6.5,3.2l-89.7,267.5
				c-0.9,2.7,0.5,5.6,3.2,6.5l7.7,2.6c2.7,0.9,5.6-0.5,6.5-3.2l89.7-267.5c0.9-2.7-0.5-5.6-3.2-6.5L316.3,72.6z"/>
		</g>
		<g>
			<path class="st8" d="M245.9,281.3c-0.2-0.1-0.3-0.3-0.3-0.5l48.7-145.1c0.1-0.2,0.3-0.3,0.5-0.3c0.2,0.1,0.3,0.3,0.3,0.5
				L246.5,281C246.4,281.2,246.2,281.3,245.9,281.3z"/>
		</g>
		<g>
			<path class="st8" d="M246.2,294.3c-0.2-0.1-0.3-0.3-0.3-0.5l33.4-99.5c0.1-0.2,0.3-0.3,0.5-0.3c0.2,0.1,0.3,0.3,0.3,0.5
				L246.7,294C246.7,294.3,246.4,294.4,246.2,294.3z"/>
		</g>
		<g class="st9">
			<path class="st10" d="M239.5,330.6c0,0,1.1,0.2,1.7,0.4c1.2,0.4,1.8,1.4,2.4,1.3c0.8-0.2,0.5-2.4,1.7-5.7c0.3-0.8,0.3-0.8,0.8-2
				c1.3-3,1.9-5.5,2.2-6.3c1.8-6.2,3.7-12.3,5.8-18.3c3.5-10.4,6-17.3,13.2-38.3c10.4-30,7.6-24.9,12.7-37.9
				c3.9-10,6.7-18.8,12.5-36.3c0.6-2,0.4-1.6,1.1-3.9c6.9-24.9,12.7-36.9,16.7-49.7c2.5-8,2.3-10,4.4-13.1c0.2-0.3,0.5-0.8,0.5-1.4
				c-0.1-4.5-16.6-9-18.3-6.1c-0.7,1.3,1.6,3.9,2,4.4c3.3,3.7,7,2.8,8.9,5.5c1.8,2.6,0.5,6.5,0,8.1c-10.1,29.8-18.6,60.1-28.9,89.9
				c-5.7,16.5-24.9,78.1-33.1,92.9c-1.7,3.1-5.1,9-9.6,9.2c-2.8,0.1-5.6,0.5-8.4,0.5c-0.4,0-1.6,0-2.1,0.8c-0.3,0.5-0.3,1.1-0.2,1.5
				c0.5,1.5,3.5,1.6,6.6,2.3C234,328.4,236.5,329.1,239.5,330.6z"/>
		</g>
		<g id="manche_00000049931797496242053440000016704334759249961407_">
			<path class="st8" d="M230.7,353.2l-7.7-2.6c-3.1-1-4.8-4.4-3.8-7.6L309,75.6c1-3.1,4.4-4.8,7.6-3.8l7.7,2.6
				c3.1,1,4.8,4.4,3.8,7.6l-89.7,267.5C237.2,352.6,233.9,354.2,230.7,353.2z M316.3,72.6c-2.7-0.9-5.6,0.5-6.5,3.2l-89.7,267.5
				c-0.9,2.7,0.5,5.6,3.2,6.5l7.7,2.6c2.7,0.9,5.6-0.5,6.5-3.2l89.7-267.5c0.9-2.7-0.5-5.6-3.2-6.5L316.3,72.6z"/>
		</g>
		<g id="poignée_00000064337146698065527120000017426539279292406681_">
			<path class="st11" d="M314.3,118.8l-16.6-5.6c-3.3-1.1-5.1-4.7-4-8l15.7-46.8c1.1-3.3,4.7-5.1,8-4L334,60c3.3,1.1,5.1,4.7,4,8
				l-15.7,46.8C321.2,118.2,317.6,119.9,314.3,118.8z"/>
			<path class="st12" d="M315,119.5l-18.3-6.1c-3.1-1-4.7-4.3-3.7-7.4l16.3-48.5c1-3.1,4.3-4.7,7.4-3.7l18.3,6.1
				c3.1,1,4.7,4.3,3.7,7.4l-16.3,48.5C321.4,118.9,318,120.6,315,119.5z M316.4,54.6c-2.6-0.9-5.4,0.5-6.3,3.1l-16.3,48.5
				c-0.9,2.6,0.5,5.4,3.1,6.3l18.3,6.1c2.6,0.9,5.4-0.5,6.3-3.1L337.8,67c0.9-2.6-0.5-5.4-3.1-6.3L316.4,54.6z"/>
		</g>
		<g id="poignée_00000018225145495298115440000006182305435906790819_">
			<path class="st11" d="M234.1,353.9l-14.2-4.8c-3.3-1.1-5.1-4.7-4-8l3.6-10.7c1.1-3.3,4.7-5.1,8-4l14.2,4.8c3.3,1.1,5.1,4.7,4,8
				l-3.6,10.7C241,353.2,237.4,355,234.1,353.9z"/>
			<path class="st12" d="M234.8,354.6l-15.9-5.3c-3.1-1-4.7-4.3-3.7-7.4l4.1-12.3c1-3.1,4.3-4.7,7.4-3.7l15.9,5.3
				c3.1,1,4.7,4.3,3.7,7.4l-4.1,12.3C241.2,353.9,237.9,355.6,234.8,354.6z M226.5,326.7c-2.6-0.9-5.4,0.5-6.3,3.1l-4.1,12.3
				c-0.9,2.6,0.5,5.4,3.1,6.3l15.9,5.3c2.6,0.9,5.4-0.5,6.3-3.1l4.1-12.3c0.9-2.6-0.5-5.4-3.1-6.3L226.5,326.7z"/>
		</g>
		<g>
			<path class="st6" d="M319.1,77.1c-2.9-1-4.4-4.1-3.5-7c1-2.9,4.1-4.4,7-3.5s4.4,4.1,3.5,7C325.1,76.5,321.9,78.1,319.1,77.1z
				 M322.3,67.4c-2.4-0.8-5.1,0.5-5.9,2.9s0.5,5.1,2.9,5.9s5.1-0.5,5.9-2.9S324.7,68.3,322.3,67.4z"/>
		</g>
		<g>
			<circle class="st6" cx="321.1" cy="71" r="4.2"/>
		</g>
		<g class="st13">
			<circle class="st6" cx="320.8" cy="71.9" r="5.1"/>
		</g>
		<g>
			<path class="st6" d="M229.9,340.9c-1.4-0.5-2.2-2-1.7-3.4s2-2.2,3.4-1.7s2.1,2,1.7,3.4S231.3,341.4,229.9,340.9z M231.5,336.3
				c-1.2-0.4-2.4,0.2-2.8,1.4c-0.4,1.2,0.2,2.4,1.4,2.8s2.4-0.2,2.8-1.4S232.7,336.6,231.5,336.3z"/>
		</g>
		<g>
			<circle class="st6" cx="230.9" cy="338" r="2"/>
		</g>
		<g class="st13">
			<circle class="st6" cx="230.8" cy="338.4" r="2.5"/>
		</g>
		<g class="st4">
			<path class="st6" d="M310.6,117.6c-1.7-0.6-2.5-0.6-2.5-0.8c-0.1-0.7,5-1.2,8.5-3.3c4.7-2.7,5.3-7.4,8.8-16.7
				c4.3-11.4,9.2-20,9.5-19.8c0.2,0.1-1.3,4-4.9,14.6c-2.2,6.6-3.3,9.8-3.4,10.3c-1.6,5.6-3.1,13.2-6.5,16.4
				c-0.5,0.4-1.3,1.2-2.6,1.4c-1.3,0.2-2.3-0.1-4.4-0.8C311.9,118.4,311.9,118.1,310.6,117.6z"/>
		</g>
		<g id="poignée_00000106854478422171390960000000273215953878540728_">
			<path class="st12" d="M315,119.5l-18.3-6.1c-3.1-1-4.7-4.3-3.7-7.4l16.3-48.5c1-3.1,4.3-4.7,7.4-3.7l18.3,6.1
				c3.1,1,4.7,4.3,3.7,7.4l-16.3,48.5C321.4,118.9,318,120.6,315,119.5z M316.4,54.6c-2.6-0.9-5.4,0.5-6.3,3.1l-16.3,48.5
				c-0.9,2.6,0.5,5.4,3.1,6.3l18.3,6.1c2.6,0.9,5.4-0.5,6.3-3.1L337.8,67c0.9-2.6-0.5-5.4-3.1-6.3L316.4,54.6z"/>
		</g>
		<g class="st4">
			<path class="st5" d="M303,93.4c2.3,0.7-1.4,13.5-2.8,15.5c-0.4,0.6-1.1,0.9-1.1,0.9c-0.8,0.4-2.1,0.5-2.7-0.1s-0.5-1.6-0.3-2.7
				C296.8,103.5,300.8,92.7,303,93.4z"/>
		</g>
		<g class="st4">
			<path class="st5" d="M311.4,58.1c-1.8,2-1,5.6,0.6,6.4c2,1,6.2-1.8,6-4.6c-0.1-1.2-1-2.4-2.1-2.9
				C314.3,56.2,312.4,56.9,311.4,58.1z"/>
		</g>
		<g class="st4">
			<path class="st5" d="M222,329.8c-0.7,0.6-1.1,1.8-0.8,2.7c0.4,1.5,2.2,2.5,3.8,2.1c1.8-0.4,2.8-2.4,2.4-3.7
				C226.8,329.1,223.5,328.4,222,329.8z"/>
		</g>
		<g class="st4">
			<path class="st6" d="M232.2,328.5c0,0.1,0.1,0.2,3.1,1.7c5,2.5,5,2.5,5.6,3c3.9,3.2,1.6,7.6,1.5,8c-0.2,1.2-0.9,2.5-3.3,8.4
				c-1.3,3-1.7,4.5-1.3,4.8c0.4,0.2,1.2-0.4,1.5-0.6c3.1-2.3,3.5-6.1,6.2-14.7c0.6-1.9,1.1-3.4,0.4-4.8c-0.5-1.1-1.4-1.8-4.1-3
				C237.2,329.2,232.3,328.1,232.2,328.5z"/>
		</g>
		<g id="poignée_00000038395073656401490740000008418843267076321205_">
			<path class="st12" d="M234.8,354.6l-15.9-5.3c-3.1-1-4.7-4.3-3.7-7.4l4.1-12.3c1-3.1,4.3-4.7,7.4-3.7l15.9,5.3
				c3.1,1,4.7,4.3,3.7,7.4l-4.1,12.3C241.2,353.9,237.9,355.6,234.8,354.6z M226.5,326.7c-2.6-0.9-5.4,0.5-6.3,3.1l-4.1,12.3
				c-0.9,2.6,0.5,5.4,3.1,6.3l15.9,5.3c2.6,0.9,5.4-0.5,6.3-3.1l4.1-12.3c0.9-2.6-0.5-5.4-3.1-6.3L226.5,326.7z"/>
		</g>
	</g>
</g>
</svg>
