<?xml version="1.0" encoding="utf-8"?>
<!-- Generator: Adobe Illustrator 28.3.0, SVG Export Plug-In . SVG Version: 6.00 Build 0)  -->
<svg version="1.1" id="Calque_1" xmlns="http://www.w3.org/2000/svg" xmlns:xlink="http://www.w3.org/1999/xlink" x="0px" y="0px"
	 viewBox="0 0 500 500" style="enable-background:new 0 0 500 500;" xml:space="preserve">
<style type="text/css">
	.st0{fill:#CB664D;}
	.st1{fill:#F7FAF7;}
	.st2{fill:#020202;}
	.st3{fill:#9A9B9A;}
	.st4{fill:#828482;}
	.st5{opacity:0.31;}
	.st6{fill:#656462;}
	.st7{fill:#8D8D8E;}
	.st8{fill:#757775;}
	.st9{opacity:0.16;}
	.st10{fill:#535453;}
	.st11{opacity:0.14;}
	.st12{fill:#FFFFFF;}
	.st13{opacity:0.3;}
	.st14{opacity:0.54;}
	.st15{fill:#444444;}
</style>
<g id="border">
	<path class="st0" d="M464.3,500H35.7C16,500,0,484,0,464.3V35.7C0,16,16,0,35.7,0h428.6C484,0,500,16,500,35.7v428.6
		C500,484,484,500,464.3,500z"/>
	<path class="st1" d="M452.4,476.2H47.6c-13.1,0-23.8-10.7-23.8-23.8V47.6c0-13.1,10.7-23.8,23.8-23.8h404.8
		c13.1,0,23.8,10.7,23.8,23.8v404.8C476.2,465.5,465.5,476.2,452.4,476.2z"/>
</g>
<g>
	<g id="haut">
		<path class="st2" d="M237.7,243.3c-37.4,0-67.8-9.8-67.8-21.9c0-12.1,30.4-21.9,67.8-21.9s67.8,9.8,67.8,21.9
			C305.6,233.5,275.1,243.3,237.7,243.3z M237.7,200.1c-37.1,0-67.4,9.6-67.4,21.4c0,11.8,30.2,21.4,67.4,21.4s67.4-9.6,67.4-21.4
			C305.1,209.7,274.9,200.1,237.7,200.1z"/>
	</g>
	<g>
		<g>
			<path class="st3" d="M335.8,168h-0.2c0-16.9-42.9-30.7-95.9-30.7S143.8,151,143.8,168h-0.3c7.2,56.7,14.4,113.5,21.6,170.2l0,0
				c0,13.5,33.4,24.5,74.7,24.5s74.7-11,74.7-24.5c7.2-56.7,14.3-113.5,21.5-170.2L335.8,168L335.8,168z"/>
		</g>
		<g>
			<path class="st4" d="M239.7,363.4c-20,0-38.8-2.6-53-7.2c-14.4-4.7-22.3-11.1-22.4-18l-21.7-171h0.5c0.6-8.3,10.6-15.9,28.6-21.7
				c18.2-5.8,42.3-9,68-9s49.8,3.2,68,9c17.9,5.7,28,13.4,28.6,21.7h0.4l-0.1,0.8l-21.5,170.2c0,6.9-8,13.2-22.4,18
				C278.6,360.9,259.8,363.4,239.7,363.4L239.7,363.4z M144.3,168.7l21.5,169.5l0,0c0,6.1,7.8,12.2,21.4,16.6
				c14,4.6,32.7,7.1,52.6,7.1s38.5-2.5,52.6-7.1c13.6-4.5,21.4-10.5,21.4-16.6v-0.1l21.4-169.4H335V168c0-7.7-10.1-15.4-27.6-21
				c-18-5.8-42-9-67.6-9s-49.5,3.2-67.6,9c-17.5,5.6-27.6,13.3-27.6,21v0.7H144.3L144.3,168.7z"/>
		</g>
	</g>
	<g class="st5">
		<g>
			<path class="st6" d="M239.8,148.6c-58.5,0-105.8,15.2-105.8,33.9c8.7,8,12.2,15.6,13.8,21.1c2,7.1,2.4,12.5,2.6,18.6
				c0.5,13.2,2.8,26.2,4.1,39.4c1.1,10.8,5.6,47.7,7,47.6c0.7-0.1,0.4-10.1,0.2-15.9c-1.6-47.3-8.3-60.9-0.9-67.7
				c5.7-5.2,10.8,1.9,38.2,3.7c8.4,0.6,49,2.6,64.2-0.7c1.7-0.4,8.8-1.9,14.6,1.3c5,2.7,4.6,5.7,9.8,10.7c5.4,5.1,14.1,8.4,21.8,6.6
				c4.5-1.1,7.4-3.6,9.2-5c0.3-0.2,0.5-0.5,0.8-0.7c-3,46-5.5,61.8-5.5,61.8c-0.6,6.9-3.1,25.9-18,38c-8.7,7.1-17.4,8.4-33.2,10.8
				c-15.9,2.4-37.3,5.8-63.3-2.1c-8.5-2.6-21.2-7.4-35-17.1c-0.1,2.4,0,6.3,2.1,10.1c2.7,4.9,7.2,7.3,12.6,9.5
				c7.7,3.2,18.1,6.5,33.4,8.6c0.8,0.1,12.2,1.7,25.1,1.9c3.9,0.1,7.2,0,9.9-0.1c3.9-0.1,7.9-0.4,12.3-0.8
				c23.7-2.5,45.9-4.8,53.7-19.7c0.9-1.7,1.6-6,3-14.5c3.8-23.3,5-41.4,5.2-42.8c3.2-32.6,9.2-53.7,6-54.8c-0.1-0.1-0.3-0.1-0.5,0
				c2.3-5.2,3.2-10.8,2.9-15.7c-0.2-3.1,0-7.2,1.2-11.7c3.1-11.4,11.1-18,14.4-20.4C319.9,167.8,283.9,148.6,239.8,148.6
				L239.8,148.6z"/>
		</g>
	</g>
	<g>
		<g>
			<path class="st7" d="M324.9,205.6c3.9,15.8-2.4,31-14.1,33.9s-24.4-7.5-28.4-23.3"/>
		</g>
		<g>
			<path class="st4" d="M306.8,240.7c-10.8,0-21.5-10-25.1-24.3l1.4-0.3c3.4,13.7,13.5,23.2,23.7,23.2c1.3,0,2.6-0.2,3.8-0.5
				c5.4-1.4,9.9-5.5,12.5-11.7c2.6-6.3,3-13.8,1.2-21.3l1.4-0.3c1.9,7.8,1.5,15.7-1.2,22.2c-2.8,6.6-7.5,11.1-13.4,12.5
				C309.5,240.5,308.1,240.7,306.8,240.7L306.8,240.7z"/>
		</g>
	</g>
	<g>
		<g>
			<path class="st3" d="M324,206c4,13.1-0.3,26-9.6,28.8c-9.3,2.8-20.1-5.5-24-18.6"/>
		</g>
		<g>
			<path class="st4" d="M310.6,236c-3.6,0-7.3-1.4-10.7-4c-4.7-3.6-8.3-9.1-10.3-15.6l1.4-0.4c1.9,6.2,5.4,11.5,9.8,14.9
				s9.1,4.5,13.4,3.2s7.6-4.9,9.3-10.1c1.8-5.3,1.7-11.6-0.2-17.8l1.4-0.4c2,6.5,2,13.1,0.2,18.7c-1.9,5.7-5.5,9.6-10.3,11
				C313.2,235.8,311.9,236,310.6,236L310.6,236z"/>
		</g>
	</g>
	<g id="tour">
		<g>
			<path class="st3" d="M239.7,137.3c-58.5,0-105.8,15.2-105.8,33.9v14.3c0,18.7,47.4,33.9,105.8,33.9s105.8-15.2,105.8-33.9v-14.3
				C345.6,152.5,298.2,137.3,239.7,137.3z"/>
		</g>
		<g>
			<path class="st4" d="M239.7,220c-28.3,0-55-3.5-75.1-9.9c-20.3-6.5-31.5-15.2-31.5-24.6v-14.3c0-9.4,11.2-18.1,31.5-24.6
				c20.1-6.4,46.7-9.9,75.1-9.9c28.3,0,55,3.5,75.1,9.9c20.3,6.5,31.5,15.2,31.5,24.6v14.3c0,9.4-11.2,18.1-31.5,24.6
				C294.7,216.5,268.1,220,239.7,220L239.7,220z M239.7,138c-28.2,0-54.7,3.5-74.6,9.9c-19.4,6.2-30.5,14.7-30.5,23.3v14.3
				c0,8.6,11.1,17.1,30.5,23.3c19.9,6.4,46.4,9.9,74.6,9.9s54.7-3.5,74.6-9.9c19.4-6.2,30.5-14.7,30.5-23.3v-14.3
				c0-8.6-11.1-17.1-30.5-23.3C294.4,141.5,267.9,138,239.7,138L239.7,138z"/>
		</g>
	</g>
	<g>
		<g>
			<ellipse class="st8" cx="239.8" cy="187.9" rx="89.6" ry="30"/>
		</g>
		<g>
			<path class="st8" d="M239.8,218.6c-24,0-46.6-3.1-63.6-8.8c-17.2-5.8-26.7-13.6-26.7-21.9s9.5-16.1,26.7-21.9
				c17-5.7,39.6-8.8,63.6-8.8s46.6,3.1,63.6,8.8c17.2,5.8,26.7,13.6,26.7,21.9s-9.5,16.1-26.7,21.9
				C286.3,215.5,263.8,218.6,239.8,218.6L239.8,218.6z M239.8,158.6c-23.9,0-46.3,3.1-63.1,8.8c-16.4,5.5-25.8,13-25.8,20.5
				c0,7.6,9.4,15.1,25.8,20.5c16.8,5.6,39.3,8.8,63.1,8.8s46.3-3.1,63.1-8.8c16.4-5.5,25.8-13,25.8-20.5c0-7.6-9.4-15.1-25.8-20.5
				C286,161.7,263.6,158.6,239.8,158.6L239.8,158.6z"/>
		</g>
	</g>
	<g>
		<g>
			<path class="st6" d="M315.8,331.7c1.5,2.6,25.3-1.2,38.3-16.6c16.6-19.6,15.4-54.2,0.3-73.2c-10.3-13-31.2-25.8-31.3-25.8
				l-1.1,0.8c0,0-1.6,0.4,0.3,12l0,0v0.7c3.3,2,7.8,4.4,12.4,8.9c6.2,5.9,14.7,14,18,26.9c5.1,20.4-6.6,37.3-8.3,39.7
				c-2,2.8-6.5,8.9-14.8,13.5c-5.1,2.8-9.9,4-13.1,4.5l0,0c-0.1,1-0.2,2.6-0.3,4.7C315.8,331.2,315.6,331.4,315.8,331.7L315.8,331.7
				z"/>
		</g>
		<g>
			<path class="st8" d="M318.7,333.1c-0.4,0-0.7,0-1,0c-1.4-0.1-2.2-0.5-2.6-1l0,0c-0.2-0.4-0.2-0.6-0.1-1.8
				c0.1-0.6,0.1-1.4,0.3-2.6c0.1-1.6,0.3-3.1,0.3-4.6V323l0.2-0.5l0.4-0.1c4.6-0.8,8.9-2.2,12.9-4.4c8.4-4.5,12.9-10.9,14.6-13.3
				c2.2-3.1,13.1-19.7,8.2-39.1c-3.2-12.7-11.6-20.8-17.8-26.6c-3.9-3.7-7.7-6-10.7-7.8c-0.6-0.3-1.1-0.7-1.6-1l-0.3-0.2v-1.1
				c-1.3-7.8-1.2-12,0.1-12.7l1.3-0.9h0.2l0,0c0.6,0,8.2,5.2,12.2,8.2c6,4.4,14.2,11.1,19.6,17.9c7.4,9.4,11.8,22.8,11.9,36.8
				c0.1,14.6-4.2,27.8-12.2,37.3C343.6,328.6,325.7,333.1,318.7,333.1L318.7,333.1z M316.4,331.4c0.2,0.1,0.8,0.4,2.3,0.4h0.1
				c7.1,0,24.5-5,34.7-17.1c15.8-18.8,16-52.5,0.3-72.3c-9.3-11.8-27.8-23.6-30.7-25.4l-0.8,0.5c-0.1,0.2-0.9,2.1,0.6,11.3v0.2v0.3
				c0.4,0.2,0.8,0.5,1.2,0.7c3.1,1.9,7,4.2,11,8c6.3,6,14.8,14.1,18.2,27.3c5.1,20.1-6.1,37.1-8.4,40.3c-1.8,2.5-6.4,9-15.1,13.7
				c-4,2.2-8.3,3.7-12.8,4.5c-0.1,1.4-0.2,2.7-0.3,4.1c-0.1,1.2-0.2,2.1-0.3,2.6C316.5,330.9,316.4,331.2,316.4,331.4L316.4,331.4z"
				/>
		</g>
	</g>
	<g class="st9">
		<g>
			<path class="st10" d="M205.7,159.1c-3.6,0.9-25.7,6.9-26.2,17.1c-0.1,3.1,1.8,5.5,2.5,6.4c15.5,19.4,106.5,17.8,113.3-3.7
				c1.7-5.5-0.2-9.4-0.2-9.4c-2.8-5.5-10.7-7.4-15.8-8.7c-0.7-0.2-5.7-1.4-10.3-2.5l0,0c5.2,0.4,12.4,1.2,20.9,3.1
				c10.7,2.5,17.5,5.4,20.4,6.7c13,5.8,16.8,10.9,18.7,14.5c0.5,1,0.9,1.8,1.1,2.3c-2.2,1.3-4,2.3-4.8,2.7
				c-36.1,19-80.5,14.1-83.2,14.2c0,0-0.1,0-0.3,0c-0.3,0-0.5,0-0.9,0c-28.2,1.5-49-0.8-69.6-7.8c-9.1-3.1-16.5-6.5-21.6-9.2
				c0.2-0.8,0.6-2.1,1.4-3.7c1.5-2.7,3.7-4.5,6.2-6.5C168.1,165.9,198.1,159.9,205.7,159.1L205.7,159.1z"/>
		</g>
	</g>
	<g>
		<g>
			<path class="st3" d="M239.7,218.3c-28.2,0-54.6-3.5-74.5-9.9c-19.3-6.2-30.3-14.5-30.3-23V175c4,6.8,15.1,12.9,32.1,17.6
				c19.7,5.4,45.6,8.4,72.7,8.4s53-3,72.7-8.4c18-5,29.5-11.6,32.7-18.8l-0.6,11.7c0,8.5-11,16.9-30.3,23
				C294.4,214.8,267.9,218.3,239.7,218.3L239.7,218.3z"/>
		</g>
		<g>
			<path class="st4" d="M343.9,177.6l-0.4,7.7v0.1c0,8-10.8,16-29.6,22c-19.8,6.3-46.2,9.8-74.2,9.8s-54.4-3.5-74.2-9.8
				c-18.8-6-29.6-14-29.6-22v-7.3c6.3,7.3,19.5,12.3,30.8,15.4c19.8,5.5,45.7,8.5,73,8.5s53.2-3,73-8.5
				C324.2,190.4,337.9,185.2,343.9,177.6 M346.5,168c-0.5,1.1-1,2.1-1.5,3.2c-3.3,16.1-49.1,28.8-105.2,28.8s-102-12.8-105.2-28.8
				H134v14.3c0,18.7,47.4,33.9,105.8,33.9s105.8-15.2,105.8-33.9C345.9,179.6,346.2,173.8,346.5,168L346.5,168L346.5,168z"/>
		</g>
	</g>
	<g class="st11">
		<g>
			<path class="st12" d="M323.4,220.1c-0.1,1,0.4,1.9,1.3,2.4c11.9,6.7,26.5,17.6,33.4,35c5.6,14.2,4.2,27.9,4.5,27.9
				s3.1-18.5-5.1-36.5c-7.4-16.2-20.9-25.7-30-30.7C325.8,217.3,323.6,218.3,323.4,220.1L323.4,220.1z"/>
		</g>
	</g>
	<g class="st13">
		<g>
			<path class="st12" d="M157.3,194.8c0.3-0.5,14.7,5.3,35,9c18.1,3.3,32.6,3.4,44.5,3.5c24.8,0.2,43.4-2.6,48.8-3.5
				c21.6-3.4,36.3-8.4,36.5-7.9c0.2,0.4-12.2,5-27.4,8.5c-24.2,5.5-44.3,5.5-57.9,5.4c-18.5-0.1-37.4-0.4-59.2-7
				C166.4,199.5,157,195.2,157.3,194.8L157.3,194.8z"/>
		</g>
	</g>
	<g class="st14">
		<g>
			<path class="st15" d="M315.7,325.1c-0.2-0.5,1.2-1.5,2-2.2c3.1-2.2,5.8-2.1,8.9-2.9c2.3-0.7,4-1.8,7.4-4.2
				c3.1-2.2,10.4-7.3,14.7-16.6c0.8-1.7,1.5-4.1,2.9-8.8c2.7-9.1,3.4-13.8,3.5-13.8c0.2,0,1.9,31.2-15.2,43
				C330.7,326,316.3,326.7,315.7,325.1L315.7,325.1z"/>
		</g>
	</g>
	<g>
		<path class="st8" d="M318.7,333.1c-0.4,0-0.7,0-1,0c-1.4-0.1-2.2-0.5-2.6-1l0,0c-0.2-0.4-0.2-0.6-0.1-1.8c0.1-0.6,0.1-1.4,0.3-2.6
			c0.1-1.6,0.3-3.1,0.3-4.6V323l0.2-0.5l0.4-0.1c4.6-0.8,8.9-2.2,12.9-4.4c8.4-4.5,12.9-10.9,14.6-13.3c2.2-3.1,13.1-19.7,8.2-39.1
			c-3.2-12.7-11.6-20.8-17.8-26.6c-3.9-3.7-7.7-6-10.7-7.8c-0.6-0.3-1.1-0.7-1.6-1l-0.3-0.2v-1.1c-1.3-7.8-1.2-12,0.1-12.7l1.3-0.9
			h0.2l0,0c0.6,0,8.2,5.2,12.2,8.2c6,4.4,14.2,11.1,19.6,17.9c7.4,9.4,11.8,22.8,11.9,36.8c0.1,14.6-4.2,27.8-12.2,37.3
			C343.6,328.6,325.7,333.1,318.7,333.1L318.7,333.1z M316.4,331.4c0.2,0.1,0.8,0.4,2.3,0.4h0.1c7.1,0,24.5-5,34.7-17.1
			c15.8-18.8,16-52.5,0.3-72.3c-9.3-11.8-27.8-23.6-30.7-25.4l-0.8,0.5c-0.1,0.2-0.9,2.1,0.6,11.3v0.2v0.3c0.4,0.2,0.8,0.5,1.2,0.7
			c3.1,1.9,7,4.2,11,8c6.3,6,14.8,14.1,18.2,27.3c5.1,20.1-6.1,37.1-8.4,40.3c-1.8,2.5-6.4,9-15.1,13.7c-4,2.2-8.3,3.7-12.8,4.5
			c-0.1,1.4-0.2,2.7-0.3,4.1c-0.1,1.2-0.2,2.1-0.3,2.6C316.5,330.9,316.4,331.2,316.4,331.4L316.4,331.4z"/>
	</g>
	<g>
		<g>
			<path class="st6" d="M311.4,216.1h12c0.8,0,1.5,0.7,1.5,1.5v10.5c0,0.8-0.7,1.5-1.5,1.5h-12c-0.8,0-1.5-0.7-1.5-1.5v-10.5
				C309.8,216.7,310.5,216.1,311.4,216.1z"/>
		</g>
		<g>
			<path class="st8" d="M323.4,230.3h-12.1c-1.2,0-2.2-1-2.2-2.2v-10.5c0-1.2,1-2.2,2.2-2.2h12.1c1.2,0,2.2,1,2.2,2.2v10.5
				C325.6,229.3,324.6,230.3,323.4,230.3z M311.4,216.8c-0.4,0-0.8,0.4-0.8,0.8v10.5c0,0.4,0.4,0.8,0.8,0.8h12.1
				c0.4,0,0.8-0.4,0.8-0.8v-10.5c0-0.4-0.4-0.8-0.8-0.8H311.4z"/>
		</g>
	</g>
	<g class="st13">
		<g>
			<path class="st12" d="M189.9,236.5c-3.1,3.1-2.7,10.9-1.8,41.1c0.5,18.3,0.6,26,3.8,29c1.2,1.2,3.2,1.8,4.6,0.3
				c2.9-3,1.3-12.5,0.6-30.4c-1.1-25.6,0.7-37.9-3-40.8C192.2,234.3,190,236.5,189.9,236.5L189.9,236.5z"/>
		</g>
	</g>
	<g class="st13">
		<g>
			<path class="st12" d="M191,319.3c0.2-0.4,0.6-0.8,3.5-0.9c3.2-0.1,3.6,0.3,3.8,0.7c0.7,1.2,0.7,3.1,0.7,5.7c0,2.3-0.1,3.8-0.7,5
				c-0.8,1.6-2.2,1.6-3.4,1.7c-1.2,0-2.9,0-3.9-2.1c-0.4-1-0.5-2.1-0.6-3.9C190.3,323.2,190.2,320.7,191,319.3L191,319.3z"/>
		</g>
	</g>
	<g class="st13">
		<g>
			<path class="st12" d="M172.8,155.9c0.3,0.4,12-3.8,28.6-6.4c14.8-2.3,26.6-2.4,36.3-2.5c20.3-0.1,35.5,1.8,39.9,2.5
				c17.6,2.4,29.7,5.9,29.8,5.6c0.2-0.3-10-3.5-22.4-6c-19.8-3.9-36.2-3.9-47.3-3.8c-15.1,0.1-30.6,0.3-48.4,4.9
				C180.3,152.5,172.6,155.6,172.8,155.9L172.8,155.9z"/>
		</g>
	</g>
</g>
</svg>
