<?xml version="1.0" encoding="utf-8"?>
<!-- Generator: Adobe Illustrator 28.3.0, SVG Export Plug-In . SVG Version: 6.00 Build 0)  -->
<svg version="1.1" id="Calque_1" xmlns="http://www.w3.org/2000/svg" xmlns:xlink="http://www.w3.org/1999/xlink" x="0px" y="0px"
	 viewBox="0 0 500 500" style="enable-background:new 0 0 500 500;" xml:space="preserve">
<style type="text/css">
	.st0{fill:#CB664D;}
	.st1{fill:#F7FAF7;}
	.st2{opacity:0.4;fill:#663C33;enable-background:new    ;}
	.st3{fill:#B54D3C;}
	.st4{fill:#C4553F;}
	.st5{fill:#DE8B75;}
	.st6{fill:#5B8936;}
	.st7{fill:#72AC45;}
	.st8{fill:none;}
	.st9{opacity:0.5;fill:#5B8936;enable-background:new    ;}
</style>
<g id="border">
	<path class="st0" d="M464.3,500H35.7C16,500,0,484,0,464.3V35.7C0,16,16,0,35.7,0h428.6C484,0,500,16,500,35.7v428.6
		C500,484,484,500,464.3,500z"/>
	<path class="st1" d="M452.4,476.2H47.6c-13.1,0-23.8-10.7-23.8-23.8V47.6c0-13.1,10.7-23.8,23.8-23.8h404.8
		c13.1,0,23.8,10.7,23.8,23.8v404.8C476.2,465.5,465.5,476.2,452.4,476.2z"/>
</g>
<g>
	<ellipse class="st2" cx="247.4" cy="375.4" rx="109" ry="9.3"/>
	<g>
		<g>
			<path class="st3" d="M369,263c0,65.7-40.9,112.3-119,112.3c-35.6,0-63.9-10.2-84-27.8c-22.8-20-35-49.6-35-84.5
				c0-65.7,33.8-111.2,116.4-111.2c36.2,0,64.7,9.5,85,26.1C356.5,197.7,369,227.4,369,263z"/>
			<path class="st4" d="M354.3,248.8c0,66.9-41.6,114.3-121.1,114.3c-26.5,0-49-5.6-67.2-15.6c-22.8-20-35-49.6-35-84.5
				c0-65.7,33.8-111.2,116.4-111.2c36.2,0,64.7,9.5,85,26.1C346.9,196.8,354.3,221,354.3,248.8z"/>
			<path class="st5" d="M160.8,222.7c-10.2,28.9-17.2,27.6-17.2,16.3c0-14.9,4.3-28.1,12.5-38.9C162,192.4,168.8,200,160.8,222.7z"
				/>
			<path class="st5" d="M151.4,264.3c0.4,17.8-5.4,21.3-8.9,16.8c-4-5.1-4.1-15.7-1.6-23.2C143.1,251.3,151.1,250.3,151.4,264.3z"/>
		</g>
		<g>
			<g>
				<path class="st6" d="M224.8,180.3c-1.1-0.1-31.9-2.6-65.1,12.1C183,175.2,223.6,180.1,224.8,180.3z"/>
				<path class="st6" d="M340.4,149.9c0,0-40.9,7.6-53.7,16.9C287.2,166.3,304.5,151.5,340.4,149.9z"/>
				<path class="st6" d="M330.2,217.5c-0.5-0.5-34.3-33.2-69.9-36C260.2,181.4,298.7,179.5,330.2,217.5z"/>
				<path class="st6" d="M226.2,163.4c0,0,1-9-34.3-18.1C233.6,152.2,226.2,163.4,226.2,163.4z"/>
				<path class="st7" d="M330.2,217.5L330.2,217.5c-31.5-38-69.9-36-69.9-36l0,0l0,0c0,0-0.1,0-0.2,0c-3,0.8-33.8,9.4-53.8,44.4
					c0,0-0.2-25,18.6-45.7l0,0c-1.2-0.1-41.8-5-65.1,12.1c0,0,13.6-28.8,66.6-29c0,0,7.4-11.1-34.3-18.1c0,0,30.2-5.5,70.2,14.6
					c0,0,23.1-18.8,78.3-10c-35.9,1.6-53.2,16.4-53.7,16.9l0,0C286.9,166.7,312.8,175.3,330.2,217.5z"/>
				<path class="st6" d="M260,181.5c-2.4,0.6-22.3,7-53.8,44.4C226.2,190.9,257,182.3,260,181.5z"/>
				<line class="st8" x1="330.2" y1="217.5" x2="330.2" y2="217.5"/>
				<path class="st8" d="M260,181.5c0.1,0,0.1,0,0.2,0l0,0l0,0"/>
				<path class="st8" d="M224.8,180.3L224.8,180.3"/>
				<path class="st8" d="M286.6,166.8L286.6,166.8"/>
			</g>
			<path class="st9" d="M267.3,170.9c0,0-6.1,6.3-20.2,0C247.1,170.9,257.9,164,267.3,170.9z"/>
			<path class="st7" d="M279.6,123.2c-14.2,3-13.4-7-13.4-7S280.4,115.4,279.6,123.2z"/>
			<path class="st6" d="M279.6,123.2c0,0-16.4,16.7-17.9,47.7c0,0-2.8,2.9-9.2,0c0,0,1.4-30.5,13.7-54.6
				C266.2,116.2,265.5,126.2,279.6,123.2z"/>
			<path class="st9" d="M277.1,121.9c-8.8,1.9-8.3-4.3-8.3-4.3S277.6,117.1,277.1,121.9z"/>
			<path class="st6" d="M249.5,177.2c-8.4,3.7-16.3,8.7-22.9,15.2c-1,0.9-1.8,1.9-2.8,2.8C230.1,186.6,239.4,180.3,249.5,177.2
				L249.5,177.2z"/>
			<path class="st6" d="M247.1,165.1c-5.3-4.8-11.2-8.7-17.8-11.4C236.3,155.2,242.7,159.5,247.1,165.1L247.1,165.1z"/>
			<path class="st6" d="M272.3,174.6c11.2,1.3,22.2,6,30.5,13.6c-1.2-0.8-2.3-1.7-3.5-2.4C291.1,180.5,281.8,176.8,272.3,174.6
				L272.3,174.6z"/>
			<path class="st6" d="M198.7,173.1c10.8-3.3,22.7-3.5,33.4,0.1c-1.4-0.2-2.7-0.6-4.1-0.8C218.3,170.8,208.3,171.3,198.7,173.1
				L198.7,173.1z"/>
			<path class="st6" d="M273.6,164.6c8.8-7,19.8-11.7,31-12.3c-1.4,0.3-2.8,0.4-4.1,0.8C290.9,155.3,281.9,159.4,273.6,164.6
				L273.6,164.6z"/>
		</g>
	</g>
</g>
</svg>
