<?xml version="1.0" encoding="UTF-8"?>
<svg xmlns="http://www.w3.org/2000/svg" viewBox="0 0 500 500">
  <defs>
    <style>
      .cls-1 {
        fill: #4c8b25;
      }

      .cls-1, .cls-2, .cls-3, .cls-4, .cls-5, .cls-6 {
        stroke-width: 0px;
      }

      .cls-2, .cls-7 {
        fill: #9dbf45;
      }

      .cls-3 {
        fill: #fff;
        opacity: .35;
      }

      .cls-4 {
        fill: #f7faf7;
      }

      .cls-5 {
        fill: #6c9c2f;
        opacity: .29;
      }

      .cls-7, .cls-8 {
        stroke: #6c9c2f;
        stroke-miterlimit: 10;
        stroke-width: 3px;
      }

      .cls-6 {
        fill: #6c9c2e;
      }

      .cls-8 {
        fill: none;
      }
    </style>
  </defs>
  <g id="border">
    <g>
      <rect class="cls-1" width="500" height="500" rx="15" ry="15"/>
      <rect class="cls-4" x="23.81" y="23.81" width="452.38" height="452.38" rx="10" ry="10"/>
    </g>
  </g>
  <g id="card-design">
    <path id="_11" data-name="11" class="cls-7" d="M67.95,333.79c1.67,3.73,4.26,7.7,4.95,8.72,4.86,7.09,9.87,10.87,15.61,18.7,4.27,5.82,6.56,10.62,7.9,14.77,3.13,9.67,1.42,13.01,4.46,18.89,1.46,2.83,4.77,7.55,15.98,12.46,21.92,9.6,35.13,2.89,68.53,9.63,11.91,2.41,16.32,4.49,18.28,5.48,14.89,7.56,15.31,16.78,26.5,21.47,7.71,3.23,16.2,1.38,33.35-2.74,26.57-6.39,39.86-9.58,50.08-21.04,11.19-12.56,7.7-22.34,20.81-30.49,1.93-1.2,7.66-4.49,19.12-11.07,7.35-4.22,9.87-5.63,11.42-8.68,3.77-7.4-1.78-17.24-3.66-20.56-19.13-33.91-279.19-87.91-293.34-49.35-6.81,18.57,0,33.81,0,33.81Z"/>
    <g id="_1" data-name="1">
      <path class="cls-2" d="M72.06,254.29c-19.27-8.48-30.05-39.89-22.39-60.77,3.31-9.03,8.14-10.82,10.86-22.74,2.61-11.47-.49-15.82.57-28.89.35-4.28,1.64-20.27,9.14-30.61,8.64-11.92,21.94-11.4,52.09-16.91,53.53-9.77,57.61-19.81,77.22-14.16,14.05,4.04,35.09,15.85,41.12,35.18,16.21,51.91-89.01,115.77-133.42,135.25-8.76,3.84-22.56,9.21-35.18,3.66Z"/>
      <path class="cls-8" d="M72.06,254.29c-19.27-8.48-30.05-39.89-22.39-60.77,3.31-9.03,8.14-10.82,10.86-22.74,2.61-11.47-.49-15.82.57-28.89.35-4.28,1.64-20.27,9.14-30.61,8.64-11.92,21.94-11.4,52.09-16.91,53.53-9.77,57.61-19.81,77.22-14.16,14.05,4.04,35.09,15.85,41.12,35.18,16.21,51.91-89.01,115.77-133.42,135.25-8.76,3.84-22.56,9.21-35.18,3.66Z"/>
    </g>
    <path id="_6" data-name="6" class="cls-7" d="M186.4,369.71c-20.18,10.12-49.69,11.02-67.49-1.87-14.79-10.71-9.4-22.17-32.55-58.47-15.13-23.72-22.38-26.6-22.98-39.76-.77-17.15,11.19-20.41,15.32-44.91,4.01-23.79-5.83-29.33.96-41.16,8.21-14.32,23.2-7.29,54.57-25.26,19.97-11.44,21.82-18.83,37.34-21.52,2.99-.52,24.26-3.91,36.86,8.42,5.23,5.11,7.2,11.2,8.14,14.97,43.15,172.81-30.16,209.56-30.16,209.56Z"/>
    <path id="_4" data-name="4" class="cls-7" d="M262.6,159.71c-6.91,4.76-6.22,17.63-5.94,22.85.88,16.55,10.1,19.2,13.71,35.18,3.64,16.16-4.51,19.11-4.57,45.69-.04,16.9-.06,28.22,7.31,34.73,13.14,11.59,44.81,3.49,59.4-15.99,8.63-11.53,9.2-24.27,9.6-32.9,1.19-26.29-11.35-45.6-15.08-51.17-17.86-26.69-51.92-47-64.42-38.38Z"/>
    <path id="_3" data-name="3" class="cls-7" d="M345.3,136.86c11.25.62,18.41,14.07,37.47,12.79,11.66-.78,14.63-6.2,26.04-5.03,9.68.99,22.8,6.45,26.96,16.91,3.97,9.97-4.01,14.95-.91,25.59,4.13,14.21,20.39,12.36,26.5,25.13,5.96,12.44-6.13,21.19-16.45,54.83-10.09,32.91-4.16,42.94-15.54,52.55-13.09,11.06-23.37-.18-45.69,10.97-19.6,9.79-18.74,21.98-39.29,29.7-5.56,2.09-20.22,7.59-33.35,1.83-4.04-1.77-17.17-8.66-24.22-39.75-17.04-75.17,25.15-187.35,58.48-185.51Z"/>
    <path id="_10" data-name="10" class="cls-7" d="M161.16,200.37c16.27-14.8,34.04-18.78,42.49-20.56,11.26-2.37,41.54-8.76,64.42,8.68,16.74,12.76,20.67,31.54,26.5,59.4,6.12,29.25,9.57,45.76,1.37,60.31-18.76,33.29-88.7,38.99-129.76,9.14-5.54-4.03-27.11-19.71-31.98-47.52-6.65-37.98,23.49-66.3,26.96-69.45Z"/>
    <path id="_2" data-name="2" class="cls-7" d="M226.37,115.96c4.8-5.86,10.26-3.15,17.67-11.07,8.14-8.69,5.96-15.23,12.42-18.91,9.89-5.64,25.76,3.57,29.14,5.53,13.9,8.07,12.14,15.39,24.36,20.75,10.83,4.74,14.27-.1,27.23,5.07,4.81,1.92,14.94,5.97,20.54,15.22,7.52,12.43-1.36,20.67,6.21,33.2,2.47,4.09,7.85,7.95,18.63,15.68,14.79,10.61,16.37,9.15,21.02,13.83,11.39,11.5,13.95,32.46,7.16,47.5-6.07,13.45-14.17,10.08-24.36,25.36-13.37,20.04-6.54,36.48-18.15,42.89-8.83,4.87-20.69-.29-25.31-2.31-49.33-21.5-31.3-94.86-83.59-127.74-7.64-4.81-20.53-11.1-29.14-25.82-6.49-11.11-11.91-29.33-3.82-39.2Z"/>
    <path class="cls-5" d="M169.41,198.55c-25.4,25.88-38.27,77.48-8.25,111.03,30.52,34.11,85.74,27.61,113.77,1.83,49.46-45.49-.59-137.34-5.94-136.62-5.78.79,13.75,113.4-16.91,124.28-10.84,3.85-16.16-8.19-56.2-15.08-8.11-1.39-17.63-2.57-22.85-10.05-1.29-1.85-4.36-7.02-2.28-21.93,1.85-13.27,5.02-35.98,24.67-49.8,3.86-2.71,14.15-9.13,28.33-9.6,5.96-.19,15.84-.52,24.22,5.94,11.56,8.91,12.12,24.5,12.34,30.61.34,9.46-2.32,11.61-3.91,17.67-.36,1.39-.89,3.73-1.11,8.37-.81,16.79,3.95,28.77-.91,37.47-5.97,10.68-23.03,10.29-22.62,12.11.34,1.52,12.5,3.19,22.85-2.28,3.25-1.72,6.32-4.15,8.22-2.97,2.38,1.47.75,7.22,1.14,7.31,1.34.32,38.1-60.84,11.88-100.98-1.82-2.78-17.98-26.65-47.98-30.16-32.33-3.77-54.82,19.13-58.46,22.85Z"/>
    <path id="_9" data-name="9" class="cls-7" d="M170.83,188.04c8.88-21.04,33.05-28.86,35.78-29.7,18.21-5.61,46.35-5.74,52.72,7.31,2.65,5.43,1.62,13.31-2.82,17.82-7.43,7.55-18.71-.11-39.54,1.83-26.72,2.49-42.94,18.34-47.55,13.25-2.06-2.28-.11-6.9,1.41-10.51Z"/>
    <path id="_7" data-name="7" class="cls-7" d="M211.42,158.8c-5.27-6.92-82.65,19.63-99.15,78.59-7.39,26.39-2.98,60.75,9.14,64.42,10.14,3.07,24.18-15.77,27.41-20.1,16.39-21.98,12.39-38.48,21.47-63.97,14.48-40.61,44.52-54.48,41.12-58.94Z"/>
    <path id="_8" data-name="8" class="cls-7" d="M248.1,163.82c-2.33,3.17-1.45,7.39,3.54,18.73,10.4,23.63,15.59,25.76,17.72,35.64,2.75,12.79-4.89,14.08-8.1,35.64-.59,3.97-5.91,42.12,10.63,49.35,4.93,2.16,11.73-.09,25.31-4.57,20.06-6.62,31.69-10.46,38.47-21.02,4.87-7.59,4.95-15.08,5.06-26.04.05-5.29.06-16.16-4.77-28.26-3.42-8.57-6.45-10.7-33.19-38.45-16.17-16.79-20.64-21.79-30.37-24.22-7.93-1.97-20.16-2.43-24.29,3.2Z"/>
    <path id="_5" data-name="5" class="cls-7" d="M131.92,284.9c6.59-5.25,15.16-5.72,25.59-4.57,43.03,4.74,47.87,29.29,76.76,30.61,25.01,1.15,59.7-15.5,79.96-30.16,4.95-3.58,13.16-10.03,19.65-7.31,9.08,3.81,9.89,23.56,8.68,33.35-4.85,39.38-62.23,80.16-119.71,78.59-43.61-1.19-92.71-26.91-100.06-61.23-2.19-10.21-2.56-29.97,9.14-39.29Z"/>
    <path class="cls-5" d="M198.71,172.81c6.17-5.2,9.33-5.75,10.66-9.98.54-1.71.65-3.63,2.36-5.18,1.69-1.53,3.84-1.7,5.86-1.83,7.42-.47,11.13-.71,12.6-.67,0,0,9.47.23,20.61,2.99.65.16,2.44.62,2.5,1.41.07.88-2.07,1.28-3.58,2.59-3.03,2.64-2.38,8.04-2.13,10.13.98,8.16,6.16,11.83,4.8,13.48-1.42,1.72-8.29-.78-8.22-2.28.02-.49.76-.52,1.45-1.22,1.78-1.8.72-5.48-.61-10.43-2.44-9.12-2.1-8.83-2.51-9.37-4.37-5.58-17.15-4.42-25.59,0-6.73,3.53-5.26,5.9-15.38,14.16-1.07.88-3.58,2.88-3.27,5.1.22,1.59,1.79,2.57,2.06,2.74,3.24,2.03,7.24-.56,13.17-2.28,2.31-.67,10.59-3.12,19.42-1.45,6.03,1.14,9.83,3.67,12.72,1.52,2.18-1.62,1.96-4.48,3.29-4.58,1.91-.14,5.08,5.49,3.48,8.08-1.57,2.56-7.11,1.04-15.9.08-3.81-.42-16.68-1.65-27.25-.13-16.32,2.36-26.26,11.18-27.75,9.09-.66-.93,1.26-3.43,5.1-8.43,4.52-5.88,7.3-9.51,12.11-13.56Z"/>
    <path class="cls-5" d="M223.76,137.32c1.12-.58,3.16,5.37,9.64,9.54,5.17,3.32,10.62,3.88,15.72,4.4,6.06.62,6.48-.34,11.88,0,9.13.57,15.83,3.79,21.46,6.49,6.76,3.25,11.77,5.73,15.57,11.27,1.91,2.79,1.15,2.89,3.18,6,4.01,6.15,8.34,7.76,15.31,13.25,3.52,2.77,5.85,5.12,10.51,9.82,6.73,6.79,11.43,11.54,15.31,18.05,5.45,9.16,6.81,17.72,7.54,22.62,2.01,13.48-1.56,16.42-1.83,36.55-.29,21.82,2.55,26.29,5.48,28.56,7.06,5.47,18.44,1.09,18.96,3.43.36,1.62-4.93,4.7-9.98,5.57-3.24.56-6.2-.07-12.13-1.32-6.11-1.29-7.03-2.25-7.46-2.82-1.69-2.25-.15-4.32.1-9.88.14-3.19.51-11.19-3.2-18.05-.91-1.68-2.47-4.06-2.07-7.09.2-1.49.73-2.09,1.38-3.88.87-2.39,1-4.29,1.14-8,.29-7.79.44-11.69.23-15.31-.33-5.64-.58-9.97-1.87-14.9-2.14-8.18-5.99-13.58-10.7-20.06-4.49-6.18-8.63-10.29-16.91-18.51-8.16-8.1-7.61-6.75-13.71-13.02-10.37-10.68-10.56-13.16-16.45-16.22-6.72-3.48-13.97-4.14-16.45-4.34-6.58-.54-6,.9-11.12.08-9.01-1.45-11.69-6.07-17.9-4.65-1.78.41-3.97,1.34-5.22.24-1-.88-.47-2.24-1.41-4.58-.76-1.89-1.69-2.47-2.74-3.88-2.71-3.65-3.28-8.85-2.28-9.37Z"/>
    <path class="cls-5" d="M67.95,251.78c-4.07,1.27-11.31-11.21-12.55-13.35-.61-1.05-3.25-5.67-5.72-13.15-2.86-8.64-4.94-14.93-2.48-17.12,3.13-2.79,9.67,4.56,15.73,2.5,8.4-2.84,3.18-19.42,11.19-33.13,10.59-18.1,31.01-8.53,65.11-30.61,16.28-10.54,16.89-15.43,28.79-18.28,19.85-4.75,30.14,6.66,42.04-.69,13.34-8.24,13.8-30.87,19.64-30.15,1.83.23,3.66,2.69,5.72,5.47,2.01,2.72,3.48,4.69,2.83,6.19-.95,2.21-5.42.51-9.46,3.64-2.15,1.66-3.18,3.65-3.88,5.03-5.5,10.82.55,25.65.91,26.5,1.93,4.57,4.56,8.42,3.2,9.82-.69.72-1.65-.02-4.57.23-4.23.36-5.56,2.18-7.77,1.37-1.36-.5-2.03-1.63-2.74-2.74,0,0-1.05-1.64-7.18-9.62-4.61-5.99-13.69-6.65-22.52-7.29-2.7-.2-7.87-.53-13.94.69-11.17,2.25-14.97,7.68-26.98,15.48-11.56,7.51-23.45,15.24-39.47,18.23-5.24.98-12.19,1.69-18.77,6.95-2.05,1.64-6.93,5.66-8,11.88-.7,4.1.89,5.4,2.06,12.34,1.23,7.31.67,13.08.28,17.16-.35,3.6-1.08,10.68-4.16,18.25-1.14,2.8-1.21,2.25-4.11,8.68-2.08,4.62-2.28,5.43-3.2,5.71Z"/>
    <path class="cls-5" d="M128.24,338.14c-1.35-2.28-2.83-4.82-4.08-8.46-1.67-4.84-3.23-12.49-1.83-13.1,2.2-.95,8.37,16.93,19.4,29.93,26.52,31.27,76.93,29.41,91.78,28.85,12.82-.47,35.19-1.56,59.09-15.23,20.52-11.73,32.06-26.96,34.42-30.16,10.85-14.69,14.67-28.09,15.65-27.7,1.07.42-1.97,16.75-11.66,32.12-9.89,15.69-22.69,23.96-31.71,29.7-34.43,21.9-69.47,21.51-76.46,21.32-5.34-.14-25.44-1.01-48.74-10.66,0,0-23.04-9.78-37.01-24.8-5.12-5.51-8.86-11.83-8.86-11.83Z"/>
    <path class="cls-5" d="M305.39,359.53c1.98,1.72,5.02,3.76,8.72,3.73,4.71-.05,9.26-3.47,19-18.04,11.48-17.18,9.2-18.48,14.32-23.15,11.88-10.85,23.04-1.22,33.51-11.27,11.82-11.34,4.05-23.39,17.06-43.56,9.16-14.21,15.24-11.69,20.71-23.76,6.48-14.3,5.77-35.12-4.87-47.82-2.44-2.91-12.09-8.85-31.37-20.71-7.85-4.83-14.91-8.97-16.14-16.14-.39-2.28.29-6.15-1.83-10.97-.23-.52-2.25-5.11-3.53-4.82-1.75.39-2.49,9.9.74,17.9,1.45,3.59,3.91,7.43,11.94,14.03,15.76,12.96,21.48,10.65,29.95,20.34,1.42,1.62,7.49,8.82,9.98,19.99.87,3.91,3.38,15.2-2.16,26.08-2.54,4.99-6.06,8.5-9.14,11.58-5.55,5.54-6.9,4.86-11.27,9.14-9.42,9.22-12.17,21.19-12.47,22.55-1.31,6.01-.27,7.85-2.46,14.31-1.74,5.12-2.96,8.72-6.4,11.27-5.16,3.83-13.54,4.18-19.29,1.35-2.8-1.37-5.34-3.79-7.46-2.82-2.23,1.01-2.32,5.01-2.49,6.95-.79,9.26-6.84,16.27-16.45,27.41-3.98,4.61-10.03,10.7-18.58,16.45Z"/>
    <path class="cls-5" d="M260.85,283.94c2.79-3.01,11.65,8.07,23.22,7.13,11.7-.95,11.86-12.96,30.16-20.1,7.58-2.96,10.65-2.11,14.85-6.17,7.13-6.9,6.97-17.74,6.85-21.02-.39-10.63-4.98-18.32-8.45-23.99-6.17-10.06-9.6-10.24-20.79-25.13-4.44-5.91-10.05-14.07-9.37-14.62.4-.33,2.78,2.11,11.65,10.97,13.71,13.69,13.99,13.83,15.76,15.99,4.28,5.23,9.02,11.02,12.35,19.87,3.13,8.31,3.33,14.85,3.63,24.68.22,6.98.7,22.8-3.87,24.01-1.78.47-2.4-1.79-5.49-2.76-5.75-1.8-10.58,3.86-25.43,13.59-6.42,4.2-9.62,6.31-14.55,8.57-6.36,2.92-7.63,2.48-13.48,5.71-3.23,1.78-4.17,2.65-6.02,2.51-5.28-.39-8.59-8.29-9.52-10.51-1.43-3.43-2.99-7.15-1.52-8.73Z"/>
    <path class="cls-5" d="M204.11,151.79c1.78-4.88-12.75-13.33-11.73-14.93.69-1.09,8.22,1.61,14.37,6.83.78.66,10.09,8.64,8.34,11.81-.47.85-1.46.85-5.96,1.76-2.65.54-5.26,1.3-7.92,1.83-3.08.61-25.2,6.12-47.82,23.15-8.79,6.62-21.28,16.02-31.37,33.2-2.21,3.77-12.06,21.11-13.4,45.39-.93,16.86,2.3,35.9,10.05,38.38,1.11.36,2.65.48,3.96,1.83,3.34,3.45.49,9.99-.3,15.54-1.9,13.31,7.47,25.18,11.88,30.77,4.17,5.28,10.09,9.51,21.93,17.97,5.22,3.73,7.88,5.03,8.83,5.48,4.74,2.25,7.33,2.47,7.31,3.35-.05,1.71-9.92,3.08-17.92,3.23-2.91.05-6.51.11-11.28-.58-2.91-.42-13.19-2.1-24.18-8.96-3.84-2.4-6.29-3.96-8.46-7.09-2.15-3.11-1.93-4.73-4.26-11.27-3.02-8.45-5.83-12.57-5.17-13.01.66-.43,4.05,3.25,6.69,6.91,6,8.35,4.87,12.13,8.53,16.75,7.06,8.92,23.13,9.83,24.98,6.4.78-1.46-1.73-4.74-6.79-11.22-4.77-6.12-8.73-10.34-9.35-11.02-7.97-8.63-8.07-18.74-11.42-31.53-5.5-20.95-12.41-21.12-16.3-35.49-9.72-35.9,22.9-73.7,27.07-78.54,13.94-16.18,31.55-26.21,41.77-32.03,11.48-6.54,17.22-9.81,24.83-11.27,6.86-1.32,12.12-.96,13.1-3.66Z"/>
    <path class="cls-5" d="M109.52,251.83c1.34-.07-1.27,21.54,8.99,27.29,6.73,3.77,15.84-1.06,17.44-1.9,7.23-3.83,10.59-11.04,16.37-22.93,2.3-4.72,2.18-5.29,5.03-10.97,2.9-5.78,8.77-16.68,10.01-16.15.73.31-.85,4.33-3.01,14.02-2.65,11.92-1.97,13.73-4.57,21.32-1.41,4.1-.9,1.37-5.79,12.18-.8,1.77-1.6,3.57-3.5,4.72-2.28,1.37-4.28.68-7.11.78-5.84.22-10.19,3.68-11.47,4.7-5.17,4.11-7.16,10.05-7.92,12.34-1.34,4.02-.89,5.51-1.83,5.79-2.95.86-11.16-12.91-13.1-26.96-.36-2.62-.49-5.12-.58-7-.43-8.66.19-17.2,1.03-17.24Z"/>
    <path class="cls-5" d="M151.62,183.59c.24.4,4.95-2.57,15.03-6.67,10.05-4.09,19.95-8.13,21.78-5.64,1.52,2.07-4.03,6.6-9.44,17.06-6.71,12.97-8.21,25.4-7.3,25.71.88.3,2.9-11.11,12.63-23.73,2.21-2.86,8.67-11.25,15.84-17.52.07-.06,2.85-2.49,6.09-6.24,3.82-4.42,5.73-6.63,5.18-7.77-1.33-2.76-16.6,1.1-29.09,6.24-18,7.41-31.13,17.87-30.71,18.55Z"/>
    <path class="cls-5" d="M64.93,316.58c-1.92-.71.74-21.08,7.58-22.19,3.88-.63,7.65,5.19,13.84,14.98,3.66,5.79,8.87,14.95,18.3,37.37,3.74,8.9,3.96,9.91,5.79,12.49,8,11.29,20.35,15.13,23.76,16.14,10.79,3.2,23.44,2.7,29.85.91.89-.25,3.36-1,6.7-.91,4.92.12,8.51,1.98,9.44,2.44,7.57,3.7,30.46,8.29,46.91,8.53,15.74.23,27.06-3.5,46-9.75,14.95-4.93,22.43-7.4,26.2-12.49.79-1.06,2.79-4.05,6.09-4.57,3.53-.56,5.94,2.1,8.72,3.73,10.46,6.13,31.19.64,41.45-8.84,1.64-1.52,4.39-4.41,6.54-3.64,1.81.65,2.27,3.57,3,8.14.81,5.06,1.25,7.83-.15,10.97-.23.51-2.63,5.56-6.34,5.73-3.4.15-4.33-3.97-8.13-5.73-5.8-2.68-12.09,3.01-20.58,6.62-11.13,4.74-13.74.67-29.99,3.44-9.39,1.6-7.7,2.82-34.73,12.49-22.13,7.92-28.59,9.01-34.42,9.44-10.42.78-18.67-.54-22.24-1.22-20.33-3.85-21.69-12.04-38.99-15.23-16.14-2.98-17.57,3.79-33.38-.41-4.51-1.2-17.91-4.94-27.85-16.65-3.82-4.5-4.61-7.22-9.75-18.58-12.12-26.82-19.44-42.73-25.89-42.04-4.64.5-6.47,9.31-7.74,8.83Z"/>
    <path class="cls-3" d="M70.58,144.22c1.41,3.99,4.82,6.9,6.58,5.57,2.49-1.88-.63-10.5,2.26-20.41,2.57-8.82,9.33-13.67,10.9-14.85,5.26-3.92,10.74-5.31,11.67-5.53,4.81-1.17,7.9-.67,8-1.37.15-1.08-6.97-4.53-14.31-3.61-8.96,1.11-14.86,8-17.69,12.37-.71,1.1-11.07,17.46-7.41,27.84Z"/>
    <path class="cls-3" d="M217.06,168.54c.2,1.5,4.7,2.16,7.62,2.13,4.68-.05,10.12-1.95,10.05-3.66-.06-1.59-4.94-3.09-9.14-2.74-4.26.36-8.74,2.7-8.53,4.26Z"/>
    <path class="cls-3" d="M199.39,210.58c.34,1.35,5.02,1.24,6.09,1.22,9.54-.23,11.4-6.58,18.8-6.66,5.75-.06,6.39,3.76,15.32,4.53,2.71.23,8.46.38,8.74-.91.42-1.95-11.4-8.51-24.27-8.23-13.21.29-25.26,7.72-24.67,10.05Z"/>
    <path class="cls-3" d="M86.65,202.83c1.27.87,3.34-.75,4.42-2.57,1.38-2.32.78-4.29,1.52-6.63.96-3.04,3.4-4.17,7.46-5.88,12.62-5.32,17.45-6.37,17.92-10.21.03-.25.21-1.69-.46-2.63-1.53-2.16-5.69.95-13.43,4.13-9.17,3.77-11.89,2.92-15.16,7.32-.62.84-2.82,3.96-3.37,8.83-.07.65-.72,6.39,1.09,7.63Z"/>
    <path class="cls-3" d="M158.27,150.57c.25,1.45,2.82,2.08,3.05,2.13,3.29.77,4.68-1.84,9.44-3.35,5.87-1.86,9.35.32,11.58-2.44.08-.1,1.55-1.96.91-3.35-1.21-2.65-9.18-1.75-14.62,0-4.48,1.44-10.76,4.6-10.36,7.01Z"/>
    <path class="cls-3" d="M234.42,118.59c-.01,1.04,1.75,1.83,2.44,2.13,6.57,2.94,15.85-1.73,21.32-7.31,1.04-1.05,9.09-9.44,6.4-15.54-.18-.4-1.18-2.67-2.74-2.74-3.34-.16-3,10-10.05,16.14-7,6.1-17.33,4.8-17.36,7.31Z"/>
    <path class="cls-3" d="M326.11,124.07c-.09.87,6.93,0,12.18,4.87,5.42,5.03,4.9,12.43,8.53,12.79,1.35.13,2.74-.76,3.35-1.83,2.03-3.55-3.07-11.54-9.75-14.93-6.67-3.38-14.22-1.81-14.32-.91Z"/>
    <path class="cls-3" d="M398.07,197.86c-1.78.22-3.25,2.41-3.66,4.34-1.3,6.18,8.41,8.95,9.14,16.91.63,6.97-6.33,10.18-4.34,16.22.93,2.83,3.61,5.59,5.71,5.25,3.69-.59,5.74-10.72,5.25-18.73-.73-12.02-7.5-24.56-12.11-23.99Z"/>
    <path class="cls-3" d="M418.41,307.06c1.23-3.07,4.5-4.45,7.08-4.57,1.77-.08,5.13.35,6.17,2.51,1.49,3.09-2.37,8.49-6.85,9.6-.6.15-3.54.87-5.48-.91-1.9-1.74-1.65-4.79-.91-6.63Z"/>
    <path class="cls-3" d="M144.41,294.04c-1.33,1.75-.79,4.55,1.17,6.09,3.26,2.56,7.99-.33,16.32.3,11.91.9,17.38,7.96,21.76,5.79,2.08-1.03,2.81-3.58,2.33-5.48-1.95-7.68-24.73-8.65-29.15-8.83-9.83-.42-11.77,1.26-12.44,2.13Z"/>
    <path class="cls-3" d="M150.16,195.37c-.27,2.13,3,4.61,5.94,5.03,6.22.88,11.33-7.4,10.05-9.6-1.61-2.76-15.47.44-15.99,4.57Z"/>
    <path class="cls-3" d="M269.51,181.81c-1.57,2.48-.14,7.94,1.99,11.08.45.66,3.68,5.43,7.47,3.91,3.14-1.26,4.99-6.18,4.38-9.66-1.17-6.59-11.39-9.18-13.84-5.33Z"/>
    <path class="cls-3" d="M224.67,428.37c-1.03.91,2,8.35,7.77,11.88,11.49,7.04,29.4-4.15,29.01-5.48-.33-1.16-14.26,5.73-27.41-.69-5.37-2.62-8.53-6.45-9.37-5.71Z"/>
    <path class="cls-3" d="M105.96,384.9c-1.57.9-.13,10.02,5.98,15.34,6.78,5.89,17.28,5.38,17.82,3.66.37-1.16-3.95-2.38-11.42-8.22-8.51-6.65-11.13-11.49-12.38-10.77Z"/>
    <path class="cls-3" d="M82.12,339.7c1.79-2.25-1.61-11.74-3.87-16.49-1.49-3.13-4.04-8.47-6.27-7.77-2.11.66-3.31,6.47-2.7,11.03,1.27,9.55,10.79,15.83,12.85,13.23Z"/>
    <path class="cls-3" d="M314,292.35c1.53-3.79,5.63-5.51,8.85-5.66,2.21-.1,6.41.43,7.71,3.11,1.86,3.83-2.96,10.51-8.57,11.88-.75.18-4.43,1.08-6.85-1.13-2.37-2.16-2.06-5.93-1.14-8.2Z"/>
    <g id="lignes">
      <path class="cls-6" d="M290.56,122.04c13.08,10.49,21.95,27.19,20.56,44.22-.43,5.65-2,11.17-4.45,16.18-.21.44-.74.62-1.18.41-.41-.2-.59-.67-.45-1.08,5.56-15.2,3.17-32.34-5.64-45.8-2.86-4.52-6.21-8.77-10.01-12.61-.77-.75.32-2.02,1.18-1.32h0Z"/>
      <path class="cls-6" d="M315.05,158.76c11.77-3.07,20.14-12.53,21.99-24.52.09-.58.99-.53,1,.07.54,12.78-10.35,24.04-22.79,25.43-.6.07-.79-.82-.19-.98h0Z"/>
      <path class="cls-6" d="M317.49,186.33c13.49-3.65,24.92-12.46,32.55-24.11.31-.48,1.11-.07.89.46-5.3,13.51-18.92,23.17-33.25,24.63-.59.06-.77-.81-.19-.98h0Z"/>
      <path class="cls-6" d="M255.99,125.6c6.61,7,14.78,13.37,24.53,14.62,3.37.33,6.76-.19,10.2.87,4.67,1.3,8.53,4.47,11.09,8.23.33.46-.32,1.05-.75.66-4.86-4.36-10.65-7.3-17.33-6.64-4.64.21-9.49-1.04-13.58-3.27-2.07-1.13-3.94-2.36-5.8-3.75-3.67-2.79-6.81-6.24-9.16-10.13-.3-.5.39-1.05.8-.6h0Z"/>
      <path class="cls-6" d="M261.35,143.28c5.67,4.41,11.75,8.77,18.8,10.2,7.4.75,15.23,3.58,20.45,9.11.41.4-.14,1.1-.62.78-4.68-2.88-9.59-5.06-14.94-6.06-1.83-.39-3.61-.45-5.5-.87-3.88-.81-7.44-2.56-10.57-4.75-3.14-2.19-5.91-4.82-8.32-7.7-.38-.44.24-1.1.7-.72h0Z"/>
      <path class="cls-6" d="M352.47,196.13c-2.85,10.68-5.16,22.43-6.82,33.36-.08.57-.97.53-1-.05-.43-5.78.16-11.6,1.32-17.26,1.19-5.66,2.95-11.23,5.56-16.4.25-.52,1.09-.21.94.35h0Z"/>
      <path class="cls-6" d="M358.76,220.79c2.24-10.13,10.07-18.82,20.09-21.71.57-.17.91.66.37.93-6.55,3.35-12.09,8.41-16.12,14.54-1.33,2.05-2.44,4.25-3.39,6.55-.21.56-1.1.28-.95-.3h0Z"/>
      <path class="cls-6" d="M343.88,235.9c7.33-3.28,17.62-7.7,24.74-11.14,8.11-4.36,17.9-6.01,26.81-3.36.58.17.41,1.08-.22.97-4.4-.78-8.89-.82-13.23-.08-4.34.75-8.42,2.47-12.61,4.15-7.34,2.87-17.73,7.3-25.1,10.38-.58.25-1-.66-.39-.92h0Z"/>
      <path class="cls-6" d="M365.29,238.24c5.64,5.02,12.75,7.81,20.17,8.92.58.08.53.98-.06,1-7.83.34-15.53-3.56-20.8-9.2-.42-.44.24-1.13.69-.72h0Z"/>
      <path class="cls-6" d="M345.11,244c.32,13.27,6.98,26.17,17.54,34.18.51.38-.06,1.19-.59.81-11.26-7.83-18.11-21.28-17.95-34.97,0-.63.98-.67,1-.01h0Z"/>
      <path class="cls-6" d="M394.69,156.48c8.73,11.55,14.97,25.35,16.54,39.82.06.6-.86.77-.99.15-2.12-10.53-5.41-20.85-10.68-30.25-1.74-3.13-3.62-6.19-5.68-9.13-.37-.51.41-1.11.81-.59h0Z"/>
      <path class="cls-6" d="M377.85,162.94c1.9,4.49,4.96,8.29,9.43,10.32,4.44,2.2,8.84,4.7,13.04,7.38.52.32.05,1.16-.49.87-3.95-1.76-9.49-4.62-13.43-6.52-4.77-2.14-8.25-6.69-9.48-11.73-.15-.58.7-.88.95-.33h0Z"/>
      <path class="cls-6" d="M416.85,152.78c2.25,7.99-.31,17.47-7.17,22.43-.48.37-1.09-.35-.64-.76,4.28-4.07,7.06-9.62,7.27-15.55.08-1.96-.06-3.94-.43-5.89-.12-.61.81-.84.97-.23h0Z"/>
      <path class="cls-6" d="M428.29,172.93c.41,8.35-4.58,16.95-12.38,20.23-.55.24-.98-.56-.46-.89,5.02-3.13,9-7.87,10.73-13.55.58-1.88.95-3.83,1.11-5.81.04-.61.98-.61,1,.02h0Z"/>
      <path class="cls-6" d="M437.09,207.86c.07,7.05-1.57,14.25-5.08,20.42-3.46,6.02-6.28,12.24-8.64,18.76-.2.56-1.09.33-.96-.28,1.47-6.85,4.26-13.48,7.8-19.49,1.7-2.96,3-6.09,3.98-9.36.96-3.27,1.55-6.66,1.91-10.09.05-.6,1-.58,1,.05h0Z"/>
      <path class="cls-6" d="M416.98,238.05c-.08,4.86-1.17,9.81-3.27,14.24-1.31,2.9-3.41,5.52-4.9,8.22-2.14,4.12-3.28,8.4-4.4,13.01-.07.27-.34.44-.62.38-.2-.05-.35-.21-.38-.4-.61-3.25-.29-6.65.69-9.85,1.88-6.34,6.96-10.65,9.15-16.77,1.17-2.86,2.04-5.87,2.73-8.96.12-.57,1.01-.48.99.12h0Z"/>
      <path class="cls-6" d="M415.92,279.54c3.06-.87,5.88-2.45,8.05-4.63,2.16-2.21,3.49-5.1,5.25-7.96,3.37-5.92,9.8-9.75,16.38-10.93.59-.11.84.75.27.96-4.48,1.73-8.7,3.94-11.97,7.42-3.44,3.56-4.81,8.32-8.65,11.83-2.56,2.34-5.79,3.79-9.11,4.29-.6.09-.81-.81-.21-.98h0Z"/>
      <path class="cls-6" d="M436.26,233.47c-7.46,25.15-23.91,47.61-45.74,62.18-3.12,2.07-6.33,4-9.65,5.72-.25.13-.55.03-.67-.21-.12-.23-.04-.51.17-.65,3.1-2.03,6.16-4.1,9.1-6.34,14.76-11,27.27-25,36.42-40.98,3.66-6.4,6.78-13.11,9.44-20.02.1-.26.39-.39.65-.29.25.09.37.36.3.61h0Z"/>
      <path class="cls-6" d="M385.49,308.59c3.45,1.25,6.97,2.08,10.61,2.29,3.72.04,7.63-.31,11.26.82,2.47.64,4.83,1.63,7.04,2.84.24.13.33.44.2.68-.12.23-.41.32-.64.22-2.25-.98-4.57-1.77-6.94-2.29-3.65-.91-7.27-.5-10.99-.51-3.83-.15-7.65-1.23-10.96-3.13-.52-.29-.14-1.12.42-.91h0Z"/>
      <path class="cls-6" d="M295.68,202.16c4.03,4.47,6.73,10.18,7.82,16.1.18.76.82,8.12-.97,6.16-.75-1.87-1.27-3.71-1.83-5.53-1.02-3.67-2.12-7.29-3.59-10.83-.7-1.78-1.49-3.54-2.27-5.35-.24-.5.47-.96.84-.55h0Z"/>
      <path class="cls-6" d="M282.31,212.08c18.82,11.68,32.79,31.6,36.51,53.51.09.57-.77.83-.97.25-5.26-15.39-13.34-29.69-24.42-41.63-3.66-3.98-7.59-7.72-11.72-11.32-.45-.37.08-1.14.59-.81h0Z"/>
      <path class="cls-6" d="M320.41,236.29c2.94,6.2,4.14,14.11.93,20.43-.25.47-1.01.23-.96-.29.22-3.38.83-6.57.71-9.93-.1-3.33-.69-6.62-1.61-9.85-.17-.57.67-.9.93-.36h0Z"/>
      <path class="cls-6" d="M281.7,255.17c9.23-1.83,19.22-.63,27.5,3.93.55.3.13,1.16-.45.89-8.36-3.9-17.75-5.36-26.87-3.84-.63.1-.81-.85-.18-.98h0Z"/>
      <path class="cls-6" d="M200.03,225.39c12.77-12.12,34.91-13.33,48.64-2.16.42.34.04,1.05-.48.88-11.73-3.71-23.95-4.94-35.89-1.85-3.94.95-7.8,2.34-11.72,3.96-.49.23-.96-.47-.55-.83h0Z"/>
      <path class="cls-6" d="M230.73,235.06c10.21-.96,20.67,2.55,28.39,9.26.48.42-.14,1.18-.65.76-7.59-6.49-17.72-9.75-27.66-9.02-.64.05-.73-.94-.08-1h0Z"/>
      <path class="cls-6" d="M176.73,229.89c18.94-6.38,39.14-.64,52.94,13.73,6.91,6.83,11.42,15.59,14.14,24.83,2.97,8.67,7.25,16.86,12.32,24.67.15.23.09.54-.14.69-.21.14-.48.1-.65-.08-7.99-8.59-13.62-19.39-17.61-30.43-6.27-14.35-18.86-25.96-33.71-30.97-8.57-2.76-17.92-3.01-27.06-1.47-.27.05-.53-.14-.58-.41-.04-.25.11-.49.34-.56h0Z"/>
      <path class="cls-6" d="M237.63,266.77c4.68,8.08,4.81,18.72.58,27.04-1.46,2.78-3.36,5.32-5.83,7.24-.23.18-.55.13-.73-.09-.12-.15-.14-.35-.07-.51l1.63-4.12c2.56-6.6,4.29-13.43,4.16-20.54,0-2.85-.3-5.72-.69-8.68-.09-.53.68-.8.94-.33h0Z"/>
      <path class="cls-6" d="M211.98,238.91c12.37,11.87,14.67,32.82,5.23,47.12-.3.48-1.09.11-.9-.44,4.02-11.41,3.92-23.71-.3-35-1.31-3.76-3-7.39-4.83-11.09-.26-.48.41-.99.8-.6h0Z"/>
      <path class="cls-6" d="M184.24,234.32c13.05,11.89,14.07,34.1,2.78,47.51-.36.45-1.11-.04-.83-.55,7.79-15.07,6.56-32.19-2.71-46.31-.32-.47.35-1.05.76-.64h0Z"/>
      <path class="cls-6" d="M125.48,275.77c-1.43-25.26,6.71-51.39,23.25-70.66.38-.44,1.14.08.8.6-9.98,15.79-17.48,33.09-20.8,51.51-1.13,6.11-1.87,12.3-2.25,18.56-.02.58-.97.64-1,0h0Z"/>
      <path class="cls-6" d="M140.54,225.62c7.08-.75,13.85-4.02,18.91-9,.45-.46,1.18.26.7.71-2.69,2.48-5.73,4.59-9.04,6.13-3.3,1.56-6.83,2.61-10.44,3.15-.66.1-.8-.92-.13-.99h0Z"/>
      <path class="cls-6" d="M137.66,207.2c-1.84,4.87-3.1,9.75-2.82,14.99,0,.28-.22.52-.5.52-.21,0-.39-.12-.47-.3-2.22-5.14-1.24-11.92,2.97-15.78.38-.35,1.01.09.83.56h0Z"/>
      <path class="cls-6" d="M130.13,251.74c3.97-3.2,8.96-5.27,13.98-6.04,4.89-.65,8.71-3.79,11.44-7.81.33-.5,1.14-.03.86.5-1.64,3.48-4.46,6.69-8.1,8.28-3.55,1.45-7.38,1.5-10.89,2.95-2.3.81-4.54,1.82-6.75,2.95-.52.28-1.02-.48-.54-.84h0Z"/>
      <path class="cls-6" d="M123.26,235.99c-.35,3.76-.39,7.35.19,11.03.12,1.22.26,2.43.11,3.78-.03.3-.3.51-.6.48-.14-.02-.27-.09-.36-.19-1.77-2.16-1.95-4.98-1.96-7.64.04-2.66.55-5.32,1.65-7.72.22-.51,1.03-.29.97.26h0Z"/>
      <path class="cls-6" d="M258.32,366.68c27.59-12.42,48.46-31.7,59.09-60.45.1-.26.38-.39.64-.29.24.09.37.35.31.6-.96,3.57-2.19,7.07-3.61,10.49-7.1,17.22-19.8,32.09-35.61,41.94-6.37,3.89-13.27,6.95-20.49,8.65-.52.11-.92-.63-.33-.94h0Z"/>
      <path class="cls-6" d="M307.11,302.69c1.67,10.65-2.14,22.33-10.34,29.47-.43.38-1.09-.22-.73-.68,6.3-8.31,9.98-18.21,10.07-28.72,0-.59.91-.67,1-.07h0Z"/>
      <path class="cls-6" d="M306.79,337.27c6.3-1.89,12.11-5.17,16.83-9.76.44-.44,1.15.24.72.7-2.28,2.49-4.96,4.63-7.88,6.33-2.92,1.71-6.11,2.99-9.41,3.7-.61.13-.85-.78-.25-.97h0Z"/>
      <path class="cls-6" d="M272.9,366.96c2.82.27,5.59.27,8.37-.14.92-.15,1.82-.3,2.83-.16.47.05.63.71.24.97-1.72,1.16-3.83,1.09-5.8,1.17-1.99,0-3.97-.28-5.85-.86-.27-.08-.41-.36-.33-.63.07-.23.3-.37.53-.35h0Z"/>
      <path class="cls-6" d="M281.83,320.4c.95,13.37-4.81,27.88-16,35.7-.46.33-1.05-.31-.67-.74,6.35-7.43,11.61-15.77,13.97-25.32.82-3.14,1.36-6.37,1.71-9.65.05-.59.96-.6,1,.01h0Z"/>
      <path class="cls-6" d="M211.31,322.1c-.12,13.9,6.69,26.6,17.59,35.03.46.35-.02,1.12-.54.84-12.87-6.47-20.05-21.87-18.05-35.94.09-.6,1-.55,1,.07h0Z"/>
      <path class="cls-6" d="M204.14,375.35c4.23-1.89,8.74-3.38,13.4-3.5.29,0,.52.24.51.53,0,.19-.11.35-.26.44-1.03.61-2.12,1.03-3.21,1.42-3.3,1.09-6.71,1.84-10.2,2.08-.54.04-.74-.75-.25-.97h0Z"/>
      <path class="cls-6" d="M170.05,362.7c6.58-2.24,13.42-3.98,20.41-4.11.28,0,.51.24.5.52,0,.21-.13.38-.31.46-3.24,1.38-6.62,2.16-10.05,2.8-3.42.64-6.86,1.16-10.36,1.31-.56.04-.72-.8-.2-.98h0Z"/>
      <path class="cls-6" d="M140.16,334.39c3.65-.11,6.86,1.22,10.16,2.45,3.25,1.28,6.45,2.64,9.48,4.4.48.26.2,1.04-.33.94-1.75-.25-3.46-.62-5.15-1.04-3.37-.86-6.7-1.85-9.93-3.12-.66-.28-6.47-2.93-4.24-3.64h0Z"/>
      <path class="cls-6" d="M155.99,304.96c4.92,9.24,9.75,18.77,12.34,28.94.13.53-.63.86-.92.39-2.92-4.43-4.98-9.25-6.98-14.12-1.97-4.86-3.84-9.76-5.36-14.81-.18-.55.65-.91.92-.39h0Z"/>
      <path class="cls-6" d="M181.61,312.04c-.47,13.24,4.38,26.3,12.97,36.34.4.46-.3,1.13-.74.68-9.6-9.57-14.51-23.6-13.23-37.07.06-.62,1.01-.58,1,.06h0Z"/>
      <path class="cls-6" d="M244.31,325.64c9.28,15.75,9.31,36.81-.92,52.12-.34.5-1.15.06-.86-.5,8.37-15.8,8.88-35.09.9-51.14-.27-.55.56-1.03.88-.47h0Z"/>
      <path class="cls-6" d="M141,310.04c17.13,21.55,39.73,38.7,65.29,48.96,8.47,3.49,17.2,6.31,26.09,8.73.27.07.43.35.35.61-.07.25-.31.4-.55.37-27.66-4.04-53.45-18.08-73.71-37.1-6.78-6.37-12.89-13.42-18.28-20.96-.16-.22-.11-.54.12-.7.22-.15.52-.11.68.1h0Z"/>
      <path class="cls-6" d="M285.47,380.87c4.11,9.72,8.27,19.29,13.48,28.48.29.5-.44,1.02-.82.57-3.56-4.02-6.46-8.62-8.8-13.45-1.19-2.41-2.19-4.92-3.03-7.47-.81-2.57-1.47-5.18-1.8-7.86-.08-.55.75-.79.96-.27h0Z"/>
      <path class="cls-6" d="M279.9,380.25c-4.09,7.72-8.31,15.13-11.52,23.21-3.25,8.03-5.42,16.4-6.96,24.96-.09.57-.99.53-1-.07-.27-13.35,3.43-26.85,10.29-38.3,2.35-3.8,5.09-7.37,8.39-10.4.4-.38,1.07.13.79.61h0Z"/>
      <path class="cls-6" d="M276.65,404.09c1.5,6.94,4.25,13.59,8.86,19.07.4.47-.31,1.12-.74.67-5.14-5.18-8.7-12.27-9.11-19.61-.03-.6.86-.72.99-.14h0Z"/>
      <path class="cls-6" d="M238.28,404.58c12.05-3.03,22.14-10.45,29.85-20.05.36-.46,1.12.05.83.56-6.13,11.1-18.14,18.38-30.47,20.47-.61.1-.82-.81-.21-.98h0Z"/>
      <path class="cls-6" d="M259.55,403c-3.16,10.12-12.47,17.87-22.68,20.21-.56.13-.85-.71-.32-.95,6.83-3.18,12.91-7.73,17.62-13.61,1.6-1.92,3.03-3.97,4.48-6.08.3-.47,1.08-.11.9.43h0Z"/>
      <path class="cls-6" d="M154.52,384.93c10.59,1.04,21.16,2.17,31.68,3.81.27.04.46.3.41.57-.04.26-.28.44-.53.42-5.3-.43-10.59-1.04-15.86-1.7-5.28-.65-10.55-1.34-15.81-2.11-.62-.09-.52-1.05.12-.99h0Z"/>
      <path class="cls-6" d="M136.3,396.51c21.7,4.15,42.93,1.29,63.65-5.91.54-.19.94.62.41.91-14.48,8.12-31.7,10.72-48.12,9.18-5.49-.56-10.92-1.62-16.17-3.21-.57-.18-.39-1.08.23-.97h0Z"/>
      <path class="cls-6" d="M190.1,399.68c-3.54,3.55-7.48,6.58-11.88,8.99-.49.27-1-.41-.6-.8,3.51-3.58,7.5-6.55,11.88-8.99.49-.28,1,.41.6.8h0Z"/>
      <path class="cls-6" d="M101.45,322.62c7.85,1.34,13.96,7.27,17.74,14.01,3.89,6.42,8.94,11.93,14.95,16.44.49.37-.03,1.16-.57.82-6.47-4.08-12.03-9.69-16.09-16.16-2-3.15-4.04-6.15-6.95-8.46-2.8-2.33-5.98-4.13-9.38-5.7-.53-.22-.26-1.08.3-.95h0Z"/>
      <path class="cls-6" d="M104.37,274.45c1.4,5.65,2.15,11.37,2.56,17.15.11,1.93.17,3.86.07,5.81-.01.28-.25.49-.53.48-.22-.01-.4-.16-.46-.37-1.05-3.74-1.6-7.56-2.02-11.4-.4-3.83-.7-7.67-.6-11.56,0-.57.87-.67.99-.11h0Z"/>
      <path class="cls-6" d="M71.67,270.82c11.59,7.87,20.66,19.65,24.96,33.01.18.58-.68.93-.94.35-4.07-9.48-9.71-18.28-16.96-25.64-2.41-2.45-4.97-4.75-7.66-6.92-.48-.38.06-1.16.59-.81h0Z"/>
      <path class="cls-6" d="M112.13,218.77c-2.12,8.6-4.67,17.54-7.24,26.02-.58,4.74-2.8,10.85-5.83,15.22-.34.5-1.15.04-.86-.51,1.25-2.37,2.3-4.83,3.13-7.35.83-2.57,1.41-5.21,1.78-7.88,1.05-3.77,2.71-9.14,3.86-12.94,1.35-4.29,2.72-8.58,4.2-12.84.2-.57,1.11-.34.96.28h0Z"/>
      <path class="cls-6" d="M88.68,211.44c5.09,8.43,3.3,18.89-.8,27.34-.79,1.71-1.71,3.34-2.41,4.98-1.41,3.24-1.35,7.02-.31,10.46.19.59-.73.92-.95.32-1.32-3.58-1.56-7.73-.09-11.32.71-1.79,1.58-3.42,2.3-5.1,3.88-8.19,5.27-17.81,1.36-26.24-.25-.55.59-.99.9-.44h0Z"/>
      <path class="cls-6" d="M103.23,200.89c3.76,9.11,3.89,19.99-.38,29-2.06,4.44-4.4,8.62-6.17,13.13-7.18,18.53-7.22,37.75,4.41,54.51,2.69,3.97,5.78,7.69,9.19,11.13.2.2.19.51,0,.71-.19.19-.48.19-.68.02-20.87-17.97-25.76-42.09-15.65-67.47,1.85-4.63,4.46-8.87,6.57-13.13,4.37-8.41,4.87-18.42,2.71-27.91h0Z"/>
      <path class="cls-6" d="M215.65,96.96c3.7,2.91,3.16,10.06-1.43,11.9-.29.11-.62-.04-.73-.33.11-1.91,1-3.82,1.24-5.66.32-1.81.22-3.48.05-5.42-.07-.47.52-.79.87-.49h0Z"/>
      <path class="cls-6" d="M201.95,95.09c8.49,12.38,5.35,30.43-6.48,39.53-.43.35-1.06-.22-.73-.68,8.37-11.91,11.4-24.43,6.32-38.4-.2-.53.59-.93.9-.45h0Z"/>
      <path class="cls-6" d="M184.61,93.08c4.01,7.46,8.71,14.82,12.94,22.17.27.47-.36.99-.77.64-1.72-1.4-3.24-3.01-4.62-4.72-1.38-1.72-2.63-3.54-3.72-5.46-2.19-3.82-3.94-7.94-4.77-12.28-.11-.54.68-.83.94-.34h0Z"/>
      <path class="cls-6" d="M152.03,111.92c-1.32,5.65-2.16,11.14-1.58,16.9.83,6.01-.37,12.89-4.87,17.24-.38.4-1.06-.07-.82-.56,1.18-2.67,2.02-5.35,2.38-8.06.37-2.7.09-5.37-.15-8.36-.52-6.03.91-12.4,4.11-17.53.28-.48,1.06-.16.92.38h0Z"/>
      <path class="cls-6" d="M120.53,107.77c.75,4.16,2.01,8.25,4.29,11.83,2.36,3.63,4.3,7.63,5.29,11.87.15.61-.78.87-.96.26-1.19-4.1-3.1-7.9-5.42-11.47-2.3-3.73-3.64-8.02-4.19-12.35-.08-.63.87-.79.99-.15h0Z"/>
      <path class="cls-6" d="M90.63,123.12c19.18-.53,38.75,11.73,45.38,29.95.19.52-.54.93-.87.49-8.45-10.82-18.9-19.68-31.59-24.98-4.18-1.76-8.52-3.19-13.03-4.47-.54-.13-.45-.99.12-.99h0Z"/>
      <path class="cls-6" d="M81.54,153.41c5.47-7.38,18.21-14.7,27.52-11.8.46.14.48.83.03,1-3.63,1.56-7.01,2.07-10.62,3.14-5.88,1.79-11.25,4.73-16.23,8.37-.44.35-1.06-.27-.7-.71h0Z"/>
      <path class="cls-6" d="M99.78,167.38c4.77-7.96,16.27-14.6,25.36-10.22.44.22.33.91-.15.99-6.74,1.17-13.2,1.86-18.94,5.8-1.9,1.2-3.71,2.58-5.51,4.08-.41.38-1.07-.18-.76-.64h0Z"/>
      <path class="cls-6" d="M55.54,217.71c1.97-10.3,8.27-20.65,18.02-25.17.49-.22.95.44.57.82-5.37,5.47-10.72,10.86-14.3,17.7-1.24,2.22-2.31,4.55-3.32,6.93-.21.54-1.07.29-.96-.28h0Z"/>
    </g>
  </g>
</svg>