<?xml version="1.0" encoding="utf-8"?>
<!-- Generator: Adobe Illustrator 28.3.0, SVG Export Plug-In . SVG Version: 6.00 Build 0)  -->
<svg version="1.1" id="Calque_1" xmlns="http://www.w3.org/2000/svg" xmlns:xlink="http://www.w3.org/1999/xlink" x="0px" y="0px"
	 viewBox="0 0 500 500" style="enable-background:new 0 0 500 500;" xml:space="preserve">
<style type="text/css">
	.st0{fill:#4C8B25;}
	.st1{fill:#F7FAF7;}
	.st2{fill:#9EE0F2;}
	.st3{opacity:0.15;enable-background:new    ;}
	.st4{fill:#BCBCBC;}
	.st5{fill:#939393;}
	.st6{fill:#878787;}
	.st7{fill:#EDEDED;}
</style>
<g id="border">
	<path class="st0" d="M464.3,500H35.7C16,500,0,484,0,464.3V35.7C0,16,16,0,35.7,0h428.6C484,0,500,16,500,35.7v428.6
		C500,484,484,500,464.3,500z"/>
	<path class="st1" d="M452.4,476.2H47.6c-13.1,0-23.8-10.7-23.8-23.8V47.6c0-13.1,10.7-23.8,23.8-23.8h404.8
		c13.1,0,23.8,10.7,23.8,23.8v404.8C476.2,465.5,465.5,476.2,452.4,476.2z"/>
</g>
<g>
	<g id="Calque_2_00000032625685547467799230000014210431607747738002_">
		<g>
			<ellipse class="st2" cx="250" cy="175" rx="197" ry="119.6"/>
		</g>
		<g>
			<g class="st3">
				<ellipse cx="314" cy="439.4" rx="118.7" ry="5.3"/>
			</g>
			<g>
				<g>
					<g>
						<path class="st4" d="M241.4,439.8h-38.6c-1.7,0-3.1-2-2.9-4.2l2.1-20.4c0.2-1.8,1.4-3.2,2.9-3.2h34.2c1.5,0,2.7,1.4,2.9,3.2
							l2.3,20.4C244.5,437.8,243.2,439.8,241.4,439.8z"/>
					</g>
				</g>
				<g>
					<path class="st5" d="M241.4,439.8h-10.8l-1.7-26.1c3.5-0.3,6.5-0.9,10.1-1.6c1.6,0,2.9,1.4,3,3.2l2.3,20.4
						C244.5,437.8,243.2,439.8,241.4,439.8z"/>
				</g>
			</g>
			<g>
				<g>
					<path class="st6" d="M270,85c-0.3,12.3-18.8,69.6-21.6,76.8c-2.8,7.2-8.8,8.8-12,10.7c-4.1,2.5-10,8.8-10.8,12.5l-1.6-1.2
						l-2.2-1.6c0,0,10.3-29.1,14.2-37.6c5.6-12.3,20.3-45.8,28.1-63.6c2.1-4.8,4-6.8,5-4.9C269.8,77.3,270.1,80.2,270,85z"/>
				</g>
				<g>
					<path class="st4" d="M269.1,76c-0.1,1.3-0.2,2.8-0.3,4.3c-0.9,12.3-20.4,71.6-23.1,78.8c-2.8,7.2-8.7,8.9-12,10.7
						c-5,2.9-8.5,9.8-9.7,13.9l-2.2-1.6c0,0,10.3-29.1,14.2-37.6c5.6-12.3,20.3-45.8,28.1-63.6C266.2,76,268,74.1,269.1,76z"/>
				</g>
			</g>
			<g>
				<g>
					<path class="st4" d="M239,412c-2.8,0.6-5.6,1.1-8.5,1.5c-2.3,0.3-4.7,0.4-7,0.4c-6,0.1-12.1-0.5-18.3-1.9l0.1-1.7l8.8-210.2
						l0.2-5.1h15.6L239,412z"/>
				</g>
				<g>
					<path class="st6" d="M239,412c-2.8,0.6-5.6,1.1-8.5,1.5c0-0.5,0-1-0.1-1.5c-2.6-64.3-4-190.2-5.1-197.4
						c-1.1-7.1-7.8-12.2-11.3-14.5l0.2-5.1h15.6L239,412z"/>
				</g>
				<g>
					<path class="st6" d="M223.5,413.9c-6,0.1-12.1-0.5-18.3-1.9l0.1-1.7C208.7,411.3,217.1,413.6,223.5,413.9z"/>
				</g>
			</g>
			<g>
				<g>
					<path class="st6" d="M306.6,258.1c-11.5-3.8-60.8-35.7-66.9-40.1c-6.1-4.4-6-10-6.9-13.2c-1.2-4.2-5.5-11-8.8-12.7l1.6-1
						l2.3-1.4c0,0,24.8,17,31.8,22.8c10,8.3,37.9,30.2,52.6,41.8c4,3.1,5.4,5.3,3.2,5.6C313.9,260.1,311.1,259.6,306.6,258.1z"/>
				</g>
				<g>
					<path class="st4" d="M315.2,260c-1.2-0.4-2.6-1-4-1.5c-11.3-4.2-62.3-37.6-68.4-42c-6.1-4.4-6.1-10-6.9-13.2
						c-1.4-5.1-6.9-10-10.5-12.2l2.3-1.4c0,0,24.8,17,31.8,22.8c10,8.3,37.9,30.2,52.6,41.8C316.1,257.5,317.4,259.6,315.2,260z"/>
				</g>
			</g>
			<g>
				<g>
					<path class="st6" d="M216.4,185.2l-0.4,2.2v0.2l-0.4,2.2c0,0-29.5,3.1-38.6,3.3c-13,0.2-48.3,1.4-67,2c-3.6,0.1-6-0.3-6.5-1.1
						c0-0.1-0.1-0.1-0.1-0.2c-0.3-1.1,2-2.9,7.7-5.5c10.8-4.8,68.3-12.6,75.7-13.1c7.5-0.6,11.3,4,14.3,5.9
						C204.9,183.4,212.8,186.1,216.4,185.2z"/>
				</g>
				<g>
					<path class="st4" d="M216.4,185.2l-0.4,2.2c-6.3,0.7-30.9,3.4-39.2,3.6c-13.7,0.3-50.9,1.9-70.5,2.7c-1,0.1-2,0.1-2.9,0
						c-0.3-1.1,2-2.9,7.7-5.5c10.8-4.8,68.3-12.6,75.7-13.1c7.5-0.6,11.3,4,14.3,5.9C204.9,183.4,212.8,186.1,216.4,185.2z"/>
				</g>
			</g>
			<g>
				<g>
					<path class="st5" d="M233.5,189.7c0,6.2-5.1,11.3-11.3,11.3c-4.5,0-8.4-2.6-10.2-6.4c-0.7-1.5-1.1-3.1-1.1-4.9
						c0-6.2,5.1-11.3,11.3-11.3c2.9,0,5.6,1.1,7.6,2.9C232,183.4,233.5,186.4,233.5,189.7z"/>
				</g>
				<g>
					<path class="st4" d="M230.2,184.6c0,6.6-5.3,11.9-11.9,11.9c-2.3,0-4.6-0.7-6.4-1.9c-0.7-1.5-1.1-3.1-1.1-4.9
						c0-6.2,5.1-11.3,11.3-11.3c2.9,0,5.6,1.1,7.6,2.9C230,182.3,230.2,183.5,230.2,184.6z"/>
				</g>
			</g>
			<g>
				<g>
					<path class="st4" d="M319.9,269.5c-0.3,0-0.6-0.2-0.8-0.5c-0.2-0.4-0.1-0.9,0.4-1.2l0,0c0.2-0.1,4.8-2.7,5.4-8.6
						c0.1-0.5,0.5-0.8,1-0.8c0.5,0.1,0.8,0.5,0.8,1c-0.7,6.9-6.1,9.8-6.3,9.9C320.2,269.5,320,269.5,319.9,269.5z"/>
				</g>
				<g>
					<path class="st4" d="M325.5,268.9c-0.3,0-0.5-0.1-0.7-0.3c-0.3-0.4-0.2-0.9,0.2-1.2c0.2-0.1,4.3-3.5,3.9-9.5
						c0-0.5,0.3-0.9,0.8-0.9c0.5,0,0.9,0.3,0.9,0.8c0.5,7-4.4,10.8-4.6,11C325.8,268.8,325.6,268.9,325.5,268.9z"/>
				</g>
			</g>
			<g>
				<g>
					<path class="st4" d="M93.9,197.5c-0.4,0-0.8-0.3-0.9-0.8c-0.9-7,3.6-11.1,3.8-11.2c0.4-0.3,0.9-0.3,1.2,0.1
						c0.3,0.4,0.3,0.9-0.1,1.2l0,0c-0.2,0.1-4.1,3.7-3.3,9.7c0.1,0.5-0.3,0.9-0.7,1C94,197.5,93.9,197.5,93.9,197.5z"/>
				</g>
				<g>
					<path class="st4" d="M90.3,199.8c-0.4,0-0.7-0.2-0.8-0.6c-2-6.6,1.7-11.5,1.9-11.7c0.3-0.4,0.8-0.4,1.2-0.2s0.4,0.8,0.2,1.2
						c0,0.1-3.3,4.4-1.6,10.1c0.1,0.5-0.1,0.9-0.6,1.1C90.5,199.7,90.4,199.8,90.3,199.8z"/>
				</g>
			</g>
			<g>
				<g>
					<path class="st4" d="M279.5,76.1c-0.4,0-0.7-0.2-0.8-0.6c-0.1-0.2-1.7-5.2-7.4-7.1c-0.5-0.1-0.7-0.6-0.6-1.1
						c0.1-0.5,0.6-0.7,1.1-0.6c6.6,2.1,8.5,7.9,8.5,8.2c0.1,0.5-0.1,0.9-0.6,1.1C279.6,76.1,279.5,76.1,279.5,76.1z"/>
				</g>
				<g>
					<path class="st4" d="M280,70.6c-0.3,0-0.6-0.2-0.8-0.5c-0.1-0.2-2.6-4.9-8.5-5.7c-0.5-0.1-0.8-0.5-0.7-1c0.1-0.5,0.5-0.8,1-0.7
						c6.9,0.9,9.7,6.4,9.8,6.6c0.2,0.4,0,0.9-0.4,1.2C280.2,70.6,280.1,70.6,280,70.6z"/>
				</g>
			</g>
		</g>
	</g>
	<g id="Calque_3">
		<g>
			<g>
				<path class="st7" d="M379.6,164.6c-2,2.3-5,4.1-8.1,4.3c-5.9,0.4-7.2,0.4-7.2,0.4s-58.9,1.6-78.6,1.6c-1.5,0-3.6-0.4-5.1-1.6
					c-1.5-1.1-2.4-2.9-1.5-5.5c2.3-6.2,7-0.8,7-0.8s0.4-7.5,6.8-11.4c6.3-4,7.4,3.3,7.4,3.3s5-12.6,12.4-15c4.6-1.6,8,1,8,7.2
					c0,0,6.9-10.3,12.5-12.6c6.3-2.7,12.5,0.3,8.5,10.1c0,0,6.9-8.8,13.5-9c6.6-0.3,3.6,12,1.4,14.3c0,0,6.8-5.5,10.4-4.5
					c3,1,1.2,8.3-1,10.9c0.3-0.2,8.1-4.1,13.9-0.4C383.1,158,382.2,161.6,379.6,164.6z"/>
			</g>
			<g>
				<path class="st1" d="M379.6,164.6c-5.8,0.5-7.2,0.5-7.2,0.5s-60.2,3-91.7,4.2c-1.5-1.1-2.4-2.9-1.5-5.5c2.3-6.2,7-0.8,7-0.8
					s0.4-7.5,6.8-11.4c6.3-4,7.4,3.3,7.4,3.3s5-12.6,12.4-15c4.6-1.6,8,1,8,7.2c0,0,6.9-10.3,12.5-12.6c6.3-2.7,12.5,0.3,8.5,10.1
					c0,0,6.9-8.8,13.5-9c6.6-0.3,3.6,12,1.4,14.3c0,0,6.8-5.5,10.4-4.5c3,1,1.2,8.3-1,10.9c0.3-0.2,8.1-4.1,13.9-0.4
					C383.1,158,382.2,161.6,379.6,164.6z"/>
			</g>
		</g>
		<g>
			<g>
				<path class="st7" d="M115.1,113.4c0.9,1,2.2,1.8,3.5,2c2.5,0.3,3.1,0.3,3.1,0.3s25.6,1.3,34,1.5c0.6,0,1.6-0.2,2.3-0.6
					s1-1.2,0.7-2.3c-1-2.7-3-0.4-3-0.4s-0.1-3.2-2.8-5c-2.7-1.8-3.2,1.4-3.2,1.4s-2.1-5.5-5.2-6.7c-2-0.7-3.5,0.3-3.6,3
					c0,0-2.9-4.5-5.3-5.6c-2.7-1.2-5.5,0-3.8,4.3c0,0-2.9-3.9-5.8-4.1c-2.9-0.2-1.7,5.2-0.8,6.2c0,0-2.9-2.5-4.4-2.1
					c-1.3,0.3-0.6,3.6,0.3,4.8c-0.2-0.1-3.5-1.8-6-0.3C113.6,110.5,114,112.1,115.1,113.4z"/>
			</g>
			<g>
				<path class="st1" d="M115.1,113.4c2.5,0.3,3.1,0.3,3.1,0.3s26.1,1.9,39.8,2.8c0.7-0.4,1-1.2,0.7-2.3c-1-2.7-3-0.4-3-0.4
					s-0.1-3.2-2.8-5c-2.7-1.8-3.2,1.4-3.2,1.4s-2.1-5.5-5.2-6.7c-2-0.7-3.5,0.3-3.6,3c0,0-2.9-4.5-5.3-5.6c-2.7-1.2-5.5,0-3.8,4.3
					c0,0-2.9-3.9-5.8-4.1c-2.9-0.2-1.7,5.2-0.8,6.2c0,0-2.9-2.5-4.4-2.1c-1.3,0.3-0.6,3.6,0.3,4.8c-0.2-0.1-3.5-1.8-6-0.3
					C113.6,110.5,114,112.1,115.1,113.4z"/>
			</g>
		</g>
		<g>
			<g>
				<path class="st7" d="M186.6,134.4c-0.9,1-2.2,1.8-3.5,2c-2.5,0.3-3.1,0.3-3.1,0.3s-25.6,1.3-34,1.5c-0.6,0-1.6-0.2-2.3-0.6
					c-0.7-0.4-1-1.2-0.7-2.3c1-2.7,3-0.4,3-0.4s0.1-3.2,2.8-5c2.7-1.8,3.2,1.3,3.2,1.3s2.1-5.5,5.2-6.7c2-0.7,3.5,0.3,3.6,3
					c0,0,2.9-4.5,5.3-5.6c2.7-1.2,5.5,0,3.8,4.3c0,0,2.9-3.9,5.8-4.1c2.9-0.2,1.7,5.2,0.8,6.2c0,0,2.9-2.5,4.4-2.1
					c1.3,0.3,0.6,3.6-0.3,4.8c0.2-0.1,3.5-1.9,6-0.3C188.1,131.5,187.7,133,186.6,134.4z"/>
			</g>
			<g>
				<path class="st1" d="M186.6,134.4c-2.5,0.3-3.1,0.3-3.1,0.3s-26.1,2-39.8,2.8c-0.7-0.4-1-1.2-0.7-2.3c1-2.7,3-0.4,3-0.4
					s0.1-3.2,2.8-5s3.2,1.3,3.2,1.3s2.1-5.5,5.2-6.7c2-0.7,3.5,0.3,3.6,3c0,0,2.9-4.5,5.3-5.6c2.7-1.2,5.5,0,3.8,4.3
					c0,0,2.9-3.9,5.8-4.1c2.9-0.2,1.7,5.2,0.8,6.2c0,0,2.9-2.5,4.4-2.1c1.3,0.3,0.6,3.6-0.3,4.8c0.2-0.1,3.5-1.9,6-0.3
					C188.1,131.5,187.7,133,186.6,134.4z"/>
			</g>
		</g>
	</g>
</g>
</svg>
