<?xml version="1.0" encoding="utf-8"?>
<!-- Generator: Adobe Illustrator 28.3.0, SVG Export Plug-In . SVG Version: 6.00 Build 0)  -->
<svg version="1.1" id="Calque_1" xmlns="http://www.w3.org/2000/svg" xmlns:xlink="http://www.w3.org/1999/xlink" x="0px" y="0px"
	 viewBox="0 0 500 500" style="enable-background:new 0 0 500 500;" xml:space="preserve">
<style type="text/css">
	.st0{fill:#4C8B25;}
	.st1{fill:#F7FAF7;}
	.st2{fill:#313131;}
	.st3{fill:#323232;}
	.st4{fill:#2899CB;}
	.st5{fill:#54A6DC;}
	.st6{fill:#E0E0E0;}
	.st7{fill:#238BAF;}
	.st8{fill:#2BA9E1;}
</style>
<g id="border">
	<path class="st0" d="M464.3,500H35.7C16,500,0,484,0,464.3V35.7C0,16,16,0,35.7,0h428.6C484,0,500,16,500,35.7v428.6
		C500,484,484,500,464.3,500z"/>
	<path class="st1" d="M452.4,476.2H47.6c-13.1,0-23.8-10.7-23.8-23.8V47.6c0-13.1,10.7-23.8,23.8-23.8h404.8
		c13.1,0,23.8,10.7,23.8,23.8v404.8C476.2,465.5,465.5,476.2,452.4,476.2z"/>
</g>
<g>
	<g>
		<g>
			<circle class="st1" cx="249.5" cy="227.7" r="157.7"/>
			<path class="st2" d="M249.5,387.3c-87.9,0-159.6-71.5-159.6-159.6c0-87.9,71.5-159.6,159.6-159.6s159.6,71.6,159.6,159.6
				C409.1,315.8,337.5,387.3,249.5,387.3z M249.5,72.1c-85.8,0-155.7,69.8-155.7,155.7s69.8,155.7,155.7,155.7
				c85.8,0,155.7-69.8,155.7-155.7S335.4,72.1,249.5,72.1z"/>
		</g>
		<g>
			<g>
				<path class="st3" d="M216.8,62.3c-0.9,0-1.7-0.7-1.9-1.5c-0.2-1.1,0.5-2,1.5-2.2c10.8-2.1,22-3.2,33.1-3.2
					c1.1,0,1.9,0.9,1.9,1.9c0,1.1-0.9,1.9-1.9,1.9c-10.9,0-21.8,1.1-32.4,3.1C217,62.2,216.9,62.3,216.8,62.3z"/>
			</g>
			<g>
				<path class="st3" d="M420.1,229.7c-1.1,0-1.9-0.9-1.9-1.9c0-11.5-1.2-22.9-3.5-34c-0.2-1.1,0.5-2,1.5-2.3c1.1-0.2,2,0.5,2.3,1.5
					c2.3,11.4,3.5,23,3.5,34.8C422.1,228.8,421.2,229.7,420.1,229.7z"/>
			</g>
			<g>
				<path class="st3" d="M249.5,400.3c-1.1,0-1.9-0.9-1.9-1.9c0-1.1,0.9-1.9,1.9-1.9c10,0,20.2-0.9,29.9-2.6c1.1-0.2,2,0.5,2.2,1.5
					c0.2,1.1-0.5,2-1.5,2.2C270.1,399.4,259.8,400.3,249.5,400.3z"/>
			</g>
			<g>
				<path class="st3" d="M81.2,258c-1,0-1.7-0.7-1.9-1.6c-1.5-9.4-2.4-19.1-2.4-28.6c0-1.1,0.9-1.9,1.9-1.9s1.9,0.9,1.9,1.9
					c0,9.4,0.8,18.8,2.3,28.1c0.2,1.1-0.6,2-1.5,2.2C81.4,258,81.3,258,81.2,258z"/>
			</g>
		</g>
		<g>
			<g>
				<path class="st3" d="M203.2,58.5c-0.9,0-1.6-0.6-1.8-1.4c-0.3-1.1,0.3-2.1,1.3-2.4c11.1-3,22.6-4.9,34-5.8c1.1-0.1,2,0.8,2,1.8
					c0.1,1.1-0.8,2-1.8,2c-11.3,0.8-22.5,2.7-33.4,5.6C203.5,58.5,203.3,58.5,203.2,58.5z"/>
			</g>
			<g>
				<path class="st3" d="M426.3,217c-1,0-1.8-0.8-1.9-1.8c-0.9-11.9-2.9-23.6-6.1-35c-0.3-1.1,0.3-2.1,1.3-2.4s2.1,0.3,2.4,1.3
					c3.3,11.6,5.3,23.6,6.2,35.8C428.3,216,427.5,216.9,426.3,217C426.4,217,426.4,217,426.3,217z"/>
			</g>
			<g>
				<path class="st3" d="M262.1,406.5c-1,0-1.8-0.8-1.9-1.8c-0.1-1.1,0.8-2,1.8-2c10.4-0.8,20.8-2.4,30.9-4.9
					c1.1-0.3,2.1,0.4,2.3,1.3c0.3,1.1-0.4,2.1-1.3,2.3c-10.2,2.6-20.8,4.3-31.5,5.1C262.2,406.5,262.2,406.5,262.1,406.5z"/>
			</g>
			<g>
				<path class="st3" d="M77.2,271.5c-0.9,0-1.6-0.6-1.8-1.4c-2.3-9.6-3.9-19.6-4.6-29.5c-0.1-1.1,0.8-2,1.8-2c1.1-0.1,2,0.8,2,1.8
					c0.7,9.7,2.2,19.5,4.4,28.9c0.3,1.1-0.4,2.1-1.4,2.3C77.4,271.5,77.4,271.5,77.2,271.5z"/>
			</g>
		</g>
		<g>
			<g>
				<path class="st4" d="M388.3,227.7c0,52.6-29.2,98.4-72.4,122c-19.8,10.8-42.4,16.9-66.4,16.9c-76.7,0-138.9-62.2-138.9-138.9
					c0-49.6,25.9-93,65-117.6c21.4-13.5,46.7-21.2,73.9-21.2C326.1,88.9,388.3,151.1,388.3,227.7z"/>
			</g>
			<g>
				<path class="st5" d="M380.9,232.1c0,49.6-25.9,93-65,117.6c-19.8,10.8-42.4,16.9-66.4,16.9c-76.7,0-138.9-62.2-138.9-138.9
					c0-49.6,25.9-93,65-117.6C195.4,99.3,218,93.2,242,93.2C318.8,93.2,380.9,155.4,380.9,232.1z"/>
			</g>
			<g>
				<path class="st2" d="M249.5,368.5c-77.6,0-140.8-63.2-140.8-140.8S171.8,87,249.5,87s140.8,63.2,140.8,140.8
					S327.1,368.5,249.5,368.5z M249.5,90.8c-75.5,0-136.9,61.4-136.9,136.9S174,364.7,249.5,364.7s136.9-61.4,136.9-136.9
					S325,90.8,249.5,90.8z"/>
			</g>
		</g>
		<g>
			<g id="_x3C_Répétition_radiale_x3E__00000015355870827899600420000008336181786988647099_">
				<g>
					<path class="st2" d="M259.2,353.8l9.6-0.1l-1.4-131.8h-4.1l-5.5,0.1c-1.7,0-3.4,0.2-5,0.6c-4.8,1.1-9.3,3.5-12.8,7
						c-2.8,2.9-4.9,6.4-6.1,10.1c-0.8,2.5-1.3,5.2-1.2,7.9l0.9,81.1C233.8,342.7,245.2,353.9,259.2,353.8z M237.4,328.6l-0.1-4
						l-0.9-77c-0.1-5.8,2.1-11.2,6.2-15.2c4-4.1,9.4-6.4,15.1-6.5l5.6-0.1h0.2l0.1,5.3l1.3,112.8l0.1,5.9l-5.8,0.1
						C247.3,350,237.5,340.4,237.4,328.6z"/>
					<path class="st1" d="M237.4,328.6l-0.1-4l-0.9-77c-0.1-5.8,2.1-11.2,6.2-15.2c4-4.1,9.4-6.4,15.1-6.5l5.6-0.1h0.2l0.1,5.3
						l1.3,112.8l0.1,5.9l-5.8,0.1C247.3,350,237.5,340.4,237.4,328.6z"/>
					<path class="st6" d="M257.8,225.8l5.6-0.1l0.2,5.3l1.3,112.8l-3.2,0.1c-12,0.5-22.2-8-24.3-19.5l-0.9-77
						c-0.1-5.8,2.1-11.2,6.2-15.2C246.7,228.1,252.1,225.9,257.8,225.8z"/>
				</g>
			</g>
			<g id="_x3C_Répétition_radiale_x3E__00000127019559584263702190000004769845756656235416_">
				<g>
					<path class="st2" d="M207.1,346.8l8.8,3.9l52.4-121l-3.8-1.6l-5-2.2c-1.5-0.7-3.2-1.2-4.8-1.5c-4.8-1.1-9.8-0.6-14.6,1.3
						c-3.8,1.5-7,3.9-9.6,6.7c-1.7,1.9-3.2,4.2-4.2,6.7L194,313.5C188.3,326.3,194.2,341.2,207.1,346.8z M197.4,315l1.6-3.8
						l30.6-70.7c2.3-5.3,6.5-9.4,11.9-11.5c5.3-2.1,11.2-2,16.5,0.3l5.1,2.2l0.1,0.1l-2.1,4.9l-44.8,103.5l-2.3,5.4l-5.3-2.3
						C197.8,338.5,192.7,325.9,197.4,315z"/>
					<path class="st1" d="M197.4,315l1.6-3.8l30.6-70.7c2.3-5.3,6.5-9.4,11.9-11.5c5.3-2.1,11.2-2,16.5,0.3l5.1,2.2l0.1,0.1
						l-2.1,4.9l-44.8,103.5l-2.3,5.4l-5.3-2.3C197.8,338.5,192.7,325.9,197.4,315z"/>
					<path class="st6" d="M257.9,229.4l5.1,2.2l-2,4.9l-44.7,103.6l-3-1.2c-11.1-4.4-17-16.4-14.3-27.7l30.6-70.7
						c2.3-5.3,6.5-9.4,11.9-11.5C246.8,227,252.7,227.1,257.9,229.4z"/>
				</g>
			</g>
			<g id="_x3C_Répétition_radiale_x3E__00000073687818734821048870000006165980321674934444_">
				<g>
					<path class="st2" d="M162.3,319.2l6.5,7l97-89.3l-2.8-3l-3.8-4c-1.2-1.3-2.4-2.4-3.8-3.4c-4-2.9-8.8-4.5-13.8-4.8
						c-4-0.2-8,0.6-11.6,2.2c-2.4,1.1-4.6,2.6-6.7,4.4l-59.7,54.9C153.5,292.9,152.9,309,162.3,319.2z M166.4,286.3l3-2.8l56.7-52.2
						c4.2-3.9,9.7-5.9,15.4-5.7c5.8,0.2,11,2.7,14.9,6.9l3.8,4.1l0.1,0.1l-4,3.6l-83,76.4l-4.3,4l-3.9-4.2
						C157.2,308,157.7,294.3,166.4,286.3z"/>
					<path class="st1" d="M166.4,286.3l3-2.8l56.7-52.2c4.2-3.9,9.7-5.9,15.4-5.7c5.8,0.2,11,2.7,14.9,6.9l3.8,4.1l0.1,0.1l-4,3.6
						l-83,76.4l-4.3,4l-3.9-4.2C157.2,308,157.7,294.3,166.4,286.3z"/>
					<path class="st6" d="M256.5,232.6l3.8,4.1l-3.9,3.7l-83,76.4l-2.2-2.3c-8.3-8.6-8.9-21.9-1.7-31l56.7-52.2
						c4.2-3.9,9.7-5.9,15.4-5.7C247.3,225.9,252.7,228.4,256.5,232.6z"/>
				</g>
			</g>
			<g id="_x3C_Répétition_radiale_x3E__00000071557261238937607060000014745695890623591085_">
				<g>
					<path class="st2" d="M132.7,275.9l3.1,9.1l124.9-42l-1.3-3.9l-1.7-5.2c-0.6-1.6-1.3-3.2-2.1-4.6c-2.5-4.2-6.2-7.7-10.7-10
						c-3.7-1.8-7.5-2.7-11.5-2.6c-2.6,0-5.3,0.5-7.9,1.3l-76.9,25.8C135.3,248.3,128.2,262.6,132.7,275.9z M149.9,247.4l3.9-1.3
						l73-24.6c5.4-1.8,11.3-1.4,16.4,1.2c5.1,2.5,9,6.9,10.8,12.4l1.7,5.3v0.1l-5,1.7l-106.9,36.1l-5.6,1.9l-1.8-5.5
						C132.5,263.4,138.6,251.3,149.9,247.4z"/>
					<path class="st1" d="M149.9,247.4l3.9-1.3l73-24.6c5.4-1.8,11.3-1.4,16.4,1.2c5.1,2.5,9,6.9,10.8,12.4l1.7,5.3v0.1l-5,1.7
						l-106.9,36.1l-5.6,1.9l-1.8-5.5C132.5,263.4,138.6,251.3,149.9,247.4z"/>
					<path class="st6" d="M253.9,235.1l1.7,5.3l-5,1.8l-106.9,36.1l-1.1-3c-4.1-11.2,0.8-23.6,11-29.1l73-24.6
						c5.4-1.8,11.3-1.4,16.4,1.2C248.2,225.2,252.1,229.6,253.9,235.1z"/>
				</g>
			</g>
			<g id="_x3C_Répétition_radiale_x3E__00000049201972146375346230000009465607932371798924_">
				<g>
					<path class="st2" d="M123.2,224.3l-0.9,9.5l131.2,12.3l0.4-4l0.5-5.5c0.2-1.7,0.2-3.4,0-5.1c-0.5-4.9-2.5-9.5-5.7-13.5
						c-2.6-3.1-5.8-5.5-9.4-7c-2.4-1.1-5-1.7-7.7-2l-80.7-7.6C136.8,200.1,124.5,210.3,123.2,224.3z M150.4,205.2l4,0.4l76.7,7.2
						c5.7,0.6,10.9,3.3,14.6,7.7c3.7,4.4,5.4,10,4.8,15.7l-0.5,5.6v0.2l-5.3-0.5l-112.3-10.6l-5.9-0.6l0.6-5.7
						C128.2,212.8,138.7,204.1,150.4,205.2z"/>
					<path class="st1" d="M150.4,205.2l4,0.4l76.7,7.2c5.7,0.6,10.9,3.3,14.6,7.7c3.7,4.4,5.4,10,4.8,15.7l-0.5,5.6v0.2l-5.3-0.5
						l-112.3-10.6l-5.9-0.6l0.6-5.7C128.2,212.8,138.7,204.1,150.4,205.2z"/>
					<path class="st6" d="M250.5,236.2l-0.5,5.6l-5.3-0.4l-112.3-10.6l0.2-3.2c0.8-12,10.3-21.2,21.9-22.1l76.7,7.2
						c5.7,0.6,10.9,3.3,14.6,7.7C249.4,224.9,251.1,230.5,250.5,236.2z"/>
				</g>
			</g>
			<g id="_x3C_Répétition_radiale_x3E__00000174560596056084109650000012756664810636249522_">
				<g>
					<path class="st2" d="M135.5,173.2l-4.7,8.4l114.8,64.7l2-3.6l2.7-4.8c0.9-1.5,1.5-3.1,2-4.6c1.5-4.7,1.6-9.7,0.3-14.7
						c-1.1-3.9-3.1-7.4-5.7-10.3c-1.7-1.9-3.9-3.7-6.3-4.9L170,163.5C157.9,156.7,142.4,161,135.5,173.2z M168.2,166.9l3.6,2
						l67.1,37.8c5,2.8,8.6,7.4,10.1,12.9c1.5,5.5,0.9,11.3-1.9,16.3l-2.8,4.9l-0.1,0.1l-4.6-2.6L141.2,183l-5.2-2.9l2.8-5
						C144.8,164.7,157.9,161,168.2,166.9z"/>
					<path class="st1" d="M168.2,166.9l3.6,2l67.1,37.8c5,2.8,8.6,7.4,10.1,12.9c1.5,5.5,0.9,11.3-1.9,16.3l-2.8,4.9l-0.1,0.1
						l-4.6-2.6L141.2,183l-5.2-2.9l2.8-5C144.8,164.7,157.9,161,168.2,166.9z"/>
					<path class="st6" d="M247.1,235.9l-2.8,4.9l-4.7-2.5L141.2,183l1.5-2.8c5.6-10.6,18-15.2,29-11.3l67.1,37.8
						c5,2.8,8.6,7.4,10.1,12.9C250.5,225.1,249.9,230.9,247.1,235.9z"/>
				</g>
			</g>
			<g id="_x3C_Répétition_radiale_x3E__00000017514424730280048770000009011927680960870307_">
				<g>
					<path class="st2" d="M167.6,131.5l-7.7,5.7L238.5,243l3.3-2.4l4.4-3.3c1.3-1.1,2.6-2.1,3.8-3.4c3.3-3.7,5.5-8.2,6.2-13.2
						c0.6-4,0.2-8-1.1-11.8c-0.9-2.5-2-4.9-3.7-7L203,136.8C194.7,125.5,178.8,123.2,167.6,131.5z M200,139l2.4,3.3l45.9,61.8
						c3.5,4.6,4.8,10.3,4,16c-0.9,5.7-3.9,10.7-8.5,14.1l-4.5,3.4l-0.1,0.1l-3.2-4.2l-67.3-90.5l-3.6-4.7l4.6-3.5
						C179.5,127.5,192.9,129.6,200,139z"/>
					<path class="st1" d="M200,139l2.4,3.3l45.9,61.8c3.5,4.6,4.8,10.3,4,16c-0.9,5.7-3.9,10.7-8.5,14.1l-4.5,3.4l-0.1,0.1l-3.2-4.2
						l-67.3-90.5l-3.6-4.7l4.6-3.5C179.5,127.5,192.9,129.6,200,139z"/>
					<path class="st6" d="M243.9,234.2l-4.5,3.4l-3.3-4.1l-67.3-90.5l2.5-1.9c9.4-7.4,22.7-6.6,31,1.5l45.9,61.8
						c3.5,4.6,4.8,10.3,4,16C251.5,225.8,248.5,230.8,243.9,234.2z"/>
				</g>
			</g>
			<g id="_x3C_Répétition_radiale_x3E__00000027578515306340716690000006249420918494652862_">
				<g>
					<path class="st2" d="M213.8,106.5l-9.4,2.1l28.8,128.6l4-0.9l5.4-1.2c1.6-0.4,3.3-0.9,4.8-1.5c4.5-2,8.3-5.3,11.1-9.5
						c2.1-3.5,3.5-7.2,3.9-11.2c0.3-2.6,0.1-5.3-0.5-8l-17.9-79.3C241.1,112.1,227.5,103.4,213.8,106.5z M240.3,126.6l0.9,4
						l16.8,75.1c1.3,5.6,0.3,11.4-2.8,16.2c-3.1,4.8-7.8,8.2-13.5,9.4l-5.5,1.3h-0.1l-1.2-5.2l-24.7-110.1l-1.3-5.8l5.6-1.3
						C226.2,107.7,237.8,115,240.3,126.6z"/>
					<path class="st1" d="M240.3,126.6l0.9,4l16.8,75.1c1.3,5.6,0.3,11.4-2.8,16.2c-3.1,4.8-7.8,8.2-13.5,9.4l-5.5,1.3h-0.1
						l-1.2-5.2l-24.7-110.1l-1.3-5.8l5.6-1.3C226.2,107.7,237.8,115,240.3,126.6z"/>
					<path class="st6" d="M241.8,231.4l-5.5,1.3l-1.3-5.2l-24.7-110.1l3.1-0.8c11.6-2.9,23.4,3.3,27.8,14l16.8,75.1
						c1.3,5.6,0.3,11.4-2.8,16.2C252.2,226.8,247.3,230.1,241.8,231.4z"/>
				</g>
			</g>
			<g id="_x3C_Répétition_radiale_x3E__00000169538466275633073560000013744954466907895435_">
				<g>
					<path class="st2" d="M266.2,102.5l-9.4-1.9l-26,129.2l4,0.8l5.4,1.1c1.7,0.4,3.4,0.5,5,0.5c4.9,0,9.7-1.4,14-4.2
						c3.4-2.2,6.1-5.2,8-8.7c1.3-2.3,2.2-4.8,2.8-7.5l16-79.6C288.8,118.7,279.9,105.3,266.2,102.5z M282.3,131.6l-0.8,4L266.2,211
						c-1.2,5.6-4.4,10.5-9.2,13.7c-4.8,3.2-10.5,4.3-16.1,3.2l-5.5-1.1h-0.2l1.1-5.2L258.6,111l1.2-5.8l5.6,1.2
						C277,108.6,284.7,120,282.3,131.6z"/>
					<path class="st1" d="M282.3,131.6l-0.8,4L266.2,211c-1.2,5.6-4.4,10.5-9.2,13.7c-4.8,3.2-10.5,4.3-16.1,3.2l-5.5-1.1h-0.2
						l1.1-5.2L258.6,111l1.2-5.8l5.6,1.2C277,108.6,284.7,120,282.3,131.6z"/>
					<path class="st6" d="M241,227.9l-5.5-1.1l0.9-5.2L258.6,111l3.2,0.6c11.8,2,20.1,12.4,19.7,24.1l-15.2,75.5
						c-1.2,5.6-4.4,10.5-9.2,13.7C252.4,227.9,246.6,229.1,241,227.9z"/>
				</g>
			</g>
			<g id="_x3C_Répétition_radiale_x3E__00000119093402575587230610000000113512006916306599_">
				<g>
					<path class="st2" d="M315.7,120.1l-7.8-5.6L231.5,222l3.4,2.4l4.4,3.2c1.4,1,2.9,1.8,4.4,2.5c4.5,2,9.5,2.6,14.5,1.8
						c4-0.7,7.7-2.2,10.9-4.6c2.1-1.5,4-3.5,5.6-5.7l47-66.1C329.8,144.1,327.1,128.2,315.7,120.1z M318.6,153.3l-2.3,3.4
						l-44.6,62.8c-3.4,4.7-8.3,7.8-14,8.8c-5.7,1-11.4-0.3-16-3.7l-4.5-3.3l-0.1-0.1l3.1-4.3l65.4-92l3.5-4.8l4.7,3.4
						C323.1,130.1,325.5,143.6,318.6,153.3z"/>
					<path class="st1" d="M318.6,153.3l-2.3,3.4l-44.6,62.8c-3.4,4.7-8.3,7.8-14,8.8c-5.7,1-11.4-0.3-16-3.7l-4.5-3.3l-0.1-0.1
						l3.1-4.3l65.4-92l3.5-4.8l4.7,3.4C323.1,130.1,325.5,143.6,318.6,153.3z"/>
					<path class="st6" d="M241.7,224.5l-4.5-3.3l3-4.4l65.4-92l2.7,1.8c9.9,6.7,13.2,19.6,8.2,30l-44.6,62.8
						c-3.4,4.7-8.3,7.8-14,8.8C252,229.1,246.3,227.8,241.7,224.5z"/>
				</g>
			</g>
			<g id="_x3C_Répétition_radiale_x3E__00000044165339212948523240000010747810883900621726_">
				<g>
					<path class="st2" d="M353.8,156.4l-4.9-8.3l-113.4,67.1l2.1,3.6l2.8,4.7c0.9,1.4,1.8,2.9,3,4c3.3,3.7,7.6,6.3,12.5,7.5
						c4,1,7.9,1.1,11.8,0.2c2.6-0.6,5.1-1.5,7.4-2.9l69.8-41.3C356.9,184,360.9,168.4,353.8,156.4z M342.9,187.8l-3.5,2.1
						l-66.3,39.1c-4.9,2.9-10.7,3.8-16.3,2.3c-5.6-1.4-10.2-4.9-13.1-9.8l-2.9-4.8l-0.1-0.1l4.5-2.7l97.1-57.5l5.1-3l2.9,4.9
						C356.5,168.5,353.1,181.7,342.9,187.8z"/>
					<path class="st1" d="M342.9,187.8l-3.5,2.1l-66.3,39.1c-4.9,2.9-10.7,3.8-16.3,2.3c-5.6-1.4-10.2-4.9-13.1-9.8l-2.9-4.8
						l-0.1-0.1l4.5-2.7l97.1-57.5l5.1-3l2.9,4.9C356.5,168.5,353.1,181.7,342.9,187.8z"/>
					<path class="st6" d="M243.7,221.6l-2.9-4.8l4.5-2.8l97.1-57.5l1.7,2.7c6.4,10.1,4.1,23.2-4.7,30.8l-66.3,39.1
						c-4.9,2.9-10.7,3.8-16.3,2.3C251.2,229.9,246.6,226.5,243.7,221.6z"/>
				</g>
			</g>
			<g id="_x3C_Répétition_radiale_x3E__00000134945477686128067990000007823150163596497316_">
				<g>
					<path class="st2" d="M373.8,205l-1.1-9.5l-130.9,15.1l0.5,4l0.6,5.5c0.2,1.7,0.6,3.4,1.1,4.9c1.5,4.7,4.4,8.9,8.4,12
						c3.2,2.5,6.8,4.2,10.7,5c2.6,0.6,5.3,0.7,8,0.4l80.5-9.4C365.4,231.5,375.4,218.9,373.8,205z M351.1,229.3l-4,0.5l-76.5,8.9
						c-5.7,0.7-11.3-1-15.8-4.5c-4.5-3.6-7.3-8.7-8-14.4l-0.7-5.6v-0.2l5.3-0.6l112.1-13l5.9-0.7l0.7,5.7
						C371.4,217.2,362.9,227.8,351.1,229.3z"/>
					<path class="st1" d="M351.1,229.3l-4,0.5l-76.5,8.9c-5.7,0.7-11.3-1-15.8-4.5c-4.5-3.6-7.3-8.7-8-14.4l-0.7-5.6v-0.2l5.3-0.6
						l112.1-13l5.9-0.7l0.7,5.7C371.4,217.2,362.9,227.8,351.1,229.3z"/>
					<path class="st6" d="M246.7,219.7l-0.7-5.6l5.3-0.8l112.1-13l0.5,3.2c1.7,11.9-5.7,22.9-16.9,26.1l-76.5,8.9
						c-5.7,0.7-11.3-1-15.8-4.5C250.1,230.5,247.3,225.4,246.7,219.7z"/>
				</g>
			</g>
			<g id="_x3C_Répétition_radiale_x3E__00000129183572586117941690000005149194199275475328_">
				<g>
					<path class="st2" d="M372.3,257.5l2.9-9.2L249.4,209l-1.3,4l-1.6,5.2c-0.5,1.6-0.9,3.3-1.1,5c-0.5,4.9,0.4,9.8,2.8,14.4
						c1.9,3.6,4.5,6.7,7.7,8.9c2.1,1.5,4.5,2.7,7.1,3.6l77.4,24.2C353.9,278.3,368.2,270.8,372.3,257.5z M341.7,270.4l-3.9-1.3
						l-73.5-23c-5.5-1.7-9.9-5.5-12.6-10.5c-2.7-5.1-3.2-10.9-1.4-16.4l1.6-5.3v-0.1l5.1,1.5l107.7,33.7l5.7,1.7l-1.7,5.5
						C365.1,267.6,353,274,341.7,270.4z"/>
					<path class="st1" d="M341.7,270.4l-3.9-1.3l-73.5-23c-5.5-1.7-9.9-5.5-12.6-10.5c-2.7-5.1-3.2-10.9-1.4-16.4l1.6-5.3v-0.1
						l5.1,1.5l107.7,33.7l5.7,1.7l-1.7,5.5C365.1,267.6,353,274,341.7,270.4z"/>
					<path class="st6" d="M250.2,219.2l1.6-5.3l5.1,1.4l107.7,33.7l-0.9,3.1c-3.3,11.5-14.5,18.6-26,17.1l-73.5-23
						c-5.5-1.7-9.9-5.5-12.6-10.5C249,230.5,248.5,224.7,250.2,219.2z"/>
				</g>
			</g>
			<g id="_x3C_Répétition_radiale_x3E__00000167359295291691851470000003175813102770088344_">
				<g>
					<path class="st2" d="M349.7,304.9l6.4-7.2l-98.9-87.1l-2.7,3.1l-3.7,4.1c-1.2,1.3-2.1,2.7-3,4.1c-2.5,4.2-3.7,9.2-3.3,14.3
						c0.3,4,1.4,7.9,3.5,11.3c1.3,2.3,3.1,4.3,5.1,6.2l60.8,53.6C324.3,316.3,340.4,315.4,349.7,304.9z M316.4,304.2l-3.1-2.7
						l-57.8-50.9c-4.3-3.8-6.8-9.1-7.2-14.8c-0.4-5.7,1.5-11.3,5.3-15.5l3.7-4.2l0.1-0.1l4,3.5l84.7,74.6l4.4,4l-3.8,4.3
						C338.9,311.2,325.3,312.1,316.4,304.2z"/>
					<path class="st1" d="M316.4,304.2l-3.1-2.7l-57.8-50.9c-4.3-3.8-6.8-9.1-7.2-14.8c-0.4-5.7,1.5-11.3,5.3-15.5l3.7-4.2l0.1-0.1
						l4,3.5l84.7,74.6l4.4,4l-3.8,4.3C338.9,311.2,325.3,312.1,316.4,304.2z"/>
					<path class="st6" d="M253.6,220.3l3.7-4.2l4,3.4l84.7,74.6l-2,2.4c-7.6,9.2-20.8,11.1-30.8,5l-57.8-50.9
						c-4.3-3.8-6.8-9.1-7.2-14.8C247.9,230.1,249.8,224.5,253.6,220.3z"/>
				</g>
			</g>
			<g id="_x3C_Répétition_radiale_x3E__00000060003802886877901290000010002470301936529546_">
				<g>
					<path class="st2" d="M309.5,338.9l8.8-4l-54.9-119.9l-3.8,1.7l-5,2.3c-1.5,0.7-3,1.5-4.4,2.6c-4,2.9-7,6.9-8.8,11.7
						c-1.4,3.8-1.9,7.8-1.4,11.7c0.3,2.6,1,5.2,2.1,7.7l33.7,73.8C281.8,339.1,296.9,344.8,309.5,338.9z M279.5,324.8l-1.7-3.7
						l-32-70.1c-2.4-5.2-2.6-11.1-0.6-16.5c2-5.4,6-9.6,11.2-12.1l5.1-2.3l0.1-0.1l2.2,4.8l47,102.7l2.5,5.4l-5.2,2.4
						C297.2,340.4,284.4,335.6,279.5,324.8z"/>
					<path class="st1" d="M279.5,324.8l-1.7-3.7l-32-70.1c-2.4-5.2-2.6-11.1-0.6-16.5c2-5.4,6-9.6,11.2-12.1l5.1-2.3l0.1-0.1
						l2.2,4.8l47,102.7l2.5,5.4l-5.2,2.4C297.2,340.4,284.4,335.6,279.5,324.8z"/>
					<path class="st6" d="M256.3,222.6l5.1-2.3l2.3,4.8l47,102.5l-2.9,1.4c-10.7,5.3-23.5,1.7-30.1-7.9l-32-70.1
						c-2.4-5.2-2.6-11.1-0.6-16.5C247.1,229.3,251.1,225,256.3,222.6z"/>
				</g>
			</g>
		</g>
		<g>
			<g>
				<path class="st4" d="M225.3,227.7c0-9.4,5.3-17.5,13-21.5c3.4-1.7,7.1-2.8,11.3-2.8c13.4,0,24.2,10.8,24.2,24.2
					c0,7.4-3.4,14.2-8.7,18.6c-4.2,3.6-9.6,5.7-15.5,5.7C236.1,252,225.3,241.1,225.3,227.7z"/>
			</g>
			<g>
				<path class="st5" d="M229.9,224.6c0-7.3,3.3-13.9,8.4-18.3c3.4-1.7,7.1-2.8,11.3-2.8c13.4,0,24.2,10.8,24.2,24.2
					c0,7.4-3.4,14.2-8.7,18.6c-3.3,1.6-6.9,2.6-10.9,2.6C240.8,248.9,229.9,238,229.9,224.6z"/>
			</g>
			<g>
				<path class="st2" d="M234.7,229.7c-1.1,0-1.9-0.9-1.9-1.9c0-9.3,7.5-16.7,16.7-16.7c1.1,0,1.9,0.9,1.9,1.9s-0.9,1.9-1.9,1.9
					c-7.1,0-12.8,5.8-12.8,12.8C236.6,228.8,235.8,229.7,234.7,229.7z"/>
			</g>
			<g>
				<path class="st2" d="M249.5,244.5c-1.1,0-1.9-0.9-1.9-1.9c0-1.1,0.9-1.9,1.9-1.9c7.1,0,12.8-5.8,12.8-12.8
					c0-1.1,0.9-1.9,1.9-1.9s1.9,0.9,1.9,1.9C266.2,237,258.7,244.5,249.5,244.5z"/>
			</g>
			<g>
				<path class="st2" d="M249.5,255c-15,0-27.3-12.2-27.3-27.3c0-15,12.2-27.3,27.3-27.3s27.3,12.2,27.3,27.3
					C276.8,242.8,264.5,255,249.5,255z M249.5,204.4c-12.9,0-23.4,10.5-23.4,23.4s10.5,23.4,23.4,23.4c12.9,0,23.4-10.5,23.4-23.4
					S262.4,204.4,249.5,204.4z"/>
			</g>
		</g>
	</g>
	<g>
		<g>
			<g>
				<path class="st2" d="M429.8,324.3c-8.3,2.4-17.2,1.1-24.4-3.7l-3.2-2c-8.6-5.6-19.1-7-28.7-3.8l-34.6,11.6
					c-7.2,2.4-15,1.9-22-1.3l-14.5-6.9c-7-3.4-15-4.1-22.7-2.2L233.1,328c-5.8,1.4-11.8,1.2-17.4-0.8l-29.3-10.6
					c-6.6-2.4-13.6-2.6-20.3-0.8l-50.3,14.3c-7.4,2.1-15.2,1.3-22-2.4l-15.2-8.2c-7.8-4.1-17.1-5.1-25.6-2.5l-7.9,3.2l0.9,1.8
					c6.4,13.6,14.1,26.5,22.9,38.7c1.2,1.6,2.4,3.3,3.7,4.8l0.9,1.2l6.6-2.6c7.4-2.2,15.6-1.4,22.5,2.2l15.2,8.2
					c4.9,2.7,10.3,4,15.7,4c3,0,6.1-0.4,9.1-1.3l50.6-14.4c6-1.7,12.1-1.4,18,0.7l29.3,10.6c6.3,2.3,13.1,2.6,19.6,1l46.7-12.1
					c6.7-1.7,13.8-1.1,20.1,1.9l14.5,6.9c7.8,3.8,16.7,4.2,24.9,1.5l34.6-11.6c1.8-0.6,3.8-1.1,5.7-1.3c2.4-0.3,4.9-0.3,7.3,0
					c3.9,0.5,7.6,1.7,11.1,3.8l1.3,0.7l1.2-1.4c0.9-1.1,1.4-1.9,2.3-3.2c8.6-12.8,17.3-25.6,23.7-39.6l1.7-3.9L429.8,324.3z
					 M425,360.1c-7.9-4-17.2-4.8-25.7-1.9l-7.1,2.4l-27.5,9.2c-7.2,2.4-15,1.9-22-1.3l-14.5-6.8c-0.7-0.3-1.3-0.6-2-0.9
					c-6.6-2.6-13.8-3.1-20.5-1.3l-5.1,1.3l-41.6,10.7c-5.8,1.4-11.8,1.2-17.4-0.8l-27.5-9.9l-1.8-0.7c-6.6-2.4-13.6-2.6-20.3-0.8
					l-4.9,1.4l-45.4,12.8c-7.4,2.1-15.2,1.3-22-2.4l-15.2-8.2c-1.6-0.9-3.4-1.6-5.2-2.2c-3.5-1.2-7-1.7-10.7-1.7
					c-3.3,0-6.6,0.5-9.6,1.4l-0.8,0.3l-3.3,1.3c-0.3-0.5-0.7-0.9-1-1.3c-9.2-12-17-24.9-23.4-38.4l4-1.5c7.4-2.2,15.6-1.4,22.5,2.2
					l15.2,8.2c7.7,4.1,16.5,5.1,24.9,2.7l50.3-14.3c6-1.6,12.1-1.4,17.9,0.7l29.3,10.6c6.3,2.3,13.1,2.6,19.6,1l46.7-12.1
					c6.7-1.7,13.8-1.1,20.1,1.9l14.5,6.9c7.8,3.8,16.6,4.3,24.9,1.5l34.6-11.6c8.6-2.9,17.8-1.6,25.5,3.3l3.2,2
					c8.2,5.4,18.2,6.8,27.6,4.1l16.8-4.9C441.3,336.1,433.6,348.5,425,360.1z"/>
			</g>
			<g>
				<path class="st4" d="M447.6,323.1c-6.3,13-13.9,25.5-22.7,37c-7.9-4-17.2-4.8-25.7-1.9l-7.1,2.4l-3,1l-24.5,8.2
					c-7.2,2.4-15,1.9-22-1.3l-14.3-6.7l-0.2-0.1c-0.7-0.3-1.3-0.6-2-0.9c-6.6-2.6-13.8-3.1-20.5-1.3l-5.1,1.3l-3.9,1l-37.7,9.7
					c-5.8,1.4-11.8,1.2-17.4-0.8l-24.7-8.9l-2.7-1l-1.8-0.7c-6.6-2.4-13.6-2.6-20.3-0.8l-4.9,1.4l-3.5,1l-41.9,11.9
					c-7.4,2.1-15.2,1.3-22-2.4l-15.2-8.2c-0.9-0.5-1.7-0.9-2.6-1.3c-0.9-0.4-1.7-0.7-2.6-1c-3.5-1.2-7-1.7-10.7-1.7
					c-3.3,0-6.6,0.5-9.6,1.4l-0.8,0.3l-2.5,1l-0.9,0.3c-0.1-0.1-0.2-0.2-0.3-0.3c-0.3-0.3-0.5-0.7-0.8-1c-9.2-12-17-24.9-23.4-38.4
					l4-1.5c7.4-2.2,15.6-1.4,22.5,2.2l15.2,8.2c7.7,4.1,16.5,5.1,24.9,2.7l50.3-14.3c6-1.6,12.1-1.4,17.9,0.7l29.3,10.6
					c6.3,2.3,13.1,2.6,19.6,1l46.7-12.1c6.7-1.7,13.8-1.1,20.1,1.9l14.5,6.9c7.8,3.8,16.6,4.3,24.9,1.5l34.6-11.6
					c8.6-2.9,17.8-1.6,25.5,3.3l3.2,2c8.2,5.4,18.2,6.8,27.6,4.1L447.6,323.1z"/>
			</g>
			<g>
				<path class="st7" d="M74.7,361.6h1.1l-0.9,0.3C74.8,361.8,74.7,361.7,74.7,361.6z"/>
			</g>
			<g>
				<path class="st7" d="M101.9,361.6c0,0,13.1,5.5,23.9,6.5c19.2,1.8,57.9-6.5,57.9-6.5l-41.9,11.9c-7.4,2.1-15.2,1.3-22-2.4
					l-15.2-8.2C103.7,362.3,102.8,362,101.9,361.6z"/>
			</g>
			<g>
				<path class="st7" d="M217,361.6c0,0,24,5.3,34.7,5.3c12.9,0,45-5.3,45-5.3l-37.7,9.7c-5.8,1.4-11.8,1.2-17.4-0.8L217,361.6z"/>
			</g>
			<g>
				<path class="st7" d="M389.1,361.6l-24.5,8.2c-7.2,2.4-15,1.9-22-1.3l-14.3-6.7c0,0,21.1,6,32.9,5.3
					C370.1,366.4,389.1,361.6,389.1,361.6z"/>
			</g>
		</g>
		<g>
			<g>
				<path class="st4" d="M422.4,363c-18.8,24-42.8,44.1-69.6,58.4c-1.5,0.9-3.2,1.6-4.7,2.5c-30.9,15.5-64.1,23.4-98.9,23.4
					c-67.3,0-129.8-30.1-171.8-82.5l2.8-1.1c1.2-0.4,2.4-0.7,3.7-0.9c6.4-1.1,13.1,0,18.8,3.1l15.2,8.2c7.6,4.1,16.5,5.1,24.9,2.7
					l50.3-14.3c6-1.7,12.1-1.4,18,0.7l29.3,10.6c6.3,2.3,13.1,2.6,19.6,1l46.7-12.1c6.7-1.7,13.8-1.1,20.1,1.9l14.5,6.9
					c7.8,3.8,16.7,4.2,24.9,1.5l34.6-11.6C407.6,359.2,415.5,359.7,422.4,363z"/>
			</g>
			<g>
				<path class="st8" d="M422.4,363c-18.8,24-42.8,44.1-69.6,58.4c-30.2,14.3-62.6,21.5-96.4,21.5c-67.1,0-129.6-29.1-172.7-80.1
					c6.4-1.1,13.1,0,18.8,3.1l15.2,8.2c7.6,4.1,16.5,5.1,24.9,2.7l50.3-14.3c6-1.7,12.1-1.4,18,0.7l29.3,10.6
					c6.3,2.3,13.1,2.6,19.6,1l46.7-12.1c6.7-1.7,13.8-1.1,20.1,1.9l14.5,6.9c7.8,3.8,16.7,4.2,24.9,1.5l34.6-11.6
					C407.6,359.2,415.5,359.7,422.4,363z"/>
			</g>
			<g>
				<path class="st2" d="M426.3,360.7c-8.2-4.8-18.1-5.8-27.2-2.8l-34.6,11.6c-7.2,2.4-15,1.9-22-1.3l-14.5-6.8
					c-7-3.4-15-4.1-22.7-2.2l-46.7,12.1c-5.8,1.4-11.8,1.2-17.4-0.8l-29.3-10.6c-6.6-2.4-13.6-2.6-20.3-0.8l-50.3,14.3
					c-7.4,2.1-15.2,1.3-22-2.4l-15-8.3c-7.8-4.1-17.1-5.1-25.6-2.5l-7.8,3.1l1.5,2c42.8,54.7,107.1,86,176.5,86
					c35.4,0,69.2-8,100.7-23.8c29.9-15,56.6-37.1,77-63.8l1.3-1.7L426.3,360.7z M348,424c-30.9,15.5-64.1,23.4-98.9,23.4
					c-67.3,0-129.8-30.1-171.8-82.5l2.8-1.1c7.4-2.2,15.6-1.4,22.5,2.2l15.2,8.2c7.6,4.1,16.5,5.1,24.9,2.7l50.3-14.3
					c6-1.7,12.1-1.4,18,0.7l29.3,10.6c6.3,2.3,13.1,2.6,19.6,1l46.7-12.1c6.7-1.7,13.8-1.1,20.1,1.9l14.5,6.9
					c7.8,3.8,16.7,4.2,24.9,1.5l34.6-11.6c7.3-2.4,15.2-1.9,22.1,1.4C402.4,388.5,376.7,409.5,348,424z"/>
			</g>
		</g>
		<g>
			<path class="st2" d="M169.7,392.5c-0.7,0-1.3-0.3-1.6-0.9c-0.6-0.9-0.3-2.1,0.6-2.7c1.1-0.7,6.6-4,9.7-4h0.1c2.3,0,3.9,1.1,5.2,2
				c1.4,1.1,2.8,1.9,5.4,1.7c1.1-0.1,2,0.7,2.1,1.7c0.1,1.1-0.7,2-1.7,2.1c-4,0.4-6.3-1.3-8-2.4c-1.3-0.9-2-1.3-3.1-1.3
				c-1.5,0-5.5,2-7.8,3.5C170.4,392.4,170,392.5,169.7,392.5z"/>
		</g>
		<g>
			<path class="st2" d="M283.5,428.8c-0.4,0-0.7-0.1-1.1-0.3c-2.3-1.4-6.2-3.5-7.8-3.5l0,0c-1.1,0-1.7,0.5-3,1.3
				c-1.6,1.2-4,2.8-8,2.4c-1.1-0.1-1.8-1.1-1.7-2.1c0.1-1.1,1.1-1.8,2.1-1.7c2.6,0.3,4-0.7,5.4-1.7c1.3-1,3-2,5.3-2
				c3.2,0,8.7,3.4,9.7,4c0.9,0.6,1.2,1.7,0.6,2.7C284.9,428.5,284.2,428.8,283.5,428.8z"/>
		</g>
		<g>
			<path class="st2" d="M148,352.1c-0.4,0-0.7-0.1-1.1-0.3c-2.3-1.4-6.2-3.5-7.8-3.5c-1.1,0-1.8,0.5-3.1,1.3c-1.6,1.2-4,2.8-8,2.4
				c-1.1-0.1-1.8-1.1-1.7-2.1c0.1-1.1,1.1-1.8,2.1-1.7c2.6,0.2,4-0.7,5.4-1.7c1.3-1,2.9-2,5.2-2h0.1c3.2,0,8.7,3.4,9.7,4
				c0.9,0.6,1.2,1.7,0.6,2.7C149.3,351.7,148.7,352.1,148,352.1z"/>
		</g>
		<g>
			<path class="st2" d="M367.4,338.1c-0.7,0-1.3-0.3-1.6-0.9c-0.6-0.9-0.3-2.1,0.6-2.7c1.1-0.7,6.6-4,9.7-4h0.1c2.3,0,3.9,1.1,5.2,2
				c1.4,1.1,2.8,1.9,5.4,1.7c1.1-0.1,2,0.7,2.1,1.7c0.1,1.1-0.7,2-1.7,2.1c-4,0.4-6.3-1.3-8-2.4c-1.3-0.9-1.9-1.3-3.1-1.3
				c-1.5,0-5.5,2-7.8,3.5C368.1,338,367.8,338.1,367.4,338.1z"/>
		</g>
		<g>
			<path class="st2" d="M335.9,391.9c-2.6,0-4.4-1-6-1.7c-0.9-0.5-1.6-0.9-2.3-0.9c-1.1,0-2.2,0.4-3.7,1c-2.4,0.9-5.4,1.9-9,1.1
				c-1.1-0.3-1.6-1.3-1.4-2.3c0.3-1.1,1.3-1.6,2.3-1.4c2.4,0.6,4.5-0.1,6.7-1c1.5-0.6,3.2-1.2,4.9-1.2c0,0,0,0,0.1,0
				c1.5,0,2.8,0.7,4,1.3c1.3,0.7,2.5,1.3,4.2,1.3c1.1,0,1.9,0.9,1.9,1.9C337.8,391.2,336.9,391.9,335.9,391.9z"/>
		</g>
		<g>
			<path class="st2" d="M231.9,356.6c-1.1,0-1.9-0.9-1.9-1.9c0-1.1,0.9-1.9,1.9-1.9c1.6,0,2.9-0.7,4.2-1.3c1.3-0.7,2.5-1.3,4-1.3
				c1.7,0,3.4,0.6,5,1.2c2.2,0.8,4.3,1.5,6.7,1c1.1-0.3,2.1,0.4,2.3,1.3c0.3,1.1-0.4,2.1-1.3,2.3c-3.6,0.9-6.6-0.2-9-1.1
				c-1.3-0.5-2.6-1-3.6-1l0,0c-0.7,0-1.4,0.4-2.3,0.9C236.4,355.6,234.5,356.6,231.9,356.6z"/>
		</g>
	</g>
</g>
</svg>
