<svg width="50" height="50" viewBox="0 0 50 50" fill="none" xmlns="http://www.w3.org/2000/svg">
<rect width="50" height="50" rx="25" fill="#4C8B25"/>
<path d="M34.4125 18.4125C35.1938 17.6313 35.1938 16.3625 34.4125 15.5813C33.6313 14.8 32.3625 14.8 31.5813 15.5813L25 22.1688L18.4125 15.5875C17.6313 14.8063 16.3625 14.8063 15.5813 15.5875C14.8 16.3688 14.8 17.6375 15.5813 18.4188L22.1688 25L15.5875 31.5875C14.8063 32.3688 14.8063 33.6376 15.5875 34.4188C16.3688 35.2001 17.6375 35.2001 18.4188 34.4188L25 27.8313L31.5875 34.4125C32.3688 35.1938 33.6376 35.1938 34.4188 34.4125C35.2001 33.6313 35.2001 32.3625 34.4188 31.5813L27.8313 25L34.4125 18.4125Z" fill="white"/>
</svg>
