<?xml version="1.0" encoding="utf-8"?>
<!-- Generator: Adobe Illustrator 28.3.0, SVG Export Plug-In . SVG Version: 6.00 Build 0)  -->
<svg version="1.1" id="Calque_1" xmlns="http://www.w3.org/2000/svg" xmlns:xlink="http://www.w3.org/1999/xlink" x="0px" y="0px"
	 viewBox="0 0 210 210" style="enable-background:new 0 0 210 210;" xml:space="preserve">
<style type="text/css">
	.st0{fill:#ECA438;}
	.st1{fill:#F7FAF7;}
	.st2{fill:#248235;stroke:#207733;stroke-width:3;stroke-miterlimit:10;}
	.st3{opacity:0.63;}
	.st4{opacity:0.24;fill:#124923;enable-background:new    ;}
	.st5{fill:none;stroke:#207733;stroke-width:3;stroke-miterlimit:10;}
	.st6{fill:#1A5F28;stroke:#134E25;stroke-width:2;stroke-miterlimit:10;}
	.st7{opacity:0.41;fill:#124923;enable-background:new    ;}
	.st8{fill:none;stroke:#134E25;stroke-width:2;stroke-miterlimit:10;}
	.st9{fill:#1A5F28;stroke:#134E25;stroke-width:2;stroke-miterlimit:9.9999;}
	.st10{fill:#114922;}
	.st11{fill:none;stroke:#0F441F;stroke-width:2;stroke-miterlimit:10;}
	.st12{fill:#0D411D;}
	.st13{opacity:0.35;fill:#124923;enable-background:new    ;}
	.st14{opacity:0.16;fill:#FFFFFF;enable-background:new    ;}
	.st15{opacity:0.17;fill:#FFFFFF;enable-background:new    ;}
</style>
<g id="border">
	<path class="st0" d="M195,210H15c-8.3,0-15-6.7-15-15V15C0,6.7,6.7,0,15,0h180c8.3,0,15,6.7,15,15v180C210,203.3,203.3,210,195,210
		z"/>
	<path class="st1" d="M190,200H20c-5.5,0-10-4.5-10-10V20c0-5.5,4.5-10,10-10h170c5.5,0,10,4.5,10,10v170
		C200,195.5,195.5,200,190,200z"/>
</g>
<g>
	<path class="st2" d="M164.7,74.6C159,69,152,66.8,149,69.7c-2.4,2.4-1.4,7.5,2.1,12.4c0.1,0.1,0.1,0.3,0,0.4L133.9,98
		c-0.1,0-0.1,0.1-0.2,0.1h-17.8c-0.2,0-0.3-0.1-0.3-0.3V77.1c0-2-1.1-3.8-2.8-4.6c-5.4-2.7-14.6-6.3-26.5-6.2
		C75,66.4,66.2,69.8,61,72.5c-1.7,0.9-2.8,2.7-2.8,4.6l0,0c0,0.2-0.3,0.4-0.5,0.2c-3-2.2-6.9-3.6-10.3-2.5
		c-5.2,1.6-7.1,8.3-7.6,10.1c-4.4,15.4,9.8,35.1,18.3,41.1c0.1,0.1,0.1,0.1,0.1,0.2v6.2c0,1.4,0.5,2.6,1.3,3.5
		c1.3,1.4,16.2,8.3,28.1,8.1c11.1-0.2,28-6,28-8.7v-6.8c0-0.1,0-0.2,0.1-0.2c13.6-13.5,27.1-26.9,40.6-40.4c0.1-0.1,0.3-0.1,0.4,0
		c5,3.8,10.4,5,12.9,2.5C172.6,87.3,170.4,80.3,164.7,74.6L164.7,74.6z M46.8,95.2c-0.8-2.3-1.7-5.6-0.3-9c0.3-0.7,1.5-3.6,3.9-4.1
		c2.8-0.6,6.1,2.5,6.7,3l0,0l0,0l0,0c0.1,2.7,0.2,5.4,0.3,8.2c0.3,7.5,0.5,15.1,0.8,22.6c0,0.3-0.4,0.4-0.5,0.2
		C54.8,111.8,49.6,103.5,46.8,95.2L46.8,95.2z M115.9,104.6h9.8c0.3,0,0.4,0.3,0.2,0.5l-9.8,8.9c-0.2,0.2-0.5,0-0.5-0.2v-8.9
		C115.6,104.7,115.8,104.6,115.9,104.6z"/>
	<g class="st3">
		<path class="st4" d="M49.3,101.7c-3-6.7-4.5-10.3-3.4-14.3c0.3-1,1-3.6,3.3-4.7c0.2-0.1,1.1-0.5,2.4-0.4c3.1,0.2,5.1,3.1,5.5,2.7
			c0.2-0.2-0.3-1.2-0.9-2c-0.2-0.2-2.8-3.6-6.4-3c-2.2,0.3-3.5,1.9-4.2,2.7c-2.6,3.2-2.3,7.4-2.2,9.4c0.4,4.9,2.5,8.3,5.9,13.8
			c3.8,6.1,8,10.8,8.2,10.6c0.1-0.1-1.2-1.8-3.1-5C54,110.8,51.5,106.7,49.3,101.7L49.3,101.7z"/>
		<path class="st4" d="M150.4,90.8c-2.3-1.5-9.9,7.2-18.5,15.4c-5,4.8-9.8,8.9-13.4,12.4c-1.2,1.2-3.3,0.3-3.3-1.4c0,0,0,0,0-0.1
			c0-0.8,0-1.9,0-3.5c0-3.5,0-6.8,0-9.2c1.3,0.5,3.2,0.4,5.2,0.3c0.9,0,1.2-0.1,2.3-0.1c2.5,0,3.4,0.3,3.5,0
			c0.2-0.5-3.1-2.3-6.8-3.5c-1.6-0.5-3.1-1-4.1-0.9c0.1-12.8,0.2-23.7-0.5-23.8c-0.8-0.1-2.6,11.7-3.9,26.1
			c-2.1,23.2,0.1,26.4-3.7,31.1c-9.6,11.5-37.7,8.9-45.1-2.1c-1-1.5-3.5-5.7-4.2-5.4c-0.3,0.1,0.2,1.1,0.1,3.7c0,1.7-0.3,2.5,0.1,4
			c0,0,0.2,0.9,0.7,1.7c1.6,2.9,4.9,3.6,11.3,5.3c8.8,2.4,7.8,2.4,10,2.7c4.8,0.7,8.5,0.5,11,0.4c6.3-0.4,10.1-1.7,17.7-4.2
			c1.9-0.6,5.3-1.8,6.1-4.4c0.1-0.4,0.2-1,0.3-2.1c0.1-1.5,0.1-2.9,0.1-3.8c0-0.6,0.2-1.1,0.7-1.5c0.6-0.6,1.3-1.4,2.1-2.2
			c1.5-1.7,3.3-3.1,4.7-4.7c3.5-4,4.9-4.5,12.3-12c4.4-4.5,9.1-8.6,13.4-13.3c0.9-0.9,1.5-1.9,2.7-2.2c0.2-0.1,0.5-0.1,0.6-0.3
			C152,92.4,150.8,91.1,150.4,90.8L150.4,90.8z"/>
	</g>
	<path class="st5" d="M164.4,74.6c-5.7-5.7-12.7-7.9-15.7-4.9c-2.4,2.4-1.4,7.5,2.1,12.4c0.1,0.1,0.1,0.3,0,0.4L133.6,98
		c-0.1,0-0.1,0.1-0.2,0.1h-17.8c-0.2,0-0.3-0.1-0.3-0.3V77.1c0-2-1.1-3.8-2.8-4.6c-5.4-2.7-14.6-6.3-26.5-6.2
		c-11.3,0.1-20.1,3.5-25.3,6.2c-1.7,0.9-2.8,2.7-2.8,4.6l0,0c0,0.2-0.3,0.4-0.5,0.2c-3-2.2-6.9-3.6-10.3-2.5
		c-5.2,1.6-7.1,8.3-7.6,10.1c-4.4,15.4,9.8,35.1,18.3,41.1c0.1,0.1,0.1,0.1,0.1,0.2v6.2c0,1.4,0.5,2.6,1.3,3.5
		c1.3,1.4,16.2,8.3,28.1,8.1c11.1-0.2,28-6,28-8.7v-6.8c0-0.1,0-0.2,0.1-0.2c13.6-13.5,27.1-26.9,40.6-40.4c0.1-0.1,0.3-0.1,0.4,0
		c5,3.8,10.4,5,12.9,2.5C172.3,87.3,170.1,80.3,164.4,74.6L164.4,74.6z M46.5,95.2c-0.8-2.3-1.7-5.6-0.3-9c0.3-0.7,1.5-3.6,3.9-4.1
		c2.8-0.6,6.1,2.5,6.7,3l0,0l0,0l0,0c0.1,2.7,0.2,5.4,0.3,8.2c0.3,7.5,0.5,15.1,0.8,22.6c0,0.3-0.4,0.4-0.5,0.2
		C54.5,111.8,49.3,103.5,46.5,95.2L46.5,95.2z M115.6,104.6h9.8c0.3,0,0.4,0.3,0.2,0.5l-9.8,8.9c-0.2,0.2-0.5,0-0.5-0.2v-8.9
		C115.3,104.7,115.5,104.6,115.6,104.6z"/>
	<g id="bouchon">
		<path class="st6" d="M145.5,85.2l4.4-4.1c0.4-0.4,1-0.4,1.4,0l5.8,6.2c0.4,0.4,0.4,1,0,1.4l-4.4,4.1c-0.4,0.4-1,0.4-1.4,0
			l-5.8-6.2C145.1,86.2,145.1,85.6,145.5,85.2z"/>
		<path class="st7" d="M149.4,81.4c-0.4,0.1-0.5,0.6-0.5,0.6c-0.6,2.1,5.4,4.3,5,6.7c-0.3,1.7-3.4,2.2-3.2,3.4
			c0.1,0.5,0.7,0.9,1.2,1c0.6,0.1,1.1-0.3,4-3.4c0.4-0.4,0.6-0.6,0.6-0.9c0.1-1.1-1.7-1.6-3.7-3.5C150.9,83.3,150.3,81.2,149.4,81.4
			L149.4,81.4z"/>
		<path class="st8" d="M145.5,85.2l4.4-4.1c0.4-0.4,1-0.4,1.4,0l5.8,6.2c0.4,0.4,0.4,1,0,1.4l-4.4,4.1c-0.4,0.4-1,0.4-1.4,0
			l-5.8-6.2C145.1,86.2,145.1,85.6,145.5,85.2z"/>
		
			<ellipse transform="matrix(0.7071 -0.7071 0.7071 0.7071 -9.7576 135.8174)" class="st9" cx="159.1" cy="79.7" rx="8.3" ry="15.1"/>
		<path class="st10" d="M171,86.4c-1.6,2.1-9.4,0.5-14.2-4.2c-4.5-4.5-6.5-12.2-4.2-14.2c2.4-1.9,9.3,2.3,13,6.1
			c0.5,0.5,2.1,2.2,3.5,4.8C170.3,81.2,172.2,84.9,171,86.4L171,86.4z"/>
		<path class="st11" d="M170.7,86.6c-1.6,2.1-9.4,0.5-14.2-4.2c-4.5-4.5-6.5-12.2-4.2-14.2c2.4-1.9,9.3,2.3,13,6.1
			c0.5,0.5,2.1,2.2,3.5,4.8C170,81.4,171.9,85,170.7,86.6L170.7,86.6z"/>
		<g id="Calque_9">
			<path class="st12" d="M154.5,74.4c0.9,0,0.9-1.4,0-1.4S153.6,74.4,154.5,74.4L154.5,74.4z"/>
			<path class="st12" d="M155.7,71.9c0.9,0,0.9-1.4,0-1.4S154.8,71.9,155.7,71.9L155.7,71.9z"/>
			<path class="st12" d="M158.6,71.8c0.9,0,0.9-1.4,0-1.4S157.7,71.8,158.6,71.8L158.6,71.8z"/>
			<path class="st12" d="M161,78c0.9,0,0.9-1.4,0-1.4S160.1,78,161,78L161,78z"/>
			<path class="st12" d="M162.2,80.2c0.9,0,0.9-1.4,0-1.4C161.3,78.8,161.3,80.2,162.2,80.2L162.2,80.2z"/>
			<path class="st12" d="M164.5,80.7c0.9,0,0.9-1.4,0-1.4S163.6,80.7,164.5,80.7L164.5,80.7z"/>
			<path class="st12" d="M164.8,78.6c0.9,0,0.9-1.4,0-1.4C163.9,77.2,163.9,78.6,164.8,78.6L164.8,78.6z"/>
			<path class="st12" d="M157.8,74.2c0.9,0,0.9-1.4,0-1.4S156.8,74.2,157.8,74.2L157.8,74.2z"/>
			<path class="st12" d="M156.2,76.9c0.9,0,0.9-1.4,0-1.4S155.3,76.9,156.2,76.9L156.2,76.9z"/>
			<path class="st12" d="M161.4,73.7c0.9,0,0.9-1.4,0-1.4C160.5,72.3,160.5,73.7,161.4,73.7L161.4,73.7z"/>
			<path class="st12" d="M159.4,75.9c0.9,0,0.9-1.4,0-1.4S158.5,75.9,159.4,75.9L159.4,75.9z"/>
			<path class="st12" d="M158.5,78.8c0.9,0,0.9-1.4,0-1.4S157.6,78.8,158.5,78.8L158.5,78.8z"/>
			<path class="st12" d="M159.7,80.6c0.9,0,0.9-1.4,0-1.4S158.8,80.6,159.7,80.6L159.7,80.6z"/>
			<path class="st12" d="M163,76.1c0.9,0,0.9-1.4,0-1.4S162.1,76.1,163,76.1L163,76.1z"/>
			<path class="st12" d="M166.7,80.2c0.9,0,0.9-1.4,0-1.4S165.8,80.2,166.7,80.2L166.7,80.2z"/>
			<path class="st12" d="M167.9,82.1c0.9,0,0.9-1.4,0-1.4S167,82.1,167.9,82.1L167.9,82.1z"/>
			<path class="st12" d="M167.9,84.9c0.9,0,0.9-1.4,0-1.4S167,84.9,167.9,84.9L167.9,84.9z"/>
			<path class="st12" d="M165.5,84.5c0.9,0,0.9-1.4,0-1.4S164.6,84.5,165.5,84.5L165.5,84.5z"/>
			<path class="st12" d="M162.6,83.1c0.9,0,0.9-1.4,0-1.4S161.7,83.1,162.6,83.1L162.6,83.1z"/>
			<path class="st12" d="M165.7,82.5c0.9,0,0.9-1.4,0-1.4S164.8,82.5,165.7,82.5L165.7,82.5z"/>
			<path class="st12" d="M157.4,81c0.9,0,0.9-1.4,0-1.4S156.5,81,157.4,81L157.4,81z"/>
			<path class="st12" d="M155,78.1c0.9,0,0.9-1.4,0-1.4S154.1,78.1,155,78.1L155,78.1z"/>
			<path class="st12" d="M160.3,83.4c0.9,0,0.9-1.4,0-1.4S159.4,83.4,160.3,83.4L160.3,83.4z"/>
		</g>
	</g>
	<path class="st2" d="M115.2,76.4c0.1-1-0.3-1.9-0.3-1.9c-0.5-1.3-1.6-2.4-6.7-4.4c-1.9-0.7-4.4-1.6-7.9-2.4
		c-1.7-0.4-3.4-0.8-5.7-1.2c-2.5-0.4-5.1-0.6-8.1-0.6c0,0-12.9,0.1-24.9,5.7c-1.1,0.5-2.9,1.5-3.5,3.3c0,0-0.3,0.8-0.2,1.8
		c0.3,3,12.4,10,28.7,9.9C101.2,86.6,114.9,80.8,115.2,76.4L115.2,76.4z"/>
	<path class="st13" d="M63.6,76.9c-0.1-4.1,13.1-9.1,25.2-8.7c10.6,0.4,22.6,5.1,22.4,9c-0.2,4-13.4,7.1-23.6,7
		C77.2,84.2,63.8,81,63.6,76.9L63.6,76.9z"/>
	<path class="st14" d="M61.4,113.4c-2.1-0.6-2.1-5-2.1-16c0-9.7,0-10.8,1.3-11.8c3.7-2.9,11,0.8,17.1,2.3
		c13.9,3.6,26.7-3.3,27.3-1.4c0.1,0.4-0.2,0.9-1.4,1.8c-7.4,5.7-19.2,5.2-26.4,4.3c-8.1-1-9.7-2.3-11.6-0.9c-5.5,4,2,19.4-2.6,21.4
		C62.8,113.3,62.1,113.6,61.4,113.4L61.4,113.4z"/>
	<path class="st14" d="M64,127.9c1.6-1.1,5.8,3.7,13,5.8c7.3,2.1,13.4,0.2,14.2,2c0.3,0.7-0.4,1.4-0.6,1.7
		c-4.4,4.6-24.9-0.9-26.8-7.4C63.7,129.7,63.3,128.4,64,127.9L64,127.9z"/>
	<path class="st14" d="M47.7,75.9c-3.3,0.8-4.9,3.9-5.7,5.4c-1.1,2.1-2.3,5.7-1,6.8c0.1,0.1,0.3,0.3,0.5,0.3c1-0.1,0.7-3.3,2.3-6.4
		c0.5-0.9,2.1-4.2,4.8-4.7c2.6-0.4,5.2,2.1,6,1.1c0,0,0.2-0.2,0.2-0.5C54.7,76.6,50.9,75.2,47.7,75.9L47.7,75.9z"/>
	<path class="st15" d="M146.1,86c0,0.3,0.2,0.5,0.5,0.6c0.4,0.1,0.6-0.3,1.8-1.2c0.8-0.6,1.1-0.7,1.1-1s-0.3-0.6-0.7-0.6
		c-0.3-0.1-0.5,0.1-1.5,0.9C146.2,85.5,146,85.8,146.1,86L146.1,86z"/>
	<path class="st15" d="M149,69.8c-0.8,0.1-1.2,2.2-1,3.9c0.1,0.7,0.2,2,0.9,2.4c0.5,0.3,1.2,0,1.4-0.6s-0.3-1-0.4-2.3
		c-0.1-1.5,0.4-2.1,0-2.9C149.6,70.1,149.3,69.7,149,69.8L149,69.8z"/>
	<path class="st15" d="M145.6,89.4c0.3,0.1,0.4,0.4,0.4,0.5c0.5,1.5-3.3,2.9-7,6.6c-2.8,2.9-4,5.5-5.2,5.1c-0.4-0.1-0.7-0.5-0.7-0.8
		c-0.4-1.3,1.8-2.6,4.8-5.2C142.4,91.8,144.5,88.8,145.6,89.4L145.6,89.4z"/>
	<path class="st13" d="M68.1,72.4c-0.7,0.5-3.3,2.2-3.1,4.2c0.1,1.4,1.5,2.6,5.7,4.1c14.8,5.2,26.4-0.1,28.6-1.6
		c0.4-0.3,1.4-1,1.7-2.1c0.3-1.3-0.5-2.5-0.8-3c-2.4-3.6-16.1-5.5-16.8-5.6c1.9-0.2,4.6-0.4,7.7-0.1c5,0.4,8.5,1.6,9.3,1.8
		c1.1,0.4,11.3,3.9,10.9,7.4c-0.2,2.4-5.5,4-9.2,5.1c-0.7,0.2-2.6,0.7-5.1,1.1c-2.9,0.5-5.7,0.6-9.2,0.6c-1.9,0-3.6-0.1-5.3-0.2
		c-3-0.3-6.7-0.6-11-2c-3.5-1.2-7.7-2.7-7.8-5.1C63.5,74.7,67,72.9,68.1,72.4L68.1,72.4z"/>
</g>
</svg>
