<?xml version="1.0" encoding="utf-8"?>
<!-- Generator: Adobe Illustrator 28.3.0, SVG Export Plug-In . SVG Version: 6.00 Build 0)  -->
<svg version="1.1" id="Calque_1" xmlns="http://www.w3.org/2000/svg" xmlns:xlink="http://www.w3.org/1999/xlink" x="0px" y="0px"
	 viewBox="0 0 500 500" style="enable-background:new 0 0 500 500;" xml:space="preserve">
<style type="text/css">
	.st0{fill:#ECA438;}
	.st1{fill:#F7FAF7;}
	.st2{fill:#8FC25E;}
	.st3{fill:#6CA63E;}
	.st4{fill:#4F7F3B;}
	.st5{fill:#558E41;}
	.st6{fill:#9BCD67;}
	.st7{fill:#E4E8A3;}
	.st8{fill:#6CA639;}
	.st9{opacity:0.4;fill:#4F7F3B;enable-background:new    ;}
	.st10{fill:#558C3E;}
	.st11{fill:#C0CC79;}
	.st12{fill:#ECEAC9;}
	.st13{fill:#F9F9E5;}
	.st14{fill:#DDD7A8;}
</style>
<g id="border">
	<path class="st0" d="M464.3,500H35.7C16,500,0,484,0,464.3V35.7C0,16,16,0,35.7,0h428.6C484,0,500,16,500,35.7v428.6
		C500,484,484,500,464.3,500z"/>
	<path class="st1" d="M452.4,476.2H47.6c-13.1,0-23.8-10.7-23.8-23.8V47.6c0-13.1,10.7-23.8,23.8-23.8h404.8
		c13.1,0,23.8,10.7,23.8,23.8v404.8C476.2,465.5,465.5,476.2,452.4,476.2z"/>
</g>
<g>
	<g>
		<path class="st2" d="M381,113.2c-2.7,4-9.5,4.3-16.8,1.4c-3,1-5.9,0.9-8.2-0.6c-2.5-1.5-3.8-4.3-4.1-7.7
			c-5.6-5.8-7.9-12.4-5.2-16.4c2.4-3.5,7.9-4.2,14.1-2.3c4.5-3.5,9.6-4.5,13.3-2.2c3.8,2.4,5,7.7,3.6,13.5
			C381.9,104.1,383.4,109.6,381,113.2z"/>
		<ellipse transform="matrix(0.6207 -0.7841 0.7841 0.6207 56.8374 331.4974)" class="st3" cx="371" cy="107" rx="9" ry="2.9"/>
		<ellipse transform="matrix(0.6207 -0.7841 0.7841 0.6207 59.5363 314.8905)" class="st3" cx="355.2" cy="95.9" rx="9" ry="2.9"/>
	</g>
	<g>
		<path class="st4" d="M366.8,169.6c-21.2,37.4-56,76.6-91.9,126.2c-31.7,43.5-58.8,84.8-98.3,105.8c-24.9,13.3-45.8,15.1-61.6,8.5
			c11.7-1,24.9-5.1,39.3-12.8c42.2-22.5,71.1-66.5,104.9-112.9c38.2-52.9,75.4-94.7,98-134.6c4-7,13.3-26,12.8-43.9
			c0.1,0.1,0.2,0.2,0.3,0.3C388.7,125.6,372.3,159.9,366.8,169.6z"/>
		<path class="st4" d="M370,106c0.5,17.9-8.8,36.9-12.8,43.9c-22.6,39.9-59.8,81.7-98,134.6c-33.8,46.4-62.7,90.4-104.9,112.9
			c-14.4,7.7-27.6,11.8-39.3,12.8c-13-5.4-22.6-16.6-28.1-31.8c-12.2-33.8,31-76.2,43.7-86.7c12.7-10.4,83.2-62.5,105.3-93.6
			c30.1-42.3,58.1-73.3,58.1-73.3C316.4,97,348.7,83.9,370,106z"/>
		<path class="st5" d="M370,106c0.5,17.9-8.8,36.9-12.8,43.9c-22.6,39.9-59.8,81.7-98,134.6c-33.8,46.4-62.7,90.4-104.9,112.9
			c-14.4,7.7-27.6,11.8-39.3,12.8c-13-5.4-22.6-16.6-28.1-31.8c-12.2-33.8,31-76.2,43.7-86.7c12.7-10.4,83.2-62.5,105.3-93.6
			c30.1-42.3,58.1-73.3,58.1-73.3C316.4,97,348.7,83.9,370,106z"/>
		<g>
			<g>
				<path class="st6" d="M138.9,328.5c-1.9,0-3.8-0.9-5-2.6c-1.9-2.8-1.4-6.6,1.4-8.5c1-0.7,100.4-72.1,145.3-150.7
					c1.7-3,5.4-4,8.4-2.3s4,5.4,2.3,8.4c-46.3,80.9-144.8,151.6-149,154.6C141.4,328.2,140.1,328.5,138.9,328.5z"/>
			</g>
			<g>
				<path class="st6" d="M294.6,158.5c-0.7,0-1.2-0.3-1.9-0.5c-2.5-1.2-3.7-4.3-2.5-7c0-0.2,2.5-5.4,6.1-10.4c1.7-2.3,4.9-3,7.2-1.2
					c2.3,1.7,3,4.9,1.2,7.2c-3.1,4.3-5.1,8.7-5.1,8.7C298.7,157.5,296.7,158.6,294.6,158.5z"/>
			</g>
		</g>
		
			<ellipse transform="matrix(0.7401 -0.6725 0.6725 0.7401 -229.2874 178.3314)" class="st7" cx="116.1" cy="385.8" rx="5.9" ry="11.5"/>
		<g>
			
				<ellipse transform="matrix(0.4291 -0.9033 0.9033 0.4291 -250.3539 361.7542)" class="st8" cx="161" cy="378.9" rx="4.1" ry="6.3"/>
			<circle class="st8" cx="180.6" cy="346" r="4.7"/>
			
				<ellipse transform="matrix(0.1968 -0.9804 0.9804 0.1968 -153.6167 481.049)" class="st8" cx="216.8" cy="334.3" rx="5.7" ry="3.3"/>
			
				<ellipse transform="matrix(0.9559 -0.2938 0.2938 0.9559 -79.2181 77.0322)" class="st8" cx="216.8" cy="302.2" rx="4" ry="2.9"/>
			<circle class="st8" cx="240.5" cy="310.2" r="3.3"/>
			
				<ellipse transform="matrix(0.9364 -0.3509 0.3509 0.9364 -80.245 103.3725)" class="st8" cx="245.1" cy="273.1" rx="2.8" ry="4.3"/>
			
				<ellipse transform="matrix(0.1015 -0.9948 0.9948 0.1015 -4.7357 490.4834)" class="st8" cx="269.2" cy="247.9" rx="4.6" ry="3.1"/>
			<ellipse class="st8" cx="270.4" cy="273.1" rx="4.3" ry="2.9"/>
			<ellipse class="st8" cx="289.8" cy="221" rx="4.5" ry="2.5"/>
			
				<ellipse transform="matrix(0.9831 -0.1832 0.1832 0.9831 -39.5414 57.3827)" class="st8" cx="290.8" cy="242.7" rx="2.4" ry="3.1"/>
			
				<ellipse transform="matrix(0.9582 -0.2862 0.2862 0.9582 -42.6821 96.9721)" class="st8" cx="310.4" cy="194.5" rx="5.1" ry="4"/>
			
				<ellipse transform="matrix(0.2322 -0.9727 0.9727 0.2322 30.7255 472.5941)" class="st8" cx="314.7" cy="216.8" rx="4.1" ry="3.1"/>
			<ellipse transform="matrix(0.5 -0.866 0.866 0.5 9.445 371.7977)" class="st8" cx="326.7" cy="177.7" rx="3.4" ry="4.6"/>
			
				<ellipse transform="matrix(0.2322 -0.9727 0.9727 0.2322 113.3772 456.8344)" class="st8" cx="346.1" cy="156.6" rx="3.8" ry="2.4"/>
			<ellipse class="st8" cx="332.3" cy="199.8" rx="3.8" ry="2.5"/>
			
				<ellipse transform="matrix(0.9559 -0.2938 0.2938 0.9559 -99.3829 72.7908)" class="st8" cx="192.6" cy="367.2" rx="2.5" ry="5"/>
		</g>
		<path class="st9" d="M366.8,169.6c-21.2,37.4-56,76.6-91.9,126.2c-31.7,43.5-58.8,84.8-98.3,105.8c-24.9,13.3-45.8,15.1-61.6,8.5
			c11.7-1,24.9-5.1,39.3-12.8c42.2-22.5,71.1-66.5,104.9-112.9c38.2-52.9,75.4-94.7,98-134.6c4-7,13.3-26,12.8-43.9
			c0.1,0.1,0.2,0.2,0.3,0.3C388.7,125.6,372.3,159.9,366.8,169.6z"/>
	</g>
	<g>
		<g>
			<g>
				<path class="st4" d="M413.1,380.9c-9.9,20.5-26,24.8-47.1,16.2c-20.4-8.3-27.2-25.6-21.3-46.5c-2.4,15.6,6.2,30.7,23.4,37.7
					c21,8.5,37.4,4.4,47.2-16c1.6-3.3,3.3-8.3,4.2-11.3C418.3,366.7,416.2,374.4,413.1,380.9z"/>
				<path class="st10" d="M419.1,362.8c-0.9,3.1-2.2,6.3-3.7,9.5c-9.9,20.3-26.3,24.5-47.2,16c-17.2-7-26.4-19.2-24-34.8
					c0.5-3.4,1.6-6.9,3.2-10.5c10.9-24.7,30.3-31.6,51.3-23.1C416.8,327.3,425.1,342.6,419.1,362.8z"/>
			</g>
			<path class="st11" d="M414.1,371.7c-9.5,19.6-25.3,23.6-45.5,15.4s-28.9-23.7-20-43.7c10.5-23.8,29.2-30.4,49.4-22.3
				C418.2,329.3,425.7,347.8,414.1,371.7z"/>
			<path class="st12" d="M412.8,370.9c-9.1,18.7-24.2,22.5-43.5,14.7s-27.6-22.7-19.2-41.7c10-22.7,27.9-29.1,47.2-21.3
				C416.7,330.4,423.8,348,412.8,370.9z"/>
		</g>
		<path class="st13" d="M409.3,365.2c-4.2,8.3-12.1,17.7-14.9,14c-2.1-2.7,6.5-8.6,11.2-19.1c3.8-8.5-3.3-23.5,2.4-21.7
			C412.9,340,414.8,354.5,409.3,365.2z"/>
		<g>
			
				<ellipse transform="matrix(0.4029 -0.9153 0.9153 0.4029 -89.0731 540.1553)" class="st14" cx="369.4" cy="338.3" rx="2.9" ry="1.1"/>
			
				<ellipse transform="matrix(0.3118 -0.9502 0.9502 0.3118 -77.0353 619.0569)" class="st14" cx="388.8" cy="362.7" rx="2.9" ry="1.1"/>
			
				<ellipse transform="matrix(0.5069 -0.862 0.862 0.5069 -115.007 495.9586)" class="st14" cx="376" cy="348.5" rx="2.4" ry="1.4"/>
			
				<ellipse transform="matrix(1 -6.000033e-03 6.000033e-03 1 -2.1104 2.3404)" class="st14" cx="389" cy="352.9" rx="1.1" ry="3.2"/>
			
				<ellipse transform="matrix(0.3118 -0.9502 0.9502 0.3118 -83.2746 593.946)" class="st14" cx="368.4" cy="354.5" rx="3.2" ry="1.5"/>
			
				<ellipse transform="matrix(0.3676 -0.93 0.93 0.3676 -76.0447 575.3956)" class="st14" cx="385.1" cy="343.6" rx="3.5" ry="1.1"/>
			
				<ellipse transform="matrix(0.1275 -0.9918 0.9918 0.1275 -26.3733 691.0676)" class="st14" cx="379.6" cy="360.5" rx="3.7" ry="1.4"/>
			
				<ellipse transform="matrix(0.1836 -0.983 0.983 0.1836 -59.7691 665.7581)" class="st14" cx="370.9" cy="368.9" rx="3.1" ry="1"/>
			
				<ellipse transform="matrix(0.9913 -0.1314 0.1314 0.9913 -44.6371 50.3367)" class="st14" cx="359.1" cy="363.4" rx="1.1" ry="3.4"/>
			
				<ellipse transform="matrix(0.1836 -0.983 0.983 0.1836 -51.4734 641.9127)" class="st14" cx="360.7" cy="351.9" rx="3.1" ry="1.2"/>
			
				<ellipse transform="matrix(0.4029 -0.9153 0.9153 0.4029 -117.1905 570.8787)" class="st14" cx="378.9" cy="375.3" rx="3.1" ry="1.2"/>
			
				<ellipse transform="matrix(5.218620e-02 -0.9986 0.9986 5.218620e-02 24.4331 696.2126)" class="st14" cx="379" cy="335.2" rx="2.4" ry="1"/>
			<ellipse transform="matrix(0.2322 -0.9727 0.9727 0.2322 -29.1767 645.0087)" class="st14" cx="394" cy="341" rx="3" ry="0.9"/>
		</g>
	</g>
	<g>
		<g>
			<g>
				<path class="st4" d="M381.4,381.7c-4.9,22.2-19.5,30.1-42,26.7c-21.8-3.3-32.4-18.6-31.5-40.3c1.3,15.8,13.1,28.5,31.5,31.2
					c22.4,3.4,37.3-4.4,42.2-26.5c0.8-3.6,1.3-8.8,1.5-12C383.3,366.8,383,374.7,381.4,381.7z"/>
				<path class="st10" d="M383.1,362.8c-0.2,3.2-0.6,6.6-1.4,10.1c-4.9,22.1-19.9,29.9-42.2,26.5c-18.4-2.8-30.1-12.5-31.4-28.3
					c-0.3-3.4-0.1-7,0.6-11c4.9-26.5,22.2-37.8,44.5-34.4C372.6,328.7,384.2,341.8,383.1,362.8z"/>
			</g>
			<path class="st11" d="M380.4,372.5c-4.7,21.3-19.1,28.8-40.7,25.5c-21.5-3.3-33.6-16.4-29.6-37.8c4.7-25.5,21.4-36.4,42.9-33.1
				C374.5,330.4,386.1,346.6,380.4,372.5z"/>
			<path class="st12" d="M378.8,372.1c-4.5,20.3-18.3,27.5-38.9,24.4s-32.1-15.7-28.3-36.1c4.5-24.4,20.4-34.8,41-31.7
				C373.2,331.8,384.3,347.3,378.8,372.1z"/>
		</g>
		<path class="st13" d="M374.2,367.4c-2.2,9-7.7,20-11.3,17.1c-2.6-2.1,4.3-9.9,6.4-21.2c1.7-9.1-8.7-22.1-2.7-21.6
			C371.8,342,377,355.7,374.2,367.4z"/>
		<g>
			
				<ellipse transform="matrix(0.1793 -0.9838 0.9838 0.1793 -74.6873 611.4986)" class="st14" cx="329.2" cy="350.5" rx="2.9" ry="1.1"/>
			
				<ellipse transform="matrix(8.261047e-02 -0.9966 0.9966 8.261047e-02 -43.9849 691.475)" class="st14" cx="353.6" cy="369.6" rx="2.9" ry="1.1"/>
			
				<ellipse transform="matrix(0.2929 -0.9561 0.9561 0.2929 -104.2207 576.8802)" class="st14" cx="337.9" cy="358.9" rx="2.4" ry="1.4"/>
			
				<ellipse transform="matrix(0.9713 -0.238 0.238 0.9713 -75.625 94.0305)" class="st14" cx="351.6" cy="360.2" rx="1.1" ry="3.2"/>
			
				<ellipse transform="matrix(8.261047e-02 -0.9966 0.9966 8.261047e-02 -60.9901 666.8766)" class="st14" cx="331.7" cy="366.6" rx="3.2" ry="1.5"/>
			
				<ellipse transform="matrix(0.1417 -0.9899 0.9899 0.1417 -51.8532 644.1509)" class="st14" cx="345.5" cy="352" rx="3.5" ry="1.1"/>
			
				<ellipse transform="matrix(0.9943 -0.1063 0.1063 0.9943 -37.349 38.6834)" class="st14" cx="344.2" cy="369.7" rx="1.4" ry="3.7"/>
			
				<ellipse transform="matrix(0.9988 -4.968216e-02 4.968216e-02 0.9988 -18.4529 17.2473)" class="st14" cx="337.7" cy="379.8" rx="1" ry="3.1"/>
			
				<ellipse transform="matrix(0.9337 -0.358 0.358 0.9337 -113.5414 141.3216)" class="st14" cx="324.9" cy="377.3" rx="1.1" ry="3.4"/>
			
				<ellipse transform="matrix(0.9988 -4.968216e-02 4.968216e-02 0.9988 -17.7745 16.5394)" class="st14" cx="323.8" cy="365.8" rx="1.2" ry="3.1"/>
			
				<ellipse transform="matrix(0.1793 -0.9838 0.9838 0.1793 -93.3287 656.6554)" class="st14" cx="346.9" cy="384.3" rx="3.1" ry="1.2"/>
			
				<ellipse transform="matrix(0.9835 -0.1811 0.1811 0.9835 -56.9318 66.8648)" class="st14" cx="337.7" cy="345.2" rx="1" ry="2.4"/>
			<ellipse class="st14" cx="353.7" cy="347.4" rx="0.9" ry="3"/>
		</g>
	</g>
</g>
</svg>
